<?xml version="1.0" encoding="UTF-8"?>
<svg id="Layer_2" data-name="Layer 2" xmlns="http://www.w3.org/2000/svg" viewBox="0 0 1413.39 1566.77">
  <defs>
    <style>
      .cls-1 {
        fill: #8d0800;
      }

      .cls-2 {
        fill: #162336;
      }

      .cls-3 {
        fill: #331006;
      }

      .cls-4 {
        fill: #ef7f9d;
      }

      .cls-5 {
        fill: #ff9100;
      }

      .cls-6, .cls-7 {
        fill: #fafffe;
      }

      .cls-8 {
        fill: #59a11b;
      }

      .cls-7 {
        stroke: #fafffe;
        stroke-miterlimit: 10;
        stroke-width: 76.54px;
      }

      .cls-9 {
        fill: #fff;
      }

      .cls-10 {
        fill: #564922;
      }

      .cls-11 {
        fill: #045b24;
      }

      .cls-12 {
        fill: #38475c;
      }

      .cls-13 {
        fill: #9fddf6;
      }

      .cls-14 {
        fill: #2f330f;
      }

      .cls-15 {
        fill: #ff0037;
      }

      .cls-16 {
        fill: #0f0d0e;
      }

      .cls-17 {
        fill: #721f01;
      }

      .cls-18 {
        fill: #ecf2c0;
      }

      .cls-19 {
        fill: #bc1713;
      }

      .cls-20 {
        fill: #b1d008;
      }

      .cls-21 {
        fill: #313131;
      }

      .cls-22 {
        fill: #ffc200;
      }

      .cls-23 {
        fill: #3a131d;
      }

      .cls-24 {
        fill: #d8f0fa;
      }

      .cls-25 {
        fill: #f9df95;
      }
    </style>
  </defs>
  <g id="Layer_1-2" data-name="Layer 1">
    <g>
      <path class="cls-6" d="M1314.04,1042.15c-12.42,82.45-75.67,202.16-195.39,290.26-117.05,86.13-390.09,193.31-402.21,198.05-12.12-4.74-285.16-111.92-402.21-198.05-119.72-88.09-182.96-207.81-195.39-290.26-56.26-373.37,8.47-826.16,8.47-826.16L716.44,33.54l589.13,182.45s64.73,452.79,8.47,826.16Z"/>
      <path class="cls-22" d="M1351.6,485.92c-9.04-196.52-30.21-285.74-30.21-285.74L732.68,5.37l-16.24-5.37-16.24,5.37L111.5,200.18s-21.18,89.22-30.21,285.74c-9.04,196.52-26.26,448.38,30.21,615.53s173.93,252.99,286.87,311.72,303.3,146.58,317.65,153.21v.39s.15-.07.42-.2c.28.13.42.2.42.2v-.39c14.35-6.63,208.91-96.67,317.65-153.21,112.94-58.73,230.4-144.56,286.87-311.72s39.25-419.01,30.21-615.53ZM1314.04,1042.15c-12.42,82.45-75.67,202.16-195.39,290.26-117.05,86.13-390.09,193.31-402.21,198.05-12.12-4.74-285.16-111.92-402.21-198.05-119.72-88.09-182.96-207.81-195.39-290.26-56.26-373.37,8.47-826.16,8.47-826.16L716.44,33.54l589.13,182.45s64.73,452.79,8.47,826.16Z"/>
      <path class="cls-13" d="M159.69,682.81s7.15-363.2,8.85-388.61,18.64-45.74,49.13-54.21,474.35-169.41,503.15-169.41,481.13,171.11,518.4,179.58c37.27,8.47,38.96,30.49,37.27,64.38-1.69,33.88-20.71,219.76-20.71,219.76l-538.35-4.61-552.28,213.46-5.46-60.33Z"/>
      <path class="cls-24" d="M160.35,489.03s46.31-250.73,291.39-297.03c245.08-46.31,518.4,59.86,615.53,114.07,97.13,54.21,140.05,247.34,137.79,266.54s-124.78-68.94-371.85-49.72c-247.07,19.22-675.12,231.55-675.12,231.55l2.26-265.41Z"/>
      <path class="cls-9" d="M980.3,318.49c-2.74-13.2,4.03-26.43,15.81-31.62,10.61-4.67,23.37-1.99,31.62,6.78,13.55-28.21,44.17-41.88,70.02-33.88,19.44,6.01,34.13,23.63,38.4,45.18,18.39-7.43,36.53,1.07,40.66,13.55,2.75,8.32-.72,18.42-7.91,25.98-27.24,1.37-60.63.87-98.26-4.52-35.26-5.05-65.66-13.17-90.35-21.46Z"/>
      <path class="cls-20" d="M1299.56,625.15s-178.73-45.74-275.29-33.04c-96.56,12.71-121.98,22.02-125.36,38.96-3.39,16.94,19.48,38.96,167.72,74.54,148.23,35.58,232.94,68.61,232.94,68.61v-149.08Z"/>
      <path class="cls-8" d="M1059.46,604.41s83.01,6.78,130.45,11.86,103.15,21.08,108.24,32.94,1.42,125.01,1.42,125.01c0,0-303.73-83.6-336.67-96.97-22.64-9.19,98.26-37.27,127.06-44.05s-30.49-28.8-30.49-28.8Z"/>
      <path class="cls-1" d="M733.54,433.95s-49.63-18.92-48.39-23.72,40.2-44.61,63.07-64.94c22.87-20.33,50.26-58.16,59.86-57.88s150.49,85.55,152.75,88.66,7.34,5.36,4.8,9.88c-2.54,4.52-40.38,25.98-44.61,23.15-4.24-2.82-98.82-74.54-101.65-72s-80.32,99-85.84,96.85Z"/>
      <path class="cls-19" d="M690.52,411s12.05,7.15,16.19,5.65,100.89-111.06,105.79-114.07c4.89-3.01,110.31,66.64,120.09,71.53s21.84,15.06,24.85,13.93,6.02-7.53,4.52-8.28-151.5-95.48-153.87-92.35c-2.37,3.13-117.56,123.6-117.56,123.6Z"/>
      <path class="cls-1" d="M1125.16,444.96s8.19,1.13,9.88,0-1.41-18.92-9.88-36.71c-8.47-17.79-10.45-29.65-13.27-29.93s-172.76,4.8-187.48,4.8c-9.04,0-42.16,62.12-40.14,66.64s4.85,4.8,22.64,6.63,184.38-.14,190.02-2.4,28.24-9.04,28.24-9.04Z"/>
      <path class="cls-19" d="M896.82,440.93c-3.32-1.66,16.94-38.02,24.09-45.93s10.92-7.91,10.92-7.91l171.29-4.14,1.88.38s-16.56,54.21-19.95,54.59-182.96,5.65-188.23,3.01Z"/>
      <path class="cls-8" d="M173.15,676.79c13.6-8.55,36.05-4.33,33.88-4.52-.59-.05-7.64-.78-10.92-6.78-2.88-5.27-1.6-12.35,3.39-16.94-1.7-1.94-14.39-16.86-10.54-35.01,4.47-21.05,27.93-38.18,47.81-32,15.96,4.96,22.11,22.64,22.96,25.22l78.68,73.04c-31.5,15.64-65.63,34.49-101.27,57.22-34.49,21.99-52.63,32.86-79.42,54.14-2.66-4.73-37.28-81.25,15.42-114.38Z"/>
      <path class="cls-8" d="M429.9,571.38c2.66-4.43,13.2-21.97,35.39-28.24,18.53-5.23,34.11.52,39.15,2.64.23-2.06,2.72-21.67,20.71-32,15.68-9.01,31.36-4.21,33.88-3.39,2.65-2.45,19.16-17.26,43.29-15.06,29.62,2.7,43.79,28.57,44.8,30.49.38,17.32.75,34.64,1.13,51.95-38.88,8.88-80.8,20.28-124.99,35.01-32.68,10.89-83.81,27.83-112.09,39.62-1.28-2.32-1.62-47.17,18.73-81.04Z"/>
      <path class="cls-22" d="M641.82,581.19s4.52-42.16,5.65-60.24,0-44.05,0-44.05c0,0,80.19-1.88,81.69-2.64s-1.88-53.84,0-54.59,89.98-87.72,91.86-88.09,87.34,62.87,88.47,65.13-22.21,47.44-19.58,51.58,11.67,6.02,15.81,5.65,180.33-3.39,184.09-3.76,16.94-38.02,17.69-40.66,22.59,33.88,22.59,35.39-5.27,105.41-5.27,105.41c0,0-33.88,18.45-40.28,17.32s-57.98-16.94-242.45-7.91c-61.74,3.02-200.28,21.46-200.28,21.46Z"/>
      <path class="cls-5" d="M911.48,396.51c-1.17-2.9-88.06-68.25-91.82-68.63s-92.24,87.72-94.49,91.48c-2.26,3.76-3.39,49.69-3.39,49.69l-77.93,2.52-7.91,113.43s25.98-2.26,36.14-3.81c10.16-1.55,114.07-13.88,114.07-13.88l1.88-22.21s-51.58,3.39-53.46,2.64c-1.88-.75.38-117.08,1.51-121.22,1.13-4.14,85.08-82.07,85.08-82.07,0,0,57.6,47.06,65.51,53.08,7.91,6.02,12.98,16.3,14.48,19.03,1.51,2.73,11.49-17.15,10.33-20.05ZM727.05,553s-68.89,7.15-70.4,5.65c-1.51-1.51,0-68.52,0-73.41,0,0,67.39-3.39,70.4-1.88,3.01,1.51,0,69.65,0,69.65Z"/>
      <path class="cls-5" d="M1109.35,405.1c-3.01-2.26-7.15.38-7.91,3.01-.75,2.64-10.92,37.65-14.68,38.02-3.76.38-185.22,3.76-185.22,3.76l4.52,89.76s-25.98,1.72-43.67,1.72h-17.69v20.71s120.47-1.88,157.74,0c37.27,1.88,82.07,7.91,82.07,7.91l41.79-17.32,4.14-111.81s-18.07-33.51-21.08-35.76ZM1070.2,545.14c-3.39,2.64-46.94-3.76-78.62-4.14-31.68-.38-79.94,1.88-79.94,0v-75.67h96.07c5.27,0,60.24-3.76,60.99-1.88.75,1.88,4.89,79.06,1.51,81.69Z"/>
      <path class="cls-3" d="M781.31,477.12c-6.94,9.39,0,91.07,0,91.07l69.41-5.31s2.45-77.59,0-85.75-17.1-10.61-35.7-8.98-33.7,8.98-33.7,8.98Z"/>
      <path class="cls-20" d="M740.95,572.71c-55.51,17.71-203.6,58.53-175.79,135.45,25.41,70.31,284.38,123.84,245.65,200.92-29.71,59.13-225.32,107.41-298.16,131.13-72.85,23.72-298.16,88.09-303.25,84.71-5.08-3.39-41.51-101.65-45.74-167.72-4.24-66.07-5.93-166.02-5.93-166.02,0,0,114.35-101.65,304.94-165.18,190.59-63.53,278.28-53.29,278.28-53.29Z"/>
      <path class="cls-17" d="M976.88,479.4c-.99-.42-17.65.28-26.4,0s-15.58.89-15.58.89c0,0-.33,20,0,30.59.33,10.59.89,15.81.89,15.81,0,0,40.52.56,41.08-.56s.99-46.31,0-46.73ZM972.09,520.77c-.43.93-31.61.47-31.61.47,0,0-.43-4.32-.69-13.07-.25-8.75,0-25.28,0-25.28,0,0,5.25-.97,11.99-.74,6.74.23,19.56-.35,20.32,0,.76.35.43,37.69,0,38.62Z"/>
      <path class="cls-17" d="M1053.12,479.4c-.99-.42-17.65.28-26.4,0s-15.58.89-15.58.89c0,0-.33,20,0,30.59.33,10.59.89,15.81.89,15.81,0,0,40.52.56,41.08-.56s.99-46.31,0-46.73ZM1048.33,520.77c-.43.93-31.61.47-31.61.47,0,0-.43-4.32-.69-13.07-.25-8.75,0-25.28,0-25.28,0,0,5.25-.97,11.99-.74,6.74.23,19.56-.35,20.32,0,.76.35.43,37.69,0,38.62Z"/>
      <path class="cls-17" d="M714.69,497.71c-.99-.42-17.65.28-26.4,0-8.75-.28-15.58.89-15.58.89,0,0-.33,20,0,30.59.33,10.59.89,15.81.89,15.81,0,0,40.52.56,41.08-.56s.99-46.31,0-46.73ZM709.9,539.08c-.43.93-31.61.47-31.61.47,0,0-.43-4.32-.69-13.07-.25-8.75,0-25.28,0-25.28,0,0,5.25-.97,11.99-.74,6.74.23,19.56-.35,20.32,0,.76.35.43,37.69,0,38.62Z"/>
      <path class="cls-17" d="M840.43,388.42c-.99-.42-17.65.28-26.4,0-8.75-.28-15.58.89-15.58.89,0,0-.33,20,0,30.59.33,10.59.89,15.81.89,15.81,0,0,40.52.56,41.08-.56s.99-46.31,0-46.73ZM835.64,429.79c-.43.93-31.61.47-31.61.47,0,0-.43-4.32-.69-13.07-.25-8.75,0-25.28,0-25.28,0,0,5.25-.97,11.99-.74,6.74.23,19.56-.35,20.32,0,.76.35.43,37.69,0,38.62Z"/>
      <path class="cls-16" d="M608.63,664.23c-32,71.15,122.93,126.66,149.47,140.78s107.76,35.29,119.72,79.06c13.53,49.55-156.42,118.59-232.09,147.95s-411.11,131.01-412.23,133.27,15.81,22.59,37.84,55.34c22.02,32.75,118.02,103.91,156.42,131.58,38.4,27.67,289.69,136.66,297.6,138.35s132.18-50.13,222.49-102.21c97.31-56.12,210.25-114.85,315.28-300.07,52-91.69,35.01-232.09,36.14-252.99s-1.87-44.4-1.87-44.4c0,0-65.51-23.72-118.02-38.4-52.52-14.68-342.39-74.45-320.61-118.5,31.93-64.58,253.97-52.8,253.97-52.8,0,0-142.84-29.95-284.26-9.39-141.71,20.61-204.46,59.06-219.85,92.42Z"/>
      <path class="cls-21" d="M632.21,667c-24.85,59.29,110.12,104.47,138.92,115.76,27.99,10.98,159.76,46.59,169.41,90.92,15.25,70.02-184.66,149.08-260.33,178.45-75.67,29.36-391.34,133.27-392.47,135.53s80.75,99.95,161.51,143.44c41.67,22.44,271.06,124.24,278.96,125.93,7.91,1.69,117.12-36.82,207.25-89.22,96.14-55.91,159.39-102.21,270.49-243.95,104.43-133.23,86.96-261.46,86.96-261.46,6.69-35.97-18.07-60.42-124.23-90.35-52.49-14.8-337.69-79.06-320.75-137.22,20.15-69.17,264.81-53.62,264.81-53.62,0,0-141.46-22.28-282.88-1.72-141.71,20.61-182.26,54.16-197.65,87.53Z"/>
      <g>
        <path class="cls-9" d="M871.17,589.83c8.07-.78,18.19-2.9,18.07-4.24-.11-1.21-8.65-1.78-16.38-.85-7.94.96-16,3.63-15.81,4.8.19,1.22,9.22.76,14.12.28Z"/>
        <path class="cls-9" d="M811.88,607.33c7.2-1.23,8.39-3.28,19.76-6.78,9.83-3.02,15.3-3.43,15.25-4.52-.07-1.31-8.12-2.26-15.25-2.26-9.32,0-39.07,8.81-38.4,12.14.47,2.34,10.83,2.75,18.64,1.41Z"/>
        <path class="cls-9" d="M759.93,631.9c7.53-4.53,23.18-14.13,25.41-16.38,2.05-2.06-9.37-2.23-12.14-1.41-11.38,3.35-24.86,13.49-26.82,15.81-2.32,2.75,12.91,2.37,13.55,1.98Z"/>
        <path class="cls-9" d="M739.03,677.07c1.74.66,12.42.9,11.29-2.26-1.22-3.44-2.91-10.96-1.98-25.41.32-4.95,1.77-5.91.47-7.11-1.89-1.75-6.12-.58-9.22-.8-2.64-.19-7.03,12.05-7.34,14.96-.09.8.64,18.29,6.78,20.61Z"/>
        <path class="cls-9" d="M765.43,691.47c-8.41-1.07-13.02-.6-13.84,1.41-1.61,3.97,11.56,13.95,39.53,29.93,4.61-1.41,9.22-2.82,13.84-4.24-7.01-3.34-15.04-7.82-23.44-13.84-6.25-4.48-11.6-9.02-16.09-13.27Z"/>
        <path class="cls-9" d="M837.72,729.59c-5.18,1.79-10.35,3.58-15.53,5.36,7.31,3.62,15.03,7.21,23.15,10.73,10.65,4.61,20.94,8.63,30.78,12.14,4.99-2.35,9.98-4.71,14.96-7.06-8.42-3.5-16.99-6.99-25.69-10.45-9.32-3.71-18.55-7.28-27.67-10.73Z"/>
        <path class="cls-9" d="M946.14,777.87c4.24-2.35,8.47-4.71,12.71-7.06-7.88-2.14-15.78-4.3-23.72-6.49-8.8-2.43-17.55-4.88-26.26-7.34-4.52,1.51-9.04,3.01-13.55,4.52,6.67,3.46,14.8,7.08,24.28,10.16,9.86,3.21,18.89,5.09,26.54,6.21Z"/>
        <path class="cls-9" d="M1044.96,808.93c6.02-2.26,12.05-4.52,18.07-6.78-10.83-4.98-23.28-9.98-37.27-14.4-11.68-3.69-22.68-6.43-32.75-8.47-3.86,2.92-7.72,5.84-11.58,8.75,9.77,2.61,19.96,5.6,30.49,9.04,11.68,3.8,22.7,7.8,33.04,11.86Z"/>
        <path class="cls-9" d="M1098.33,848.18c6.32,10.53,8.81,20.43,9.88,26.82,8.38-.85,16.75-1.69,25.13-2.54-2.09-8.13-7.27-23.52-20.61-37.84-8.8-9.44-18.04-15.08-24.56-18.35-4.61,2.35-9.22,4.71-13.84,7.06,5.86,3.82,16.02,11.56,24,24.85Z"/>
        <path class="cls-9" d="M1089.01,939.66c-11.06,17.26-23.01,30.36-33.04,39.81,10.45,1.51,20.89,3.01,31.34,4.52,7.8-9.5,16.45-21.51,24.56-36.14,8.96-16.14,14.9-31.21,18.92-43.76-7.91.19-15.81.38-23.72.56-4.17,10.33-9.96,22.35-18.07,35.01Z"/>
        <path class="cls-9" d="M966.19,1054.3c-22.18,15.92-43.76,30.07-64.38,42.64,12.05,2.35,24.09,4.71,36.14,7.06,17.72-10.87,37.16-24.17,57.32-40.38,19.36-15.56,35.94-31.03,49.98-45.46-9.51-.85-19.01-1.69-28.52-2.54-15.6,12.72-32.44,25.69-50.54,38.68Z"/>
        <path class="cls-9" d="M782.09,1164.41c-21.67,11.38-42.96,22.09-63.81,32.19,12.14,3.76,24.28,7.53,36.42,11.29,39.62-22.31,79.25-44.61,118.87-66.92-11.29-2.64-22.59-5.27-33.88-7.91-18.56,10.46-37.76,20.93-57.6,31.34Z"/>
        <path class="cls-9" d="M462.47,1317.73c12.61,6.59,25.22,13.18,37.84,19.76,62.59-32.28,125.18-64.56,187.76-96.85-11.86-3.95-23.72-7.91-35.58-11.86-63.34,29.65-126.68,59.29-190.02,88.94Z"/>
      </g>
      <path class="cls-2" d="M374.94,961.4c4.15,2.17,26.57,13.4,51.67,4.24,12.99-4.74,21.26-12.95,25.41-17.79-20.89-92.61-41.79-185.22-62.68-277.83,10.82-2.64,28.6-8.83,38.12-24.56,11.46-18.94,4.97-41.8,2.54-50.82-11.58-42.94-30.54-140.48-55.91-275.29-1.16-2.52-13.31-27.84-37.27-30.49-6.11-.68-11.61.27-16.09,1.69-17.57,1.92-32.05,4.16-42.35,5.93-36.62,6.27-48.28,11.28-57.6,16.94-18.75,11.38-22.1,21.81-22.87,24.56-2.79,10.01,1.06,18.87,1.69,22.02,8.94,44.61,56.66,279.62,61.84,299.01,2.19,8.19,6.7,11.71,12.89,17.13,15.66,13.71,39.92,9.36,46.87,7.15,17.91,92.71,35.83,185.41,53.74,278.12Z"/>
      <path class="cls-12" d="M222.85,333.17c-5.3,11.36,38.4,206.68,64.94,325.83,9.09,12.44,19.58,16.62,34.45,12.99,8.14-1.98,20.43-4.01,39.53-9.6,20.33-5.95,40.63-11.09,49.69-18.64,13.76-11.46,12.61-16.88,11.48-26.16-2.26-18.56-9.6-50.45-13.93-74.16-1-5.5-24.09-112.56-41.6-200.09-.81-4.04-2.14-27-10.16-35.58-4.79-5.11-11.81-7.33-25.98-7.91-30.15-1.23-54.21,8.09-79.06,15.25-10.33,2.97-24.09,6.78-29.36,18.07Z"/>
      <path class="cls-8" d="M1235.74,596.04c-4.66,1.63-37.9,12.63-70.02-6.78-25.14-15.19-33.56-39.31-35.58-45.74-1.46-1.63-20.38-23.56-12.99-50.82,6.16-22.71,27.95-39.36,53.65-40.09-5.94-22.38,3.36-45.23,21.46-55.34,21.13-11.8,43.57-.29,45.18.56,22.51-15.28,51.29-16.85,73.98-3.95,28.39,16.13,33.34,47,33.88,50.82,26.76,1.8,49.23,18.6,56.47,41.79,7.54,24.16-4.64,45.04-6.78,48.56,1.82,4.33,10.71,26.72,0,49.13-10.8,22.6-33.95,29.39-43.48,32.19-20.32,5.96-37.23,2.28-63.25-3.39-22.17-4.83-40.01-11.51-52.52-16.94Z"/>
      <path class="cls-20" d="M1162.33,524.32c-13.95-7.32-20.11-23.89-14.68-37.84,5.85-15.04,23.61-23.03,39.53-16.94-7.58-26.47,3.21-50.36,19.76-56.47,12.39-4.57,25.08,1.88,28.8,3.95,14.35-17.19,37.36-24.31,58.16-18.07,23.14,6.94,39.28,29.12,38.96,54.21,25.53-2.52,48.04,14.06,52.52,36.14,3.56,17.55-4.71,36.47-20.89,47.44,1.62,6.59,5.94,27.24-5.08,37.84-5.32,5.12-11.42,5.2-34.45,5.08-56.95-.28-64.31-1-75.11-3.39-13.26-2.94-24.32-6.76-32.75-10.16-3.19,2.49-18.76,14.13-38.96,10.73-1.7-.29-30.76-5.56-32.75-24.85-1.06-10.31,5.98-20.99,16.94-27.67Z"/>
      <path class="cls-18" d="M1229.53,497.78c-9.6-5.08-17.79-20.45-17.51-38.96.22-14.3,13.7-32.2,30.49-32.19,14.24.01,23.59,12.9,24.85,14.68,6.36-13.75,19.66-21.87,31.62-20.33,16.13,2.08,30.09,21.73,24.28,43.48,15.79-7.47,33.7-3.66,42.92,7.91,11.87,14.9,4.48,36.58-6.78,47.44-13.82,13.33-37.83,14.55-56.47,1.13-68.33,9.79-72.2-22.51-73.41-23.15Z"/>
      <ellipse class="cls-22" cx="554.37" cy="275" rx="74.45" ry="75.06"/>
      <ellipse class="cls-10" cx="327.77" cy="486.91" rx="52.3" ry="52.72"/>
      <path class="cls-22" d="M540.68,192.65c-.18,0,11.2-37.14,11.29-36.99l10.16,36.14c.09.15-21.46.85-21.46.85Z"/>
      <path class="cls-22" d="M574.53,194.57c-.17-.07,25.38-29.34,25.41-29.16l-5.47,37.14c.02.18-19.94-7.98-19.94-7.98Z"/>
      <path class="cls-22" d="M603.93,208.88c-.13-.13,34.81-17.12,34.76-16.95l-19.51,32.07c-.05.17-15.25-15.12-15.25-15.12Z"/>
      <path class="cls-22" d="M625.3,232.66c-.07-.17,38.71-2.62,38.59-2.48l-30.23,22.26c-.11.14-8.36-19.78-8.36-19.78Z"/>
      <path class="cls-22" d="M635.44,265.01c0-.18,36.4,13.4,36.25,13.49l-36.68,7.98c-.16.08.44-21.47.44-21.47Z"/>
      <path class="cls-22" d="M632.42,297.57c.08-.16,28.3,26.53,28.12,26.55l-36.89-6.95c-.18.02,8.77-19.6,8.77-19.6Z"/>
      <path class="cls-22" d="M618.34,325.67c.12-.13,18.69,34,18.51,33.96l-32.93-18.04c-.18-.04,14.42-15.92,14.42-15.92Z"/>
      <path class="cls-22" d="M593.28,348.5c.17-.07,3.19,38.66,3.04,38.55l-22.7-29.9c-.14-.11,19.66-8.65,19.66-8.65Z"/>
      <path class="cls-22" d="M562.48,359.48c.18,0-12.13,36.85-12.22,36.69l-9.25-36.39c-.09-.16,21.47-.31,21.47-.31Z"/>
      <path class="cls-22" d="M530.54,358.1c.17.07-25.22,29.48-25.25,29.3l5.27-37.17c-.02-.18,19.98,7.87,19.98,7.87Z"/>
      <path class="cls-22" d="M500.33,342.7c.12.13-35.05,16.62-35,16.44l19.98-31.79c.05-.17,15.03,15.34,15.03,15.34Z"/>
      <path class="cls-22" d="M479.2,317.75c.06.17-38.76,1.64-38.64,1.5l30.79-21.49c.11-.14,7.86,19.99,7.86,19.99Z"/>
      <path class="cls-22" d="M471.76,286.98c0,.18-37.28-10.72-37.13-10.81l36.01-10.63c.15-.1,1.12,21.45,1.12,21.45Z"/>
      <path class="cls-22" d="M471.92,255.01c-.06.17-30.42-24.08-30.24-24.11l37.35,3.84c.18-.03-7.11,20.27-7.11,20.27Z"/>
      <path class="cls-22" d="M486.15,224.24c-.13.13-17.94-34.39-17.77-34.35l32.53,18.75c.17.04-14.76,15.6-14.76,15.6Z"/>
      <path class="cls-22" d="M510.28,202.17c-.17.07-3.12-38.67-2.98-38.56l22.65,29.94c.14.11-19.67,8.62-19.67,8.62Z"/>
      <ellipse class="cls-22" cx="327.77" cy="486.91" rx="46.27" ry="46.65"/>
      <path class="cls-25" d="M359.13,466.94c0,8.15-14.13,3.03-30.08,3.03s-23-2.72-23-10.87,7.13-13.91,23.07-13.91,30.01,13.6,30.01,21.75Z"/>
      <ellipse class="cls-14" cx="352.24" cy="602.11" rx="52.3" ry="52.72"/>
      <ellipse class="cls-20" cx="352.24" cy="602.11" rx="46.27" ry="46.65"/>
      <path class="cls-18" d="M383.6,582.14c0,8.15-14.13,3.03-30.08,3.03s-23-2.72-23-10.87,7.13-13.91,23.07-13.91,30.01,13.6,30.01,21.75Z"/>
      <ellipse class="cls-23" cx="302.17" cy="374.35" rx="52.3" ry="52.72"/>
      <ellipse class="cls-15" cx="302.17" cy="374.35" rx="46.27" ry="46.65"/>
      <path class="cls-4" d="M333.53,354.38c0,8.15-14.13,3.03-30.08,3.03s-23-2.72-23-10.87,7.13-13.91,23.07-13.91,30.01,13.6,30.01,21.75Z"/>
      <path class="cls-17" d="M1171.93,683c20.5-7.83,30.6-19.75,35.01-25.98,7.11-10.04,9.64-20.62,14.68-41.79,4.94-20.73,7.41-31.09,6.21-38.96-3.47-22.73-20.77-41.06-31.06-51.95-2.56-2.72-4.77-4.85-6.21-6.21,2.27-1.93,9.05-7.15,17.51-6.21,10.08,1.11,16.09,10.25,18.64,14.12,8.93,13.58,3.49,22.74,12.99,32.75,1.94,2.05,7.34,7.74,14.68,7.91,3.61.08,7.86-1.17,26.54-17.51,10.26-8.98,12.37-11.57,17.51-12.42,8.77-1.46,18.62,3.42,18.64,7.34.01,2.96-5.59,3.82-14.12,8.47-5.59,3.05-21.03,12.42-28.8,28.24-2.26,4.61-5.52,13.12-5.08,25.41-4.96,8.25-12.61,23.49-14.68,44.05-2.67,26.41,5.37,46.85,9.6,55.91-13.27.07-31.13-1.22-51.39-6.78-16.68-4.57-30.33-10.76-40.66-16.38Z"/>
      <path class="cls-8" d="M810.81,909.07c24.33-48.41-68.77-87.53-147.69-127.35-13.47,2.38-21.58,10.24-20.88,19.4,1.01,13.31,40.08,10.12,55.34,35.01,24.28,39.61-4.68,89.86-9.04,97.13-33.17,55.38-104.97,64.67-198.78,76.8-147.09,19.03-215.24-16.24-242.82-33.88-25.07-16.03-33.08-28.03-33.88-39.53-3.36-47.84,117.83-87.19,124.24-89.22-4.73-5.44-38.46-42.92-92.61-41.79-2.63.05-52.27,1.96-85.7,39.54.95,33.9,2.46,77.56,4.67,112.01,4.24,66.07,40.66,164.33,45.74,167.72,5.08,3.39,230.4-60.99,303.25-84.71,72.85-23.72,268.45-72,298.16-131.13Z"/>
      <path class="cls-17" d="M783.94,480.3c-6.4,8.66,0,83.98,0,83.98l64-4.9s2.26-71.55,0-79.08c-2.26-7.53-15.77-9.79-32.92-8.28s-31.08,8.28-31.08,8.28Z"/>
      <path class="cls-25" d="M833.21,522.89c-5.9-1.97-7.34,8.47-1.98,9.6s8.75-7.34,1.98-9.6Z"/>
      <path class="cls-1" d="M729.59,476.58s-83.58,5.65-86.96,2.68-6.4-6.64-2.49-11.72,36.94-42.35,39.48-45.46c2.54-3.11,5.08-6.78,7.06-6.78s42.92.85,44.33,3.95c1.41,3.11,1.69,53.93-1.41,57.32Z"/>
      <path class="cls-19" d="M687.13,419.85c-4.8,3.39-39.53,42.16-33.51,42.54s68.14.38,69.65-2.26,6.78-30.49,3.39-35.01-33.13-9.79-39.53-5.27Z"/>
      <path class="cls-24" d="M835.64,429.79c-.43.93-31.61.47-31.61.47,0,0-.43-4.32-.69-13.07-.25-8.75,0-25.28,0-25.28,0,0,5.25-.97,11.99-.74,6.74.23,19.56-.35,20.32,0,.76.35.43,37.69,0,38.62Z"/>
      <path class="cls-24" d="M972.09,520.77c-.43.93-31.61.47-31.61.47,0,0-.43-4.32-.69-13.07-.25-8.75,0-25.28,0-25.28,0,0,5.25-.97,11.99-.74,6.74.23,19.56-.35,20.32,0,.76.35.43,37.69,0,38.62Z"/>
      <path class="cls-24" d="M1048.33,520.77c-.43.93-31.61.47-31.61.47,0,0-.43-4.32-.69-13.07-.25-8.75,0-25.28,0-25.28,0,0,5.25-.97,11.99-.74,6.74.23,19.56-.35,20.32,0,.76.35.43,37.69,0,38.62Z"/>
      <path class="cls-24" d="M709.9,539.08c-.43.93-31.61.47-31.61.47,0,0-.43-4.32-.69-13.07-.25-8.75,0-25.28,0-25.28,0,0,5.25-.97,11.99-.74,6.74.23,19.56-.35,20.32,0,.76.35.43,37.69,0,38.62Z"/>
    </g>
    <g>
      <path class="cls-7" d="M1371.06,886.53c-6.43-10.72-179.56-5.26-265.82,0-175.78,10.72-360.14,42.87-379.43,42.87-53.63,0-173.64-25.72-342.99-49.3-169.35-23.58-321.55,0-336.56,10.72-15.01,10.72-4.29,27.87-4.29,137.2s19.29,180.07,19.29,180.07l65.41,27.25,28.91,79.93s297.97,32.16,510.2,34.3c212.22,2.14,572.36-19.29,578.79-21.44,6.43-2.14,53.59-102.9,53.59-102.9,0,0-6.88-1.48-20.36-3.92,44.04-5.62,73.49-10.37,78.24-13.23,21.44-12.86,10.72-40.73,15.01-102.9,4.29-62.17,6.43-207.94,0-218.66Z"/>
      <path class="cls-11" d="M164.17,1250.95l-102.9-42.87s-19.29-70.74-19.29-180.07-10.72-126.48,4.29-137.2,167.21-34.3,336.56-10.72c169.35,23.58,289.35,49.3,342.99,49.3,19.29,0,203.65-32.16,379.43-42.87,86.25-5.26,259.39-10.72,265.82,0,6.43,10.72,4.29,156.49,0,218.66-4.29,62.17,6.43,90.03-15.01,102.9-21.44,12.86-544.5,64.31-645.25,60.02-100.75-4.29-512.34,8.57-546.64-17.15Z"/>
      <g>
        <path class="cls-6" d="M207.92,1123.55c0,5.9-7.26,9.74-14.52,9.74-18.43,0-32.11-5.38-44.96-31.02-5.58-11.54-14.52-47.94-18.99-66.65h-3.63v63.57c0,20.51,11.45,18.46,11.45,24.35s-4.75,9.74-12.01,9.74h-39.65c-7.26,0-12.01-3.85-12.01-9.74s11.17-3.85,11.17-24.35v-111c0-20.51-11.17-18.71-11.17-24.35s4.75-9.74,12.01-9.74h73.72c14.24,0,37.7,8.46,37.7,42.04,0,22.3-13.68,33.32-34.35,37.43,4.75,14.87,19.55,58.45,27.65,72.03,9.77,16.41,17.59,12.05,17.59,17.94ZM138.66,971.8h-12.85v50.76c38.26-1.03,42.17-20.51,42.17-28.71,0-19.74-17.87-22.05-29.32-22.05Z"/>
        <path class="cls-6" d="M346.43,1123.29c0,5.9-4.75,9.74-12.01,9.74-16.2,0-34.91-4.61-39.37-24.61-8.66,11.02-23.46,24.61-42.17,24.61-25.69,0-32.67-30.76-32.67-43.07v-52.81c0-20.51-11.17-18.71-11.17-24.61s4.75-9.48,12.01-9.48c18.43,0,40.21,5.9,40.21,34.09v52.81c0,11.28,6.7,17.94,11.73,17.94,9.49,0,19.27-17.43,20.94-33.84v-37.17c0-20.51-11.17-18.71-11.17-24.35s4.75-9.74,12.01-9.74h39.65c7.26,0,12.01,3.85,12.01,9.74s-11.17,3.85-11.17,24.35v61.78h-.56l.56.26c0,20.51,11.17,18.71,11.17,24.35Z"/>
        <path class="cls-6" d="M482.98,1123.29c0,5.9-4.75,9.74-12.01,9.74-17.59,0-38.26-5.64-40.21-30.76-7.82,14.61-29.6,31.79-44.12,31.79-18.15,0-30.44-11.54-30.44-33.84,0-28.45,35.47-57.93,74.28-41.27-.84-21.53-5.58-40.76-16.48-40.76-16.48,0-8.38,23.58-14.52,29.99-9.77,9.74-43.01-5.38-36.58-19.48,10.89-23.58,28.76-28.2,51.1-28.2,36.86,0,57.81,27.94,57.81,67.16v31.02h-.56l.56.26c0,20.51,11.17,18.71,11.17,24.35ZM430.76,1069.72c-44.4-13.33-40.77,40.5-28.76,40.5,16.48,0,28.76-25.63,28.76-40.5Z"/>
        <path class="cls-6" d="M593.42,1122.11c0,3.6-2.9,5.95-7.34,5.95-9.72,0-20.81-2.82-23.88-14.25-5.29,6.58-14.33,15.04-25.93,15.04-22.69,0-21.84-29.44-21.84-36.96s3.07-43.38,26.1-43.38c9.72,0,16.55,5.79,20.81,11.43v-20.36c0-12.53-6.82-11.28-6.82-14.88s2.9-5.95,7.34-5.95c11.26,0,24.57,3.76,24.57,20.83v67.66c0,12.53,6.99,11.28,6.99,14.88ZM561.34,1081.07c-.68-8.93-3.58-16.13-8.87-16.13-4.44,0-10.75,4.07-12.28,25.53-.85,9.71,2.22,22.4,8.36,22.4,5.46,0,11.6-9.71,12.8-19.26v-12.53Z"/>
        <path class="cls-6" d="M667.64,1088.28c0,23.96-12.79,41.03-35.14,41.03s-35.32-17.07-35.32-41.03,12.8-41.03,35.32-41.03,35.14,17.07,35.14,41.03ZM644.77,1088.28c0-15.04-4.78-30.23-12.28-30.23s-12.28,15.19-12.28,30.23,4.78,30.07,12.28,30.07,12.28-15.04,12.28-30.07Z"/>
        <path class="cls-6" d="M786.16,1028.96c37.14,19.48,53.34,41.01,41.33,71.52-14.52,36.4-65.35,34.35-74,34.35-14.52-.26-43.84-5.38-54.73-16.15-10.61-10.51,13.12-55.37,27.09-45.88,10.05,6.92,9.22,35.12,32.95,35.12,30.44,0,42.73-24.1-12.57-56.65-44.12-25.89-46.08-54.34-37.42-71.26,14.8-28.45,49.71-28.2,58.36-27.94,14.52.26,34.91,5.13,46.08,16.15,10.33,10.25-19.27,34.09-28.76,25.12-10.89-10.51-13.96-19.74-27.37-19.99-13.96-.26-16.76,31.53,29.04,55.63Z"/>
        <path class="cls-6" d="M957.9,1123.29c0,5.9-4.75,9.74-12.01,9.74-17.59,0-38.26-5.64-40.21-30.76-7.82,14.61-29.6,31.79-44.12,31.79-18.15,0-30.44-11.54-30.44-33.84,0-28.45,35.47-57.93,74.28-41.27-.84-21.53-5.58-40.76-16.48-40.76-16.48,0-8.38,23.58-14.52,29.99-9.77,9.74-43.01-5.38-36.58-19.48,10.89-23.58,28.76-28.2,51.1-28.2,36.86,0,57.81,27.94,57.81,67.16v31.02h-.56l.56.26c0,20.51,11.17,18.71,11.17,24.35ZM905.68,1069.72c-44.4-13.33-40.77,40.5-28.76,40.5,16.48,0,28.76-25.63,28.76-40.5Z"/>
        <path class="cls-6" d="M1093.62,1063.05c0,12.3-4.75,71.01-42.45,71.01-17.59,0-29.6-11.54-36.58-21.79-5.86,16.41-23.18,20.51-37.98,20.51-7.26,0-12.01-3.85-12.01-9.74s11.17-3.85,11.17-24.35v-110.74c0-20.51-11.17-18.46-11.17-24.35s4.75-9.74,12.01-9.74c18.43,0,40.21,6.15,40.21,34.09v37.94c8.94-10.77,23.18-23.33,41.33-23.33,37.14,0,35.47,48.45,35.47,60.5ZM1051.73,1056.9c0-15.89-9.22-27.43-14.24-27.43-9.22,0-18.43,15.12-20.66,30.76v23.07c1.12,13.33,4.47,24.61,13.12,24.61s21.78-17.43,21.78-51.01Z"/>
        <path class="cls-6" d="M1220.4,1088.18c0,24.86-18.99,46.65-52.22,46.65-36.86,0-62.55-27.94-62.55-67.16s20.94-67.16,57.81-67.16c22.06,0,36.02,7.43,46.91,25.12,5.59,8.72,7.54,27.17-2.51,27.17h-63.67c-.56,4.87-.84,9.74-.84,14.87,0,24.61,16.76,33.58,26.81,33.58,14.24,0,28.76-8.46,28.76-36.14,0-6.66,21.5.77,21.5,23.07ZM1145.28,1045.37h31.28c.28-8.46,2.79-27.17-13.13-27.17-8.66,0-14.8,11.79-18.15,27.17Z"/>
        <path class="cls-6" d="M1315.06,1056.39c-6.42-6.41,1.95-38.19-14.52-38.19-10.61,0-17.87,17.94-19.83,38.45v42.3c0,20.51,11.45,18.71,11.45,24.35s-4.75,9.74-12.01,9.74h-39.65c-7.26,0-12.01-3.85-12.01-9.74s11.17-3.85,11.17-24.35v-61.78h.28-.28c0-20.51-11.17-18.71-11.17-24.61s4.75-9.48,12.01-9.48c12.57,0,26.81,2.82,34.63,13.59,5.86-10.25,15.92-16.15,28.48-16.15,28.48,0,37.14,12.82,47.75,36.4,6.42,14.1-26.81,28.97-36.3,19.48Z"/>
      </g>
      <path class="cls-5" d="M119.15,1214.51l36.44,100.75s297.97,32.16,510.2,34.3c212.22,2.14,572.36-19.29,578.79-21.44,6.43-2.14,53.59-102.9,53.59-102.9,0,0-218.66-47.16-608.81-47.16s-570.22,36.44-570.22,36.44Z"/>
    </g>
  </g>
</svg>