<?xml version="1.0" encoding="UTF-8"?>
<svg id="Layer_2" data-name="Layer 2" xmlns="http://www.w3.org/2000/svg" viewBox="0 0 605.94 743.95">
  <defs>
    <style>
      .cls-1 {
        fill: #78a2c9;
      }

      .cls-2 {
        fill: #bbdaf2;
      }

      .cls-3 {
        fill: #35397c;
      }

      .cls-4 {
        fill: #ffb600;
      }

      .cls-5 {
        fill: #165d91;
      }

      .cls-6 {
        fill: #d3ab32;
      }

      .cls-7 {
        fill: #05293d;
      }

      .cls-8 {
        fill: #fefefe;
      }

      .cls-9 {
        fill: #4982b7;
      }
    </style>
  </defs>
  <g id="Layer_1-2" data-name="Layer 1">
    <path class="cls-7" d="M358.01,607.31c0,68.88,9.75,130.63-49.23,135.7-119.89,10.32-165.15-66.82-165.15-135.7s47.99-124.72,107.19-124.72,107.19,55.84,107.19,124.72Z"/>
    <ellipse class="cls-7" cx="309.48" cy="616.4" rx="107.19" ry="124.72"/>
    <ellipse class="cls-1" cx="329.55" cy="627.6" rx="69.05" ry="81.5"/>
    <path class="cls-7" d="M427.62,646.76c-43.94,21.06-97.78,27.23-145.55,25.15-14.94-.65-28.87-2.95-43.61-4.71-11.2-1.34-21.82-1.95-32.76-4.82-32.32-8.48-62.22-23.47-88.09-44.49-12.86-10.44-22.99-22.03-32.05-35.79-15.63-23.74-28.67-48.46-37.54-75.87-17.56-.85-27.97-1.64-37.62-18.22-14.88-25.59-11.28-64.53-4.79-92.61,9.68-34.26,18.01-66.78,45.3-92-8.37-12.55-12.25-26.32-11.37-41.18.87-14.75,2.87-28.48,5.85-43,8.12-37.23,24.88-93.74,44.13-126.11,6.73-11.32,15.07-20.69,24.6-29.93C182.22-2.78,265.27.95,280.5.3c55.13-2.34,124.78,8.75,169.97,42.33,41.97,31.19,66.97,76.09,79.27,126.53,8.63,35.42,10.91,71.43,7.86,107.76-.67,7.99-2.61,14.71-6.22,21.64,13.75,26.88,17.11,58.92,17.5,88.32,17.8,24.63,30.36,57.92,38.08,87.06,5.56,20.96,10.25,41.27,14.44,62.58,4.68,23.78,5.82,47.45,3.07,71.48-2.5,21.89-13.03,49.07-37.94,52.21-10.04,1.26-19.18-.17-27.12-6.58-20.96-14.71-34.32-43.2-45.88-66.71-8.55,12.66-16.8,23.66-27.16,33.73-11.46,10.93-24.12,19.04-38.74,26.11ZM282.81,10.36c-14.6-.38-29.27.24-44.25,1.82-9.28.98-17.5,4.1-26.58,6.74-34.77,10.12-66.92,28.31-92.96,53.95-9.6,9.46-18.46,19.34-24.87,31.83-5.16,10.06-9.85,19.62-14,30.32-12.49,32.2-22.05,65.01-27.67,99.2-2.08,12.66-3.5,24.58-2.56,37.35s7.64,26.74,17.7,35.47c3.01,2.61,7.64,3.37,11.16,5.44,38.67,22.67,82.77,34.31,127.18,40.68,56.47,8.09,122.11,11.17,178.78,4.11,30.12-3.75,58.99-11.24,86.59-23.7,19.47-8.79,51.56-27.85,55.08-50.72,5.29-34.32,3.15-68.84-3.49-102.72-4.56-23.24-13.06-44.1-24.01-64.72-13.4-25.26-31.66-48.03-55.26-65.43-29.44-21.71-67.69-33.41-104.1-37.68-18.61-2.18-37.38-3.36-56.74-1.93ZM443.09,383.43c-22.99,10.02-46.32,18-71.52,22.76-31.28,5.9-62.28,8.2-94.17,7.8-45.14-.57-86.07-4.84-127.78-22.56-23.82-10.12-45.05-24.06-63.6-41.95-1.66-1.6-3.17-3.11-5.35-4.11-.05-1.24-.75-2.43-1.79-3.49-5.62-5.76-9.92-11.9-15.85-18.72-30.73,88.46-23.49,177.16,32.56,253.9,6.23,8.53,11.56,17.47,20.26,24.78,14.47,12.17,14.74,13.01,31.33,23.7,19.43,12.52,40.39,21.44,62.66,27.71,9.66,2.72,18.63,5.84,28.63,7.02,16.44,1.95,32.35,1.94,49.02,2.11,27.29.29,53.69-1.65,80.33-7.35,30.91-6.62,67.42-19.61,90.81-41.37,11.8-10.97,21.19-23.59,29.63-37.25-.95-2.56-1.47-4.81-3.46-6.59-6.58-3.19-15.34-6.09-20.76-12.4-7.92-9.21-15.17-19.03-19.57-30.89-15.71-42.33-20.28-107.07,10.27-143.48,6.58-7.85,14.77-10.35,24.11-12.95,9.62-2.68,23.91-15.51,44.93-5.34,5.35,2.59,9.78,6.05,14.49,9.92-.6-20.88-3.59-44.61-12.13-63.32-21.35,31.43-49.71,55.4-83.04,72.08ZM12.26,458.89c.11,10.71,6.7,30.1,18.01,34.89,4.18,1.77,9.7,1.86,14.05,1.7-3.31-16.83-8.24-33.13-9.4-49.82-1.85-26.62-.17-53.05,5.08-79.56,3.51-17.72,8.86-33.68,14.64-51.51-20.32,19.11-29.63,52.58-36.72,78.35-5.29,19.22-9.17,46.6-5.66,65.95ZM486.9,339.94c-20.41,9.11-39.79,16.48-61.19,20.81-21.72,4.95-42.93,7.19-65.28,8.92-47.3,2.89-94.07,1.77-141.13-3.61-51.21-6.51-97.51-18.57-143.41-43.51,16.36,22.42,37.43,39.23,61.57,51.79,18.56,9.5,37.62,15.83,57.99,20.44,22.35,5.03,44.19,7.21,67.21,8.38,57.31,2.91,120.6-3.44,172.77-28.58,18.42-9.3,36.1-19.29,51.48-34.63ZM487.97,339.55c0-.21-.17-.39-.39-.39s-.39.17-.39.39.17.39.39.39.39-.17.39-.39ZM492.66,375.96c-16.45,6.22-28.5,20.16-33.14,37.52-11.74,43.9,13.35,104.59,32.6,144.9l20.76,43.49c5.7,11.94,12.29,22.73,20.68,32.84,7.24,8.72,16.03,15.02,26.97,18.15,3.89,1.11,7.8.31,11.17-2.34,17.47-13.75,22.96-36.73,22.77-58.74,2.16-23.54-2.04-54.18-8.55-77.79-3.57-21.01-9-41.67-16.22-62.17-9.23-26.24-39.18-97.42-77.04-75.85Z"/>
    <path class="cls-9" d="M464.03,557.42c-50.62,38.61-112.09,61.67-176.04,65.76-66.41,4.25-130.54-10.98-187.69-44.49-1.79-1.05-3.09-1.65-4.71-1.64-56.05-76.74-63.29-165.44-32.56-253.9,5.94,6.82,10.23,12.96,15.85,18.72,1.04,1.07,1.74,2.25,1.79,3.49-.7.75-1.09,2.24-.65,3.8,9.94,35.66,33.52,66.38,60.94,91.06,1.5,1.35,124.47,40.46,134.02,39.53,41.37-4.05,85.76-3.63,117.56-30.22,18.68-15.62,36.22-36.79,47.85-58.47.02-.04,5.64-7.38,2.7-7.63,33.33-16.68,61.69-40.65,83.04-72.08,8.53,18.71,11.53,42.44,12.13,63.32-4.71-3.87-9.13-7.33-14.49-9.92-21.02-10.16-35.31,2.66-44.93,5.34-9.34,2.6-17.53,5.11-24.11,12.95-30.55,36.41-25.97,101.14-10.27,143.48,4.4,11.87,11.65,21.68,19.57,30.89Z"/>
    <path class="cls-1" d="M522.91,180.13c-4.56-23.24-13.06-44.1-24.01-64.72-13.4-25.26-31.66-48.03-55.26-65.43-29.44-21.71-67.69-33.41-104.1-37.68-.79,5.85-5.83,10.13-11.25,13.45-14.03,8.6-34.53,4.61-43.33-10.46-.99-1.7-2.53-2.99-2.16-4.92-14.6-.38-29.27.24-44.25,1.82-9.28.98-17.5,4.1-26.58,6.74-32.76,9.53-63.17,26.23-88.35,49.56-1.63,1.25-3.17,2.7-4.6,4.39-9.6,9.46-18.46,19.34-24.87,31.83-5.16,10.06-9.85,19.62-14,30.32-12.49,32.2-22.05,65.01-27.67,99.2-2.08,12.66-3.5,24.58-2.56,37.35.98,13.36,7.64,26.74,17.7,35.47,3.01,2.61,7.64,3.37,11.16,5.44,38.67,22.67,82.77,34.31,127.18,40.68,56.47,8.09,122.11,11.17,178.78,4.11,30.12-3.75,58.99-11.24,86.59-23.7,19.47-8.79,51.56-27.85,55.08-50.72,5.29-34.32,3.15-68.84-3.49-102.72ZM392.71,212.02c-1.32,19.81-4.1,38.83-9.74,57.83-9.17,30.85-26.97,55.69-58.49,65.97-26.5,8.64-59.11,6.67-86.8,3.25-28.54-3.53-56.14-7.87-84.27-13.5-25.84-5.18-56.72-15.32-76.06-33.52-13.25-12.47-20.01-29.24-18.32-47.86,2.74-30.23,9.27-59.59,18.58-88.47,10.62-32.94,33.05-80.66,72.21-84.05,13.87-1.2,26.19,2.84,36.22,12.18l10.81,10.06c5.48,5.11,12.27,8.91,19.97,9.54,10.06.83,20.16.08,29.35-2.87-.28-.13-.57-.24-.85-.35.29.1.57.22.85.35,17.71-2.87,29.94-8.22,48.31-7.7,13.94.4,27.15,2.94,40.44,6.8,14.44,4.2,25.58,13.05,35.7,23.41,19.77,24.46,24.13,58.46,22.09,88.92Z"/>
    <path class="cls-1" d="M443.09,383.43c2.94.26-2.68,7.59-2.7,7.63-11.63,21.68-29.17,42.85-47.85,58.47-31.8,26.59-67.45,41.32-108.88,44.72-84.73,6.96-145.05-51.63-146.55-52.98-27.43-24.68-47.16-56.45-57.1-92.11-.43-1.56-.05-3.05.65-3.8,2.18,1,3.69,2.51,5.35,4.11,18.55,17.89,39.78,31.83,63.6,41.95,41.71,17.72,82.64,21.99,127.78,22.56,31.9.4,62.89-1.9,94.17-7.8,25.2-4.76,48.53-12.73,71.52-22.76Z"/>
    <path class="cls-5" d="M95.58,577.05c1.62-.01,2.92.59,4.71,1.64,57.15,33.51,121.28,48.74,187.69,44.49,63.95-4.09,125.42-27.15,176.04-65.76,5.43,6.31,14.19,9.21,20.76,12.4,1.99,1.78,2.5,4.03,3.46,6.59-8.43,13.66-17.83,26.28-29.63,37.25-23.4,21.75-59.9,34.75-90.81,41.37-26.64,5.7-53.04,7.64-80.33,7.35-16.68-.18-32.58-.17-49.02-2.11-10-1.18-18.97-4.3-28.63-7.02-22.26-6.27-43.23-15.19-62.66-27.71-16.58-10.69-16.86-11.53-31.33-23.7-8.7-7.31-14.03-16.25-20.26-24.78Z"/>
    <path class="cls-9" d="M585.92,513.98c6.52,23.61,10.72,54.25,8.55,77.79-33.08,0-69.23-12.56-96.96-31.11-1.92-1.29-3.53-2.13-5.39-2.28-19.24-40.31-44.33-101.01-32.6-144.9,4.64-17.36,16.69-31.3,33.14-37.52-1.83,10.52-3.6,21.04-2.81,32.07,1.79,25.17,10.49,48.62,27.22,67.68,18.76,21.37,40.95,33.99,68.85,38.28Z"/>
    <path class="cls-7" d="M486.9,339.94c-15.38,15.34-33.06,25.33-51.48,34.63-52.18,25.14-115.46,31.49-172.77,28.58-23.01-1.17-44.86-3.35-67.21-8.38-20.37-4.62-39.43-10.94-57.99-20.44-24.14-12.56-45.21-29.37-61.57-51.79,45.9,24.94,92.2,37,143.41,43.51,47.06,5.39,93.84,6.5,141.13,3.61,22.35-1.73,43.56-3.97,65.28-8.92,21.4-4.33,40.78-11.71,61.19-20.81Z"/>
    <path class="cls-1" d="M585.92,513.98c-27.89-4.29-50.09-16.9-68.85-38.28-16.73-19.06-25.43-42.5-27.22-67.68-.79-11.03.99-21.55,2.81-32.07,37.86-21.57,67.81,49.6,77.04,75.85,7.21,20.5,12.64,41.16,16.22,62.17Z"/>
    <path class="cls-5" d="M594.47,591.76c.19,22.01-5.3,44.99-22.77,58.74-3.37,2.65-7.28,3.46-11.17,2.34-10.93-3.13-19.73-9.42-26.97-18.15-8.39-10.11-14.98-20.9-20.68-32.84l-20.76-43.49c1.86.14,3.47.99,5.39,2.28,27.72,18.55,63.87,31.12,96.96,31.11Z"/>
    <path class="cls-9" d="M34.92,445.66l-16.61,10.66c-2,1.28-3.77,2.85-6.04,2.57-3.51-19.35.37-46.73,5.66-65.95,7.09-25.77,16.4-59.24,36.72-78.35-5.78,17.83-11.13,33.79-14.64,51.51-5.25,26.51-6.92,52.94-5.08,79.56Z"/>
    <path class="cls-5" d="M34.92,445.66c1.16,16.69,6.09,32.99,9.4,49.82-4.35.16-9.87.07-14.05-1.7-11.31-4.79-17.9-24.18-18.01-34.89,2.28.28,4.04-1.29,6.04-2.57l16.61-10.66Z"/>
    <path class="cls-2" d="M339.55,12.29c-.79,5.85-5.83,10.13-11.25,13.45-14.03,8.6-34.53,4.61-43.33-10.46-.99-1.7-2.53-2.99-2.16-4.92,19.36-1.43,38.13-.26,56.74,1.93Z"/>
    <circle class="cls-3" cx="487.58" cy="339.55" r=".39"/>
    <path class="cls-6" d="M246.15,100.59c17.71-2.87,29.94-8.22,48.31-7.69,13.94.4,27.15,2.94,40.44,6.8,14.44,4.2,25.58,13.05,35.7,23.41,19.77,24.46,24.13,58.46,22.09,88.92-1.32,19.81-4.1,38.83-9.74,57.83-9.17,30.85-26.97,55.69-58.49,65.97-26.5,8.64-59.11,6.67-86.8,3.25-28.54-3.53-56.14-7.87-84.27-13.5-25.84-5.18-56.72-15.32-76.06-33.52-13.25-12.47-20.01-29.24-18.32-47.86,2.74-30.23,9.27-59.59,18.58-88.47,10.62-32.94,33.05-80.66,72.21-84.05,13.87-1.2,26.19,2.84,36.22,12.18l10.81,10.06c5.48,5.11,12.27,8.91,19.97,9.54,10.06.83,20.16.08,29.35-2.87ZM278.81,336.87c14.69.44,29.39-1.38,43.71-6.13,27.98-9.27,44.88-31.55,53.93-58.75,4.66-14.01,8.12-28.11,9.62-43.26,6.95-43.06,1.76-97.69-42.69-119.53-8.14-4-16.39-5.66-25.17-7.56-19.62-4.26-39-3.54-58.38,1.58-13.03,3.44-25.83,4.43-39.14,3.96-28.35-1-31.14-19.32-48.79-26.9-14.93-6.42-31.89-3.53-44.89,5.84-39.41,28.41-59.41,111.93-63.48,158.06-1.97,32.11,20.15,50.84,47.01,62.21,13.85,5.86,27.67,10.13,42.52,13.37,25.91,5.66,51.34,10.17,77.65,13.91,16.2,2.31,31.69,3.51,48.1,3.2Z"/>
    <g>
      <path class="cls-7" d="M234.29,484.48c-5.73,18.54-7.65,28.79-17.77,45.73-3.94,6.6-9.17,10.79-15.26,15.12-4.91,3.49-9.19,6.51-15.4,8.01-20.88,5.06-42.51-3.99-53.67-22.47-16.79-27.8-18.5-66.21-11.96-96.92,2.18-6.89,6.7,5.9,27.76-.12,17.48-5,35.56-3.35,51.13,5.95l12.49,6.97c7.98,4.45,16.72,5.15,25.65,2.67,1.14,12.32-1.72,23.58-2.96,35.05ZM199.06,540.51c19.99-18.44,30.37-57.15,31.94-83.27-12.82,1.26-23.5-4.95-33.61-11.16-14.51-8.92-31.14-10.71-47.54-5.88-7.78,2.29-15.42,3.08-23.7.43-5.29,27.14-2.41,62.67,11.82,86.58,9.45,15.87,28.17,24.72,46.35,19.71,4.74-1.3,10.94-2.9,14.74-6.4Z"/>
      <path class="cls-4" d="M199.06,540.51c-3.79,3.5-10,5.09-14.74,6.4-18.18,5.01-36.9-3.84-46.35-19.71-14.23-23.91-17.12-59.44-11.82-86.58,8.28,2.65,15.92,1.86,23.7-.43,16.4-4.82,33.03-3.04,47.54,5.88,10.1,6.21,20.78,12.42,33.61,11.16-1.57,26.12-11.95,64.83-31.94,83.27Z"/>
    </g>
    <path class="cls-7" d="M343.38,109.2c-8.14-4-16.39-5.66-25.17-7.56-19.62-4.26-39-3.54-58.38,1.58-13.03,3.44-25.83,4.43-39.14,3.96-28.35-1-31.14-19.32-48.79-26.9-14.93-6.42-31.89-3.53-44.89,5.84-39.41,28.41-59.41,111.93-63.48,158.06-1.97,32.11,20.15,50.84,47.01,62.21,13.85,5.86,27.67,10.13,42.52,13.37,25.91,5.66,51.34,10.17,77.65,13.91,16.2,2.31,31.69,3.51,48.1,3.2,14.69.44,29.39-1.38,43.71-6.13,27.98-9.27,44.88-31.55,53.93-58.75,4.66-14.01,8.12-28.11,9.62-43.26,6.95-43.06,1.76-97.69-42.69-119.53Z"/>
    <path class="cls-8" d="M313.66,271.26c-18.52,19.01-49.91,15.78-66.28-.82-5.89-5.97-9.34-13.05-12.45-20.95-7.96-26.61-2.65-61.47,12.18-85.29,13.1-21.05,37.74-29.75,60.85-19.64,41.63,18.21,34.59,74.22,18.44,108.24-3.32,7-7.44,13.02-12.74,18.45Z"/>
    <path class="cls-8" d="M150.99,233.39c-11.29,11.88-28.37,14.58-42.1,5.94-11.95-7.51-15.05-25.86-14.58-39.17.84-23.7,8.84-56.33,27.24-72.83,11.18-10.02,27.03-13.01,40.64-6.38,10.08,4.9,13.35,22.81,13.6,33.32.63,25.78-6.16,59.51-24.8,79.12Z"/>
    <path class="cls-7" d="M129.33,225.08c-20.05-3.95-8.19-52.24,15.35-47.06,16.01,3.52,1.65,50.41-15.35,47.06Z"/>
    <path class="cls-7" d="M279.8,256c-20.43-.16-17.75-49.8,6.33-49.09,16.38.48,10.99,49.22-6.33,49.09Z"/>
    <path class="cls-8" d="M151.3,276.32c-2.09,1.89,10.64,19.09,33.32,18.92,12.82-.1,21.81-5.43,20.47-9.46-1.47-4.42-11.86,4.24-32.75-1.69-15.82-4.49-19.85-8.83-21.04-7.76Z"/>
    <path class="cls-5" d="M524.83,190.74c-7.53,20.13-19.34,41.16-39.97,55.7-10.8,7.61-35.51,21.54-99.01,12.72-.87,3.57-1.82,7.13-2.88,10.69-9.17,30.85-26.97,55.69-58.49,65.97-26.5,8.64-59.11,6.67-86.8,3.25-28.54-3.53-56.14-7.87-84.27-13.5-25.84-5.18-56.72-15.32-76.06-33.52-13.25-12.47-20.01-29.24-18.32-47.86,2.74-30.23,9.27-59.59,18.58-88.47,1.85-5.73,4.05-11.91,6.64-18.22-1.48-.6-2.94-1.17-4.38-1.7-12.35,31.96-21.8,64.51-27.37,98.43-2.08,12.66-3.5,24.58-2.56,37.35.98,13.36,7.64,26.74,17.7,35.47,3.01,2.61,7.64,3.37,11.16,5.44,38.67,22.67,82.77,34.31,127.18,40.68,56.47,8.09,122.11,11.17,178.78,4.11,30.12-3.75,58.99-11.24,86.59-23.7,19.47-8.79,51.56-27.85,55.08-50.72,4.74-30.74,3.5-61.65-1.57-92.1Z"/>
  </g>
</svg>