<?xml version="1.0" encoding="UTF-8"?>
<svg id="Layer_2" data-name="Layer 2" xmlns="http://www.w3.org/2000/svg" viewBox="0 0 227.09 62.32">
  <g id="Layer_1-2" data-name="Layer 1">
    <g opacity=".5">
      <rect x=".5" y=".5" width="226.09" height="61.32" rx="8.13" ry="8.13" fill="#1a2a3d"/>
      <path d="M218.46,62.32H8.63c-4.76,0-8.63-3.87-8.63-8.63V8.63C0,3.87,3.87,0,8.63,0h209.83c4.76,0,8.63,3.87,8.63,8.63v45.06c0,4.76-3.87,8.63-8.63,8.63ZM8.63,1C4.42,1,1,4.42,1,8.63v45.06c0,4.21,3.42,7.63,7.63,7.63h209.83c4.21,0,7.63-3.42,7.63-7.63V8.63c0-4.21-3.42-7.63-7.63-7.63H8.63Z" fill="#7dabe2"/>
    </g>
    <g>
      <path d="M70.94,32.9c-.13,1.84-.81,3.28-2.03,4.34s-2.83,1.58-4.83,1.58c-2.19,0-3.91-.74-5.16-2.21s-1.88-3.49-1.88-6.06v-1.04c0-1.64.29-3.09.87-4.34s1.4-2.21,2.48-2.88,2.32-1,3.74-1c1.97,0,3.55.53,4.76,1.58s1.9,2.54,2.09,4.44h-3.52c-.09-1.1-.39-1.9-.92-2.4s-1.33-.74-2.41-.74c-1.17,0-2.05.42-2.63,1.26s-.88,2.14-.9,3.91v1.29c0,1.84.28,3.19.84,4.04s1.44,1.28,2.64,1.28c1.09,0,1.9-.25,2.43-.74s.84-1.26.92-2.3h3.52Z" fill="#fff"/>
      <path d="M71.3,32.13c0-1.26.24-2.38.73-3.36s1.18-1.75,2.09-2.29,1.97-.81,3.17-.81c1.71,0,3.11.52,4.19,1.57s1.69,2.47,1.81,4.27l.02.87c0,1.95-.54,3.51-1.63,4.68s-2.54,1.76-4.37,1.76-3.29-.59-4.38-1.76-1.63-2.77-1.63-4.78v-.15ZM74.69,32.37c0,1.21.23,2.13.68,2.76s1.1.96,1.95.96,1.46-.32,1.92-.95.69-1.64.69-3.02c0-1.18-.23-2.1-.69-2.75s-1.11-.97-1.95-.97-1.47.32-1.92.97-.68,1.65-.68,3Z" fill="#fff"/>
      <path d="M87.32,25.91l.11,1.46c.91-1.13,2.12-1.7,3.64-1.7,1.34,0,2.34.39,3,1.18s.99,1.97,1.01,3.54v8.19h-3.39v-8.11c0-.72-.16-1.24-.47-1.56s-.83-.49-1.56-.49c-.95,0-1.67.41-2.14,1.22v8.94h-3.39v-12.68h3.19Z" fill="#fff"/>
      <path d="M95.91,32.13c0-1.99.44-3.57,1.33-4.72s2.1-1.73,3.65-1.73c1.36,0,2.44.52,3.25,1.56l.22-1.32h2.98v17.55h-3.4v-5.96c-.78.88-1.8,1.32-3.07,1.32-1.51,0-2.71-.59-3.61-1.76s-1.35-2.82-1.35-4.93ZM99.3,32.37c0,1.21.21,2.14.64,2.77s1.03.95,1.8.95c1.04,0,1.77-.42,2.2-1.24v-5.25c-.42-.8-1.15-1.2-2.18-1.2-.78,0-1.39.32-1.82.95s-.64,1.64-.64,3.02Z" fill="#fff"/>
      <path d="M116.39,37.3c-.84,1.02-1.99,1.52-3.47,1.52-1.36,0-2.4-.39-3.11-1.17s-1.08-1.93-1.1-3.43v-8.31h3.39v8.2c0,1.32.6,1.98,1.8,1.98s1.94-.4,2.37-1.2v-8.99h3.4v12.68h-3.19l-.09-1.29Z" fill="#fff"/>
      <path d="M121,22.62c0-.51.17-.93.51-1.25s.8-.49,1.39-.49,1.04.16,1.38.49.52.75.52,1.25-.17.94-.52,1.27-.81.49-1.38.49-1.03-.16-1.38-.49-.52-.75-.52-1.27ZM124.6,38.59h-3.4v-12.68h3.4v12.68Z" fill="#fff"/>
      <path d="M133.06,35.08c0-.41-.21-.74-.62-.98s-1.07-.45-1.97-.64c-3.02-.63-4.52-1.91-4.52-3.84,0-1.12.47-2.06,1.4-2.82s2.15-1.13,3.66-1.13c1.61,0,2.9.38,3.86,1.14s1.45,1.74,1.45,2.95h-3.39c0-.48-.16-.88-.47-1.2s-.8-.47-1.46-.47c-.57,0-1.01.13-1.32.39s-.47.59-.47.98c0,.38.18.68.53.91s.96.43,1.8.6,1.55.36,2.13.57c1.79.66,2.68,1.79,2.68,3.41,0,1.16-.5,2.09-1.49,2.81s-2.27,1.07-3.84,1.07c-1.06,0-2.01-.19-2.83-.57s-1.47-.9-1.94-1.56-.7-1.37-.7-2.14h3.21c.03.6.25,1.06.67,1.38s.97.48,1.66.48c.65,0,1.14-.12,1.47-.37s.5-.57.5-.97Z" fill="#fff"/>
      <path d="M141.39,22.79v3.12h2.17v2.48h-2.17v6.33c0,.47.09.8.27,1.01s.52.3,1.03.3c.38,0,.71-.03,1-.08v2.57c-.66.2-1.35.3-2.05.3-2.38,0-3.59-1.2-3.63-3.6v-6.83h-1.85v-2.48h1.85v-3.12h3.39Z" fill="#fff"/>
      <path d="M151.59,38.59c-.16-.3-.27-.68-.34-1.14-.82.91-1.89,1.37-3.2,1.37-1.24,0-2.27-.36-3.09-1.08s-1.22-1.62-1.22-2.72c0-1.34.5-2.38,1.49-3.09s2.44-1.08,4.32-1.09h1.56v-.73c0-.59-.15-1.05-.45-1.41s-.78-.53-1.42-.53c-.57,0-1.02.14-1.34.41s-.49.65-.49,1.12h-3.39c0-.73.23-1.41.68-2.04s1.09-1.12,1.92-1.47,1.76-.53,2.79-.53c1.56,0,2.8.39,3.72,1.18s1.38,1.89,1.38,3.31v5.5c0,1.2.18,2.11.5,2.73v.2h-3.42ZM148.79,36.23c.5,0,.96-.11,1.38-.33s.73-.52.94-.9v-2.18h-1.27c-1.7,0-2.6.59-2.71,1.76v.2c-.01.42.14.77.43,1.04s.7.41,1.22.41Z" fill="#fff"/>
      <path d="M162.78,35.08c0-.41-.21-.74-.62-.98s-1.07-.45-1.97-.64c-3.02-.63-4.52-1.91-4.52-3.84,0-1.12.47-2.06,1.4-2.82s2.15-1.13,3.66-1.13c1.61,0,2.9.38,3.86,1.14s1.45,1.74,1.45,2.95h-3.39c0-.48-.16-.88-.47-1.2s-.8-.47-1.46-.47c-.57,0-1.01.13-1.32.39s-.47.59-.47.98c0,.38.18.68.53.91s.96.43,1.8.6,1.55.36,2.13.57c1.79.66,2.68,1.79,2.68,3.41,0,1.16-.5,2.09-1.49,2.81s-2.27,1.07-3.84,1.07c-1.06,0-2.01-.19-2.83-.57s-1.47-.9-1.94-1.56-.7-1.37-.7-2.14h3.21c.03.6.25,1.06.67,1.38s.97.48,1.66.48c.65,0,1.14-.12,1.47-.37s.5-.57.5-.97Z" fill="#fff"/>
    </g>
  </g>
</svg>