<?xml version="1.0" encoding="UTF-8"?>
<svg id="Layer_2" data-name="Layer 2" xmlns="http://www.w3.org/2000/svg" viewBox="0 0 87.68 69.37">
  <g id="Layer_1-2" data-name="Layer 1">
    <g>
      <g>
        <ellipse cx="43.84" cy="34.68" rx="43.84" ry="34.68" fill="#2e4963"/>
        <ellipse cx="43.84" cy="34.68" rx="41.09" ry="32.51" fill="#476ea8"/>
        <ellipse cx="43.84" cy="32.48" rx="41.09" ry="27.59" fill="#699ccb"/>
        <ellipse cx="43.84" cy="27.56" rx="36.11" ry="27.56" fill="#2e4963"/>
        <ellipse cx="43.66" cy="27.16" rx="33.99" ry="26.12" fill="#a52121"/>
        <ellipse cx="43.66" cy="23.36" rx="32.68" ry="22.32" fill="#f8b5ab"/>
        <ellipse cx="43.66" cy="21.75" rx="31.66" ry="20.71" fill="#e53030"/>
        <ellipse cx="25.25" cy="11.19" rx="6.14" ry="3.53" transform="translate(-2.37 10.85) rotate(-23.2)" fill="#f8b5ab"/>
      </g>
      <g>
        <path d="M44.08,35.42c-1.84,0-4.49-.71-5.94-2.28-.53-.58-.63-1.39-.26-2.24.54-1.24,2.16-2.62,3.53-2.62.49,0,.92.17,1.24.5.38.4.68.78.94,1.12.62.79.92,1.15,1.55,1.2.33-.33.91-1.8.97-3.71.04-1.05-.06-3.62-1.73-4.95-.26-.21-.51-.3-.79-.3-.66,0-1.46.55-2.24,1.08-.37.25-.75.51-1.14.73-.25.14-.54.21-.83.21s-.56-.07-.82-.2l-.03-.02-.03-.02c-.51-.32-.81-.87-.81-1.48l-.03-9.73c0-.55.2-1.03.56-1.36.34-.36.82-.56,1.36-.56h9.28c.83,0,1.5.67,1.5,1.5v2.45c0,.6,0,1.84-.73,2.59-.35.35-.8.53-1.33.53-.6,0-1-.43-1.44-.88-.55-.58-1.24-1.29-2.41-1.4h-2.02c-.17,0-.29.12-.29.29v2.12s0,.02,0,.03c0,0,0,0,0,0,0,0,1.09,0,1.09,0,3.77,0,5.82,1.75,6.87,3.22,1.53,2.13,1.7,4.54,1.7,5.48,0,2.38-.59,4.43-1.71,5.93-1.35,1.81-3.44,2.77-6.04,2.77Z" fill="#f8f9f9"/>
        <path d="M48.87,11.61c.36,0,.68.29.68.68v2.38c0,.59.07,2.38-1.24,2.38-.68,0-1.47-2.08-3.81-2.28h-2.05c-.62,0-1.11.49-1.11,1.11v2.12c0,.49.36.85.85.85h1.07c6.22,0,7.75,5.05,7.75,7.88,0,4.01-1.82,7.88-6.94,7.88-1.69,0-4.07-.65-5.34-2.02-1.05-1.13,1.27-3.48,2.67-3.48.25,0,.48.08.65.25,1.27,1.34,1.63,2.54,3.19,2.57,1.4,0,3.13-7.36-.36-10.13-.43-.34-.87-.48-1.3-.48-1.29,0-2.56,1.23-3.78,1.91-.14.08-.28.11-.43.11-.16,0-.31-.04-.45-.11-.26-.16-.42-.46-.42-.78l-.03-9.74c0-.29.1-.59.33-.78.2-.23.49-.33.78-.33h9.28M48.87,9.97h-9.28c-.75,0-1.45.29-1.94.8-.51.49-.8,1.19-.8,1.94l.03,9.74c0,.89.45,1.7,1.19,2.17l.07.04.07.03c.37.19.78.28,1.19.28.43,0,.85-.11,1.22-.32.42-.24.82-.51,1.21-.77.61-.42,1.37-.94,1.78-.94.04,0,.12,0,.28.13.98.78,1.3,2.15,1.39,3.16.15,1.63-.18,3.07-.48,3.81-.13-.13-.3-.34-.55-.66-.27-.35-.59-.75-.99-1.17h0s0-.01,0-.01c-.47-.48-1.12-.75-1.82-.75-1.75,0-3.63,1.61-4.28,3.11-.5,1.14-.34,2.31.41,3.12,1.63,1.76,4.46,2.54,6.54,2.54,3.63,0,5.65-1.68,6.7-3.1,1.23-1.65,1.88-3.87,1.88-6.42,0-1.02-.18-3.63-1.85-5.96-.5-.7-1.21-1.46-2.17-2.09.61-.07,1.16-.32,1.59-.76.98-.98.97-2.52.97-3.17v-.07s0-2.38,0-2.38c0-1.28-1.04-2.32-2.32-2.32h0ZM42.99,16.41h1.44c.85.09,1.34.61,1.86,1.15.02.02.04.04.06.06-.89-.26-1.91-.42-3.08-.42h-.28v-.79h0Z" fill="#9b002c"/>
      </g>
    </g>
  </g>
</svg>