<?xml version="1.0" encoding="UTF-8"?>
<svg id="Layer_2" data-name="Layer 2" xmlns="http://www.w3.org/2000/svg" viewBox="0 0 173.71 137.44">
  <g id="Layer_1-2" data-name="Layer 1">
    <g>
      <ellipse cx="86.86" cy="68.72" rx="86.86" ry="68.72" fill="#2e4963"/>
      <ellipse cx="86.86" cy="68.72" rx="81.4" ry="64.4" fill="#476ea8"/>
      <ellipse cx="86.86" cy="64.34" rx="81.4" ry="54.67" fill="#699ccb"/>
      <ellipse cx="86.86" cy="54.59" rx="71.54" ry="54.59" fill="#223a2c"/>
      <ellipse cx="86.51" cy="53.81" rx="67.35" ry="51.75" fill="#4b7c73"/>
      <ellipse cx="86.51" cy="46.29" rx="64.74" ry="44.22" fill="#86bc84"/>
      <ellipse cx="86.51" cy="43.1" rx="62.72" ry="41.03" fill="#5d947d"/>
      <ellipse cx="50.03" cy="22.18" rx="12.16" ry="7" transform="translate(-4.69 21.5) rotate(-23.2)" fill="#d5f1b9"/>
      <g>
        <path d="M83.06,64.42c-2.48,0-4.21-1.58-4.21-3.85,0-1.23.79-1.91,1.26-2.31.56-.48,1.2-1.02,1.2-3.4v-22.37l-.17.24-.05.06c-.36.4-.99.88-2,.88-.53,0-1.01-.13-1.39-.24l-.08-.02c-1.53-.35-2.88-.91-4-1.42l-.06-.03-.05-.03c-.72-.39-1.21-1.11-1.33-1.95-.13-.93.18-1.88.84-2.54l.05-.05,7.42-6.28c1.15-1.26,2.7-1.96,4.38-1.96h4.93c1.99,0,3.61,1.62,3.61,3.61v32.1c0,2.39.62,2.94,1.17,3.42.46.4,1.23,1.07,1.23,2.29,0,2.27-1.73,3.85-4.21,3.85h-8.54Z" fill="#f8f9f9"/>
        <path d="M89.79,20.78c1.08,0,1.98.9,1.98,1.98v32.1c0,4.81,2.4,4.33,2.4,5.71s-1.02,2.22-2.58,2.22h-8.54c-1.56,0-2.58-.84-2.58-2.22s2.46-.9,2.46-5.71v-26.09c0-.18-.12-.3-.3-.36-.05-.02-.11-.04-.17-.04-.09,0-.18.03-.25.1l-2.34,3.25c-.22.25-.49.33-.79.33-.34,0-.72-.11-1.08-.21-1.32-.3-2.52-.78-3.73-1.32-.66-.36-.66-1.38-.12-1.92l7.45-6.31c.84-.96,1.98-1.5,3.25-1.5h4.93M89.79,17.53h-4.93c-2.11,0-4.05.85-5.51,2.41l-7.29,6.17-.1.09-.1.1c-1.02,1.02-1.5,2.48-1.3,3.92.2,1.36.98,2.51,2.16,3.15l.11.06.11.05c1.18.53,2.61,1.13,4.26,1.51h.04c.46.14,1.08.31,1.83.31.21,0,.41-.01.61-.04v19.6c0,1.63-.26,1.86-.63,2.17-.55.47-1.83,1.56-1.83,3.54,0,3.17,2.45,5.47,5.83,5.47h8.54c3.38,0,5.83-2.3,5.83-5.47,0-1.96-1.25-3.05-1.79-3.52-.35-.3-.62-.54-.62-2.19V22.76c0-2.88-2.35-5.23-5.23-5.23h0Z" fill="#223a2c"/>
      </g>
    </g>
  </g>
</svg>