<?xml version="1.0" encoding="UTF-8"?>
<svg id="Layer_2" data-name="Layer 2" xmlns="http://www.w3.org/2000/svg" viewBox="0 0 77.49 61.31">
  <g id="Layer_1-2" data-name="Layer 1">
    <g>
      <g>
        <ellipse cx="38.74" cy="30.65" rx="38.74" ry="30.65" fill="#2e4963"/>
        <ellipse cx="38.74" cy="30.65" rx="36.31" ry="28.73" fill="#476ea8"/>
        <ellipse cx="38.74" cy="28.7" rx="36.31" ry="24.39" fill="#699ccb"/>
        <ellipse cx="38.74" cy="24.35" rx="31.91" ry="24.35" fill="#2e4963"/>
        <ellipse cx="38.59" cy="24" rx="30.04" ry="23.08" fill="#a52121"/>
        <ellipse cx="38.59" cy="20.65" rx="28.88" ry="19.73" fill="#f8b5ab"/>
        <ellipse cx="38.59" cy="19.22" rx="27.98" ry="18.3" fill="#e53030"/>
        <ellipse cx="22.32" cy="9.89" rx="5.42" ry="3.12" transform="translate(-2.09 9.59) rotate(-23.2)" fill="#f8b5ab"/>
      </g>
      <g>
        <path d="M41.16,29.89c-3.05,0-6.68-1.8-6.68-10.37,0-4.8,2.38-11.75,6.68-11.75,1.58.03,3.89.58,5.25,2.04.47.51.55,1.22.23,1.96-.48,1.09-1.92,2.31-3.13,2.31-.45,0-.83-.16-1.12-.46-.63-.66-.8-1.37-.92-1.89-.04-.16-.1-.41-.15-.48-.01,0-.03,0-.07-.01-.24.23-.68,1.2-1.09,3.05.41-.15.88-.25,1.4-.25,3.86,0,6.25,2.9,6.25,7.57,0,5.02-2.61,8.26-6.65,8.26ZM39.59,20.78c.33,4.02,1.19,5.69,1.58,5.69.45,0,1.32-1.88,1.32-4.83s-.87-4.8-1.32-4.8c-.86,0-1.52,1.66-1.58,3.95Z" fill="#f8f9f9"/>
        <path d="M41.16,8.51c1.5.03,3.57.58,4.72,1.81.92.99-1.12,3.05-2.37,3.05-.23,0-.44-.07-.59-.23-1.12-1.18-.4-2.62-1.76-2.62-.86,0-1.61,2.73-2.04,5.38.43-.58,1.32-1.12,2.45-1.12,3.8,0,5.53,3.08,5.53,6.85,0,4.4-2.16,7.54-5.93,7.54s-5.96-3.08-5.96-9.64c0-4.43,2.16-11.02,5.96-11.02M41.16,27.18c1.27,0,2.04-2.79,2.04-5.55s-.78-5.53-2.04-5.53c-1.5,0-2.24,2.22-2.3,4.69.17,2.16.75,6.39,2.3,6.39M41.18,7.06h-.01c-2.29,0-4.32,1.67-5.72,4.69-1.06,2.29-1.69,5.2-1.69,7.78,0,3.5.6,6.21,1.78,8.06,1.26,1.98,3.21,3.03,5.62,3.03,2.29,0,4.2-.93,5.53-2.69,1.21-1.59,1.84-3.77,1.84-6.3,0-3.39-1.24-5.98-3.34-7.3.94-.53,1.74-1.41,2.11-2.25.44-1,.3-2.03-.36-2.74-1.51-1.63-4.05-2.24-5.75-2.28h-.01ZM41.15,13.35c.02-.06.03-.11.05-.17.03.05.06.11.09.16-.05,0-.09,0-.13,0h0ZM40.31,20.76c.05-1.76.46-2.73.72-3.07.31.55.73,1.95.73,3.94,0,1.7-.3,2.98-.58,3.66-.31-.75-.68-2.24-.86-4.54h0Z" fill="#9b002c"/>
      </g>
    </g>
  </g>
</svg>