<?xml version="1.0" encoding="UTF-8"?>
<svg id="Layer_2" data-name="Layer 2" xmlns="http://www.w3.org/2000/svg" viewBox="0 0 199.67 303.24">
  <g id="Layer_1-2" data-name="Layer 1">
    <path d="M111.24,177.86c-.01.1.02.21.04.31.05.23-.08.72.25.74.12.81.51,1.58.99,2.24.34.47.08,1.33.64,1.68.33,1.73-.48,3.66-2.19,4.2h-1.41c-1.48.03-2-1.37-2.88-2.31l.05-2.55c.11-.26.57-.68.31-1.04,1.34.4,2.51-3.64,4.2-3.26ZM110.27,180.05c-.91,1.12-2.02,2.04-2.27,3.39-.17.95.61,1.93,1.21,2.19.78.33,1.71.08,2.2-.57.98-1.32-.18-3.25-1.14-5.01Z" fill="#222b2b"/>
    <path d="M107.28,168.81c.03.18.01.37.05.55.05.23-.06.72.27.73.09.93.39,1.89.39,2.84v2.07c0,.4-.04.81-.03,1.21-1.02,1.11-2.36,1.58-3.85,1.31-.85-.67-1.91-1.37-1.99-2.54v-1.69c.8-2.02,3.06-2.71,4.23-4.52l.93.04ZM106.1,171.13c-1.14.65-1.94,1.4-2.5,2.39-.47.83-.25,1.75.36,2.33.43.41,1.38.54,2.01.25,1.63-.77.74-3.39.12-4.97Z" fill="#222b2b"/>
    <path d="M111.24,177.86c-1.69-.38-2.86,3.66-4.2,3.26-.49-.68.28-1.31-.05-2.37-.87.4-1.48.49-2.2.2-.62-.25-.76-.79-.68-1.43,1.49.26,2.83-.2,3.85-1.31.31-.22,3.32,1.26,3.27,1.65Z" fill="#efefee"/>
    <path d="M140.71,156.5c.4.24,1.12.74.8,1.53-5.22-.21-10.54.24-15.61-.32-.1-.77,4.45-.19,6.46-.5.56-.09,1.07-1.02,1.72-.84,4.3,1.17,2.4.56,6.62.13Z" fill="#efefee"/>
    <path d="M152.72,208.3c-5.99.68-12.1,0-18.31.33-.36.02-.55-.36-.71-.41-.09-.18.16-.29.41-.3h18.22c.25,0,.46.24.38.38Z" fill="#9d6d4e"/>
    <path d="M99.42,187.4l-1.86-.1c-.06-.12-.24-.19-.32-.3-.34-.44-.34-1.02-.38-1.54,0-.46.22-1.13-.23-1.41,0-1.43-.09-3.04,0-4.49,1.74.3-.07,2.19.8,3.15.92,1.03.83-2.05,2,4.69Z" fill="#efefee"/>
    <path d="M90.72,109.29c-.79-.4-2.21-.61-2.69-1.54-.39-.76-.48-1.53-1.03-2.17s.89-1.25.97-1.74c.11-.65-.56-1.64.18-2.05.35,2.65,1.46,5.03,2.57,7.5Z" fill="#efefee"/>
    <path d="M68.88,54.77c.07.27-.35.37-.69.37l-6.24.04c-.49,0-.75-.23-.99-.4-.11-.18.16-.28.39-.32,2.61.26,5.16-.37,7.53.31Z" fill="#704833"/>
    <path d="M90.04,140.67l-.05,5.21c-2.1-1.09-.78-3.19-.27-5.21h.33Z" fill="#efefee"/>
    <path d="M104.69,189.63c-1.58.3-2.96-.22-3.87-1.55.34-.38.86-.36,1.37-.29.44.06.66.65,1.13.94.53.34,1.29.25,1.37.9Z" fill="#efefee"/>
    <path d="M65.85,84.89c-.41-1.05,4.94.88,3.61-1.35.2.3,1.1.17.56,1.14-.17.3-2.75.66-4.17.21Z" fill="#704833"/>
    <path d="M106.73,182.17l-.05,2.55c-.53-.37-1.72-.02-1.28-1.47.18-.6.46-1.15,1.33-1.08Z" fill="#efefee"/>
    <path d="M90.67,91.08l-1.88,4.59c-.74-.37.16-1,.23-1.47.22-1.55.94-2.21,1.65-3.12Z" fill="#efefee"/>
    <path d="M168.07,119.09c-1.05.51-2.26.63-3.37.98-.83-.47,3.83-1.85,3.37-.98Z" fill="#704833"/>
    <path d="M88.74,96.23l-.59,3.02c-.77-.75-.5-2.71.59-3.02Z" fill="#efefee"/>
    <path d="M59.31,45.94l-.1-.84c-.06-.5-.72-.85-1.11-.51.15-.4.97-.73,1.26-.25.32.52,0,1.16-.05,1.61Z" fill="#704833"/>
    <path d="M92.01,112.9c-.27.89-.25,1.81-.6,2.67-.78.26-.31-3.11.6-2.67Z" fill="#efefee"/>
    <path d="M59.32,49.95c-.42-.69-.49-1.73,0-2.36.55.62.67,1.82,0,2.36Z" fill="#704833"/>
    <path d="M62.71,84.91c.52.84-1.76.58-2.09.53.2-.89,1.34-.67,2.09-.53Z" fill="#704833"/>
    <path d="M107.99,175v-2.07c.74-.17.7.65.69,1.2,0,.4-.07,1.06-.69.87Z" fill="#efefee"/>
    <path d="M54.22,47.03c-.09.9-1.33.8-2.06.94.19-.94,1.25-.75,2.06-.94Z" fill="#704833"/>
    <path d="M102.12,173.3v1.69c-.55,0-.66-.4-.72-.85-.07-.58.3-.77.72-.84Z" fill="#efefee"/>
    <path d="M129.19,112.62l-.06-1.61c.68-.19.75.12.76.78,0,.47-.23.77-.7.83Z" fill="#efefee"/>
    <path d="M113.16,182.82c-.56-.34-.3-1.21-.64-1.68.5-.11.66.24.83.72.1.31.14.7-.19.96Z" fill="#efefee"/>
    <path d="M155.03,123.36c-.57-.18-1.17-.17-1.75-.04.1-.42.38-.71.89-.67.48.04.88.16.87.7Z" fill="#704833"/>
    <path d="M116.15,151.13l-1.31.03c.27-.36-.11-.95.84-.74.39.09.42.32.47.71Z" fill="#efefee"/>
    <path d="M54.21,93.35c-.62-.07-1.43-.26-1.43-.99.62.05,1.5.23,1.43.99Z" fill="#704833"/>
    <path d="M110.96,187.02c-.04.42-.28.83-.86.69-.29-.07-.53-.31-.54-.68h1.41Z" fill="#efefee"/>
    <path d="M155.99,176.9c0,.47-.35.77-.87.69-.31-.05-.52-.32-.51-.69h1.38Z" fill="#efefee"/>
    <path d="M89.72,134.47c-.03.39,0,.93,0,1.35-.37.19-.72-.11-.69-.54.02-.26.07-.6.36-.81h.33Z" fill="#efefee"/>
    <path d="M72.49,103.12c-.5.02-.98-.13-1.4-.25-.02-.47.49-.4.84-.43s.75.26.55.68Z" fill="#efefee"/>
    <path d="M121.07,110.7c-.44.02-.85.36-1.39.24-.18-.43.19-.69.54-.66s.86-.02.85.42Z" fill="#efefee"/>
    <path d="M113.87,170.03c-.03.19.02.63-.18.66-.29.05-.81.09-.81-.15v-.55s.98.04.98.04Z" fill="#efefee"/>
    <path d="M59.06,95.28c-.05.21.11.61-.18.66s-.66.13-.77-.17c-.04-.12-.07-.3-.09-.47l1.04-.02Z" fill="#704833"/>
    <path d="M112.23,158.57c-.02.34.13.93-.26,1.07-.18-.19-.56-.51-.38-.84.12-.22.43-.42.65-.23Z" fill="#efefee"/>
    <path d="M44.71,40.83l-1-.05c.1-.19-.15-.64.18-.66s.7-.1.8.16c.07.17,0,.4.02.54Z" fill="#704833"/>
    <path d="M44.7,99.2c-.13.13.13.64-.17.66s-.65.1-.8-.16c-.07-.12.06-.39-.01-.5h.99Z" fill="#704833"/>
    <path d="M69.52,55.53l-.08-.75c.08-.24.35-.42.55-.29.27.19.16.57.15.81,0,.18-.49.11-.61.23Z" fill="#704833"/>
    <path d="M106.03,135.45v.33c-.23.07-.49.58-.81.33-.23-.18-.41-.45-.21-.67h1.03Z" fill="#efefee"/>
    <path d="M107.28,168.81l-.93-.04c.11-.17-.14-.66.18-.68s.7-.1.8.16c.07.18-.07.41-.05.55Z" fill="#efefee"/>
    <path d="M127.97,110.96c-.41.14-.76-.25-1.09-.25-.06-.45.47-.49.84-.38.2.06.43.41.25.64Z" fill="#efefee"/>
    <path d="M135.1,136.43c-.12.46-.55.7-1,.72.14-.13-.04-.55.2-.69s.64.09.8-.03Z" fill="#efefee"/>
    <path d="M147.52,171.31c-.11.09-.21.25-.31.31-.18.11-.33.03-.4-.11-.1-.2-.16-.34-.03-.48.23.06.72-.05.75.28Z" fill="#efefee"/>
    <path d="M123.71,165.12c-.11.09-.22.24-.32.3-.22.13-.33.02-.4-.11-.11-.2-.16-.35-.04-.48.24.04.71-.02.76.29Z" fill="#efefee"/>
    <path d="M111.53,178.91c-.33-.02-.2-.51-.25-.74.14-.12.28-.08.46.03.14.08.2.23.1.38-.07.1-.21.22-.31.33Z" fill="#efefee"/>
    <path d="M55.18,93.98c-.18-.09-.5.04-.69-.2-.09-.12-.16-.26-.05-.43.15,0,.33-.04.48.04.2.1.45.36.25.59Z" fill="#704833"/>
    <path d="M40.77,94.05c-.25.2-.47-.1-.57-.28-.09-.16-.05-.33-.08-.48.17-.17.3-.04.42.06.25.21.18.47.22.7Z" fill="#704833"/>
    <path d="M137.4,168.69c-.1.13-.21.24-.31.31-.2.13-.33.03-.4-.11-.09-.2-.13-.35-.02-.48.23.05.71-.05.73.28Z" fill="#efefee"/>
    <path d="M117.81,111.02l-.74.26c-.16-.15-.08-.3.04-.48.09-.13.21-.24.49-.17.12.03.28.19.21.39Z" fill="#efefee"/>
    <path d="M115.85,111.35c0,.33-.49.22-.71.27-.1-.14-.07-.29.02-.49.06-.15.22-.21.41-.11.1.05.18.27.29.33Z" fill="#efefee"/>
    <path d="M112.56,169.1c-.05-.08-.35,0-.48-.09-.11-.07-.18-.18-.13-.34.05-.14.34-.18.33-.29.34,0,.2.5.27.71Z" fill="#efefee"/>
    <path d="M136.09,168.36c-.09.15-.18.26-.29.33-.19.11-.35.03-.41-.11-.09-.2-.12-.35-.02-.49.23.05.71-.05.72.28Z" fill="#efefee"/>
    <path d="M133.82,167.73c-.11.09-.22.24-.32.3-.23.14-.33.02-.4-.11-.11-.19-.15-.35-.03-.48.24.05.72-.04.75.29Z" fill="#efefee"/>
    <path d="M77.34,104.11c-.23-.07-.7.04-.72-.29.11-.1.29-.41.49-.32.24.1.17.47.23.61Z" fill="#efefee"/>
    <path d="M114.55,111.67c0,.33-.49.22-.72.27-.11-.14-.06-.29.02-.49.06-.15.25-.21.41-.12.11.07.21.18.29.33Z" fill="#efefee"/>
    <path d="M131.84,139.35c-.07.22.04.72-.3.7-.06-.08-.28-.14-.35-.26-.1-.21-.03-.33.14-.39.16-.05.37-.02.5-.05Z" fill="#efefee"/>
    <path d="M132.51,167.39c-.09.15-.19.25-.3.31-.17.1-.36.03-.42-.11-.08-.2-.14-.34-.02-.48.23.05.71-.04.74.28Z" fill="#efefee"/>
    <path d="M131.2,167.06c-.09.15-.19.26-.29.32-.18.11-.36.03-.41-.11-.08-.2-.14-.35-.02-.48.23.04.71-.05.73.28Z" fill="#efefee"/>
    <path d="M148.48,126.63c.04.15.03.32-.05.44-.17.23-.45.17-.67.22-.09-.25.04-.46.23-.57.15-.08.37-.02.48-.1Z" fill="#704833"/>
    <path d="M112.23,167.48c-.14.12-.29.07-.48-.03-.13-.07-.25-.19-.11-.41.06-.1.2-.2.33-.28.33,0,.23.5.26.73Z" fill="#efefee"/>
    <path d="M127.28,166.07c-.09.14-.2.25-.31.32-.16.1-.34.03-.4-.11-.08-.2-.12-.35-.02-.49.23.05.72-.06.72.28Z" fill="#efefee"/>
    <path d="M125.97,165.74c-.08.15-.18.27-.29.33-.16.1-.35.03-.4-.12-.08-.2-.13-.34-.02-.49.23.05.71-.06.72.27Z" fill="#efefee"/>
    <path d="M137.43,256.57c-.14.13-.28.25-.43.36-.13-.14-.49-.25-.31-.54.09-.15.36-.2.48-.17.11.03.14.26.25.35Z" fill="#e2e2e2"/>
    <path d="M107.61,170.09c-.33,0-.22-.5-.27-.73.14-.11.28-.07.48.03.14.07.22.23.11.4-.06.1-.21.2-.32.3Z" fill="#efefee"/>
    <path d="M163.53,120.43c.17.18,0,.28-.08.4-.18.26-.51.15-.68.26-.14-.26.04-.5.24-.59.19-.08.38-.02.52-.06Z" fill="#704833"/>
    <path d="M175.1,143.46c-1.57-.95-2.11-2.12-3.13-3.18l-9.62-10.02c.77-2.26,2.13-4.13,4.15-5.2,3.83-2.02,9.86,2.23,10.23,8.87.18,3.15-.69,6.24-1.64,9.53Z" fill="#efefee"/>
    <circle cx="147.28" cy="256.35" r="2.03" fill="#1c1c1b"/>
    <path d="M33.29,255.33h-15.63c0-.19-.13-.39.02-.73h15.85c.25.43-.11.6-.24.73Z" fill="#e2e2e2"/>
    <path d="M33.29,257.78c2.59,1.13-5.38.83-4.3.36.97-.47,3.15-.19,4.3-.36Z" fill="#e2e2e2"/>
    <path d="M110.27,180.05c.96,1.76,2.12,3.69,1.14,5.01-.49.65-1.42.9-2.2.57-.6-.26-1.38-1.24-1.21-2.19.25-1.35,1.35-2.27,2.27-3.39Z" fill="#51a6af"/>
    <path d="M106.1,171.13c.62,1.58,1.51,4.21-.12,4.97-.64.3-1.58.17-2.01-.25-.62-.59-.83-1.51-.36-2.33.56-.99,1.37-1.74,2.5-2.39Z" fill="#51a6af"/>
    <path d="M85.2,145.83l-.34-.04c-.05-.38-.08-.76-.08-1.15,0-.14.07-.29.08-.43.49-.03.98.22.86.8-.05.26-.27.57-.51.82Z" fill="#efefee"/>
    <path d="M113.56,134.78c.12.6-.48.7-1,.87-.31.1-.72.16-.98-.21v-.33c.61.1,1.39-.14,1.98-.33Z" fill="#efefee"/>
    <path d="M110.6,135.45c.1.36-.03.72-.48.68-.17-.02-.35-.23-.5-.35v-.33h.98Z" fill="#efefee"/>
    <path d="M103.75,135.12v.33c-.1.07-.16.25-.27.29-.22.08-.35-.04-.4-.14-.07-.16-.14-.39-.02-.5l.69.02Z" fill="#efefee"/>
    <path d="M91.32,117.11c-.08.22.14.74-.23.74-.1-.09-.26-.19-.33-.29-.11-.17-.05-.32.1-.41.18-.09.32-.16.46-.04Z" fill="#efefee"/>
    <path d="M89.39,132.18v.69c-.12.12-.3.06-.48-.03-.11-.05-.21-.2-.14-.4.04-.11.23-.17.29-.27h.33Z" fill="#efefee"/>
    <path d="M68.78,221.87c-.26.53-1,.25-1.54.49l-3.13,1.39c-.76.34-1.37,1.18-2.32.63-.68-.39-1.2.36-1.72.37-3.22.03-1.83-1.32-7.19,1.88-.1.67.15,1.13.14,1.85-.74.41-1.88.54-2.74.36-2.64-.53-2.36,1.24-7.07,2.38-1.59.38-5.57,1.19-6.06,3.49l44.38-.05c-.19-.79-.69-.97-.62-1.45.12-.76,1.89-1.36,2.33-.92,1.81,1.79,2.37-2.53,6.26-.75.48.22.92-.42,1.34-.53,2.06-.52,4.25-.49,6.16-1.57,3.21-1.81,1.26-1.42,3.65-3.45.89-.76,1.56-1.75,3.12-1.43,1.98.4,3.6-.79,4.18-2.68.33-1.07,1.92-1.33,2.9-1.2,1.91.26,5.26-1.28,6.49-.86s2.37.61,3.61.95c.83.23,1.67.74,2.59.14.44,1.41-.68,2.57-1.41,3.62-1.25,1.82,1.38-.33,1.99-.27.1,0,1.39.95.96,2.3-.13.43-.86.42-1.3.14-1.05-.67-1.95-.42-3.06-.38-.57.02-1.08-.84-1.73-.42-2.54,1.64-.75,2.33-2.38,1.42-.63-.35-.86.37-.94.7-.16.63.3,1.29,1.1,1.11,1.08-.25,1.61.5,2.38.85s.93-1.35,1.4-1.63c.76-.46,1.98-.1,2.74-.86,1.43,2.19,1.42.84,1.58,2.72-.03-.38-3.18,3.63-5.54,2.3-.49-.29,0-1.19-.53-1.66-.96.62-.67,1.56-.86,2.44-.93.3-1.72-.29-2.67-.22-.22.57-.59.95-.61,1.61h63.37c.24,0,.08-.71-.08-.71l-.79-.02c-1.52-.04-2.93-.42-4.39-.8-.37-.57-.01-1.34-.46-1.75-.22-.2-.69-.17-.9-.22-.37-.08-.56-.6-.39-.93.86-1.71,3.02-.7,3.95-1.29,1.73-1.1,3.5-2.56,5.67-1.74,4.27-1.03,1.64-2.97,3.28-3.66l.11,11.1c0,.24.07.5.27.4-.03.29-.07.56-.71.56H25.17c-.51-.48-1.56-.48-2.07,0l-8.08-.05.08-25.41c1.01-.37,2.06-.3,3.3-.3l36.56-.02,7.53,7.31c1.95,1.89,4.12,3.32,6.3,4.71ZM114,225.6c-.66-.08-1.32-.16-1.67.15-.28.25-.09.85.13,1.09.17.18,2.06.96,2.37-.13.09-.33-.08-1.02-.83-1.11ZM114.27,230.4c-.03-.68-.37-.82-.75-.95-.25.53.1,1.02.75.95Z" fill="#704833"/>
    <path d="M120.02,200.02c.41.18.74.48,1.08.75.29.51.66.99,1.22,1.18.11.04.24.02.34.06-.53.56,2.38,1.25,3.79,2.03.75.42,1.37.91,2.13.91.08,0,.16,0,.24,0-.07.74.76.95,1.38.98.08,0,.16,0,.24,0-.22.24.08.46.27.58.15.09.34.02.48.09l.59.32c-.08.25.02.47.22.58.15.08.38,0,.49.08.36.24.84.51,1.22.64.15.05.34.43.71.41,6.21-.33,12.32.34,18.31-.33,1.26-.14,2.51.18,3.93.18l26.42.05c.34.04.62.16.82.3.4.29.08.78.06,1.03l-14.94.04c-1.57,0-3.17-.29-4.88-.29l-7.14-.02c-.23,0-.73-.07-.75.24l-10.76.04-12.26-.05c-2.13-1.52-5.13-4-7.26-4.47-.45-.1-.76-.66-1.27-.7-.12-.93-1.3-1.12-2.1-1.29-.32-.11-.72-.27-.89-.62-.08-.5-.55-.73-1.03-.69-.21-.07-.37-.24-.57-.33-.13-.72-1.02-1.26-.48-1.61.12-.08.25-.16.41-.08Z" fill="#1c1c1b"/>
    <path d="M99.42,187.4c.3.47.86.64,1.4.68.91,1.33,2.29,1.85,3.87,1.55,2.28.72,4.42,2.02,5.9,3.9-.02.22,0,.51.21.65.13.08.32.07.46.05-.03.41.81.65.95.95.41,1.71,2.09.52,4.1,2.48.22.22.59.29.58.62,0,.16-.08.35-.14.52-4.37-2.13-4.8-1.41-8.1-5.16-.79-.89-1.59-1.95-2.88-2.08.16-.17.07-.32-.06-.43-.23-.2-.49-.12-.72-.12-.96,0-1.92-.14-2.87-.32-.1-.03-.17-.24-.27-.3-.13-.07-.54-.19-.41.13l-2.56-1.56c-.52-.32-1.07-1.11-1.33-1.66l1.86.1Z" fill="#1c1c1b"/>
    <path d="M120.02,200.02c-.16-.08-.28,0-.41.08-.54.35.35.89.48,1.61-1.32-.66-2.32-1.88-3.34-2.93.06-.17.14-.36.14-.52,0-.32-.36-.4-.58-.62-2.01-1.96-3.69-.77-4.1-2.48,1-.07,7.96,3.88,7.81,4.85Z" fill="#372822"/>
    <path d="M128.59,204.96c-.76,0-1.38-.5-2.13-.91-1.41-.78-4.32-1.47-3.79-2.03,1.72.77,3.43,1.57,5.37,2.15.39.12.59.54.55.79Z" fill="#372822"/>
    <path d="M122.32,201.95c-.57-.19-.94-.67-1.22-1.18.45.36,1.1.56,1.22,1.18Z" fill="#372822"/>
    <path d="M130.21,205.94c-.62-.03-1.45-.24-1.38-.98.6.09,1.44.24,1.38.98Z" fill="#372822"/>
    <path d="M111.26,194.23c-.14.02-.33.04-.46-.05-.21-.14-.23-.43-.21-.65.2.26.72.11.67.7Z" fill="#372822"/>
    <path d="M131.19,206.61c-.13-.07-.33,0-.48-.09-.18-.12-.49-.33-.27-.58.23-.02.5,0,.7.23.1.11.14.28.04.44Z" fill="#372822"/>
    <path d="M132.49,207.59c-.11-.07-.34,0-.49-.08-.2-.1-.3-.33-.22-.58.19.1.47.01.66.24.09.11.17.25.05.41Z" fill="#372822"/>
    <path d="M116.75,198.78c1.03,1.05,2.02,2.27,3.34,2.93.19.1.36.26.57.33.02.23.12.47.28.59.22.16.59.02.75.1.17.35.57.51.89.62.27.81,1.25,1.22,2.1,1.29.51.04.82.6,1.27.7-.25.8-.46,2.05-1.19,2.41l-1.54.77c-.44.22-.54,1.55-.33,2.08.13.33.92.23,1.13.41.61.53.09,2.33,1.27,2.06,2.3-.54,3.46,1.22,7.37,1.43.91.05,1.85-1.38,2.93-.86,2.11,1.02,5.06.62,6.69-.8.79-.68,2.28-.4,3.11-1.25.4-.41,0-1.26.08-1.72l10.76-.04c.09.13.2.24.31.31.16.11.31.04.4-.1.11-.17.18-.3.05-.45l7.14.02c1.71,0,3.31.3,4.88.29.94,1.04,1.63,2.48,2.68,3.52,1.26,1.24,3.43,1.09,4.96,1.82,3.01,1.43,3.19-1.45,5.59-.26.61.3,1.12,1.13,1.12,2.06v5.25c0,.38.46.38.64.32,0,.32-.09.64-.08.96-1.64.69.99,2.63-3.28,3.66-2.17-.82-3.94.64-5.67,1.74-.92.59-3.09-.42-3.95,1.29-.17.33.02.85.39.93.21.05.68.02.9.22.45.41.09,1.18.46,1.75,1.46.37,2.87.76,4.39.8l.79.02c.16,0,.32.72.08.72h-63.37c.02-.66.39-1.04.61-1.61.95-.07,1.74.51,2.67.22.19-.89-.1-1.82.86-2.44.54.47.04,1.38.53,1.66,2.36,1.32,5.51-2.69,5.54-2.3-.16-1.89-.16-.53-1.58-2.72-.76.76-1.99.4-2.74.86-.47.29-.62,2-1.4,1.63s-1.3-1.1-2.38-.85c-.8.18-1.26-.47-1.1-1.11.09-.34.32-1.05.94-.7,1.64.91-.16.22,2.38-1.42.66-.42,1.16.44,1.73.42,1.11-.04,2.01-.29,3.06.38.45.29,1.17.29,1.3-.14.43-1.35-.87-2.29-.96-2.3-.61-.06-3.24,2.09-1.99.27.73-1.06,1.85-2.21,1.41-3.62-.92.6-1.76.09-2.59-.14-1.25-.35-2.38-.54-3.61-.95s-4.57,1.12-6.49.86c-.99-.13-2.57.13-2.9,1.2-.58,1.89-2.2,3.07-4.18,2.68-1.56-.31-2.22.67-3.12,1.43-2.39,2.03-.44,1.63-3.65,3.45-1.91,1.08-4.1,1.06-6.16,1.57-.42.11-.86.75-1.34.53-3.9-1.79-4.45,2.54-6.26.75-.44-.44-2.21.16-2.33.92-.08.48.43.65.62,1.45l-44.38.05c.49-2.3,4.48-3.11,6.06-3.49,4.71-1.14,4.43-2.91,7.07-2.38.86.17,2,.04,2.74-.36,0-.72-.24-1.18-.14-1.85,5.36-3.2,3.97-1.85,7.19-1.88.52,0,1.04-.76,1.72-.37.95.55,1.56-.29,2.32-.63l3.13-1.39c.53-.24,1.27.04,1.54-.49,2.5,1.59,7.79.95,10.83.61,6.23-.7,12.29-1.41,18.3-3.22,5.44-1.64,10.58-3.52,15.77-5.69,1.06-.44,2.14-1.19,2.89-1.9,1.52-1.44,1.16-3.36-.19-4.65-1.97-1.88-4.45-2.24-7.13-1.76l-16.31,2.93c-.03-2.53-.87-4.83-2.6-6.52-.37-1.52,3.55-2.39,4.01-2.03.29.23.26.88.51,1.01,1.09.56,2.14-2.27,6.59-1.57,2.92.46,5.09,2.61,5.91,2.11,1.84-1.13-5-4.57-6.35-5.02,1.67-1.86,7.76-2.51,7.65-2.14.05-.16.12-.29,0-.42,3.31,3.75,3.74,3.03,8.1,5.16ZM122.47,206.76c-1.73-2.97-4.81-3.47-7.5-3.42-.45.38-.86.74-.72,1.13.08.23.52.55.89.58,2.55.26,4.76,1.32,7.33,1.71ZM54.52,227.18c0-.2-.16-.36-.36-.36s-.36.16-.36.36.16.36.36.36.36-.16.36-.36Z" fill="#724a32"/>
    <path d="M114,225.6c.75.09.92.78.83,1.11-.31,1.09-2.2.31-2.37.13-.22-.24-.41-.84-.13-1.09.35-.31,1-.23,1.67-.15Z" fill="#724a32"/>
    <path d="M114.27,230.4c-.65.07-1-.42-.75-.95.37.13.72.27.75.95Z" fill="#724a32"/>
    <path d="M98.89,188.95l2.56,1.56c.12.08.18.38.48.43.09.01.24-.08.19-.27.95.18,1.9.32,2.87.32-.21.27.08.47.28.53.18.05.35,0,.5.02,1.29.13,2.09,1.18,2.88,2.08.12.13.05.27,0,.42.12-.37-5.97.28-7.65,2.14,1.34.45,8.19,3.89,6.35,5.02-.81.5-2.98-1.64-5.91-2.11-4.45-.71-5.49,2.13-6.59,1.57-.25-.13-.21-.78-.51-1.01-.45-.36-4.38.5-4.01,2.03-1.05-1.03-2.61-1.91-3.95-2.73l-9.2-5.64c1.04-1.26,9.53-4.63,10.27-3.65l.75.99c1.59.36,3.7-3.5,6.43-2.67-.43.49-1.48,1.62-.75,1.97,1.56.73,3.41.64,5.04,1.8.69-1.41-.48-1.99-1.5-2.79.54-.46,1,.08,1.45-.02Z" fill="#704833"/>
    <path d="M145.48,209.87c-.09.47.32,1.31-.08,1.72-.83.85-2.32.56-3.11,1.25-1.63,1.42-4.58,1.82-6.69.8-1.08-.52-2.02.91-2.93.86-3.91-.21-5.06-1.97-7.37-1.43-1.18.28-.66-1.53-1.27-2.06-.2-.18-.99-.08-1.13-.41-.21-.53-.12-1.85.33-2.08l1.54-.77c.72-.36.93-1.61,1.19-2.41,2.12.47,5.13,2.95,7.26,4.47l12.26.05Z" fill="#704833"/>
    <path d="M183.95,209.85l.06,12.75c-.18.06-.65.07-.65-.32v-5.25c0-.93-.52-1.75-1.12-2.06-2.41-1.2-2.58,1.68-5.59.26-1.53-.73-3.71-.58-4.96-1.82-1.06-1.05-1.74-2.48-2.68-3.52l14.94-.04Z" fill="#704833"/>
    <path d="M124.68,204.65c-.85-.07-1.83-.48-2.1-1.29.8.17,1.98.36,2.1,1.29Z" fill="#372822"/>
    <path d="M121.69,202.73c-.15-.09-.53.06-.75-.1-.16-.12-.26-.35-.28-.59.47-.04.95.19,1.03.69Z" fill="#372822"/>
    <path d="M156.99,209.59c.13.15.06.27-.05.45-.09.15-.24.21-.4.1-.1-.07-.22-.18-.31-.31.03-.31.52-.24.75-.24Z" fill="#704833"/>
    <path d="M102.12,190.68c.04.18-.1.28-.19.27-.3-.05-.37-.35-.48-.43-.14-.33.28-.21.41-.13.1.06.17.27.27.3Z" fill="#372822"/>
    <path d="M105.77,191.55c-.15-.01-.32.03-.5-.02-.2-.06-.49-.26-.28-.53.22,0,.49-.08.72.12.13.11.22.26.06.43Z" fill="#372822"/>
    <path d="M122.47,206.76c-2.57-.4-4.78-1.46-7.33-1.71-.37-.04-.81-.36-.89-.58-.14-.39.27-.75.72-1.13,2.69-.05,5.76.45,7.5,3.42Z" fill="#704833"/>
    <circle cx="54.16" cy="227.18" r=".36" fill="#704833"/>
    <path d="M169.61,119.08c1.05.49,2.23.75,3.37.97.66.13,1.25.37,1.85.7-.17.25.06.51.25.55l.47.1c2.03.43,3.52,2.86,4.55,4.84.09.18-.04.51.23.69.12.08.24.25.41.07.25.88,1,1.53,1.02,2.5,0,.29,0,.67.34.75v.55c.02.25-.04.76.32.77l.06,1.17c.09,1.77-.12,3.59-.04,5.38.01.29-.01.58-.02.87-.47.1-.31.73-.32,1.09v.55c-.27-.09-.32.2-.33.44,0,.1.21.19.22.29.01.17.02.38,0,.54-.43-1.01-2.16,5.5-2.17,5.69v.55c-.3.16-.49.48-.37.82.09.25.46.19.63.25.57,1.1,2.74,2.19,2.97,3.49-.04.22-.03.48.14.72.1.14.23.25.41.07v1.81c-.72-.05-.82.84-.91,1.41-1.31,1.68-3.17,2.92-4.87,4.21-.15.11-.53-.02-.66.23-.07.13-.1.28-.05.43-.47.18-.75.64-1.24,1.01l-15.48,11.89c-1.4,1.08-2.86,2.01-4.42,2.44h-1.38c-4.39-1.36-1.67-5.23-7.1-5.59-.03-.33-.51-.23-.75-.28l-9.37-2.33c-.02-.33-.5-.23-.73-.28-.19-.04-.39-.02-.58-.05-.01-.33-.49-.23-.72-.28-.51-.11-1.03-.3-1.55-.36-.04-.33-.51-.24-.75-.29-.18-.04-.38-.02-.56-.04-.02-.33-.5-.23-.74-.28-.19-.04-.38-.02-.57-.05-.02-.32-.5-.24-.73-.28-1.07-.19-2.1-.61-3.19-.71,0-.33-.49-.23-.72-.28-.19-.04-.4-.03-.59-.06,0-.33-.49-.22-.72-.27-.51-.1-1.02-.3-1.54-.36-.05-.31-.52-.25-.76-.29l-2.26-.4c-2.11,2.17-4.44,3.98-6.82,5.61l-.98-.04c0-.28-.22-.6-.32-.9-.07-.22.07-.71-.27-.71,0-.29-.03-.61-.06-.9-.03-.23.07-.73-.26-.73v-7.11c.39-.14.24-.73.26-1.07.18-2.64,1.03-5.29,2.61-7.41l1.31-.03c2.09,1.78,3.98,3.89,5.25,6.46,1.62.28,3.07-.04,4.5.12,5.07.56,10.38.11,15.61.32.32-.8-.4-1.3-.8-1.53-1.45-3.76-4.04-7.16-5.96-10.89-1.07-2.09-3.53-4.27-3.21-5.56.34.02.23-.48.3-.7l2.26-2.21c.45-.02.89-.26,1-.72l11.35-8.16c.16-.11.53.04.67-.22.07-.13.1-.29.05-.44.21-.06.38-.26.59-.32s.5,0,.67-.22c.09-.11.09-.29.05-.44,1.59-1.05,3.08-2.52,4.8-3.31.58-.14,1.18-.14,1.75.04l.31.08c.51.7,1.14,1.39,1.85,1.86.06.1.14.26.15.38.03.34.37,1.01.86.78.28-.13.43-.81.6-1.08,1.01-1.68,2.28-3.28,3.97-4.29.17-.1.49,0,.68-.26.08-.11.25-.21.08-.4l1.17-.37c1.11-.35,2.32-.47,3.37-.98.4-.06,1.13-.05,1.53,0ZM178.19,136.58c-.47,6.79-3.78,8.53.3,10.45,1.43-2.96,2.11-5.82,2.64-8.98,1.21-7.15-2.38-14.29-9.11-17.01-5.31-2.15-10.49,1.71-12.8,6.27.12.79,1.22,1.52,1.89,1.93.88-1.6,1.67-3.03,2.94-4.28,2.59-2.55,6.42-2.5,9.28-.36,3.75,2.81,5.19,7.13,4.85,11.99ZM132.6,140.19l1.78,2.37,21.76-16.36-1.78-2.37-21.76,16.36ZM175.1,143.46c.94-3.29,1.82-6.38,1.64-9.53-.38-6.64-6.41-10.89-10.23-8.87-2.02,1.07-3.37,2.94-4.15,5.2l9.62,10.02c1.02,1.06,1.56,2.22,3.13,3.18ZM150.07,168.72l.08.47c.03.2.26.5.53.28-.02.22.27.38.3.57.26,1.42,1.5,2.37,2.08,3.83.28.69.79,1.3,1.39,1.56.53.23,1.7.23,2.35-.26l8.7-6.61,15.23-11.84c.82-.64,1.32-1.59,1.35-2.4.04-1.09-.81-1.57-1.32-2.23-1.46-1.88-3.3-3.42-4.86-5.22-.18-.37-.38-.74-.72-.98-.07-.02-.19.03-.25-.01-.04-.61-.53-1.03-1.05-1.3-.07-.03-.17,0-.25-.01.06-.33-.28-.43-.41-.63-.49-.73-1.53-1.11-1.87-1.94-.27-.67-.46-.92-1.07-1.32-.43-.29-.7-1.12-1.26-1.28-.24-.07-.3-.72-.68-.68-.64-1.35-2.19-1.43-2.92-3.22-.13-.31-.35-.58-.67-.7-.07-.03-.17,0-.25-.01-.07-.15-.03-.53-.26-.72-1.72-1.38-2.83-3.29-4.69-4.2-.62-.3-2.45-2.85-3.25-2.24l-9.77,7.53c-3.73,2.88-7.27,5.66-11.29,8.47l6.02,10.43,8.81,14.69ZM115.15,153.73l-.09.55c-.69-.04-.57.91-.59,1.4v.33c-.87.53-.89,1.77-.92,2.69l-.05,1.52c-.09,2.57-.32,5.31.29,8.08,1.8-1.03,6.51-4.51,6.22-6.15l.13-1.86c.46-.65.22-1.07-.01-1.71-.37-1.03-.76-2.15-1.64-2.89-.44-1.07-1.42-2-2.38-2.92-.52-.5-.88.61-.94.97ZM121.35,159.62c-.04,1.06-.76,2.22,0,3.25,2.19,1,4.68,1.25,7.23,1.92l20.62,5.45c-.73-2.58-2.3-4.24-3.7-6.15-.94-1.29-1.12-3.35-2.68-4.5l-9.69-.07c.13-.2-.14-.23-.37-.23l-7.48-.07c-.34-.17-.92-.24-1.28-.25-.8.04-2.45-.39-2.65.65Z" fill="#222b2b"/>
    <path d="M172.98,120.06c-1.14-.23-2.32-.49-3.37-.97-.47-.89,4.28.56,3.37.97Z" fill="#704833"/>
    <path d="M158.8,125.38c-.16.27-.32.96-.6,1.08-.49.22-.84-.45-.86-.78.52.38,1.02.07,1.46-.3Z" fill="#704833"/>
    <path d="M157.19,125.3c-.72-.47-1.35-1.16-1.85-1.86.87.23,1.4,1.1,1.85,1.86Z" fill="#704833"/>
    <path d="M147.17,127.6c.05.15.02.31-.05.44-.14.25-.51.11-.67.22-.09-.25.03-.47.23-.57.16-.08.34-.05.48-.09Z" fill="#704833"/>
    <path d="M159.54,129.84l4.95,4.92c.08.02.17-.02.25.01-.06.23,0,.51.21.64.13.08.31.08.46.06.73,1.79,2.28,1.87,2.92,3.22.09.18-.02.51.22.62.16.07.32.08.46.07.56.16.83,1,1.26,1.28.08.61.58.99,1.07,1.32.34.83,1.38,1.22,1.87,1.94-.06.3.09.6.41.63.08,0,.18-.02.25.01.02.62.56.99,1.05,1.3.06.04.17,0,.25.01-.23.62.46.69.72.98,1.56,1.8,3.41,3.34,4.86,5.22-.03.58-.57,1.11-1.14,1.51l-8.91,6.2-14.16,9.92c-2.43,1.7-3.22.04-5.58.33-.03-.18-.32-.34-.3-.57.02-.23.05-.51-.16-.71-.11-.1-.29-.13-.45-.04l-8.81-14.69-6.02-10.43c4.01-2.8,7.55-5.59,11.29-8.47l9.77-7.53c.79-.61,2.63,1.93,3.25,2.24Z" fill="#51a6af"/>
    <path d="M150.99,170.03c2.36-.29,3.15,1.37,5.58-.33l14.16-9.92,8.91-6.2c.57-.39,1.11-.93,1.14-1.51.51.66,1.36,1.14,1.32,2.23-.03.81-.53,1.76-1.35,2.4l-15.23,11.84-8.7,6.61c-.65.5-1.82.49-2.35.26-.6-.26-1.11-.86-1.39-1.56-.58-1.46-1.82-2.41-2.08-3.83Z" fill="#42878d"/>
    <path d="M145.51,164.1c1.4,1.92,2.97,3.57,3.7,6.15l-20.62-5.45c-2.55-.67-5.04-.92-7.23-1.92.65.18.6-.65.77-1.14.26-.74,1.34-.28,1.78-.53,2.23-1.25,4.36-1.08,6.71-.55l5.17,1.18c3.33.76,6.47,1.81,9.73,2.26Z" fill="#42878d"/>
    <path d="M178.19,136.58c.34-4.86-1.1-9.18-4.85-11.99-2.86-2.15-6.69-2.19-9.28.36-1.27,1.25-2.06,2.68-2.94,4.28-.67-.42-1.77-1.14-1.89-1.93,2.31-4.56,7.49-8.41,12.8-6.27,6.73,2.72,10.31,9.86,9.11,17.01-.53,3.16-1.21,6.02-2.64,8.98-4.09-1.92-.78-3.65-.3-10.45Z" fill="#51a6af"/>
    <path d="M125.29,159.23c.27.14.33.38.63.37l7.22-.07,9.69.07c1.56,1.15,1.74,3.21,2.68,4.5-3.25-.45-6.4-1.51-9.73-2.26l-5.17-1.18c-2.34-.53-4.48-.71-6.71.55-.44.25-1.52-.22-1.78.53-.17.49-.12,1.32-.77,1.14-.77-1.04-.04-2.19,0-3.25.91-.53,1.96-.13,2.65-.65.36,0,.95.08,1.28.25Z" fill="#51a6af"/>
    <path d="M118.47,155.68c.87.75,1.26,1.86,1.64,2.89-.39.04-.4.56-.41.87s.02.82.42.85l-.13,1.86c-1.35.31-.48-1.21-1.4-1.22-1.12-.02.55,2.9-2.52,3.5l-2.19.43-.03-3.96c0-.34-.09-.75-.37-.68l.05-1.52c.72.66.9-2.4.91-2.69v-.33c.57-.23.51-.88.6-1.4l.09-.55c.97-.14,2.02.16,2.4,1.26.19.56.68.48.92.69Z" fill="#51a6af"/>
    <path d="M141.76,137.01c-.11-1.22.08-2.4-1.25-2.77l13.85-10.41,1.78,2.37-14.38,10.81Z" fill="#51a6af"/>
    <path d="M140.51,134.24c1.33.37,1.15,1.55,1.25,2.77l-7.38,5.55-1.78-2.37,7.91-5.95Z" fill="#42878d"/>
    <path d="M119.99,162.15c.29,1.64-4.42,5.12-6.22,6.15-.61-2.78-.38-5.52-.29-8.08.28-.07.37.34.37.68l.03,3.96,2.19-.43c3.07-.6,1.4-3.52,2.52-3.5.92.01.05,1.54,1.4,1.22Z" fill="#42878d"/>
    <path d="M133.14,159.53l-7.22.07c-.3,0-.36-.23-.63-.37l7.48.07c.23,0,.5.03.37.23Z" fill="#42878d"/>
    <path d="M113.54,158.7c.03-.92.05-2.16.91-2.69-.01.3-.19,3.36-.91,2.69Z" fill="#42878d"/>
    <path d="M118.47,155.68c-.25-.21-.73-.13-.92-.69-.38-1.1-1.43-1.41-2.4-1.26.06-.35.42-1.46.94-.97.96.91,1.94,1.84,2.38,2.92Z" fill="#42878d"/>
    <path d="M120.12,160.29c-.4-.03-.42-.55-.42-.85s.01-.83.41-.87c.23.64.47,1.06.01,1.71Z" fill="#42878d"/>
    <path d="M124,158.98c-.69.52-1.75.12-2.65.65.21-1.04,1.86-.61,2.65-.65Z" fill="#42878d"/>
    <path d="M115.05,154.28c-.09.52-.04,1.17-.59,1.4.02-.49-.1-1.44.59-1.4Z" fill="#42878d"/>
    <path d="M150.68,169.46c-.26.22-.49-.08-.53-.28l-.08-.47c.16-.09.33-.06.45.04.22.19.18.47.16.71Z" fill="#42878d"/>
    <path d="M169.02,139.37c-.14.02-.31,0-.46-.07-.24-.1-.13-.43-.22-.62.38-.04.45.61.68.68Z" fill="#42878d"/>
    <path d="M164.5,134.76l-4.95-4.92c1.86.91,2.97,2.82,4.69,4.2.24.19.2.57.26.72Z" fill="#42878d"/>
    <path d="M171.35,141.98c-.49-.33-.99-.71-1.07-1.32.6.4.8.65,1.07,1.32Z" fill="#42878d"/>
    <path d="M174.94,145.86c-.49-.31-1.03-.68-1.05-1.3.52.27,1.01.69,1.05,1.3Z" fill="#42878d"/>
    <path d="M165.42,135.47c-.15.03-.33.02-.46-.06-.22-.13-.27-.41-.21-.64.33.12.55.38.67.7Z" fill="#42878d"/>
    <path d="M173.64,144.55c-.32-.03-.47-.33-.41-.63.14.2.48.29.41.63Z" fill="#42878d"/>
    <path d="M90.74,209.22c-1.79-.09-3.63-.81-5.45-1.51l-5.41-2.08c-.92-.35-13.94-7.85-14.99-6.17-.07.11-.23.17-.3.27-.25,0-.55-.03-.66.19-.09.18,0,.39.17.47.11.05.27.05.45.08.02.11,0,.22.03.33.49,1.69,7.39,5.78,9.31,6.95,4.43,2.7,9.02,4.87,14.21,5.67,1.25.19,3.1.11,3.74-.97.43-.72-.07-1.77.5-2.3.18-.04.4-.18.58-.25.79.35,2.23.15,2.7-.64l13.99-2.41c2.23-.38,4.44-.23,5.86,1.79.23.33.08.91.1,1.21-.57-.61-1.11-.02-1.73.27-3.25,1.52-6.6,2.01-10.11,3.09-8.99,2.76-18.2,4.71-27.71,4.27-6.7-.31-12.99-6.8-17.45-11.37-8.25-8.46-11.41-11.09-23.05-14.89l-7.86-2.56-12.28-4.05c-.42,1.91.45,5.71-.39,6.41-.73-.37-.04-6.44-.04-7.89l.09-17.96,15.19,7.22,14.54,7c7.35,3.54,8.42,1.84,14.99,3.29,5.7,1.26,10.92,6.71,14.95,10.57,2.67,2.55,10.95,6.51,14.96,10.14,1.75,1.58,2.47,3.99,1.07,5.84Z" fill="#f0ad8a"/>
    <path d="M83.76,148.57c.02.6-.53,1.5.47,1.78.36.1.86.09,1.1.37.12.14.07.45.1.67-.53-.17-1.27-.74-1.88.18,4.13,4.67,7.37,9.69,7.62,16.07l.47,11.6c.03.64-.52,1.18-.56,1.91-.11,1.68-.09,3.23-.44,4.9-.47,2.23,3.45.05,4.57.36-.07.5-.52.47-1,.83,1.34.36,2.85.86,3.04-.26.08.11.26.18.32.3.26.55.82,1.34,1.33,1.66-.45.09-.91-.44-1.45.02,1.01.8,2.18,1.38,1.5,2.79-1.63-1.15-3.48-1.07-5.04-1.8-.74-.34.32-1.47.75-1.97-2.73-.83-4.84,3.02-6.43,2.67l-.75-.99c-.73-.98-9.22,2.39-10.27,3.65l9.2,5.64c1.34.82,2.9,1.7,3.95,2.73,1.73,1.69,2.56,3.99,2.6,6.52l16.31-2.93c2.69-.48,5.16-.12,7.13,1.76,1.35,1.29,1.7,3.2.19,4.65-.74.71-1.83,1.46-2.89,1.9-5.19,2.16-10.33,4.05-15.77,5.69-6.01,1.81-12.07,2.52-18.3,3.22-3.04.34-8.33.98-10.83-.61-2.18-1.39-4.35-2.81-6.3-4.71l-7.53-7.31-36.56.02c-1.24,0-2.29-.07-3.3.3,0-.45-.43-1.37,0-1.84l35.4-.07c.72,0,1.32-.07,1.73-.58-2.98-2.27-7.36-6.01-10.72-7.14-8.62-2.89-17.25-5.2-26.01-7.6-.41-.11-.63-.33-.7-.62-.07-.27.04-.55.22-.76,9.44,1.95,18.73,4.83,28.05,7.8,1.84.59,3.13,1.88,4.62,2.95,5.57,4.01,10.68,8.28,15.46,13.21,2.06,2.13,4.38,3.84,6.96,5.14,1.96.98,3.8.95,5.91.72,15.49-1.72,23.7-3.31,38.03-9.65.86-.38,1.58-1.14,1.51-1.91-.03-.3.13-.88-.1-1.21-1.42-2.02-3.63-2.17-5.86-1.79l-13.99,2.41c-.88.15-1.89.28-2.7.64-.18.08-.4.21-.58.25-1.38.31-1.48,2.52-6.58.73s-9.89-4.2-14.73-6.72l-6.44-3.36c-.03-.1,0-.22-.03-.33l.05-.74c.08-.11.24-.16.3-.27l14.74,6.87c.17.08.44.2.58.32.21.16.48.21.68.34,2.42,1.58,5.24,2.55,8.23,3.13.66.13,1.31-.5,1.6-.89,1.4-1.85.68-4.26-1.07-5.84-4.01-3.63-12.29-7.59-14.96-10.14-4.03-3.86-9.25-9.31-14.95-10.57-6.57-1.45-7.65.25-14.99-3.29l-14.54-7-15.19-7.22c0-.58-.74-1.3-.05-1.99l9.91,4.89,10.9,5.09,9.86,4.84c9,4.42,12.74.16,21.59,6.41,2.98,2.1,5.58,4.27,7.85,7.38l9.49-3.59,4.11-.58c.88-3.9.89-7.72.97-11.69.21-10.66.24-14.25-6.96-22.96-5.88,2.54-12.45,1.81-17.08-2.06,5.6,3.04,11.5,4.07,17.56,1.3.2-.09-.29-1.03-.5-.88-.18.12-.53,0-.77.13-1.24-1.23-2.41-2.54-3.54-3.87-.1-1.15,3.56,2.76,4.32,3.39.22.19.79-.82.46-1.1-2.06-1.74-4.01-3.58-6.33-4.76.19.75,1.13,1.2.84,1.81-1.58-1.58-3.35-2.99-5.27-4.32-1.67-1.16-3.56-1.97-4.94-3.81,5.33,1.75,9.63,5.22,14.1,8.44.78.56,1.33,1.34,2.2,1.36Z" fill="#372822"/>
    <path d="M115.57,209.84c.07.77-.65,1.53-1.51,1.91-14.33,6.34-22.54,7.93-38.03,9.65-2.11.23-3.95.27-5.91-.72-2.58-1.3-4.9-3.01-6.96-5.14-4.78-4.92-9.89-9.2-15.46-13.21-1.48-1.07-2.78-2.36-4.62-2.95-9.31-2.98-18.6-5.85-28.05-7.8l-.05-.58c.85-.7-.03-4.5.39-6.41l12.28,4.05,7.86,2.56c11.64,3.8,14.8,6.43,23.05,14.89,4.46,4.57,10.75,11.06,17.45,11.37,9.51.44,18.72-1.51,27.71-4.27,3.51-1.08,6.86-1.56,10.11-3.09.62-.29,1.16-.88,1.73-.27Z" fill="#cc8e75"/>
    <path d="M92.34,210.14c-.57.53-.07,1.58-.5,2.3-.63,1.08-2.49,1.16-3.74.97-5.19-.8-9.78-2.97-14.21-5.67-1.92-1.17-8.82-5.25-9.31-6.95l6.44,3.36c4.84,2.52,9.57,4.92,14.73,6.72s5.2-.42,6.58-.73Z" fill="#cc8e75"/>
    <path d="M79.89,205.63c-.07.23-.15.47-.24.69l-14.74-6.87c1.05-1.68,14.07,5.82,14.99,6.17Z" fill="#9d6d4e"/>
    <path d="M90.74,209.22c-.3.39-.95,1.02-1.6.89-2.98-.59-5.8-1.55-8.23-3.13-.06-.32-.4-.38-.68-.34-.14-.11-.41-.24-.58-.32.09-.23.17-.46.24-.69l5.41,2.08c1.82.7,3.65,1.41,5.45,1.51Z" fill="#cc8e75"/>
    <path d="M92.92,209.89c.81-.35,1.83-.49,2.7-.64-.47.79-1.91.98-2.7.64Z" fill="#cc8e75"/>
    <path d="M64.6,199.73l-.05.74c-.18-.02-.34-.03-.45-.08-.16-.07-.26-.28-.17-.47.11-.23.41-.2.66-.19Z" fill="#cc8e75"/>
    <path d="M80.91,206.98c-.21-.13-.47-.18-.68-.34.28-.04.62.02.68.34Z" fill="#9d6d4e"/>
    <path d="M126.88,110.7c.32,0,.68.4,1.09.25.35-.12.81.15,1.17.05l.06,1.61-1.02,4.17c-.33.02-.21.5-.29.72-1.18,4.29-3.49,8.04-5.9,11.75-1.27.9-2.37,2.09-3.48,3.18-.85.19-1.66.88-2.35,1.35-.28,0-.57.08-.73.32-.63.09-1.26.48-1.86.67s-1.37.44-1.98.33c-.2-.13-.48-.52-.81-.33-.21.12-.22.45-.16.65h-.98c-1.04-.56-2.55-.56-3.59,0h-1.03c-.08-.02-.16-.02-.24-.02.26-.32-.16-.7-.49-.65-.18.03-.38.11-.53.34l-.69-.02c-.09,0-.19,0-.28,0-.24-.56.31-.94.63-1.24l.67.02c0,.2.19.24.35.25,2.09.05,4.2.36,6.46-.05,10.15-1.8,14.98-12.47,16.77-21.64-6.71-.8-14.88.19-20.06,3.97-4.35,3.18-6.82,7.93-6.61,13.33.02.5.25.85.47,1.13l-.02,1.33-4.86,5.94c-.84,0-.12-1.49-.03-1.71.03-.07,0-.19,0-.27.26.14.48-.05.58-.26.08-.16.02-.36.09-.49l.32-.59c.24.07.49,0,.58-.22.07-.16,0-.37.08-.49l.39-.65c1.15-.34,1.61-1.62,1.52-2.91-.27-3.73.66-6.98,2-10.21.11-.44.38-.82.65-1.18.24.06.51,0,.6-.22.07-.17.07-.34.06-.49.56-.77,1.23-1.47,2.02-2.01.34-.23.64-.5.85-.86,2.29-1.65,4.77-2.99,7.53-3.63.23-.05.71.06.72-.27.19-.03.4-.01.59-.05.22-.05.72.07.71-.27l1.22-.07.74-.26c.6.08,1.28-.23,1.87-.09.54.13.95-.22,1.39-.24h5.81Z" fill="#1c1c1b"/>
    <path d="M108.92,87.85c0,.27-.04.6.02.87-.19-.1-.27.15-.27.39v6.5c0,.24.07.5.26.38-.06.13-.03.4,0,.55-.31-.21-.49.12-.55.3-.07.2-.02.47-.05.73-.24,2.21-1.39,3.98-1.94,5.93-.02.07,0,.16,0,.24-.24-.21-.5.06-.6.26-.08.16-.04.34-.05.5,0,.1-.06.22-.08.32-.44.12-.61.53-.83.88-.54.83-1.28,1.54-2.1,2.09-.36.19-.66.49-.87.83-.1.03-.22.09-.32.08-.24-.02-.5-.02-.7.2-.11.13-.21.28-.05.45-.08,0-.16,0-.24,0-.63.03-1.25.37-1.88.73-1.1.61-2.18.73-3.31.99-.36.08-.5,1.11-1.03.88.15-.49.14-1.06.08-1.56.18.17.3,0,.39-.08.23-.24-.03-.6.06-.74.34-.56.17-1.86.17-2.48.36-1.16.72-2.79,1.25-3.96.08-.18-.02-.46.02-.65.03-.12-.04-.25-.03-.37.89-.72.47-1.83.33-2.85-.02-.11,0-.25,0-.36.13-.07.28-.17.29-.31l.02-.33c.11-.09.29-.21.32-.37.19-1.07.56-2.2,1.72-2.96.52.9.03,1.73-.21,2.62-1.07,3.99-2.39,7.78-2.84,11.74-.19.03-.33.04-.45.1-.17.08-.23.34-.15.46.2.3.49.15.71.1l1.22-.27c.28-.06.46-.25.71-.34,4.58-1.63,7.9-5.89,9.16-10.74,1.48-5.7.44-11.99-1.3-17.88-3.61,1.27-6.44,3.35-9.22,5.73-6.49,5.54-9.5,14.35-4.56,21.92.21.32.17.77.57.89.22.07.53-.06.77-.2.14.05.26.14.36.26-.25.61-.17,1.28-.34,1.95-.26-.29-.66-.38-.97-.59-.59-.41-1.01-1.04-1.66-1.37-1.11-2.46-2.21-4.85-2.57-7.5.17-.79-.15-1.76,0-2.55l.59-3.02c.03-.18,0-.38.04-.56l1.88-4.59c1.97-2.51,3.77-5.2,6.52-6.89.17-.1.53.04.66-.21.07-.13.09-.3.05-.45.21-.06.39-.28.6-.32s.48,0,.67-.24c.1-.13.23-.26.06-.42.08,0,.16-.02.24,0,.24.05.51.03.69-.19.12-.14.23-.29.05-.45.08,0,.16,0,.24,0,.62-.03,1.43-.23,1.38-.96.29-.06.56-.3.87-.33,1.49-.12,3.06-1.85,3.51-1.58.97.56,2.19,8.67,2.28,8.77.08.1.23.24.42.06Z" fill="#1c1c1b"/>
    <path d="M92.03,119.48l-.05,3.17c-.36.07-.16.55-.2.8-.12.68.11,1.49-.05,2.16-1.06.83.48,3.06-.54,4.19-.49-.63-.55-1.31-1.13-1.49.03-.22,0-.49-.01-.72-.02-.43-.62-1.39-.17-1.66.63-.37,1.16-.32,1.15-1.1,0-.42,0-.8-.32-1.14-.1-.39-.03-.94,0-1.35l.04-.55c.57.2.7-.47.63-.87-.05-.31.04-.86-.36-.89,0-.17.08-.35.08-.52l.95-.03Z" fill="#1c1c1b"/>
    <path d="M89.64,127.96c.16.07.25.29.42.35-.15,1.1.02,2.41.86,3.17-.11,1.07.34,2.13.34,3.35l.09,22.75-.98.02c-1.11-2.46-3.2-4.2-4.94-6.22-.03-.21.02-.52-.1-.67-.24-.28-.74-.28-1.1-.37-1-.28-.46-1.18-.47-1.78-.13-5.29-2.44-10.68-6.75-14.05-5.97-4.67-15.48-5-22.79-3.81,3.17,11.82,10.64,23.07,23.72,22.05.56-.04.87-.09,1.36-.31.84-.37,2.22,0,2.59-1.02.24-.14.6-.01.77-.13.21-.14.7.79.5.88-6.06,2.77-11.96,1.74-17.56-1.3-.11-.06-.27-.13-.39-.15-.19-.4-.52-.69-.93-.83l-.38-.13c-.18-.38-.49-.67-.86-.85-.7-.46-1.34-1.04-1.78-1.76-.3-.68-.87-1.17-1.51-1.54-.15-.25-.29-.52-.45-.75-.46-.64-.73-1.53-1.48-1.85-.19-.31-.28-.63-.41-.96-1.33-3.35-3.06-6.72-4.13-10.29-.15-.5-.97-1.68-.23-1.98.51-.58,7.4-.34,6.69-.92.85.13,2.34.13,3.19,0-.09.1.16.42.37.4,4.51-.29,8.48,1.24,12.44,2.9.06.03.17,0,.24,0-.21.26.07.49.26.6.17.09.39,0,.52.07,1.79.84,3.03,2.59,4.45,3.93-.04.23.02.48.21.64.12.1.28.13.44.08v.25c.03.22.07.45.23.66.11.15.22.25.41.08,0,.1.02.24.05.33.6,1.39,1.15,2.83,1.91,4.14l.04.95c-.1.15-.38.34-.29.51.13.26.38.45.58.26,0,.38.04.77.08,1.15-.24.21-.46.56-.35.88.07.22.38.44.61.25,0,.1.02.21.03.3l.06,1.22c0,.16-.42.28-.27.5.1.15.27.26.3.36-.02.44.17.9.57,1.12.14.08.22.3.38.35.29.09.59.15.86.3.03.6.89.68,1.11,1.05.36.6.67,1.2,1.26,1.64.2.15.07.6.28.66.35.09.78.16.58-.21l-.27-.48c.11-.55-.11-1.38-.04-1.95.25-1.97,0-3.95.02-5.92l.05-5.21c-.01,1.44,1.01-3.67-.27-3,.05-.61-.06-1.24-.06-1.85,0-.42-.03-.96,0-1.35.01-.16.47-.27.32-.47-.17-.24-.39-.45-.59-.24.02-.29-.05-.58-.05-.88v-.69c.25-.16.43-.52.32-.79-.1-.24-.39-.41-.61-.24.01-.28-.06-.57-.06-.86.16-.13.42-.39.34-.54-.12-.23-.45-.45-.64-.25-.42-3.3-1.27-1.94-1-4.18.8-.7.69,2.09,1.9,2.65Z" fill="#1c1c1b"/>
    <path d="M71.09,102.87c.42.12.9.28,1.4.25,1.38-.06,2.79.45,4.13.7.03.33.49.22.72.29l2.62,1c2.9,1.1,6.35,5.9,7.45,9.12-.01.31.03.62.03.93v.69c-.17.1-.4.34-.32.48.13.22.42.41.6.23.07,1.52.03,3.03.02,4.55-1,.21-2.19-.97-2.26-1.99l.97-.17c.4-6.57-3.87-12.18-10.34-13.74-2.99-.72-5.93-1.14-9.26-1.04,1.21,6.26,4.04,13.2,9.8,15.95-.08.06-.22.19-.16.24.11.09.41.06.52.04.43-.07,1.17.17,1.6.31-.23.1-.61-.17-.69.33,1.03.1,1.85.04,2.67.02,1.19-.03,2.42.2,3.71-.21-.45-1.18-1.26-1.77-1.52-2.71-.03-.12-.18-.23-.26-.33-.09-.1-.16-.3-.27-.37.49-.25,1.05-.29,1.6-.28.6.69,1.54.97,1.61,1.96-.19.03-.76-.06-.87.18-.28.62,2.1,1.72,1.54,3.41-.17-.17-.56-.14-.7-.32-.36-.48-1.05-.28-1.54-.3-.24-.01-.48-.61-.85-.35-.19.14-.46.34-.26.6h-2.48c.2-.39-.2-.66-.55-.62-.25.03-.63,0-.56.37-8.4-.75-13.15-11.68-13.9-19.18l5.78-.04Z" fill="#222b2b"/>
    <path d="M100.53,109.35c-.95,2.33-5.41.94-5.27,3.35.06.97-.3,1.9-.34,2.9-.32,7.37-.3,14.61.03,21.96,1.16-.17.84-1.23,1.59-1.14-.08.22-.81,1.71.03,1.71-.04.36-.12.85-.6.92-.37-.05-1.01-.14-1.4,0-.34.12-.45.61-.64.98-.44-2.53-.43-5.18-.42-7.75,0-.14.13-.32.1-.57s-.39-.22-.63-.19c.82-2.08-.01-4.49.12-6.85l.5-9.19c.06-1.19.36-2.41.71-3.53.54.23.67-.79,1.03-.88,1.13-.27,2.21-.38,3.31-.99.63-.36,1.25-.7,1.88-.73Z" fill="#372822"/>
    <path d="M103.41,133.85c-.32.31-.86.68-.63,1.24l-.66.03c.16-.25-.13-.69-.4-.7-.02-.55.25-1.1.69-1.58,1.33-1.44,2.45-2.91,3.58-4.33.84-1.06,2.63-1.59,3-3.24-1.59.55-2.24,2.09-3.24,2.97-1.12.98-2.53,1.68-3.41,3.2-.19.33-.72.49-.91.73l.02-1.33c3.53-3.77,9.85-9.62,15.15-10.69l-5.52,4.63c-1.44,1.21-2.68,2.53-3.96,3.96l-3.23,3.61c-.42.47-.52.96-.5,1.48ZM109.32,125.18c.59-.11.82-.41.93-.84-.49.2-.66.54-.93.84Z" fill="#372822"/>
    <path d="M102.13,135.12c-1.66,2.54-3.8,4.82-4.61,7.77-.12.43-.55.84-.35,1.37-.23.12-.2.4-.3.59-.13.24-.3.46-.3.76v.24c-.15-.12-.3-.07-.47.03s-.18.27-.1.42c.06.11.26.27.32.39-.05.36-.08.74-.11,1.11-.15-.13-.27-.07-.44.05-.14.1-.21.23-.1.4.06.1.21.21.3.31-.02.92.05,1.94-.03,2.85l-.06.63c-.4-.21-.62.18-.64.56-.02.28.17.59.37.81v5.88l-1.21-.03c.04-2.9-.07-5.81-.04-8.72.44.22.59-.24.64-.57.06-.37-.37-.59-.36-.87l.04-1.17c.21.19.5-.04.59-.24.11-.24-.05-.64-.34-.55.04-.63.22-1.22.35-1.84.21.18.5.02.65-.22.11-.19-.02-.6-.31-.55.81-2.95,2.19-5.7,4.12-8.23.61-.8,1.09-1.67,2.01-1.86.26,0,.56.45.4.7Z" fill="#1c1c1b"/>
    <path d="M95.59,159.93v.98c-.38.36-.37.9-.36,1.46,0,.35.02,1.07.65.89-.15.69.08,1.47.07,2.18l-.03,2.34c-.07.23-.43.48-.38.81.06.36.24.77.65.56l.05,2.49v3c-.49.07-.61,3.71.28,2.99,0,.63.13,1.31.09,1.94-.09,1.45,0,3.06,0,4.49-.18.22-.44.48-.42.85s.41.45.66.56c.04.53.05,1.1.38,1.54-.19,1.12-1.7.61-3.04.26.48-.36.94-.33,1-.83.21-1.54.07-3.11.03-4.66.09-.17.44-3.64-.21-3.17l-.17-7.28c0-.2.27-.43.22-.71-.04-.22-.01-.54-.38-.51l-.13-6.52c1.05-.75-.42-4.1,1.03-3.63Z" fill="#1c1c1b"/>
    <path d="M85.48,119.12c.07,1.03,1.25,2.2,2.26,1.99.91.77,1.21,1.98,1.92,2.9.22.29.04.88.7.99.04-.59-.05-1.07.35-1.31.32.34.32.72.32,1.14.02.78-.52.73-1.15,1.1-.45.27.15,1.23.17,1.66-.15.1-.29.23-.4.37-1.21-.56-1.1-3.35-1.9-2.65-.6.52-1.22-1.59-1.61-1.94.05-.21-.05-.46.02-.66.55-1.69-1.82-2.79-1.54-3.41.11-.24.67-.15.87-.18Z" fill="#372822"/>
    <path d="M87.4,114.23c-1.1-3.23-4.55-8.02-7.45-9.12.32-.4.84-.37,1.35-.28.33.06.43.82.77.95,1.06.39,1.78.65,2.48,1.55.96,1.22,2.44,2.2,2.68,3.81.04.25-.85.78-.29,1.03.53.24,1.04.38,1.05.94.01.46-.15.92-.61,1.12Z" fill="#efefee"/>
    <path d="M59.74,128.86c.7.59-6.18.34-6.69.92-.74.3.08,1.48.23,1.98,1.07,3.57,2.81,6.94,4.13,10.29-.06-.02-.4.03-.51-.18-2.12-3.87-3.65-7.91-4.7-12.37,2.19-.38,5.85-1.55,7.54-.65Z" fill="#372822"/>
    <path d="M93.35,111.25c-.34,1.35-.18,2.85-.38,4.2s-.92,2.71-.94,4.03l-.95.03v-1.66c.37,0,.16-.51.24-.74.16-.47-.09-1.1.09-1.55.35-.86.32-1.78.6-2.67.22-.72.32-1.5.37-2.24.31.21.71.3.97.59Z" fill="#372822"/>
    <path d="M102.11,120.33c-1.34,3.24-2.27,6.49-2,10.21.09,1.29-.37,2.57-1.52,2.91l1.13-1.89c-.71-2.57.22-10.16,2.39-11.23Z" fill="#372822"/>
    <path d="M75.73,132.16c-3.95-1.66-7.92-3.19-12.44-2.9-.21.01-.45-.3-.37-.4,1.18-1.29,12.71,1.6,12.8,3.3Z" fill="#372822"/>
    <path d="M108.92,87.85c-.19.18-.34.03-.42-.06-.09-.1-1.31-8.21-2.28-8.77-.45-.26-2.02,1.47-3.51,1.58-.21-.92,2.42-1.26,3.86-2.3,1.1,3.15,2.31,6.29,2.36,9.55Z" fill="#372822"/>
    <path d="M84.44,142.93c-.76-1.31-1.31-2.75-1.91-4.14.97.24,1.8.59,2.22,1.44.48.98.23,1.83-.31,2.7Z" fill="#efefee"/>
    <path d="M95.92,160.91h-.33v-7.51h.33c.6.69.43,6.29,0,7.51Z" fill="#efefee"/>
    <path d="M108.92,95.99c-.19.11-.27-.14-.27-.38v-6.5c0-.24.08-.49.27-.39.61.52.53,6.15,0,7.27Z" fill="#372822"/>
    <path d="M108.92,96.54c.18,1.61-1.47,7.04-2.54,6.96.55-1.95,1.7-3.72,1.94-5.93.03-.26-.02-.53.05-.73.06-.18.24-.51.55-.3Z" fill="#372822"/>
    <path d="M95.93,151.4c.09-.91.01-1.94.03-2.85.33-.03.22-.52.24-.76.03-.37.06-.74.11-1.11l.25.03c.85,1.08.99,2.34,0,3.54-.28.34,0,1.25-.62,1.14Z" fill="#efefee"/>
    <path d="M118.51,132.44c1.11-1.09,2.21-2.28,3.48-3.18,1.37,1.66-2.58,2.98-3.48,3.18Z" fill="#efefee"/>
    <path d="M89.97,151.79c-.07.57.15,1.4.04,1.95l-.59.03c-.59-.43-.9-1.04-1.26-1.64.63.07,1.26-.05,1.81-.34Z" fill="#efefee"/>
    <path d="M109.62,135.45v.33h-3.59v-.33c1.04-.56,2.55-.56,3.59,0Z" fill="#372822"/>
    <path d="M87.05,151.08c-.27-.15-.57-.22-.86-.3-.11-.13-.24-.25-.38-.35-.4-.22-.58-.69-.57-1.12.09.01.22-.07.3-.03.82.47,1.77.75,1.52,1.81Z" fill="#efefee"/>
    <path d="M96.57,174.62h-.33v-3c1.38-.63.31,4.32.33,3Z" fill="#efefee"/>
    <path d="M96.57,174.62l-.05,2.99c-.89.71-.77-2.93-.28-2.99h.33Z" fill="#372822"/>
    <path d="M90.04,140.67h-.33c0-1-.03-2.01.06-3,1.27-.66.25,4.45.27,3Z" fill="#704833"/>
    <path d="M95.92,160.91c-.24.68.11,1.62-.04,2.34-.63.18-.64-.53-.65-.89,0-.56-.02-1.1.36-1.46h.33Z" fill="#372822"/>
    <path d="M90.7,122.34c-.03.41-.1.96,0,1.35-.4.24-.31.73-.35,1.31-.65-.11-.47-.7-.7-.99.68.32,0-2.15,1.04-1.67Z" fill="#efefee"/>
    <path d="M96.24,167.76h-.33l.03-2.34c.08-.12.42-.12.51.15.27.78.26,1.63-.21,2.19Z" fill="#efefee"/>
    <path d="M59.3,144.87c-.85-.19-1.06-1.17-1.48-1.85.75.32,1.01,1.21,1.48,1.85Z" fill="#372822"/>
    <path d="M61.26,147.15c-.78-.14-1.12-.91-1.51-1.54.64.36,1.21.86,1.51,1.54Z" fill="#372822"/>
    <path d="M85.56,148.47l-.36-.02-.06-1.22c.43.09.89-.13,1.38.19-.26.64-.64.83-.96,1.05Z" fill="#efefee"/>
    <path d="M90.74,121.79c.05-.6-.17-1.28.27-1.76.41.04.31.58.36.89.07.39-.06,1.07-.63.87Z" fill="#372822"/>
    <path d="M95.87,152.03c-.04.44.05.92.05,1.37h-.33c-.19-.22-.38-.52-.37-.81.02-.38.25-.77.64-.56Z" fill="#372822"/>
    <path d="M97.16,144.26c-.2-.53.23-.93.35-1.37.41.02.37.55.4.89.04.43-.37.5-.75.47Z" fill="#efefee"/>
    <path d="M101.83,80.93c.05.74-.76.94-1.38.96-.07-.76.79-.85,1.38-.96Z" fill="#372822"/>
    <path d="M96.24,167.76c.03.46-.06.91-.05,1.37-.42.21-.6-.2-.65-.56-.05-.32.31-.58.38-.81h.33Z" fill="#372822"/>
    <path d="M65.22,150.73c-.47-.06-.88-.34-.93-.83.41.14.75.44.93.83Z" fill="#372822"/>
    <path d="M63.91,149.77c-.42-.14-.87-.36-.86-.85.38.18.68.48.86.85Z" fill="#372822"/>
    <path d="M106.3,115.58c-.21.36-.51.63-.85.86-.01-.53.51-.62.85-.86Z" fill="#372822"/>
    <path d="M105.64,104.81c-.12.42-.36.85-.83.88.22-.35.39-.76.83-.88Z" fill="#372822"/>
    <path d="M102.71,107.78c-.03.47-.46.7-.87.83.22-.35.51-.64.87-.83Z" fill="#372822"/>
    <path d="M85.2,145.83l-.09,1.09c-.23.2-.54-.03-.61-.25-.11-.32.12-.67.35-.88l.34.04Z" fill="#704833"/>
    <path d="M83.91,122.09c-.17.42-.75.24-1.1.24-.2-.26.06-.46.26-.6.36-.26.61.34.85.35Z" fill="#372822"/>
    <path d="M80.32,122.33c-.39,0-.81.08-1.11-.25-.07-.37.31-.35.56-.37.35-.04.75.23.55.62Z" fill="#372822"/>
    <path d="M89.39,132.18h-.33l.04-1.04c.22-.17.5,0,.61.24.11.27-.06.63-.32.79Z" fill="#704833"/>
    <path d="M104.77,135.43l-1.02.02v-.33c.15-.23.35-.31.53-.34.33-.05.75.33.49.65Z" fill="#372822"/>
    <path d="M111.58,135.12v.33h-.98c-.06-.2-.05-.53.16-.65.34-.2.61.2.81.33Z" fill="#372822"/>
    <path d="M86.15,122.71c-.07.2.03.45-.02.66-.14-.13-.53,0-.61-.24-.09-.27-.1-.51-.08-.74.14.19.53.16.7.32Z" fill="#efefee"/>
    <path d="M81.85,137.48c-.16.05-.32.02-.44-.08-.19-.16-.25-.41-.21-.64.19.04.56-.02.64.2.07.19,0,.38.01.52Z" fill="#efefee"/>
    <path d="M82.48,138.46c-.19.18-.29.07-.41-.08-.16-.21-.2-.43-.21-.66.25-.12.55-.05.62.2.06.19-.01.37,0,.53Z" fill="#efefee"/>
    <path d="M96.55,145.85v.87s-.25-.03-.25-.03c-.06-.12-.26-.28-.32-.39-.08-.15-.08-.31.1-.42s.32-.16.47-.03Z" fill="#372822"/>
    <path d="M96.56,145.61c0-.3.18-.52.3-.76.21-.09.33.11.37.24.06.24-.04.4-.17.48-.19.12-.35.18-.5.04Z" fill="#efefee"/>
    <path d="M84.85,144.21c0,.14-.08.29-.08.43-.2.2-.45,0-.58-.26-.09-.17.19-.36.29-.51l.37.34Z" fill="#704833"/>
    <path d="M106.37,103.73c0,.23-.01.49-.2.7-.1.11-.28.15-.44.06.01-.16-.03-.33.05-.5.1-.2.35-.47.6-.26Z" fill="#372822"/>
    <path d="M97.9,83.53c.04.15.02.31-.05.45-.13.25-.49.11-.66.21-.15-.25.04-.46.23-.56.16-.08.33-.06.47-.1Z" fill="#372822"/>
    <path d="M99.23,82.55c.17.17.05.29-.06.42-.19.24-.45.2-.67.24-.19-.23.04-.51.24-.6.16-.08.34-.07.49-.06Z" fill="#372822"/>
    <path d="M100.21,81.89c.17.16.07.31-.05.45-.18.22-.45.24-.69.19-.16-.25.03-.5.24-.58.18-.06.35-.07.5-.07Z" fill="#372822"/>
    <path d="M87.76,115.86h-.33v-.69c.13-.12.29-.07.48.03.1.05.21.22.14.4-.04.11-.23.16-.3.26Z" fill="#efefee"/>
    <path d="M101.52,108.7c.13.26-.04.5-.25.58-.18.06-.34.08-.49.07-.16-.16-.06-.31.05-.45.19-.22.46-.22.7-.2Z" fill="#372822"/>
    <path d="M97.22,135.41c-.07.13,0,.33-.09.49-.1.21-.32.4-.58.26,0-.24.02-.5.23-.7.12-.11.27-.21.44-.05Z" fill="#372822"/>
    <path d="M87.76,115.86c-.03.21-.05.49-.04.71-.18.18-.47,0-.6-.23-.08-.14.15-.39.32-.48h.33Z" fill="#372822"/>
    <path d="M85.56,148.47l-.03.8c-.07-.04-.21.05-.3.03-.04-.09-.2-.21-.3-.36-.15-.22.26-.34.27-.5l.36.02Z" fill="#704833"/>
    <path d="M127.88,117.51c.08-.23-.04-.71.29-.72.08.11.42.28.32.49-.11.22-.44.2-.61.24Z" fill="#efefee"/>
    <path d="M98.2,134.1c-.07.12,0,.33-.08.49-.09.21-.34.29-.58.22.1-.19.02-.47.25-.66.11-.09.25-.16.41-.05Z" fill="#372822"/>
    <path d="M116.15,133.79c-.03.12,0,.34-.05.5s-.17.23-.36.13c-.12-.06-.23-.24-.33-.3.16-.25.45-.32.73-.32Z" fill="#efefee"/>
    <path d="M89.72,134.47h-.33l.06-.72c.2-.2.42,0,.59.24.15.21-.31.31-.32.47Z" fill="#704833"/>
    <path d="M89.04,130.29c-.31-.13-.26-.51-.3-.79.18-.21.51.02.64.25.08.16-.18.42-.34.54Z" fill="#704833"/>
    <path d="M103.43,118.44c.01.15,0,.32-.06.49-.09.21-.37.27-.6.22-.03-.41.25-.73.67-.71Z" fill="#372822"/>
    <path d="M76.75,132.83c-.13-.06-.35.03-.52-.07-.19-.11-.47-.34-.26-.6.24-.01.49.03.69.24.11.11.26.24.09.42Z" fill="#372822"/>
    <path d="M83.76,148.57c-.88-.02-1.43-.8-2.2-1.36-4.47-3.22-8.78-6.7-14.1-8.44,1.38,1.84,3.27,2.64,4.94,3.81,1.92,1.34,3.69,2.74,5.27,4.32.2.2.53.46.7.67,1.13,1.33,2.29,2.64,3.54,3.87-.37,1.01-1.76.65-2.59,1.02-.45-.02-1.13-.17-1.36.31-13.08,1.02-20.55-10.22-23.72-22.05,7.31-1.18,16.82-.86,22.79,3.81,4.3,3.37,6.61,8.75,6.75,14.05Z" fill="#7faa4f"/>
    <path d="M93.59,115.48l-.5,9.19c-.13,2.36.7,4.77-.12,6.85-.08.2.03.46.16.67.08.14.2.28.37.09,0,2.57-.02,5.22.42,7.75.04.22.04.45.05.67.04.63-.25,1.32.24,2.02.85-.56.96-1.31,1.09-1.99.02-.1.01-.22.02-.32.16-.07.17-.3.29-.39.3-.22.29-.68.36-.97.49-.06.56-.55.6-.92l4.86-5.94c.19-.23.72-.39.91-.73.88-1.52,2.29-2.22,3.41-3.2.1.07.18.16.25.26-1.13,1.42-2.25,2.89-3.58,4.33-.44.48-.72,1.03-.69,1.58-.92.19-1.4,1.07-2.01,1.86-1.93,2.53-3.31,5.28-4.12,8.23-.07.26-.27.49-.33.77-.13.61-.31,1.21-.35,1.84-.02.25-.24.49-.25.78l-.04,1.17c-.54.26-.28.97-.28,1.44-.03,2.91.08,5.82.04,8.72l-.06,3.93c0,.25.02.5.24.38l.13,6.52c0,.21-.26.45-.22.73.04.23,0,.54.37.5l.17,7.28c-.01.47-.36,1.02-.32,1.54-.56-.07-1.11-.27-1.64-.7-.5-.27-.99-.26-1.43-.19l-.47-11.6c-.26-6.39-3.49-11.41-7.62-16.07.61-.92,1.35-.35,1.88-.18,1.74,2.02,3.83,3.76,4.94,6.22.09.2-.15.65.18.68s.7.1.8-.16c.06-.17,0-.4,0-.54l-.09-22.75c0-1.21-.45-2.28-.34-3.35-.23-.64.73-.91.88-1.45.39-1.45.39-3.16-.07-4.43.17-.67-.07-1.48.05-2.16.21.19.43-.05.53-.29.08-.2-.26-.37-.32-.51l.05-3.17c.02-1.32.74-2.69.94-4.03l.62.03Z" fill="#9d6d4e"/>
    <path d="M94.71,180.14c.05.55.42,1.14.53,1.62.04,1.56.17,3.13-.03,4.66-1.12-.31-5.04,1.86-4.57-.36.35-1.67.34-3.22.44-4.9.05-.74.59-1.28.56-1.91.44-.07.93-.08,1.43.19.53.44,1.08.63,1.64.7Z" fill="#724a32"/>
    <path d="M78.36,147.57c-.18-.21-.5-.47-.7-.67.29-.61-.65-1.06-.84-1.81,2.32,1.18,4.27,3.02,6.33,4.76.33.28-.24,1.29-.46,1.1-.76-.63-4.42-4.54-4.32-3.39Z" fill="#724a32"/>
    <path d="M104.43,134.12c.13-.23-.21-.24-.35-.25l-.67-.02c-.02-.53.08-1.01.5-1.48l3.23-3.61c1.28-1.43,2.52-2.75,3.96-3.96l5.52-4.63c-5.3,1.06-11.62,6.92-15.15,10.69-.21-.28-.45-.63-.47-1.13-.21-5.4,2.25-10.15,6.61-13.33,5.18-3.78,13.35-4.77,20.06-3.97-1.79,9.18-6.62,19.84-16.77,21.64-2.26.4-4.37.1-6.46.05Z" fill="#7faa4f"/>
    <path d="M104.43,134.12c-.16,0-.36-.04-.35-.25.15,0,.48.02.35.25Z" fill="#372822"/>
    <path d="M97.9,109.32c-.22.08-.72,0-.71.34l-1.22.27-.11-.66c.45-3.96,1.77-7.75,2.84-11.74.24-.89.73-1.72.21-2.62-1.16.77-1.53,1.89-1.72,2.96-.24-.14-.31.21-.32.37l-.02.33c-.21-.04-.28.14-.29.31,0,.12-.02.25,0,.36-1.02.75-3.25,8.4-3.23,9.8-.24.14-.56.26-.77.2-.39-.12-.36-.57-.57-.89-4.94-7.57-1.93-16.38,4.56-21.92,2.78-2.38,5.6-4.46,9.22-5.73,1.73,5.9,2.78,12.18,1.3,17.88-1.26,4.85-4.58,9.11-9.16,10.74Z" fill="#7faa4f"/>
    <path d="M96.23,102.1c-.35.1-.36.39.03.37-.04.2.06.47-.02.65-1.02-.55-1.64,3.98-1.63,3.96l-.92,2.21c-.09-.12-.22-.21-.36-.26-.02-1.4,2.22-9.05,3.23-9.8.14,1.02.56,2.14-.33,2.85Z" fill="#372822"/>
    <path d="M94.83,109.56c-.27-.22-.46.14-.48.32s.02.37.04.51c.06.5.07,1.07-.08,1.56-.35,1.12-.65,2.34-.71,3.53l-.62-.03c.2-1.35.04-2.85.38-4.2.17-.66.08-1.34.34-1.95l.92-2.21h.39c0,.62.17,1.92-.17,2.48Z" fill="#724a32"/>
    <path d="M96.24,103.13c-.52,1.17-.88,2.8-1.25,3.96h-.39s.61-4.51,1.63-3.96Z" fill="#704833"/>
    <path d="M95.87,109.27l.11.66c-.22.05-.51.2-.71-.1-.08-.12-.02-.38.15-.46.12-.06.26-.07.45-.1Z" fill="#372822"/>
    <path d="M94.83,109.56c-.09.15.18.5-.06.74-.09.09-.21.25-.39.08-.02-.14-.06-.32-.04-.51s.21-.53.48-.32Z" fill="#372822"/>
    <path d="M97.9,109.32c-.24.09-.42.28-.71.34-.02-.34.49-.25.71-.34Z" fill="#372822"/>
    <path d="M96.57,98.88c0-.17.08-.36.29-.31,0,.14-.16.25-.29.31Z" fill="#372822"/>
    <path d="M96.87,98.24c0-.16.08-.5.32-.37-.03.16-.21.28-.32.37Z" fill="#372822"/>
    <path d="M96.26,102.47c-.39.02-.39-.27-.03-.37-.01.12.06.25.03.37Z" fill="#704833"/>
    <path d="M79.31,152.45c-.5.22-.8.26-1.36.31.23-.48.92-.33,1.36-.31Z" fill="#372822"/>
    <path d="M85.48,119.12c-.07-.99-1-1.27-1.61-1.96-2.09-2.38-4.36-4.79-7.58-6.16,1.14,2.12,3.18,3.12,4.53,4.95.45.61.86,1.2,1.45,1.49.11.08.18.27.27.37-.16.24.06.32.26.33.26.94,1.08,1.53,1.52,2.71-1.29.4-2.52.18-3.71.21-.45-.62-1.35-.16-1.99-.35-.43-.13-1.17-.38-1.6-.31.13-.24-.2-.24-.36-.28-5.77-2.75-8.59-9.69-9.8-15.95,3.32-.1,6.26.32,9.26,1.04,6.47,1.56,10.73,7.17,10.34,13.74l-.97.17Z" fill="#7faa4f"/>
    <path d="M83.87,117.16c-.55,0-1.1.03-1.6.28-.59-.29-1-.88-1.45-1.49-1.35-1.83-3.39-2.83-4.53-4.95,3.22,1.37,5.49,3.78,7.58,6.16Z" fill="#1c1c1b"/>
    <path d="M78.63,120.7c.64.2,1.54-.26,1.99.35-.83.02-1.64.08-2.67-.02.08-.5.45-.23.69-.33Z" fill="#372822"/>
    <path d="M77.02,120.39c-.11.02-.41.04-.52-.04-.07-.05.08-.18.16-.24.16.04.49.04.36.28Z" fill="#372822"/>
    <path d="M82.8,118.14c-.2,0-.42-.09-.26-.33.08.1.22.21.26.33Z" fill="#1c1c1b"/>
    <path d="M95.98,139.05c-.07.29-.06.75-.36.97-.2.02-.28.21-.29.39,0,.11,0,.22-.02.32-.44-.03-.88-.04-1.32-.02-.01-.22-.02-.46-.05-.67.19-.38.3-.86.64-.98.39-.14,1.03-.06,1.4,0Z" fill="#1c1c1b"/>
    <path d="M93.51,132.29c-.17.19-.29.05-.37-.09-.13-.21-.23-.47-.16-.67.24-.03.61-.06.63.19s-.1.43-.1.57Z" fill="#704833"/>
    <path d="M90.92,131.49c-.84-.77-1.02-2.08-.86-3.17.57.18.64.86,1.13,1.49,1.02-1.13-.52-3.36.54-4.19.46,1.27.46,2.98.07,4.43-.14.54-1.11.81-.88,1.45Z" fill="#724a32"/>
    <path d="M90.06,128.31c-.17-.05-.26-.27-.42-.35.12-.14.25-.27.4-.37.01.22.05.5.01.72Z" fill="#724a32"/>
    <path d="M90.01,153.74l.27.48c.2.36-.23.3-.58.21-.21-.05-.08-.51-.28-.66l.59-.03Z" fill="#704833"/>
    <path d="M91.35,157.59c0,.14.06.38,0,.54-.1.26-.49.18-.8.16s-.09-.48-.18-.68l.98-.02Z" fill="#372822"/>
    <path d="M86.19,150.78c-.16-.05-.24-.27-.38-.35.14.1.27.22.38.35Z" fill="#704833"/>
    <path d="M106,128.52c-.06-.1-.14-.19-.25-.26,1-.88,1.66-2.42,3.24-2.97-.36,1.65-2.15,2.18-3,3.24Z" fill="#724a32"/>
    <path d="M109.32,125.18c.27-.29.44-.63.93-.84-.11.43-.34.72-.93.84Z" fill="#724a32"/>
    <path d="M95.59,159.28v.65c-1.45-.46.02,2.88-1.03,3.63-.22.12-.24-.14-.24-.38l.06-3.93,1.21.03Z" fill="#372822"/>
    <path d="M94.34,150.53c0-.47-.26-1.18.28-1.44,0,.28.41.5.36.87-.05.33-.2.78-.64.57Z" fill="#372822"/>
    <path d="M94.66,147.91c.01-.3.24-.54.25-.78.29-.09.45.31.34.55-.09.2-.38.43-.59.24Z" fill="#372822"/>
    <path d="M96.2,147.79c-.02.24.09.73-.24.76-.1-.1-.24-.21-.3-.31-.11-.18-.05-.31.1-.4.17-.11.3-.18.44-.05Z" fill="#372822"/>
    <path d="M95.27,145.29c.06-.28.26-.52.33-.77.3-.05.43.36.31.55-.14.24-.44.4-.65.22Z" fill="#372822"/>
    <path d="M95.23,181.76c-.11-.48-.48-1.07-.53-1.62s.3-1.08.32-1.54c.65-.48.3,2.99.21,3.17Z" fill="#372822"/>
    <path d="M94.85,171.31c-.38.04-.34-.27-.37-.5-.04-.28.22-.51.22-.73.37-.03.34.29.38.51.05.28-.23.52-.22.71Z" fill="#372822"/>
    <path d="M96.85,185.45c-.25-.11-.64-.18-.66-.56s.24-.63.42-.85c.46.28.23.95.23,1.41Z" fill="#372822"/>
    <path d="M91.78,123.45c.05-.25-.15-.73.2-.8.07.14.41.32.32.51-.1.24-.32.48-.53.29Z" fill="#724a32"/>
    <path d="M95.31,140.73c-.12.69-.24,1.44-1.09,1.99-.49-.69-.2-1.38-.24-2.02.44-.01.88,0,1.32.02Z" fill="#372822"/>
    <path d="M95.33,140.41c.01-.18.08-.37.29-.39-.12.09-.13.32-.29.39Z" fill="#372822"/>
    <path d="M44.71,40.83c.01.07.01.16,0,.24-.04.24-.01.49.2.69.13.11.26.24.43.08.25,1.02.92,1.86,1.31,2.83.08.19-.03.49.2.68.11.09.27.14.43.06,0,.1.05.21.08.31.1.44.37.84.84.9.23.76.73,1.5,1.32,2,.12.13-.05.58.22.66.19.05.38,0,.46-.18.05-.1.08-.25.11-.43.59-.08,1.38-.36,1.85-.71.72-.13,1.97-.04,2.06-.94.17-.04.37-.05.54-.05.23,0,.5.03.69-.21.1-.12.14-.29.04-.45.46-.09.87-.68,1.25-.97.24.03.48-.03.67-.25.11-.12.26-.25.07-.42l.62-.11c.39-.33,1.05.01,1.11.51l.1.84c-.06.54.05,1.1.02,1.65-.5.64-.42,1.68,0,2.36v.55c-.44-.22-.59.23-.65.57s.36.61.42.85c.04.65-.03,1.32.13,1.97.06.23.04.54.22.69s.41.08.58.12c.29.07.67-.02.94.08.24.17.51.4.99.4l6.24-.04c.34,0,.76-.1.69-.37.17.05.38-.03.56.01l.08.75c-.09.29-.23.6-.36.88-.24-.2-.48.07-.58.26-.08.16-.06.34-.07.49-.02.31-.29.59-.33.89-.76-.07-.87.79-.98,1.39-.05.28-.31.55-.33.86-.79,0-.75.87-.97,1.44l-.61,1.63c-.11.29-.44.57-.25,1.05.11.28.51.31.85.38l.69.13c.28.35.1.77-.13,1.43,1.4.55,2.71,1.11,4.05,1.53.52.16.95.6,1.51.66-.2.25.12.46.3.56.16.08.33.07.48.09.23.03.41.31.6.31.17,1.06-1.51.65-1.34,1.65-1.96.98-4.33,1.7-5.51,3.59-.74.25-1.96,1.3-1.06,1.89l.07.33c.05.23.04.48.25.71.1.11.25.25.42.07l.04.54c.02.23-.05.48.15.71.11.13.26.22.43.06l.04.53c.02.24-.02.5.21.71.12.11.27.24.43.06.35.96,1.41,2.43,1.93,3.2,1.33,2.23-4.01.3-3.61,1.35-.95-.3-2.16.21-3.15.02-.75-.14-1.89-.36-2.09.53-.4-.03-.81-.02-1.21.2-.28.15-.2.51-.31.79-.89,2.2-.07,4.72-.42,7.23-.05.33.24.75.43.68-.08.28.02.63-.04.93l-1.04.02-2.84-1.31c.2-.23-.05-.5-.25-.59-.16-.07-.33-.05-.48-.04-.08,0-.16,0-.24,0,.07-.76-.81-.94-1.43-.99-.31-.02-.58-.29-.87-.34.08-.79-.79-.83-1.39-.97-.42-.1-.75-.43-1.2-.11-.3.21-.39.91-.68,1.09-.72.34-.71,1.03-1.01,1.69l-.99,2.17c-.92.13-1.12,1.28-1.3,2.08-.1.46-.33.91-.65,1.23h-.99c-.3-.32-.59-.79-.65-1.25-.08-.61-.22-1.46-.97-1.39-.05-.3-.32-.57-.33-.88-.01-.23.01-.49-.22-.69-.12-.1-.26-.22-.42-.06-.1-.29-.28-.57-.33-.88-.04-.23.03-.49-.22-.7-.12-.1-.25-.23-.42-.06-.06-.31-.25-.59-.33-.89-.06-.22.03-.5-.24-.69-.13-.1-.25-.25-.43-.06,0-.08-.02-.17,0-.24.18-.64-.18-.76-.8-.71-.31.03-.76.16-.55.63-.28-.01-.57.08-.85.09-.58,0-4.57,1.72-4.02,2.24-1.05.25-1.83,1.34-2.85,1.64-.17.05-.69.08-.69-.31l.02-6.91c0-.45-.16-.78-.38-1,.07-.72-.01-1.63-.86-1.67-.1-.73-.89-.5-1.45-.5h-1.52c.07-.33-.29-.41-.53-.41s-.61.07-.54.38h-5.23c-.14-.43-.14-.88,0-1.3.03-.09.08-.22.08-.32.26.15.51-.04.55-.25l.08-.48c.16-.92,1.1-1.58,1.33-2.52,1.03-.34,1.33-1.75,1.56-2.73.07-.28.03-.58.08-.86.63-.05.73-.55.5-1.08-.19-.42-.56-.4-.9-.63l-.92-.64c.08-.25-.03-.47-.23-.57-.15-.08-.37-.02-.49-.09-.39-.25-.76-.54-1.21-.65.2-.24-.07-.49-.27-.59-.16-.08-.34-.04-.49-.04h-.24c.22-.25-.07-.5-.27-.6-.17-.09-.36-.04-.51-.07-.71-.16-1.21-.7-1.86-.98l-.66-1.33c.21-.06.38-.27.6-.32s.47,0,.69-.21c.11-.1.2-.23.07-.41l.51-.04c.24-.02.51.02.73-.21.1-.11.24-.26.07-.43,1.24-.4,2.11-1.35,3.32-2.16.63-.42,1.99-1.05,1.65-2.06-1.2-3.59-4.4-7.39-3.78-8.75,3.29.13,6.61.26,9.93.02.52-3.61.28-6.99.18-10.51,1.46-.03,2.42.81,3.49,1.46l5.34,3.22c.27.16.51.23.72.08.15-.1.25-.31.31-.5.69-.1.92-.77.95-1.4l1.3-1.56c.25.12.49-.02.58-.23.08-.17.04-.35.07-.5.07-.4.34-.79.37-1.2.75.04.81-.82.94-1.41.1-.46.44-.85.64-1.26l1,.05ZM48.58,90.41c.25-.1.67-.62,1.07-.69,2,.69,5.29,3.09,6.77,3.33.17.13.3.22.33.29.08.28.42.33.77.35.2.01.86-.06.23-.42.02-1.87-.38-8.64,1.33-9.23,1.53-.53,7.05-.24,8.58-.68-1.38-2.38-2.7-4.4-3.58-6.77-1.11-2.98,5.25-5.53,7.29-6.73-1.81-.71-7.78-3.93-7.58-5.55.35-2.82,2.16-5.05,3.44-7.6-.68-1.59-2.37.23-5.66-.55-.92-.22-2.82-.03-3.24-1.18-.98-2.68-.28-5.47-.6-8.49-1.85,1.35-6.49,3.91-8.22,3.96-2.38-2.15-3.61-4.8-5.18-7.78-1.86,2.84-3.05,5.57-5.46,7.62-.52.44-1.26,0-1.79-.32l-6.37-3.82c-.57,2.99.63,6.27-.68,8.96-1.73,2.79-9.76.13-9.1,1.43,1.36,2.68,3.02,5.05,3.61,8.02-2.51,1.91-5.18,3.44-7.73,5.19,2.57,1.56,5.54,2.79,7.17,5.02.19,3.23-1.85,6.03-3.47,8.74l6.81.16c1.62.04,2.87.86,2.91,2.56l.17,7.26c1.39-.75,8.35-4.86,9.2-3.57l4.75,7.2c1.52-2.45,2.53-4.84,4.23-6.71Z" fill="#372822"/>
    <path d="M59.1,94.35c-.19.07-.47-.35-.43-.68.35-2.51-.47-5.03.42-7.23.18-.12.27.15.32.38-.25,2.61.36,5.16-.31,7.53Z" fill="#704833"/>
    <path d="M70.51,67.87c-1.34-.42-2.65-.98-4.05-1.53.23-.66.41-1.08.13-1.43.45-.12,1.35-.33,1.57.37.17.53-.68.38-1.07.91.34.6,4.07.88,3.42,1.69Z" fill="#704833"/>
    <path d="M36.93,91.42c.5.54-3.53,2.12-4.02,2.24-.55-.52,3.44-2.23,4.02-2.24Z" fill="#704833"/>
    <path d="M46.65,95.88c-.33.72-.41,1.95-1.3,2.08.18-.8.38-1.95,1.3-2.08Z" fill="#704833"/>
    <path d="M65.9,64.77c-.34-.07-.74-.1-.85-.38-.19-.47.14-.75.25-1.05.13.5.27,1.02.6,1.42Z" fill="#704833"/>
    <path d="M47.63,93.72c.3-.67.29-1.35,1.01-1.69-.06.69-.17,1.7-1.01,1.69Z" fill="#704833"/>
    <path d="M66.55,74.72c-.39.62-.96,1.15-1.06,1.89-.9-.59.32-1.65,1.06-1.89Z" fill="#704833"/>
    <path d="M51.91,92.02c-.6-.1-1.45-.22-1.39-.97.59.14,1.47.18,1.39.97Z" fill="#704833"/>
    <path d="M43.06,42.04c-.12.58-.19,1.44-.94,1.41.04-.62.16-1.46.94-1.41Z" fill="#704833"/>
    <path d="M72.06,71.13c-.16-.99,1.51-.58,1.34-1.65h.5c.18.01.22.3.17.5-.15.56-2.8,1.54-2.01,1.14Z" fill="#704833"/>
    <path d="M66.87,60.28c-.05.62-.22,1.49-.97,1.44.21-.57.18-1.45.97-1.44Z" fill="#704833"/>
    <path d="M68.18,58.03c-.09.61-.22,1.45-.98,1.39.1-.6.22-1.45.98-1.39Z" fill="#704833"/>
    <path d="M59.32,50.5c0,.46.24,1.14-.23,1.42-.06-.25-.49-.51-.42-.85s.21-.79.65-.57Z" fill="#704833"/>
    <path d="M43.06,97.95c-.75.06-.88-.79-.97-1.39.75-.07.89.79.97,1.39Z" fill="#704833"/>
    <path d="M39.8,46.94c-.03.63-.26,1.31-.95,1.4-.03-.65.23-1.35.95-1.4Z" fill="#704833"/>
    <path d="M39.13,91.41c-.45.02-.9-.06-1.35-.08-.21-.47.24-.6.55-.63.62-.05.98.07.8.71Z" fill="#704833"/>
    <path d="M60.02,54.69c-.17-.04-.4.04-.58-.12s-.16-.46-.22-.69c.35.18.64.45.8.81Z" fill="#704833"/>
    <path d="M48.2,46.61c-.47-.06-.74-.46-.84-.9.56.02.71.45.84.9Z" fill="#704833"/>
    <path d="M45.34,41.83c-.17.17-.3.04-.43-.08-.22-.19-.24-.45-.2-.69.26-.18.49.05.57.25.07.18.03.37.06.51Z" fill="#704833"/>
    <path d="M41.75,95.68c-.25.2-.45-.1-.56-.27-.1-.15-.03-.34-.08-.48.17-.17.31-.04.42.06.23.2.21.46.22.69Z" fill="#704833"/>
    <path d="M39.8,92.4c-.24.2-.5-.07-.59-.26-.08-.16-.08-.35-.07-.5.17-.19.29-.04.43.06.26.19.17.47.24.69Z" fill="#704833"/>
    <path d="M41.75,44.65c-.03.15,0,.32-.07.5-.09.21-.33.35-.58.23.13-.15,0-.49.25-.67.12-.08.23-.24.4-.06Z" fill="#704833"/>
    <path d="M67.53,80.33c-.17.17-.31.05-.43-.06-.23-.21-.19-.47-.21-.71.25-.21.47.1.57.27.09.16.02.36.07.49Z" fill="#704833"/>
    <path d="M66.84,79.03c-.17.16-.32.06-.43-.06-.2-.22-.13-.48-.15-.71.25-.19.49.07.56.27.06.18,0,.35.02.5Z" fill="#704833"/>
    <path d="M66.22,77.72c-.17.18-.31.04-.42-.07-.21-.22-.21-.48-.25-.71.25-.21.51.07.61.28.08.16.04.35.06.5Z" fill="#704833"/>
    <path d="M72.8,69.18c-.15-.02-.32,0-.48-.09-.18-.09-.5-.3-.3-.56.23.03.51-.03.72.22.1.11.22.26.06.43Z" fill="#704833"/>
    <path d="M47.29,45.4c-.16.07-.32.03-.43-.06-.23-.19-.12-.49-.2-.68.24-.2.49.05.58.25.08.17.04.34.05.5Z" fill="#704833"/>
    <path d="M69.16,56.4c-.09.19.03.49-.24.68-.12.09-.24.24-.41.07.01-.15-.01-.33.07-.49.1-.19.33-.46.58-.26Z" fill="#704833"/>
    <path d="M57.48,44.69c.18.17.04.29-.07.42-.19.21-.43.28-.67.25.12-.13,0-.54.24-.59.2-.05.36-.04.5-.07Z" fill="#704833"/>
    <path d="M50.31,48.67c-.03.18-.06.32-.11.43-.08.18-.27.23-.46.18-.28-.07-.1-.53-.22-.66l.79.06Z" fill="#704833"/>
    <path d="M55.5,46.32c.1.16.06.33-.04.45-.19.23-.46.2-.69.21-.2-.25.07-.52.26-.56l.47-.1Z" fill="#704833"/>
    <path d="M57.76,93.26l-1,.07c-.03-.07-.15-.16-.33-.29-.76-.56-7.55-5.26-7.85-2.64-1.7,1.87-2.7,4.26-4.23,6.71l-4.75-7.2c-.85-1.29-7.81,2.82-9.2,3.57l-.17-7.26c-.04-1.7-1.29-2.52-2.91-2.56l-6.81-.16c1.63-2.71,3.67-5.51,3.47-8.74-1.63-2.23-4.6-3.46-7.17-5.02,2.55-1.75,5.22-3.27,7.73-5.19-.6-2.97-2.25-5.34-3.61-8.02-.66-1.3,7.37,1.36,9.1-1.43,1.31-2.69.11-5.97.68-8.96l6.37,3.82c.53.32,1.27.77,1.79.32,2.41-2.06,3.6-4.78,5.46-7.62,1.57,2.98,2.8,5.64,5.18,7.78,1.73-.05,6.37-2.62,8.22-3.96.32,3.02-.37,5.8.6,8.49.42,1.14,2.32.96,3.24,1.18,3.29.77,4.99-1.05,5.66.55-1.27,2.54-3.09,4.78-3.44,7.6-.2,1.62,5.77,4.84,7.58,5.55-2.04,1.2-8.4,3.75-7.29,6.73.88,2.36,2.2,4.39,3.58,6.77-1.54.44-7.05.15-8.58.68-1.71.59-1.31,7.36-1.33,9.23ZM61.84,69.88c0-9.79-7.93-17.73-17.72-17.73s-17.72,7.94-17.72,17.73,7.93,17.73,17.72,17.73,17.72-7.94,17.72-17.73Z" fill="#ed9f43"/>
    <path d="M56.43,93.04c-1.48-.23-4.78-2.64-6.77-3.33-.41.07-.82.59-1.07.69.3-2.62,7.09,2.07,7.85,2.64Z" fill="#704833"/>
    <path d="M57.76,93.26c.62.36-.03.43-.23.42-.35-.02-.69-.07-.77-.35l1-.07Z" fill="#704833"/>
    <path d="M61.84,69.88c0,9.79-7.93,17.73-17.72,17.73s-17.72-7.94-17.72-17.73,7.93-17.73,17.72-17.73,17.72,7.94,17.72,17.73ZM32.87,81.99c6.7,6.23,17.17,5.85,23.4-.85s5.84-17.18-.85-23.41c-6.7-6.23-17.17-5.85-23.4.85-6.23,6.7-5.84,17.18.85,23.41Z" fill="#372822"/>
    <path d="M32.87,81.99c1.1-.04,1.91.79,2.68,1.53,1.09,1.05,6.07,1.73,6.16,1.76,1.87.66,3.19.48,5.12.07l3.13-.66c1.4-.3,4.22-2.63,5.38-3.58s2.08-1.76,2.69-3.21c.97-2.29,1.59-4.47,1.73-7.13.38-7.49-4.4-14.45-11.89-16.12-8-1.79-16.68,2.64-18.87,10.21-.93,3.2-.86,6.32-.17,9.55.41,1.94,1.96,3.65,2.79,5.52.28.63,1.33.82,1.25,2.07-6.7-6.23-7.08-16.71-.85-23.41,6.23-6.7,16.7-7.08,23.4-.85,6.7,6.23,7.08,16.71.85,23.41s-16.7,7.08-23.4.85Z" fill="#ed9f43"/>
    <path d="M32.87,81.99c.08-1.25-.98-1.44-1.25-2.07-.83-1.87-2.38-3.58-2.79-5.52-.69-3.23-.76-6.35.17-9.55,2.19-7.57,10.87-12,18.87-10.21,7.49,1.68,12.28,8.63,11.89,16.12-.14,2.66-.76,4.84-1.73,7.13-.62,1.46-1.5,2.23-2.69,3.21s-3.98,3.28-5.38,3.58l-3.13.66c-1.94.41-3.25.6-5.12-.07-.09-.03-5.07-.71-6.16-1.76-.76-.74-1.57-1.57-2.68-1.53Z" fill="#fbc835"/>
    <path d="M199.67,241.21V13.35c-.81-3.21-1.76-6.59-4.43-8.96C192.77,2.2,189.51,0,185.86,0L14.19.04C6.63.05.03,6.7.03,15.46l-.03,225.97.04,2.12-.02,45.5c.95,6.36,4.75,11.54,10.81,13.45,1.17.37,2.42.08,3.53.74h148.78c-.04-.18.11-.26.36-.27l22.41-.2c7.2-.06,12.95-7.06,13.77-13.89v-42.44c-.25.02-.33-.3-.33-.64v-3.95c0-.34.08-.66.33-.64ZM134.75,145.61c-1.07-2.09-3.53-4.27-3.21-5.56-.06-.08-.28-.14-.35-.26-.1-.21-.03-.33.14-.39.16-.05.37-.02.5-.05l2.26-2.21c.14-.14-.04-.55.2-.69.24-.13.64.09.8-.03l11.35-8.16c-.09-.25.03-.47.23-.57.16-.08.34-.05.48-.09.21-.06.38-.26.59-.32-.09-.25.04-.46.23-.57.15-.08.37-.02.48-.1,1.59-1.05,3.08-2.52,4.8-3.31.1-.42.38-.71.89-.67.48.04.88.16.87.7l.31.08c.87.23,1.4,1.1,1.85,1.86.06.1.14.26.15.38.52.38,1.02.07,1.46-.3,1.01-1.68,2.28-3.28,3.97-4.29-.14-.26.04-.5.24-.59.19-.08.38-.02.52-.06l1.17-.37c-.83-.47,3.83-1.85,3.37-.98.4-.06,1.13-.05,1.53,0-.47-.89,4.28.56,3.37.97.66.13,1.25.37,1.85.7.18.1.53-.05.68.21.07.12.1.29.05.44,2.03.43,3.52,2.86,4.55,4.84.25-.2.47.09.57.27.09.16.03.35.07.49.25.88,1,1.53,1.02,2.5.19.05.44.08.56.29.09.15-.06.37-.22.46v.55c.23-.21.42,0,.59.26.13.2-.28.34-.27.51l.06,1.17c.21-.2.54.12.54.42v4.56c0,.32-.36.62-.58.4.01.29-.01.58-.02.87.22.19.36.52.26.8-.09.25-.33.49-.58.29v.55c.16.12.24.3.19.5-.05.18-.11.31-.3.23.01.17.02.38,0,.54-.03.16-1.73,6.76-2.17,5.69v.55c.4.14.21.73.27,1.06.57,1.1,2.74,2.19,2.97,3.49.22.02.48.11.53.28.07.2.02.37.02.5v1.81c0,.66-.17,1.36-.91,1.41-1.31,1.68-3.17,2.92-4.87,4.21.08.24-.02.48-.23.57-.16.08-.35.04-.49.09-.47.18-.75.64-1.24,1.01l-15.48,11.89c-1.4,1.08-2.86,2.01-4.42,2.44,0,.47-.35.77-.87.69-.31-.05-.52-.32-.51-.69-4.39-1.36-1.67-5.22-7.1-5.59-.11.09-.21.25-.31.31-.18.11-.33.03-.4-.11-.1-.2-.16-.34-.03-.48l-9.37-2.33c-.1.13-.21.24-.31.31-.2.13-.33.03-.4-.11-.09-.2-.13-.35-.02-.48-.19-.04-.39-.02-.58-.05-.09.15-.18.26-.29.33-.19.11-.35.03-.41-.11-.09-.2-.12-.35-.02-.49-.51-.1-1.03-.3-1.55-.36-.11.09-.22.24-.32.3-.23.14-.33.02-.4-.11-.11-.19-.15-.35-.03-.48-.18-.04-.38-.02-.56-.04-.09.15-.19.25-.3.31-.17.1-.36.03-.42-.11-.08-.2-.14-.34-.02-.48-.19-.04-.38-.02-.57-.05-.09.15-.19.26-.29.32-.18.11-.36.03-.41-.11-.08-.2-.14-.34-.02-.48-1.07-.19-2.1-.61-3.19-.71-.09.14-.2.25-.31.32-.16.1-.34.03-.4-.11-.08-.2-.12-.35-.02-.49-.19-.04-.4-.03-.59-.06-.08.15-.18.27-.29.33-.16.1-.35.03-.4-.12-.08-.2-.13-.34-.02-.49-.51-.1-1.02-.3-1.54-.36-.11.09-.22.24-.32.3-.22.13-.33.02-.4-.11-.11-.2-.16-.35-.04-.48l-2.26-.4c-2.11,2.17-4.44,3.98-6.82,5.6-.03.19.02.63-.18.66-.29.05-.81.09-.81-.15v-.55c0-.28-.22-.6-.32-.9-.05-.08-.35,0-.48-.09-.11-.07-.18-.18-.13-.34.05-.15.34-.18.33-.29,0-.29-.03-.61-.06-.9-.14.12-.29.07-.48-.03-.13-.07-.25-.19-.11-.41.06-.1.2-.2.33-.28v-7.12c-.19-.19-.57-.51-.39-.84.12-.22.43-.42.65-.23.18-2.64,1.03-5.29,2.61-7.41.27-.35-.11-.95.84-.74.39.09.42.32.47.71,2.09,1.78,3.98,3.89,5.25,6.46,1.62.28,3.07-.04,4.5.12-.1-.77,4.45-.19,6.46-.5.56-.09,1.07-1.02,1.72-.84,4.3,1.17,2.4.56,6.62.13-1.45-3.76-4.04-7.16-5.96-10.89ZM110.96,187.02c-.04.42-.28.83-.86.69-.29-.07-.53-.31-.54-.68-1.48.02-2-1.38-2.88-2.32-.53-.37-1.72-.02-1.28-1.47.18-.6.46-1.15,1.33-1.07.11-.26.57-.68.31-1.04-.49-.68.28-1.31-.05-2.37-.87.4-1.48.49-2.2.2-.62-.25-.76-.79-.68-1.43-.85-.67-1.91-1.37-1.99-2.54-.55,0-.66-.4-.71-.85-.07-.58.3-.77.72-.84.8-2.02,3.05-2.71,4.23-4.52.11-.17-.14-.66.18-.68.31-.02.7-.1.8.16.07.18-.07.41-.05.55.03.18.01.37.05.55.14-.11.28-.07.48.03.14.07.22.23.11.4-.06.1-.21.2-.32.3.09.93.39,1.89.39,2.84.73-.17.7.65.69,1.2,0,.4-.07,1.06-.69.87,0,.4-.04.81-.03,1.21.31-.23,3.32,1.26,3.27,1.65-.01.1.02.21.04.31.14-.12.28-.08.46.03.14.08.2.23.1.38-.07.1-.21.22-.31.33.12.81.51,1.58.99,2.24.5-.11.66.24.83.72.1.31.14.7-.19.96.33,1.73-.48,3.66-2.19,4.2ZM77.11,103.5c.24.1.17.47.23.61l2.62,1c.32-.4.84-.37,1.35-.28.33.06.43.82.77.95,1.06.39,1.78.65,2.48,1.55.96,1.22,2.44,2.2,2.68,3.81.04.25-.85.78-.29,1.03.53.24,1.04.38,1.05.94.01.46-.15.92-.61,1.12-.01.31.03.62.03.93.13-.12.29-.07.48.03.1.05.21.22.14.4-.04.11-.23.16-.3.26-.03.21-.05.49-.04.71.07,1.52.03,3.03.02,4.55.91.77,1.21,1.98,1.92,2.9.68.32,0-2.15,1.04-1.67l.04-.55c.05-.6-.17-1.28.27-1.76,0-.17.08-.35.08-.52v-1.66c-.1-.09-.26-.19-.32-.29-.11-.17-.05-.32.1-.41.18-.09.32-.16.46-.04.16-.47-.09-1.1.09-1.55-.78.26-.31-3.11.6-2.67.22-.72.32-1.5.37-2.24-.59-.41-1.01-1.04-1.66-1.37-.79-.4-2.21-.61-2.69-1.54-.39-.76-.48-1.53-1.03-2.17-.56-.65.89-1.25.97-1.74.11-.65-.56-1.64.18-2.05.17-.79-.15-1.76,0-2.55-.77-.75-.5-2.71.59-3.02.03-.18,0-.38.04-.56-.74-.37.16-1,.23-1.47.22-1.55.94-2.21,1.65-3.12,1.97-2.51,3.77-5.2,6.52-6.89-.15-.25.04-.46.23-.56.16-.08.33-.05.47-.1.21-.06.39-.28.6-.32-.19-.23.04-.5.24-.6.16-.08.34-.07.49-.06.08,0,.16-.02.24,0-.16-.25.03-.5.24-.58.18-.06.35-.07.5-.07.08,0,.16,0,.24,0-.07-.76.79-.85,1.38-.96.29-.06.56-.3.87-.33-.21-.92,2.42-1.26,3.86-2.3,1.1,3.15,2.31,6.29,2.36,9.55,0,.27-.04.6.02.87.61.52.53,6.15,0,7.27-.06.13-.03.4,0,.55.18,1.61-1.47,7.04-2.54,6.96-.02.07,0,.16,0,.24,0,.23-.01.49-.2.7-.1.11-.28.15-.44.06,0,.1-.06.22-.08.32-.12.42-.36.85-.83.88-.54.83-1.28,1.54-2.1,2.09-.03.47-.46.7-.87.83-.1.03-.22.09-.32.08.13.26-.04.5-.25.58-.18.06-.34.08-.49.07-.08,0-.16,0-.24,0-.95,2.33-5.41.94-5.27,3.35.06.97-.3,1.9-.34,2.9-.32,7.37-.3,14.61.03,21.96,1.16-.17.84-1.23,1.59-1.14.03-.07,0-.19,0-.27,0-.24.02-.5.23-.7.12-.11.27-.21.44-.05l.32-.59c.1-.19.02-.47.25-.66.11-.09.25-.16.41-.05l.39-.65,1.13-1.89c-.71-2.57.22-10.16,2.39-11.23.11-.44.38-.82.65-1.18-.03-.41.25-.73.67-.71.56-.77,1.23-1.47,2.02-2.01-.01-.53.51-.62.85-.86,2.29-1.65,4.77-2.99,7.53-3.63-.11-.14-.06-.29.02-.49.06-.15.25-.21.41-.12.11.07.21.18.29.33.19-.03.4-.01.59-.05-.1-.14-.07-.29.02-.49.06-.15.22-.21.41-.12.1.05.18.27.29.33l1.22-.07c-.16-.15-.08-.3.04-.48.09-.13.21-.24.49-.17.12.03.28.19.21.39.6.08,1.28-.23,1.87-.09-.18-.43.19-.69.54-.66.35.03.86-.02.85.42h5.81c-.06-.44.47-.48.84-.37.2.06.43.41.25.64.35-.12.81.15,1.17.05.68-.19.75.12.76.78,0,.47-.23.77-.7.83l-1.02,4.17c.08.11.42.28.32.49-.11.22-.44.2-.61.24-1.18,4.29-3.49,8.04-5.9,11.75,1.37,1.66-2.58,2.98-3.48,3.18-.85.19-1.66.88-2.35,1.35-.03.12,0,.34-.05.5-.05.16-.17.23-.36.13-.12-.06-.23-.24-.33-.3-.63.09-1.26.48-1.86.67.12.6-.48.7-1,.87-.31.1-.72.16-.98-.21h-.98c.1.36-.03.72-.48.68-.17-.02-.35-.23-.5-.35h-3.59c-.23.06-.49.58-.81.33-.23-.18-.41-.45-.21-.67-.08,0-.16,0-.24,0l-1.02.02c-.1.07-.16.25-.27.29-.22.08-.35-.04-.4-.14-.07-.16-.14-.39-.02-.5-.09,0-.19,0-.28,0l-.66.03c-1.66,2.54-3.8,4.82-4.61,7.77.41.02.37.55.4.89.04.43-.37.5-.75.47-.23.12-.2.4-.3.59.21-.09.33.11.37.24.06.24-.04.4-.17.48-.19.12-.35.18-.5.04v.24s0,.87,0,.87c.85,1.08.99,2.34,0,3.54-.28.34,0,1.25-.62,1.14l-.06.63c-.04.44.05.92.05,1.37.6.69.43,6.29,0,7.51-.24.68.11,1.62-.04,2.34-.15.69.08,1.47.07,2.18.08-.12.42-.12.51.15.27.78.26,1.63-.21,2.19.03.46-.06.91-.05,1.37l.05,2.49c1.38-.63.3,4.32.32,3l-.05,2.99c0,.63.13,1.31.09,1.94,1.74.3-.07,2.19.8,3.15.92,1.03.83-2.05,2,4.69.3.47.86.64,1.4.68.34-.38.86-.36,1.37-.29.44.06.66.65,1.13.94.53.34,1.29.25,1.37.9,2.28.72,4.42,2.02,5.9,3.9.2.26.72.11.67.7-.03.41.81.65.95.95,1-.07,7.96,3.88,7.81,4.85.41.18.74.48,1.08.75.45.35,1.1.56,1.22,1.18.11.04.24.02.34.06,1.72.77,3.43,1.57,5.37,2.15.39.12.59.54.55.79.08,0,.16,0,.24,0,.6.09,1.44.24,1.38.98.08,0,.16,0,.24,0,.23-.02.5,0,.7.22.1.11.14.28.04.44l.59.32c.19.1.47.01.66.24.09.11.17.25.05.41.36.23.84.51,1.22.64-.09-.18.16-.29.41-.3h18.22c.25,0,.46.24.38.38,1.26-.14,2.51.18,3.93.18l26.42.05c.34,0,.74-.36,1.11-.21.31.13.47.72.46,1.24-.22,8.63.48,17.17-.34,25.51-.03.29-.07.56-.71.56H25.17c-.66,0-1.37,0-2.07,0l-8.08-.05.08-25.41c0-.45-.43-1.37,0-1.84l35.4-.07c.72,0,1.32-.07,1.73-.58-2.98-2.27-7.36-6.01-10.72-7.14-8.62-2.89-17.25-5.2-26.01-7.6-.41-.11-.63-.33-.7-.62-.07-.27.04-.55.22-.76l-.05-.58c-.73-.37-.04-6.44-.04-7.89l.09-17.96c0-.58-.74-1.3-.05-1.99l9.91,4.89,10.9,5.09,9.86,4.84c9,4.42,12.74.16,21.59,6.41,2.98,2.1,5.58,4.27,7.85,7.38l9.49-3.59,4.11-.58c.88-3.9.89-7.72.97-11.69.21-10.66.24-14.25-6.96-22.96-5.88,2.54-12.45,1.81-17.08-2.06-.11-.06-.27-.13-.39-.15-.47-.06-.88-.34-.93-.83l-.38-.13c-.42-.14-.87-.36-.86-.85-.7-.46-1.34-1.04-1.78-1.76-.78-.14-1.12-.91-1.51-1.54-.15-.25-.29-.52-.45-.75-.85-.19-1.06-1.17-1.48-1.85-.19-.31-.28-.63-.41-.96-.06-.02-.4.03-.51-.18-2.12-3.87-3.65-7.91-4.7-12.37,2.19-.38,5.85-1.55,7.54-.65.85.13,2.34.12,3.19,0,1.18-1.29,12.71,1.6,12.8,3.3.06.03.17,0,.24,0,.24-.01.49.03.69.24.11.11.26.24.09.42,1.79.84,3.03,2.59,4.45,3.93.19.04.56-.02.64.2.07.19,0,.38.01.52v.25c.26-.12.57-.05.64.2.06.19-.01.37,0,.53,0,.1.02.24.05.33.97.24,1.8.59,2.22,1.44.48.98.23,1.83-.31,2.7l.04.94.37.34c.49-.03.98.22.86.8-.05.26-.27.57-.51.82l-.09,1.09c0,.1.02.21.03.3.43.09.89-.13,1.38.19-.26.64-.64.83-.96,1.05l-.03.8c.82.47,1.77.75,1.52,1.81.03.6.89.68,1.11,1.06.63.07,1.26-.05,1.81-.34.25-1.97,0-3.95.02-5.92-2.1-1.09-.78-3.19-.27-5.21,0-1-.03-2.01.06-3,.05-.61-.06-1.23-.06-1.85-.37.19-.72-.11-.69-.54.02-.26.07-.6.36-.81l.06-.72c.02-.29-.05-.58-.05-.88-.12.12-.3.06-.48-.03-.11-.05-.21-.2-.14-.4.04-.11.23-.17.29-.27l.04-1.03c.01-.28-.06-.57-.06-.85-.31-.13-.26-.51-.3-.79-.42-3.3-1.27-1.94-1-4.18-.6.52-1.22-1.59-1.61-1.94-.14-.13-.53,0-.61-.25-.09-.27-.1-.51-.08-.74-.36-.48-1.05-.28-1.54-.3-.17.42-.75.24-1.1.24h-2.48c-.39,0-.81.08-1.11-.25-8.4-.75-13.15-11.68-13.9-19.18l5.78-.04c-.02-.47.49-.4.84-.43.36-.03.75.26.55.68,1.38-.06,2.79.45,4.13.7.11-.1.29-.41.49-.32ZM14.51,69.18c.12-.06.33.04.5-.02.21-.06.38-.27.6-.32-.2-.24.04-.51.25-.6.17-.07.35,0,.5-.02l.51-.04c-.19-.26.13-.47.3-.56.17-.09.36-.03.5-.08,1.24-.4,2.11-1.35,3.32-2.16.63-.42,1.99-1.05,1.65-2.06-1.2-3.59-4.4-7.39-3.78-8.75,3.29.13,6.61.26,9.93.02.52-3.61.28-6.99.17-10.51,1.46-.03,2.42.81,3.49,1.46l5.34,3.22c.27.16.51.23.72.08.15-.1.25-.31.31-.5-.03-.65.23-1.35.95-1.4l1.3-1.56c.12-.15,0-.49.25-.67.12-.08.23-.24.4-.06.07-.4.34-.79.37-1.2.04-.62.16-1.46.94-1.4.1-.46.44-.85.64-1.26.1-.19-.15-.64.18-.66.32-.02.7-.1.8.16.07.17,0,.4.02.54.01.07.01.16,0,.24.26-.18.49.05.57.25.07.18.03.37.06.51.25,1.02.92,1.86,1.31,2.83.24-.2.49.05.58.25.08.17.04.34.05.5,0,.1.05.21.08.31.56.02.71.45.84.9.23.76.73,1.5,1.32,2l.79.06c.59-.08,1.38-.35,1.85-.71.19-.94,1.25-.75,2.06-.94.17-.04.37-.05.54-.05-.2-.25.07-.52.26-.56l.47-.1c.46-.09.87-.68,1.25-.97.12-.13,0-.54.24-.59.2-.04.36-.04.5-.07l.62-.11c.15-.4.97-.73,1.26-.25.32.52,0,1.16-.05,1.61-.06.54.05,1.1.02,1.65.55.62.67,1.82,0,2.36v.55c0,.46.23,1.14-.23,1.42.04.65-.03,1.32.13,1.97.35.17.64.45.8.81.29.07.67-.02.94.08-.11-.18.16-.28.39-.32,2.61.26,5.16-.37,7.53.31.17.05.38-.03.56.01.08-.24.35-.42.55-.29.27.19.16.57.15.81,0,.18-.49.11-.61.23-.09.29-.23.6-.36.88-.09.19.03.49-.24.68-.12.09-.24.24-.41.07-.02.31-.29.59-.33.89-.09.61-.22,1.45-.98,1.39-.05.28-.31.55-.33.86-.05.62-.22,1.49-.97,1.44l-.61,1.63c.13.5.27,1.02.6,1.42l.69.13c.45-.12,1.35-.33,1.57.37.17.53-.68.38-1.07.91.34.6,4.07.88,3.42,1.69.52.16.95.6,1.51.66.23.03.51-.03.72.22.1.11.22.26.06.43.23.03.41.31.6.31h.5c.18.01.22.3.17.5-.15.56-2.8,1.54-2.01,1.14-1.96.98-4.33,1.7-5.51,3.59-.39.62-.96,1.15-1.06,1.89l.07.33c.25-.21.51.07.61.28.08.16.04.35.06.5l.04.54c.25-.19.49.07.56.27.06.18,0,.35.02.5l.04.53c.25-.21.47.1.57.27.09.16.02.36.07.49.35.96,1.41,2.43,1.93,3.2.2.3,1.1.17.56,1.14-.17.3-2.75.66-4.17.21-.95-.3-2.16.21-3.15.02.52.84-1.76.58-2.09.53-.4-.03-.81-.02-1.21.2-.28.15-.2.51-.31.79.18-.12.27.15.32.38-.25,2.61.36,5.16-.31,7.53-.08.28.02.63-.04.93-.05.21.11.61-.18.66-.28.05-.66.13-.77-.17-.04-.12-.07-.3-.09-.47l-2.84-1.31c-.18-.09-.5.04-.69-.2-.09-.12-.16-.26-.05-.43-.08,0-.16,0-.24,0-.62-.07-1.43-.26-1.43-.99-.31-.02-.58-.29-.87-.33-.6-.1-1.45-.22-1.39-.97-.42-.1-.75-.43-1.2-.11-.3.21-.39.91-.68,1.09-.06.69-.17,1.7-1.01,1.69l-.99,2.17c-.33.72-.41,1.95-1.3,2.08-.1.46-.33.91-.65,1.23-.13.13.13.64-.17.66-.31.02-.65.1-.8-.16-.07-.12.06-.39-.01-.5-.3-.32-.59-.79-.65-1.25-.75.06-.88-.79-.97-1.39-.05-.3-.32-.57-.33-.88-.25.2-.45-.1-.56-.27-.1-.15-.03-.34-.08-.48-.1-.29-.28-.57-.33-.88-.25.21-.47-.1-.57-.28-.09-.16-.05-.33-.08-.48-.06-.31-.25-.59-.33-.89-.24.2-.5-.07-.59-.26-.08-.16-.08-.35-.07-.5,0-.08-.02-.17,0-.24-.45.02-.9-.06-1.35-.08-.28-.01-.57.08-.85.09.5.54-3.53,2.12-4.02,2.24-1.05.25-1.83,1.34-2.85,1.64-.09.32-.05.75-.54.69-.35-.04-.68-.32-.72-.84-.05-.64-.33-8.32.21-8.07.07-.72-.01-1.63-.86-1.67-.28.08-.76.14-1.13.06-.19-.04-.54-.22-.32-.56h-1.52c-.35.53-.73-.03-1.07-.03h-5.23c-.5.22-.8.04-.69-.52.09-.44.32-.71.69-.78.03-.09.08-.22.08-.32,0-.23-.02-.5.19-.69.11-.1.29-.13.44-.04.16-.92,1.1-1.58,1.33-2.52.23-.98.56-2.38,1.56-2.73.07-.28.03-.58.08-.86-.06-.58-.24-1.14-.4-1.7l-.92-.64c-.17-.12-.5,0-.66-.23-.08-.12-.1-.28-.06-.43-.39-.25-.76-.54-1.21-.65-.21-.05-.49.03-.7-.2-.11-.11-.19-.26-.05-.43h-.24c-.24,0-.5-.02-.7-.24-.11-.12-.25-.25-.08-.42-.71-.16-1.21-.7-1.86-.98-.39-.17-1.13-.08-1.32-.6-.12-.33,0-.63.15-.71Z" fill="#fff"/>
    <g>
      <path d="M53.82,256.46v5.84h-1.97v-14.93h5.51c1.63,0,2.91.42,3.84,1.25s1.39,1.94,1.39,3.31c0,1.45-.45,2.57-1.36,3.35-.91.78-2.2,1.17-3.89,1.17h-3.52ZM53.82,254.85h3.54c1.05,0,1.86-.25,2.42-.74s.84-1.21.84-2.15c0-.89-.28-1.6-.84-2.14s-1.33-.81-2.31-.83h-3.65v5.87Z"/>
      <path d="M66.86,262.31h-1.9v-15.75h1.9v15.75Z"/>
      <path d="M76.75,262.31c-.11-.22-.2-.61-.27-1.17-.88.92-1.93,1.37-3.16,1.37-1.09,0-1.99-.31-2.69-.93-.7-.62-1.05-1.4-1.05-2.35,0-1.16.44-2.05,1.32-2.69.88-.64,2.11-.96,3.71-.96h1.85v-.87c0-.66-.2-1.19-.59-1.58-.4-.39-.98-.59-1.75-.59-.68,0-1.24.17-1.7.51-.46.34-.69.76-.69,1.24h-1.91c0-.55.2-1.09.59-1.6.39-.52.93-.92,1.6-1.23s1.41-.45,2.22-.45c1.28,0,2.28.32,3,.96.72.64,1.1,1.52,1.13,2.64v5.11c0,1.02.13,1.83.39,2.43v.16h-1.99ZM73.6,260.86c.59,0,1.16-.15,1.69-.46s.92-.71,1.16-1.2v-2.28h-1.49c-2.32,0-3.49.68-3.49,2.04,0,.59.2,1.06.59,1.39s.91.5,1.53.5Z"/>
      <path d="M83.12,251.21l.06,1.39c.85-1.07,1.96-1.6,3.32-1.6,2.34,0,3.53,1.32,3.55,3.97v7.33h-1.9v-7.34c0-.8-.19-1.39-.55-1.77-.36-.38-.92-.57-1.68-.57-.62,0-1.16.16-1.62.49s-.83.76-1.09,1.29v7.91h-1.9v-11.09h1.79Z"/>
      <path d="M95.48,248.52v2.69h2.07v1.47h-2.07v6.89c0,.44.09.78.28,1s.5.33.94.33c.22,0,.52-.04.9-.12v1.53c-.5.14-.98.2-1.46.2-.85,0-1.49-.26-1.92-.77-.43-.51-.65-1.24-.65-2.18v-6.88h-2.02v-1.47h2.02v-2.69h1.9Z"/>
      <path d="M106.62,262.31c-.11-.22-.2-.61-.27-1.17-.88.92-1.93,1.37-3.16,1.37-1.09,0-1.99-.31-2.69-.93-.7-.62-1.05-1.4-1.05-2.35,0-1.16.44-2.05,1.32-2.69.88-.64,2.11-.96,3.71-.96h1.85v-.87c0-.66-.2-1.19-.59-1.58-.4-.39-.98-.59-1.75-.59-.68,0-1.24.17-1.7.51-.46.34-.69.76-.69,1.24h-1.91c0-.55.2-1.09.59-1.6.39-.52.93-.92,1.6-1.23s1.41-.45,2.22-.45c1.28,0,2.28.32,3,.96.72.64,1.1,1.52,1.13,2.64v5.11c0,1.02.13,1.83.39,2.43v.16h-1.99ZM103.47,260.86c.59,0,1.16-.15,1.69-.46s.92-.71,1.16-1.2v-2.28h-1.49c-2.32,0-3.49.68-3.49,2.04,0,.59.2,1.06.59,1.39s.91.5,1.53.5Z"/>
      <path d="M116.55,252.91c-.29-.05-.6-.07-.93-.07-1.24,0-2.09.53-2.53,1.59v7.88h-1.9v-11.09h1.85l.03,1.28c.62-.99,1.5-1.49,2.65-1.49.37,0,.65.05.84.14v1.76Z"/>
      <path d="M130.35,261.21c-.74.87-1.82,1.3-3.25,1.3-1.18,0-2.08-.34-2.7-1.03-.62-.69-.93-1.7-.94-3.05v-7.22h1.9v7.17c0,1.68.68,2.52,2.05,2.52,1.45,0,2.41-.54,2.89-1.62v-8.07h1.9v11.09h-1.8l-.04-1.1Z"/>
      <path d="M136.86,251.21l.05,1.23c.81-.96,1.91-1.44,3.29-1.44,1.55,0,2.61.59,3.17,1.78.37-.53.85-.96,1.44-1.29.59-.33,1.29-.49,2.1-.49,2.43,0,3.67,1.29,3.71,3.87v7.43h-1.9v-7.32c0-.79-.18-1.39-.54-1.78-.36-.39-.97-.59-1.83-.59-.7,0-1.29.21-1.75.63-.46.42-.73.99-.81,1.7v7.36h-1.91v-7.27c0-1.61-.79-2.42-2.37-2.42-1.24,0-2.1.53-2.55,1.59v8.1h-1.9v-11.09h1.79Z"/>
      <path d="M160.33,262.31c-.11-.22-.2-.61-.27-1.17-.88.92-1.93,1.37-3.16,1.37-1.09,0-1.99-.31-2.69-.93-.7-.62-1.05-1.4-1.05-2.35,0-1.16.44-2.05,1.32-2.69.88-.64,2.11-.96,3.71-.96h1.85v-.87c0-.66-.2-1.19-.59-1.58-.4-.39-.98-.59-1.75-.59-.68,0-1.24.17-1.7.51-.46.34-.69.76-.69,1.24h-1.91c0-.55.2-1.09.59-1.6.39-.52.93-.92,1.6-1.23s1.41-.45,2.22-.45c1.28,0,2.28.32,3,.96.72.64,1.1,1.52,1.13,2.64v5.11c0,1.02.13,1.83.39,2.43v.16h-1.99ZM157.18,260.86c.59,0,1.16-.15,1.69-.46s.92-.71,1.16-1.2v-2.28h-1.49c-2.32,0-3.49.68-3.49,2.04,0,.59.2,1.06.59,1.39s.91.5,1.53.5Z"/>
      <path d="M85.71,287.51c-.11-.22-.2-.61-.27-1.17-.88.92-1.93,1.37-3.16,1.37-1.09,0-1.99-.31-2.69-.93-.7-.62-1.05-1.4-1.05-2.35,0-1.16.44-2.05,1.32-2.69.88-.64,2.11-.96,3.71-.96h1.85v-.87c0-.66-.2-1.19-.59-1.58-.4-.39-.98-.59-1.75-.59-.68,0-1.24.17-1.7.51-.46.34-.69.76-.69,1.24h-1.91c0-.55.2-1.09.59-1.6.39-.52.93-.92,1.6-1.23s1.41-.45,2.22-.45c1.28,0,2.28.32,3,.96.72.64,1.1,1.52,1.13,2.64v5.11c0,1.02.13,1.83.39,2.43v.16h-1.99ZM82.56,286.06c.59,0,1.16-.15,1.69-.46s.92-.71,1.16-1.2v-2.28h-1.49c-2.32,0-3.49.68-3.49,2.04,0,.59.2,1.06.59,1.39s.91.5,1.53.5ZM84.31,271.76h2.3l-2.75,3.01h-1.53s1.98-3.01,1.98-3.01Z"/>
      <path d="M95.64,278.11c-.29-.05-.6-.07-.93-.07-1.24,0-2.09.53-2.53,1.59v7.88h-1.9v-11.09h1.85l.03,1.28c.62-.99,1.5-1.49,2.65-1.49.37,0,.65.05.84.14v1.76Z"/>
      <path d="M101.23,284.93l2.75-8.52h1.94l-3.98,11.09h-1.45l-4.02-11.09h1.94l2.82,8.52Z"/>
      <path d="M107.09,281.86c0-1.09.21-2.06.64-2.93.43-.87,1.02-1.54,1.78-2.01.76-.47,1.63-.71,2.61-.71,1.51,0,2.73.52,3.67,1.57.93,1.04,1.4,2.44,1.4,4.17v.13c0,1.08-.21,2.05-.62,2.91-.41.86-1,1.53-1.77,2-.77.48-1.65.72-2.65.72-1.5,0-2.72-.52-3.66-1.57-.93-1.05-1.4-2.43-1.4-4.15v-.13ZM108.99,282.08c0,1.23.29,2.22.86,2.96s1.33,1.12,2.29,1.12,1.73-.38,2.3-1.13c.57-.75.85-1.81.85-3.17,0-1.22-.29-2.2-.87-2.96-.58-.75-1.34-1.13-2.3-1.13s-1.69.37-2.27,1.12-.86,1.81-.86,3.2Z"/>
      <path d="M124.93,278.11c-.29-.05-.6-.07-.93-.07-1.24,0-2.09.53-2.53,1.59v7.88h-1.9v-11.09h1.85l.03,1.28c.62-.99,1.5-1.49,2.65-1.49.37,0,.65.05.84.14v1.76Z"/>
      <path d="M131.08,287.71c-1.5,0-2.73-.49-3.67-1.48-.94-.99-1.42-2.31-1.42-3.96v-.35c0-1.1.21-2.08.63-2.95.42-.87,1.01-1.54,1.76-2.03.76-.49,1.57-.73,2.46-.73,1.44,0,2.56.48,3.36,1.42.8.95,1.2,2.31,1.2,4.08v.79h-7.52c.03,1.09.35,1.98.96,2.65.61.67,1.39,1.01,2.33,1.01.67,0,1.24-.14,1.7-.41.46-.27.87-.63,1.22-1.09l1.16.9c-.93,1.43-2.32,2.14-4.18,2.14ZM130.84,277.76c-.77,0-1.41.28-1.93.84-.52.56-.84,1.34-.96,2.34h5.56v-.14c-.05-.96-.31-1.71-.78-2.24-.46-.53-1.09-.79-1.89-.79Z"/>
    </g>
  </g>
</svg>