<?xml version="1.0" encoding="UTF-8"?>
<svg id="Layer_2" data-name="Layer 2" xmlns="http://www.w3.org/2000/svg" viewBox="0 0 199.05 301.79">
  <g id="Layer_1-2" data-name="Layer 1">
    <path d="M162.19,279.57c0,1.45-.52.35-3.51.38-.26-1.5-.79-10.03.03-10.46.59,3.19.17,6.56.13,9.95,1.14.56,2.28.17,3.36.13Z" fill="#eee"/>
    <path d="M149.91,279.32c.94.57,2.19.59,3.35.08-.05-2.94-.47-5.85.12-8.6.85,0,.21,8.04.08,9.22l-3.35-.05c-.22,0-.36-.29-.33-.41.01-.07.13-.14.13-.23Z" fill="#eee"/>
    <path d="M117.28,187.65c-.31.99-.38,2.02-.35,3.05-.29.19-.54-.08-.59-.27-.23-.85.29-3.27.94-2.78Z" fill="#31424b"/>
    <path d="M76.9,231.48c-.75-.04-1.53-.18-2.29-.09v-.33c.54-.47,2.78-.64,2.62.13-.03.13-.18.16-.33.29Z" fill="#eee"/>
    <path d="M143.38,279.3c-.27.95-1.65,1.29-2.37.63.68-.49,1.61-.31,2.37-.63Z" fill="#b3d6ea"/>
    <path d="M158.36,264.64h-1.71c-.2-.62.4-.69.86-.69s1.06.07.85.69Z" fill="#eee"/>
    <path d="M139.82,279.93c-.25.18-.51.4-.86.39-.37,0-.75-.24-.56-.66.46.02,1.13-.2,1.42.27Z" fill="#b3d6ea"/>
    <path d="M157.08,267.53c-.02.39-.53.41-.86.38-.19-.02-.59-.08-.53-.4.7-.29.72-.19,1.4.02Z" fill="#eee"/>
    <path d="M57.33,232.44c-.34-.22-.37-.64-.36-1.02.39-.09.78-.07.73.45-.02.18-.18.4-.37.56Z" fill="#b3d6ea"/>
    <path d="M56.1,231.35c-.36.03-.72,0-1.08,0-.19-.42.17-.64.54-.64s.73.23.54.64Z" fill="#b3d6ea"/>
    <path d="M74.61,231.06v.33c-.28.03-.59.56-.98.33.03-.55.72-.43.98-.65Z" fill="#181817"/>
    <path d="M124.45,279.61c-.07.09.08.36,0,.49-.09.17-.22.23-.42.11-.1-.06-.2-.2-.28-.32,0-.33.48-.21.69-.29Z" fill="#eee"/>
    <path d="M68.15,279.91c-.1.13-.28.4-.49.32-.24-.09-.18-.47-.26-.6.23.07.73-.06.75.28Z" fill="#eee"/>
    <path d="M159.64,264.98c-.19-.13-.52-.1-.7-.29-.07-.2.09-.35.22-.38.23-.06.42.02.48.17.07.17.07.34,0,.5Z" fill="#eee"/>
    <path d="M130.26,279.65c.12-.15.25-.29.39-.41.34.18.39.32.32.55-.03.12-.31.21-.46.18-.13-.02-.14-.16-.26-.31Z" fill="#b3d6ea"/>
    <path d="M137.23,279.56c-.22,0-.51.1-.67-.13-.08-.12-.03-.35-.08-.46.15,0,.3.02.46.08.2.07.53.25.29.52Z" fill="#b3d6ea"/>
    <path d="M135.24,277.99c-.17-.1-.56.07-.64-.2-.05-.19-.03-.36-.02-.51.16-.05.32-.02.44.08.2.16.26.41.21.64Z" fill="#b3d6ea"/>
    <path d="M89.88,230.47c-.23.26-.39-.3-.64-.33-.07-.2.08-.35.21-.38.24-.06.45.02.48.17.04.2-.01.39-.05.54Z" fill="#eee"/>
    <path d="M109.83,230.15c-.07.14-.18.25-.32.32-.39-.14-.44-.31-.38-.53.04-.13.25-.23.47-.18.12.03.11.22.23.39Z" fill="#eee"/>
    <path d="M54.15,231.37c-.07.17-.21.3-.36.4-.3.1-.43-.28-.35-.54.05-.15.25-.22.48-.17.12.03.32.09.24.31Z" fill="#b3d6ea"/>
    <path d="M73.64,231.72v.65h-.33c0-.1-.27-.13-.3-.26-.04-.19.05-.29.15-.33.16-.07.36-.04.47-.06Z" fill="#eee"/>
    <path d="M76.89,231.98v.71s-.32,0-.32,0c-.18-.1-.41-.34-.31-.49.14-.22.47-.42.64-.22Z" fill="#181817"/>
    <path d="M118.92,277.7c-.16-.01-.31-.03-.47-.09-.12-.05-.2-.19-.12-.34.07-.14.24-.21.33-.28.34,0,.2.5.26.72Z" fill="#eee"/>
    <path d="M109.5,53.05c-.18,1.38,1.27.86,1.57,1.86.07.22-.31.89-.56.83-2.38-.53-3.56,1.06-5.06,2.2-1.01.76-2.9.23-3.92,1.64-.54.74-1.89.24-2.71.09-.18,1.37-1.08,1.6-2.08,1.84-.54-.16-6.79-.74-7.77-.74-.31,0-5.95.26-4.95,1.12-.09-.02-.19.02-.28.02-.15,0-.31,0-.46.07-.22.09-.38.34-.23.58-.07.02-.17-.03-.24,0-.54.24-.67.83-.66,1.38,0,.29.03.58.06.87-.2.1-.25.27-.03.36l.14.96c-1.07.34,2.97,3.75,3.37,4.05.51.39.57,1.19,1.36,1.55.53.24,1.65,1.18,1.47,1.84-.26.92-1.72.46-2.3.56-.59.26-.45,1.08-.65,1.8l-3.61.16c-1.41.06-2.06-.25-3.48.2l-4.9,1.52c-.78.24-1.12,1.29-2.4,1.4.94,1.63,1.19,3.22.91,4.76,2.42,1.52-4.8,4.11-6.3,4.36-1.34.22-3.44.3-4.54-.24-3.41-1.68-2.47.25-7.45.17-2.22-.04-4.17-.2-6.1,1.13.14-2.18-4.44-1.25-4.83-1.12-.5.17.25,1.34.83,1.29l2.42-.18c.02,1.8,1.45,2.25,2.83,2.76.5.18.85.73,1.39.75.64.02.78-.8,1.31-1.12.9-.54,1.53-.99,1.98-2.11.52-.26,1.03.73,1.13,1.18.29,1.3-1.18,1.36-1.03,2.19.08.46,3.6,1.53,2.29,3.06-1,1.17-2.48,1.86-2.61,3.34-.09.04-.2.22-.28.29-1.68.23-3.24-.15-4.91-.54l-2.63-.61c-5.32-1.24-5.48-.8-10.97-.74,1.06-.01-3.56,1-2.05,1.23-.14.03-.3,0-.45.07-.21.1-.45.3-.25.55-.09.02-.22.04-.31.07-1.57.48-3.38,2.2-3.01,4.13.61,3.2,2.52,6.31,4.94,8.18.13.1.32.12.46.21.53,1.57,6.96,3.38,6.95,3.37.15.21.32.66.15,1-1.13,2.3-1.64,4.58-1.75,7.15-.14.62-1.09.8-1.27,1.33-.13.08-.36,0-.51.06-.14.05-.26.11-.39.22-.13.11-.23.23-.08.39l-.51.04c-.15.01-.27.12-.39.22-.14.11-.23.24-.08.39l-.55.05c-.15.01-.23.21-.34.29s-.19.25-.31.31c-.24.13-.44.32-.42.62l-.52.05c-.14.01-.29.1-.39.2-.11.11-.11.28-.05.42h-.24c-.31.02-.58.33-.66.65-.09-.01-.23,0-.33.02-.16.04-.22.3-.35.37-.96.48-.88,1.73-.33,2.54.26.38.67.69,1.32.69h8.47c.63,0,1.15-.23,1.62-.31h.28c.02.74.83,1.18,1.41,1.3l.33.07c.25.92,1.19,1.41,1.98,1.86.06.03.17.02.24.02.09.47.55.66,1,.66.08,0,.16.01.24,0-.14.17-.06.31.06.43.2.2.45.18.68.2.18.01.39.02.57.06-.15.27.13.53.37.32.05.07.02.2.06.28.19.85-.83,1.17-1.09,1.95-.04.11-.22.2-.3.29-.09.12-.25.19-.33.32-.09.02-.19-.01-.27.02-.32.12-.58.36-.7.69-.09,0-.19,0-.29.02-.13.01-.29.08-.35.18-.08.14-.07.3-.05.43-.08.02-.19-.03-.25,0-.14.09-.28.21-.36.35l-.34.61c-.14.06-.21.29-.34.33-.71.22-.95.99-1.57,1.33-.12.07-.29.23-.32.37-.06.19-.06.41-.09.61-.12.05-.16.27-.27.3-.41.13-.49.68-.66.94-.98-.22-1.86,4.26-1.88,5.01v.54c-.61.22-.31.96-.31,1.42v3.45c0,.99.36,1.44,1.01,2.23,1.08,1.28,2.13,1.57,3.84,1.47,1.85-.11,4,.04,5.25-1.34l.53-.04c.15-.01.32.04.5-.02.21-.07.45-.32.24-.57.09.01.19-.01.28-.02.43,0,.88-.2.97-.65.09,0,.19.01.27,0,.15-.02.27-.14.4-.22.16-.11.22-.23.06-.39.18-.03.37-.01.54-.05.34-.08.59-.34.71-.66.09,0,.2,0,.29-.02.14-.02.28-.11.37-.21.1-.12.11-.27.06-.41.08-.05.21-.16.25-.25.29,0,.55-.16.67-.42.09,0,.22.02.3-.01.14-.06.22-.21.32-.31s.2-.22.31-.31c.12-.1.25-.19.33-.34v-.25c.15.03.3-.02.43-.08.24-.11.13-.51.26-.64,2.67-2.69,4.53-5.98,6.52-9.66,7.5,2.03,17.92,1.76,25.41.21,6.2-1.28,11.81-3.84,17.27-7.33-.45,5.24-2.49,9.73-5.11,13.95l-5.37,8.63c-1.55,2.49-4.09,7.92-2.03,10.43,1.93,2.34,8.39-.35,10.95-1.88,2.29-1.36,4.76-2.8,6.69-4.54.75.5,1.51.64,2.66.71,1.93.11,3.94,2.51,3.26,4.41-.54,1.51-.28,2.12.6,3.4,0,1.13-1.23,2.92-.46,4.14.78-.27,1.26-.7,1.81-.61-.16.21.05.79-.3.95-.31.14-.23.37-.26.65l-.45,4.16c-.31.11-.24.52-.26.79l-.07,1.49c-.19.2-.27.46-.31.72-.31.23-.33.62-.33.98v.74c-.14.72-.8,1.27-1.41,1.66-2.68-.32-5.44.21-8.23-.29l-3.35-.59c-14.12-2.51-22.78-12.89-33.43-14.67-2.66-.45-5.55-.49-8.27-.06l-14.46,2.29c-3.76.6-11.9.23-15.97-.74-7.55-1.79-11.72-6.27-12.74-13.96-.46-3.45,0-6.84.84-10.23l2.12-8.59c2.96-11.99-8.39-21.98-10.59-36.67-1.46-9.74,2.87-18.96,11.28-23.88,13.15-7.7,19.84-1.93,31.84-8.95,9.61-5.62,17.89-19.93,32.87-21.78,3.16-.39,6.35-.23,9.59-.1,1.76.07,9.46,2.3,10.48,4.09ZM119.6,176.96c0-.2-.16-.36-.36-.36s-.36.16-.36.36.16.36.36.36.36-.16.36-.36Z" fill="#96d5e4"/>
    <path d="M172.35,68.4c.61.28,1.46.4,1.58,1.32-.82,1.07-1.99,1.43-3.33.98.08.7.36.95.46,1.19.07.18-.1.69-.45.69-2.77.02-3.55,2.04-4.29,1.69-.16-.08-.19-.54-.31-.78-.23-.47-.83-.64-1.26-.43-.22.11-.41.68-.12.93l.95.83c-1.18.07-2.33.55-3.4.29-.37-.25-.62-.87-1.09-.85s-3.36,2.57-2.2,4.64c.24.43,1.13.84.97,1.4l-.35,1.27c.62.05,1.3-.29,1.62.1.26.31.83,1.01.62,1.43-.48.94-1.72,1.05-2.57,1.58-.43.27-.34,1.03-.11,1.36.25.37,3.12,1.29,4.06,2.29.27.28.01,1,.34,1.18.3.17.96-.02,1.25.21,1.5,1.17-1.36,3.95.06,4.21,1.53.29,1.69-1.76,2.65-2.1l2.62-.93c.75,1.07,1.55,1.48,2.67,1.94.66.27,1.19,1.22,1.9,1.58.61.31.07,1.49.38,1.93,1.36,1.98,3.8,2.62,5.94,1.69.26.77.32,1.26.56,1.71-.33.47-.14,1.23-.44,1.82-.89,1.73-1.81,3.31-2.5,4.98-.03.08-.02.21-.02.3-.85-.49-.7,2.11-1.94,3.27-1.33.23-1.12,2.46-1.84,2.61-.66.14-.23-1.25-1.45-1.82-.97-.45-3.34,2.45-6.55-.09-1.97-1.56.48-2.38-.76-3.4-1.1-.91-2.34,1.4-4.85-2.12-.67-.93-1.87-1.95-2.41-2.93-.47-.03-1.15.2-1.39,0-1-.88.13-1.73-.1-3.04-.02-.1.01-.21.03-.3.21.07.37-.1.39-.3.01-.11,0-.22,0-.33l.79-.35c.28-.13.21-.46-.14-.62v-.98c1.7.86-.56-4.81-.73-5.42-.61-.3-.82-.84-1.25-1.1-.27-.16-.7-.11-.95-.34-.23-.49-.74-.63-1-1.01-.82-1.23-2.15-2.47-3.59-2.58l-.29-.02c-2.85-2.2-6.9-2.89-10.63-2.42-2.2.28-3.96,1.53-6,2.24-.87.3-1.82.54-1.72,1.51-.08.04-.19.06-.28.07-.88.1-1.4.88-2.17,1.29-.14.08-.25.23-.37.34-.08.08-.13.2-.26.22-.5-.53-1.17.27-1.7.41-.51-.62-1.25-1.6-1.66-2.35-.69-1.24,1.02-2.26,1.11-3.13-.1-.8-.7-1.26-.17-1.95.47-.62,1.48-.08,1.85-.41,1.39-1.21,2.81-1.49,4.26-2.11,1.06-.45,1.42-.26,2.54-.35l9.32-.77c.66-.05,1.32.07,1.73-.38.79-.86.18-1.84,1.68-2.02.62-.07,2.78,2.21,8.91-.64.34-.16.96.05,1-.43.05-.61-1.23-1.45-.87-2.1.29-.5,1.46,1.02,3.55-3.18.43-.61,1.54-.48,2.15-.72l.21,1.73c.04.34.97.22,1.06-.03.42-1.18-.69-2.04-.05-2.37.21-.11.78-.06.91.15.71,1.18,1.69.92,2.77,1.2,1.78.46,3.62.1,4.62-1.39ZM159.35,73.67c-.02-.49-.73-.49-.75,0-.04.88.79.88.75,0Z" fill="#93d5e4"/>
    <path d="M178.57,106.57c.69-1.67,1.61-3.26,2.5-4.98.31-.6.12-1.35.44-1.82.43-.62.6-1.51.93-2.26-.74-1.13-2.14-.68-3.07-1.23-1.53-.92-3.23-1.84-4.6-2.91-.93-.73-1.27-1.59-2.49-2.1-1.33-.56-2.44-1.54-4.17-1.36-.46.05-.95-.45-1.15-.71-.65-.83.75-2.82-.15-2.78-1.13.05-2.06-.46-2.5-1.33-.88-1.78,2.57-5.01,5.46-4.38.61.13.81-1.04,1.14-1.3.83-.67,1.81.26,2.77.05.5-.11.4-1.32.06-1.59-.87-.71-1.66-.92-2.86-1.15,1.02-1.65.55-3.58,2.16-4.54.45-.27,1.05.37,1.58.2.61-.2.24-1.09.29-1.72.04-.49-.52-.76-.98-.93-.13-.92-.97-1.04-1.58-1.32l-2.23-1.02c-1.28-.58-2.02-1.47-3.5-1.81s-3.26-1.36-4.86-.85c-.02,1,.98,1.06,1.91.73l-.58,2.61c-1.47.32-2.83.68-4.2,1.3-.55.25-.7,1.31-1.45,1.51-1.25.33-2.28-.72-3.36-.92-1-.19-1.93,1.55-2.67,1.82-.9-.33-1.72-.41-2.66.04-1.32.63-1.4,1.42-1.88,2.58-.35.84-1.65,1.26-1.55,2.65.02.33-.89.19-1.16.17-.72-.06-.19-1.3-1.09-1.87-.29-.18-1,.12-1.16.44-.87,1.72-2.04,1.99-3.76,2.14-1.45.12-2.74.65-4.23.5-.98-.1-2.14.96-3.15.38-.91-.51-1.76-.61-2.72.08-.49-.55.09-1.48-.04-1.94-.78-.68-1.49-.92-1.71-1.8-.26-1.02-.36-1.7.31-2.64,1.83-2.58-2.84-2.98-1.89-4.79,1.51.26,2.92.46,4.17,1.16.73.41.58,1.56,1.46,1.94,1.16-.17,2.57-2.67,1.47-3.36-1.29-.81-3.54-.42-4.09-1.99,1.83.38,3.6,1.27,5.59,1.56,4.13.59,8.03-.3,12.05-1.43,10.18-2.87,21.07-3.75,29.61,3.54,7.06,6.02,10.7,15.2,9.11,24.47-.48,2.79-3.39,11.67-5.5,12.98ZM162.6,66.8c0-.2-.16-.36-.36-.36s-.36.16-.36.36.16.36.36.36.36-.16.36-.36ZM134.27,71.01c1.02.12,1.03-.72.97-1.08-.07-.44-.33-1.13-1.08-.86-.67.24-.76,1.85.1,1.95ZM142.13,74.54c.41.1.27-.97.09-1.25-.14-.23-.85-.5-1.08-.14-.2.33.41,1.25.99,1.39Z" fill="#99d7e7"/>
    <path d="M157.26,99.35c.23,1.31-.9,2.16.1,3.04.24.21.92-.02,1.39,0,.54.97,1.74,1.99,2.41,2.93,2.52,3.53,3.75,1.21,4.85,2.12,1.24,1.03-1.21,1.84.76,3.4,3.21,2.54,5.58-.36,6.55.09,1.23.57.79,1.95,1.45,1.82.72-.15.51-2.38,1.84-2.61.23,1.3-.96,2.36-1.15,3.59l-.95,6.04c-.04.29.03.57.15.66.13.11.44.14.59.11l.05.66c-.48.1-.35.74-.4,1.17-.04.37.05,1.06.65.87l.02.53c-1.08.45,1.36,4.35.44,3.99-1.48-1.92-1.13-3.35-3.04-5.15-.82-.77-.88-1.84-1.77-2.48-.38-.27-.91-.3-1.23-.63-.26-.28-.04-.78.02-1.22-2-1.92-5.46,1.17-5.48,1.55-.05.93-.21,1.75.35,2.37.76,0,1.28-.48,1.92-.04-.52.63-1.3,1.28-1.02,2.07.1.29.51.52.46.76-.06.28-.29.49-.57.53-.91.1-.58-1.67-1.59-1.67-.31,0-1.08.37-1.45.26-.64-1-1.17-2.45-2.81-2.56-.62-1.56-.15-6.43-1.03-6.84s-1.86-.27-2.57-1.14l-.34,1.94c-.92-.67-1.61-.23-2.44-.24-1.54-.01-4.9-2.79-6.57-2.69-2.54.16-4.4.36-6.06-.82-1.13-.81-6.42.12-8.55.34-1.85.19-4.5,2.56-4.48,2.84.03.37.09,1.32.53,1.51,1.11.5,1.54,1.41,2.35,2.19.59.57,1.91.43,1.83,1.74-.05.84.88.84,1.26,1.3,4.13,4.96,1.13,3.02,3.3,6.29l-.97,2.06c1.2,1.14.3,2.02-.05,3.13-.39,1.21.59,3.08-.74,4.14-.6.48-1.05.86-1.05,1.92-.85.9-1.14-2.63-2.49-2.22-.75.23-1.2.87-2.27.04l.05,2.6c1.52.24,2.51,1.14,3.47,2.1.88.87,1.05,1.24.71,2.59s1,4.7.43,5.59c-.11.17-5.48,2.4-6.16,2.52-1.04.18-2.05-.79-3.19-.5-.86.22-1.96,1.29-2.58,1.63-.07-.43.09-.79.4-1.25,7.34-10.67,8.36-21.51-.48-31.69.9-4.91,3.01-3.95,4.63-6.49l.28-.03c.15-.02.31-.02.49-.08.21-.08.4-.31.25-.57.07,0,.18.02.24,0,.66-.28,1.36-.61,1.66-1.29.09-.01.19,0,.29-.01.43-.04.96-.16,1.05-.65.17,0,.39.01.56-.03,5.83-1.35,10.16.52,17.87-3.68.44-.24.92-.35.83-.85.1.02.22-.07.32-.08.78-.08,1.09-.83,1.57-1.28l.96-.91c.74-.69,1.56-1.31,1.94-2.29.13-.34.29-.63.4-.98.75-.23,1.23-.9,1.27-1.68.17-.03.33-.35.55-.35Z" fill="#96d5e4"/>
    <path d="M123.86,63.82c1.43.11,2.66,1.39,3.85,1.63.56,1.58,2.81,1.18,4.09,1.99,1.1.69-.31,3.18-1.47,3.36-.88-.38-.73-1.53-1.46-1.94-1.25-.7-2.66-.9-4.17-1.16-.94,1.81,3.72,2.22,1.89,4.79-.67.94-.57,1.63-.31,2.64.22.88.93,1.12,1.71,1.8.13.47-.45,1.39.04,1.94.96-.7,1.81-.6,2.72-.08,1.01.57,2.17-.48,3.15-.38,1.49.15,2.78-.38,4.23-.5,1.73-.15,2.89-.42,3.76-2.14.16-.32.88-.62,1.16-.44.91.58.38,1.81,1.09,1.87.26.02,1.18.17,1.16-.17-.1-1.39,1.2-1.82,1.55-2.65.48-1.16.56-1.95,1.88-2.58.95-.45,1.76-.37,2.66-.04.74-.28,1.66-2.02,2.67-1.82,1.07.21,2.11,1.26,3.36.92.75-.2.9-1.26,1.45-1.51,1.37-.62,2.73-.98,4.2-1.3l.58-2.61c-.93.33-1.93.26-1.91-.73,1.6-.51,3.37.5,4.86.85s2.22,1.23,3.5,1.81l2.23,1.02c-1,1.49-2.84,1.86-4.62,1.39-1.08-.28-2.05-.02-2.77-1.2-.13-.21-.7-.26-.91-.15-.64.33.47,1.19.05,2.37-.09.25-1.02.37-1.06.03l-.21-1.73c-.61.25-1.72.12-2.15.72-2.09,4.2-3.27,2.68-3.55,3.18-.37.64.92,1.49.87,2.1-.04.48-.66.27-1,.43-6.13,2.85-8.29.56-8.91.64-1.5.18-.89,1.16-1.68,2.02-.41.45-1.08.33-1.73.38l-9.32.77c-1.12.09-1.48-.1-2.54.35-1.45.62-2.87.89-4.26,2.11-.37.33-1.37-.22-1.85.41-.53.7.07,1.15.17,1.95-.09.87-1.8,1.88-1.11,3.13.41.75,1.15,1.72,1.66,2.35.53-.15,1.2-.95,1.7-.41l-.17.69c-.34.21-.62.53-.96.72-1.33.73-3.13,3.04-5.35,2.81-.74-2.09-2.27-3.4-4.31-4.25-.16-.98.3-1.76.24-2.57-.01-.18.02-.36.01-.54.58-.57.6-1.82,0-2.38v-.54c-.02-.68.33-1.63-.33-2.05v-.55c-.03-1.69-2.08-8.11-3.84-8.53v-.28c-.02-.63-.59-1.02-1.07-1.37-.08-.01-.18.03-.25,0,0-.19-.14-.33-.32-.33l-.33-.61c-.08-.15-.23-.35-.37-.35h-.29c-.07-.26-.05-.72-.31-.89.67-1.12,2.1-.84,3.14-1.46,1.3-.77,2.45-1.71,3.7-2.55,1.02-.69,1.94-1.98,3.41-1.43.76.28,1.39,1.03,2.16,1.08Z" fill="#96d5e4"/>
    <path d="M174.37,175.09c-.02-.16-.13-.31-.13-.47v-.54c.32-.22.48-.7.54-1.2.53-4.11,1.46-7.94,2.78-11.84.2-.59,2.54-8.48,1-7.84,0-.1.02-.24-.02-.33-.07-.16-.26-.23-.37-.34-.1-.1-.21-.2-.3-.3-.12-.12-.2-.27-.34-.38-.09-.02-.21.03-.3-.01-.05-.17-.23-.19-.34-.29-.17-.15-.36-.3-.6-.34-.11-.34-.42-.56-.76-.66-.08-.02-.19,0-.28,0-.09-.48-.57-.65-1.02-.65-.09,0-.19-.02-.28,0,.02-1.16-3.95-.57-3.98.67l-.25.25c-.71.08-.93.78-1,1.41-.01.09-.02.26-.08.33-.85.26-.84,1.37-1.48,1.88-.03.08-.07.23-.08.32-.17-.14-.31-.07-.43.06-.18.2-.21.45-.21.67v.25c-.73-.03-.88.79-.98,1.38-.01.08,0,.17-.01.25-.79-.06-.76.83-.95,1.39-.26.76-.9,1.38-1.02,2.19-.79-.07-.72.86-.94,1.39-.35.84-1.03,1.57-1.03,2.52-.17-.16-.28-.06-.42.06-.18.17-.34.38-.2.61l-1.86-1.25c.04-.15.02-.32-.08-.42-.18-.18-.43-.22-.65-.24-.1-.1-.21-.19-.32-.28s-.19-.32-.34-.36c-.17-.05-.39-.02-.57-.05.17-.18.06-.3-.07-.41-.21-.17-.45-.2-.67-.21h-.25c.12-.18.06-.33-.06-.44-.21-.19-.46-.16-.68-.2l-.54-.08c.17-.18.02-.3-.09-.38-.25-.18-.49-.17-.7-.18l-.85-.06c.23-.3-.12-.5-.3-.55-.3-.08-.57,0-.8,0l-.53-.02c-.12-.43-.72-.29-1.07-.31l-.58-.03-.09-4.95c0-.39.03-.79.03-1.18.51-.54.35-1.32.35-2.02v-.65h.33c.49,1.53.25,3.11.24,4.98,1.8,0,2.98-1.13,4.25-2.14.48-.38,1.4.33,1.89,0,1.19-.78,2.27-1.09,3.57-1.45l2.49-.7c1.23-.35,2.11-.69,3.32.21,2.11,1.58,1.58-2.41,4.85-3.4.86-.26,2.45-.29,3.17.22,1.81,1.27,7.43,4.15,9.53,2.97.78-3.83-2.07-8.73-2.15-10.68-.04-1.04-4.83-12.4-5.66-13.47.92.35-1.52-3.54-.44-3.99,1.8,6.67,4.42,10.76,7.08,17.69,4.45,11.58,2.98,24.28-6.64,32.62-.56.49-.91,1.09-1.64,1Z" fill="#99d7e7"/>
    <path d="M123.86,63.82c-.77-.06-1.4-.8-2.16-1.08-1.47-.54-2.39.75-3.41,1.43-1.25.84-2.4,1.78-3.7,2.55-1.04.62-2.47.34-3.14,1.46-.29-.2-.72-.21-1.02-.39-.06-.04-.17.01-.23-.03-.88-1.28-2.53-2.44-4.02-2.58l-.55-.05c.86-.68-8.44-3.49-8.88-3.62,1-.25,1.9-.47,2.08-1.84.82.16,2.17.65,2.71-.09,1.03-1.41,2.91-.87,3.92-1.64,1.5-1.14,2.68-2.73,5.06-2.2.24.05.63-.61.56-.83-.31-1-1.76-.48-1.57-1.86.95.31,1.83.91,2.72,1.61l9.95,7.87c.6.48,1.67.48,1.69,1.3Z" fill="#99d7e7"/>
    <path d="M178.55,106.88c0,1.16-3.75,8.01-3.3,13.68-.15.03-.46,0-.59-.11-.12-.09-.19-.37-.15-.66l.95-6.04c.19-1.23,1.38-2.29,1.15-3.59,1.24-1.17,1.09-3.76,1.94-3.27Z" fill="#99d7e7"/>
    <path d="M175.55,123.24c-.59.19-.68-.5-.65-.87.04-.43-.08-1.07.4-1.17.47.57.23,1.34.25,2.04Z" fill="#99d7e7"/>
    <path d="M176.01,127.77c.83,1.08,5.62,12.43,5.66,13.47.08,1.95,2.92,6.85,2.15,10.68-2.11,1.18-7.73-1.7-9.53-2.97-.72-.51-2.31-.48-3.17-.22-3.27.99-2.74,4.98-4.85,3.4-1.21-.9-2.09-.56-3.32-.21l-2.49.7c-1.29.36-2.38.67-3.57,1.45-.49.32-1.42-.38-1.89,0-1.28,1.01-2.45,2.14-4.25,2.14.02-1.87.25-3.45-.24-4.98-.27-.84.12-1.96.4-2.86l1.54-4.94c.46-1.48-.31-2.48-1.28-3.31-.4-.34-.58-1.1-1.36-1.26-.83-.17-1.34-1.16-2.08-1.39-1.39-.43-3.08.41-3.97,1.38-.68.74-3.95,6.25-4.58,6.49-.56.22-3.47-1.58-4.02-.21-.51,1.26.78,2.51,1.26,3.49.57,1.18-1.71,2.22-.85,3.83l-.05.73c-1.73,2.53-3.03,5.4-4.3,8.33-2.2,5.07-5.92,5.77-7.81,9.56-.09.07-.19.27-.29.32-.37.21-.58.56-.65.98-.16.07-.26.21-.34.36-.4.79-.68,1.63-1.25,2.31-.55-.09-1.03.34-1.81.61-.77-1.22.46-3.01.46-4.14-.89-1.28-1.14-1.89-.6-3.4.68-1.91-1.33-4.3-3.26-4.41-1.14-.07-1.91-.21-2.66-.71,1.65-1.49,8.56-9.1,9.17-9.43s1.72-1.41,2.58-1.63c1.14-.29,2.15.68,3.19.5.68-.12,6.04-2.34,6.16-2.52.57-.88-.76-4.29-.43-5.59s.17-1.71-.71-2.59c-.97-.96-1.95-1.86-3.47-2.1l-.05-2.6c1.07.83,1.52.19,2.27-.04,1.35-.41,1.64,3.12,2.49,2.22,0-1.06.45-1.44,1.05-1.92,1.33-1.06.35-2.94.74-4.14.36-1.1,1.26-1.99.05-3.13l.97-2.06c-2.17-3.28.83-1.33-3.3-6.29-.38-.46-1.31-.46-1.26-1.3.08-1.31-1.24-1.17-1.83-1.74-.81-.78-1.25-1.7-2.35-2.19-.44-.2-.5-1.15-.53-1.51-.02-.28,2.63-2.65,4.48-2.84,2.13-.22,7.41-1.15,8.55-.34,1.66,1.19,3.53.98,6.06.82,1.67-.1,5.03,2.68,6.57,2.69.83,0,1.51-.44,2.44.24l.34-1.94c.72.87,1.72.74,2.57,1.14s.41,5.28,1.03,6.84c1.64.11,2.17,1.56,2.81,2.56.36.12,1.14-.25,1.45-.26,1.02,0,.69,1.77,1.59,1.67.28-.03.51-.25.57-.53.05-.24-.36-.47-.46-.76-.27-.78.5-1.43,1.02-2.07-.64-.44-1.16.04-1.92.04-.56-.62-.4-1.44-.35-2.37.02-.38,3.47-3.47,5.48-1.55-.06.44-.28.95-.02,1.22.32.33.85.36,1.23.63.89.64.95,1.71,1.77,2.48,1.91,1.8,1.56,3.23,3.04,5.15ZM138.13,137.57c-.23-.41-.94-.45-1.24-.61.25.69.17,1.14.44,1.21.42.12,1.06-.13.8-.6Z" fill="#93d5e4"/>
    <path d="M83.37,66.89c.55,1.28,1.64,2.14,2.78,3.09,3.83,3.2,7.41,6.49,10.6,10.17-.04.57.49.86.97,1.02.07.31.19.73.37.98-.04.35-.51.47-.97.45-4.92-.25-9.68-.09-14.32.84-.38.01-2.49-.3-2.04.6-.18.02-.38.04-.56.04l-1.16-.02c-.3,0-.65.17-.5.67-.11,0-.22-.02-.33,0-.3.06-.69-.09-.98,0l-.74-.02c-.12,0-.42.23-.02.32-.2.09-.15.2,0,.31-.07,0-.14,0-.21.02-4.04.95-8.1,2.75-11.43,5.23-.09.02-.19-.02-.28,0-.75.14-1.52.55-1.74,1.32-.04.1-.19.16-.25.26-.59.1-1.37.29-1.38.99-.08,0-.26.05-.33.09-1.66,1.05-3.53,2.22-4.59,3.89-.06.1-.16.19-.24.27-.1.11-.24.18-.31.31-.07.02-.15,0-.22,0-.78.47-1.2,1.38-2.07,1.71.13-1.48,1.61-2.18,2.61-3.34,1.31-1.53-2.21-2.6-2.29-3.06-.14-.84,1.32-.89,1.03-2.19-.1-.45-.61-1.44-1.13-1.18-.46,1.12-1.08,1.57-1.98,2.11-.53.32-.67,1.14-1.31,1.12-.54-.02-.89-.57-1.39-.75-1.38-.51-2.81-.97-2.83-2.76l-2.42.18c-.58.04-1.33-1.12-.83-1.29.39-.13,4.97-1.06,4.83,1.12,1.93-1.33,3.87-1.17,6.1-1.13,4.98.08,4.04-1.85,7.45-.17,1.1.54,3.2.45,4.54.24,1.49-.24,8.72-2.84,6.3-4.36.27-1.54.02-3.14-.91-4.76,1.28-.11,1.61-1.16,2.4-1.4l4.9-1.52c1.43-.44,2.08-.13,3.48-.2l3.61-.16c.2-.72.06-1.54.65-1.8.58-.11,2.04.36,2.3-.56.18-.65-.94-1.59-1.47-1.84-.79-.36-.84-1.17-1.36-1.55-.39-.3-4.44-3.71-3.37-4.05.29.34.62.63,1.04.78Z" fill="#99d7e7"/>
    <circle cx="119.24" cy="176.96" r=".36" fill="#93d5e4"/>
    <path d="M119.24,184.78h-.33c0-.36.02-.74.33-.98v.98Z" fill="#93d5e4"/>
    <path d="M120.33,176.64c.03-.28-.05-.51.26-.65.02.25-.01.53-.26.65Z" fill="#93d5e4"/>
    <path d="M82.18,65.16c-.23-.09-.17-.26.03-.36l-.03.36Z" fill="#99d7e7"/>
    <path d="M181.51,99.77c-.23-.45-.3-.94-.56-1.71-2.14.92-4.58.29-5.94-1.69-.31-.45.22-1.63-.38-1.93-.71-.36-1.25-1.31-1.9-1.58-1.12-.46-1.92-.86-2.67-1.94l-2.62.93c-.96.34-1.12,2.39-2.65,2.1-1.42-.26,1.44-3.04-.06-4.21-.29-.23-.95-.04-1.25-.21-.33-.18-.07-.9-.34-1.18-.94-1-3.81-1.92-4.06-2.29-.23-.34-.31-1.09.11-1.36.84-.53,2.08-.64,2.57-1.58.22-.42-.36-1.12-.62-1.43-.32-.39-1-.05-1.62-.1l.35-1.27c.15-.56-.73-.97-.97-1.4-1.15-2.07,1.75-4.62,2.2-4.64s.71.6,1.09.85c1.07.26,2.22-.23,3.4-.29l-.95-.83c-.29-.26-.1-.83.12-.93.43-.21,1.03-.03,1.26.43.12.24.15.7.31.78.74.35,1.52-1.67,4.29-1.69.34,0,.52-.51.45-.69-.1-.24-.38-.49-.46-1.19,1.34.45,2.5.08,3.33-.98.46.17,1.02.44.98.93-.05.62.32,1.52-.29,1.72-.53.17-1.13-.47-1.58-.2-1.61.96-1.15,2.89-2.16,4.54,1.2.23,1.99.45,2.86,1.15.34.27.44,1.48-.06,1.59-.97.21-1.94-.73-2.77-.05-.33.27-.53,1.44-1.14,1.3-2.89-.63-6.34,2.61-5.46,4.38.43.87,1.37,1.38,2.5,1.33.9-.04-.49,1.95.15,2.78.2.25.69.75,1.15.71,1.73-.18,2.85.8,4.17,1.36,1.22.51,1.56,1.38,2.49,2.1,1.37,1.07,3.06,1.98,4.6,2.91.93.56,2.34.11,3.07,1.23-.33.75-.5,1.64-.93,2.26Z" fill="#96d5e4"/>
    <path d="M158.33,96.46c0-1.49.02-3.43-1.26-4.3-.05-.16-.05-.37-.05-.54,0-.65-.57-1.06-.68-1.68.43.26.65.81,1.25,1.1.16.61,2.42,6.28.73,5.42Z" fill="#96d5e4"/>
    <path d="M158.33,97.44c.34.16.42.5.14.62l-.79.35v-.65c0-.11,0-.22,0-.33h.65Z" fill="#96d5e4"/>
    <path d="M159.35,73.67c.04.88-.79.88-.75,0,.02-.49.73-.49.75,0Z" fill="#96d5e4"/>
    <path d="M134.27,71.01c-.86-.1-.78-1.71-.1-1.95.75-.26,1.01.43,1.08.86.06.37.05,1.2-.97,1.08Z" fill="#96d5e4"/>
    <path d="M142.13,74.54c-.58-.14-1.19-1.06-.99-1.39.22-.36.93-.09,1.08.14.18.29.32,1.35-.09,1.25Z" fill="#96d5e4"/>
    <circle cx="162.24" cy="66.8" r=".36" fill="#96d5e4"/>
    <path d="M151.18,140.11l-.7.03-.61-.29c.1-.2-.21-.31-.36-.34-.17-.03-.36-.04-.53-.03.27-1.39-4.81-1.35-4.36,0-.64.18-1.15.98-1.31,1.57-.25-.04-.45.09-.63.19-.34.19-.11.75-.27.92-.43.44-.53.98-.72,1.54-.77.22-1.23.9-1.27,1.68-.02.21-.26.39-.3.6-.43-.02-.63.35-.87.77l-1.44,2.52c-.03.07,0,.19,0,.27-.17-.12-.32-.06-.43.06-.2.2-.18.46-.2.68l-.05.59-1.54,1.59c-.86-1.6,1.42-2.65.85-3.83-.47-.98-1.76-2.23-1.26-3.49.55-1.37,3.46.42,4.02.21.64-.25,3.9-5.76,4.58-6.49.9-.97,2.58-1.81,3.97-1.38.74.23,1.26,1.22,2.08,1.39.78.16.96.92,1.36,1.26Z" fill="#96d5e4"/>
    <path d="M150.18,151.87c0,.7.16,1.47-.35,2.02-.42-.19-.27-.77-.33-1.2s.05-.98.68-.81Z" fill="#31424b"/>
    <path d="M138.13,137.57c.26.47-.37.72-.8.6-.27-.07-.19-.52-.44-1.21.3.16,1.01.21,1.24.61Z" fill="#96d5e4"/>
    <path d="M77.22,84.73c-.23.11-.45.37-.76.3-.41-.09-.11-.32.02-.32l.74.02Z" fill="#93d5e4"/>
    <path d="M53.15,99.73c-.69,1.98-8.21-1.19-12.08-1.33-.19,0-.48-.04-.65.01-.98-.56-2.61-.56-3.58,0h-.65c-1.23,0-2.38.42-3.58.65-1.51-.23,3.11-1.24,2.05-1.23,5.49-.07,5.65-.5,10.97.74l2.63.61c1.68.39,3.23.77,4.91.54Z" fill="#99d7e7"/>
    <path d="M157.29,99.04l.06-.3h.33c-.02.2-.18.37-.39.3Z" fill="#96d5e4"/>
    <path d="M129.36,89.01c.12-.11.23-.27.37-.34-.03.19-.16.38-.37.34Z" fill="#96d5e4"/>
    <path d="M149.81,155.07l.09,4.95c-.13,0-.55.07-.63-.08.02-.51-.46-5.87.54-4.87Z" fill="#31424b"/>
    <path d="M82.79,83.45c-.66.13-1.34.52-2.04.6-.45-.9,1.66-.59,2.04-.6Z" fill="#93d5e4"/>
    <path d="M148.97,139.48c.17-.01.36,0,.53.03.08.15.21.26.36.34l.61.29c-.05.54.73.57,1.01,1.02,1.68,2.68-2.7,8.05-1.3,10.07v.65c-.63-.17-.74.37-.68.81s-.09,1.01.33,1.2c0,.39-.03.79-.03,1.18-1-1.01-.52,4.36-.54,4.87.08.16.5.08.63.08l.58.03c-.1.3.3.46.58.56.17.06.36-.1.49-.25l.53.02c-.2.29.1.52.28.58.32.1.58-.04.82-.02l.85.06c-.2.24.06.52.27.59.19.06.37-.05.52-.03l.54.08c-.15.24.02.52.23.6.18.07.36.02.51.02h.25c-.18.25,0,.54.23.64.18.07.36-.03.52,0,.18.03.39,0,.57.05.08.15.2.26.34.36.11.09.22.19.32.28-.05.24,0,.51.22.6.18.07.39-.01.51.06l1.86,1.25c.2.13.6.16.68-.12.05-.19-.05-.41-.05-.55,0-.95.68-1.68,1.03-2.52.36.06.63-.15.76-.42.16-.33.14-.65.18-.97.12-.81.76-1.42,1.02-2.19.75.06.94-.76.95-1.39,0-.08,0-.17.01-.25.76.08.94-.75.97-1.38v-.25c.25.17.52-.01.61-.23.07-.17.03-.34.04-.5,0-.09.05-.23.08-.32.74-.36.99-1.24,1.48-1.88.06-.07.07-.24.08-.33.77.08.95-.78,1-1.41l.25-.25c2.94-1.73,2.29-.39,3.98-.67.09-.02.19,0,.28,0-.19.25.06.53.27.63.24.11.51.05.75.03.08,0,.2-.02.28,0-.2.25.08.48.28.58.16.08.33.06.48.08.24.03.43.18.6.34.1.11.2.23.34.29.09.04.21-.01.3.01l.34.38c.1.1.2.21.3.3l.37.34c.04.09.02.23.02.33-.29,6.64-4.1,12.28-4.3,20.89v.54c-.17-.16-.38-.07-.45.18l-2.05,7.31c-.98,3.51-2.1,6.77-2.72,10.35-.42,2.45-1.25,4.68-2.47,6.63-.07.11-.1.27-.15.4-.36.21-.62.53-.85.87-.93,1.41-2.4,2.34-3.41,3.68-2.17.93-.47,2.7-2.81,5.75-.18.1-.45.05-.64.13-4.46.27-5.28-1.23-9.18-2.97-.09,0-.18.01-.26,0,.1-.62-.56-.71-1.04-.98-3.24-1.81-6.56-2.85-10.22-3.15-2.31-.19-4.33-1.26-6.31-1.96l-.44-.16c-.59-.73-1.41-1.29-2.21-1.77-.13-.08-.29-.1-.42-.19-.28-.49-.68-.92-1.2-1.15-.13-.06-.28-.11-.42-.16-.15-.41-.51-.67-.91-.82-.11-.04-.25-.02-.35-.07.09-.37-.19-.55-.57-.75l-6-3.18c-.06-.03-.17,0-.24,0,.21-.24-.07-.46-.26-.58-.15-.09-.34-.01-.48-.08l-.59-.32c.05-.24-.01-.5-.23-.65-.13-.09-.3-.11-.45-.05v-.24c-.04-1.03.03-2.06.34-3.05.05-.16.13-.32.22-.47.62-.39,1.27-.93,1.42-1.66.15-.08.47-.07.6-.29.1-.19-.16-.34-.28-.45v-.98c.13-.08.48-.04.6-.24.14-.24-.29-.34-.29-.49l.07-1.49c.2.19.46,0,.59-.26.09-.18-.23-.39-.33-.54l.45-4.16c.25-.12.28-.4.26-.65.35-.16.14-.74.3-.95.57-.67.85-1.52,1.25-2.31.14-.07.31-.2.34-.36.07-.42.28-.77.65-.98.19,0,.36-.1.29-.32,1.88-3.78,5.6-4.48,7.81-9.56,1.27-2.93,2.57-5.8,4.3-8.33.52-.76,1.49-1.26,1.58-2.32l.05-.59c.25.17.51-.02.59-.24.06-.18.04-.35.04-.5,0-.08-.03-.2,0-.27.13.77,2.29-3.18,2.31-3.29.04-.21.29-.39.3-.6.8,0,1.04-1,1.27-1.68.19-.56.29-1.1.72-1.54.61-.04.76-.6.9-1.11.16-.59.67-1.39,1.31-1.57s1.26-.52,2.02-.65c.92-.16,1.56.71,2.34.65ZM121.15,183.1c-.19-.18-.47,0-.6.24-.08.16.23.4.34.54-.24,2.01-1.64,3.77-2.97,5.59,1.08,1.58,2.76,2.67,4.55,3.45,6.36,2.75,6.95,5.68,12.02,7.88.2.7,1.13,1.1,1.73.66h.54c-.2.25.03.5.28.59.28.1.62-.05.82-.28l1.18.03c-.22.45.3.6.58.62.45.04.86-.05,1.16-.32h.54c-.2.35.12.53.3.59.4.12.83-.04,1.13-.03.39.02.8,0,1.18.09,0,.83,1.1.81,1.75.89,1.39.18,2.52,1.13,3.8,1.69-.14.17-.04.33.05.43.22.24.5.21.73.21.31,0,.57.27.85.33-.06.75.77.94,1.39.95.17,0,.35.02.52.04-.01.75.81.93,1.44.92.41,0,.83.07,1.24,0,.63.61,1.67.6,2.59.2,1.92-.85.22-3.67,2.85-5.8,2.38-1.93,4.52-4.27,5.63-7.01.18-.04.46-.04.6-.25.12-.19-.19-.37-.25-.5.12-.56.34-1.25.35-1.84.21.18.45,0,.6-.24.12-.21-.34-.36-.35-.53l.08-1.5c.2.18.45,0,.6-.25.11-.19-.32-.36-.35-.52,0-.37.06-.81.07-1.19.19.19.49,0,.6-.24.07-.15-.14-.41-.3-.53.02-.18,0-.36.02-.53.2.17.45.02.6-.24.09-.16-.23-.37-.3-.53.14-.78.55-1.65.64-2.46.62.49,1.22-2.31,1.23-2.77.02-.73.27-1.41.4-2.12.17.16.33.04.46-.07.27-.24.08-.53.08-.76,0-.49.08-.98.12-1.46.19.2.5,0,.64-.24.09-.15-.18-.44-.34-.55l.03-.5c.19.2.51-.02.63-.26.08-.16-.18-.41-.34-.54l.07-.85c.22.18.44,0,.6-.24.14-.21-.31-.37-.31-.54,0-.35.03-.86,0-1.21.14-.14.29-.41.33-.62.09-.12.53,0,.59-.27.05-.2-.14-.4-.31-.5l.06-.87c.14.12.28.06.46-.04.15-.08.22-.28.11-.4l-.31-.31.08-1.19c.19.17.49.01.6-.24.08-.16-.19-.43-.34-.55l.02-.49c.2.18.47,0,.64-.28.1-.17-.27-.37-.34-.53.05-.8.54-1.69.68-2.49.16.17.33.07.46-.05.26-.22.11-.5.12-.74,0-.39.03-.79.08-1.17.18.21.48.03.64-.23.09-.15-.22-.39-.32-.55.21-1.36.96-2.71.98-4.11.13.15.28.08.48-.05.12-.08.23-.2.11-.41-.06-.1-.21-.21-.3-.31.13-.79.07-1.6-.34-2.28s-.85-1.01-1.57-1.28c-.65-.24-1.17-.93-1.91-.96-.06-.34-.2-.64-.53-.68-.64-.06-.99.1-.81.71.02.06.02.17,0,.24-.65-.19-.67.65-.85,1.17l-3.04,9.03c-.52,1.53-1.26,2.84-1.62,4.26s-1.98,2.81-3.57,2.51c-1.13-.21-1.93-1.06-2.65-1.6-.07-.17-.05-.51-.25-.59-.26-.11-.5-.11-.73-.1-.09-.11-.23-.18-.31-.29-.51-.74-3.92-3.37-4.65-3.21-1.74-.57-3.56-1.34-5.42-.97-.23.05-.73-.11-.76.24-.72,0-1.63.13-2.4-.16s-.72-1.18-1.04-1.65c-.01-.78.02-1.56-.05-2.34-.02-.2-.02-.42,0-.63.2.18.46.02.59-.25.08-.16-.21-.37-.29-.53.35-1.22.67-2.69,1.24-3.85,1.03-2.14,2.32-4.17,2.99-6.47.24.21.51-.05.59-.26.06-.18.02-.36,0-.51-.08-.92,1.05-1.76.74-2.85-.33-1.18-1.87-1.68-2.87-1.73-.32-.48-.92-.69-1.48-.5-.38.13-.9.47-1.2.95l-6.58,10.37c-2.42,3.82-4.27,7.68-6.17,11.77-2.79,5.98-9.94,5.75-11.08,19.8ZM148.54,150.67c0-.42-3.73,6.98-2.51,9.37.08.51,1.71.5,2.04.1.25-1.41.04-3.19.19-4.63.23.17.5-.03.61-.23.21-.36-.28-.62-.38-.84l.32-3.75c.09-.13.36-.18.39-.3.06-.19-.02-.44-.18-.48-.24-.06-.49.02-.49.17v.6ZM169.13,154.19l-.33.3c-.06.06-.24.13-.37.35l-5.81,10.4c-.28.5-.02,1.12.21,1.45,1.66,2.35,4.62-5.66,4.94-6.97.19-.03.49-.04.6-.25.1-.2-.2-.39-.29-.51l1.34-4.54c.3-.12.54-.39.48-1.01-.02-.2-.35,0-.47.07-.23.15-.23.49-.31.71Z" fill="#30352c"/>
    <path d="M174.24,174.62c0,.16.11.31.13.47-.68,1.38-.79,2.97-1.35,4.56-1.37,3.93-2.9,7.8-3.38,11.99-.33,2.82-.94,5.69-3.07,7.46,1.22-1.95,2.05-4.18,2.47-6.63.61-3.57,1.73-6.84,2.72-10.35l2.05-7.31c.07-.24.28-.34.44-.18Z" fill="#31424b"/>
    <path d="M149.27,206.96c-1.82-.24-3.85-2.79-11.01-3.43-2.46-.22-4.97-.99-6.56-2.66,1.98.7,3.99,1.78,6.31,1.96,3.66.3,6.98,1.35,10.22,3.15.48.27,1.15.36,1.04.98Z" fill="#31424b"/>
    <path d="M158.72,209.93c.18,2.38-9.6-2.22-9.18-2.97,3.9,1.74,4.72,3.24,9.18,2.97Z" fill="#31424b"/>
    <path d="M125.76,196.55l-5.76-3.15c-.41-.22-.97-.28-.8-.78l6,3.18c.38.2.66.37.57.75Z" fill="#31424b"/>
    <path d="M162.17,204.05c-1.6,1.8-.3,4.37-2.81,5.75,2.34-3.05.64-4.82,2.81-5.75Z" fill="#31424b"/>
    <path d="M131.27,200.71c-.89-.32-1.89-.81-2.21-1.77.8.48,1.62,1.04,2.21,1.77Z" fill="#31424b"/>
    <path d="M128.64,198.75c-.47-.32-1.07-.56-1.2-1.15.52.23.92.66,1.2,1.15Z" fill="#31424b"/>
    <path d="M166.42,199.49c-.15.41-.37.83-.85.87.23-.35.48-.66.85-.87Z" fill="#31424b"/>
    <path d="M127.02,197.44c-.41-.14-.83-.36-.91-.82.4.16.76.41.91.82Z" fill="#31424b"/>
    <path d="M117.63,191.64c-.18-.1-.51.01-.62-.22-.08-.16-.07-.34-.07-.48.16-.06.33-.04.45.05.22.15.29.41.23.65Z" fill="#31424b"/>
    <path d="M118.96,192.62c-.24.02-.5,0-.69-.23-.11-.12-.21-.27-.05-.44.13.07.33,0,.48.08.19.12.47.34.26.58Z" fill="#31424b"/>
    <path d="M119.62,181.59c.01-.27-.05-.69.26-.79.09.15.42.36.33.54-.13.26-.38.45-.59.26Z" fill="#31424b"/>
    <path d="M119.24,183.81c.04-.27.12-.53.31-.72,0,.15.42.25.29.49-.11.2-.46.16-.6.24Z" fill="#31424b"/>
    <path d="M118.92,185.53v-.74s.32,0,.32,0c.11.11.38.26.28.45-.12.23-.45.21-.6.29Z" fill="#31424b"/>
    <path d="M147.67,140.7l-5.04,9.12-6.12,15.34c-.57,1.43-1.23,2.57-2.01,3.86-1.92,3.19-3.24.25-4.37,3.13,3.32,0,3.7,2.45,5.92,1.08,1.18-.74,2.82-.78,3.9-1.55,1.25-.9,2.21-2,3.59-2.77s.88-2.65,1.18-3.94c1-4.35-3.71-3.58-1.51-9.28.61-1.58,1.4-2.76,3.03-3.16-.56,1.16-.88,2.63-1.24,3.85-.34.02-.27.52-.3.77-.02.2-.01.42,0,.63-.25-.03-.7-.07-.67.15.07.66.29,1.57.72,2.19.32.48.24,1.35,1.04,1.65s1.68.15,2.4.16c.1.1.21.25.31.31.17.1.31.05.4-.1.11-.17.19-.3.05-.44,1.86-.37,3.68.4,5.42.97-.32.6,2.14,1.38,3.23,2.27.5.41.82.99,1.42.94.08.11.22.18.31.29.1.46.5.76.97.7.72.54,1.52,1.39,2.65,1.6,1.6.3,3.2-1.04,3.57-2.51.3.06.59-.18.75-.58,1.88-4.61,3.52-9.19,4.75-13.88.02-.06.02-.17,0-.24l1.34-.04c.74.03,1.26.72,1.91.96.08.23.19.46.34.65l-3.48,13.46-.73,3.96c-.16.85.65,1.65,1.26,1.86.04.36,0,.87,0,1.21-.34.03-.27.53-.29.78l-.07.85c-.32.1-.28.52-.3.8l-.03.5c-.29.14-.28.51-.3.79-.04.49-.12.97-.12,1.46-.29-.22-.41.17-.46.33-.06.18-.05.37-.07.5-.12.72-.38,1.39-.4,2.12-.42-.81-1.21,2.64-1.23,2.77-.09.81-.51,1.68-.64,2.46-.35.02-.26.52-.3.77-.03.17,0,.36-.02.53-.33.02-.29.53-.3.77-.02.38-.08.82-.07,1.19-.31.05-.23.53-.24.77l-.08,1.5c-.31.06-.25.53-.25.78-.02.59-.24,1.28-.35,1.84-.31.11-.32.47-.35.75-1.11,2.74-3.25,5.08-5.63,7.01-2.63,2.14-.94,4.96-2.85,5.8-.92.41-1.96.41-2.59-.2.4-.43,1.13-.39,1.59-1.13-.1-1.45-.96-3.99.05-5.22,1.98-.98,3.39-2.23,4.73-3.84,2.31-2.78,3.61-5.67,3.58-9.35-.03-2.77,2.11-5.38,2.2-7.96l.07-2.11c.01-.31-.51-.55-.75-.6-.51-.11-3.29,2-2.61,1.33-1.93,1.9-2.32.26-5.17,2.94-.69.56-.36,1.73-.74,2.57-1.25.58-1.97,1.69-2.82,2.67-1.08,1.24-3.39.62-4.39,1.58-4.15,3.98-.94-.22-5.05,3.68-.75.72-1.9.65-2.54,1.08-1.38.92-2.55,1.94-4.15,2.67-.44.2-.19,1.73-1.15,1.77-1.16.05-2.51.58-3.02,1.65-.07.14.3.52.25.64-.1.27-.37.18-.61.17l-.71.06c-5.07-2.19-5.66-5.12-12.02-7.88-1.79-.77-3.47-1.87-4.55-3.45,1.33-1.82,2.73-3.58,2.97-5.59.32-.07.24-.52.26-.78,1.14-14.05,8.29-13.83,11.08-19.8,1.91-4.09,3.75-7.95,6.17-11.77l6.58-10.37c.3-.47.82-.82,1.2-.95.56-.19,1.16.02,1.48.5ZM129.95,183.86c.4-.02.36-.53.39-.87s-.22-.75-.63-.55c.15-.34-.1-.83,0-1.19.15.14.27.07.44-.05.14-.1.22-.28.1-.4l-.31-.31c0-.39.05-.82.08-1.21.19.15.47.03.62-.22.1-.17-.3-.39-.35-.55.06-1.23,1.65-2.55.49-3.06-.48-.21-.84.1-1.04.57-3.01,6.86.69,14.07,1.96,13.61.9-.33-1.08-1.97-1.75-5.77Z" fill="#bbdaec"/>
    <path d="M155.72,208.2c-.41.07-.83,0-1.24,0,.03-.73-.85-.85-1.44-.92-.17-.02-.35-.04-.52-.04.04-.74-.81-.83-1.39-.95-.28-.06-.54-.33-.85-.33.17-.26-.14-.44-.31-.55-.15-.1-.35-.04-.48-.1-1.28-.55-2.41-1.5-3.8-1.69-.01-.79-1.13-.76-1.75-.89-.38-.08-.79-.07-1.18-.09.23-.46-.34-.59-.59-.6-.29-.01-.61.06-.85.06h-.54c-.34-.6-1.17-.3-1.74-.32l-1.18-.03c-.12-.45-.74-.29-1.1-.3h-.54s-1.01-.73-1.01-.73c.24.01.51.09.61-.17.04-.12-.32-.5-.25-.64.51-1.06,1.86-1.6,3.02-1.65.95-.04.71-1.57,1.15-1.77,1.6-.73,2.76-1.76,4.15-2.67.64-.43,1.79-.36,2.54-1.08,4.11-3.9.9.3,5.05-3.68,1-.96,3.31-.34,4.39-1.58.85-.97,1.57-2.08,2.82-2.67.37-.84.04-2.01.74-2.57,2.85-2.69,3.24-1.05,5.17-2.94-.68.66,2.11-1.44,2.61-1.33.23.05.76.29.75.6l-.07,2.11c-.08,2.58-2.22,5.2-2.2,7.96.03,3.68-1.26,6.57-3.58,9.35-1.35,1.62-2.75,2.86-4.73,3.84-1.02,1.23-.16,3.77-.05,5.22-.46.74-1.2.7-1.59,1.13ZM145.63,195.5c0,.33,0,.7.18.98.22.34.69.17,1.13.32,7.93,2.58,13.88-3.86,13.66-4.98-.09-.43-.68-.51-1.33-.55-.04-.42-.04-.95-.7-1.32-2.44,2.95-5.74,4.85-9.59,4.58-1.48-.1-2.89-.55-4.3-.1.19.59.59.73.96,1.07Z" fill="#b3d6ea"/>
    <path d="M149.8,145.28c-.27-.23-.44.1-.52.28-.07.17-.03.35-.07.48-.67,2.3-1.96,4.33-2.99,6.47-1.63.4-2.43,1.58-3.03,3.16-2.2,5.7,2.51,4.93,1.51,9.28-.3,1.29.13,3.22-1.18,3.94-1.38.76-2.34,1.87-3.59,2.77-1.08.78-2.71.82-3.9,1.55-2.21,1.37-2.59-1.08-5.92-1.08,1.13-2.88,2.45.06,4.37-3.13.78-1.29,1.44-2.43,2.01-3.86l6.12-15.34,5.04-9.12c1,.04,2.54.55,2.87,1.73.31,1.09-.81,1.93-.74,2.85Z" fill="#b3d6ea"/>
    <path d="M176.84,153.44c.4.68.47,1.49.34,2.28-.3.04-.28.52-.28.76-.02,1.4-.77,2.74-.98,4.11-.32.03-.29.53-.32.77-.05.39-.07.78-.08,1.17-.28-.25-.44.1-.51.3-.06.18-.04.34-.07.49-.14.8-.63,1.69-.68,2.49-.33.08-.28.54-.29.81l-.02.49c-.31.12-.25.51-.26.78l-.08,1.19c-.33.04-.24.52-.26.76l-.06.87c-.34.04-.21.52-.29.76-.03.2-.19.48-.33.62-.61-.21-1.42-1.01-1.26-1.86l.73-3.96,3.48-13.46c.45.11.86.35,1.23.62Z" fill="#eee"/>
    <path d="M169.42,154.42l-1.34,4.54c-.25.17-.29.48-.3.76-.31,1.31-3.28,9.32-4.94,6.97-.23-.33-.49-.95-.21-1.45l5.81-10.4c.14-.1.26-.22.37-.35l.33-.3.29.23Z" fill="#93d5e4"/>
    <path d="M148.82,150.69l-.32,3.75c-.42.15-.2.73-.23,1.07-.15,1.44.06,3.22-.19,4.63-.33.4-1.96.41-2.04-.1-1.22-2.38,2.51-9.79,2.51-9.37l.27.02Z" fill="#96d5e4"/>
    <path d="M174.25,174.08c.2-8.61,4.01-14.25,4.3-20.89,1.54-.63-.8,7.26-1,7.84-1.32,3.9-2.24,7.73-2.78,11.84-.06.5-.22.98-.53,1.2Z" fill="#31424b"/>
    <path d="M172.02,151.49c-1.23,4.68-2.87,9.27-4.75,13.88-.16.4-.45.64-.75.58.36-1.43,1.1-2.73,1.62-4.26l3.04-9.03c.18-.53.19-1.37.85-1.17Z" fill="#31424b"/>
    <path d="M151.18,140.11c.96.83,1.74,1.83,1.28,3.31l-1.54,4.94c-.28.9-.67,2.02-.4,2.86h-.33c-1.4-2.01,2.98-7.39,1.3-10.07-.28-.44-1.05-.47-1.01-1.02l.7-.03Z" fill="#31424b"/>
    <path d="M173.96,149.89c-1.68.28-1.04-1.06-3.98.67.03-1.24,4-1.83,3.98-.67Z" fill="#31424b"/>
    <path d="M148.97,139.48c-.78.06-1.42-.81-2.34-.65-.76.13-1.41.48-2.02.65-.45-1.35,4.63-1.39,4.36,0Z" fill="#31424b"/>
    <path d="M144.69,157.76c.06.78.04,1.56.05,2.34-.43-.63-.65-1.53-.72-2.19-.02-.22.42-.18.67-.15Z" fill="#31424b"/>
    <path d="M170.64,181.45c-.01.46-.61,3.26-1.23,2.77.02-.13.8-3.58,1.23-2.77Z" fill="#31424b"/>
    <path d="M140.1,145.97c-.02.11-2.18,4.06-2.31,3.29l1.44-2.52c.24-.42.44-.8.87-.77Z" fill="#31424b"/>
    <path d="M176.84,153.44c-.38-.27-.78-.51-1.23-.62-.15-.2-.26-.42-.34-.65.72.26,1.17.6,1.57,1.28Z" fill="#31424b"/>
    <path d="M169.42,154.42l-.29-.23c.07-.22.08-.55.31-.71.11-.07.45-.27.47-.07.05.61-.19.89-.48,1.01Z" fill="#31424b"/>
    <path d="M140.79,202.09c-.3.27-.72.36-1.16.32-.28-.02-.8-.17-.58-.62.58.01,1.4-.29,1.74.3Z" fill="#31424b"/>
    <path d="M145.69,203.63c-.65-.09-1.76-.06-1.75-.89.63.13,1.74.1,1.75.89Z" fill="#31424b"/>
    <path d="M135.21,200.73l1.01.72c-.6.44-1.53.04-1.73-.66l.71-.06Z" fill="#31424b"/>
    <path d="M140.4,145.37c.05-.78.51-1.46,1.27-1.68-.24.68-.47,1.67-1.27,1.68Z" fill="#31424b"/>
    <path d="M159.01,165.87c-.6.05-.92-.53-1.42-.94-1.1-.89-3.55-1.68-3.23-2.27.73-.16,4.14,2.47,4.65,3.21Z" fill="#31424b"/>
    <path d="M165.46,157.35c0,.63-.2,1.45-.95,1.39.19-.56.16-1.45.95-1.39Z" fill="#31424b"/>
    <path d="M166.44,155.72c-.02.63-.21,1.47-.97,1.38.1-.59.25-1.41.97-1.38Z" fill="#31424b"/>
    <path d="M142.76,202.65c-.3-.01-.73.15-1.13.03-.18-.06-.5-.24-.3-.58.24,0,.56-.07.85-.06.25.01.82.14.59.6Z" fill="#31424b"/>
    <path d="M152.52,207.24c-.63,0-1.45-.2-1.39-.95.58.12,1.43.21,1.39.95Z" fill="#31424b"/>
    <path d="M154.49,208.2c-.63.01-1.45-.17-1.44-.92.59.07,1.47.19,1.44.92Z" fill="#31424b"/>
    <path d="M169.73,150.81c-.05.63-.23,1.5-1,1.41.07-.64.29-1.33,1-1.41Z" fill="#31424b"/>
    <path d="M163.49,160.93c-.05.31-.02.64-.18.97-.13.27-.4.47-.76.42.22-.53.15-1.46.94-1.39Z" fill="#31424b"/>
    <path d="M173.36,151.21l-1.34.04c-.18-.61.18-.78.81-.71.32.03.47.34.53.68Z" fill="#31424b"/>
    <path d="M168.65,152.55c-.49.64-.74,1.52-1.48,1.88.64-.51.63-1.62,1.48-1.88Z" fill="#31424b"/>
    <path d="M143.3,141.05c-.14.5-.29,1.07-.9,1.11.17-.17-.07-.73.27-.92.18-.1.38-.22.63-.19Z" fill="#31424b"/>
    <path d="M153.18,160.93c-.25-.02-.5.12-.82.02-.18-.05-.47-.29-.28-.58.23,0,.5-.08.8,0,.18.05.53.25.3.55Z" fill="#31424b"/>
    <path d="M137.86,201.76c-.21.23-.54.38-.82.28-.24-.09-.48-.34-.28-.58.36,0,.98-.15,1.1.3Z" fill="#31424b"/>
    <path d="M148.27,155.51c.03-.34-.19-.93.23-1.07.1.22.59.48.38.84-.11.2-.38.4-.61.23Z" fill="#31424b"/>
    <path d="M175.25,150.55c-.24.02-.51.09-.75-.03-.21-.1-.45-.38-.27-.63.45,0,.92.18,1.02.65Z" fill="#31424b"/>
    <path d="M160.29,166.86c-.47.06-.88-.23-.97-.7.22,0,.47,0,.73.1.2.09.18.42.25.59Z" fill="#31424b"/>
    <path d="M151.55,160.36c-.12.16-.32.31-.49.25-.28-.1-.68-.26-.58-.56.35.02.95-.12,1.07.31Z" fill="#31424b"/>
    <path d="M167.82,190.71c.01-.24-.07-.72.24-.77.04.16.46.33.35.52-.14.25-.39.43-.6.25Z" fill="#31424b"/>
    <path d="M148.94,161.69c.14.15.06.27-.05.44-.09.15-.24.2-.4.1-.1-.06-.21-.21-.31-.31.03-.35.52-.19.76-.24Z" fill="#96d5e4"/>
    <path d="M156.1,162.27c-.15,0-.33.04-.51-.02-.22-.08-.38-.36-.23-.6.22.03.47.01.68.2.12.11.18.26.06.43Z" fill="#31424b"/>
    <path d="M157.09,162.9c-.15-.02-.34.08-.52,0-.23-.09-.41-.39-.23-.63.22,0,.46.04.67.21.13.11.24.23.07.41Z" fill="#31424b"/>
    <path d="M175.6,161.37c.03-.25,0-.74.32-.77.09.16.41.4.32.55-.16.26-.46.43-.64.23Z" fill="#31424b"/>
    <path d="M175.52,162.54c0,.24.14.52-.12.74-.13.11-.3.21-.46.05.03-.15,0-.31.07-.49.07-.19.23-.55.51-.3Z" fill="#31424b"/>
    <path d="M167.77,159.73c.01-.28.05-.59.3-.76.09.12.39.31.29.51-.11.22-.41.23-.6.25Z" fill="#31424b"/>
    <path d="M159.05,164.25c-.11-.08-.33.01-.51-.06-.21-.09-.27-.36-.22-.6.22.02.47.06.65.24.1.1.11.27.08.42Z" fill="#31424b"/>
    <path d="M161.52,164.83c0,.14.11.37.05.55-.08.27-.48.25-.68.12-.14-.23.02-.44.2-.61.13-.12.25-.22.42-.06Z" fill="#31424b"/>
    <path d="M173.97,166.62c.01-.27-.04-.73.29-.81.08.16.44.36.34.53-.16.27-.43.46-.64.28Z" fill="#31424b"/>
    <path d="M173.68,167.9c.02-.27-.04-.66.26-.78.15.12.42.39.34.55-.12.25-.41.4-.6.24Z" fill="#31424b"/>
    <path d="M173.34,169.84c.02-.24-.07-.72.26-.76l.31.31c.12.12.04.33-.11.4-.18.1-.32.16-.46.04Z" fill="#31424b"/>
    <path d="M172.99,171.48c.07-.24-.05-.72.29-.76.17.09.36.3.31.5-.07.28-.5.15-.59.27Z" fill="#31424b"/>
    <path d="M172.37,174.09c.02-.25-.04-.75.29-.78,0,.17.45.33.31.54-.17.25-.39.42-.6.24Z" fill="#31424b"/>
    <path d="M172.01,175.74c.01-.27-.03-.7.3-.8.16.13.42.38.34.54-.13.25-.45.46-.63.26Z" fill="#31424b"/>
    <path d="M171.69,177.03c.02-.28,0-.65.3-.79.16.11.43.4.34.55-.14.24-.45.43-.64.24Z" fill="#31424b"/>
    <path d="M171.57,178.49c0,.23.19.52-.08.76-.12.11-.29.23-.46.07.02-.13,0-.32.07-.5.05-.16.18-.55.46-.33Z" fill="#31424b"/>
    <path d="M144.69,157.14c.03-.25-.04-.75.3-.77.09.15.38.37.29.53-.14.26-.39.43-.59.25Z" fill="#31424b"/>
    <path d="M121.15,183.1c-.02.25.06.71-.26.78-.1-.14-.42-.37-.34-.54.12-.25.41-.42.6-.24Z" fill="#31424b"/>
    <path d="M168.46,187.45c.04-.25-.05-.75.3-.77.07.16.39.36.3.53-.15.27-.4.41-.6.24Z" fill="#31424b"/>
    <path d="M168.14,188.75c.01-.25-.03-.75.3-.77.16.12.37.38.3.53-.11.23-.41.43-.6.24Z" fill="#31424b"/>
    <path d="M176.9,156.49c0-.24-.02-.72.28-.76.1.1.25.21.3.31.12.2.01.33-.11.41-.2.12-.34.19-.48.05Z" fill="#31424b"/>
    <path d="M167.49,192.99c0-.25-.06-.71.25-.78,0,.17.47.33.35.53-.15.25-.39.42-.6.24Z" fill="#31424b"/>
    <path d="M166.8,195.58c.03-.28.04-.64.35-.75.06.13.37.31.25.5-.13.21-.42.21-.6.25Z" fill="#31424b"/>
    <path d="M167.09,154.75c-.01.16.03.33-.04.5-.09.22-.36.4-.6.23,0-.23.03-.47.21-.67.11-.12.26-.19.43-.06Z" fill="#31424b"/>
    <path d="M150.28,205.96c-.24,0-.51.02-.73-.21-.1-.1-.2-.26-.05-.43.13.06.33,0,.48.1.17.11.48.28.31.55Z" fill="#31424b"/>
    <path d="M135.52,153.18l.05-.73,1.54-1.59c-.09,1.06-1.06,1.55-1.58,2.32Z" fill="#31424b"/>
    <path d="M154.83,161.56c-.15-.02-.33.09-.52.03-.21-.07-.47-.34-.27-.59.22.02.46,0,.7.18.11.08.26.2.09.38Z" fill="#31424b"/>
    <path d="M148.82,150.69l-.27-.02v-.6c0-.14.25-.23.49-.17.16.04.23.29.18.48-.04.12-.31.17-.39.3Z" fill="#31424b"/>
    <path d="M137.79,149.53c0,.15.02.32-.04.5-.08.22-.35.41-.59.24.02-.23,0-.48.2-.68.12-.12.26-.18.43-.06Z" fill="#31424b"/>
    <path d="M149.8,145.28c.01.15.06.33,0,.51-.07.21-.34.47-.59.26.04-.14,0-.32.07-.48.08-.19.25-.51.52-.28Z" fill="#31424b"/>
    <path d="M176.29,151.21c-.16-.02-.33,0-.48-.08-.19-.11-.48-.34-.28-.58.34.1.65.32.76.66Z" fill="#31424b"/>
    <path d="M177.23,151.84c-.14-.06-.24-.18-.34-.29.11.1.3.12.34.29Z" fill="#31424b"/>
    <path d="M122.14,172.73c.08-.15.18-.29.34-.36-.03.16-.2.29-.34.36Z" fill="#31424b"/>
    <path d="M123.13,171.39c.1-.06.19-.25.29-.32.07.22-.1.32-.29.32Z" fill="#31424b"/>
    <path d="M158,163.3c-.14-.09-.26-.21-.34-.36.15.04.23.26.34.36Z" fill="#31424b"/>
    <path d="M168.43,154.85c.13-.23.3-.3.37-.35-.11.13-.23.25-.37.35Z" fill="#31424b"/>
    <path d="M178.54,152.86l-.37-.34c.12.11.3.18.37.34Z" fill="#31424b"/>
    <path d="M177.87,152.22l-.34-.38c.13.11.22.25.34.38Z" fill="#31424b"/>
    <path d="M149.86,139.84c-.15-.07-.28-.19-.36-.34.15.02.46.13.36.34Z" fill="#31424b"/>
    <path d="M130.29,178.52c-.3.13-.26.5-.28.77-.02.4-.07.82-.08,1.21-.36.02-.16.52-.23.75-.1.35.15.85,0,1.19-.26.57.16.95.24,1.42.67,3.8,2.64,5.44,1.75,5.77-1.27.47-4.97-6.75-1.96-13.61.21-.47.56-.78,1.04-.57,1.16.51-.44,1.83-.49,3.06Z" fill="#6a8b49"/>
    <path d="M129.95,183.86c-.08-.47-.5-.84-.24-1.42.42-.2.67.22.63.55s0,.85-.39.87Z" fill="#99d7e7"/>
    <path d="M130.02,179.29c.02-.27-.02-.64.28-.77.04.16.45.38.35.55-.15.25-.43.38-.62.22Z" fill="#99d7e7"/>
    <path d="M129.71,181.26c.07-.23-.13-.73.23-.75l.31.31c.12.12.04.3-.1.4-.17.12-.29.18-.44.05Z" fill="#99d7e7"/>
    <path d="M145.63,195.5c1.51.17,3.02.37,4.54.34-.12.27.17.46.39.28.08-.07.18-.18.27-.29,3.32-.5,6.09-2.19,8.43-4.56.66.04,1.25.12,1.33.55.23,1.12-5.73,7.56-13.66,4.98-.44-.14-.91.03-1.13-.32-.18-.28-.18-.64-.18-.98Z" fill="#bbdaec"/>
    <path d="M159.26,191.26c-2.35,2.37-5.12,4.06-8.43,4.56l-.66.02c-1.53.04-3.03-.17-4.54-.34-.37-.34-.77-.47-.96-1.07,1.41-.45,2.82,0,4.3.1,3.85.27,7.15-1.63,9.59-4.58.67.37.67.89.7,1.32Z" fill="#6a8b49"/>
    <path d="M150.83,195.82c-.08.12-.18.22-.27.29-.22.19-.51,0-.39-.28l.66-.02Z" fill="#b3d6ea"/>
    <path d="M126.74,114.12c-1.63,2.53-3.73,1.58-4.63,6.49,8.84,10.17,7.82,21.02.48,31.69-.32.46-.47.82-.4,1.25-.62.34-7.53,7.95-9.17,9.43-1.92,1.74-4.4,3.18-6.69,4.54-2.57,1.53-9.03,4.22-10.95,1.88-2.06-2.51.48-7.94,2.03-10.43l5.37-8.63c2.62-4.22,4.66-8.71,5.11-13.95-5.47,3.49-11.08,6.04-17.27,7.33-7.49,1.55-17.91,1.81-25.41-.21-2,3.68-3.85,6.97-6.52,9.66-.24-.04-.55-.02-.63.21-.06.19-.07.36-.07.51v.25c-.19-.02-.31.16-.32.34-.11.1-.21.21-.31.31-.15.05-.47.05-.32.31-.08.03-.21.01-.3.01-.3,0-.54.16-.67.42-.04.08-.18.2-.25.25-.26.12-.5.31-.42.63-.09.01-.19.02-.29.02-.23,0-.49.01-.66.22-.1.12-.14.28-.04.44-.17.04-.37.02-.54.05-.15.02-.28.09-.4.19-.14.13-.21.27-.06.42-.09.01-.19,0-.27,0-.45-.03-.87.2-.97.65-.09,0-.19.03-.28.02-.23-.03-.48-.03-.68.16-.13.12-.21.26-.06.43l-.53.04c-1.99.13-5.56,2.27-8.71-.17-.68-.53-.79-2.69-1.4-2.18v-3.45c.41.22.63-.22.63-.57,0-.29-.09-.61-.33-.85v-.54c.3,1.31,1.61-4.64,1.89-5.01.18-.26.26-.82.66-.94.24.05.24-.14.27-.3.04-.2.04-.41.09-.61.17-.06.28-.2.32-.37.62-.34.87-1.11,1.57-1.33.13-.09.26-.19.34-.33l.34-.61c.17-.06.32-.17.36-.35.07-.04.18.01.25,0,.13-.03.26-.12.37-.21.13-.11.15-.25.03-.39.09-.01.19-.02.29-.02.22,0,.51,0,.65-.22.09-.13.07-.32.05-.47.08-.03.18,0,.27-.02.17-.03.31-.14.33-.32.08-.1.26-.18.3-.29.53-.31,1.85-1.04,1.61-1.71-.06-.16-.3-.21-.52-.24-.04-.08,0-.21-.06-.28-.09-.12-.22-.29-.37-.32-.18-.03-.39-.04-.57-.06.16-.24-.03-.52-.24-.6-.17-.07-.35-.04-.5-.02-.08,0-.16,0-.24,0,.19-.25-.03-.53-.24-.63-.24-.11-.51-.05-.75-.04-.07,0-.18.01-.24-.02-.31-.88-1.19-1.69-1.98-1.86l-.33-.07c-.14-.68-.71-1.25-1.41-1.29h-.28c-.42-.5-1.06-.36-1.63-.36.08-.31-.02-.58-.21-.62-.17-.03-2.9-.39-2.39.62-3.6.81-4.05.01-7.17-.03-.55-.81-.63-2.06.33-2.54l.35-.37c.09-.02.23-.03.33-.02.23.03.47,0,.62-.19.12-.16.19-.3.04-.45h.24c.26-.01.61-.32.44-.63l.52-.05c.14-.01.31-.06.39-.18.09-.13.08-.31.03-.44.12-.06.2-.23.31-.31.16-.03.47-.02.34-.29l.55-.05c.14-.01.27-.11.41-.21s.19-.24.06-.4l.51-.04c.14-.01.27-.11.41-.21.14-.1.19-.24.06-.4.15-.05.38.02.51-.06.39-.24.89-.29,1.31-.36,1.48,2.04.64,1.25.7,1.65.24-1.31-6.95,3.56-7.24,4.34.72.47,10.36.52,8.51-1.05.41.55.62.99.82,1.89.06.26,1.07,0,.87-.44-.1-.21.03-.53,0-.78l.38-.03h.26c.09.68.67,1.23,1.35,1.35.04.07-.03.2.01.27.07.12.19.29.34.33.37.09.62.45.95.6l1.66.73c-.17.54,4.23,2.93,4.8,3.24-.13.26,0,.54.23.62.27.1.53.04.76.01.09,0,.2,0,.29,0-.18.28.06.57.27.63.38.12.74.03,1.07.02h.27c.48.86,1.72,1.07,2.64,1.31.67.18,1.37-.04,2.09.57.52.44,1.31.46,1.86.66.2.07.44.07.64.07h.28c-.2.29.11.57.29.63.41.14.77.03,1.1.01.19-.01.39.02.58.03-.72,1.15,3.12.48,3.65.57.1.24.45.23.6.39.27.29.61.4,1.01.35.09-.01.19.05.28.05.01.22-.14,1.19.32,1.22l4.61.4c1.04.09,2.21.09,3.24.02l7.33-.48c1.36-.09,15.07-3.03,14.53-4.86.23-.08,3.81-1.8,4.18-2.61.02-.05.02-.12.05-.17.86.29,1.62-.47,2.5-.53.74-.05,1.49.34,2.01-.2.22.5.31.76.21,1.47-2.07,14.12-10.45,18.9-13.18,28.87-.26.94.03,1.8.8,2.22.64.35,1.55.58,2.15-.01.18.05.4-.03.58.04.43.16.7-.23,1.03-.32,7.34-2.13,15.67-10.24,20.18-16.67,2.81-4,4.64-8.52,5.48-13.37.78-4.47-1.67-10.9-4.52-13.99-.03-.65-.48-1.12-.92-1.57.61-.34.59-1.1.43-1.75-.31-1.24,1.8-4.34,1.88-4.41.24-.06.74,0,.86-.2.2-.34-.04-.7-.26-.88l.06-.58c.28.01.57-.02.85-.05.06.08.18.28.21.21.11-.24.14-.51.13-.6.1,0,.21-.01.3,0,.34.08.68.15,1.03.11ZM51.19,139.72c-6.25,4.61-9.28,8.39-8.81,16.64.27,4.68,12.82,2.09,19.88-11.68.23-.45,1.23-1.15.85-1.88-3.43-1.24-6.82-2.3-10.11-3.86-.79-.37-1.63.13-1.82.78Z" fill="#30352c"/>
    <path d="M105.62,65.12l.55.05c-.14.57.61.6,1.06.86l2.96,1.72c.06.04.17-.01.23.03.16.64.81,1.28,1.33,1.28h.29c.08.16.21.28.37.36l.33.61c.07.13.19.26.32.33.07.03.17-.01.25,0,.1.61.33,1.4,1.06,1.37v.28c1.54,2.47,2.68,5.1,3.26,8.13.06.29.34.61.57.4v.55c-.27.33-.31.76-.31,1.16s.05,1.08.64.89v.54c-.46.7-.46,1.68.02,2.38,0,.18-.02.36-.01.54-.99-.56.02,1.71-.87,2.04-.33-.05-.7-.29-.75-.64.65-7.4-1.98-14.96-8.31-19.41-4.87-3.42-10.68-5.05-16.38-5.75-1.39-.17-2.82-.5-4.29-.27-.19.03-.4-.02-.6,0-.24,0-.67-.1-.67.25-.11,0-.22.02-.33.01-.4-.04-.71.1-1.01.32-.15.11-.48.08-.65.16-.37.18-.18.7-.36.87-1.5,1.47,4.02,5.38,5.23,6.57l7.54,7.42c.42.41,2.99,4.02,2.66,4.45-.36.07-.73.1-1.1.11,0-.36-.36-.45-.58-.61-.19-.25-.3-.67-.37-.98-.11-.52-.37-1.02-.97-1.02-3.19-3.68-6.76-6.97-10.6-10.17-1.14-.95-2.23-1.81-2.78-3.09-.28-.66-.41-1.51-1.18-1.73l.03-.36c-.03-.29-.05-.58-.06-.87.43.2.6-.31.64-.56.04-.32.04-.56.02-.81.07-.03.16.02.24,0,.33-.09.6-.32.7-.65.09,0,.19-.03.28-.02.88.15,1.72-.5,2.72-.56,6.65-.42,12.7,3.22,18.88,3.8Z" fill="#30352c"/>
    <path d="M36.83,98.42c1.04.56,2.54.56,3.58,0,.17-.06.46-.02.65-.01,0,.15-.06.38.01.49.03.05,7.93,1.13,7.82,2.07-.05.48.36.44.3-.02.88-.05,1.76.02,2.64.07-.21.53-.81.76-1.05,1.26l-8.14-1.9c-3.52-.82-7.73-.69-10.83,1.51-.76.54-1.21,1.09-1.36,1.95s.62,1.39.81,2.1c1.31,4.95,6.71,7.76,11.4,8.21-.17.39-.64.7-1.03.92-.82.45-6.73-2.19-7.67-2.78-.14-.09-.33-.11-.46-.21-.59-1.02-1.37-1.93-2.16-2.97-.5-.66-.56-1.54-1.09-2.15-1.75-1.98-1.73-4.97.61-6.4.36-.22.65-.47.72-.79.09-.03.22-.05.31-.07l3.31-.62c.32-.06.77.02.95-.17.09-.1.02-.34.02-.48h.65Z" fill="#30352c"/>
    <path d="M41.63,115.05c.7,2.11-2.11,3.94-1.74,8.46.04.45-.34,1.01-.53,1.26-.43.07-.92.11-1.31.36.18-.52,1.13-.71,1.27-1.33.11-2.57.62-4.85,1.75-7.15.17-.34,0-.79-.15-1,0,.01-6.42-1.79-6.95-3.37.93.59,6.85,3.22,7.67,2.78Z" fill="#31424b"/>
    <path d="M96.74,61.51c.44.13,9.75,2.93,8.88,3.62-6.19-.58-12.24-4.22-18.88-3.8-1,.06-1.84.71-2.72.56-1-.86,4.64-1.12,4.95-1.12.97,0,7.22.59,7.77.74Z" fill="#31424b"/>
    <path d="M55.02,99.12c-.54.56-2.39,2.24-3.18,1.9-.88-.05-1.76-.13-2.64-.07l-.3.02c.11-.93-7.79-2.02-7.82-2.07-.07-.11-.02-.34-.01-.49,3.87.14,11.4,3.31,12.08,1.33.07-.07.18-.25.28-.29.87-.33,1.29-1.24,2.07-1.71-.19.45-.36.91-.47,1.39Z" fill="#31424b"/>
    <path d="M31.58,99.75c-.07.32-.36.57-.72.79-2.33,1.43-2.35,4.42-.61,6.4.53.6.59,1.48,1.09,2.15.79,1.04,1.57,1.96,2.16,2.97-2.42-1.87-4.34-4.98-4.94-8.18-.37-1.93,1.44-3.66,3.01-4.13Z" fill="#31424b"/>
    <path d="M38.78,131.99h2.61c.57,0,1.22-.14,1.63.35-.47.07-.99.31-1.62.31h-8.47c-.65,0-1.06-.3-1.32-.69,3.12.04,3.57.85,7.17.03Z" fill="#31424b"/>
    <path d="M50.57,159.04c-1.25,1.39-3.4,1.24-5.25,1.34-1.71.1-2.76-.18-3.84-1.47-.66-.78-1.02-1.24-1.02-2.23.61-.51.72,1.65,1.4,2.18,3.15,2.44,6.72.31,8.71.17Z" fill="#31424b"/>
    <path d="M42.66,146.27c-.28.37-1.6,6.32-1.88,5.01.02-.74.9-5.23,1.88-5.01Z" fill="#31424b"/>
    <path d="M36.18,98.42c0,.14.07.39-.02.48-.18.19-.63.11-.95.17l-3.31.62c-.19-.25.05-.45.25-.55.14-.07.31-.04.45-.07,1.2-.23,2.35-.65,3.58-.65Z" fill="#31424b"/>
    <path d="M47.02,135.56c-.79-.45-1.73-.94-1.98-1.86.79.17,1.68.98,1.98,1.86Z" fill="#31424b"/>
    <path d="M83.37,66.89c-.42-.14-.76-.44-1.04-.78l-.14-.96c.77.22.9,1.07,1.18,1.73Z" fill="#31424b"/>
    <path d="M49.16,139.48c.26-.78,1.28-1.1,1.09-1.95.22.02.46.08.52.24.24.67-1.08,1.4-1.61,1.71Z" fill="#31424b"/>
    <path d="M40.47,153.24c0-.46-.3-1.2.3-1.42.24.24.33.56.33.85,0,.35-.23.8-.63.57Z" fill="#31424b"/>
    <path d="M82.15,63.93c-.01-.54.12-1.14.66-1.38.02.25.02.5-.02.81-.03.25-.21.77-.64.56Z" fill="#31424b"/>
    <path d="M48.26,136.24c-.44,0-.9-.2-1-.66.24-.01.51-.08.75.04.22.1.43.38.24.63Z" fill="#31424b"/>
    <path d="M51.85,158.42c.2.25-.03.5-.24.57-.18.06-.35.01-.5.02-.14-.17-.06-.31.06-.43.2-.19.45-.19.68-.16Z" fill="#31424b"/>
    <path d="M53.1,157.75c-.1.45-.54.65-.97.65.11-.45.52-.68.97-.65Z" fill="#31424b"/>
    <path d="M58.68,153.16c-.13.13-.02.53-.26.64-.13.06-.28.11-.43.08,0-.15,0-.33.07-.51.08-.23.39-.25.63-.21Z" fill="#31424b"/>
    <path d="M49.24,136.88c-.23-.01-.48,0-.68-.2-.12-.12-.2-.26-.06-.43.15-.01.33-.04.5.02.21.08.4.36.24.6Z" fill="#31424b"/>
    <path d="M44.71,133.63c-.58-.12-1.38-.56-1.41-1.29.7.04,1.27.61,1.41,1.29Z" fill="#31424b"/>
    <path d="M47.56,140.8c.12-.32.38-.57.7-.69.03.14.04.34-.05.47-.14.21-.43.23-.65.22Z" fill="#31424b"/>
    <path d="M83.74,61.9c-.1.33-.36.57-.7.65-.15-.24.02-.49.23-.58.15-.07.32-.08.46-.07Z" fill="#31424b"/>
    <path d="M55.09,156.42c-.11.32-.37.58-.71.66-.09-.16-.06-.32.04-.44.18-.21.43-.23.66-.22Z" fill="#31424b"/>
    <path d="M32.62,129.03c.08-.33.35-.64.66-.64.15.15.07.29-.04.45-.15.2-.39.22-.62.19Z" fill="#31424b"/>
    <path d="M46.88,141.42c-.03-.13-.04-.29.05-.43.06-.1.23-.16.35-.18.12.14.09.28-.03.39-.11.1-.24.18-.37.21Z" fill="#31424b"/>
    <path d="M33.52,128.38c-.06-.14-.06-.31.05-.42s.25-.19.39-.2c.17.31-.18.62-.44.62Z" fill="#31424b"/>
    <path d="M56.72,155.11c-.12.26-.38.43-.67.42.13-.27.37-.42.67-.42Z" fill="#31424b"/>
    <path d="M55.37,156.41c-.08-.31.17-.51.42-.63.05.14.04.3-.06.41-.09.1-.23.19-.37.21Z" fill="#31424b"/>
    <path d="M34.49,127.71c-.03-.29.18-.49.42-.62.05.13.06.31-.03.44-.08.11-.25.17-.39.18Z" fill="#31424b"/>
    <path d="M37.07,125.79c-.15-.16-.06-.28.08-.39.13-.11.25-.17.39-.22.13.16.08.3-.06.4s-.26.2-.41.21Z" fill="#31424b"/>
    <path d="M36.1,126.44c-.15-.15-.06-.28.08-.39.12-.1.24-.21.39-.22.13.16.08.3-.06.4s-.26.2-.41.21Z" fill="#31424b"/>
    <path d="M53.38,157.75c-.15-.15-.08-.29.06-.42.12-.11.25-.17.4-.19.16.16.1.29-.06.39-.13.08-.25.2-.4.22Z" fill="#31424b"/>
    <path d="M50.19,137.25c-.25.21-.53-.04-.37-.32.15.03.29.2.37.32Z" fill="#31424b"/>
    <path d="M35.21,126.78c.11-.09.2-.28.34-.29.12.27-.18.26-.34.29Z" fill="#31424b"/>
    <path d="M57.02,155.1c-.15-.26.18-.26.32-.31-.1.1-.18.25-.32.31Z" fill="#31424b"/>
    <path d="M57.66,154.47c.02-.18.13-.36.33-.34-.08.14-.21.23-.33.34Z" fill="#31424b"/>
    <path d="M31.94,129.42c.14-.07.19-.33.35-.37l-.35.37Z" fill="#31424b"/>
    <path d="M43.33,145.33c.11-.03.15-.25.27-.3-.03.16-.03.35-.27.3Z" fill="#31424b"/>
    <path d="M43.69,144.41c.04-.14.2-.3.32-.37-.05.17-.16.31-.32.37Z" fill="#31424b"/>
    <path d="M45.59,142.72c.14-.04.2-.28.34-.33-.08.14-.21.25-.34.33Z" fill="#31424b"/>
    <path d="M46.26,141.78c.08-.14.22-.27.36-.35-.04.18-.19.3-.36.35Z" fill="#31424b"/>
    <path d="M48.53,140.09c.08-.13.23-.2.33-.32-.01.18-.16.29-.33.32Z" fill="#31424b"/>
    <path d="M150.52,85.98l.29.02c-.5.47,2.78,1.77,3.59,2.58.26.39.77.52,1,1.01.35.75.88,1.73,1.63,2.02,0,.17,0,.38.05.54.53,1.74.76,3.46.6,5.28,0,.11,0,.22,0,.33-.39.15-.26.64-.33.98l-.06.3c-.02.09-.05.21-.03.3-.21,0-.37.32-.55.35-.81.07-1.04.97-1.27,1.68-.11.35-.27.65-.4.98-.99.36-1.5,1.37-1.94,2.29l-.96.91c-.68.2-1.28.63-1.57,1.28-.1.01-.22.1-.32.08-.89-.15-1.42.71-2.22,1.04-5.85,2.45-9.69,2.16-16.07,2.89-.33.04-.61.34-.41.6-.17.04-.39.02-.56.03-.25,0-.51-.11-.79.02-.21.09-.44.37-.26.63-.09,0-.19,0-.29.01-.4.06-.82.15-1.17.25-.49.15-.59.6-.49,1.04-.06.03-.17,0-.24,0-.15,0-.33-.04-.5.03-.22.1-.43.38-.24.62l-.28.03c-.34.04-.69-.03-1.03-.11,1.11-1.68,3.08-2.71,4.91-3.52.15-.07.38-.09.37-.31.76,0,1.47-.31,2.22-.37.33-.03.94.14,1.03-.28,2.95.16,5.83-.3,8.74-.73.15-.02.51-.06.39-.28,1.26.05,2.3-.76,3.52-1,.33-.07.64-.29.71-.62.19-.05.41,0,.6-.03.13-.1.25-.22.35-.35.26-.15.46-.37.65-.59.1-.11.26-.17.35-.3.1-.02.2-.01.3-.01.31,0,.51-.16.67-.39.92-1.3,2.52-2.06,3.02-3.92-1.89.31-3.32,1.17-4.9,1.22l.27-1.07.58-.07c.11.15.33.32.49.23.22-.12.2-.43.27-.59l3.72-1.68c1.38-.62,2.46-1.28,2.5-2.93.06-2.41-.92-4.73-2.77-6.42-5.77-5.27-13.4-6.4-20.07-1.68-1.92,1.36-3.7,2.65-5.24,4.22-.32-.05-.51.14-.66.38-.38.59-1,.95-1.63,1.23-.16.07-.4.13-.38.35-.9.2-1.73.62-2.61.93-.33-.03-.65-.05-.98-.05l.11-1.51c1.98.5,4.99-1.75,5.74-3.23.34-.19.63-.51.96-.72,1.09-.68,2.37-1.4,2.97-2.54.09-.01.2-.03.28-.07,12.98-6.57,15.11-1.57,18.34-1.33Z" fill="#181817"/>
    <path d="M150.52,85.98c-3.23-.24-5.36-5.24-18.34,1.33-.1-.97.85-1.21,1.72-1.51,2.03-.71,3.8-1.96,6-2.24,3.72-.47,7.77.22,10.63,2.42Z" fill="#31424b"/>
    <path d="M158.33,96.46v.98h-.65c.15-1.81-.08-3.54-.6-5.28,1.27.87,1.26,2.81,1.26,4.3Z" fill="#31424b"/>
    <path d="M131.9,87.38c-.6,1.14-1.88,1.86-2.97,2.54l.17-.69c.13-.02.18-.14.26-.22.21.03.34-.15.37-.34.76-.41,1.28-1.19,2.17-1.29Z" fill="#31424b"/>
    <path d="M154.4,88.58c-.81-.81-4.08-2.11-3.59-2.58,1.43.11,2.77,1.35,3.59,2.58Z" fill="#31424b"/>
    <path d="M156.35,89.94c.11.62.67,1.03.68,1.68-.75-.29-1.28-1.27-1.63-2.02.25.23.68.18.95.34Z" fill="#31424b"/>
    <path d="M157.68,98.42c0,.11.01.22,0,.33h-.33c.07-.34-.07-.83.33-.98v.65Z" fill="#31424b"/>
    <path d="M150.25,106.92c.1.5-.38.6-.83.85-7.71,4.2-12.04,2.33-17.87,3.68-.2-.26.07-.56.41-.6,6.38-.73,10.22-.44,16.07-2.89.8-.33,1.33-1.19,2.22-1.04Z" fill="#30352c"/>
    <path d="M155.04,102.36c-.38.97-1.21,1.59-1.94,2.29.45-.91.95-1.93,1.94-2.29Z" fill="#30352c"/>
    <path d="M152.14,105.56c-.49.46-.8,1.2-1.57,1.28.3-.66.89-1.08,1.57-1.28Z" fill="#30352c"/>
    <path d="M129.66,112.14c-.3.68-1,1.01-1.66,1.29-.11-.44,0-.89.49-1.04.35-.1.77-.19,1.17-.25Z" fill="#30352c"/>
    <path d="M156.71,99.7c-.04.78-.52,1.44-1.27,1.68.23-.71.45-1.61,1.27-1.68Z" fill="#31424b"/>
    <path d="M130.99,111.48c-.09.49-.62.61-1.05.65-.18-.26.05-.54.26-.63.27-.12.54-.01.79-.02Z" fill="#30352c"/>
    <path d="M127.76,113.44c.15.26-.05.49-.25.57-.17.07-.34.07-.49.08-.19-.24.02-.52.24-.62.16-.07.34-.03.5-.03Z" fill="#30352c"/>
    <path d="M118.54,86.63c.06.81-.41,1.59-.24,2.57,2.04.85,3.57,2.16,4.31,4.25,2.22.23,4.03-2.08,5.35-2.81-.75,1.48-3.75,3.73-5.74,3.23.15-2.08-4.61-4.39-4.56-5.2.89-.34-.12-2.6.87-2.04Z" fill="#31424b"/>
    <path d="M118.21,80.56c-.24.21-.52-.11-.57-.4-.58-3.03-1.73-5.66-3.26-8.13,1.76.42,3.8,6.85,3.83,8.53Z" fill="#31424b"/>
    <path d="M118.56,86.09c-.47-.7-.47-1.68,0-2.38.61.56.59,1.81,0,2.38Z" fill="#31424b"/>
    <path d="M118.54,83.16c-.59.19-.64-.49-.64-.89s.04-.83.32-1.16c.66.43.31,1.37.32,2.05Z" fill="#31424b"/>
    <path d="M111.45,68.18c.26.17.24.63.31.89-.53,0-1.17-.64-1.33-1.28.31.18.73.2,1.02.39Z" fill="#31424b"/>
    <path d="M114.37,71.74c-.73.03-.96-.76-1.06-1.37.48.35,1.04.74,1.06,1.37Z" fill="#31424b"/>
    <path d="M113.06,70.37c-.13-.08-.25-.2-.32-.33.19,0,.33.14.32.33Z" fill="#31424b"/>
    <path d="M112.41,69.42c-.16-.08-.29-.2-.37-.35.14,0,.29.21.37.35Z" fill="#31424b"/>
    <path d="M110.19,67.76l-2.96-1.72c-.44-.26-1.2-.28-1.06-.86,1.49.14,3.14,1.3,4.02,2.58Z" fill="#31424b"/>
    <path d="M99.75,82.66c.84.56,1.76.64,2.88.8l3.93.58c.19.03.4.03.6.07-.04.34.47.26.7.31,3.16.77,6.08,2.42,9.06,3.61.06.35.42.59.75.64-.05.81,4.71,3.13,4.56,5.2l-.11,1.51c-1.83-.31-.5,4.12-.34,5.35.87,6.89,2.98,8.79,2.44,13.71l-.06.58c-.67-.13-.34.87-.6,1.08-.09.07-2.2,3.17-1.88,4.41.17.65.19,1.41-.43,1.75-1.49.82-3.94,7.16-10.43,11.38-.13.08-.29.19-.37.32-.3.46-1.3.98-1.01,1.64-.52.54-1.27.15-2.01.2-.89.06-1.64.82-2.5.53.22-.31.49-.5,1.01-.94-.9-1.24-1.66-2.86-3.03-3.71-.81-.14-1.67.84-2.35,1.15l-6.58,2.99,2.47,4.16c2.83-.99,5.19-3.26,7.79-3.45l.64-.05c-.37.81-3.95,2.53-4.18,2.61l-4.11,1.4-4.79,1.43-3.58.66c-1.52.28-3.12-.02-4.62.75-.29.15-.68.02-.78-.17-.07-.13-.1-.3-.13-.46,3.9-.21,7.72-1.05,11.87-1.95-.26-1.72-1.2-3.05-1.98-4.6l-10.05,2.33-.16,4.19c-.77-.22-1.46.57-2.25.63-.58.04-9.95.45-9.13-.52,3.1-.07,6.19-.1,9.58.09.47-1.53.32-3.07.24-4.6-1.53-.31-2.83.05-4.3.06-2.34,0-4.64-.39-7.02-.1-.45,1.32-.53,2.58-.7,3.77-.53-.09-4.37.58-3.65-.57.63,0,1.17.19,2.2.36l.52-3.95c-2.1-.81-4.25-1.02-5.93-2.22.47-.03.96-.22,1-.74.82-.07,1.64.18,2.54.46,3.26,1.01,6.62,1.38,10.04,1.23.38-1.51,0-2.85-.09-4.3-.14-2.24-.17-4.4-.65-6.54-3.54-2.58-7.47-4.15-11.83-4.86-2.97,3.23-5.52,6.82-6.91,10.77-.74-.41-1.71-.52-2.2-1.26.53.17,1.02-.12,1.32-.7,1.96-3.75,4.44-6.95,6.9-10.4l-1.93-8.12c-2.35-.69-6.75-.44-8.99-.43.49-1.29-1.98-1.34-.31-1.94.38.54,1.1.41,1.69.41-.05.29-.43.32-.7.82,1.38.23,2.71.04,4.25.11-.03-.45-.23-.63-.29-.89,1.62.02,3.22.47,4.95.44l5.46-7.42c.52-.7,1.38-1.37,1.62-2.22.17-.16.56-.28.64-.55.13-.44-.4-.62-.62-.82-.23-.52-2.17-7-2.96-6.11.62-.46,1.31-.81,1.92-1.29-.43.78,2.14,5.39,2.66,6.16.48.71.25,1.45,1.57,1.77l8.83,2.15c1.5-1.1,2.58-2.49,3.76-3.81l3.51-3.93c.78-.87,1.02-1.63.84-2.66-.35-1.94-.71-3.99-1.63-5.95-3.24-.04-6.07,1.08-9.03,1.58.3-.34.55-.74.58-1.2l.35-.04,1.65.03c.55.01.58-.45.63-.71,2.97-.91,5.11-1.38,8.48-1.35l7.16.06c1,0,1.89-.1,2.54-.64.37,0,.73-.04,1.1-.11ZM88.19,85.48c.07.59.31,1.23.43,1.81.05.24-.05.72.28.75.02.19.01.38.05.56.05.24-.06.73.29.75l.03.55c.04.65-.05,1.84.79,2.21l10.76,4.68c1.57-1.76,2.59-3.59,4.38-4.9,3.65-2.69,8.22-1.38,8.45-2.44.32-1.43-4.67-2.96-5.91-3.32-2.36-.7-4.71-.96-7.02-1.31-1.19-.18-2.4-.11-3.59-.14.11-.18-.15-.28-.38-.27l-8.33.06c-.23,0-.42.31-.6.27-.14-.04-.22.27-.18.46.03.17.4.19.55.28ZM116.48,89.83c-.27-.34-1.3-.61-1.63-.44-.47.58.18,1.2.65,1.25.38.04,1.33-.38.99-.81ZM105.65,106.69l10.06,2.84-1.98-15.68c-.07-.59.36-2.23-.61-2.39-1.92-.31-4.55-.2-6.44.96-2.06,1.26-4.43,3.93-4.82,6.35s1.31,4.78,1.98,6.86c.19.59,1.24.89,1.81,1.05ZM120.22,101.63c-.49-2.63-1.01-4.94-.46-7.32.2-.88.4-1.84-.32-2.41-1.03-.81-3.55.41-3.71.57-1,1.08.34,7.55.58,9.44,1.41.14,2.76.36,3.91-.28ZM82.47,108.79c0,.59-.39,1.53.57,1.75,0,.36.1.73.38.97-.22.98.42,1.84,1.51,2.11l9.76,2.41c-.99-2.69-.08,1.19,3.98-5.3,1.06-1.69,1.9-3.38,3.26-4.93-1.2-3.19-.69-6.53-3.25-8.04-2.81-1.65-5.77-3.05-9.06-3.96-1.18.78-1.89,1.87-2.8,2.87-1.75,1.94-3.76,3.58-5.42,5.63l1.06,6.5ZM78.81,103.25c-1.87-1.47-6.77-2.41-9.08-2.53-1.08-.06-6.18,7.3-7.21,8.75-.71,1-.72,1.98-.49,3.12l1.27,6.46,12.2,4.52c1.62-2.05,2.73-4.07,4.16-6.13.78-1.11,2.12-2.41,2.35-3.81-.17-3.21-1.28-6.26-1.71-9.46-.09-.63-.79-.9-1.49-.91ZM120.22,103.37c-1.31-.17-2.32-.21-3.64,0l.85,7.19,4.45,2.17c2.54,1.23-1.58-8.41-1.66-9.36ZM115.79,111.1c-3.56-1.16-6.88-2.26-10.38-3.18-1.06-.28-2.13-.73-3.09,0-2.47,3.26-4.45,6.67-6.5,10.15,2.82,3.06,4.51,8.26,5.74,12.2,6.7-4.02,13.33-11.2,14.23-19.16ZM117.41,124.54c2.09-3.4,3.86-6.46,4.79-10.13-1.43-1.07-2.95-1.62-4.79-2.33-.92,3.83-2.52,7.13-4.82,10.48,1.55.9,2.99,1.72,4.82,1.99ZM84.06,114.92c-.37.12-.71.05-.94.44-.13.21-.51.3-.43.65-.37.27-5.25,6.49-4.86,7.46-1.9,1.03-.66,10.52-.49,12.95,1.68.45,3.2.1,4.83-.04,6.3-.52,12.2-1.87,17.92-5.32-1.06-4.11-2.21-8.71-5.03-12.05-1.97-2.33-5.72-2.73-8.4-3.42-.1-.03-.22.02-.32,0-.67-.42-1.51-.92-2.28-.66ZM107,134.44c3.82-2.39,6.86-5.09,9.45-8.7l-4.79-1.93-4.59,4.49c-.91.89-2.04,1.32-2.89,2.32.91,1.34,1.63,2.47,2.82,3.82Z" fill="#462718"/>
    <path d="M101.03,167.86c-.33.02-.93-.1-1.03.32-.18-.07-.39.01-.58-.04-.33-.16-.17-.54.05-.87l5.69-8.67c4.86-7.4,8.19-13.77,8.66-22.94,3.39-3.6,5.79-7.76,8.34-11.84,2.86,3.09,5.3,9.52,4.52,13.99-.84,4.85-2.67,9.37-5.48,13.37-4.51,6.43-12.84,14.54-20.18,16.67Z" fill="#83ac57"/>
    <path d="M62.27,144.68c-7.06,13.77-19.61,16.36-19.88,11.68-.48-8.25,2.56-12.04,8.81-16.64.73-.12,1.06.65,1.65,1.07,2.85,2.03,6.13,3.24,9.43,3.9Z" fill="#83ac57"/>
    <path d="M122.16,123.83c-2.55,4.07-4.95,8.24-8.34,11.84-.47,9.17-3.8,15.54-8.66,22.94l-5.69,8.67c-.22.33-.38.71-.05.87-.61.59-1.51.37-2.15.01-.77-.42-1.06-1.28-.8-2.22,2.73-9.96,11.11-14.74,13.18-28.87.1-.71.01-.97-.21-1.47-.29-.66.71-1.18,1.01-1.64.17-.05.31-.16.37-.32,6.49-4.22,8.93-10.56,10.43-11.38.43.45.88.92.92,1.57Z" fill="#6a8b49"/>
    <path d="M57.04,98.4c0,.1.06.22.04.33-.98.74-1.81,1.75-2.25,2.9-.09.23-.38.39-.4.67-.45.35-.65.91-.99,1.35-.2.26-.26.68-.38.94-.53.4-.8,1.17-1.23,1.63-.17.07-.52,0-.59.24-.05.19.01.38-.02.51-.13.62-.4,1.22-.42,1.86-1.68.6.79.65.31,1.94-.33,0-1.16-.13-1.37.27-1.36,2.72-2.33,5.6-2.52,8.51-.81-.99-.98,4.25.02,3.7.05,1.29.87,2.32,1.37,3.48.06.14.18.26.3.35.1.07.2.21.3.26.16.49.52.87,1.01,1.03.13.04.21.24.33.32s.19.26.33.31c.23.09.46.18.65.36.09.09.2.26.33.29.19.04.4.04.6.05-.17.25.04.54.25.61.27.11.54.03.79.02.11,0,.23.06.34.06.49.74,1.46.85,2.2,1.26.31.17.74.44,1,.65.14.11-.05.57.23.59.21.02.37-.02.51-.02.18,0,.37.07.55.08-.16.26.03.54.24.62.29.11.55,0,.79,0,.19,0,.41,0,.59.04-.18.29.07.57.26.62.43.12.78-.02,1.11,0l.58.03c-.14.16-.06.33.05.45.2.23.49.2.72.14.08-.02.18.03.27.02-.03.52-.53.71-1,.74-.2-.04-.41,0-.6-.05.2-.29-.1-.56-.29-.63-.37-.12-.76-.01-1.09,0-.29.01-.68.17-.91.03l-1.98-1.21c-.29-.18-.75-.19-.99-.48-.09-.11-.21-.22-.35-.28-.2-.08-.49-.13-.63-.32-.16-.22-.35-.38-.65-.35-.09.01-.19,0-.29,0,.18-.27-.07-.54-.26-.63-.29-.13-.56-.03-.82-.04-1-.03-.93-1.12-2.55-.9-.25-.52-.56-1.06-1.06-1.38-.98-.62-1.82-1.54-2.26-2.61-.05-.12-.18-.23-.27-.32-.72-.77-1.08-1.8-1.07-2.84,0-.21.17-.51.05-.82-.06-.17-.29-.27-.54-.31,0-.36.04-1-.3-1.15-.29-.13-1.03-.27-1.31-.1-.62-.42-1.97-.19-2.05.66-.02.18-.36.34-.3.57-.39.02-.68.16-.68.56,0,.37.23.76.63.55v1.19c-.13-.12-.26-.07-.44.05s.34,2.25.82,1.68c.16.51.32,1.02.37,1.55.06.15.17.28.32.36v.33c.02.15.2.25.33.32l.02.33c.06.14.17.26.32.31.01.09,0,.19,0,.28,0,.13-.08.27-.06.4.03.26-.09.57,0,.78.2.44-.8.7-.87.44-.2-.9-.4-1.34-.82-1.89-.69-.92-1.12-2.18-1.26-3.29-.05-.4.78.39-.7-1.65.19-.25.57-.81.53-1.26-.37-4.51,2.43-6.35,1.74-8.46.39-.21.85-.53,1.03-.92l.32-.72c.22.08.27-.21.33-.36.17-.46.1-1.15.35-1.57,1.91-2.51,3.57-5.17,5.94-7.47.55-.53.91-1.18,1.18-1.74.25-.5.84-.73,1.05-1.26.79.33,2.64-1.34,3.18-1.9.73-.06,1.3-.58,2.02-.72ZM48.89,106.88c-2.52,1.93-5.11,8.16-6.49,11.09-.18-.11-.34.22-.31.35.08.36-.26,1.07.07,1.42.36.38,1.09.08,1.48.16.15.03.52-.04.38-.26.19,0,.42-.02.6,0,.15.14.3.19.39-.04,1.32-3.2,1.95-6.76,3.25-10.08.17-.05.25-.21.32-.36.28-.64.7-1.23.71-1.95.68-.28,1.02-1.08,1.15-1.84-1.12-.13-1.08,1.14-1.55,1.5Z" fill="#181817"/>
    <path d="M45.35,122.47c-.05.2-.07.53,0,.79.04.17.19.55.49.34,0,1.05.36,2.08,1.07,2.84-.05.2.07.32.27.32.44,1.07,1.29,2,2.26,2.61.75.85-2.33,3.26-3.14,3.51-.33-.15-.59-.51-.95-.6-.04-.17-.17-.29-.34-.33-.04-.07.03-.2-.01-.27-.31-.57-.77-1.05-1.35-1.36h-.26c.03-.2-.02-.52-.32-.36,0-.09,0-.19,0-.28-.02-.16-.16-.29-.32-.31l-.02-.33c-.06-.15-.17-.27-.32-.32v-.33c-.02-.16-.09-.5-.33-.36-.05-.53-.21-1.05-.37-1.55-.01-.6-.18-1.17-.37-1.73v-1.19s.04-1.12.04-1.12c-.06-.23.28-.39.3-.57.67-.32,1.41-.27,2.05-.66.28-.17,1.02-.03,1.31.1.34.15.31.8.3,1.15Z" fill="#9c5f3c"/>
    <path d="M70.99,142.79h-.32c-.09,0-.19-.05-.28-.04-.03-.46-.69-.29-1.01-.35-.15-.16-.5-.15-.6-.39.17-1.19.25-2.45.7-3.77,2.38-.29,4.68.11,7.02.1,1.47,0,2.77-.37,4.3-.06.08,1.53.24,3.07-.24,4.6-3.39-.19-6.48-.17-9.58-.09Z" fill="#9c5f3c"/>
    <path d="M104.93,136.33s-.03.12-.05.17l-.64.05c-2.6.19-4.96,2.46-7.79,3.45l-2.47-4.16,6.58-2.99c.68-.31,1.54-1.3,2.35-1.15,1.37.85,2.13,2.47,3.03,3.71-.52.44-.79.63-1.01.94Z" fill="#9c5f3c"/>
    <path d="M59.93,134.96c.22.52.9.5,1.38.62.19.05.4.02.6.05,1.68,1.2,3.83,1.41,5.93,2.22l-.52,3.95c-1.02-.17-1.57-.36-2.2-.36-.19,0-.39-.04-.58-.03-.24-.51-.9-.64-1.39-.64h-.28c.11-.26-.21-.37-.45-.32-.1.02-.24.05-.19.24-.55-.2-1.34-.22-1.86-.66-.72-.61-1.42-.39-2.09-.57-1.44-1.06.62-2.79.73-4.48.23.14.62-.02.91-.03Z" fill="#9c5f3c"/>
    <path d="M53.06,131.67c.14.47.63.64,1.08.66.09,0,.19.02.29,0,.09.28.38.38.65.35.14.19.42.24.63.32.06.14.26.17.35.28.24.29.7.3.99.48.07.29.79.69.61,1.11l-1.28,2.97c-.13.29-.56.29-.71.29h-.27c-.26-.46-.83-.56-1.33-.64-.09-.01-.2-.02-.29,0-.04-.57-.65-.45-1-.63-.57-.31-4.97-2.7-4.8-3.24.46-1.31,2.45-1.79,2.54-2.86,1.63-.22,1.55.88,2.55.9Z" fill="#9c5f3c"/>
    <path d="M100.7,139.1c.55,1.83-13.16,4.77-14.53,4.86l-7.33.48c-1.03.07-2.2.07-3.24-.02l-4.61-.4c-.46-.04-.3-1.01-.32-1.22h.32c-.81.96,8.56.55,9.13.51.79-.06,1.48-.85,2.25-.63.1.03.21,0,.32.03.03.16.06.33.13.46.1.19.48.32.78.17,1.5-.77,3.1-.47,4.62-.75l3.58-.66,4.79-1.43,4.11-1.4Z" fill="#181817"/>
    <path d="M62.27,144.68c-3.3-.66-6.58-1.86-9.43-3.9-.59-.42-.91-1.19-1.65-1.07.19-.65,1.03-1.15,1.82-.78,3.29,1.56,6.68,2.62,10.11,3.86.37.73-.62,1.43-.85,1.88Z" fill="#6a8b49"/>
    <path d="M40.06,126.41c.15,1.12.57,2.37,1.26,3.29,1.85,1.57-7.79,1.52-8.51,1.05.29-.78,7.48-5.65,7.24-4.34Z" fill="#83ac57"/>
    <path d="M59.02,134.99c-.11,1.69-2.17,3.42-.73,4.48-.91-.24-2.16-.44-2.64-1.32.15,0,.58,0,.71-.29l1.28-2.97c.18-.42-.53-.82-.61-1.11l1.98,1.21Z" fill="#462718"/>
    <path d="M50.5,130.76c-.09,1.08-2.07,1.55-2.54,2.86l-1.66-.73c.8-.24,3.88-2.66,3.14-3.51.5.32.81.86,1.06,1.38Z" fill="#462718"/>
    <path d="M41.39,131.99h-2.61c-.5-1.01,2.22-.65,2.39-.62.19.04.29.31.21.62Z" fill="#181817"/>
    <path d="M123.56,116.1c.26-.21-.07-1.21.6-1.08.22.17.46.54.26.88-.12.2-.62.15-.86.2Z" fill="#181817"/>
    <path d="M64.54,141.41c-.34.02-.69.12-1.1-.01-.18-.06-.49-.33-.29-.63.49,0,1.15.13,1.39.64Z" fill="#462718"/>
    <path d="M55.38,138.16c-.33.01-.68.11-1.07-.02-.2-.07-.45-.36-.27-.63.5.07,1.07.18,1.33.65Z" fill="#462718"/>
    <path d="M53.76,137.5c-.23.02-.49.08-.76-.01-.23-.08-.37-.36-.23-.62.34.19.96.07,1,.63Z" fill="#462718"/>
    <path d="M101.03,167.86c-.33.09-.6.48-1.03.32.1-.42.69-.31,1.03-.32Z" fill="#6a8b49"/>
    <path d="M70.4,142.75c-.4.05-.74-.05-1.01-.35.32.06.99-.11,1.01.35Z" fill="#462718"/>
    <path d="M45,131.69c-.68-.12-1.25-.67-1.35-1.36.57.3,1.04.79,1.35,1.36Z" fill="#462718"/>
    <path d="M62.88,140.77c-.2,0-.44,0-.64-.07-.05-.19.09-.22.19-.24.24-.06.57.06.45.32Z" fill="#462718"/>
    <path d="M43.39,130.34l-.38.03c-.01-.13.06-.26.06-.4.3-.16.35.16.32.37Z" fill="#462718"/>
    <path d="M45.35,132.29c-.15-.04-.26-.21-.34-.33.17.04.3.16.34.33Z" fill="#462718"/>
    <path d="M77.85,85.42c-.03.47-.28.86-.58,1.2-.11.02-.24.07-.35.07-.27-.02-.53-.05-.84-.03-.28.02-.77.25-.56.67-.17.03-.39.06-.56.03-.7-.14-1.43,0-2.09.52-.03.03-6.36,2.81-5.8,3.36-.09.03-.24.02-.32.08-.61.48-1.3.83-1.92,1.29l-6.45,4.81c-.21-.19-.56-.34-.75-.17-.28.25-.23.62-.3.91-.03.1-.2.22-.3.24-.71.14-1.28.66-2.02.72.11-.48.28-.94.47-1.39.07-.01.15,0,.22,0,.15-.04.28-.16.31-.31.08-.08.18-.17.24-.27.88.3,1.07-.55,1.57-1.11.95-1.08,2.29-1.63,3.02-2.78.07-.04.24-.1.33-.09.65.08,1.06-.47,1.38-.99.06-.09.21-.16.25-.26.67-.26,1.62-.53,1.74-1.32.09-.02.19.03.28,0,1.99-.49,7.39-4.13,10.79-4.51.28-.03.47-.12.6-.27.11-.13.19-.29.04-.45.06-.02.14-.02.21-.02.46.04.93.14,1.39.08Z" fill="#30352c"/>
    <path d="M98.66,82.77c-.65.55-1.54.65-2.54.64l-7.16-.06c-3.37-.03-5.51.45-8.48,1.35-.54.02-1.08.02-1.63.02l1.34-.65c.18,0,.38-.02.56-.04.7-.07,1.38-.46,2.04-.6,4.65-.93,9.41-1.1,14.32-.84.46.02.93-.1.97-.45.22.16.58.25.58.61Z" fill="#31424b"/>
    <path d="M76.26,85.35c.16.16.08.33-.04.45-.13.15-.33.24-.6.27-3.4.37-8.8,4.01-10.79,4.51,3.33-2.48,7.39-4.28,11.43-5.23Z" fill="#31424b"/>
    <path d="M60.86,93.24c-.73,1.14-2.07,1.7-3.02,2.78-.5.57-.68,1.41-1.57,1.11,1.06-1.68,2.92-2.84,4.59-3.89Z" fill="#31424b"/>
    <path d="M78.85,84.73c.54,0,1.08,0,1.63-.02-.05.26-.08.72-.63.71l-1.65-.03v-.65c.11-.02.22,0,.33,0h.33Z" fill="#30352c"/>
    <path d="M62.56,92.16c-.31.52-.73,1.07-1.38.99,0-.71.78-.9,1.38-.99Z" fill="#31424b"/>
    <path d="M78.2,84.73v.65l-.35.04c-.46.05-.92-.04-1.39-.08-.15-.11-.21-.22,0-.31.31.07.53-.19.76-.3.29-.09.67.06.98,0Z" fill="#31424b"/>
    <path d="M80.19,84.08l-1.34.65h-.33c-.14-.5.2-.68.5-.67l1.16.02Z" fill="#93d5e4"/>
    <path d="M64.55,90.58c-.11.79-1.07,1.06-1.74,1.32.21-.77.99-1.18,1.74-1.32Z" fill="#31424b"/>
    <path d="M97.71,81.17c-.48-.16-1-.45-.97-1.02.6,0,.85.5.97,1.02Z" fill="#31424b"/>
    <path d="M55.71,97.72c.07-.13.21-.21.31-.31-.04.15-.16.28-.31.31Z" fill="#31424b"/>
    <path d="M87.94,62.59c-.76.51,4.17.25,4.29.27,5.7.71,11.51,2.33,16.38,5.75,6.33,4.45,8.96,12.01,8.31,19.41-2.99-1.19-5.91-2.84-9.06-3.61.01-.32-.47-.28-.7-.31-.19-.03-.41-.04-.6-.07.72-.61-3.81-6.74-4.24-7.17-6.43-6.5-12.36-7-17.03-12.26-.28-.31-.69-.34-.96-.4.18-.17,0-.7.36-.87.17-.08.49-.05.65-.16.37.05.88.11,1.01-.32.11.01.22,0,.33-.01.24-.01.48-.1.67-.25.2-.02.4.03.6,0Z" fill="#83ac57"/>
    <path d="M106.56,84.04l-3.93-.58c-1.12-.16-2.04-.24-2.88-.8.33-.43-2.24-4.04-2.66-4.45l-7.54-7.42c-1.21-1.19-6.73-5.11-5.23-6.57.27.06.69.09.96.4,4.67,5.26,10.61,5.76,17.03,12.26.43.43,4.96,6.56,4.24,7.17Z" fill="#6a8b49"/>
    <path d="M92.23,62.86c-.12-.02-5.05.24-4.29-.27,1.47-.24,2.9.09,4.29.27Z" fill="#6a8b49"/>
    <path d="M86.35,62.86c-.14.43-.64.37-1.01.32.31-.22.62-.36,1.01-.32Z" fill="#6a8b49"/>
    <path d="M87.35,62.6c-.19.15-.43.24-.67.25,0-.35.43-.25.67-.25Z" fill="#6a8b49"/>
    <path d="M50.78,102.28c-.27.56-.63,1.21-1.18,1.74-2.37,2.3-4.04,4.96-5.94,7.47-3.84-.81-7.42-2.65-10.8-4.83-.33-.74-1.02-.87-1.6-.73-.19-.71-.96-1.28-.81-2.1s.6-1.41,1.36-1.95c3.1-2.19,7.31-2.33,10.83-1.51l8.14,1.9Z" fill="#83ac57"/>
    <path d="M43.66,111.48c-.25.42-.18,1.12-.35,1.57-.17.06-.26.2-.33.36l-.32.72c-4.69-.45-10.08-3.26-11.4-8.21.58-.13,1.27,0,1.6.73,3.38,2.18,6.96,4.02,10.8,4.83Z" fill="#6a8b49"/>
    <path d="M40.41,98.42c-1.04.56-2.54.56-3.58,0,.98-.56,2.61-.56,3.58,0Z" fill="#31424b"/>
    <path d="M48.9,100.96l.3-.02c.06.45-.36.5-.3.02Z" fill="#181817"/>
    <path d="M150.23,101.03c-.29.02-.65.04-.76.36l-.58.07c.09-.01-5.72,1.03-5.49,1.64.09.23.43.08.57.19.83.6,2.15.61,2.95-.02.41-.32,1.09-.33,1.59-.32s1.01-.11,1.62.36c-1.45,1.62-9.16,3.08-11.65,3.19-4.43.21-8.61.9-12.76,2.97-1.32-4-.7-5.17-1.81-9.84-.34-1.44-.23-2.92-.82-4.19.87-.31,1.7-.74,2.61-.93.17-.04.35-.17.38-.35.63-.28,1.25-.64,1.63-1.23.33.07.48-.19.66-.38,1.54-1.58,3.32-2.86,5.24-4.22,6.67-4.73,14.3-3.59,20.07,1.68,1.85,1.69,2.83,4.01,2.77,6.42-.04,1.65-1.12,2.31-2.5,2.93l-3.72,1.68ZM146.43,93.81c-.44-1.08-1.53-1.5-2.29-1.57-.91-.08-1.82.18-2.38.99-.73,1.06-.36,2.41.49,3.15.89.77,2.11,1,3.16.32.81-.53,1.54-1.64,1.03-2.89Z" fill="#83ac57"/>
    <path d="M122.12,95.38c.33,0,.66.01.98.05.59,1.27.48,2.75.82,4.19,1.1,4.68.49,5.84,1.81,9.84,4.15-2.06,8.32-2.76,12.76-2.97,2.5-.12,10.21-1.58,11.65-3.19-.61-.47-1.14-.35-1.62-.36l.11-.41c1.59-.06,3.01-.91,4.9-1.22-.5,1.86-2.1,2.62-3.02,3.92-.29-.02-.56.12-.67.39-.1,0-.21,0-.3.01-.16.03-.29.15-.35.3-.19.22-.39.44-.65.59-.14.09-.26.2-.35.35-.19.04-.41-.02-.6.03-.32.09-.62.3-.71.62-1.22.25-2.26,1.06-3.52,1-.16,0-.53.05-.39.28-2.91.42-5.79.88-8.74.73-.33-.02-.93-.12-1.03.28-.75.06-1.46.36-2.22.37-.15,0-.48.11-.37.31-1.83.81-3.8,1.83-4.91,3.52-.1-.02-.2,0-.3,0-.13.12-.24.25-.34.39-.28.03-.57.06-.85.05.54-4.92-1.57-6.82-2.44-13.71-.16-1.23-1.49-5.66.34-5.35Z" fill="#6a8b49"/>
    <path d="M148.9,101.46l-.27,1.07-.11.41c-.49,0-1.18,0-1.59.32-.98.08-1.97.06-2.95.02-.15-.11-.49.04-.57-.19-.23-.61,5.58-1.65,5.49-1.64Z" fill="#30352c"/>
    <path d="M150.23,101.03c-.06.16-.05.48-.27.59-.16.09-.38-.08-.49-.23.1-.32.47-.34.76-.36Z" fill="#30352c"/>
    <path d="M134.25,109.53c-.1.42-.71.26-1.03.28.1-.4.71-.3,1.03-.28Z" fill="#30352c"/>
    <path d="M128.37,92.54c-.19.19-.34.45-.66.38.15-.24.35-.43.66-.38Z" fill="#31424b"/>
    <path d="M150.52,105.23c-.16.23-.36.4-.67.39.11-.27.38-.41.67-.39Z" fill="#30352c"/>
    <path d="M125.71,94.5c-.02-.22.22-.28.38-.35-.03.18-.21.31-.38.35Z" fill="#31424b"/>
    <path d="M149.2,105.92c.06-.14.19-.27.35-.3-.08.13-.25.18-.35.3Z" fill="#30352c"/>
    <path d="M146.9,107.51c.09-.32.39-.54.71-.62-.06.34-.38.56-.71.62Z" fill="#30352c"/>
    <path d="M142.99,108.8c-.14-.24.23-.29.39-.28.12.22-.24.26-.39.28Z" fill="#30352c"/>
    <path d="M130.63,110.49c-.11-.2.22-.31.37-.31.01.22-.22.24-.37.31Z" fill="#30352c"/>
    <path d="M148.2,106.86c.08-.14.21-.26.35-.35-.1.13-.22.25-.35.35Z" fill="#30352c"/>
    <path d="M125.07,114.39c.1-.14.21-.27.34-.39,0,.09-.02.36-.13.6-.03.07-.15-.13-.21-.21Z" fill="#181817"/>
    <path d="M86.35,115.58c-.03.51.37.51.32,0,2.68.69,6.43,1.1,8.4,3.42,2.82,3.34,3.97,7.95,5.03,12.05-5.72,3.46-11.62,4.8-17.92,5.32-1.63.14-3.15.49-4.83.04-.17-2.43-1.41-11.93.49-12.95,3.26,2.45,6.15-2.08,8.05-4.63,1.1-1.48-.8-3.63-1.82-3.92.78-.26,1.61.24,2.28.66Z" fill="#9c5f3c"/>
    <path d="M115.79,111.1c-.9,7.96-7.53,15.14-14.23,19.16-1.23-3.94-2.92-9.14-5.74-12.2,2.05-3.48,4.03-6.89,6.5-10.15.95-.72,2.03-.27,3.09,0,3.5.92,6.82,2.02,10.38,3.18Z" fill="#9c5f3c"/>
    <path d="M98.68,97.76c1.62,8.45,2.02,5.75-1.42,12.22-3.07,5.78-9.16,1.86-13.84,1.53-.28-.24-.39-.61-.38-.97.04-.34.07-.72.06-1.16,0-.26-.14-.78-.63-.58l-1.06-6.5c1.66-2.05,3.67-3.69,5.42-5.63.91-1,1.62-2.09,2.8-2.87,3.29.92,6.25,2.31,9.06,3.96Z" fill="#b26e46"/>
    <path d="M78.81,103.25c-.24,3.6,2.09,9.66-.28,12.76-1.41,1.85-2.64,3.54-4.02,5.71-3-1.32-6.19-2.28-8.66-4.44-1.39-1.21-1.06-4.14-.56-5.74,1.05-3.39,2.97-5.97,4.74-8.94.36-.6-.25-1.39-.29-1.88,2.31.12,7.21,1.06,9.08,2.53Z" fill="#b26e46"/>
    <path d="M62.91,134.89c-.08,0-.18-.04-.27-.02.22-.27-.08-.47-.29-.53-.17-.06-.33-.05-.48-.06l-.58-.03c-.22-.5-.88-.52-1.36-.62-.18-.04-.4-.03-.59-.04-.08-.48-.61-.59-1.03-.62-.18-.01-.37-.08-.55-.08.18-.25-.12-.43-.29-.49s-.31-.09-.45-.08c-.26-.21-.7-.48-1-.65,1.39-3.96,3.94-7.54,6.91-10.77,4.36.71,8.29,2.28,11.83,4.86.48,2.14.51,4.3.65,6.54.09,1.45.48,2.79.09,4.3-3.42.15-6.78-.22-10.04-1.23-.91-.28-1.72-.53-2.54-.46Z" fill="#9c5f3c"/>
    <path d="M51.1,110.76c2.24-.01,6.65-.26,8.99.43l1.93,8.12c-2.46,3.45-4.94,6.65-6.9,10.4-.3.58-.79.86-1.32.7-.11,0-.23-.07-.34-.06-.05-.5-.61-.59-1.03-.63-.19-.02-.41-.02-.6-.05.12-.27-.16-.27-.33-.29-.18-.18-.41-.27-.65-.36.04-.23-.14-.31-.33-.31-.12-.08-.2-.28-.33-.32-.13-.51-.51-.88-1.01-1.03-.11-.05-.21-.18-.3-.26-.07-.14-.17-.26-.3-.35-.5-1.16-1.32-2.19-1.37-3.48.17-1.22-.1-2.48-.02-3.7.19-2.91,1.16-5.79,2.52-8.51.21-.41,1.05-.27,1.37-.27Z" fill="#9c5f3c"/>
    <path d="M87.93,91c.6-1.04-4,3.18-3.46,2.63-1.95,1.96-3.97,3.73-6.69,4.67-2.81-.55-5.62-.9-8.37-.82-.52-.76-3.09-5.37-2.66-6.16.08-.06.22-.05.32-.08,1.04-.29,1.99-.97,3.05-1.57,1.62-.93,3.5-1.21,4.85-2.31.17.03.39,0,.56-.03.51-.08,1.17-.12,1.4-.64.11,0,.24-.05.35-.07,2.95-.5,5.79-1.63,9.03-1.58.93,1.96,1.28,4.01,1.63,5.95Z" fill="#b26e46"/>
    <path d="M105.65,106.69c-.57-.16-1.62-.46-1.81-1.05-.67-2.08-2.36-4.48-1.98-6.86s2.76-5.09,4.82-6.35c1.89-1.16,4.52-1.27,6.44-.96.97.16.53,1.8.61,2.39l1.98,15.68-10.06-2.84Z" fill="#9c5f3c"/>
    <path d="M67.8,98.72l-.02,1.36c-.24.84-1.11,1.52-1.62,2.22-1.04-.27-1.75.38-2.43,1.18l-2.85,3.34-6.73.02c-.01-.96.62-1.63.41-2.47-.48.1-.6.39-.76.47-.33.17-.66.14-.74-.24.12-.26.19-.68.38-.94.74.09.93-.74.99-1.35.03-.28.31-.44.4-.67.87-.85,2.03-1.67,2.25-2.9.02-.1-.04-.22-.04-.33.1-.02.26-.15.3-.24.5.05.95-.25,1.05-.74l6.45-4.81c.8-.89,2.73,5.58,2.96,6.11Z" fill="#b26e46"/>
    <path d="M69.73,100.72c.04.49.65,1.28.29,1.88-1.77,2.97-3.69,5.55-4.74,8.94-.5,1.61-.83,4.53.56,5.74,2.47,2.16,5.66,3.12,8.66,4.44,1.39-2.17,2.61-3.86,4.02-5.71,2.36-3.1.04-9.17.28-12.76.7.01,1.41.28,1.49.91.43,3.21,1.54,6.25,1.71,9.46-.23,1.4-1.58,2.7-2.35,3.81-1.43,2.05-2.54,4.08-4.16,6.13l-12.2-4.52-1.27-6.46c-.22-1.14-.22-2.11.49-3.12,1.02-1.45,6.13-8.81,7.21-8.75Z" fill="#9c5f3c"/>
    <path d="M97.13,84.68c1.2.02,2.41-.04,3.59.14.58.59,1.06,1.24,1.23,2.2.77.95,1.46,2,1.49,3.27s-1.19,2.38-2.55,2.47c-3.63.24-8.52-2.25-11.63-2.86l-.03-.55c.15-.09.25-.19.31-.3.11-.2.02-.35-.12-.42-.19-.1-.34-.15-.48-.03-.03-.18-.02-.38-.05-.56.14-.09.25-.19.31-.3.11-.18.02-.35-.11-.41-.2-.1-.34-.16-.48-.03-.12-.59-.37-1.22-.43-1.81,1.4-1.87,8.5.24,8.94-.8Z" fill="#b26e46"/>
    <path d="M89.27,89.9c3.11.61,8,3.11,11.63,2.86,1.36-.09,2.58-1.19,2.55-2.47s-.72-2.32-1.49-3.27c-.17-.96-.65-1.61-1.23-2.2,2.31.35,4.66.61,7.02,1.31,1.24.37,6.23,1.9,5.91,3.32-.24,1.05-4.8-.26-8.45,2.44-1.78,1.31-2.81,3.14-4.38,4.9l-10.76-4.68c-.84-.36-.75-1.56-.79-2.21Z" fill="#9c5f3c"/>
    <path d="M117.41,124.54c-1.83-.27-3.27-1.08-4.82-1.99,2.3-3.34,3.9-6.65,4.82-10.48,1.84.7,3.36,1.26,4.79,2.33-.92,3.67-2.69,6.73-4.79,10.13Z" fill="#9c5f3c"/>
    <path d="M107,134.44c-1.19-1.35-1.92-2.49-2.82-3.82.85-1,1.98-1.43,2.89-2.32l4.59-4.49,4.79,1.93c-2.59,3.62-5.63,6.31-9.45,8.7Z" fill="#9c5f3c"/>
    <path d="M82.69,142.71c-.1-.02-.22,0-.32-.03l.16-4.19,10.05-2.33c.78,1.55,1.72,2.88,1.98,4.6-4.15.91-7.98,1.74-11.87,1.95Z" fill="#9c5f3c"/>
    <path d="M83.42,111.51c4.68.34,10.77,4.25,13.84-1.53,3.44-6.47,3.04-3.78,1.42-12.22,2.56,1.51,2.05,4.85,3.25,8.04-1.36,1.54-2.2,3.24-3.26,4.93-4.05,6.49-4.96,2.61-3.98,5.3l-9.76-2.41c-1.1-.27-1.73-1.14-1.51-2.11Z" fill="#9c5f3c"/>
    <path d="M87.93,91c.18,1.03-.06,1.79-.84,2.66l-3.51,3.93c-1.19,1.33-2.27,2.72-3.76,3.81l-8.83-2.15c-1.32-.32-1.08-1.06-1.57-1.77,2.76-.07,5.56.27,8.37.82,2.72-.94,4.73-2.71,6.69-4.67-.54.55,4.05-3.68,3.46-2.63Z" fill="#9c5f3c"/>
    <path d="M120.22,101.63c-1.16.64-2.51.42-3.91.28-.24-1.9-1.58-8.36-.58-9.44.15-.16,2.67-1.38,3.71-.57.73.57.52,1.54.32,2.41-.54,2.39-.03,4.7.46,7.32Z" fill="#9c5f3c"/>
    <path d="M84.06,114.92c1.02.29,2.92,2.44,1.82,3.92-1.9,2.55-4.78,7.08-8.05,4.63-.4-.97,4.49-7.19,4.86-7.46.22-.17.45-.33.43-.65.23-.38.57-.31.94-.44Z" fill="#b26e46"/>
    <path d="M66.15,102.29l-5.46,7.42c-1.73.02-3.33-.43-4.95-.44l-3.26-.04c-.59,0-1.31.13-1.69-.41.02-.64.29-1.23.42-1.86.26.22.45-.09.53-.28.06-.16.08-.32.08-.46.42-.46.7-1.23,1.23-1.63.08.38.41.41.74.24.16-.08.28-.36.76-.47.22.85-.42,1.51-.41,2.47l6.73-.02,2.85-3.34c.68-.8,1.39-1.45,2.43-1.18Z" fill="#9c5f3c"/>
    <path d="M120.22,103.37c.08.95,4.2,10.6,1.66,9.36l-4.45-2.17-.85-7.19c1.33-.22,2.33-.18,3.64,0Z" fill="#9c5f3c"/>
    <path d="M97.13,84.68c-.44,1.04-7.55-1.08-8.94.8-.15-.09-.52-.11-.55-.28-.04-.2.04-.5.18-.46.18.05.38-.26.6-.27l8.33-.06c.23,0,.5.09.38.27Z" fill="#9c5f3c"/>
    <path d="M55.75,109.27c.06.26.26.45.29.89-1.54-.07-2.87.12-4.25-.11.27-.49.65-.52.7-.82l3.26.04Z" fill="#181817"/>
    <path d="M116.48,89.83c.34.43-.61.85-.99.81-.47-.05-1.12-.67-.65-1.25.34-.17,1.37.1,1.63.44Z" fill="#9c5f3c"/>
    <path d="M83.04,110.54c-.96-.22-.58-1.15-.57-1.75.49-.19.63.32.63.58,0,.45-.02.82-.06,1.16Z" fill="#9c5f3c"/>
    <path d="M67.78,100.08l.02-1.36c.22.2.74.37.62.82-.08.27-.47.39-.64.55Z" fill="#9c5f3c"/>
    <path d="M88.9,88.04c-.33-.03-.23-.51-.28-.75.14-.13.28-.06.48.03.14.07.22.23.11.41-.06.1-.17.21-.31.3Z" fill="#9c5f3c"/>
    <path d="M89.23,89.35c-.35-.02-.24-.51-.29-.75.14-.12.29-.07.48.03.14.07.23.22.12.42-.06.11-.16.21-.31.3Z" fill="#9c5f3c"/>
    <path d="M107.86,84.42c-.22-.05-.73.03-.7-.31.22.04.71,0,.7.31Z" fill="#6a8b49"/>
    <path d="M82.69,116.01c-.08-.35.3-.44.43-.65.02.32-.21.48-.43.65Z" fill="#9c5f3c"/>
    <path d="M86.35,115.58c.1.02.22-.03.32,0,.05.51-.35.51-.32,0Z" fill="#b26e46"/>
    <path d="M110.45,133.96c.09-.13.24-.24.37-.32-.06.16-.21.27-.37.32Z" fill="#30352c"/>
    <path d="M49.3,107.22c-.02.71-.43,1.31-.71,1.95-.23-.07-.26.21-.32.36-1.3,3.32-1.93,6.87-3.25,10.08l-.39.04c-.18-.02-.41,0-.6,0-.15,0-.51.03-.38.26-.39-.07-1.12.22-1.48-.16-.33-.34,0-1.05-.07-1.42.17-.06.24-.21.31-.35,1.38-2.92,3.98-9.16,6.49-11.09l.4.34Z" fill="#9c5f3c"/>
    <path d="M47.2,119.54c-.08,1.22.19,2.47.02,3.7-1,.55-.83-4.69-.02-3.7Z" fill="#462718"/>
    <path d="M49.3,107.22l-.4-.34c.47-.36.44-1.63,1.55-1.5-.13.76-.47,1.56-1.15,1.84Z" fill="#462718"/>
    <path d="M54.82,101.62c.44-1.15,1.27-2.16,2.25-2.9-.22,1.23-1.38,2.05-2.25,2.9Z" fill="#9c5f3c"/>
    <path d="M41.35,124.76c.19.56.35,1.14.37,1.73-.48.56-1-1.57-.82-1.68s.32-.17.45-.05Z" fill="#462718"/>
    <path d="M43.74,121.22c-.64.4-1.39.34-2.05.66.09-.85,1.43-1.08,2.05-.66Z" fill="#462718"/>
    <path d="M50.2,128.36c-.49-.16-.85-.54-1.01-1.03.5.15.88.52,1.01,1.03Z" fill="#462718"/>
    <path d="M61.31,135.58c-.48-.12-1.17-.1-1.38-.62.33-.02.72-.12,1.09,0,.19.06.49.34.29.63Z" fill="#462718"/>
    <path d="M45.84,123.61c-.31.2-.45-.17-.49-.34-.07-.26-.05-.59,0-.79.25.05.48.14.54.31.11.31-.05.62-.05.82Z" fill="#462718"/>
    <path d="M41.39,122.46l-.05,1.12c-.4.2-.63-.19-.63-.55,0-.4.28-.54.68-.56Z" fill="#462718"/>
    <path d="M61.29,134.24c-.33-.02-.68.11-1.11,0-.19-.05-.43-.33-.26-.62.48.1,1.15.12,1.36.62Z" fill="#462718"/>
    <path d="M59.33,133.58c-.24,0-.5.11-.79,0-.21-.08-.4-.36-.24-.62.42.03.95.14,1.03.62Z" fill="#462718"/>
    <path d="M53.47,130.33c-.25.01-.51.09-.79-.02-.2-.08-.41-.36-.25-.61.42.04.98.13,1.03.63Z" fill="#462718"/>
    <path d="M54.14,132.33c-.45-.02-.94-.19-1.08-.66.25,0,.53-.09.82.04.19.09.44.36.26.63Z" fill="#462718"/>
    <path d="M62.64,134.86c-.24.05-.52.09-.72-.14-.11-.13-.19-.29-.05-.45.15,0,.31,0,.48.06.21.07.51.26.29.53Z" fill="#462718"/>
    <path d="M51.82,106.22c0,.15-.01.3-.08.46-.08.19-.27.5-.53.28.03-.13-.04-.31.02-.51.06-.23.42-.17.59-.24Z" fill="#462718"/>
    <path d="M57.75,132.88c-.14,0-.3.04-.51.02-.28-.03-.09-.49-.23-.59.14,0,.29.02.45.08s.47.25.29.49Z" fill="#462718"/>
    <path d="M53.43,103.65c.34-.44.54-1,.99-1.35-.06.62-.25,1.44-.99,1.35Z" fill="#9c5f3c"/>
    <path d="M55.07,132.69c-.27.02-.56-.08-.65-.35.29-.03.49.13.65.35Z" fill="#462718"/>
    <path d="M48.26,109.53c.06-.15.1-.43.32-.36-.07.15-.15.31-.32.36Z" fill="#462718"/>
    <path d="M42.98,113.41c.07-.15.16-.3.33-.36-.06.15-.11.44-.33.36Z" fill="#30352c"/>
    <path d="M42.1,118.32c-.03-.13.13-.46.31-.35-.07.15-.14.3-.31.35Z" fill="#462718"/>
    <path d="M43.64,119.9c-.13-.23.23-.26.38-.26.14.22-.23.29-.38.26Z" fill="#462718"/>
    <path d="M44.62,119.64l.39-.04c-.09.23-.25.18-.39.04Z" fill="#462718"/>
    <path d="M47.18,126.77c-.2,0-.32-.12-.27-.32.09.09.22.2.27.32Z" fill="#462718"/>
    <path d="M48.89,127.07c-.12-.09-.24-.22-.3-.35.13.09.23.21.3.35Z" fill="#462718"/>
    <path d="M42.4,128.41c-.15-.08-.26-.21-.32-.36.24-.14.31.2.32.36Z" fill="#462718"/>
    <path d="M42.73,129.05c-.13-.07-.31-.17-.32-.32.15.05.26.17.32.32Z" fill="#462718"/>
    <path d="M50.86,129c-.14-.05-.21-.24-.33-.31.19,0,.37.09.33.31Z" fill="#462718"/>
    <path d="M43.07,129.69c-.15-.05-.26-.16-.32-.31.16.02.3.15.32.31Z" fill="#462718"/>
    <path d="M51.84,129.65c-.13-.03-.24-.2-.33-.29.17.02.45.02.33.29Z" fill="#462718"/>
    <path d="M56.04,133.29c-.09-.11-.28-.13-.35-.28.14.06.25.17.35.28Z" fill="#462718"/>
    <path d="M74.97,87.36c-1.35,1.09-3.23,1.38-4.85,2.31-1.06.6-2,1.28-3.05,1.57-.56-.55,5.77-3.34,5.8-3.36.66-.52,1.39-.66,2.09-.52Z" fill="#462718"/>
    <path d="M58.38,97.42c-.11.5-.55.79-1.05.74.08-.29.02-.66.3-.91.19-.17.54-.02.75.17Z" fill="#181817"/>
    <path d="M76.92,86.69c-.22.52-.89.56-1.4.64-.21-.42.28-.65.56-.67.31-.02.56.01.84.03Z" fill="#462718"/>
    <path d="M146.43,93.81c.51,1.25-.21,2.36-1.03,2.89-1.05.69-2.26.46-3.16-.32s-1.22-2.09-.49-3.15c.56-.82,1.47-1.08,2.38-.99.76.07,1.85.49,2.29,1.57Z" fill="#30352c"/>
    <path d="M146.93,103.26c-.79.63-2.12.62-2.95.02.98.03,1.97.06,2.95-.02Z" fill="#6a8b49"/>
    <path d="M199.02,13.46c0-2.54-1.65-4.82-2.81-6.69-2.31-3.7-5.81-5.61-10.11-6.77H12.98C6.07,1.59,1.25,6.59,0,13.51l.14,273.37c0,7.87,7.36,14.78,15.01,14.79l169.98.12c7.4-1.34,13.1-6.63,13.93-14.28l-.02-274.05ZM176.01,174.09c-.56.49-.91,1.09-1.64,1-.68,1.38-.79,2.97-1.35,4.56-1.37,3.93-2.9,7.8-3.38,11.98-.33,2.82-.94,5.69-3.07,7.46-.07.11-.1.27-.15.4-.15.41-.38.83-.85.87-.93,1.41-2.4,2.34-3.41,3.68-1.6,1.8-.3,4.37-2.81,5.75-.18.1-.45.05-.64.13.18,2.38-9.6-2.22-9.18-2.97-.09,0-.18.01-.26,0-1.82-.24-3.85-2.79-11.01-3.43-2.46-.22-4.97-.99-6.56-2.66l-.44-.16c-.89-.32-1.89-.81-2.21-1.77-.13-.08-.29-.1-.42-.19-.47-.32-1.07-.56-1.2-1.15-.13-.06-.28-.11-.42-.16-.41-.14-.83-.36-.91-.82-.11-.04-.25-.02-.35-.07l-5.76-3.15c-.41-.22-.97-.29-.8-.78-.06-.03-.17,0-.24,0-.24.02-.5,0-.69-.23-.11-.12-.21-.27-.05-.44l-.59-.32c-.18-.1-.51.01-.62-.22-.08-.16-.07-.34-.07-.48v-.24c-.3.19-.55-.08-.6-.27-.23-.85.29-3.27.94-2.78.05-.16.13-.32.22-.47-2.68-.32-5.44.21-8.23-.29l-3.35-.59c-14.12-2.51-22.78-12.89-33.43-14.67-2.66-.45-5.55-.49-8.27-.06l-14.46,2.29c-3.76.6-11.9.23-15.97-.74-7.55-1.79-11.72-6.27-12.74-13.96-.46-3.45,0-6.84.84-10.23l2.12-8.59c2.96-11.99-8.39-21.98-10.59-36.67-1.46-9.74,2.87-18.96,11.28-23.88,13.15-7.7,19.84-1.93,31.84-8.95,9.61-5.62,17.89-19.93,32.87-21.78,3.16-.39,6.35-.23,9.59-.1,1.76.07,9.46,2.3,10.48,4.09.95.31,1.83.91,2.72,1.61l9.95,7.87c.6.48,1.67.48,1.69,1.29,1.43.11,2.66,1.39,3.85,1.63,1.83.38,3.6,1.27,5.59,1.56,4.13.59,8.03-.3,12.05-1.43,10.18-2.87,21.07-3.75,29.61,3.54,7.06,6.02,10.7,15.2,9.11,24.47-.48,2.79-3.39,11.67-5.5,12.98-.03.08-.02.21-.02.3,0,1.16-3.75,8.01-3.3,13.68l.05.66c.47.57.23,1.35.25,2.04l.02.53c1.8,6.67,4.42,10.76,7.08,17.69,4.45,11.58,2.98,24.28-6.64,32.62Z" fill="#fff"/>
    <g>
      <path d="M44.99,243.36h-6.47v5.29h7.52v1.61h-9.48v-14.93h9.38v1.61h-7.41v4.81h6.47v1.61Z"/>
      <path d="M51.58,247.69l2.75-8.52h1.94l-3.98,11.09h-1.45l-4.02-11.09h1.94l2.82,8.52Z"/>
      <path d="M58.11,236.23c0-.31.09-.57.28-.78.19-.21.47-.32.84-.32s.65.11.84.32.29.47.29.78-.1.56-.29.77-.47.31-.84.31-.65-.1-.84-.31c-.19-.21-.28-.46-.28-.77ZM60.16,250.26h-1.9v-11.09h1.9v11.09Z"/>
      <path d="M65.76,236.48v2.69h2.07v1.47h-2.07v6.89c0,.44.09.78.28,1s.5.33.94.33c.22,0,.52-.04.9-.12v1.53c-.5.14-.98.2-1.46.2-.85,0-1.49-.26-1.92-.77-.43-.51-.65-1.24-.65-2.18v-6.88h-2.02v-1.47h2.02v-2.69h1.9Z"/>
      <path d="M76.9,250.26c-.11-.22-.2-.61-.27-1.17-.88.92-1.93,1.37-3.16,1.37-1.09,0-1.99-.31-2.69-.93-.7-.62-1.05-1.4-1.05-2.35,0-1.16.44-2.05,1.32-2.69.88-.64,2.11-.96,3.71-.96h1.85v-.87c0-.66-.2-1.19-.59-1.58-.4-.39-.98-.59-1.75-.59-.68,0-1.24.17-1.7.51-.46.34-.69.76-.69,1.24h-1.91c0-.55.2-1.09.59-1.6.39-.52.93-.92,1.6-1.23.67-.3,1.41-.45,2.22-.45,1.28,0,2.28.32,3,.96.72.64,1.1,1.52,1.13,2.64v5.11c0,1.02.13,1.83.39,2.43v.16h-1.99ZM73.75,248.82c.59,0,1.16-.15,1.69-.46s.92-.71,1.16-1.2v-2.28h-1.49c-2.32,0-3.49.68-3.49,2.04,0,.59.2,1.06.59,1.39s.91.5,1.53.5Z"/>
      <path d="M86.84,240.87c-.29-.05-.6-.07-.93-.07-1.24,0-2.09.53-2.53,1.59v7.88h-1.9v-11.09h1.85l.03,1.28c.62-.99,1.5-1.49,2.65-1.49.37,0,.65.05.84.14v1.76Z"/>
      <path d="M100.24,247.32c0-.51-.19-.91-.58-1.19-.39-.28-1.06-.53-2.02-.73-.96-.21-1.72-.45-2.29-.74-.56-.29-.98-.63-1.25-1.03-.27-.4-.41-.87-.41-1.41,0-.91.38-1.68,1.15-2.31.77-.63,1.75-.94,2.95-.94,1.26,0,2.28.33,3.06.97.78.65,1.17,1.48,1.17,2.49h-1.91c0-.52-.22-.97-.66-1.34-.44-.38-1-.56-1.67-.56s-1.23.15-1.62.45-.58.69-.58,1.18c0,.46.18.8.54,1.04s1.02.46,1.96.67c.95.21,1.71.46,2.3.76.59.29,1.02.65,1.31,1.06.28.41.43.92.43,1.51,0,.99-.4,1.79-1.19,2.38-.79.6-1.82.9-3.09.9-.89,0-1.67-.16-2.36-.47s-1.22-.75-1.6-1.32c-.39-.56-.58-1.17-.58-1.83h1.9c.03.63.29,1.14.76,1.51.48.37,1.1.56,1.88.56.72,0,1.29-.14,1.73-.44.43-.29.65-.68.65-1.16Z"/>
      <path d="M111.46,250.26c-.11-.22-.2-.61-.27-1.17-.88.92-1.93,1.37-3.16,1.37-1.09,0-1.99-.31-2.69-.93-.7-.62-1.05-1.4-1.05-2.35,0-1.16.44-2.05,1.32-2.69.88-.64,2.11-.96,3.71-.96h1.85v-.87c0-.66-.2-1.19-.59-1.58-.4-.39-.98-.59-1.75-.59-.68,0-1.24.17-1.7.51-.46.34-.69.76-.69,1.24h-1.91c0-.55.2-1.09.59-1.6.39-.52.93-.92,1.6-1.23.67-.3,1.41-.45,2.22-.45,1.28,0,2.28.32,3,.96.72.64,1.1,1.52,1.13,2.64v5.11c0,1.02.13,1.83.39,2.43v.16h-1.99ZM108.31,248.82c.59,0,1.16-.15,1.69-.46s.92-.71,1.16-1.2v-2.28h-1.49c-2.32,0-3.49.68-3.49,2.04,0,.59.2,1.06.59,1.39s.91.5,1.53.5Z"/>
      <path d="M120.48,248.92c.68,0,1.27-.21,1.77-.62s.79-.92.84-1.54h1.79c-.03.63-.25,1.24-.66,1.81s-.94,1.03-1.62,1.37c-.67.34-1.39.51-2.14.51-1.51,0-2.71-.5-3.6-1.51-.89-1.01-1.34-2.39-1.34-4.14v-.32c0-1.08.2-2.04.59-2.88.4-.84.97-1.49,1.71-1.96.74-.46,1.62-.7,2.63-.7,1.24,0,2.28.37,3.1,1.12.82.75,1.26,1.71,1.32,2.9h-1.79c-.05-.72-.33-1.31-.82-1.77-.49-.46-1.09-.69-1.81-.69-.96,0-1.71.35-2.24,1.04-.53.69-.79,1.7-.79,3.01v.36c0,1.28.26,2.26.79,2.95s1.28,1.04,2.26,1.04Z"/>
      <path d="M126.52,244.61c0-1.09.21-2.06.64-2.93.43-.87,1.02-1.54,1.78-2.01.76-.47,1.63-.71,2.61-.71,1.51,0,2.73.52,3.67,1.57.93,1.04,1.4,2.44,1.4,4.17v.13c0,1.08-.21,2.05-.62,2.91-.41.86-1,1.53-1.77,2-.77.48-1.65.72-2.65.72-1.5,0-2.72-.52-3.66-1.57-.93-1.05-1.4-2.43-1.4-4.15v-.13ZM128.43,244.84c0,1.23.29,2.22.86,2.96.57.75,1.33,1.12,2.29,1.12s1.73-.38,2.3-1.13c.57-.75.85-1.81.85-3.17,0-1.22-.29-2.2-.87-2.96-.58-.75-1.34-1.13-2.3-1.13s-1.69.37-2.27,1.12-.86,1.81-.86,3.2Z"/>
      <path d="M141.06,250.26h-1.9v-15.75h1.9v15.75Z"/>
      <path d="M150.94,250.26c-.11-.22-.2-.61-.27-1.17-.88.92-1.93,1.37-3.16,1.37-1.09,0-1.99-.31-2.69-.93-.7-.62-1.05-1.4-1.05-2.35,0-1.16.44-2.05,1.32-2.69.88-.64,2.11-.96,3.71-.96h1.85v-.87c0-.66-.2-1.19-.59-1.58-.4-.39-.98-.59-1.75-.59-.68,0-1.24.17-1.7.51-.46.34-.69.76-.69,1.24h-1.91c0-.55.2-1.09.59-1.6.39-.52.93-.92,1.6-1.23.67-.3,1.41-.45,2.22-.45,1.28,0,2.28.32,3,.96.72.64,1.1,1.52,1.13,2.64v5.11c0,1.02.13,1.83.39,2.43v.16h-1.99ZM147.8,248.82c.59,0,1.16-.15,1.69-.46s.92-.71,1.16-1.2v-2.28h-1.49c-2.32,0-3.49.68-3.49,2.04,0,.59.2,1.06.59,1.39s.91.5,1.53.5Z"/>
      <path d="M161.98,247.32c0-.51-.19-.91-.58-1.19-.39-.28-1.06-.53-2.02-.73-.96-.21-1.72-.45-2.29-.74-.56-.29-.98-.63-1.25-1.03-.27-.4-.41-.87-.41-1.41,0-.91.38-1.68,1.15-2.31.77-.63,1.75-.94,2.95-.94,1.26,0,2.28.33,3.06.97.78.65,1.17,1.48,1.17,2.49h-1.91c0-.52-.22-.97-.66-1.34-.44-.38-1-.56-1.67-.56s-1.23.15-1.62.45-.58.69-.58,1.18c0,.46.18.8.54,1.04s1.02.46,1.96.67c.95.21,1.71.46,2.3.76.59.29,1.02.65,1.31,1.06.28.41.42.92.42,1.51,0,.99-.4,1.79-1.19,2.38-.79.6-1.82.9-3.09.9-.89,0-1.67-.16-2.36-.47s-1.22-.75-1.6-1.32c-.39-.56-.58-1.17-.58-1.83h1.9c.03.63.29,1.14.76,1.51.47.37,1.1.56,1.88.56.72,0,1.29-.14,1.73-.44.43-.29.65-.68.65-1.16Z"/>
      <path d="M68.51,270.04c0,1.69-.39,3.05-1.16,4.08-.77,1.03-1.82,1.55-3.14,1.55s-2.41-.43-3.18-1.28v5.34h-1.9v-15.36h1.73l.09,1.23c.77-.96,1.85-1.44,3.22-1.44s2.39.5,3.16,1.51c.78,1.01,1.16,2.4,1.16,4.19v.17ZM66.61,269.82c0-1.25-.27-2.24-.8-2.96-.53-.72-1.26-1.09-2.19-1.09-1.15,0-2.01.51-2.58,1.53v5.3c.57,1.01,1.44,1.52,2.6,1.52.91,0,1.63-.36,2.17-1.08.54-.72.8-1.79.8-3.21Z"/>
      <path d="M72.98,275.46h-1.9v-15.75h1.9v15.75Z"/>
      <path d="M82.86,275.46c-.11-.22-.2-.61-.27-1.17-.88.92-1.93,1.37-3.16,1.37-1.09,0-1.99-.31-2.69-.93-.7-.62-1.05-1.4-1.05-2.35,0-1.16.44-2.05,1.32-2.69.88-.64,2.11-.96,3.71-.96h1.85v-.87c0-.66-.2-1.19-.59-1.58-.4-.39-.98-.59-1.75-.59-.68,0-1.24.17-1.7.51-.46.34-.69.76-.69,1.24h-1.91c0-.55.2-1.09.59-1.6.39-.52.93-.92,1.6-1.23.67-.3,1.41-.45,2.22-.45,1.28,0,2.28.32,3,.96.72.64,1.1,1.52,1.13,2.64v5.11c0,1.02.13,1.83.39,2.43v.16h-1.99ZM79.71,274.02c.59,0,1.16-.15,1.69-.46s.92-.71,1.16-1.2v-2.28h-1.49c-2.32,0-3.49.68-3.49,2.04,0,.59.2,1.06.59,1.39s.91.5,1.53.5ZM81.47,259.71h2.3l-2.75,3.01h-1.53s1.98-3.01,1.98-3.01Z"/>
      <path d="M93.9,272.52c0-.51-.19-.91-.58-1.19-.39-.28-1.06-.53-2.02-.73-.96-.21-1.72-.45-2.29-.74-.56-.29-.98-.63-1.25-1.03-.27-.4-.41-.87-.41-1.41,0-.91.38-1.68,1.15-2.31.77-.63,1.75-.94,2.95-.94,1.26,0,2.28.33,3.06.97.78.65,1.17,1.48,1.17,2.49h-1.91c0-.52-.22-.97-.66-1.34-.44-.38-1-.56-1.67-.56s-1.23.15-1.62.45-.58.69-.58,1.18c0,.46.18.8.54,1.04s1.02.46,1.96.67c.95.21,1.71.46,2.3.76.59.29,1.02.65,1.31,1.06.28.41.42.92.42,1.51,0,.99-.4,1.79-1.19,2.38-.79.6-1.82.9-3.09.9-.89,0-1.67-.16-2.36-.47s-1.22-.75-1.6-1.32c-.39-.56-.58-1.17-.58-1.83h1.9c.03.63.29,1.14.76,1.51.47.37,1.1.56,1.88.56.72,0,1.29-.14,1.73-.44.43-.29.65-.68.65-1.16Z"/>
      <path d="M100.84,261.68v2.69h2.07v1.47h-2.07v6.89c0,.44.09.78.28,1s.5.33.94.33c.22,0,.52-.04.9-.12v1.53c-.5.14-.98.2-1.46.2-.85,0-1.49-.26-1.92-.77-.43-.51-.65-1.24-.65-2.18v-6.88h-2.02v-1.47h2.02v-2.69h1.9Z"/>
      <path d="M105.13,261.43c0-.31.09-.57.28-.78.19-.21.47-.32.84-.32s.65.11.84.32.29.47.29.78-.1.56-.29.77-.47.31-.84.31-.65-.1-.84-.31c-.19-.21-.28-.46-.28-.77ZM107.19,275.46h-1.9v-11.09h1.9v11.09Z"/>
      <path d="M114.67,274.12c.68,0,1.27-.21,1.77-.62s.79-.92.84-1.54h1.79c-.03.63-.25,1.24-.66,1.81s-.94,1.03-1.62,1.37c-.67.34-1.39.51-2.14.51-1.51,0-2.71-.5-3.6-1.51-.89-1.01-1.34-2.39-1.34-4.14v-.32c0-1.08.2-2.04.59-2.88.4-.84.96-1.49,1.71-1.96.74-.46,1.62-.7,2.63-.7,1.24,0,2.28.37,3.1,1.12.82.75,1.26,1.71,1.32,2.9h-1.79c-.05-.72-.33-1.31-.81-1.77-.49-.46-1.09-.69-1.81-.69-.96,0-1.71.35-2.24,1.04-.53.69-.79,1.7-.79,3.01v.36c0,1.28.26,2.26.79,2.95s1.28,1.04,2.26,1.04Z"/>
      <path d="M128.06,275.46c-.11-.22-.2-.61-.27-1.17-.88.92-1.93,1.37-3.16,1.37-1.09,0-1.99-.31-2.69-.93-.7-.62-1.05-1.4-1.05-2.35,0-1.16.44-2.05,1.32-2.69.88-.64,2.11-.96,3.71-.96h1.85v-.87c0-.66-.2-1.19-.59-1.58-.4-.39-.98-.59-1.75-.59-.68,0-1.24.17-1.7.51-.46.34-.69.76-.69,1.24h-1.91c0-.55.2-1.09.59-1.6.39-.52.93-.92,1.6-1.23.67-.3,1.41-.45,2.22-.45,1.28,0,2.28.32,3,.96.72.64,1.1,1.52,1.13,2.64v5.11c0,1.02.13,1.83.39,2.43v.16h-1.99ZM124.91,274.02c.59,0,1.16-.15,1.69-.46s.92-.71,1.16-1.2v-2.28h-1.49c-2.32,0-3.49.68-3.49,2.04,0,.59.2,1.06.59,1.39s.91.5,1.53.5Z"/>
      <path d="M139.1,272.52c0-.51-.19-.91-.58-1.19-.39-.28-1.06-.53-2.02-.73-.96-.21-1.72-.45-2.29-.74-.56-.29-.98-.63-1.25-1.03-.27-.4-.41-.87-.41-1.41,0-.91.38-1.68,1.15-2.31.77-.63,1.75-.94,2.95-.94,1.26,0,2.28.33,3.06.97.78.65,1.17,1.48,1.17,2.49h-1.91c0-.52-.22-.97-.66-1.34-.44-.38-1-.56-1.67-.56s-1.23.15-1.62.45-.58.69-.58,1.18c0,.46.18.8.54,1.04s1.02.46,1.96.67c.95.21,1.71.46,2.3.76.59.29,1.02.65,1.31,1.06.28.41.42.92.42,1.51,0,.99-.4,1.79-1.19,2.38-.79.6-1.82.9-3.09.9-.89,0-1.67-.16-2.36-.47s-1.22-.75-1.6-1.32c-.39-.56-.58-1.17-.58-1.83h1.9c.03.63.29,1.14.76,1.51.47.37,1.1.56,1.88.56.72,0,1.29-.14,1.73-.44.43-.29.65-.68.65-1.16Z"/>
    </g>
  </g>
</svg>