<?xml version="1.0" encoding="UTF-8"?>
<svg id="Layer_2" data-name="Layer 2" xmlns="http://www.w3.org/2000/svg" viewBox="0 0 199.34 302.62">
  <g id="Layer_1-2" data-name="Layer 1">
    <g>
      <path d="M177.54,76.79c.07.27.02.58-.21.61-.38.04-3.88.12-5.97.29l-3.87.31c-1.71.13-3.27.26-4.8.18.17-.07.15-.16.01-.26.13.06.41,0,.54-.02,1.55-.35,4.09-.24,5.51-.77.22-.08.71-.1.94-.09,1.02.21,2.43.04,3.63-.17,1.46-.24,2.87.02,4.2-.07Z" fill="#554e4e"/>
      <path d="M80.92,72.96c-.48,1.21-1.59,2.05-2.56,2.88.22-.68-.38-1.27-.47-1.96-.16-1.36,2.57-.85,3.03-.92Z" fill="#f2b594"/>
      <path d="M54.05,122.25c-2.53.18-5.09,0-7.63.04-.22-.21.08-.58.39-.59l6.53-.03c.44,0,.66.32.7.58Z" fill="#554e4e"/>
      <path d="M128.5,95.71c.21.36-.27.54-.65.67l-6.96,2.49c-.79-.63,7.3-3.13,7.61-3.16Z" fill="#554e4e"/>
      <path d="M74.49,98.31c-.26.07-.36-.36-.36-.69l-.04-4.59c0-.46.23-.77.4-.99.78-.76-.03,7.94,0,6.27Z" fill="#554e4e"/>
      <path d="M139.2,156.56c-.56-1.56-.7-3.32-.96-5,.11-.16.41-.07.47.17l.8,3.51c.14.62-.24.95-.31,1.32Z" fill="#554e4e"/>
      <path d="M110.29,110.36c.53.97-4.71.8-3.71,0,1.23.05,2.47-.09,3.71,0Z" fill="#554e4e"/>
      <path d="M115.05,169.46c-.04,1.23.38,2.6-.22,3.69-.55.12-.66-4.59.22-3.69Z" fill="#554e4e"/>
      <path d="M75.05,84.54c.14.83-.07,1.78.13,2.6l-.44.45c-.43-.13-.57-3.77.31-3.04Z" fill="#554e4e"/>
      <path d="M73.54,110.37c.84.75-3.37,1-3.06,0,1.01-.06,2.04-.13,3.06,0Z" fill="#554e4e"/>
      <path d="M100.84,123.38c.02-.9-.07-1.81,0-2.72.97-.14.67,2.38.43,2.66-.08.1-.24.22-.43.06Z" fill="#554e4e"/>
      <path d="M91.4,160.37c-.72.58-2.02.67-2.68,0,.79-.44,1.93-.49,2.68,0Z" fill="#554e4e"/>
      <path d="M161.93,78.09c0,.14.06.35-.01.47-.2.33-1.99.29-2.3-.1.52-.68,1.54-.3,2.32-.37Z" fill="#554e4e"/>
      <path d="M178.52,76.88l.36-.74-.05-.83.29-.06c-.02.34.44.71.21,1.29-.11.27-.31.7-.8.34Z" fill="#554e4e"/>
      <path d="M157.65,78.38l1.42.1c.42.99-1.86.5-2.12.47l.1-.52.6-.04Z" fill="#554e4e"/>
      <path d="M134.68,93.11c-.15.89-1.29,1.09-2.08,1.21.16-.86,1.29-1.12,2.08-1.21Z" fill="#554e4e"/>
      <path d="M138.56,91.13c-.09.94-1.26,1.05-2.03,1.28.08-.92,1.25-1.11,2.03-1.28Z" fill="#554e4e"/>
      <path d="M116.47,131.07c-.32,0-.76.09-1.16.07-.26-.01-.81-.11-.6-.61.62,0,1.84-.41,1.76.53Z" fill="#554e4e"/>
      <path d="M76.07,79.95c-.22.59-.16,1.34-.67,1.78-.6-.38.32-2.19.67-1.78Z" fill="#554e4e"/>
      <path d="M75.39,82.27c-.01.46.2,1.19-.32,1.41-.23-.23-.31-.54-.32-.85-.01-.36.24-.77.64-.56Z" fill="#554e4e"/>
      <path d="M45.87,122.3c-.12.29-.43.37-.72.38.13-.07-.06-.54.23-.63.17-.05.39.06.49.25Z" fill="#554e4e"/>
      <path d="M81.32,114.81c-.1.14-.27.32-.45.27-.14-.04-.21-.22-.29-.26-.1-.21.07-.23.23-.25.22-.03.61-.05.5.24Z" fill="#554e4e"/>
      <path d="M99.88,112.96c.2.26-.07.49-.27.55-.19.06-.37-.03-.51,0-.17-.18-.06-.31.07-.41.24-.19.49-.11.71-.13Z" fill="#554e4e"/>
      <path d="M112.86,108.09c.02-.28-.03-.69.32-.76.09.12.34.31.24.49-.12.2-.37.24-.55.27Z" fill="#554e4e"/>
      <path d="M139.83,166.3c-.17.04-.67.04-.67-.33l.06-7.89c.21-.22.59.08.59.39l.02,7.83Z" fill="#554e4e"/>
      <path d="M125.56,134.4c-1.03-.16-1.92-.84-2.97-1.32-1.88-.85-3.87-1.1-5.57-2-.41-1.11,9.75,2.73,8.54,3.32Z" fill="#554e4e"/>
      <path d="M112.22,130.52c.11.19-.15.27-.38.27h-6.16c-.31,0-.38-.49-.39-.6l5.94-.07c.46,0,.77.25.99.4Z" fill="#554e4e"/>
      <path d="M138.23,151.02c-.96-2.04-1.81-4.16-2.64-6.26.87-.22,2.77,4.8,2.64,6.26Z" fill="#554e4e"/>
      <path d="M156.41,79.01c-1.75.62-3.65.62-5.22,1.69-1.09-.49,5.89-2.67,5.22-1.69Z" fill="#554e4e"/>
      <path d="M79.65,119.67c-.49,1.4-.24,2.9-.37,4.37-.92.51-.99-4.62.37-4.37Z" fill="#554e4e"/>
      <path d="M131.97,139.54c-.89-.53-1.62-1.3-2.19-2.17.83.64,1.55,1.34,2.19,2.17Z" fill="#554e4e"/>
      <path d="M120.04,98.95c-.35,1.03-1.76,1.3-2.74,1.59.35-1.04,1.73-1.48,2.74-1.59Z" fill="#554e4e"/>
      <path d="M67.94,102.79c-.31.76-.05,1.74-.68,2.36-.51-.71-.27-2.23.68-2.36Z" fill="#554e4e"/>
      <path d="M131.75,94.41c-.17,1.01-1.52,1.13-2.4,1.22.25-.91,1.58-.99,2.4-1.22Z" fill="#554e4e"/>
      <path d="M67.59,107.76c-.55.2-.7-.4-.65-.88.03-.26.09-.59.32-.85.58.33.3,1.16.34,1.73Z" fill="#554e4e"/>
      <path d="M116.44,166.94c-.28.76-.89,1.35-1.39,1.98-.57-.84.54-1.81,1.39-1.98Z" fill="#554e4e"/>
      <path d="M133.88,141.8c-.42-.12-.58-.54-.83-.86.4.14.73.44.83.86Z" fill="#554e4e"/>
      <path d="M150.8,80.78c-.05.5-.39.89-.9.89-.07-.55.45-.75.9-.89Z" fill="#554e4e"/>
      <path d="M70.93,100.84c-.13.44-.73.3-1.09.32-.23-.35.17-.66.52-.64.18,0,.4.21.57.32Z" fill="#554e4e"/>
      <path d="M141.48,89.16c.13.25-.03.51-.24.6-.17.07-.35.08-.5.07-.17-.17-.05-.3.06-.42.2-.24.45-.2.68-.24Z" fill="#554e4e"/>
      <path d="M128.46,136.35c-.15.01-.31,0-.48-.07-.21-.08-.32-.34-.23-.58.22-.02.49,0,.62.2.08.12.05.33.1.45Z" fill="#554e4e"/>
      <path d="M127.52,135.7c-.15,0-.34.02-.5-.07-.2-.1-.47-.37-.26-.61.24,0,.51,0,.7.24.11.13.24.28.06.44Z" fill="#554e4e"/>
      <path d="M126.52,135.02c-.15,0-.32.03-.49-.03-.22-.08-.4-.34-.24-.58.23-.02.49-.02.68.17.12.12.16.29.04.44Z" fill="#554e4e"/>
      <path d="M134.63,142.9c-.17.18-.32.05-.43-.06-.22-.21-.25-.47-.25-.71.25-.21.5.08.61.28.08.16.08.34.07.5Z" fill="#554e4e"/>
      <path d="M82.64,114.24c-.02.22-.1.48-.28.53-.2.06-.36.03-.5.03-.17-.18-.06-.31.07-.42.23-.18.48-.19.71-.15Z" fill="#554e4e"/>
      <path d="M135.26,143.88c-.16.17-.3.05-.43-.06-.22-.19-.24-.45-.2-.68.26-.18.48.05.56.25.07.18.03.35.07.5Z" fill="#554e4e"/>
      <path d="M69.34,101.2c-.21.64-.72,1.22-1.4,1.35.1-.72.67-1.3,1.4-1.35Z" fill="#554e4e"/>
      <path d="M74.46,100.54c0,.19.13.53-.18.67-.28.12-.41-.27-.54-.36.11-.29.45-.29.72-.31Z" fill="#554e4e"/>
      <path d="M142.78,88.18c.07.24-.02.48-.23.57-.16.08-.34.05-.48.09-.04-.15-.02-.31.05-.44.14-.24.47-.13.65-.22Z" fill="#554e4e"/>
      <path d="M140.51,89.83c.14.25-.03.5-.24.58-.18.06-.35.08-.5.07-.16-.16-.06-.31.05-.45.18-.22.45-.24.69-.19Z" fill="#554e4e"/>
      <path d="M79.68,113.13c-.13-.02-.23-.18-.32-.27.15.03.44.01.32.27Z" fill="#323337"/>
      <path d="M157.05,78.42l-.1.52c-.16-.02-.39.01-.54.06.67-.99-6.3,1.19-5.22,1.69-.1.07-.28.05-.39.09-.45.14-.97.34-.9.89-.23.12-.47.25-.69.39-1.12.73-2.07,1.72-2.82,2.82-.29.43-.66.79-1.09,1.08-.61.39-1.16.88-1.53,1.51-.34.21-.63.52-.99.7-.18.09-.51-.02-.65.22-.07.13-.09.29-.05.44-.2.06-.38.27-.59.32-.22.05-.48,0-.68.24-.1.13-.23.25-.06.42-.08,0-.16.02-.24,0-.24-.05-.51-.03-.69.19-.11.14-.21.29-.05.45-.08,0-.16.02-.24,0-.24-.05-.51-.03-.69.19-.12.14-.22.29-.05.45-.08,0-.16-.01-.24,0-.78.17-1.95.36-2.03,1.28-.65.19-1.16.62-1.85.7-.79.09-1.92.35-2.08,1.21-.28.04-.58.01-.85.09-.82.23-2.15.31-2.4,1.22l-.86.08c-.31.03-8.4,2.53-7.61,3.16l-.85.09c-1.01.1-2.39.55-2.74,1.59-.53.16-1.02.39-1.51.66-.18.1-.5-.03-.68.24-.08.12-.24.23-.07.41-.79.33-1.62.73-1.94,1.56-.21.07-.39.34-.28.55s.37.47.58.25c.04,1.03.05,2.14-.23,3.13-.34.07-.3.49-.32.76-.26,1.24-1.3,2.2-2.58,2.27-1.23-.09-2.48.05-3.71,0l-.93-.04c-.11-.39-.09-.95.49-.96.25,0,.53-.29.87-.36.57-.1,1.31-.06,1.86-.04.23.03.44.63.81.34.19-.15.26-.38.25-.62,1.77-.43,1.97-2.69,1.3-4.42-2.09,1.17-3.54,2.65-5.22,3.87-.73.53-1.31,1.1-1.33,2.18-1.6-.11-2.98,2.47-4.81,2.65-.22.02-.47-.06-.71.13-.13.1-.23.24-.07.41-1.21.18-2.38-.21-3.51-.63-.12-.12-.08-.49-.23-.51-.12-.02-.49-.02-.5.09l-.12,3.37c-.03.94.3,1.7-.14,2.6,1.14-.18,2.11.24,2.97-.24.22.13.63-.05.87,0-.22.26.09.48.28.53.18.05.35.05.5.02.88.26,1.55,1,1.61,1.93-.07.91.02,1.82,0,2.72v.54c-.38,0-.29.51-.33.76-.17,1.16,1.18,1.75,1.97,2.92.67.98,1.5,1.86,2.49,2.51.09.06.23.03.32.08,0,.11.08.61.39.61h6.16c.24,0,.49-.08.38-.27l2.49.02c-.21.5.34.59.6.61.4.02.84-.08,1.16-.07h.55c1.7.9,3.69,1.15,5.57,2.01,1.05.48,1.94,1.16,2.97,1.32.07.01.16.01.24,0-.17.24.02.5.24.58.17.06.34.03.49.03h.24c-.21.24.06.51.26.61.16.08.34.07.5.07.08,0,.16,0,.24,0-.09.24.01.5.23.58.17.06.34.08.48.07l1.33,1.02c.56.86,1.3,1.64,2.19,2.17l1.08,1.4c.25.32.41.74.83.86.03.1.07.22.07.33,0,.24.02.5.25.71.12.11.27.24.43.06,0,.08.02.16,0,.24-.04.24-.02.49.2.68.13.11.27.23.43.06.07.31.22.59.33.88.83,2.1,1.68,4.23,2.64,6.26-.02.17-.01.37.01.54.25,1.67.4,3.43.96,5-.09.47.03,1.03.02,1.51l-.06,7.89c0,.37.5.37.67.33.07-.02.17.02.25.01-.01.72.8.86,1.39.95.29.33.93.67.95,1.23l.04,5.99c-.03.62-.64.86-.98,1.23-.79.3-1.63.33-2.65.34l-21.83.03c-.17,0-.36-.01-.53-.04-.48-.68-.8-1.72-1.63-2.02.02-.29-.01-.58-.01-.87.6-1.09.18-2.45.22-3.69,0-.15.05-.41,0-.54.49-.63,1.1-1.22,1.39-1.98.08-.02.16.02.24,0,.35-.1,1.23-.09,1.3-.66.05-.36.35-4.52-.54-3.65.03-.18-.02-.37,0-.55.41-.69.54-1.8-.1-2.36v-.54c-.03-.94-.23-2.15-1.26-2.37-.37-.38-.71-1.05-1.26-1.26.1-.25-.03-.5-.23-.59-.18-.08-.35-.07-.5-.09-.11-.02-.24-.04-.34-.08-.42-1.08-1.87-1.25-2.93-1.48-.13-.03-.41-.04-.54-.01.07-.27-.36-.35-.7-.35l-3.61-.03c-.48,0-.7.33-.68.64-.27.02-.41.33-.63.42-.56.21-1.02.61-1.21,1.19-.34.21-.63.52-.99.7-.19.09-.51-.02-.66.23-.07.12-.1.29-.05.44l-.59.32c-.6.09-1.44.24-1.37.97-.07,0-.16-.02-.23,0-2.14.66-4.17,1.68-6.56,1.96-.27.03-.47.07-.64.19-.13.09-.24.22-.07.41-.29-.03-.58.01-.87.01-.75-.49-1.89-.44-2.68,0-.18.02-.37-.04-.55,0,.22-.31-.12-.49-.31-.55-.16-.05-.45-.03-.71-.06-2.65-.28-4.87-1.49-7.21-2.25-.07-.02-.16,0-.24,0,.21-.23-.04-.51-.25-.61-.15-.08-.34-.02-.49-.03h-.24c.18-.25-.05-.47-.25-.59-.15-.09-.34-.02-.48-.08-.23-.11-.45-.25-.66-.39-.65-.83-1.35-1.76-2.33-2.45-.56-.3-1.74-.36-2.52-.37l-12.33-.02c-1.15,0-2.16.4-3.37.18.11,1.46-.08,2.57-.25,4.03.64,1.51-.33,3.66-2.1,3.78-2.74.19-5.52.22-8.26-.07-1.73-.18-2.36-1.9-2.35-3.43l.07-32.15c0-.68.38-1.18.31-1.7.24-.3.56-.79.95-.94.29-.01.6-.09.72-.38h.54c2.54-.05,5.09.13,7.63-.04.93-.05,1.74.6,2.19,1.36.05.54.21,1.09.7,1.38.69,2.36-.47,3.93.27,5.48.07.16-.1.65.35.66l15.62.04c.66,0,.93-.21,1.02-.64,2.14-.93,3.78-3.13,5.5-4.83-.23-.77-.36-1.17-.41-1.67.13-1.47-.12-2.96.37-4.37.17-.36.4-.9.93-.91.22.01.45-.01.69-.18.11-.07.27-.18.09-.37.38-.03.8.02,1.17-.05.23.43,1.15.44,1.38,0,.38.07.82-.04,1.22-.01,1.36,2.45.23-6.5.8-7.54-1.06.02-1.3,1.33-1.12,1.94-.84.44-1.18,1.5-2.18,1.69-.22-.04-.48-.03-.71.15-.13.1-.24.24-.07.42h-.55c.11-.29-.28-.27-.5-.24-.16.03-.34.04-.23.25-2.73-.16-3.41-2.96-4.34-4.06-.61-.72-1.95-.3-2.7-.4-1.01-.13-2.04-.07-3.06,0-.94.08-1.77-.54-2.21-1.32.03-.24-.02-.48-.24-.69-.1-.1-.24-.22-.41-.08l-.04-.51c-.04-.57.25-1.4-.34-1.73v-.89c.63-.61.37-1.59.68-2.36.03-.07,0-.16,0-.24.68-.14,1.19-.71,1.4-1.35l.51-.04c.36-.02.96.12,1.09-.32h2.81c.13.09.26.48.54.36.31-.14.18-.47.18-.67l.03-2.22c-.02,1.67.78-7.03,0-6.27l.24-4.46.44-.45c.34.41.83,1.09.92,1.67.14.95-.02,1.95-.02,2.9-.21-.19-.64.05-.64.36v6.77c0,.36-.21.72,0,.89.19.16.42.16.61.17l.08.89c.07.74.62.69,1.3.79.04.2.12.63.6.62l6.39-.13,2.32-2.23c3.35-.85,4.83-2.06,8.35.75,1.24-1.46,2.07-2.87,3.44-3.68.21.03.46.11.53.27.11.25.01.51-.23.74-2.38,2.23-5.5,7.96-4.02,11.27.61,1.37,1.47,3.39,3.38,3.29.99-.06,2.2-1.02,2.89-1.6.02-.08-.02-.18.02-.25.77.18,1.26-.47,1.65-1.07.06-.09.2-.14.24-.24,1.38.17.87-.5,2-1.69,2.21-2.33,4.86-4.28,7.5-6.1-.17.54,3.85-2.02,3-1.98.07-.04.2.03.28,0l4.14-1.69c.49-.2,1.23-.39,1.11-.91.09,0,.19-.02.28,0,.34.07.89.1,1.23-.17.19-.15.3-.47.42-.75.16-.07.39.01.56-.02,4.23-.75,8.19-2.87,12.28-4.74.46-.21.98-.3.84-.82.08-.04.2.01.28,0,2.18-.55,4.23-2.08,5.53-3.92l.93-.62c4.39-2.91,4.38-5.83,10.08-7.6,1.24-.39,2.53-.47,3.62.12ZM89.68,100.82c-.18-.03-.36.03-.54.01.08-.31-.38-.38-.54-.28-.23.15-.4.44-.21.64-1.11.4-2.19,1.15-2.64,2.26-.39-.02-.78-.01-1.17.02-1.07-.69-2.4-.41-3.59-.7-.19-.05-.35-.3-.55-.28-.31.03-.77-.05-.78.34-1.06-.08-2.44-.33-3.52-.3-.08-.06-.18-.17-.3-.24-.19-.1-.34.18-.48.2-1.18.13-2.42-.23-3.67-.18-1.47.06-2.55,1.11-2.49,2.4-.51.05-.63.48-.65.87-.02.58.03,1.14.65,1.21-.03.87.43,1.71,1.31,1.89.01.19.02.5.25.6.21.1.39-.2.49-.32,2.54-.1,5.15-.37,7.7-.23.03.17.05.32.11.44.07.15.24.24.4.16.19-.09.23-.38.25-.6,1.14-.19,5.42.48,5.19-1.29.22,0,.44-.03.67-.06.36.4.71.82,1.24.97,0,.76-.05,1.52.88,1.64.19.13.11.7.73.69l3.27-.06c.32,0,.58-.37.38-.59l.85-.05c.21-.01.6.12.72-.16.14-.32-.11-.7-.36-.86l-.05-.93c-.05-.95.2-1.91.13-2.86.07,1.22,2.17-4.22.6-3.34-.48-.64-1.38-1.04-2.2-1,.16-.7-.68-.63-1.2-.63-.37,0-1.07.03-.88.63ZM78.39,111.54c-.58.23-.1.63.32.43.03.08-.03.2.01.27.07.13.21.21.31.31l.33.32c.09.09.19.24.32.27l.6.1c.03.17.05.35.09.47.1.3.51.23.74.17.22-.06.39-.42.22-.63l.58-.04c.15,0,.33.06.49-.01.23-.11.35-.39.21-.63.07-.03.17.01.25-.01.46-.14.56-.59.71-.99.16-.45.43-.89.25-1.52l-5.68.03c-.12.6.13,1.02.26,1.47ZM87.43,111.99c-.08,1.99-.36,3.93.12,6.13,1.91.06,3.75.12,5.74-.02l.05-6.44c.22.09.28-.11.3-.23.04-.2,0-.43-.17-.47-.24-.07-.61.02-.55.31l-1.5.04c.59-.57-5.71-.66-3.99.68ZM81.57,120.07c-1.02.37-.98,1.6-.91,2.55-.15.15-.34.34-.38.56-.07.47.47.41.67.52.08.53.31.87.98.87l9.04.04c-.56,0,7.83,1.21,8.16-.36.23-1.09.84-3.83-.88-4.21.62-1.06-4.76-.64-4.02-.26h-11.91c-.08-.1-.18-.25-.3-.31-.16-.07-.31,0-.36.13-.06.16-.07.32-.08.47ZM45.47,125.22c-.71,5.74-.02,11.61-.35,17.59.12.24.17.51.35.41l.03.89-.07,14.06c0,.86.56,1.51,1.43,1.51l6.77.05c1.02,0,1.59-.64,1.59-1.6v-14.02s.04-18.22.04-18.22c0-.51.05-1.68-.7-1.84-2.62-.55-5.29-.44-7.88-.25-.96.07-1.14.81-1.22,1.42ZM81.57,126.87l-6.6,5.34c-3.13.61-6.53.05-9.63.29-2.52.2-5.14-.39-7.98.16-.71,1.37-.28,3.11-.36,4.59-.14,2.73-.05,5.46-.02,8.19.02,2.08-.19,4.17.02,6.43l18.84.05c2.81,3.12,6.21,5.55,10.26,6.25-.18.21,0,.44.25.59.18.11.37-.25.53-.3.72-.02,1.74.17,2.49.27.28.04.51.47.86.42.41-.07,1.1-.05.89-.65l1.51-.03c.18.05.37.32.55.31.38-.02.76-.27.54-.62,2.49-.05,4.69-1.43,6.85-2.9,1.35-.92,2.22-2.68,3.75-3.38,5.13-1.23,12.97.31,14.11,6.16.03.14-.05.32,0,.51.05.2.26.51.53.28l.03.85c0,.18-.32.32-.27.54s.22.39.34.54l.29,5.18c-.02.12-.2.49-.04.66,1.61-.12,3.98.78,4.67-.06.2,0,.41-.08.62-.07,3.02.15,6.06.08,9.09,0,1.25-.03,2.57.15,3.82.04.11.11.12.34.24.37.14.04.41-.02.48-.17.14-.3-.17-.44-.36-.55l-.02-8.35c.12-.09.24-.21.31-.3.12-.18.05-.3-.1-.4-.17-.11-.29-.19-.44-.05.04-.37-.12-.82-.03-1.17.1-.29.4-.53.36-.87s-.23-.77-.65-.56c.01-.15-.08-.4-.02-.54.78.28-.87-5.34-1.32-4.36-.08-.25,0-.57-.06-.83-.03-.15.08-.33,0-.51-.09-.2-.34-.48-.59-.27l-1.34-3.13c-.06-.13.06-.34-.02-.51-.1-.21-.37-.41-.61-.23v-.25c-.01-.14,0-.31-.05-.5-.07-.22-.42-.17-.59-.23-.49-.77-1.36-1.44-1.7-2.31s-1.21-1.21-1.8-1.82c-.72-.74-2.05-1.19-2.66-2-1.11-1.47-2.94-1.95-4.57-2.64-2.85-1.22-5.88-2.05-9.02-2,.22-.46-.28-.57-.57-.64-.45-.1-.83.19-1.12.36l-5.59.05c-.55.14-1.14-.35-1.62-.43l-4.09-4.56c-.8-.89-1.41-.86-2.32-.86l-14.98-.1c-.68,0-.76.48-1.03.67ZM128.05,168.18l-2.56.03c-2.51.03-5.07-.16-7.73.05-2,.16-1.45,5.9-.59,6.28,2.67.56,5.44.12,8.02.14l13.98.07c.61,0,1.19-.15,1.61-.64.9,1.78,1.02-7.03,0-5.26-.33-.39-.8-.67-1.56-.65.18-.2-.06-.62-.37-.62h-5.21c-.31,0-.58.4-.38.6-.11,0-.25-.02-.53,0,.2-.21-.06-.59-.38-.59h-3.91c-.32,0-.57.38-.38.59Z" fill="#1e1e1e"/>
      <path d="M136.8,215.76c-5.15,4.34-12.24,3.62-16.69-1.15-3.71-3.98-4.19-9.6-2.12-14.6,1.35-3.24,2.96-6.17,4.8-9.17l6.04-9.83c4.24,6.29,8.6,12.9,11.25,19.73,2.06,5.31,1.22,11.22-3.28,15.02ZM139.17,204.45c-.88-6.04-6.75-14.46-10.12-19.92-1.32,1.23-1.87,2.68-2.74,4.06-2.45,3.94-4.65,7.78-6.54,12.02-2.37,5.3-1.03,11.5,3.95,14.65,3.51,2.22,7.82,1.92,11.12-.38s4.96-6.09,4.33-10.44Z" fill="#323337"/>
      <path d="M44.21,123.62c.08.52-.3,1.02-.31,1.7l-.07,32.15c0,1.53.62,3.25,2.35,3.43,2.73.29,5.51.25,8.26.07,1.77-.12,2.74-2.27,2.1-3.78.17-1.46.36-2.57.25-4.03,1.21.22,2.21-.19,3.37-.18l12.33.02c.78,0,1.96.06,2.52.37.98.69,1.68,1.62,2.33,2.45-.94-.59-1.76-1.3-2.65-2.28l-17.42.13c-.48,3.16,1.08,6.86-3.13,7.84-2.05.48-4.19.11-6.33.02-1.42-.06-2.61-.16-3.4-1.15s-1.08-2.1-1.08-3.59l-.09-31.72c0-.79.47-1.33.97-1.43Z" fill="#554e4e"/>
      <path d="M141.48,175.7c-.29.31-.22.98-1.08.98h-23c-.34,0-.59-.42-.4-.61l21.83-.03c1.01,0,1.86-.03,2.65-.34Z" fill="#554e4e"/>
      <path d="M74.19,130.53c-.09.43-.36.64-1.02.64l-15.62-.04c-.45,0-.27-.5-.35-.66l16.99.06Z" fill="#554e4e"/>
      <path d="M85.14,118.15c-.19-.88.62-5.97-.32-5.6-.18-.61.06-1.92,1.12-1.94-.56,1.05.57,9.99-.8,7.54Z" fill="#554e4e"/>
      <path d="M95.59,112.87c-.71-.66-.47,4.41-.38,4.95.86.42,1.7-.03,2.37.35-.86.48-1.83.07-2.97.24.44-.91.1-1.67.14-2.6l.12-3.37c0-.11.37-.1.5-.09.15.02.11.39.23.51Z" fill="#554e4e"/>
      <path d="M88.18,160.36c-1.66.28-8.19-1.6-8.24-2.85,2.34.76,4.56,1.97,7.21,2.25.26.03.56,0,.71.06.19.06.53.24.31.55Z" fill="#554e4e"/>
      <path d="M99.55,157.8c.13.59-.52.78-1.07.97-2.1.73-4.09,1.79-6.2,1.59-.18-.18-.06-.31.07-.41.18-.13.37-.16.64-.19,2.4-.28,4.43-1.3,6.56-1.96Z" fill="#554e4e"/>
      <path d="M142.46,174.47l-.04-5.99c.96-1.29.93,7.26.04,5.99Z" fill="#554e4e"/>
      <path d="M110.27,153.29c-1.54.65-3.34.15-4.99.25-.02-.31.21-.64.68-.64l3.61.03c.34,0,.77.08.7.35Z" fill="#554e4e"/>
      <path d="M116.68,166.94l.7-1.3c.48-.88-.08-2.07.06-3.01.9-.87.59,3.29.54,3.65-.08.57-.95.56-1.3.66Z" fill="#554e4e"/>
      <path d="M104.97,130.11c-1-.65-1.83-1.53-2.49-2.51,1.06.5,1.77,1.6,2.49,2.51Z" fill="#554e4e"/>
      <path d="M113.74,154.78c-.24-.11-4.36-1.73-2.93-1.48,1.06.23,2.5.4,2.93,1.48Z" fill="#554e4e"/>
      <path d="M117.43,162.08c-.68-.53-.51-1.68-.1-2.36.64.56.51,1.67.1,2.36Z" fill="#554e4e"/>
      <path d="M117.33,159.18c-.33.73-1.28-2.25-1.25-2.37,1.04.23,1.24,1.43,1.25,2.37Z" fill="#554e4e"/>
      <path d="M104.65,153.96c-.29.5-.71.9-1.21,1.19.19-.58.65-.98,1.21-1.19Z" fill="#554e4e"/>
      <path d="M141.47,167.26c-.59-.09-1.4-.23-1.39-.95.75-.07,1.23.27,1.39.95Z" fill="#554e4e"/>
      <path d="M83.93,118.16c-.23.43-1.15.43-1.38,0,.18-.04.33-.37.56-.4.36-.05.58.23.82.4Z" fill="#554e4e"/>
      <path d="M116.47,176.03c-.94-.15-1.69-1.07-1.63-2.02.83.3,1.15,1.33,1.63,2.02Z" fill="#554e4e"/>
      <path d="M101.15,156.83c.06.74-.75.93-1.37.97-.07-.73.77-.88,1.37-.97Z" fill="#554e4e"/>
      <path d="M56.94,124.99c-.48-.28-.65-.84-.7-1.38.26.07.55.16.76.42.25.31.11.67-.06.95Z" fill="#554e4e"/>
      <path d="M100.51,124.69c.04-.25-.05-.76.32-.76.16.13.35.37.28.52-.13.25-.4.43-.59.25Z" fill="#554e4e"/>
      <path d="M99.23,118.73c-.15.02-.31.03-.5-.02-.2-.05-.5-.27-.28-.53.2.05.48-.1.65.14.08.11.1.28.12.42Z" fill="#554e4e"/>
      <path d="M81.37,118.21c.17.18.02.29-.09.37-.25.17-.48.2-.69.18.02-.14.03-.32.11-.44.17-.24.46-.1.67-.11Z" fill="#554e4e"/>
      <path d="M114.81,155.54c-.2-.08-.51,0-.67-.23-.08-.12-.12-.28-.06-.44.15.03.32.02.5.09.21.09.34.33.23.59Z" fill="#554e4e"/>
      <path d="M102.45,155.86c.08.25-.03.47-.23.57-.16.08-.35.02-.48.09-.04-.15-.02-.31.05-.44.15-.24.47-.13.66-.23Z" fill="#554e4e"/>
      <path d="M78.72,156.85c-.24,0-.5,0-.68-.23-.1-.13-.2-.27-.05-.44.14.06.33,0,.48.08.19.12.43.33.25.58Z" fill="#554e4e"/>
      <path d="M68.28,109.04c-.19-.05-.52-.05-.58-.25s-.06-.37-.07-.51c.18-.14.31-.02.41.08.21.21.27.45.24.69Z" fill="#554e4e"/>
      <path d="M79.7,157.5c-.23,0-.49-.01-.69-.21-.11-.11-.16-.27-.05-.44.15,0,.34-.05.49.03.21.1.46.38.25.61Z" fill="#554e4e"/>
      <path d="M77.95,146.72c5.97,6.15,16.02,7.63,22.65,1.18,4.31-4.2,12.32-2.36,17.02-.13l3.37,3.5c2.35,2.44,3.43,6.01,3.49,9.46l.09,5.79c-.2-.01-.41.07-.62.07-.62-1-3.66.65-4.63-.6l-.29-5.18c.31.06.3-.36.29-.54-.01-.23-.05-.62-.35-.54l-.03-.85c0-.22.06-.48-.11-.72-.1-.14-.25-.24-.42-.07-1.14-5.85-8.98-7.39-14.11-6.16-1.53.71-2.4,2.47-3.75,3.38-2.16,1.47-4.36,2.85-6.85,2.9-.36,0-.98-.16-1.09.31l-1.51.03c-.57.01-1.34-.28-1.75.23-.75-.1-1.77-.29-2.49-.27-.03-.35-.53-.25-.78-.29-4.05-.7-7.45-3.13-10.26-6.25l-18.84-.05c-.21-2.26,0-4.35-.02-6.43l17.17.08c1.23,0,2.97.33,3.8,1.19Z" fill="#7f8c96"/>
      <path d="M97.58,126.31c.57,1.41,1.86,2.3,2.94,3.46,1.02,1.09,2.01,2.17,3.47,1.96.48.07,1.07.56,1.62.43-.92.96,6,.71,5.59.28.43-.12,1.22-.04,1.69-.05,3.14-.05,6.17.78,9.02,2-.13.53.42.55.89.68,1.44.4,2.48,1.37,3.69,1.96.61.81,1.94,1.26,2.66,2,.29.82.98,1.51,1.8,1.82.34.87,1.21,1.54,1.7,2.31,0,.22.02.48.21.66.1.1.28.12.43.06v.25c.02.23.04.47.23.67.12.13.24.23.41.07l1.34,3.13c.08.2,0,.47.18.71.1.13.21.26.4.07.05.26-.02.57.06.83.48,1.44.61,3.03,1.32,4.36-.06.13.03.38.02.54-.03.47-.19,1.17.29,1.43-.08.36.07.8.03,1.17-.02.22-.08.74.23.75l.02,8.35c-.13.11-.25.22-.35.35-1.25.11-2.57-.07-3.82-.04.75-4.18.43-8.68-.66-12.89-1.03-3.97-3.36-6.9-5.95-9.58-3.66-3.77-8.47-6.29-14-6.93-2.3-.27-4.69-.12-7.06-.15-3.55-.06-4.64-2.93-7.7-4.26-.87-.77-2.29-2.14-3.69-2.17-11.72-.31-7.95-.65-13.93,3.5l-4.25,2.95-17.56.04-1.87.25c.08-1.48-.36-3.23.36-4.59,2.84-.56,5.47.03,7.98-.16.04.19-.05,1.15.32,1.16l11.14.12c1.18-1.13,2.56-2.08,3.37-3.46l1.2-2.04c.19-.32.55-.52.5-.83-.04-.21-.19-.4-.3-.58.27-.19.35-.67,1.03-.67l14.98.1Z" fill="#b7c8cf"/>
      <path d="M98.3,132.71c.28.84-.6,1.47-.79,2.21-.29,1.1-.79,1.23-1.62,1.78-1.17.8-2,2.47-3.51,2.84-3.21.79-1.99,3.52-4.12,2.92-2.38-.67-1.39,1.85-4.15.76-3.7,3.24-5.92-.09-6.15,3.48-.83-.86-2.57-1.18-3.8-1.19l-17.17-.08c-.03-2.73-.12-5.46.02-8.19l1.87-.25,17.56-.04,4.25-2.95c5.97-4.14,2.21-3.81,13.93-3.5,1.4.04,2.81,1.4,3.69,2.17Z" fill="#99abb3"/>
      <path d="M127.05,144.05c2.59,2.68,4.92,5.61,5.95,9.58,1.09,4.21,1.41,8.71.66,12.89-3.03.07-6.07.14-9.09,0l-.09-5.79c-.06-3.45-1.14-7.01-3.49-9.46l-3.37-3.5c2.73-1.56.92.55,3.77-2.63,2.09.23,3.9-.25,5.66-1.08Z" fill="#99abb3"/>
      <path d="M55.21,144.11v14.02c.01.96-.56,1.61-1.58,1.6l-6.77-.05c-.87,0-1.44-.66-1.43-1.51l.07-14.06h9.7Z" fill="#7f8c96"/>
      <path d="M55.27,125.9l-.05,18.22h-9.7s-.03-.89-.03-.89c.34-.29.38-.76.38-1.33l.02-10.46c.69.13,1.05.88,1.2,1.57,3-1.92.3-2.08,4.81-2.97.44-.82,2.49-4.73,3.38-4.14Z" fill="#9fafb7"/>
      <path d="M128.05,168.18c1.75.06,3.21.08,4.67,0,.28-.02.42,0,.53,0,2.19.09,4.08.06,5.96.02.77-.02,1.23.26,1.56.65v5.26c-.42.49-1,.65-1.61.64l-13.98-.07c.28-2.15.21-4.31.3-6.47l2.56-.03Z" fill="#9fafb7"/>
      <path d="M75.36,102.49c-.1.28.27.35.54.32.14-.01.33-.08.24-.29,1.08-.03,2.46.22,3.52.3.22.13.47.44.8.36.26-.06.53-.09.53-.42,1.19.29,2.52.01,3.59.7.09.98.23,1.99.27,2.91l.05,1.06c.22,1.76-4.05,1.09-5.19,1.29h-.76c-2.55-.13-5.16.13-7.7.24-.02-.34-.51-.21-.74-.28-.88-.18-1.34-1.02-1.31-1.89.07-.69.07-1.39,0-2.08-.06-1.29,1.02-2.35,2.49-2.4,1.25-.05,2.49.31,3.67.18Z" fill="#99abb3"/>
      <path d="M94.23,119.77c1.23,0,2.67.63,4.02.26,1.72.38,1.11,3.12.88,4.21l-7.45.07c-.32,0-.75.04-.71.3l-9.04-.04c-.66,0-.9-.34-.98-.87-.05-.35.11-.92-.29-1.08-.06-.95-.11-2.18.91-2.55.27-.02.63,0,.74-.3h11.91Z" fill="#99abb3"/>
      <path d="M55.27,125.9c-.88-.59-2.94,3.31-3.38,4.14-4.51.9-1.81,1.05-4.81,2.97-.15-.69-.51-1.44-1.2-1.57l-.03-5.52c0-.32-.14-.77-.38-.7.08-.61.26-1.35,1.22-1.42,2.58-.18,5.25-.3,7.88.25.76.16.7,1.33.7,1.84Z" fill="#99abb3"/>
      <path d="M125.49,168.21c-.09,2.16-.02,4.32-.3,6.47-2.58-.01-5.34.43-8.02-.14-.86-.38-1.41-6.12.59-6.28,2.66-.21,5.22-.02,7.73-.05Z" fill="#7f8c96"/>
      <path d="M89.68,100.82c.69.1,1.38.03,2.08,0,.82-.04,1.73.36,2.2,1,.17,1.2-.68,2.15-.6,3.34.07.95-.19,1.92-.13,2.86-2.1.45-4.28.12-6.42.32-.53-.14-.89-.57-1.24-.97.05-.31-.09-.67-.02-.98.22-.98-.19-1.99.2-2.95.45-1.11,1.53-1.86,2.64-2.26.26-.09.54-.15.74-.36.18.01.37-.04.54-.01Z" fill="#9fafb7"/>
      <path d="M92.92,111.27c.07.19.23.33.42.4l-.05,6.44c-1.99.14-3.83.08-5.74.02-.48-2.2-.2-4.14-.12-6.13,1.1-.9,3.09.1,3.99-.68l1.5-.04Z" fill="#99abb3"/>
      <path d="M65.34,132.5c3.1-.24,6.49.32,9.63-.29l6.6-5.34c.11.18.26.37.3.58.05.31-.31.51-.5.83l-1.2,2.04c-.81,1.38-2.18,2.33-3.37,3.46l-11.14-.12c-.37,0-.28-.96-.32-1.16Z" fill="#9fafb7"/>
      <path d="M83.55,111.56c-.43.14-.69.54-.71.99-.08.02-.17-.02-.25.01-.31.12-.59.32-.69.64l-.58.04h-1.05s-.6-.1-.6-.1c.12-.25-.17-.23-.32-.27l-.33-.32c-.02-.17-.07-.41-.31-.31-.04-.07.02-.19-.01-.27-.07-.17-.19-.31-.32-.43-.13-.45-.38-.87-.26-1.47l5.68-.03c.17.63-.09,1.07-.25,1.52Z" fill="#d08468"/>
      <path d="M45.88,131.44l-.02,10.46c0,.57-.04,1.04-.38,1.33-.19.1-.23-.17-.35-.41.33-5.98-.36-11.85.35-17.59.24-.07.38.37.38.7l.03,5.52Z" fill="#7f8c96"/>
      <path d="M93.22,108.02l.05.93c-.4.12-.3.69-.36,1.02l-.85.05c-1.45.08-2.92-.03-4.38-.04-.93-.12-.89-.88-.88-1.64,2.14-.2,4.31.13,6.42-.32Z" fill="#7f8c96"/>
      <path d="M103.99,131.73c-1.46.21-2.45-.87-3.47-1.96-1.09-1.16-2.38-2.05-2.94-3.46.9,0,1.52-.03,2.32.86l4.09,4.56Z" fill="#99abb3"/>
      <path d="M99.13,124.24c-.33,1.57-8.71.36-8.16.36-.04-.26.39-.3.71-.3l7.45-.07Z" fill="#323337"/>
      <path d="M139.22,168.19c-1.89.04-3.77.08-5.96-.02-.2-.2.07-.6.38-.6h5.21c.31,0,.55.42.37.61Z" fill="#323337"/>
      <path d="M111.2,132.11v.33c.41.44-6.51.68-5.59-.28l5.59-.05Z" fill="#99abb3"/>
      <path d="M140.78,174.11v-5.26c1.02-1.77.9,7.04,0,5.26Z" fill="#323337"/>
      <path d="M123.96,166.58c-.69.84-3.06-.06-4.67.06-.16-.17.02-.55.04-.66.97,1.25,4.01-.4,4.63.6Z" fill="#323337"/>
      <path d="M85.75,103.45c-.39.96.02,1.97-.2,2.95l-.69-.02c-.04-.92-.18-1.93-.27-2.91.39-.03.78-.04,1.17-.02Z" fill="#554e4e"/>
      <path d="M126.48,137.03c-1.21-.59-2.24-1.55-3.69-1.96-.47-.13-1.02-.15-.89-.68,1.63.7,3.47,1.18,4.57,2.64Z" fill="#323337"/>
      <path d="M132.72,168.18c-1.46.09-2.92.06-4.67,0-.19-.21.06-.59.38-.59h3.91c.32,0,.58.38.38.59Z" fill="#323337"/>
      <path d="M92.07,110.03c.19.22-.06.59-.38.59l-3.27.06c-.62.01-.54-.56-.73-.69,1.46,0,2.93.12,4.38.04Z" fill="#323337"/>
      <path d="M91.42,111.31c-.9.78-2.89-.21-3.99.68-1.72-1.34,4.58-1.25,3.99-.68Z" fill="#323337"/>
      <path d="M98.25,120.03c-1.35.37-2.79-.26-4.02-.26-.74-.38,4.63-.8,4.02.26Z" fill="#323337"/>
      <path d="M137.24,153.96c-.71-1.34-.85-2.92-1.32-4.36.45-.97,2.1,4.64,1.32,4.36Z" fill="#323337"/>
      <path d="M93.36,105.16c-.08-1.19.77-2.15.6-3.34,1.57-.88-.52,4.56-.6,3.34Z" fill="#323337"/>
      <path d="M130.95,140.84c-.82-.3-1.51-.99-1.8-1.82.6.61,1.46.96,1.8,1.82Z" fill="#323337"/>
      <path d="M91.75,100.82c-.69.03-1.38.1-2.08,0-.2-.6.51-.63.88-.63.51,0,1.36-.07,1.2.63Z" fill="#323337"/>
      <path d="M69.2,104.71c.07.69.07,1.39,0,2.08-.62-.07-.67-.63-.65-1.21.02-.39.14-.82.65-.87Z" fill="#323337"/>
      <path d="M91.11,158.53c.22.6-.48.58-.89.65-.35.06-.58-.38-.86-.42.4-.51,1.17-.22,1.75-.23Z" fill="#323337"/>
      <path d="M112.89,132.38c-.47,0-1.26-.07-1.69.05v-.33c.29-.18.67-.47,1.12-.36.29.07.79.18.57.64Z" fill="#323337"/>
      <path d="M137.55,155.93c-.49-.26-.33-.96-.29-1.43.42-.21.61.2.65.56s-.26.58-.36.87Z" fill="#323337"/>
      <path d="M80.99,102.77c0,.33-.27.35-.53.42-.33.08-.59-.23-.8-.36.01-.39.47-.31.78-.34.2-.02.35.24.55.28Z" fill="#554e4e"/>
      <path d="M80.95,123.7c-.19-.11-.74-.05-.67-.52.03-.22.23-.41.38-.56.4.16.24.73.29,1.08Z" fill="#323337"/>
      <path d="M93.71,158.19c.22.35-.16.6-.54.62-.18,0-.37-.27-.55-.31.11-.47.73-.3,1.09-.31Z" fill="#323337"/>
      <path d="M85.55,106.4c-.07.31.07.66.02.98-.22.03-.44.05-.67.06l-.05-1.06.69.02Z" fill="#323337"/>
      <path d="M92.92,109.98c.06-.33-.05-.9.36-1.02.25.16.5.54.36.86-.12.28-.51.15-.72.16Z" fill="#323337"/>
      <path d="M119.04,160.79c-.12-.15-.29-.32-.34-.54s.28-.37.27-.54c.3-.08.34.31.35.54.01.18.02.6-.29.54Z" fill="#323337"/>
      <path d="M82.32,119.77c-.12.29-.48.27-.74.3,0-.15.01-.31.08-.47.05-.13.2-.2.36-.13.13.06.22.2.3.3Z" fill="#323337"/>
      <path d="M133.29,143.88c-.15.05-.33.04-.43-.06-.19-.19-.21-.44-.21-.66.17.06.53.01.59.23.06.19.03.35.04.5Z" fill="#323337"/>
      <path d="M93.34,111.66c-.19-.07-.34-.21-.42-.4-.06-.29.32-.38.55-.31.16.05.21.28.17.47-.03.12-.09.32-.3.23Z" fill="#323337"/>
      <path d="M133.93,144.86c-.17.16-.3.06-.41-.07-.18-.2-.21-.44-.22-.67.24-.18.5.02.61.23.08.16-.03.37.02.51Z" fill="#323337"/>
      <path d="M135.86,148.77c-.19.18-.3.05-.4-.07-.19-.24-.1-.51-.18-.71.25-.2.5.07.59.27.08.18-.03.36,0,.51Z" fill="#323337"/>
      <path d="M79.71,108.72c-.03.22-.06.5-.25.6-.17.08-.34,0-.4-.16-.06-.12-.08-.27-.11-.44h.76Z" fill="#323337"/>
      <path d="M71.25,108.96c-.1.12-.28.42-.49.32-.22-.11-.24-.41-.25-.6.23.07.72-.06.74.28Z" fill="#554e4e"/>
      <path d="M76.14,102.52c.09.21-.1.27-.24.29-.27.02-.64-.04-.54-.32.14-.02.29-.3.48-.2.12.07.22.17.3.24Z" fill="#554e4e"/>
      <path d="M89.13,100.83c-.2.21-.48.27-.74.36-.19-.2-.02-.49.21-.64.16-.1.61-.03.54.28Z" fill="#323337"/>
      <path d="M137.82,157.86c-.31-.02-.25-.53-.23-.75.15-.14.27-.07.44.05.14.1.22.22.1.4-.06.09-.18.21-.31.3Z" fill="#323337"/>
      <path d="M86.87,158.48c-.16.05-.34.41-.53.3-.26-.15-.44-.38-.25-.59.25.04.75-.06.78.29Z" fill="#323337"/>
      <path d="M118.95,158.86c-.27.22-.48-.08-.53-.28-.05-.19.02-.37,0-.51.17-.17.32-.08.42.07.17.24.1.5.11.72Z" fill="#323337"/>
      <path d="M137.49,166.56c.11-.13.22-.25.35-.35.2.12.51.25.36.55-.07.15-.34.21-.48.17-.12-.03-.13-.26-.24-.37Z" fill="#323337"/>
      <path d="M82.84,112.55c.02-.45.27-.85.71-.99-.15.4-.25.85-.71.99Z" fill="#323337"/>
      <path d="M139.17,204.45c.63,4.36-1.14,8.22-4.33,10.44s-7.61,2.6-11.12.38c-4.98-3.16-6.32-9.36-3.95-14.65,1.9-4.24,4.09-8.08,6.54-12.02.86-1.39,1.42-2.83,2.74-4.06,3.37,5.46,9.25,13.88,10.12,19.92ZM132.86,212.84c2.23-.47,3.47-2.41,3.86-4.47.54-2.87-.2-6.06-2.42-8.25-.9,2.45-1.1,4.63-2.07,6.77-.64,1.42-1.98,2.56-2.33,4.1-.29,1.32,1.55,2.15,2.95,1.85Z" fill="#64b6d2"/>
      <path d="M127.05,144.05c-1.76.83-3.57,1.31-5.66,1.08-2.85,3.17-1.04,1.06-3.77,2.63-4.71-2.22-12.71-4.07-17.02.13-6.63,6.46-16.69,4.98-22.65-1.18.23-3.57,2.44-.25,6.15-3.48,2.76,1.09,1.77-1.43,4.15-.76,2.13.6.9-2.13,4.12-2.92,1.52-.37,2.34-2.05,3.51-2.84.82-.56,1.33-.69,1.62-1.78.2-.74,1.07-1.37.79-2.21,3.06,1.33,4.15,4.2,7.7,4.26,2.37.04,4.76-.11,7.06.15,5.54.64,10.34,3.16,14,6.93Z" fill="#9fafb7"/>
      <path d="M113.41,104.2c-.21.22-.46-.04-.58-.25s.07-.47.28-.55c.33.04.29.54.3.8Z" fill="#554e4e"/>
      <path d="M98.53,96.92c-1.37.82-2.2,2.23-3.44,3.68-3.52-2.8-5-1.6-8.35-.75.35-3.34.58-6.74,1.27-10.21.43-2.17,1.94-4.05,3.58-5.59-.25,2.36-.84,4.15-.39,6.22,1.39,6.28,7.21,5.28,7.33,6.19.02.14,0,.29,0,.45Z" fill="#e4e4e4"/>
      <path d="M81.33,113.24c.18.21,0,.57-.22.63-.24.06-.64.13-.74-.17-.04-.12-.06-.3-.09-.47h1.05Z" fill="#323337"/>
      <path d="M81.9,113.2c.11-.32.39-.52.69-.64.15.23.03.52-.21.63-.16.07-.33,0-.49.01Z" fill="#323337"/>
      <path d="M78.71,111.97c-.42.2-.9-.2-.32-.43.13.12.25.27.32.43Z" fill="#323337"/>
      <path d="M79.03,112.55c-.1-.1-.24-.18-.31-.31.24-.1.29.14.31.31Z" fill="#323337"/>
      <path d="M63.87,103.74c-.55.54-6.88-1.67-8.02-2.21-1.47-.7-2.51-.47-3.95.16-6.52,2.86-13.59,2.75-20.26-.87-5.23-2.84-9.32-8.31-10.94-14.84-.23-.93-.33-1.6-.4-2.67-.41-6.43,1.42-12.37,5.78-17.26,5.79-6.5,15.09-9.03,23.4-6.16,3.31,1.15,6.29,2.72,8.84,5.15,6.23,5.92,8.06,15.14,5.53,23.24-2.33,7.46-4.8,3.91-.06,14.62.19.43.29.65.09.85ZM54.07,98.85c2.39,1.07,4.37,2.03,6.84,2.44-.74-2.56-1.54-4.71-1.78-7.3,2.71-4.52,4.45-9.55,3.89-14.82-.48-4.49-1.97-8.57-5.12-11.91-7.33-7.78-20.09-9.32-28.6-1.85-9.56,8.4-9.65,22.72-.34,31.25,4.92,4.51,11.75,6.26,18.31,4.72,2.37-.55,4.43-1.5,6.79-2.52Z" fill="#323337"/>
      <path d="M54.07,98.85c-2.36,1.02-4.42,1.97-6.79,2.52-6.56,1.54-13.39-.21-18.31-4.72-9.31-8.53-9.22-22.85.34-31.25,8.5-7.47,21.27-5.93,28.6,1.85,3.15,3.34,4.64,7.42,5.12,11.91.56,5.27-1.18,10.3-3.89,14.82.24,2.59,1.04,4.75,1.78,7.3-2.47-.41-4.45-1.37-6.84-2.44ZM35.15,78.09c-.17.02-.26.16-.28.33,0,.11-.01.22-.04.33-.12.08-.22.19-.28.33-.04.09.01.26-.04.33-.16.09-.22.23-.06.37-.1.56-.25,1.13-.61,1.57-.45.04-.41.41.02.37-.67,1.72-.83,3.62-.69,5.44-.11.11-.39.28-.3.49s.4.23.56.27c.92,4.19,4.73,7.19,9.02,7.32s8.01-2.77,9.34-6.91c1.8-6.2-5.66-17.18-9.36-22.13-2.92,4.09-5.22,7.92-7.29,11.9Z" fill="#b0dae9"/>
      <path d="M33.45,87.91c-.06-.24.07-.72-.27-.76-.13-1.82.02-3.73.69-5.44.04-.1-.04-.26-.02-.37.36-.45.51-1.01.61-1.57l.06-.37c.05-.07,0-.24.04-.33.14-.05.25-.18.28-.33.02-.1.03-.22.04-.33.1-.1.21-.2.28-.33,2.08-3.98,4.38-7.81,7.29-11.9,3.7,4.94,11.16,15.92,9.36,22.13-1.32,4.14-5.09,7.04-9.34,6.91s-8.09-3.13-9.02-7.32ZM42.75,93.47c4.39-.04,7.64-3.34,7.6-7.61-.03-3.17-1.51-6.1-3.06-8.78s-2.82-5.51-4.9-7.94c-2.81,4.63-6.93,10.6-7.54,15.42s2.89,8.96,7.91,8.91Z" fill="#323337"/>
      <path d="M33.45,87.91c-.17-.05-.47-.06-.56-.27s.19-.38.3-.49c.34.04.21.52.27.76Z" fill="#9fafb7"/>
      <path d="M34.46,79.76c-.16-.13-.1-.27.06-.37l-.06.37Z" fill="#9fafb7"/>
      <path d="M34.56,79.07c.06-.13.16-.24.28-.33-.03.15-.14.27-.28.33Z" fill="#9fafb7"/>
      <path d="M33.87,81.7c-.43.05-.47-.32-.02-.37-.02.11.06.26.02.37Z" fill="#9fafb7"/>
      <path d="M34.88,78.42c.01-.16.11-.3.28-.33-.07.13-.17.23-.28.33Z" fill="#9fafb7"/>
      <path d="M42.75,93.47c-5.02.05-8.54-4.04-7.91-8.91s4.73-10.79,7.54-15.42c2.08,2.43,3.32,5.19,4.9,7.94s3.03,5.61,3.06,8.78c.04,4.27-3.21,7.57-7.6,7.61ZM39.3,84.61l.19-7.06c-2.69,2.3-4.39,10.1-1.5,10.81,1.14.28,1.28-2.86,1.31-3.75Z" fill="#64b6d2"/>
      <path d="M39.3,84.61c-.02.9-.16,4.04-1.31,3.75-2.89-.71-1.19-8.51,1.5-10.81l-.19,7.06Z" fill="#b0dae9"/>
      <path d="M179.09,68.61l-6.78.35c-1.35-2.43,1.82-1.27,4.87-4.79,1.46-1.68-2.7-3.92-4.24-4.2l.37-2.06c-.84.02-1.14,1.03-2.02.92-.31-.14-.25-1.01-.42-1.3-.25-.43-1.3-.09-1.66-.43-1.95-1.81-4.49-3.25-7.21-2.4-.36.11-.65.82-.94.97-.47.24-.75-.54-1.15-.5-12.83,1.05-5.43-4.45-15.92-1.94-1.81.43-3.65-.1-5.5.17-3.14.46-6.21.43-9.41.58l-5.15.24c-1.08.05-1.77.16-2.73.27-4.2.48-8.33,0-12.61.21-1.04.05-2.46,1.15-2.19,2.04l3.64,2.95c.97.79,1.01,1.59,1.5,2.5.59,1.11,2.2,1.49,2.52,2.94,1.48-1.04,2.98-1,4.78-.64.36.17-.15.96-.3,1.32-.23.56-1.25.55-1.71.82-.79,1.46,3.83.42,6.14,2.89.92.98.67,2.47.98,3.6.66,2.41,5.36,3.15,6.61,4.14.95.75,1.47.97,2.78.9,1.05-.06,1.98,1.15,2.85,1.67,1.03.62,1.83-.68,2.76-.69,1.05-.01,1.02,1.38,2.17,1.65-2.44,3.45-6.37,5.29-10.01,7.44-4.16,2.45-8.51,3.42-12.73,5.11-.08-.67-.69-1.16-1.35-1.54l-5.46-3.07c-.56-.01-1.33.48-1.77.35.83-1.62,4.29-3.92,3.52-7.09-.65-2.65-2.62-5.09-4.69-6.77-.15-1.74-1.96-3.03-3.84-3.41-4.01-.8-8.02.75-11.05,3.45-.82.73-1.45,1.51-2.36,1.89-1.44-.21-1.87-1.33-2.21-2.68-.45-1.77-2.1-3.23-3.86-2.81-.29.07-.45.39-.68.51-.16.08-.28-.02-.37-.28.01-.37,4.9-5.92,4.97-5.98.7-.63.97-1.64,1.63-2.32,1.11-1.15,2.24-2.16,3.09-3.37.22-.31.89-.42.75-.99.09-.06.15-.17.24-.24.28.01.55-.17.65-.44.25-.66,1-.9,1.3-1.52.28,0,.54-.13.63-.4.08.01.2.02.27,0,.33-.09.61-.31.7-.65.09,0,.19,0,.28,0,.44,0,.92-.17,1.03-.64.09,0,.19,0,.28,0,1.51-.13,4.04-1.14,8.21-1.23l12.17-.26c2.63-.06,5.16-.26,7.75-.35l6.02-.22c4.03-.15,6.77-.6,10.12-.89.22-.02.74.03.68-.31.1,0,.25-.03.33.02.43.25.82.17,1.22-.05.27-.16.78.2,1.12-.02.16-.1.49-.26.29-.58.17-.02.35-.04.52-.03h.72c.35,0,.84.09.98-.32l15.87-4.63,12.46-3.78c.23.02.6.17.6.6l-.06,25.32Z" fill="#f2b594"/>
      <path d="M179.09,68.61c0,2.21.16,4.42.02,6.63l-.29.06c-2.18.46-4.44.02-6.77.27l-13.57,1.47c-2.34.25-4.82.35-6.93,1.48-3.35,1.79-5.88,4.59-8.2,7.37l-.93.62c-1.88,1.24-3.84,2.43-5.53,3.92-.09.02-.21-.03-.28,0-3.64,1.78-7.37,3.34-11.38,4.6-.7.22-1.33.51-1.73.96-.18.03-.4-.05-.56.02-.6.24-1.42.25-1.65.92-.09-.02-.19,0-.28,0-.87-.01-5.07,1.97-5.25,2.6-.08.03-.21-.03-.28,0-1.06.55-2.31.99-3,1.98-2.65,1.82-5.29,3.77-7.5,6.1-.8.35-1.65.87-2,1.69-.04.1-.19.15-.24.24-.65.17-1.34.44-1.65,1.07-.03.07,0,.17-.02.25-1.69.05-2.62,2.15-4.51.39,1.4.3,6.06-5.25,6.8-6.47.77-.08.99-.77,1.64-1.43,3.84-3.87,8.22-7.98,13.37-10.05,4.23-1.7,8.57-2.66,12.73-5.11,3.65-2.15,7.57-3.99,10.01-7.44.37-.06.77-.23,1.12-.59l4.62-4.8c1.96-2.03,4.18-3.12,6.96-3.8,6.16-1.5,12.34-2.32,18.49-2.64l6.78-.35Z" fill="#d08468"/>
      <path d="M99.17,55.32c-.2.17-.32.41-.38.67-.09,0-.19.01-.28,0-.15-.01-.32-.04-.44.04-.21.13-.46.38-.26.61-.08.02-.19.01-.27,0-.33-.06-.5.13-.63.4-.3.62-1.05.85-1.3,1.52-.3-.04-.55.16-.65.44-.09.07-.14.19-.24.24-.38.22-.64.57-.75.99-.85,1.21-1.98,2.22-3.09,3.37-.66.68-.94,1.68-1.63,2.32-.07.06-4.95,5.61-4.97,5.98-1.97,2.11-3.87,4.35-5.67,6.8-2.43,3.32-1.92,6.9-2.5,10.12-.09-.58-.57-1.26-.92-1.67-.2-.82,0-1.76-.13-2.6-.05-.28.04-.58.02-.86.52-.22.31-.95.32-1.41v-.54c.53-.43.46-1.19.69-1.78l.69-1.8c.26.13.44-.07.53-.25.08-.14,0-.39.09-.48.41-.44.66-1.1.97-1.58.97-.83,2.08-1.68,2.56-2.88l4.35-4.98c.33-.25.57-.59.83-.91l1.41-1.73c.34-.23.61-.55.86-.87l1.09-1.39c.54-.24.82-.77,1.18-1.22l1.1-1.37c.63-.14.81-.79,1.18-1.23,1.07-1.29,2.27-2.61,3.61-3.61.24.04.49-.01.68-.24.11-.13.22-.27.05-.43h.24c.6-.01,1.1-.36,1.63-.61l.03.95Z" fill="#323337"/>
      <path d="M178.87,76.14l-.36.74c-.24-.06-.71-.1-.97-.09-1.33.1-2.75-.17-4.2.07-1.21.2-2.62.37-3.63.17.1-.48.78-.84,1.4-.84l7.76-.05Z" fill="#1e1e1e"/>
      <path d="M162.71,77.91c.13.1.16.19-.01.26-.25-.01-.51-.1-.76-.08-.78.08-1.79-.31-2.32.37h-.55s-1.42-.09-1.42-.09c-.6-1.42,4.87-1.13,5.06-.47Z" fill="#1e1e1e"/>
      <path d="M149.21,82.06c-.74,1.09-1.74,2.07-2.82,2.82.75-1.1,1.7-2.09,2.82-2.82Z" fill="#554e4e"/>
      <path d="M106.02,108.13c-.12.57.58.71.99.89-.35.06-.62.35-.87.36-.58,0-.6.57-.49.96-.32-.01-.64,0-.96-.02.02-1.08.6-1.65,1.33-2.18Z" fill="#323337"/>
      <path d="M145.3,85.96c-.35.65-.91,1.13-1.53,1.51.37-.63.92-1.12,1.53-1.51Z" fill="#554e4e"/>
      <path d="M92.92,59.26c-.37.44-.55,1.09-1.18,1.23.36-.45.6-1.03,1.18-1.23Z" fill="#554e4e"/>
      <path d="M90.64,61.86c-.36.45-.64.98-1.18,1.22.35-.45.61-1.01,1.18-1.22Z" fill="#554e4e"/>
      <path d="M88.38,64.48c-.25.32-.52.64-.86.87.26-.32.46-.71.86-.87Z" fill="#554e4e"/>
      <path d="M86.1,67.07c-.26.32-.5.65-.83.91.24-.28.23-.99.83-.91Z" fill="#554e4e"/>
      <path d="M77.39,77.42c-.09.09-.02.33-.09.48-.1.19-.27.38-.53.25.08-.2-.07-.52.18-.7.12-.09.3-.1.45-.04Z" fill="#554e4e"/>
      <path d="M115.79,101.2c.14.26-.05.47-.25.57-.17.09-.37.02-.5.08-.17-.17-.01-.28.07-.41.18-.27.5-.14.68-.24Z" fill="#554e4e"/>
      <path d="M139.54,90.48c.16.25-.03.5-.24.58-.18.07-.35.07-.5.07-.17-.16-.07-.31.05-.45.18-.22.45-.24.69-.19Z" fill="#554e4e"/>
      <path d="M172.31,68.96c-6.15.31-12.33,1.14-18.49,2.64-2.78.68-5,1.77-6.96,3.8l-4.62,4.8c-.35.36-.75.53-1.12.59-1.15-.27-1.12-1.67-2.17-1.65-.92.01-1.72,1.3-2.76.69-.86-.52-1.79-1.72-2.85-1.67-1.31.07-1.84-.15-2.78-.9-1.25-.99-5.95-1.73-6.61-4.14-.31-1.13-.06-2.62-.98-3.6-2.31-2.46-6.93-1.42-6.14-2.89.46-.27,1.48-.27,1.71-.82.15-.35.66-1.15.3-1.32-1.8-.36-3.3-.4-4.78.64-.32-1.45-1.92-1.83-2.52-2.94-.49-.92-.53-1.71-1.5-2.5l-3.64-2.95c-.27-.9,1.15-1.99,2.19-2.04,4.28-.21,8.41.27,12.61-.21.96-.11,1.65-.22,2.73-.27l5.15-.24c3.19-.15,6.27-.12,9.41-.58,1.85-.27,3.7.26,5.5-.17,10.49-2.51,3.09,2.99,15.92,1.94.4-.03.68.74,1.15.5.29-.15.59-.86.94-.97,2.72-.85,5.26.59,7.21,2.4.36.33,1.41,0,1.66.43.16.29.11,1.16.42,1.3.87.11,1.18-.9,2.02-.92l-.37,2.06c1.54.28,5.7,2.51,4.24,4.2-3.06,3.53-6.23,2.36-4.87,4.79Z" fill="#f2b08e"/>
      <path d="M91.39,77.15c-.18.69-.75,1.34-1.37,1.89-6.28,5.55-7.74,13.65-7.82,21.88-1,.71-4.03-.33-6.06-.11l-.08-.89.03-8.21c0-.95.16-1.96.02-2.9.57-3.21.06-6.8,2.5-10.12,1.79-2.45,3.7-4.69,5.67-6.8.09.25.21.36.37.28.23-.12.39-.44.68-.51,1.76-.42,3.41,1.04,3.86,2.81.34,1.35.77,2.47,2.21,2.68Z" fill="#f2b08e"/>
      <path d="M108.63,75.21c2.07,1.68,4.04,4.12,4.69,6.77.77,3.17-2.68,5.47-3.52,7.09-.07-.02-.2-.01-.26.02-.29.16-.51.41-.65.71-1.9,1.46-3.59,3.26-5.68,4.68-.91.62-1.42,1.57-2.14,2.13-3.57,2.78-6.96,7.68-5.81,12.61.24,1.03.65,1.45,1.3,2.05,1.89,1.76,2.82-.35,4.51-.39-.69.58-1.9,1.54-2.89,1.6-1.91.11-2.77-1.92-3.38-3.29-1.48-3.3,1.64-9.04,4.02-11.27.24-.22.33-.49.23-.74-.07-.16-.32-.24-.53-.27.01-.16.02-.32,0-.45-.12-.91-5.94.09-7.33-6.19-.46-2.07.14-3.85.39-6.22-1.64,1.55-3.15,3.42-3.58,5.59-.69,3.47-.91,6.87-1.27,10.21l-2.32,2.23-6.39.13c-.48,0-.56-.42-.6-.62.77-.58,1.61-.26,2.58-.13,1.6.21,3.16,0,4.89.13.87-3.75.84-10.72,2.22-13.83,1.48-3.32,4.01-5.89,6.79-8.13,2.51-2.02,4.73-4.07,7.97-5.01,1.96-.57,5.03-.8,6.75.59ZM107.73,88.26l-4.64-2.38c-.73.51-.93,1.63-1.74,1.23-.18-.08-.36-.65-.21-.93,1.65-3.13,3.4-6.2,4.43-9.8-1.91-.84-3.64.08-5.33.77-1.88.77-3.34,1.69-4.66,3.24-.87,1.02-1.72,1.8-2.07,3.26-.54,2.29-1.04,4.84-.27,7.19.96,2.94,4.21,4.03,7.13,3.45,2.69-1.78,5.23-3.58,7.37-6.03ZM111.43,81.72c-3.89,1.45,1.73-1.78-4.09-5.06-.88,2.18-1.6,4.03-2.63,6.01-.28.54-.73,1.59-.13,1.98,1.42.93,2.85,1.49,4.4,2.25,1.79-1.1,2.92-3.21,2.45-5.18Z" fill="#323337"/>
      <path d="M118.38,93.34c-5.15,2.06-9.53,6.18-13.37,10.05-.65.66-.88,1.35-1.64,1.43-1.17-1.33-2.73-1.99-4.41-2.87-.77-.4-.4-2.48.27-2.89.99-.62,1.8-1.38,1.86-2.43.72-.56,1.23-1.51,2.14-2.13,2.09-1.42,3.77-3.22,5.68-4.68.1-.07.35.02.49-.06.23-.13.22-.43.16-.65.06-.03.2-.04.26-.02.43.13,1.2-.36,1.77-.35l5.46,3.07c.67.38,1.27.87,1.35,1.54Z" fill="#f2b08e"/>
      <path d="M108.63,75.21c-1.72-1.39-4.78-1.15-6.75-.59-3.25.94-5.46,3-7.97,5.01-2.79,2.24-5.31,4.81-6.79,8.13-1.39,3.11-1.36,10.08-2.22,13.83-1.73-.13-3.3.08-4.89-.13-.97-.13-1.8-.45-2.58.13-.67-.1-1.23-.05-1.3-.79,2.03-.21,5.06.82,6.06.11.08-8.23,1.54-16.33,7.82-21.88.63-.55,1.2-1.2,1.37-1.89.91-.39,1.54-1.16,2.36-1.89,3.03-2.7,7.04-4.26,11.05-3.45,1.88.38,3.69,1.67,3.84,3.41Z" fill="#d08468"/>
      <path d="M178.82,75.31l.05.83-7.76.05c-.62,0-1.3.37-1.4.84-.24,0-.72,0-.94.09-.18-.42-6.45-.81-5.51.77-.14.03-.42.08-.54.02-.18-.66-5.66-.96-5.06.47l-.6.04c-1.08-.59-2.38-.51-3.62-.12-5.71,1.77-5.69,4.69-10.08,7.6,2.32-2.79,4.85-5.59,8.2-7.37,2.12-1.13,4.59-1.22,6.93-1.48l13.57-1.47c2.33-.25,4.6.19,6.77-.27Z" fill="#323337"/>
      <path d="M109.94,108.68c-.34.05-.92-.11-1.06.29-.55-.01-1.29-.06-1.86.04-.42-.17-1.11-.32-.99-.89,1.68-1.21,3.13-2.7,5.22-3.87.67,1.74.47,3.99-1.3,4.42Z" fill="#99abb3"/>
      <path d="M136.61,90.44c.14.52-.37.61-.84.82-4.09,1.88-8.05,3.99-12.28,4.74.4-.45,1.03-.74,1.73-.96,4.01-1.26,7.74-2.82,11.38-4.6Z" fill="#323337"/>
      <path d="M76.08,91.71l-.03,8.21c-.19-.01-.42-.01-.61-.17-.2-.18,0-.54,0-.89v-6.77c0-.31.42-.56.63-.36Z" fill="#323337"/>
      <path d="M121.01,96.95c.13.53-.62.71-1.11.91l-4.14,1.69c.18-.63,4.38-2.61,5.25-2.6Z" fill="#323337"/>
      <path d="M136.9,90.43c1.68-1.48,3.65-2.67,5.53-3.92-1.3,1.84-3.35,3.36-5.53,3.92Z" fill="#323337"/>
      <path d="M104.99,107.63c-1.13,1.19-.62,1.86-2,1.69.35-.82,1.2-1.34,2-1.69Z" fill="#323337"/>
      <path d="M121.29,96.94c.23-.67,1.05-.68,1.65-.92-.12.29-.23.6-.42.75-.34.27-.89.24-1.23.17Z" fill="#323337"/>
      <path d="M109.94,108.68c0,.24-.07.48-.25.62-.37.3-.58-.31-.81-.34.14-.4.72-.23,1.06-.29Z" fill="#323337"/>
      <path d="M102.74,109.56c-.38.6-.88,1.25-1.65,1.07.31-.63.99-.9,1.65-1.07Z" fill="#323337"/>
      <path d="M112.49,101.54c.69-1,1.94-1.44,3-1.98.85-.03-3.17,2.53-3,1.98Z" fill="#323337"/>
      <path d="M103.37,104.81c-.75,1.22-5.41,6.77-6.8,6.47-.65-.61-1.06-1.02-1.3-2.05-1.15-4.93,2.24-9.83,5.81-12.61-.06,1.05-.87,1.81-1.86,2.43-.66.42-1.03,2.49-.27,2.89,1.69.88,3.24,1.55,4.41,2.87Z" fill="#f2b594"/>
      <path d="M168.76,77.12c-1.42.53-3.96.42-5.51.77-.94-1.58,5.33-1.19,5.51-.77Z" fill="#1e1e1e"/>
      <path d="M107.73,88.26c-2.14,2.45-4.67,4.25-7.37,6.03-2.92.58-6.16-.51-7.13-3.45-.77-2.35-.27-4.9.27-7.19.35-1.46,1.2-2.24,2.07-3.26,1.32-1.55,2.78-2.47,4.66-3.24,1.68-.69,3.42-1.61,5.33-.77-1.03,3.6-2.77,6.67-4.43,9.8-.15.28.04.84.21.93.81.39,1.01-.72,1.74-1.23l4.64,2.38Z" fill="#d08468"/>
      <path d="M111.43,81.72c.47,1.97-.66,4.07-2.45,5.18-1.55-.76-2.98-1.32-4.4-2.25-.6-.39-.15-1.45.13-1.98,1.03-1.98,1.74-3.83,2.63-6.01,5.82,3.28.2,6.51,4.09,5.06Z" fill="#d08468"/>
      <path d="M108.89,89.8c.14-.3.36-.55.65-.71.06.22.07.52-.16.65-.14.08-.39-.02-.49.06Z" fill="#f2b594"/>
      <g>
        <path d="M185.53.45C129.77-.06,74.05,0,18.52,0h-.65c-.36.42-.93.35-1.63.32C11.5.12,6.68,1.49,3.7,5.38,2.14,7.43,0,10.2,0,13.18l.07,275.94c0,6.35,8.31,13.52,14.03,13.51l170.71-.19c7.36,0,14.42-7.36,14.43-14.6l.1-272.79c0-6.7-6.47-14.52-13.81-14.58ZM118,200c1.35-3.24,2.96-6.17,4.8-9.17l6.04-9.83c4.24,6.29,8.6,12.9,11.25,19.73,2.06,5.31,1.22,11.22-3.28,15.02-5.15,4.34-12.24,3.62-16.69-1.15-3.71-3.98-4.19-9.6-2.12-14.6ZM66.94,106.88c.03-.26.09-.59.32-.85v-.89c-.51-.71-.27-2.23.68-2.36.03-.07,0-.16,0-.24.1-.72.67-1.3,1.4-1.35l.51-.04c-.23-.35.17-.66.52-.64.18,0,.4.21.57.32h2.81c.11-.29.45-.29.72-.31l.03-2.22c-.26.07-.36-.36-.36-.69l-.04-4.59c0-.46.23-.77.4-.98l.24-4.46c-.43-.13-.57-3.77.31-3.04-.05-.28.04-.58.02-.86-.23-.23-.31-.54-.32-.85-.01-.36.24-.77.64-.56v-.54c-.58-.38.34-2.19.69-1.78l.69-1.8c.08-.2-.07-.52.18-.7.12-.09.3-.1.45-.04.41-.44.66-1.1.97-1.58.22-.68-.38-1.27-.47-1.96-.16-1.36,2.57-.85,3.03-.92l4.35-4.98c.24-.28.23-.99.83-.91l1.41-1.73c.26-.32.46-.71.86-.87l1.09-1.39c.35-.45.61-1.02,1.18-1.22l1.1-1.37c.36-.45.6-1.03,1.18-1.23,1.07-1.29,2.27-2.61,3.61-3.61.05-.19.05-.5.25-.58.18-.07.34-.09.48-.09h.24c-.19-.55.42-.56.83-.75,3.31-1.48,6.64-1.96,10.29-2.09l9.42-.33,10.1-.28,8.87-.45c4.66-.24,9.07-.82,13.59-2.1l10.38-2.94,16.57-4.89c.29-.09.54.14.49.34.3.16.55.46.53.8l-.02.38c.23.02.6.17.6.6l-.06,25.32c0,2.21.16,4.42.02,6.63-.02.34.44.71.21,1.29-.11.27-.31.7-.8.34-.24-.06-.71-.1-.97-.09.07.27.02.58-.21.61-.38.04-3.88.12-5.97.29l-3.87.31c-1.71.13-3.27.26-4.8.18-.25-.01-.51-.1-.76-.08,0,.14.06.35-.01.47-.2.33-1.99.29-2.3-.1h-.55c.42,1-1.86.51-2.12.48-.16-.02-.39.01-.54.06-1.75.62-3.65.62-5.22,1.69-.1.07-.28.05-.39.09-.05.5-.39.89-.9.89-.23.12-.47.25-.69.39-.74,1.09-1.74,2.07-2.82,2.82-.29.43-.66.79-1.09,1.08-.35.65-.91,1.13-1.53,1.51-.34.21-.63.52-.99.7.07.24-.02.48-.23.57-.16.08-.34.05-.48.09-.2.06-.38.27-.59.32.13.25-.03.51-.24.6-.17.07-.35.08-.5.07-.08,0-.16.02-.24,0,.14.25-.03.5-.24.58-.18.06-.35.08-.5.07-.08,0-.16.02-.24,0,.16.25-.03.5-.24.58-.18.06-.35.07-.5.07-.08,0-.16-.01-.24,0-.09.94-1.26,1.05-2.03,1.28-.65.19-1.16.62-1.85.7-.15.89-1.29,1.09-2.08,1.21-.28.04-.58.01-.85.09-.17,1.01-1.52,1.13-2.4,1.22l-.86.08c.21.36-.27.54-.65.67l-6.96,2.49-.85.09c-.35,1.03-1.76,1.3-2.74,1.59-.53.16-1.02.39-1.51.66.14.26-.05.47-.25.57-.17.09-.37.02-.5.08-.79.33-1.62.73-1.93,1.56.33.04.29.54.3.8.04,1.03.05,2.14-.23,3.13.09.12.34.31.24.49-.12.2-.37.24-.55.27-.26,1.24-1.3,2.2-2.58,2.27.53.97-4.71.8-3.71,0l-.93-.04c-.32-.01-.64,0-.96-.02-1.6-.11-2.98,2.47-4.81,2.65.2.26-.07.49-.27.55-.19.06-.37-.03-.51,0-1.21.18-2.39-.21-3.51-.63-.71-.66-.47,4.41-.38,4.95.86.42,1.7-.03,2.37.35.22.13.63-.05.87,0,.2.05.48-.1.65.14.08.11.1.28.12.42.88.26,1.55,1,1.61,1.93.97-.14.67,2.38.43,2.66-.08.1-.24.22-.43.06v.54c.15.13.34.37.27.52-.13.25-.4.43-.59.25-.17,1.16,1.18,1.75,1.97,2.92,1.06.5,1.77,1.6,2.49,2.51.09.06.23.03.32.08l5.94-.07c.46,0,.77.25.99.4l2.49.02c.62,0,1.84-.41,1.76.53h.55c-.41-1.11,9.75,2.74,8.54,3.33.07.01.16.01.24,0,.23-.02.49-.02.68.17.12.12.16.29.04.44h.24c.24,0,.51.01.7.24.11.13.24.28.06.44.08,0,.16,0,.24,0,.22-.02.49,0,.62.2.08.12.05.33.1.45l1.33,1.02c.83.64,1.55,1.34,2.19,2.17l1.08,1.4c.4.14.73.44.83.86.03.1.07.22.07.33.25-.21.5.08.61.28.08.16.08.34.07.5,0,.08.02.16,0,.24.26-.18.48.05.56.25.07.18.03.35.07.5.07.31.22.59.33.88.87-.22,2.77,4.8,2.64,6.26-.02.17-.01.37.01.54.11-.16.41-.07.47.17l.8,3.51c.14.62-.24.95-.31,1.32-.09.47.03,1.03.02,1.51.21-.22.59.08.59.39l.02,7.83c.07-.02.17.02.25.01.75-.07,1.23.27,1.39.95.29.33.93.67.95,1.23.96-1.29.93,7.26.04,5.99-.03.62-.64.86-.98,1.23-.29.31-.22.98-1.08.98h-23c-.34,0-.59-.42-.4-.61-.17,0-.36-.01-.53-.04-.94-.15-1.69-1.06-1.63-2.02.02-.29-.01-.58-.01-.87-.55.12-.66-4.59.22-3.69,0-.15.05-.41,0-.54-.57-.84.54-1.81,1.39-1.98.08-.02.16.02.24,0l.7-1.3c.48-.88-.08-2.07.06-3.01.03-.18-.02-.37,0-.55-.68-.53-.51-1.68-.1-2.36v-.54c-.34.73-1.29-2.25-1.27-2.37-.37-.38-.71-1.05-1.26-1.26-.2-.08-.51,0-.67-.24-.08-.12-.12-.28-.06-.44-.1-.02-.24-.03-.34-.08-.22-.1-3.71-1.48-3.16-1.5-.12,0-.23,0-.31.01-1.54.65-3.34.15-4.99.25-.27.02-.41.33-.63.42-.29.5-.71.9-1.21,1.19-.34.21-.63.52-.99.7.08.25-.03.47-.23.57-.16.08-.35.02-.48.09l-.59.32c.06.73-.75.93-1.37.97-.07,0-.16-.02-.23,0,.13.59-.52.78-1.07.97-2.1.73-4.09,1.79-6.2,1.59-.29-.03-.58.01-.87.01-.72.58-2.02.67-2.68,0-.18.02-.37-.04-.55,0-1.66.28-8.19-1.6-8.24-2.85-.07-.02-.16,0-.24,0-.23,0-.49-.01-.69-.21-.11-.11-.16-.27-.05-.44h-.24c-.24-.01-.5-.01-.68-.24-.1-.13-.2-.27-.05-.44-.23-.11-.45-.25-.66-.39-.94-.59-1.76-1.3-2.65-2.28l-17.42.13c-.48,3.16,1.08,6.86-3.13,7.84-2.05.48-4.19.11-6.33.02-1.42-.06-2.61-.16-3.4-1.15-.78-.98-1.08-2.1-1.08-3.59l-.09-31.72c0-.79.47-1.33.97-1.43.24-.3.56-.79.95-.94.13-.07-.06-.54.23-.63.17-.05.39.06.49.25h.54c-.22-.22.08-.59.39-.59l6.53-.03c.44,0,.66.32.7.58.93-.05,1.74.6,2.19,1.36.26.07.55.16.76.43.25.31.11.67-.06.95.69,2.36-.47,3.93.27,5.48l16.99.06c2.14-.93,3.78-3.13,5.5-4.83-.23-.77-.36-1.17-.41-1.67-.92.51-.99-4.62.37-4.37.17-.36.4-.9.93-.91.02-.14.03-.32.11-.44.17-.24.46-.1.67-.11.38-.03.8.02,1.17-.05.18-.04.33-.37.56-.4.36-.05.58.23.82.4.38.07.82-.04,1.22-.01-.19-.88.62-5.97-.32-5.6-.84.44-1.18,1.5-2.18,1.69-.02.22-.1.48-.28.54-.2.06-.36.03-.5.03h-.55c-.1.14-.27.33-.45.28-.14-.04-.21-.22-.29-.26-2.73-.16-3.41-2.96-4.34-4.06-.61-.72-1.95-.3-2.7-.4.84.75-3.37,1-3.06,0-.94.08-1.77-.54-2.21-1.32-.19-.05-.52-.05-.58-.25-.07-.2-.06-.37-.07-.51l-.04-.52c-.55.2-.7-.4-.65-.88ZM26.08,66.04c5.79-6.5,15.09-9.03,23.4-6.16,3.31,1.15,6.29,2.72,8.84,5.15,6.23,5.92,8.06,15.14,5.53,23.24-2.33,7.46-4.8,3.91-.06,14.62.19.43.29.65.09.85-.55.54-6.88-1.67-8.02-2.21-1.47-.7-2.51-.47-3.95.16-6.52,2.86-13.59,2.75-20.26-.87-5.23-2.84-9.32-8.31-10.94-14.84-.23-.93-.33-1.6-.4-2.67-.41-6.43,1.42-12.37,5.78-17.26Z" fill="#fdfdfd"/>
        <path d="M110.58,153.28c.09,0,.17.01.23.02-.12-.02-.18-.02-.23-.02Z" fill="#fdfdfd"/>
      </g>
    </g>
    <path d="M131.5,212.84c-1.4.3-3.25-.53-2.95-1.85.34-1.54,1.68-2.67,2.33-4.1.97-2.14,1.17-4.32,2.07-6.77,2.22,2.2,2.96,5.39,2.42,8.25-.39,2.06-1.63,3.99-3.86,4.47Z" fill="#b0dae9"/>
    <path d="M92.59,60.22c.12-.42.38-.77.75-.99.14.57-.54.68-.75.99Z" fill="#554e4e"/>
    <g>
      <path d="M20.07,265.32h-6.47v5.29h7.52v1.61h-9.48v-14.93h9.38v1.61h-7.41v4.81h6.47v1.61Z"/>
      <path d="M27.52,270.88c.68,0,1.27-.21,1.77-.62s.79-.92.84-1.54h1.79c-.03.63-.25,1.24-.66,1.81s-.94,1.03-1.62,1.37-1.39.51-2.14.51c-1.51,0-2.71-.5-3.6-1.51-.89-1.01-1.34-2.39-1.34-4.14v-.32c0-1.08.2-2.04.59-2.88.4-.84.97-1.49,1.71-1.96s1.62-.7,2.63-.7c1.24,0,2.28.37,3.1,1.12.82.75,1.26,1.71,1.32,2.9h-1.79c-.05-.72-.33-1.31-.81-1.77-.49-.46-1.09-.69-1.81-.69-.96,0-1.71.35-2.24,1.04-.53.69-.79,1.7-.79,3.01v.36c0,1.28.26,2.26.79,2.95s1.28,1.04,2.26,1.04Z"/>
      <path d="M33.56,266.57c0-1.09.21-2.06.64-2.93.43-.87,1.02-1.54,1.78-2.01.76-.47,1.63-.71,2.61-.71,1.51,0,2.73.52,3.67,1.57.93,1.04,1.4,2.44,1.4,4.17v.13c0,1.08-.21,2.05-.62,2.91-.41.86-1,1.53-1.77,2-.77.48-1.65.72-2.65.72-1.5,0-2.72-.52-3.66-1.57-.93-1.05-1.4-2.43-1.4-4.15v-.13ZM35.47,266.8c0,1.23.29,2.22.86,2.96s1.33,1.12,2.29,1.12,1.73-.38,2.3-1.13c.57-.75.85-1.81.85-3.17,0-1.22-.29-2.2-.87-2.96-.58-.75-1.34-1.13-2.3-1.13s-1.69.37-2.27,1.12-.86,1.81-.86,3.2Z"/>
      <path d="M47.84,261.13l.06,1.39c.85-1.07,1.96-1.6,3.32-1.6,2.34,0,3.53,1.32,3.55,3.97v7.33h-1.9v-7.34c0-.8-.19-1.39-.55-1.77-.36-.38-.92-.57-1.68-.57-.62,0-1.16.16-1.62.49s-.83.76-1.09,1.29v7.91h-1.9v-11.09h1.79Z"/>
      <path d="M57.13,266.57c0-1.09.21-2.06.64-2.93.43-.87,1.02-1.54,1.78-2.01.76-.47,1.63-.71,2.61-.71,1.51,0,2.73.52,3.67,1.57.93,1.04,1.4,2.44,1.4,4.17v.13c0,1.08-.21,2.05-.62,2.91-.41.86-1,1.53-1.77,2-.77.48-1.65.72-2.65.72-1.5,0-2.72-.52-3.66-1.57-.93-1.05-1.4-2.43-1.4-4.15v-.13ZM59.03,266.8c0,1.23.29,2.22.86,2.96s1.33,1.12,2.29,1.12,1.73-.38,2.3-1.13c.57-.75.85-1.81.85-3.17,0-1.22-.29-2.2-.87-2.96-.58-.75-1.34-1.13-2.3-1.13s-1.69.37-2.27,1.12-.86,1.81-.86,3.2Z"/>
      <path d="M71.39,261.13l.05,1.23c.81-.96,1.91-1.44,3.29-1.44,1.55,0,2.61.59,3.17,1.78.37-.53.85-.96,1.44-1.29.59-.33,1.29-.49,2.1-.49,2.43,0,3.67,1.29,3.71,3.87v7.43h-1.9v-7.32c0-.79-.18-1.39-.54-1.78-.36-.39-.97-.59-1.83-.59-.7,0-1.29.21-1.75.63-.46.42-.73.99-.81,1.7v7.36h-1.91v-7.27c0-1.61-.79-2.42-2.37-2.42-1.24,0-2.1.53-2.55,1.59v8.1h-1.9v-11.09h1.79Z"/>
      <path d="M88.02,258.19c0-.31.09-.57.28-.78s.47-.32.84-.32.65.11.84.32.29.47.29.78-.1.56-.29.77-.47.31-.84.31-.65-.1-.84-.31-.28-.46-.28-.77ZM90.07,272.22h-1.9v-11.09h1.9v11.09Z"/>
      <path d="M99.96,272.22c-.11-.22-.2-.61-.27-1.17-.88.92-1.93,1.37-3.16,1.37-1.09,0-1.99-.31-2.69-.93-.7-.62-1.05-1.4-1.05-2.35,0-1.16.44-2.05,1.32-2.69.88-.64,2.11-.96,3.71-.96h1.85v-.87c0-.66-.2-1.19-.59-1.58-.4-.39-.98-.59-1.75-.59-.68,0-1.24.17-1.7.51-.46.34-.69.76-.69,1.24h-1.91c0-.55.2-1.09.59-1.6.39-.52.93-.92,1.6-1.23s1.41-.45,2.22-.45c1.28,0,2.28.32,3,.96.72.64,1.1,1.52,1.13,2.64v5.11c0,1.02.13,1.83.39,2.43v.16h-1.99ZM96.81,270.78c.59,0,1.16-.15,1.69-.46s.92-.71,1.16-1.2v-2.28h-1.49c-2.32,0-3.49.68-3.49,2.04,0,.59.2,1.06.59,1.39s.91.5,1.53.5Z"/>
      <path d="M109.27,266.58c0-1.7.4-3.07,1.21-4.11.81-1.04,1.86-1.55,3.17-1.55s2.33.44,3.09,1.33v-5.78h1.9v15.75h-1.74l-.09-1.19c-.76.93-1.81,1.39-3.17,1.39s-2.33-.53-3.14-1.58c-.81-1.05-1.22-2.43-1.22-4.12v-.14ZM111.16,266.8c0,1.26.26,2.24.78,2.95s1.24,1.07,2.15,1.07c1.2,0,2.08-.54,2.64-1.62v-5.1c-.57-1.05-1.44-1.57-2.61-1.57-.93,0-1.65.36-2.17,1.08s-.78,1.78-.78,3.19Z"/>
      <path d="M126.18,272.43c-1.5,0-2.73-.49-3.67-1.48-.94-.99-1.42-2.31-1.42-3.96v-.35c0-1.1.21-2.08.63-2.95.42-.87,1.01-1.54,1.76-2.03.76-.49,1.57-.73,2.46-.73,1.44,0,2.56.48,3.36,1.42.8.95,1.2,2.31,1.2,4.08v.79h-7.52c.03,1.09.35,1.98.96,2.65.61.67,1.39,1.01,2.33,1.01.67,0,1.24-.14,1.7-.41.46-.27.87-.63,1.22-1.09l1.16.9c-.93,1.43-2.32,2.14-4.18,2.14ZM125.94,262.48c-.77,0-1.41.28-1.93.84-.52.56-.84,1.34-.96,2.34h5.56v-.14c-.05-.96-.31-1.71-.78-2.24-.46-.53-1.09-.79-1.89-.79Z"/>
      <path d="M144.75,272.22c-.11-.22-.2-.61-.27-1.17-.88.92-1.93,1.37-3.16,1.37-1.09,0-1.99-.31-2.69-.93-.7-.62-1.05-1.4-1.05-2.35,0-1.16.44-2.05,1.32-2.69.88-.64,2.11-.96,3.71-.96h1.85v-.87c0-.66-.2-1.19-.59-1.58-.4-.39-.98-.59-1.75-.59-.68,0-1.24.17-1.7.51-.46.34-.69.76-.69,1.24h-1.91c0-.55.2-1.09.59-1.6.39-.52.93-.92,1.6-1.23s1.41-.45,2.22-.45c1.28,0,2.28.32,3,.96.72.64,1.1,1.52,1.13,2.64v5.11c0,1.02.13,1.83.39,2.43v.16h-1.99ZM141.6,270.78c.59,0,1.16-.15,1.69-.46s.92-.71,1.16-1.2v-2.28h-1.49c-2.32,0-3.49.68-3.49,2.04,0,.59.2,1.06.59,1.39s.91.5,1.53.5ZM143.35,256.47h2.3l-2.75,3.01h-1.53s1.98-3.01,1.98-3.01Z"/>
      <path d="M148.87,266.58c0-1.73.4-3.11,1.2-4.13.8-1.02,1.86-1.53,3.18-1.53s2.41.48,3.17,1.44l.09-1.23h1.73v10.83c0,1.44-.43,2.57-1.28,3.39-.85.83-1.99,1.24-3.43,1.24-.8,0-1.58-.17-2.35-.51s-1.35-.81-1.75-1.4l.98-1.14c.81,1,1.81,1.51,2.98,1.51.92,0,1.64-.26,2.16-.78.52-.52.77-1.25.77-2.2v-.95c-.76.88-1.79,1.31-3.11,1.31s-2.35-.52-3.15-1.57c-.8-1.05-1.21-2.47-1.21-4.28ZM150.77,266.8c0,1.25.26,2.23.77,2.95.51.71,1.23,1.07,2.15,1.07,1.2,0,2.07-.54,2.64-1.63v-5.07c-.58-1.06-1.45-1.59-2.61-1.59-.92,0-1.64.36-2.16,1.08s-.78,1.78-.78,3.19Z"/>
      <path d="M167.95,271.12c-.74.87-1.82,1.3-3.25,1.3-1.18,0-2.08-.34-2.7-1.03-.62-.69-.93-1.7-.94-3.05v-7.22h1.9v7.17c0,1.68.68,2.52,2.05,2.52,1.45,0,2.41-.54,2.89-1.62v-8.07h1.9v11.09h-1.8l-.04-1.1Z"/>
      <path d="M179.53,272.22c-.11-.22-.2-.61-.27-1.17-.88.92-1.93,1.37-3.16,1.37-1.09,0-1.99-.31-2.69-.93-.7-.62-1.05-1.4-1.05-2.35,0-1.16.44-2.05,1.32-2.69.88-.64,2.11-.96,3.71-.96h1.85v-.87c0-.66-.2-1.19-.59-1.58-.4-.39-.98-.59-1.75-.59-.68,0-1.24.17-1.7.51-.46.34-.69.76-.69,1.24h-1.91c0-.55.2-1.09.59-1.6.39-.52.93-.92,1.6-1.23s1.41-.45,2.22-.45c1.28,0,2.28.32,3,.96.72.64,1.1,1.52,1.13,2.64v5.11c0,1.02.13,1.83.39,2.43v.16h-1.99ZM176.38,270.78c.59,0,1.16-.15,1.69-.46s.92-.71,1.16-1.2v-2.28h-1.49c-2.32,0-3.49.68-3.49,2.04,0,.59.2,1.06.59,1.39s.91.5,1.53.5Z"/>
    </g>
  </g>
</svg>