<?xml version="1.0" encoding="UTF-8"?>
<svg id="Layer_2" data-name="Layer 2" xmlns="http://www.w3.org/2000/svg" viewBox="0 0 261.93 201.72">
  <g id="Layer_1-2" data-name="Layer 1">
    <path d="M144.93,201.32c-66.07,2.2-130.01-5.49-144.93-24.7,8.98-54.95,106.34-53.54,109.41-41.72l97.33-3.29c66.78-2.2,66.15,31.54,34.1,45.01-47.6,30.19-95.91,24.7-95.91,24.7Z" fill="#0e1a26" opacity=".2"/>
    <g>
      <path d="M84.58,5.99c-.02,1.74-5.02,0-7.5,1.79-5.38-.22-10.56,1.48-15.23,4.15-1.07.61-1.89,1.45-2.81,2.1-1.37.97-2.92,1.64-4.23,3.1-2.85,3.18-5.87,6.38-7.51,10.16-.23.54-1.15,1.02-.97,1.79-4.25,5.05-5.88,12.2-7.29,18.71l-.47,2.17c-1.08,4.97-1.42,10.09-1.56,15.55,1.43.65,2.89.56,4.26.7l26.18,2.62c4.89.49,9.64-1.24,14.12-2.47l.99-10.27c.07-.76.11-1.51.11-2.27,0-.62.09-1.24.02-1.86.56-.61.71-1.47.9-2.45.92-4.82,2.13-9.38,3.66-13.82.31-.9,1.04-1.94.98-2.9-.03-.47.88-1.15.52-1.78,2.93-4.45,5.5-9.27,8.7-13.6.37-.51,1.17-.91,1.04-1.71,1.13.06,5.17-4.18,6.01-5.2.75-.9,2.94-1.02,2.77-2.73,2.14.17,6.51-4.2,17.26-3.24l17.45,1.56c3.19.29,7.03.26,9.05,2.55l1.77,2c-.96,2.36-7.3.75-6.47,2.6-.39.03-1.03.06-1.39-.01-3.62-1.82-10.95,2.6-13.8,5.04-.51.43-1.14,1.05-1.55,1.49-4.83,3.46-9.06,8.77-11.09,14.35-.16.43-.62,1.04-.57,1.54-3.23,5.62-5.58,12.65-6.03,19.14-.63.5-.24,1.53-.43,2.16-.98,3.34-1.17,7.02-1.41,10.75,1.3,1.01,2.94.77,4.14,1.33,5.99,2.77,8.3.58,8.45,4.67-.74-.31-.82-1.68-1.77-1.95-1.65-.46-11.96-1.36-12.07-4.83-.06-1.66,1.15-3.55-.09-4.84.05-.91.16-1.97.41-3.22.09-.1.27-.2.35-.38.09-.21-.12-.44-.28-.59,2.58-18.18,10-37.18,28.04-45.36,3.69-1.67,7.39-1.61,11.64-2.13-8.32-4.22-19.22,2.09-25.19,8.15-11.53,11.72-15.68,26.26-17.42,42.64h-1.63c.23-2.18.34-4.37.74-6.51.03-.17.05-.34.07-.51.59-5.54,2.35-10.83,3.82-16.18,5.11-12.46,12.87-24.81,27.4-29.54l-13.11-1.2c-2.67-.24-5.76-.5-8.33.53-10.16,4.08-17.98,11.87-22.73,21.82-5.46,11.45-8.38,24.32-7.98,36.73l.05,1.43c-8.21,3.64-13.07,2.71-16.43,4.08-.55.23-1.53-.45-2.09,0,0-.39-.25-.92-.87-.99l-23.39-2.62c-2.34-.26-4.48-.47-6.59-.42-.12-.8,0-1.6.01-2.41.81-.8.81-2.47.04-3.28.09-7.81,1.59-15.5,4.15-23.16,3.41-10.23,9.34-19.34,17.72-25.97,6.74-5.33,14.09-7.53,23.02-7.02-3.52-2.6-7.64-2.15-11.42-1.54,0-.59-.58-.42-.48.09-.52.29-1.26,0-1.77.11.09-.5.83-.83.85-1.6.02-.69-.69-.2-.9.04-4.39,0-8.89-.8-13.49.05-5.48,1.01-10.25,3.78-14.42,7.5-11.2,9.99-17.23,25.83-19.31,40.52-1.33,9.43-1.57,18.66-1.01,28.13.03.58.48.83.75.96.17.11.26.42.49.49,1.85-.37,5.19.39,6.93.45.15,0,.39.04.55.05l1.71.1c-1.87.71,7.95,1.84,6.66.83.39.1.86.06,1.26.08-.23.34.1.69.38.81.48.21.9-.29,1.19-.51,2.68.25,5.6.78,8.29.93-.09.24.03.38.29.45s.48-.27.67-.4l5.05.47c.14.3.51.51.5.05.63.06,1.25.18,1.86.35-.05.51.36.43.51.03.59.03,1.18.05,1.78.05-.19.29.31.39.5.36.93-.14,1.86-.08,2.79.04.46.06.94.03,1.39.04-.12.58.02,1.05.72.98.4-.04.87-.12,1.14-.51l.96-.03c.77.81.5,1.45.9,2.27l-46.85-4.97c-.65,4.2-.51,8.36.8,11.97-.03.62.62.61.52,0,.59.1,1.18.23,1.75.43-.13.61.3,1.42.07,2-.45,1.17.18,2.41.09,3.64l-.07.91c-.27-.18-.41.07-.49.29-.15.41.11.79.51.69l2.83,33.94c.05.65-.18,1.32-.48,1.88-.41-.15-1.75-.1-1.72.45l1.52,22.77c.12,1.85,1.14,2.36,2.48,2.75,6.45,1.89,13.28,2.48,19.92,3.75.16.34.43.45.56.04.25-.03.3-.28.44-.43.4-.42.35-1.07.72-1.69.21-.35.86-.11,1.1-.12l.36,2.23c2.33.78,1.31-4.44,1.06-5.51.57-.08,1.15-.13,1.73-.12.04,1.08.6,2.19.49,3.29-.1.24-.41.51-.41.76,0,.55.48.82.97.68l94.31,13.4c.22.12.41.04.51-.23s-.38-.47-.43-.7c-.18-.76.41-1.53.43-2.24.52-.09.52-.67.73-1.24.28-.74,1.15-.61,1.67-.62-.17,2.37-.96,4.75-.42,7.35.13.61,1.09.36,1.84.49,7.53,1.23,15.07,2.65,23.11,3.22,1.14.08,2.35-.1,3.57-.64,4.93-2.19,9.79-4.24,14.56-6.77.84-.93.4-2.74.5-4.07.14-.13.27-.33.42-.48.29-.31-.12-.61-.49-.99-.12-2.28-.82-4.42-1.38-7.04.32-.75,1.33-.74,1.95-.92.86,1.05,1.12,2.43,1.38,3.74-.22.17-.33.59.07.51.19,1.37.5,2.74.45,4.14-.54.12-.5.56.04.46.24.19.56.21.83.33.28.13.33-.21.48-.29,5.94-3.32,12.39-5.78,18.7-8.36.84.41,1.5,1.15,2.43,1.72.46.29,1.05-.23,1.3-.5.3-.31.26-.79.27-1.22.06-2.48.41-4.94.61-7.4.61.04,1.19.22,1.73.51-.35,1.68.3,3.78-.26,5.48-.15.12-.54.09-.58.26-.07.24.05.68.25.68.25,0,.51.03.71-.06,5.21-2.23,10.1-5.12,15.38-7.82l1.26-22.35c.03-.56-.04-.96-.33-1.26-.19-.2-.78-.09-.98-.25-.21-.5-.52-1.18-.47-1.75l2.89-39.53c.07-.91-.33-1.35-.6-1.81-.32-.53-.16-1.32-.32-1.89.61-.23,1.9-.64,2.09-1.56.77-3.71,1.22-7.53.27-11.34l-64.73,24.08c-.28.1-.79.16-1.08.12l-19.42-2.41.09-1.81c.69.09,1.46-.14,2.15.02-.23.35.1.67.37.82.51.29.88-.42,1.2-.51l3.07.17c-.25.3.05.61.39.78.3.14.5-.45.73-.48l2.17.12c-.25.33.05.71.34.86.48.24.9-.33,1.21-.51l2.17.11c-.28.64.29.84.79.95s.87-.54,1.22-.53l2.72.02c.75,0,1.52.1,2.26-.13l28.33-10.56,36.31-13.4c.74-16.55-2.46-43.91-16.88-54.87-5.92-3.92-13.14-4.62-19.88-1.37-5.08,2.45-10.66,6.27-13.92,11.07-.59-.07-1.19-.11-1.79-.11.4-.52.6-2.01,1.37-2.24s.52-.45.94-.96c3.11-3.75,6.89-7.38,11.53-9.25l5.68-2.3c-3.22.46-6.42-1.23-9.32-.56-5.39-1.75-14.98,3.81-18.7,7.38-.71-.24-1.45-.34-2.19-.35.79-1.56,2.45-2.38,3.58-3.7,1.27-.37,2.57-1.34,2.47-2.75,2.04.19,6.46-3.67,12.98-3.38s12.49,1.18,18.71,2.31c12.06,2.21,19.47,12.31,23.09,23.32,2.62,7.98,4.46,16.13,4.59,24.57l.26,15.87c.04,2.32.39,4.25.06,6.62-.37,2.66-.91,5.17-1.53,7.73-.81,3.33-.54,6.56-.72,9.75l-.48,8.4c-.08,1.36-.84,14.4-.83,14.51.15,2.43-1.27,5.33-.25,7.65.9,2.04,1.66,3.83,1.31,6.3-.52,3.66-.58,7.3-.66,10.98-.03,1.6-.43,11.13-1.82,11.64l-16.16,8.47c-2.96,1.55-4.73-1.19-9.68,1.03l-14.93,6.7c-2.01.9-2.4,2.26-3.23,4.17s-3.5,2.46-5.25,3.21c-4.46,1.91-8.5,4.02-13.12,5.48-1.72.54-4.35.49-6.16.12-7.36-1.51-14.84-1.7-22-3.74-2-.57-3.31-2.13-5.89-2.5l-28.74-4.08-36.92-5.45-22.9-3.55c-2.11-.33-3.73.68-5.69.61-7.93-.27-15.61-2.15-23.47-3.44-1.86-.3-3.84-1.98-4-3.9l-2.02-24.86c-.14-1.73.71-2.65,2.27-3.43l-2.53-35.18c-.15-2.05-1.3-2.58-1.9-4.02-1.73-4.13-.84-9.14-1.17-13.63-.14-1.95-.51-3.69-.49-5.61l.2-18.08c.19-17.1,8.11-40.43,22.65-51.48C45.13,1.98,52.78-.59,60.99.11l12.39,1.06c4.19.36,8.51,1.87,11.2,4.81Z" fill="#4e311b"/>
      <path d="M184.98,13.87c.09,1.41-1.21,2.38-2.47,2.75-.13-.46-.64-.57-1.29-.63l-26.5-2.29c-2.96-.26-5.68-.64-8.38-.44-.83-1.85,5.51-.24,6.47-2.6,2.39.39,4.82.71,7.47.95l24.7,2.25Z" fill="#182e44"/>
      <path d="M107.27,7.79c.17,1.71-2.02,1.83-2.77,2.73l-18.8-1.61c-2.81-.24-5.82-.83-8.45-.42-.05-.24-.11-.48-.18-.71,2.49-1.79,7.49-.05,7.5-1.79l22.69,1.81Z" fill="#182e44"/>
      <path d="M177.45,97.83c-.34-9.71-.15-19.45.75-29.35,1.21-13.43,5.84-28.93,13.22-39.78,3.27-4.8,8.84-8.63,13.92-11.07,6.74-3.25,13.96-2.55,19.88,1.37,14.42,10.96,17.63,38.32,16.88,54.87l-36.31,13.4-28.33,10.56ZM198.02,36.09c-.29.42-1.07.78-1.02,1.45-1.51.81-1.91,2.81-2.74,4.12-2.04,3.24-3.82,6.9-4.35,10.72-.96.57-1.17,1.83-1.22,2.86l-.04.76c-.45.07-.39.75-.42,1.1l-.1,1.25c-.63,1.16-.65,2.56-.87,3.85-.07.41-.08.88-.09,1.3-.42.03-.3.72-.34,1.03l-.49,4.54c-.19,1.78-.56,3.42-.41,5.23s-.2,5.2.07,6.91c.05.31-.07,1.13.42,1.42l48.96-17.27c.23-14.04-4.91-40.11-23.34-38.3-5.78,1.05-10.81,4.38-14.01,9.02Z" fill="#be7c2f"/>
      <path d="M181.11,20.68c-4.21,4.04-7.45,9.11-10.17,14.39-7.87,15.25-9.58,32.76-9.36,49.38-.55.26-1.11.3-1.93.21l-32.81-3.47c-1.07-.11-2.2-.93-3.58-.34.2,3.63.16,7.25-.04,10.98,1.38.8,2.78.56,4.1.62.43.02.87.35,1.33.34s.98,0,1.45.07l26.56,3.31-.09,1.81-32.03-3.51c-.67-.07-1.15.09-1.47.44-.25.27.12.79,0,1.13-1.08,3.31-1.18,6.83-2.84,10.43,1.85.59,3.46.52,5.15.72l45.59,5.18c1.23.14,2.28.14,3.2,0,.41.06,1.28.73,1.87.28l-.04-12.26c.3.04.8-.02,1.08-.12l.15,12.7,35.54-13.57,26.68-10.3c.15.58,0,1.36.32,1.89l-7.09,3.15-2.33,41.65c2.79-1.19,4.62-3.12,7.14-3.45-.04.56.26,1.25.47,1.75-.54.63-1.44,1.01-2.31,1.43-10.48,5.08-11.09,14.2-13.13,23.89-.54-.28-1.12-.46-1.73-.51.59-7.35,2-14.97,7.41-20.91-2.39-.35-3.16,1.75-4.73,2.63-.07-1.26,1.12-1.93.54-3.13-.41-.86.36-2.25.07-3.18,1.19.9,1.18-3.56.31-3.88l.14-4.5c1.42,1.02.96-4.63.35-3.87l.11-4.51c1.39,1.7,1.06-7.24.35-6.63l.13-4.05c1.65-.19.85-2.39.41-3.43v-4.12c.13,0,.74.16.76-.07.02-.82.31-2.1-.37-2.72-.71-.65-2.6.06-2.78.96-.41.03-.84.02-1.24.09-1.28.22-3.22.29-3.45,1.77-.37.12-.81.01-1.2.09-.21.04-.47-.12-.73,0-.29.12-.67.5-.38.85-3.57.9-6.87,2.79-8.65,2.88-.95.05-2.52.14-2.51,1.3-1.67.48-3.17,1.48-4.93,1.49-.22,0-.48-.1-.74-.01-.3.11-.69.49-.39.84l-1.2.09c-.22.02-.47-.1-.73,0-.29.11-.68.5-.39.84-.88.14-1.71.47-2.6.56-.94.1-2.53.1-2.49,1.3-.38.12-.83.03-1.22.09-.22.04-.47-.12-.74,0-.29.12-.69.49-.4.84-.52.22-1.93.2-2.1.98-.46,2.12-.03,4.14-.08,6.06-.07,2.63.14,5.28.03,7.9l-.09,2.23.04,17.18.05,2.45-.02,9.16c-.26.22-.48.53-.55.78-.23.86.72.49,1.01.69l2.76,1.89c.32.6.66,1.49,1.43,1.82.11.3.1.74.24.97.25.43.92.69,1.56.39l24.62-11.51c.42-.2.2-1.21.2-1.51,0-.34-.81-.05-1.19.07l1.38-2.88c.62-1.31,1.03-2.85,2.47-2.82-.83,1.56-.17,3.43-.45,5.23-.2,1.28-3.18,18.75-.62,16.74-.01.43.03.91-.27,1.22-.26.27-.84.78-1.3.5-.93-.58-1.58-1.31-2.43-1.72.64-3.82,1.12-7.76,1.21-11.94l-21.22,9.65c-1.12.2-1.76.9-1.93,1.75-.61.18-1.63.17-1.95.92-4.39-6.96-7.78-10.25-17.04-7.8-5.78-1.33-11.56-.19-16.75,3.28,1.3-3.73,2.53-1.55,2.93-4.3.64.02,1.21-.51,1.64-.82,1.09.05,2.22-.1,3.26-.48.29-.1.64-.13.94-.14l6.45-.28c.15.49.6.41.45-.11l.06-14.81v-6.12s.02-4.08.02-4.08v-1.06l-.02-1.29v-2.4c0-.44-.02-.89,0-1.33l-.03-10.2-12.34-1.12c-.37,2.47.03,4.55-.09,6.59-.41,7.51.23,15.09-.64,22.52-.75-.02-1.12-.79-1.81-.97l.04-1.89c1.72.87,1.24-8.49.04-10.72-.07-.13-.06-.33-.08-.48-.02-.17.03-.35.03-.52l.07-6.86c1.3,1.6,1.27-7.35.02-5.75l-.06-1.72c-.02-.66-.32-1.09-1.21-1.21-1.21-.16-7.27-1.29-6.8-.25-.19-.08-.55-.04-.76-.03.26-.86-.71-.98-1.24-.93-.65.07-1.43-.09-1.73.5l-1.22-.03c.26-.87-.71-.95-1.26-.94-.65.01-1.25.11-1.71.51h-.81c1.22-1.08-7.32-2.37-7.5-.92-.24-.06-.57-.05-.82-.05.29-.65-.38-.91-.8-.93-.67-.03-1.26.11-1.7.51l-1.21-.04c.29-.65-.38-.9-.8-.93-.67-.04-1.26.11-1.7.5l-.75-.03c.26-.29-.08-.89-.53-.87-3.74.17-7.42-2.56-9.14,1.55-.57,1.36-1.65,2.19-2.95,2.17,7.45-11.13,7.16-25.64,5.86-38.94-1.19-.06-3.21.86-3.13,2.14,1.03,17.49,1.11,31.42-12.33,44.5,1.93-.11,2.5-1.87,3.99-2.07-.56,1.71-2.21,2.58-3.7,3.67-3.36,2.47-3.75,1.7-3.71,2.76-.88.82-2.2.82-3.19,1.36.46-1.53-6.3,2.22-6.61.05.12-.15.25-.39.45-.46,5.22-1.7,9.72-5.08,13.72-9.16,5.58-5.69,8.52-13.01,9.36-20.99.64-6.05.64-11.98.15-17.83-.05-.64.22-1.29-.09-2.1-5.51-.63-9.51-3.13-14.2-4.38-3.01-2.18-6.52-3.26-9.53-6.17-2.4,1.51-4.92,1.99-7.22,3.01l-.05-1.43c.22-.49.55-.91.88-1.33l11.24-4.31,7.36,4.31c.58-1.42.52-2.64.64-3.82h1.63c-.14,1.31-.16,2.65-.23,4.21-.03.78,2.1,1.71,2.18,1.09l.5-4.4c1.24,1.29.03,3.18.09,4.84.12,3.46,10.42,4.36,12.07,4.83.95.27,1.03,1.64,1.77,1.95.01.35.33.69.47.96,0,2.18,3.58.41,3.62,2.4-1.93.62-4.02-.9-3.51,1.07.18.69,3.05.61,3.6.68l31.14,3.7c.76.09,1.36.14,1.37-.61.02-1.29-12.23-2.5-12.56-2.51-1.42-2.43,12.22,1.79,11.78-.9.41,0,.79-.36.8-.98l.08-3.68c1.44,1.14.95-5.21.36-4.34.25-.74-.04-1.84.11-2.63.62.28.9-.29.93-.8s-.39-.84-.58-1.22c-.16-.51.07-1.17.02-1.7-.01-.15.06-.31.07-.47.97.76,1.62-4.66.85-4.34l.09-1.24c.2.17.39.09.65-.06.21-.12.28-.35.15-.56-.09-.14-.31-.31-.43-.46.08-1.16.59-2.39.57-3.57.27.22.68.04.87-.33.12-.23-.35-.57-.49-.77.43-2.13,1.1-4.36,1.84-6.41.31.14.33-.3.38-.51.13-.52-.17-1.22.04-1.73.19-.48.66-.86.6-1.45.33.18.4-.34.44-.56.05-.3-.01-.61.02-.91.57-.43.43-1.22.5-1.8.42-.43.99-.91,1.34-1.44.31.02.26-.28.32-.48,1.27-4.09,3.92-7.69,6.46-11.34.26-.37.25-.76.29-1.04.77-.14,1.29-.78,1.39-1.54.65-.16,1.19-.58,1.74-.95.18-.12.34-.29.48-.46.13-.15.42-.25.51-.43.74.01,1.49.11,2.19.35ZM118.66,72.66c-7.61-2.04-14.62-4.93-21.27-8.89-1.37-.81-2.66-1.01-3.97.32,2.42,2,23.12,12.79,25.25,8.57ZM228.39,95.07l-2.36,40.86,2.2.13,2.36-40.86-2.2-.13ZM185.04,156.01l-.18-43.76c-3.26,1.18-5.7,2.09-8.74,3l-.18,40.88c3.29-.46,5.97-.28,9.09-.12Z" fill="#623d1a"/>
      <path d="M148.18,177.48c-.01.71-.61,1.48-.43,2.24l-.08.93-94.31-13.4c-.04-.52-.24-1.02-.55-1.44.1-1.1-.45-2.22-.49-3.29-.08-2.13-1.05-4.02-1.33-6.65l77.74,11.11,21.22,3.18c-.74,2.89-1.72,4.94-1.77,7.31Z" fill="#f0b13b"/>
      <path d="M174.73,65.3c-.64.2-.39,1.06-.41,1.58-.02.39.1.85.03,1.24-.6,3.11-.49,6.29-.78,9.65-.53,6.13-.09,12.13-.16,18.35,0,.55,0,1.02-.39,1.22-.16.08-.41.11-.64.12-.65-.02-1.3.1-1.94.06l-2.17-.11c-.24-.57-1.05-.32-1.55-.35l-2.17-.12c-.09-.42-.79-.28-1.11-.29l-3.07-.17c-.24-.67-1.08-.2-1.56-.31-.7-.16-1.46.07-2.15-.02l-26.56-3.31c.15-.42-.41-.51-.71-.52-.26,0-.9,0-.74.45-.46,0-.89-.32-1.33-.34v-9.9c1.94-.3,3.9.1,6.08.33l28.69,3.03c.6.06.5-1.05.49-1.4-.42-11.49,2.26-32,7.32-42.99.59-.75,2.61.06,3.45.09,2.46.07,4.68-1.41,7.23-1.06-2.87,8.41-4.97,16.54-5.85,24.75Z" fill="#f0b13b"/>
      <path d="M239.44,89.09l-26.68,10.3-35.54,13.57-.15-12.7,64.73-24.08c.95,3.82.5,7.64-.27,11.34-.19.91-1.48,1.32-2.09,1.56Z" fill="#be7c2f"/>
      <path d="M65.39,85.39c-.28-.03-.56-.04-.84-.03-1.05-1.1-2.8-1.44-4.21-.48-.93-.12-1.86-.18-2.79-.04.02-.29-.27-.36-.5-.36-.59,0-1.19-.02-1.78-.05l-.51-.03c-.61-.18-1.23-.3-1.86-.35l-.5-.05-5.05-.47-.96-.05c-2.69-.15-5.61-.68-8.29-.93-.25-.61-1.07-.28-1.57-.31-.4-.02-.87.02-1.26-.08-2.19-.56-4.43-.7-6.66-.83l-1.71-.1-.55-.05c-1.74-.06-5.08-.82-6.93-.45.02-.16-.02-.33,0-.49,1.88-10.63-2.35-15.33,4.49-40.54.48-1.78,1.01-3.42,1.7-4.98,2.7-.38,6.91,2.03,7.29,5.02-1.97,10.58-3.68,20.77-2.99,31.86l15.65,1.9c6.63.8,13.04,1.14,19.69,2.29.35,3.37.18,6.51.14,9.61Z" fill="#f0b13b"/>
      <path d="M87.25,35.71c-1.52,4.44-2.74,9-3.66,13.82-.19.98-.34,1.84-.9,2.45l-39.18-3.74c.2-5.42,1.97-10.95,4.85-15.54l38.89,3Z" fill="#3a74a9"/>
      <path d="M82.56,56.11l-.99,10.27c-4.48,1.23-9.23,2.96-14.12,2.47l-26.18-2.62c.49-4.79.29-9.67,1.41-14.36l39.89,4.25Z" fill="#3a74a9"/>
      <path d="M109.26,38.01c-1.46,5.36-3.23,10.64-3.82,16.18-.52-.11-.64.53-.07.51-.4,2.14-.51,4.33-.74,6.5-.12,1.17-.06,2.39-.64,3.82l-7.36-4.31-11.24,4.31c.74-10.49,2.78-21.98,8.01-31.74l16.36,1.63c-.64,1.31-.3,2.33-.51,3.1Z" fill="#f0b13b"/>
      <path d="M97.45,17.43c-3.2,4.33-5.77,9.15-8.7,13.6l-37.18-3.24c1.8-4.44,5.56-7.83,9.08-11.33.68-.68,1.55-1.09,1.66-1.96l35.13,2.94Z" fill="#5e8fb9"/>
      <path d="M109.26,38.01c.21-.77-.14-1.79.51-3.1l-16.36-1.63c-5.24,9.76-7.27,21.25-8.01,31.74-.33.42-.66.84-.88,1.33-.39-12.41,2.52-25.28,7.98-36.73,4.75-9.95,12.57-17.74,22.73-21.82,2.56-1.03,5.66-.77,8.33-.53l13.11,1.2c-14.54,4.73-22.29,17.08-27.4,29.54ZM120.02,17.48l6.09-5.29c1.25-1.09,2.88-1.41,3.6-3.27-3.15.16-6.52-1.02-9.75-.5-5.46.87-10.37,4.12-14.53,7.75,1.71,1.26,3.64.68,5.62.91,2.96.34,5.81.71,8.97.41Z" fill="#f4da7d"/>
      <path d="M192.28,166.67c.55,2.62,1.26,4.76,1.38,7.04-.41-.03-.36.48-.33.7.04.3,0,.85.4.77-.11,1.33.33,3.14-.5,4.07-4.77,2.53-9.63,4.59-14.56,6.77-1.23.54-2.43.72-3.57.64v-25.94s.15-1.87.15-1.87c9.25-2.45,12.65.85,17.04,7.8Z" fill="#be7c2f"/>
      <path d="M30.15,142.08c7.52,2.84,10.76,7.61,14.51,13.95,1.77,3,2,8.13,2.68,11.7-.14.15-.19.4-.44.43l-.56-.04c-6.64-1.27-13.48-1.86-19.92-3.75-.46-6.72-1.44-13.39-.81-20.49.12-1.35,3.35-2.25,4.54-1.8Z" fill="#f0b13b"/>
      <path d="M199.82,13.29c-6.45,1.49-12.9,3.87-17.45,9.27,3.11,2.64,4.66.04,5.92,4.24l2.61-1.36.09.91c-.77.23-.97,1.72-1.37,2.24-8.63,10.42-12.08,26.93-13.56,40.12l-1.7-.6c.08-.39-.05-.85-.03-1.24.34.28.7-.05.84-.38.17-.42-.16-.89-.43-1.2.88-8.21,2.97-16.34,5.85-24.75-2.55-.35-4.78,1.13-7.23,1.06-.84-.02-2.86-.83-3.45-.09-5.07,10.99-7.75,31.5-7.32,42.99-.3.07-.73-.19-1-.07-.22-16.62,1.5-34.13,9.36-49.38,2.72-5.28,5.96-10.35,10.17-14.39,3.72-3.57,13.32-9.13,18.7-7.38Z" fill="#f4da7d"/>
      <path d="M66.42,3.09c-12.54,4.11-22.2,14.22-28.24,26.1-1.04,2.04-2.13,3.87-2.51,5.99.62-1.95.53-4.57,1.78-7.16-3.13-.39-5.54-.75-8.48-.56-1.37,2.49-2.32,4.92-3.35,7.27-.68,1.56-1.21,3.2-1.7,4.98-6.83,25.21-2.61,29.91-4.49,40.54h-.5c-.27-.12-.71-.38-.75-.96-.56-9.48-.32-18.7,1.01-28.13,2.07-14.69,8.11-30.53,19.31-40.52,4.17-3.72,8.94-6.49,14.42-7.5,4.6-.85,9.1-.04,13.49-.05ZM47.47,13.25c4.12-3.2,7.64-6.08,12.37-8.72-6.28-2.83-16.78,4.36-20.11,8.66,2.35.47,5.84,1.54,7.74.06Z" fill="#f4da7d"/>
      <path d="M67.83,81.19c.2,2.73.6,5.63.66,8.52.09,4.61,1.49,8.51,2.89,12.44,1.32,3.71,2.69,7.44,5.2,10.71-.96.04-1.85-.34-2.77-.56-.03-.1-.03-.24-.02-.35,0-.22.06-.48-.02-.73-.12-.35-.54-.45-.89-.29l-.02-.36c-.01-.21.09-.49,0-.76-.13-.34-.62-.32-.95-.3-.12,0-.25-.04-.37-.05-.04-1.9-1.66-2.82-1.53-4.92.01-.21.03-.43,0-.73-.04-.35-.63-.24-.82-.36.02-.52-.62-.65-.85-.89s-.09-1.2-.99-.94c-1.18.34-2.32-.75-3.25-.65-2.75.3-4.93-.2-7.54-1-2.27-.7-4.95.17-7.34-.18-.36.01-.74.24-.58.48-.24-.04-.51-.04-.75-.04.27-.86-.7-1.05-1.24-.98-.63.08-1.49-.08-1.72.55l-.76-.04c.33-.62-.37-.99-.78-.96-.63.04-1.53-.13-1.7.51-.26,0-.52-.06-.78-.03-.02-.31,0-.74-.21-.95-.88-.86-2.95.52-3.67.54-.67.02-1.3-.24-2.48.06l2.78,39.78c.06.82,2.09.55,2.47.62-.02.55.2,1.15.06,1.7-.6-.38-1.8-.46-2.68-.08,1.93,2.22,4.3,3.82,5.99,6.35,3.68,5.49,5.48,11.81,6.03,18.6-.24,0-.89-.23-1.1.12-.37.63-.32,1.28-.72,1.69-.68-3.57-.91-8.7-2.68-11.7-1.8-6.66-6.67-12.63-13.15-14.97l-7.37-2.66c.3-.56.53-1.23.48-1.88l1.76.04c2.78,1.35,5.94,1.84,9.06,2.67l-2.47-36.14c-.1-1.41-.12-2.86-.35-4.54l-10.86-1.49c.23-.59-.2-1.39-.07-2l2.34.03,44.13,5.32c-.7-3.56-1.52-6.68-1.84-9.89-.12-1.21-.31-1.82-.85-2.89-.41-.82-.13-1.47-.9-2.27.28,0,.56,0,.84.03.19.02.53-.03.53-.46v-3.73s1.91-.01,1.91-.01Z" fill="#623d1a"/>
      <path d="M222.63,165.75c.03-.34-.03-.73-.38-.88.56-1.7-.09-3.8.26-5.48,2.04-9.69,2.65-18.81,13.13-23.89.87-.42,1.77-.8,2.31-1.43.2.17.79.05.98.25.29.31.36.71.33,1.26l-1.26,22.35c-5.28,2.69-10.17,5.59-15.38,7.82Z" fill="#be7c2f"/>
      <path d="M237.47,132.33c-2.52.33-4.35,2.27-7.14,3.45l2.33-41.65,7.09-3.15c.28.46.67.9.6,1.81l-2.89,39.53Z" fill="#be7c2f"/>
      <path d="M146.34,13.27c2.7-.2,5.42.18,8.38.44l26.5,2.29c.65.06,1.16.16,1.29.63-1.13,1.32-2.79,2.14-3.58,3.7-.09.17-.38.28-.51.43-.15.16-.36.26-.48.46-.55.37-1.09.78-1.74.95l-41.07-3.7c2.72-2.24,6.19-3.46,9.58-4.84.12-.16.18-.29.24-.35.36.07,1,.04,1.39.01Z" fill="#5e8fb9"/>
      <path d="M49.75,152.01c.4.48-.22,1.72,1.05,1.9l98.54,14.32c1.31.19,1.63.2,2.25-1.06.38-.77-.3-.9-1.08-1.37,1.46-.53,3.23-.98,4.72-.44-2.12,3.03-3.43,6.48-4.65,10.26-.52.01-1.39-.12-1.67.62-.22.57-.22,1.14-.73,1.24.04-2.37,1.03-4.42,1.77-7.31l-21.22-3.18-77.74-11.11c.28,2.63,1.25,4.52,1.33,6.65-.58-.01-1.16.04-1.73.12l-2.37-9.83-1.8-4.69c2.08.4,1.22,1.35,3.33,3.9Z" fill="#623d1a"/>
      <path d="M216.17,166.28c-6.31,2.58-12.76,5.04-18.7,8.36-.19.02-.63-.08-.48.29-.27-.13-.59-.14-.83-.33l-.04-.46c.06-1.4-.26-2.77-.45-4.14l-.07-.51c-.26-1.31-.51-2.69-1.38-3.74.18-.85.82-1.56,1.93-1.75l21.22-9.65c-.09,4.19-.57,8.12-1.21,11.94Z" fill="#be7c2f"/>
      <path d="M35.24,62.14l-.04,3.28c0,.8-.13,1.6-.01,2.41-.12,0-.24,0-.36.02-.7.09-1.38.51-2.27.29.34-20.91,3.46-38.39,18.52-53.81,4.48-4.59,9.73-7.28,15.38-9.68.5-.12,1.25.17,1.77-.11.14-.07.32-.07.48-.09,3.78-.61,7.9-1.05,11.42,1.54-8.93-.51-16.28,1.69-23.02,7.02-8.38,6.63-14.31,15.73-17.72,25.97-2.55,7.66-4.06,15.35-4.15,23.16Z" fill="#be7c2f"/>
      <path d="M66.46,4.65c-5.65,2.4-10.9,5.08-15.38,9.68-15.05,15.42-18.18,32.9-18.52,53.81.88.22,1.56-.2,2.27-.29.04.06-.12,1.01.15,1.06l29.83,3.63c.78.09.98-.21,1.22-.69.56-.45,1.54.23,2.09,0-.04.63-.25,1.3-.16,1.94-.42-.15-.92-.53-1.35-.45-.59.11-.72.75-.75,1.2l-34.78-4.04c-.59-12.26,1-24.05,4.57-35.33.37-2.12,1.47-3.95,2.51-5.99,6.04-11.88,15.7-21.99,28.24-26.1.21-.24.92-.73.9-.04-.02.76-.76,1.1-.85,1.6Z" fill="#623d1a"/>
      <path d="M109.19,57.92l-.07.97c-.25,1.24-.36,2.31-.41,3.22l-.5,4.4c-.08.62-2.21-.31-2.18-1.09.06-1.56.09-2.9.23-4.2,1.74-16.39,5.89-30.93,17.42-42.64,5.97-6.06,16.87-12.36,25.19-8.15-4.25.52-7.96.45-11.64,2.13-18.03,8.19-25.46,27.18-28.04,45.36Z" fill="#be7c2f"/>
      <path d="M77.26,8.49c2.63-.41,5.64.18,8.45.42l18.8,1.61c-.85,1.02-4.88,5.26-6.01,5.2l-32.63-2.79c3.43-2.07,7.36-3.82,11.39-4.44Z" fill="#5e8fb9"/>
      <path d="M191.41,28.71c-7.37,10.85-12,26.34-13.22,39.78-.89,9.9-1.08,19.64-.75,29.35-.74.23-1.51.14-2.26.13-.08-8.21.01-16.42.47-24.62.04-.75-.18-1.65.05-2.38s.26-1.47.35-2.25c1.48-13.2,4.93-29.71,13.56-40.12.6,0,1.2.04,1.79.11Z" fill="#623d1a"/>
      <path d="M65.46,87.63c.53,1.07.73,1.68.85,2.89l-15.47-1.72c-5.41-.6-10.6-1.45-16.06-2l-13.95-1.42c-.18,2.92-.2,5.54,0,8.3,1.16.75,2.59.31,3.18,1.42l-2.34-.03c-.57-.2-1.16-.33-1.75-.43h-.52c-1.31-3.61-1.44-7.77-.8-11.97l46.85,4.97Z" fill="#f4da7d"/>
      <path d="M156.57,97.97l19.42,2.41.04,12.26c-.59.45-1.46-.23-1.87-.28.16-3.09.25-6.25-.07-9.57l-21.71-2.58-25.56-3.27c-.04-.61-.55-.93-1.35-.92h-2.4c.11-.33-.26-.86,0-1.13.33-.35.81-.51,1.47-.44l32.03,3.51Z" fill="#f4da7d"/>
      <path d="M191.93,25.4l-1.03.05-2.61,1.36c-1.26-4.2-2.81-1.6-5.92-4.24,4.56-5.4,11-7.78,17.45-9.27,2.91-.67,6.1,1.02,9.32.56l-5.68,2.3c-4.64,1.87-8.42,5.5-11.53,9.25Z" fill="#f5c957"/>
      <path d="M175.25,158.86l-.15,1.87c-.76,0-1.52-.01-2.28.06-10.7,1.09-20.93,10.7-20.84,21.23v1.42c-.73-.12-1.7.12-1.82-.49-.54-2.59.25-4.97.42-7.35,1.22-3.78,2.53-7.23,4.65-10.26.87-1.24,2.23-2.53,3.26-3.22,5.19-3.47,10.97-4.62,16.75-3.28Z" fill="#f4da7d"/>
      <path d="M101.31,70.94c-.14.24-.31.47-.5.69-2.66-1.57-6.17-1.86-8.96-4.29-7.03,3.82-14.08,5.67-22.08,6.52-.38,6.33.18,22.33,1.9,27.29l-.3,1.01c-1.4-3.93-2.79-7.82-2.89-12.44-.06-2.89-.45-5.8-.66-8.52-.18-2.4.5-4.96.14-7.4-.1-.64.12-1.31.16-1.94,3.36-1.37,8.23-.44,16.43-4.08,2.3-1.02,4.81-1.5,7.22-3.01,3.01,2.91,6.53,3.98,9.53,6.17Z" fill="#f4da7d"/>
      <path d="M88.23,32.81c.06.96-.67,2-.98,2.9l-38.89-3c.52-.83.85-2.03.98-2.98l38.89,3.08Z" fill="#5e8fb9"/>
      <path d="M175.1,160.73v25.94c-8.03-.57-15.58-1.99-23.11-3.22v-1.42s5.8.65,5.8.65l14.04,2.5.99-24.38c.76-.08,1.52-.07,2.28-.06Z" fill="#f5c957"/>
      <path d="M115.59,55.2l45.07,4.23-.48,2.19-44.98-4.41c-1.24-.12-2.48-.33-3.73-.24.19-.63-.2-1.66.43-2.16,1.2.41,2.47.27,3.7.38Z" fill="#284461"/>
      <path d="M122.14,34.19l44.25,3.81c-.06.58.07,1.37-.5,1.8l-45.02-3.66c-.47-.04-.93-.34-1.43-.36l-1.53-.09c-.05-.51.42-1.11.57-1.54,1.21-.04,2.44-.05,3.65.05Z" fill="#284461"/>
      <path d="M43.52,48.25l39.18,3.74c.07.62-.02,1.24-.02,1.86l-40.09-3.69c-1.34-.12-2.68-.51-4.01-.18l.47-2.17c1.48.25,2.97.51,4.48.44Z" fill="#284461"/>
      <path d="M135.12,18.45l41.07,3.7c-.1.77-.62,1.4-1.39,1.54l-42.83-3.36c-.78-.06-1.56-.67-2.38-.55.42-.44,1.05-1.06,1.55-1.49,1.3.32,2.68.04,3.98.16Z" fill="#284461"/>
      <path d="M51.58,27.79l37.18,3.24c.35.63-.56,1.31-.52,1.78l-38.89-3.08c-.91-.07-1.96-.99-3.01-.63-.18-.78.74-1.26.97-1.79,1.4.43,2.85.36,4.28.49Z" fill="#284461"/>
      <path d="M46.33,29.1c1.05-.36,2.1.56,3.01.63-.12.95-.46,2.15-.98,2.98-2.87,4.59-4.65,10.12-4.85,15.54-1.5.08-3-.19-4.48-.44,1.41-6.51,3.05-13.66,7.29-18.71Z" fill="#30597f"/>
      <path d="M24.14,138.4l7.37,2.66c-.56.17-1.15.43-1.36,1.02-1.2-.45-4.42.44-4.54,1.8-.63,7.11.35,13.78.81,20.49-1.34-.39-2.35-.9-2.48-2.75l-1.52-22.77c-.04-.55,1.31-.59,1.72-.45Z" fill="#f4da7d"/>
      <path d="M82.67,53.84c0,.76-.04,1.51-.11,2.27l-39.89-4.25c.13-.53-.19-1.17-.09-1.71l40.09,3.69Z" fill="#5e8fb9"/>
      <path d="M24.01,101.13l2.37,35.43-1.76-.04-2.83-33.94-.02-.98.07-.91c.72-.28,1.52.48,2.17.42Z" fill="#f4da7d"/>
      <path d="M42.58,50.16c-.1.54.22,1.18.09,1.71-1.11,4.69-.91,9.57-1.41,14.36-1.37-.14-2.83-.05-4.26-.7.14-5.46.48-10.58,1.56-15.55,1.33-.33,2.67.06,4.01.18Z" fill="#30597f"/>
      <path d="M119.45,35.76c-.4,1.08-.66,2.16.5,3.14-2.24,5.34-3.58,10.77-4.36,16.29-1.23-.12-2.5.03-3.7-.38.45-6.49,2.8-13.51,6.03-19.14l1.53.09Z" fill="#30597f"/>
      <path d="M65.86,12.93l32.63,2.79c.12.8-.67,1.2-1.04,1.71l-35.13-2.94c-1.09-.09-2.16-.61-3.28-.46.92-.65,1.74-1.49,2.81-2.1-.59,1.17,3.02.92,4.02,1Z" fill="#284461"/>
      <path d="M59.04,14.03c1.12-.15,2.19.37,3.28.46-.11.87-.97,1.28-1.66,1.96-3.52,3.5-7.28,6.9-9.08,11.33-1.43-.12-2.88-.06-4.28-.49,1.64-3.78,4.67-6.98,7.51-10.16,1.31-1.47,2.86-2.13,4.23-3.1Z" fill="#30597f"/>
      <path d="M129.59,19.78c.83-.12,1.61.49,2.38.55-.01.57-.38.98-.85,1.49-3.56,3.81-6.83,7.81-8.98,12.37-1.2-.1-2.44-.09-3.65-.05,2.03-5.58,6.26-10.89,11.09-14.35Z" fill="#30597f"/>
      <path d="M39.83,141.05c1.83,2.23,3.76,3.98,5.62,5.72.04.23.03.66.42.48.02.34.45.59.56.87l1.8,4.69,2.37,9.83c.26,1.07,1.27,6.3-1.06,5.51l-.36-2.23c-.56-6.79-2.36-13.11-6.03-18.6-1.69-2.53-4.06-4.13-5.99-6.35.88-.37,2.08-.3,2.68.08Z" fill="#be7c2f"/>
      <path d="M176.06,68.72c-.09.78-.1,1.5-.35,2.25-.99-.42-.47,3.09-.05,2.38-.46,8.2-.55,16.4-.47,24.62l-2.72-.02-.07-.48c.22-.02.48-.04.64-.12.38-.21.38-.67.39-1.22.07-6.22-.37-12.22.16-18.35.29-3.36.18-6.54.78-9.65l1.7.6Z" fill="#f5c957"/>
      <path d="M66.03,71.85c-.24.48-.44.79-1.22.69l-29.83-3.63c-.27-.04-.11-.99-.15-1.06.12-.02.24-.02.36-.02,2.11-.05,4.25.16,6.59.42l23.39,2.62c.61.07.87.6.87.99Z" fill="#f4da7d"/>
      <path d="M115.19,57.21l-.02,1.71c-.03,3.34-1.12,6.74-.99,10.13-1.2-.56-2.84-.31-4.14-1.33.24-3.73.42-7.42,1.41-10.75,1.25-.09,2.49.12,3.73.24Z" fill="#30597f"/>
      <path d="M220.78,158.89c-.2,2.46-.54,4.92-.61,7.4-2.56,2.01.42-15.47.62-16.74.28-1.8-.38-3.67.45-5.23.46-.87.82-1.8,1.41-2.59.15-.19.28-.39.4-.6.14-.14.23-.43.4-.53,1.57-.88,2.34-2.97,4.73-2.63-5.41,5.94-6.82,13.56-7.41,20.91Z" fill="#be7c2f"/>
      <path d="M32.96,103.09c-.43-1.38-1.35-1.51-2.83-1.55-2.19-.06-4.16-.59-6.12-.42-.65.06-1.45-.71-2.17-.42.09-1.23-.54-2.47-.09-3.64l10.86,1.49c.23,1.68.26,3.13.35,4.54Z" fill="#be7c2f"/>
      <path d="M77.08,7.78c.07.23.13.47.18.71-4.03.62-7.96,2.37-11.39,4.44-1-.09-4.61.17-4.02-1,4.67-2.67,9.85-4.38,15.23-4.15Z" fill="#30597f"/>
      <path d="M144.94,13.26c-.06.06-.12.2-.24.35-3.39,1.38-6.86,2.6-9.58,4.84-1.3-.12-2.68.16-3.98-.16,2.85-2.44,10.18-6.86,13.8-5.04Z" fill="#30597f"/>
      <path d="M35.27,82.16c1.29,1.01-8.53-.12-6.66-.83,2.23.13,4.47.27,6.66.83Z" fill="#623d1a"/>
      <path d="M64.55,85.36l-.96.03c-.55-.38-1.21-.45-1.86-.46-.46-.01-.94.02-1.39-.04,1.41-.96,3.16-.62,4.21.48Z" fill="#f5c957"/>
      <path d="M172.4,97.47l.07.48c-.35,0-.72.64-1.22.53s-1.07-.31-.79-.95c.64.03,1.29-.08,1.94-.06Z" fill="#623d1a"/>
      <path d="M63.59,85.38c-.27.4-.74.47-1.14.51-.7.08-.84-.4-.72-.98.65.01,1.31.09,1.86.46Z" fill="#623d1a"/>
      <path d="M35.2,65.42l.04-3.28c.77.82.77,2.48-.04,3.28Z" fill="#623d1a"/>
      <path d="M193.74,175.18c-.4.08-.36-.47-.4-.77-.03-.22-.08-.74.33-.7.37.38.78.68.49.99-.15.16-.28.35-.42.48Z" fill="#623d1a"/>
      <path d="M168.28,97.42c-.31.18-.72.75-1.21.51-.3-.15-.59-.52-.34-.86.5.03,1.31-.22,1.55.35Z" fill="#623d1a"/>
      <path d="M160.38,96.49c-.32.09-.68.81-1.2.51-.27-.15-.59-.48-.37-.82.49.11,1.33-.36,1.56.31Z" fill="#623d1a"/>
      <path d="M38.1,82.55c-.29.22-.71.71-1.19.51-.28-.12-.61-.47-.38-.81.5.03,1.32-.3,1.57.31Z" fill="#623d1a"/>
      <path d="M53.36,167.25c-.49.14-.98-.13-.97-.68,0-.25.32-.52.41-.76.31.42.51.92.55,1.44Z" fill="#623d1a"/>
      <path d="M222.63,165.75c-.2.09-.46.06-.71.06-.2,0-.32-.43-.25-.68.05-.17.44-.14.58-.26.35.14.41.54.38.88Z" fill="#623d1a"/>
      <path d="M164.56,96.96c-.23.04-.43.63-.73.48-.34-.16-.63-.48-.39-.78.33.02,1.02-.12,1.11.29Z" fill="#623d1a"/>
      <path d="M191.93,25.4c-.43.51-.13.72-.94.96l-.09-.91,1.03-.05Z" fill="#623d1a"/>
      <path d="M109.12,58.89l.07-.97c.16.15.38.38.28.59-.08.18-.26.28-.35.38Z" fill="#623d1a"/>
      <path d="M147.67,180.64l.08-.93c.05.22.54.42.43.7s-.29.35-.51.23Z" fill="#623d1a"/>
      <path d="M47.35,83.53c-.19.12-.4.47-.67.4s-.38-.21-.29-.45l.96.05Z" fill="#623d1a"/>
      <path d="M21.79,102.58c-.4.1-.65-.28-.51-.69.08-.22.22-.47.49-.29l.02.98Z" fill="#623d1a"/>
      <path d="M19.4,94.63h.52c.09.61-.55.62-.52,0Z" fill="#623d1a"/>
      <path d="M57.55,84.84c-.2.03-.69-.07-.5-.36.24,0,.53.07.5.36Z" fill="#623d1a"/>
      <path d="M54.76,84.4l.51.03c-.15.4-.55.48-.51-.03Z" fill="#623d1a"/>
      <path d="M52.4,84.01l.5.05c0,.46-.36.25-.5-.05Z" fill="#623d1a"/>
      <path d="M26.35,81.19l.55.05c-.15,0-.39-.04-.55-.05Z" fill="#623d1a"/>
      <path d="M19.42,80.74c-.23-.07-.32-.37-.49-.49h.5c-.03.15.01.33,0,.49Z" fill="#623d1a"/>
      <path d="M197,174.93c-.16-.37.29-.27.48-.29-.15.09-.19.42-.48.29Z" fill="#623d1a"/>
      <path d="M105.38,54.7c-.57.02-.45-.63.07-.51-.02.17-.04.34-.07.51Z" fill="#623d1a"/>
      <path d="M196.17,174.6c-.55.09-.58-.34-.04-.46l.04.46Z" fill="#623d1a"/>
      <path d="M68.71,4.45c-.15.02-.34.02-.48.09-.1-.51.47-.68.48-.09Z" fill="#623d1a"/>
      <path d="M46.34,168.12l.56.04c-.13.41-.4.3-.56-.04Z" fill="#623d1a"/>
      <path d="M195.68,170c-.4.08-.3-.34-.07-.51l.07.51Z" fill="#623d1a"/>
      <path d="M214.23,29.15c2.37.24,6.34,1.56,7.87,3.67,5.87,8.12,9.22,20.16,8.84,30.7l-42.74,14.95c-.77.27-.43,1.31-.44,1.77-.51.18-.89,1.43-1.75.96-.27-1.71.08-5.04-.07-6.91,1.43,1.42.91-6.42.41-5.23l.49-4.54c.2.15.4.08.65-.05.22-.11.36-.41.16-.57l-.48-.41c0-.41.01-.88.09-1.3,1.03,1.31,1.48-4.29.87-3.85l.1-1.25c.26.21.71.02.87-.31.11-.22-.25-.61-.46-.79l.04-.76c1.43-.07,1.08-1.84,1.22-2.86.53-3.82,2.31-7.48,4.35-10.72,1.92-.25,2.72-2.31,2.74-4.12-.05-.67.73-1.03,1.02-1.45.6-.09,1.21-.08,1.81-.01-.01,1.59-1.83,2.46-3.27,5.71-.34.76-1.09,1.37-.98,2.3-.35.25-.86.57-1.12,1.16-2.52,5.85-4.43,11.81-5.25,18.15-.55,4.27-1.53,8.3-.97,12.94l40.55-13.97c.93-1.62-.68-9.15-1.17-11.14-1.32-5.31-2.67-10.69-6.04-14.8-.5-.61-.57-1.87-1.7-1.83-1.97-3.51-6.4-5.48-10.58-4.36-6.41,1.71-7.84,6.02-9.47,5.84,0-.93,4.31-4.96,4.54-5.08,3.03-1.5,6.61-2.17,9.86-1.84Z" fill="#4e311b"/>
      <path d="M186.01,81.21c.86.47,1.24-.78,1.75-.96l45.83-16.21c.23-8.31-3.43-27.33-11.03-31.67-.12-1.21-8.13-5.17-8.33-3.21-3.25-.33-6.82.34-9.86,1.84-.23.11-4.53,4.14-4.54,5.08-.6-.07-1.21-.07-1.81.01,3.2-4.64,8.23-7.97,14.01-9.02,18.43-1.8,23.57,24.26,23.34,38.3l-48.96,17.27c-.49-.29-.37-1.11-.42-1.42Z" fill="#623d1a"/>
      <path d="M194.27,41.66c.83-1.32,1.22-3.32,2.74-4.12-.02,1.81-.82,3.88-2.74,4.12Z" fill="#623d1a"/>
      <path d="M185.94,74.3c-.14-1.8.22-3.45.41-5.23.5-1.19,1.02,6.65-.41,5.23Z" fill="#623d1a"/>
      <path d="M187.27,62.2c.22-1.29.25-2.69.87-3.85.61-.44.15,5.16-.87,3.85Z" fill="#623d1a"/>
      <path d="M188.7,55.24c.05-1.03.26-2.29,1.22-2.86-.14,1.02.21,2.78-1.22,2.86Z" fill="#623d1a"/>
      <path d="M186.85,64.53c.03-.31-.09-1,.34-1.03l.48.41c.19.16.05.46-.16.57-.25.13-.45.21-.65.05Z" fill="#623d1a"/>
      <path d="M188.24,57.09c.03-.35-.03-1.03.42-1.1.21.18.56.56.46.79-.16.33-.61.53-.87.31Z" fill="#623d1a"/>
      <path d="M83.11,122.98c2.26.94,5.8,5.02,8.29,4.74.2.6.72,1.09,1.52,1.37,6.93,2.41,13.77.87,19.98-2.4.35.19.74.41,1.41.48l44.97,5.23.09,7.44-.04,1.89.04,2.8c.02,1.23-.14,2.47-.03,3.7-.09.17-.37.3-.41.49l-113.54-14.94-1.18-14.99c.62-.25,1.29-.23,2.21-.12l36.69,4.33Z" fill="#3a74a9"/>
      <path d="M120.88,36.13c.04.86-.65,1.57-.51,2.46l44.48,4.13c-.2.51.09,1.2-.04,1.73-.34-.17-.3.31-.38.51-.74,2.05-1.42,4.28-1.84,6.41-.43.13-.39.73-.38,1.1.02,1.18-.49,2.41-.57,3.57-.46.06-.34.74-.36,1.08l-.09,1.24c-.4.2-.44.69-.53,1.09l-45.07-4.23c.78-5.53,2.12-10.95,4.36-16.29-1.16-.97-.9-2.05-.5-3.14.5.03.96.33,1.43.36Z" fill="#3a74a9"/>
      <path d="M160.27,63.15c.05.53-.19,1.19-.02,1.7-.74.4-.23,1.37-.35,2.02-.15.79.14,1.89-.11,2.63-.76,1.33-.33,2.84-.36,4.34l-.08,3.68c-.01.62-.39.97-.8.98-2.13-.06-4.26-.16-6.63-.44l-28.81-3.38c-.13-.27-.45-.62-.47-.96-.15-4.08-2.46-1.9-8.45-4.67-.13-3.39.96-6.79.99-10.13l38.1,3.66c2.54.24,4.76.52,7,.56Z" fill="#3a74a9"/>
      <path d="M174.8,23.7c-.04.28-.03.66-.29,1.04-2.54,3.65-5.19,7.25-6.46,11.34-.16.12-.22.32-.32.48-.35.53-.92,1.01-1.34,1.44l-44.25-3.81c2.15-4.56,5.41-8.56,8.98-12.37.47-.51.84-.92.85-1.49l42.83,3.36Z" fill="#5e8fb9"/>
      <path d="M224.77,113.71c.1,1.27.24,2.55.21,3.83l-.11,4.51c-.79,1.13-.31,2.56-.35,3.87l-.14,4.5c-.15.13-.29.26-.41.41-1.19.15-2.34.6-3.68,1.14l-30.39,12.31c-.98.39-1.75.76-2.61.57l-.04-17.18,37.52-13.94Z" fill="#30597f"/>
      <path d="M100.81,71.62c6.62,3.9,8.25,3.02,14.8,5.79.49,5.85.49,11.77-.15,17.83-.84,7.97-3.79,15.3-9.36,20.99-4,4.08-8.49,7.46-13.72,9.16-9.36-6.74-16.8-12.97-20.71-24.24-1.72-4.95-2.28-20.96-1.9-27.29,8-.85,15.05-2.7,22.08-6.52,2.79,2.43,6.3,2.73,8.96,4.29ZM103.07,112.56c7.93-8.51,7.94-22.3,7.48-32.97-7.19-1.59-13.43-4.37-19.65-8.39-5.96,3.06-12,4.86-18.71,5.53.05,6.6.34,12.77,1.43,19.2,1.99,10.43,8.87,18.96,18.17,23.9,4.2-2.08,7.78-4.25,11.27-7.26Z" fill="#f0b13b"/>
      <path d="M174.16,112.37c-.92.14-1.97.14-3.2,0l-45.59-5.18c-.41-.63-.18-1.38.07-2.2.84-2.72,1.03-5.41,1.37-8.04l25.56,3.27,21.71,2.58c.32,3.32.23,6.47.07,9.57Z" fill="#f0b13b"/>
      <path d="M223.86,132.84c.01.45.07,1.01.21,1.44.3.93-.48,2.32-.07,3.18-4.01,4.11-4.4,4.71-6.52,10.2l-26.95,12.13-2.76-1.89c-.07-.48.11-1.29-.46-1.47l.02-9.16,36.53-14.44Z" fill="#30597f"/>
      <path d="M174.24,124.92c-.02.44,0,.89,0,1.33-.72.48-.73,1.93,0,2.4l.02,1.29c-.41-.21-.58.38-.47.75.06.22.19.5.47.3l-.02,4.08c-.77,1.81-.76,4.31,0,6.12l-.06,14.81-.45.11-6.45.28c.05-.38-.4-.49-.7-.36-.22.1-.38.27-.25.5-1.04.38-2.18.52-3.26.48v-36.72c3.53.2,7.07.64,10.72,1.2.02,1.5-.26,2.62.45,3.41Z" fill="#f0b13b"/>
      <path d="M185.04,156.01c-3.13-.16-5.8-.34-9.09.12l.18-40.88c3.04-.91,5.48-1.81,8.74-3l.18,43.76Z" fill="#be7c2f"/>
      <path d="M127.36,109.51l.75.03c.54.77,1.68.39,2.5.42l1.21.04c.55.77,1.68.43,2.51.43.25,0,.58-.02.82.05,2.42.66,5,.88,7.5.91h.81c.72.83,1.98.41,2.97.44l1.22.03c.81.74,1.95.49,2.97.44.21-.01.57-.06.76.03,2.52,1.12,5.42.54,8.01,1.46l.06,1.72-.21,5.08-35.94-4.58c-1.73,3.5-5.32,5.69-5.71,7.57l-10.37-1.17c.06-.37.28-.77.74-1.08,4.69-3.1,8.46-7.09,11.22-12.09,2.73-.63,4.33.11,8.2.26Z" fill="#30597f"/>
      <path d="M40.87,99.3c-.35.03-.86-.05-1.18.12-.95.52.34,12.67.61,14.41.11.69.05,1.47.09,2.17.33,5.9.47,11.84,1.34,17.68.12.78-.2,1.63-.01,2.42.34,1.44-.35,3.85.87,5.11,2.55,2.64,4.9,5,6.62,8.33.51.99,2.46.69,3.29.8,25.13,3.49,75.13,10.65,98.37,13.77,6.73-1.9,4.5-3.14,7.77-5.37,1.28-.87.64-4.39.3-5.89-.13-.58.25-1.51-.43-1.96.08-.74.26-1.47.43-2.2.05-.19.32-.31.41-.49.67.09,1.33.26,1.98.46.18,3.05.08,6.11.1,9.17-.41,2.75-1.63.56-2.93,4.3-1.03.69-2.39,1.98-3.26,3.22-1.49-.53-3.25-.08-4.72.44-.27.1-.62.01-.91.05-.17-.83-1.26-.51-1.86-.36-.39-.16-1,.15-1.39-.1-.11-.07-.19-.28-.38-.37-.2-.09-.43.12-.56.3l-39.17-5.33-56.5-7.98c-2.11-2.55-1.25-3.49-3.33-3.9-.11-.28-.54-.52-.56-.87,0-.11-.19-.27-.42-.48-1.87-1.74-3.79-3.48-5.62-5.72.14-.56-.08-1.16-.06-1.7l.08-2.34c.02-.47.85-.88.55-1.63-.13-.33-.19-1.09-.87-.82l-.19-4.96c.22-.22.51-.51.55-.77.1-.56-.38-1.04-.87-.76l-.08-2.65c.68-.88,1.08-3.16-.35-3.41-.1-1.14-.09-2.46-.13-3.58.17-.23.46-.53.49-.78.06-.49.09-1.17-.52-1.12-.39-1.5-.38-3.06-.43-4.6.6-.24.49-1.04.53-1.67.03-.47-.04-1.46-.86-1.26l-.1-2.19c.46,1.05,1.04-5.44-.42-4.29l-.16-3.62c.72-.02,2.79-1.4,3.67-.54.21.2.19.64.21.95Z" fill="#4e311b"/>
      <path d="M159.23,120.6c0,.21.2.45.19.66l-.07,6.86c-.2.13-.37.3-.52.48l-41.25-5.01c.4-1.88,3.99-4.07,5.71-7.57l35.94,4.58Z" fill="#3a74a9"/>
      <path d="M225.31,103.93l.14,2.92-.13,4.05-.5.56-37.48,13.95c.11-2.62-.11-5.26-.03-7.9.9.12,1.66-.32,2.66-.7l32.18-12.35c1.16-.44,2.13-.81,3.15-.54Z" fill="#30597f"/>
      <path d="M225.88,99.3v4.12c-.21.16-.4.33-.57.51-1.03-.27-1.99.1-3.15.54l-32.18,12.35c-1,.38-1.76.83-2.66.7.05-1.92-.38-3.94.08-6.06.17-.78,1.58-.76,2.1-.98.24-.1.7.04,1.03-.25.17-.16.38-.3.1-.58.39-.07.84.02,1.22-.09.87-.27,2.47-.17,2.49-1.3.89-.09,1.72-.42,2.6-.56.31-.05.67.01,1.02-.26.19-.15.36-.32.1-.58l1.2-.09c.32-.02.67,0,1.03-.25.2-.14.38-.32.1-.58,1.76-.01,3.26-1.02,4.93-1.49.88-.25,2.48-.17,2.51-1.3,1.78-.09,5.08-1.98,8.65-2.88.3-.08.67.02,1-.26.18-.16.37-.31.1-.58.38-.07.83.03,1.2-.09,1.21-.39,3.19-.33,3.45-1.77.4-.07.83-.07,1.24-.09.59-.04,1.68-.79,2.19-.22.48.53.21,1.54.21,2.06Z" fill="#284461"/>
      <path d="M114.74,112.36c-.46,0-.66.66-.9.9-.26.27-.61.49-.58.94-.93.52-1.74,1.27-2.26,2.2-.46-.02-.64.4-.93.63-.36.27-.79.49-.94.96-1.49.2-2.07,1.97-3.99,2.07,13.44-13.08,13.36-27.01,12.33-44.5-.08-1.28,1.95-2.19,3.13-2.14,1.3,13.3,1.59,27.81-5.86,38.94Z" fill="#be7c2f"/>
      <path d="M165.9,39.79c-.03.3.03.61-.02.91-.28-.18-.46.37-.44.56.07.59-.41.97-.6,1.45l-44.48-4.13c-.14-.89.55-1.6.51-2.46l45.02,3.66Z" fill="#5e8fb9"/>
      <path d="M107.21,122.42l10.37,1.17,41.25,5.01.5.04c.02.14.01.35.08.48-.27.16-.73,1.08-.49,1.37l-45.1-5.08c-3.06-.34-6.7-1.39-9.82-1.49.68-.68,2.12-1.63,3.21-1.5Z" fill="#284461"/>
      <path d="M174.24,124.92c-.71-.79-.43-1.92-.45-3.41-3.65-.56-7.19-1.01-10.71-1.2-.43-.02-.86-.12-1.3-.12.11-2.04-.29-4.12.09-6.59l12.34,1.12.03,10.2Z" fill="#be7c2f"/>
      <path d="M104,123.93c3.13.1,6.77,1.14,9.82,1.49-.33.32-.5,1.05-.92,1.28-6.21,3.26-13.06,4.8-19.98,2.4-.8-.28-1.32-.76-1.52-1.37,2.37-.78,4.92-.74,7.14-1.94.99-.53,2.31-.54,3.19-1.36.44-.41,1.72-.33,2.27-.5Z" fill="#30597f"/>
      <path d="M223.46,140.6c-.17.1-.26.39-.4.53-.17.17-.26.41-.4.6-.59.79-.95,1.72-1.41,2.59-1.44-.02-1.85,1.52-2.47,2.82l-1.38,2.88c-1.33.46-2.51,1.35-3.97,2l-21.46,9.6c-.77-.34-1.11-1.22-1.43-1.82l26.95-12.13c2.12-5.49,2.51-6.09,6.52-10.2.57,1.2-.61,1.88-.54,3.13Z" fill="#4e311b"/>
      <path d="M223.97,130.82c.07.68-.12,1.35-.1,2.02l-36.53,14.44-.05-2.45c.87.19,1.64-.17,2.61-.57l30.39-12.31c1.34-.54,2.49-.99,3.68-1.14Z" fill="#182e44"/>
      <rect x="207.84" y="114.46" width="40.93" height="2.21" transform="translate(99.76 336.82) rotate(-86.69)" fill="#be7c2f"/>
      <path d="M224.82,111.46c.22.74-.11,1.51-.06,2.24l-37.52,13.94.09-2.23,37.48-13.95Z" fill="#182e44"/>
      <path d="M160.18,61.62c-.07.34.18.72.16,1.06,0,.16-.08.31-.07.47-2.24-.05-4.46-.32-7-.56l-38.1-3.66.02-1.71,44.98,4.41Z" fill="#4a7fad"/>
      <path d="M163.08,120.3v36.72c-.45.31-1.02.85-1.65.82-.02-3.06.08-6.11-.1-9.17-.1-1.75.5-3.56-.11-5.28-.07-.19-.1-.5-.08-.7.87-7.44.23-15.02.64-22.52.44,0,.86.1,1.3.12Z" fill="#f4da7d"/>
      <path d="M132.34,77.95c.79.04,1.6-.06,2.39.07.46.35,1.26.36,1.8.4.32.06.68-.05.99.04,1.5.41,3.03.43,4.57.45.57,0,1.43.31,2.01.34l2.67.15c.33.02,12.58,1.22,12.56,2.51-.01.76-.61.7-1.37.61l-31.14-3.7c.06-.44.08-.89.06-1.34,1.83-.04,3.64.37,5.46.46Z" fill="#f4da7d"/>
      <path d="M118.66,72.66c-2.13,4.22-22.82-6.56-25.25-8.57,1.31-1.33,2.6-1.13,3.97-.32,6.65,3.95,13.67,6.84,21.27,8.89Z" fill="#f5c957"/>
      <path d="M76.57,112.86c3.1,4.05,7.05,7.18,10.78,10.6-.01.29.11.65.46.38,1.01.29,1.84.95,2.75,1.45.08.47.58.49.98.47.13,0,.26.07.39.08.31,2.16,7.07-1.59,6.61-.05-2.22,1.19-4.76,1.16-7.14,1.94-2.49.27-6.02-3.8-8.29-4.74-.53-.85-1.58-2.08-2.7-2.21-.51-1-1.2-2.02-2.31-2.38-.8-2.08-3.71-3.78-4.31-6.08.92.21,1.81.6,2.77.56Z" fill="#4e311b"/>
      <path d="M158.55,78.5c.44,2.69-13.2-1.52-11.78.9l-2.67-.15c.07-.6-.21-1.15-.77-1.16-.65-.02-1.34.11-1.24.82-1.53-.03-3.06-.04-4.57-.45.1-.26-.04-.36-.28-.46-.3-.13-.5.44-.71.43-.53-.04-1.34-.05-1.8-.4-.13-.1-1.13-1.38-2.39-.07-1.83-.1-3.63-.5-5.46-.46-.02-.14-.15-.28-.16-.41-.04-1.99-3.62-.22-3.62-2.4l28.81,3.38c2.38.28,4.51.39,6.63.44Z" fill="#4e311b"/>
      <path d="M191.97,161.62l21.46-9.6c1.46-.65,2.64-1.54,3.97-2,.38-.12,1.18-.4,1.19-.07,0,.3.22,1.32-.2,1.51l-24.62,11.51c-.65.3-1.31.04-1.56-.39-.14-.23-.13-.67-.24-.97Z" fill="#be7c2f"/>
      <path d="M126.82,96.95c-.34,2.63-.53,5.31-1.37,8.04-.25.82-.48,1.57-.07,2.2-1.69-.19-3.3-.13-5.15-.72,1.67-3.6,1.76-7.13,2.84-10.43h2.4c.8,0,1.3.31,1.35.92Z" fill="#be7c2f"/>
      <path d="M161.58,84.45c.27-.12.7.13,1,.07.01.35.11,1.46-.49,1.4l-28.69-3.03c-2.17-.23-4.14-.63-6.08-.33,0-.47-.41-.92-.48-1.36l32.81,3.47c.81.09,1.37.05,1.93-.21Z" fill="#f5c957"/>
      <path d="M126.84,81.19c.08.45.48.9.48,1.36v9.9c-1.32-.06-2.73.19-4.11-.62.21-3.73.25-7.36.04-10.98,1.38-.6,2.51.22,3.58.34Z" fill="#be7c2f"/>
      <path d="M127.36,109.51c-3.86-.16-5.47-.9-8.2-.26-2.76,5-6.53,9-11.22,12.09-.46.31-.68.71-.74,1.08-1.09-.12-2.53.83-3.21,1.5-.55.17-1.83.09-2.27.5-.04-1.06.34-.3,3.71-2.76,1.49-1.09,3.15-1.96,3.7-3.67.15-.47.58-.69.94-.96.42.02.79-.23.93-.63.52-.93,1.33-1.68,2.26-2.2.36-.2.6-.5.58-.94.24-.25.44-.91.9-.9,1.3.02,2.38-.81,2.95-2.17,1.72-4.11,5.41-1.38,9.14-1.55.45-.02.79.58.53.87Z" fill="#4e311b"/>
      <path d="M92.37,125.38c-.2.07-.33.31-.45.46-.13,0-.26-.08-.39-.08.13-.33-.08-.36-.27-.41-.26-.06-.55.02-.71-.07-.92-.5-1.74-1.16-2.75-1.45-.15-.04-.34-.27-.46-.38-3.72-3.43-7.68-6.56-10.78-10.6-2.5-3.27-3.87-7-5.2-10.71l.3-1.01c3.91,11.27,11.34,17.51,20.71,24.24Z" fill="#f5c957"/>
      <path d="M115.6,77.41c-6.55-2.77-8.17-1.89-14.8-5.79.19-.21.35-.44.5-.69,4.69,1.25,8.7,3.75,14.2,4.38.32.81.04,1.46.09,2.1Z" fill="#f5c957"/>
      <path d="M159.37,139.85l-.09-7.44c0-.72.11-1.33-.36-1.91-.24-.29.22-1.21.49-1.37,1.2,2.23,1.69,11.59-.04,10.72Z" fill="#4e311b"/>
      <path d="M142.65,111.4c-2.5-.03-5.08-.25-7.5-.91.18-1.45,8.72-.16,7.5.91Z" fill="#4e311b"/>
      <path d="M159.38,113.79c-2.59-.93-5.49-.34-8.01-1.46-.47-1.04,5.59.09,6.8.25.88.12,1.18.56,1.21,1.21Z" fill="#4e311b"/>
      <path d="M126.72,77.08c0,.14.13.28.16.41.02.45,0,.9-.06,1.34-.55-.07-3.42.01-3.6-.68-.51-1.98,1.58-.45,3.51-1.07Z" fill="#f0b13b"/>
      <path d="M224.97,117.53c.03-1.28-.11-2.56-.21-3.83-.05-.73.28-1.5.06-2.24l.5-.56c.71-.61,1.03,8.33-.35,6.63Z" fill="#4e311b"/>
      <path d="M159.42,121.26c0-.22-.2-.45-.19-.66l.21-5.08c1.26-1.61,1.29,7.35-.02,5.75Z" fill="#4e311b"/>
      <path d="M225.88,99.3c0-.52.27-1.53-.21-2.06-.51-.57-1.6.18-2.19.22.18-.9,2.07-1.61,2.78-.96s.39,1.9.37,2.72c-.02.23-.63.08-.75.07Z" fill="#4e311b"/>
      <path d="M159.43,73.84c.03-1.49-.4-3.01.36-4.34.59-.87,1.08,5.48-.36,4.34Z" fill="#4e311b"/>
      <path d="M160.34,62.68c.02-.34-.23-.73-.16-1.06l.48-2.19c.09-.4.13-.89.53-1.09.77-.31.13,5.11-.85,4.34Z" fill="#4e311b"/>
      <path d="M224.52,125.91c.04-1.3-.44-2.73.35-3.87.61-.77,1.07,4.88-.35,3.87Z" fill="#4e311b"/>
      <path d="M161.14,142.71c-.02.2.01.51.08.7l-1.85,1.12-.04-2.8c.69.19,1.05.95,1.81.97Z" fill="#4e311b"/>
      <path d="M224.07,134.28c-.14-.43-.19-.99-.21-1.44-.02-.67.17-1.35.1-2.02.13-.15.27-.28.41-.41.87.32.88,4.78-.31,3.88Z" fill="#4e311b"/>
      <path d="M225.45,106.85l-.14-2.92c.17-.18.36-.35.56-.51.44,1.04,1.24,3.24-.41,3.43Z" fill="#4e311b"/>
      <path d="M222.24,97.56c-.26,1.44-2.24,1.38-3.45,1.77.23-1.48,2.18-1.54,3.45-1.77Z" fill="#4e311b"/>
      <path d="M174.23,141.21c-.76-1.81-.76-4.31,0-6.12v6.12Z" fill="#be7c2f"/>
      <path d="M146.43,111.83c-.99-.03-2.25.4-2.97-.42.46-.41,1.06-.5,1.71-.51.55,0,1.53.06,1.26.94Z" fill="#4e311b"/>
      <path d="M150.61,112.3c-1.02.05-2.15.31-2.97-.44.3-.59,1.08-.43,1.73-.5.53-.05,1.5.07,1.24.93Z" fill="#4e311b"/>
      <path d="M130.62,109.97c-.83-.03-1.96.34-2.5-.42.44-.4,1.03-.54,1.7-.5.42.02,1.09.28.8.93Z" fill="#4e311b"/>
      <path d="M134.34,110.44c-.83,0-1.96.34-2.51-.43.44-.39,1.03-.54,1.7-.51.42.02,1.09.28.8.93Z" fill="#4e311b"/>
      <path d="M194.35,108.25c-.02,1.14-1.62,1.03-2.49,1.3-.03-1.2,1.55-1.21,2.49-1.3Z" fill="#4e311b"/>
      <path d="M207.83,103.14c-.02,1.13-1.62,1.05-2.51,1.3-.01-1.16,1.56-1.25,2.51-1.3Z" fill="#4e311b"/>
      <path d="M159.9,66.87c.12-.65-.39-1.62.35-2.02.19.38.62.68.58,1.22s-.31,1.08-.93.8Z" fill="#4e311b"/>
      <path d="M187.78,157.91c-.29-.2-1.24.18-1.01-.69.07-.25.29-.56.55-.78.58.18.39,1,.46,1.47Z" fill="#4e311b"/>
      <path d="M174.24,128.66c-.73-.48-.73-1.92,0-2.4v2.4Z" fill="#be7c2f"/>
      <path d="M161.27,57.1c.02-.34-.09-1.02.36-1.08.12.15.34.32.43.46.13.22.06.45-.15.56-.26.14-.45.23-.65.06Z" fill="#4e311b"/>
      <path d="M217.59,99.41c.26.27.08.42-.1.58-.33.29-.7.19-1,.26-.3-.35.08-.73.38-.85.26-.11.52.05.73,0Z" fill="#4e311b"/>
      <path d="M162.21,52.45c0-.37-.05-.98.38-1.1.14.2.6.54.49.77-.19.37-.6.56-.87.33Z" fill="#4e311b"/>
      <path d="M200.39,105.93c.28.27.1.45-.1.58-.36.24-.71.22-1.03.25-.3-.35.1-.74.39-.84.26-.09.52.01.74.01Z" fill="#4e311b"/>
      <path d="M198.06,106.85c.26.27.09.44-.1.58-.34.27-.7.21-1.02.26-.3-.35.09-.73.39-.84.26-.1.51.02.73,0Z" fill="#4e311b"/>
      <path d="M190.63,109.65c.28.28.07.42-.1.58-.33.29-.79.15-1.03.25-.3-.36.11-.72.4-.84.26-.11.52.05.74,0Z" fill="#4e311b"/>
      <path d="M130.1,92.86c-.47-.06-.97-.07-1.45-.07-.16-.44.47-.45.74-.45.3,0,.86.1.71.52Z" fill="#be7c2f"/>
      <path d="M167.27,156.41c-.31.01-.65.04-.94.14-.14-.23.02-.4.25-.5.29-.13.75-.02.7.36Z" fill="#be7c2f"/>
      <path d="M174.26,131c-.28.2-.41-.09-.47-.3-.1-.37.06-.96.47-.75v1.06Z" fill="#be7c2f"/>
      <path d="M159.33,128.64l-.5-.04c.15-.19.32-.35.52-.48,0,.17-.05.35-.03.52Z" fill="#30597f"/>
      <path d="M173.72,156.12l.45-.11c.15.52-.3.6-.45.11Z" fill="#be7c2f"/>
      <path d="M164.43,44.94c.07-.2.03-.67.38-.51-.05.21-.06.65-.38.51Z" fill="#4e311b"/>
      <path d="M165.44,41.26c-.02-.19.16-.75.44-.56-.03.22-.11.75-.44.56Z" fill="#4e311b"/>
      <path d="M167.74,36.55c.1-.16.15-.36.32-.48-.06.19,0,.5-.32.48Z" fill="#4e311b"/>
      <path d="M177.93,21.21c.12-.19.33-.29.48-.46-.14.17-.3.33-.48.46Z" fill="#4e311b"/>
      <path d="M174.33,66.88c.02-.51-.23-1.37.41-1.58.27.3.6.77.43,1.2-.13.33-.49.66-.84.38Z" fill="#f5c957"/>
      <path d="M35.66,35.18c-3.57,11.28-5.16,23.07-4.57,35.33l34.78,4.04.05,6.65v3.73c0,.43-.33.48-.52.46.04-3.1.22-6.24-.14-9.61-6.65-1.15-13.07-1.48-19.69-2.29l-15.65-1.9c-.69-11.09,1.02-21.28,2.99-31.86-.38-2.99-4.59-5.39-7.29-5.02,1.03-2.35,1.98-4.78,3.35-7.27,2.94-.19,5.36.17,8.48.56-1.25,2.59-1.16,5.21-1.78,7.16Z" fill="#f5c957"/>
      <path d="M120.02,17.48c-3.16.3-6.01-.07-8.97-.41-1.97-.23-3.9.35-5.62-.91,4.16-3.63,9.07-6.88,14.53-7.75,3.23-.51,6.6.66,9.75.5-.72,1.86-2.35,2.18-3.6,3.27l-6.09,5.29Z" fill="#f5c957"/>
      <path d="M31.51,141.06c6.49,2.34,11.36,8.31,13.15,14.97-3.75-6.34-6.99-11.11-14.51-13.95.21-.59.8-.85,1.36-1.02Z" fill="#f5c957"/>
      <path d="M47.47,13.25c-1.9,1.48-5.39.41-7.74-.06,3.33-4.3,13.83-11.5,20.11-8.66-4.72,2.65-8.25,5.52-12.37,8.72Z" fill="#f5c957"/>
      <path d="M66.3,90.52c.32,3.21,1.13,6.33,1.84,9.89l-44.13-5.32c-.6-1.11-2.03-.67-3.18-1.42-.2-2.75-.17-5.38,0-8.3l13.95,1.42c5.45.55,10.65,1.4,16.06,2l15.47,1.72Z" fill="#f0b13b"/>
      <path d="M32.96,103.09l2.47,36.14c-3.11-.83-6.28-1.32-9.06-2.67l-2.37-35.43c1.96-.18,3.94.35,6.12.42,1.47.04,2.39.17,2.83,1.55Z" fill="#f0b13b"/>
      <path d="M71.52,109.48c.12.01.25.06.37.05-.1.34.02.7.32.93.17.14.4.2.63.12l.02.36c.02.32.07.66.3.95.18.23.36.34.62.07,0,.11,0,.24.02.35.6,2.3,3.5,4,4.31,6.08-1.13.35-2.29.08-3.65-.1l-30.78-4.04c.09-2.43-.31-4.72-.59-7.85l28.44,3.08Z" fill="#3a74a9"/>
      <path d="M40.87,99.3c.26-.03.52.04.78.03.68.62,1.63.41,2.49.45l.76.04c.84.67,1.96.43,2.97.43.24,0,.51,0,.75.04,6.5,1.06,13.12,1.58,19.69,2.29.23.24.88.37.85.89-.02.32.05.65.26.99.14.23.29.4.57.11-.13,2.09,1.49,3.02,1.53,4.92l-28.44-3.08c.28,3.12.68,5.42.59,7.85-1.11-.15-2.29-.04-3.38-.4-.27-1.74-1.56-13.89-.61-14.41.32-.18.83-.09,1.18-.12Z" fill="#30597f"/>
      <path d="M36.99,98.9l.16,3.62c.06,1.44.35,2.83.42,4.29l.1,2.19c.05.99.3,1.94.33,2.94.05,1.54.04,3.1.43,4.6.16.61-.03,1.29.03,1.9.04,1.12.02,2.45.13,3.58s.32,2.25.35,3.41l.08,2.65c.01.48-.23,1.32.32,1.53l.19,4.96c.03.83-.25,1.72.32,2.45l-.08,2.34c-.38-.07-2.41.2-2.47-.62l-2.78-39.78c1.18-.3,1.81-.04,2.48-.06Z" fill="#be7c2f"/>
      <path d="M68.32,102.58c-6.58-.71-13.19-1.22-19.69-2.29-.16-.24.22-.47.58-.48,2.39.35,5.07-.52,7.34.18,2.61.8,4.79,1.29,7.54,1,.93-.1,2.07.99,3.25.65.89-.26.76.69.99.94Z" fill="#4e311b"/>
      <path d="M67.97,73.79c.36,2.44-.32,5-.14,7.4h-1.91s-.05-6.64-.05-6.64c.03-.45.17-1.09.75-1.2.42-.08.93.3,1.35.45Z" fill="#4e311b"/>
      <path d="M47.87,100.26c-1.01,0-2.13.25-2.97-.43.24-.63,1.1-.47,1.72-.55.55-.07,1.51.12,1.24.98Z" fill="#4e311b"/>
      <path d="M44.14,99.79c-.86-.04-1.8.17-2.49-.45.17-.64,1.07-.47,1.7-.51.41-.03,1.11.35.78.96Z" fill="#4e311b"/>
      <path d="M70,104.56c-.28.3-.43.12-.57-.11-.21-.34-.28-.67-.26-.99.19.13.78.02.82.36.04.3.02.53,0,.73Z" fill="#4e311b"/>
      <path d="M72.84,110.58c-.23.08-.46.02-.63-.12-.3-.24-.42-.59-.32-.93.33-.02.82-.05.95.3.1.26,0,.55,0,.76Z" fill="#4e311b"/>
      <path d="M73.77,111.96c-.25.26-.43.16-.62-.07-.23-.29-.28-.62-.3-.95.34-.16.77-.06.89.29.08.25.03.51.02.73Z" fill="#4e311b"/>
      <path d="M145.42,165.33l.93.07c.4.25,1.01-.06,1.39.1.59.25,1.19.45,1.86.36.29-.04.64.04.91-.05.79.48,1.46.6,1.08,1.37-.62,1.26-.93,1.25-2.25,1.06l-98.54-14.32c-1.28-.19-.66-1.42-1.05-1.9l56.5,7.98,39.17,5.33Z" fill="#f5c957"/>
      <path d="M175.66,73.35c-.42.72-.94-2.79.05-2.38-.23.73,0,1.62-.05,2.38Z" fill="#f4da7d"/>
      <path d="M172.82,160.79l-.99,24.38-14.04-2.5-5.81-.65c-.09-10.54,10.14-20.14,20.84-21.23Z" fill="#f0b13b"/>
      <path d="M45.87,147.25c-.39.18-.37-.25-.42-.48.23.21.41.38.42.48Z" fill="#623d1a"/>
      <path d="M222.65,141.73c.14-.19.23-.43.4-.6-.12.21-.26.41-.4.6Z" fill="#623d1a"/>
      <path d="M221.6,36.43c3.37,4.11,4.72,9.49,6.04,14.8.49,1.99,2.11,9.52,1.17,11.14l-40.55,13.97c-.56-4.64.41-8.67.97-12.94.82-6.34,2.74-12.29,5.25-18.15.25-.59.76-.91,1.12-1.16,7.32-1.7,14.43-4.34,21.86-6.53,1.5-.44,2.74-1.27,4.15-1.12Z" fill="#30597f"/>
      <path d="M187.75,80.25c.01-.46-.33-1.5.44-1.77l42.74-14.95c.38-10.54-2.97-22.58-8.84-30.7.09-.21.25-.37.46-.46,7.6,4.35,11.26,23.36,11.03,31.67l-45.83,16.21Z" fill="#be7c2f"/>
      <path d="M219.9,34.6c-6.21,2.59-12.84,4.11-19.43,6.33-1.38.46-2.64.83-3.9.85,1.44-3.25,3.25-4.12,3.27-5.71,1.63.19,3.06-4.13,9.47-5.84,4.18-1.11,8.61.85,10.58,4.36Z" fill="#30597f"/>
      <path d="M221.6,36.43c-1.41-.15-2.65.68-4.15,1.12-7.43,2.19-14.53,4.84-21.86,6.53-.12-.93.64-1.54.98-2.3,1.25-.02,2.52-.39,3.9-.85,6.59-2.22,13.22-3.74,19.43-6.33,1.14-.04,1.2,1.22,1.7,1.83Z" fill="#182e44"/>
      <path d="M222.56,32.36c-.21.09-.37.26-.46.46-1.53-2.12-5.5-3.43-7.87-3.67.19-1.96,8.21,2,8.33,3.21Z" fill="#756f4e"/>
      <path d="M45.39,133.77l113.54,14.94c-.16.73-.34,1.46-.43,2.2l-113.06-14.77c-1.24-.16-2.48-.53-3.73-.02-.19-.79.13-1.64.01-2.42,1.17.4,2.52-.08,3.66.07Z" fill="#284461"/>
      <path d="M158.92,130.49c.48.59.36,1.19.36,1.91l-44.97-5.23c-.67-.08-1.06-.3-1.41-.48.42-.22.6-.95.92-1.28l45.1,5.08Z" fill="#4a7fad"/>
      <path d="M80.41,120.77c1.12.13,2.17,1.36,2.7,2.21l-36.69-4.33c-.92-.11-1.6-.12-2.21.12-.06-.76-.24-1.53-.16-2.3l36.37,4.29Z" fill="#4a7fad"/>
      <path d="M44.04,116.48c-.07.77.1,1.54.16,2.3l1.18,14.99c-1.14-.15-2.49.33-3.66-.07-.87-5.84-1.01-11.78-1.34-17.68,1.23.04,2.52-.08,3.65.47Z" fill="#30597f"/>
      <path d="M161.22,143.4c.6,1.72,0,3.54.11,5.28-.65-.2-1.31-.37-1.98-.46-.11-1.23.04-2.47.03-3.7l1.85-1.12Z" fill="#623d1a"/>
      <path d="M103.07,112.56c-3.49,3.01-7.08,5.18-11.27,7.26-9.3-4.94-16.18-13.47-18.17-23.9-1.09-6.43-1.39-12.6-1.43-19.2,6.71-.67,12.75-2.47,18.71-5.53,6.22,4.02,12.46,6.8,19.65,8.39.45,10.67.45,24.46-7.48,32.97ZM91.03,117.08c.56,1.91,8.45-3.89,9.36-4.64,8.84-7.27,8.69-21.01,8.56-31.4-3.49-.88-6.41-1.8-9.64-3.13-2.98-1.23-5.73-2.82-8.6-4.68-5.3,2.92-10.88,4.22-16.85,5.06.47,17.28,1.86,29,17.18,38.78Z" fill="#623d1a"/>
      <path d="M158.94,152.86c.34,1.5.98,5.02-.3,5.89-3.27,2.23-1.04,3.47-7.77,5.37-23.24-3.12-73.24-10.28-98.37-13.77.08-4.59-6.59-9.9-6.55-11.89,3.38.09,6.59.66,10.28,1.15l67.3,8.91,35.41,4.34Z" fill="#3a74a9"/>
      <path d="M158.5,150.91c.68.44.3,1.37.43,1.96l-35.41-4.34-67.3-8.91c-3.69-.49-6.9-1.06-10.28-1.15.01-.76-.59-1.54-.5-2.33l113.06,14.77Z" fill="#4a7fad"/>
      <path d="M43.68,114.24l30.78,4.04c1.35.18,2.52.45,3.65.1,1.11.36,1.8,1.38,2.31,2.38l-36.37-4.29c-1.13-.54-2.42-.43-3.65-.47-.04-.7.02-1.48-.09-2.17,1.09.36,2.27.26,3.38.4Z" fill="#284461"/>
      <path d="M45.44,136.13c-.09.79.52,1.57.5,2.33-.04,1.99,6.63,7.3,6.55,11.89-.83-.12-2.78.18-3.29-.8-1.72-3.33-4.07-5.69-6.62-8.33-1.22-1.26-.53-3.67-.87-5.11,1.24-.51,2.48-.14,3.73.02Z" fill="#30597f"/>
      <path d="M37.57,106.81c-.07-1.46-.36-2.85-.42-4.29,1.47-1.15.88,5.35.42,4.29Z" fill="#623d1a"/>
      <path d="M38,111.93c-.03-.99-.28-1.94-.33-2.94.82-.19.89.79.86,1.26-.05.63.06,1.44-.53,1.67Z" fill="#623d1a"/>
      <path d="M39.85,137.01c-.57-.74-.29-1.62-.32-2.45.68-.27.73.49.87.82.3.74-.53,1.16-.55,1.63Z" fill="#623d1a"/>
      <path d="M38.94,125.42c-.04-1.16-.25-2.25-.35-3.41,1.43.25,1.03,2.52.35,3.41Z" fill="#623d1a"/>
      <path d="M39.35,129.6c-.55-.21-.31-1.05-.32-1.53.49-.28.97.2.87.76-.05.26-.33.55-.55.77Z" fill="#623d1a"/>
      <path d="M149.61,165.86c-.67.09-1.27-.11-1.86-.36.6-.15,1.69-.47,1.86.36Z" fill="#623d1a"/>
      <path d="M38.47,118.43c-.06-.61.12-1.3-.03-1.9.61-.05.58.63.52,1.12-.03.26-.32.55-.49.78Z" fill="#623d1a"/>
      <path d="M146.35,165.4l-.93-.07c.13-.19.36-.4.56-.3s.27.3.38.37Z" fill="#623d1a"/>
      <path d="M113.27,114.2c-.03-.44.32-.67.58-.94.02.43-.22.74-.58.94Z" fill="#623d1a"/>
      <path d="M111.01,116.4c-.14.4-.51.65-.93.63.3-.22.48-.65.93-.63Z" fill="#623d1a"/>
      <path d="M144.1,79.26c-.58-.03-1.44-.33-2.01-.34-.1-.71.59-.84,1.24-.82.56.02.83.57.77,1.16Z" fill="#623d1a"/>
      <path d="M134.73,78.02c-.79-.13-1.6-.03-2.39-.07,1.26-1.31,2.26-.03,2.39.07Z" fill="#623d1a"/>
      <path d="M137.52,78.46c-.31-.09-.67.03-.99-.04.2.01.41-.56.71-.43.24.11.38.2.28.46Z" fill="#623d1a"/>
      <path d="M91.53,125.76c-.39.02-.9,0-.98-.47.16.09.44,0,.71.07.18.04.39.08.27.41Z" fill="#623d1a"/>
      <path d="M87.8,123.84c-.35.27-.47-.09-.46-.38.12.11.31.33.46.38Z" fill="#623d1a"/>
      <path d="M99.31,77.92c.03,1.08-1.26.9-2.37,1.36,2.62,1.82,5.59,2.61,8.96,3.59.37,14.74-.69,25.15-15.14,32.32.03.81.2,1.36.27,1.89-15.33-9.78-16.71-21.5-17.18-38.78,5.97-.84,11.55-2.14,16.85-5.06,2.87,1.86,5.62,3.45,8.6,4.68ZM94.43,77.58c-.91-.82-1.43-1.37-2.18-.69.57.8,1.64,1.43,2.18.69ZM89.81,112.67l-.06-35.57c-4.73,1.52-8.18,2.9-12.49,3.4-.56,3.28.06,6.24.22,9.52.43,8.97,4.14,17.89,12.32,22.65Z" fill="#f0b13b"/>
      <path d="M91.03,117.08c-.08-.53-.24-1.08-.27-1.89,14.45-7.17,15.51-17.58,15.14-32.32-3.37-.97-6.34-1.77-8.96-3.59,1.11-.46,2.4-.27,2.37-1.36,3.23,1.33,6.15,2.25,9.64,3.13.13,10.38.28,24.12-8.56,31.4-.9.74-8.79,6.55-9.36,4.64Z" fill="#be7c2f"/>
      <path d="M89.81,112.67c-8.18-4.76-11.89-13.68-12.32-22.65-.16-3.28-.78-6.24-.22-9.52,4.3-.49,7.75-1.88,12.49-3.4l.06,35.57Z" fill="#f4da7d"/>
      <path d="M94.43,77.58c-.54.73-1.61.1-2.18-.69.75-.68,1.26-.12,2.18.69Z" fill="#be7c2f"/>
    </g>
  </g>
</svg>