<?xml version="1.0" encoding="UTF-8"?>
<svg id="Layer_2" data-name="Layer 2" xmlns="http://www.w3.org/2000/svg" viewBox="0 0 59.05 57.7">
  <g id="Layer_1-2" data-name="Layer 1">
    <g>
      <path d="M9.4,49.96c-1.89-1.74-3.79-3.89-5.08-5.96-2.55-4.1-3.58-6.98-4.15-11.82-.82-6.95,1.26-16.17,6.01-21.12l1.3-1.36c.67-.69,1.31-1.44,2.05-2.13,2.18-2.04,4.71-3.67,7.42-4.94,2.36-1.1,4.72-1.69,7.24-2.16S28.83-.09,31.32.07l2.1.14c6.32.42,13.72,4.53,18.16,9.41,4.09,4.5,6.72,10.15,7.34,16.27.21,2.09.13,4.17-.03,6.2-.28,3.45-1.79,7.55-3.5,10.56-5.94,10.45-17.5,16.37-29.53,14.81-.75-.1-1.47-.13-2.24-.28-5.33-1.03-10.2-3.53-14.22-7.21ZM21.25,3.83c-1.7.56-3.42,1.16-4.91,2.19-3.43,1.71-6.48,4.31-8.65,7.55-.43.65-.6,1.28-1.12,1.89-.91,1.05-1.68,2.37-1.98,3.74-.17.77-.12,1.53-.84,2.05-2.76,8.9-.51,18.45,5.9,25.26,4.58,4.87,10.91,8.01,17.63,8.55,14.68,1.17,28.19-9.89,29.12-24.69.45-7.15-2.21-14.03-7.03-19.29-2.34-2.56-5.16-4.62-8.28-5.95-.18-.08-.41-.21-.6-.31-.72-.35-1.48-.64-2.25-.87-1.79-.53-3.64-1.1-5.59-1.13-1.16-.02-2.34.38-3.43-.23-2.78.04-5.44.4-7.98,1.24Z" fill="#ecb529"/>
      <path d="M38.26,3.95l.46.57c0,.13-.27.33-.24.47.14.54.73.37,1.18.31l1.44-.18c3.12,1.33,5.93,3.39,8.28,5.95,4.82,5.26,7.48,12.14,7.03,19.29-.93,14.8-14.44,25.86-29.12,24.69-6.73-.54-13.05-3.68-17.63-8.55C3.24,39.71.99,30.15,3.75,21.25c.71-.52.67-1.28.84-2.05.31-1.37,1.07-2.69,1.98-3.74.52-.61.69-1.24,1.12-1.89,2.17-3.24,5.22-5.84,8.65-7.55.64-.32,1.39-.5,2.07-.95.4-.26,1.02.09,1.45-.15.26-.14,1.64-.91,1.4-1.09,2.55-.84,5.21-1.2,7.98-1.24,1.09.62,2.27.21,3.43.23,1.95.03,3.8.59,5.59,1.13ZM16.66,39.02c2.02-.33,1.69.09,2.79-2.06l5.76-4.05c.27-.19.55-.32.8-.44l.68-.34c1.1-.11,2.43,1.08,2.82.41l.04,6.04c0,.47.24.87.55,1.05.35.2.86.27,1.25,0l11.44-8.04,2.65-1.83c.42-.29.43-.81.37-1.28-.05-.41-.33-.7-.76-1.01l-13.43-9.46c-.46-.32-.95-.38-1.4-.15-.32.17-.66.6-.66,1.07l-.05,6.31c-.22-.44-1.96.49-1.91.9l-11.69-8.09c-.46-.32-.91-.45-1.43-.2-.38.18-.7.63-.7,1.22v19.35c0,.58.2.98.62,1.21.93.52,1.59-.38,2.26-.6Z" fill="#276da5"/>
      <path d="M40.51,4.82c.19.09.41.23.6.31l-1.44.18c-.45.06-1.04.22-1.18-.31-.04-.14.25-.34.24-.47.66-.15,1.34.93,1.78.3Z" fill="#2776b9"/>
      <g>
        <path d="M27.6,26.14c.64.44,1.19,1.09,1.93,1.49.08-.87-.02-1.65-.02-2.38l.05-6.31c0-.48.34-.9.66-1.07.45-.24.94-.17,1.4.15l13.43,9.46c.43.3.7.6.76,1.01.06.47.05.99-.37,1.28l-2.65,1.83-11.44,8.04c-.38.27-.9.2-1.25,0-.31-.18-.54-.58-.55-1.05l-.04-6.04.02-2.69-3.45,2.45c-.07.05-.09.12-.07.17-.25.12-.53.25-.8.44l-5.76,4.05c-.94.66-2.03,1.18-2.79,2.06-.68.22-1.33,1.12-2.26.6-.42-.23-.62-.63-.62-1.21v-19.35c0-.59.32-1.03.71-1.22.52-.25.97-.12,1.43.2l11.69,8.09Z" fill="#fcfdfd"/>
        <path d="M19.45,36.95c-1.1,2.15-.77,1.73-2.79,2.06.76-.88,1.85-1.4,2.79-2.06Z" fill="#2776b9"/>
      </g>
    </g>
  </g>
</svg>