<?xml version="1.0" encoding="UTF-8"?>
<svg id="Layer_2" data-name="Layer 2" xmlns="http://www.w3.org/2000/svg" viewBox="0 0 281.97 334.55">
  <g id="Layer_1-2" data-name="Layer 1">
    <path d="M260.34,334.55H21.63c-11.93,0-21.63-9.71-21.63-21.64V21.64C0,9.71,9.71,0,21.63,0h238.7c11.93,0,21.63,9.71,21.63,21.64v291.28c0,11.93-9.71,21.64-21.63,21.64ZM21.63,1C10.26,1,1,10.26,1,21.64v291.28c0,11.38,9.26,20.64,20.63,20.64h238.7c11.38,0,20.63-9.26,20.63-20.64V21.64c0-11.38-9.26-20.64-20.63-20.64H21.63Z" fill="#fafffe"/>
  </g>
</svg>