<?xml version="1.0" encoding="UTF-8"?>
<svg id="Layer_2" data-name="Layer 2" xmlns="http://www.w3.org/2000/svg" viewBox="0 0 227.09 62.32">
  <g id="Layer_1-2" data-name="Layer 1">
    <rect x=".5" y=".5" width="226.09" height="61.32" rx="8.13" ry="8.13" fill="#1a2a3d" opacity=".5" stroke="#7dabe2" stroke-miterlimit="10"/>
    <g>
      <path d="M39.59,30.03v6.01h-3.52v-17.06h6.66c1.28,0,2.41.23,3.38.7s1.72,1.13,2.24,2,.79,1.85.79,2.95c0,1.67-.57,2.99-1.72,3.96s-2.73,1.45-4.75,1.45h-3.08ZM39.59,27.19h3.14c.93,0,1.64-.22,2.13-.66s.73-1.06.73-1.88-.25-1.51-.74-2.03-1.17-.78-2.04-.8h-3.22v5.36Z" fill="#fff"/>
      <path d="M57.26,26.54c-.46-.06-.87-.09-1.22-.09-1.28,0-2.12.43-2.52,1.3v8.3h-3.39v-12.68h3.2l.09,1.51c.68-1.16,1.62-1.75,2.82-1.75.38,0,.73.05,1.05.15l-.05,3.26Z" fill="#fff"/>
      <path d="M56.74,29.59c0-1.26.24-2.38.73-3.36s1.18-1.75,2.09-2.29,1.97-.81,3.17-.81c1.71,0,3.11.52,4.19,1.57s1.69,2.47,1.81,4.27l.02.87c0,1.95-.54,3.51-1.63,4.68s-2.54,1.76-4.37,1.76-3.29-.59-4.38-1.76-1.63-2.77-1.63-4.78v-.15ZM60.12,29.83c0,1.21.23,2.13.68,2.76s1.1.96,1.95.96,1.46-.32,1.92-.95.69-1.64.69-3.02c0-1.18-.23-2.1-.69-2.75s-1.11-.97-1.95-.97-1.47.32-1.92.97-.68,1.65-.68,3ZM63.39,18.05h3.69l-3.25,3.63h-2.75l2.31-3.63Z" fill="#fff"/>
      <path d="M74.22,27.15l2.13-3.79h3.62l-3.61,6.21,3.76,6.47h-3.63l-2.26-3.98-2.25,3.98h-3.64l3.76-6.47-3.6-6.21h3.63l2.09,3.79Z" fill="#fff"/>
      <path d="M80.38,20.08c0-.51.17-.93.51-1.25s.8-.49,1.39-.49,1.04.16,1.38.49.52.75.52,1.25-.17.94-.52,1.27-.81.49-1.38.49-1.03-.16-1.38-.49-.52-.75-.52-1.27ZM83.97,36.05h-3.4v-12.68h3.4v12.68Z" fill="#fff"/>
      <path d="M88.74,23.37l.11,1.42c.9-1.1,2.11-1.65,3.64-1.65,1.63,0,2.75.64,3.36,1.93.89-1.29,2.16-1.93,3.81-1.93,1.38,0,2.4.4,3.07,1.2s1.01,2.01,1.01,3.62v8.1h-3.4v-8.09c0-.72-.14-1.24-.42-1.58s-.78-.5-1.49-.5c-1.02,0-1.72.48-2.11,1.45v8.71s-3.38,0-3.38,0v-8.07c0-.73-.14-1.27-.43-1.59s-.78-.49-1.48-.49c-.96,0-1.66.4-2.09,1.2v8.96h-3.39v-12.68h3.18Z" fill="#fff"/>
      <path d="M112.49,36.05c-.16-.3-.27-.68-.34-1.14-.82.91-1.89,1.37-3.2,1.37-1.24,0-2.27-.36-3.09-1.08s-1.22-1.62-1.22-2.72c0-1.34.5-2.38,1.49-3.09s2.44-1.08,4.32-1.09h1.56v-.73c0-.59-.15-1.05-.45-1.41s-.78-.53-1.42-.53c-.57,0-1.02.14-1.34.41s-.49.65-.49,1.12h-3.39c0-.73.23-1.41.68-2.04s1.09-1.12,1.92-1.47,1.76-.53,2.79-.53c1.56,0,2.8.39,3.72,1.18s1.38,1.89,1.38,3.31v5.5c0,1.2.18,2.11.5,2.73v.2h-3.42ZM109.69,33.69c.5,0,.96-.11,1.38-.33s.73-.52.94-.9v-2.18h-1.27c-1.7,0-2.6.59-2.71,1.76v.2c-.01.42.14.77.43,1.04s.7.41,1.22.41Z" fill="#fff"/>
      <path d="M124.76,23.37l.11,1.42c.9-1.1,2.11-1.65,3.64-1.65,1.63,0,2.75.64,3.36,1.93.89-1.29,2.16-1.93,3.81-1.93,1.38,0,2.4.4,3.07,1.2s1.01,2.01,1.01,3.62v8.1h-3.4v-8.09c0-.72-.14-1.24-.42-1.58s-.78-.5-1.49-.5c-1.02,0-1.72.48-2.11,1.45v8.71s-3.38,0-3.38,0v-8.07c0-.73-.14-1.27-.43-1.59s-.78-.49-1.48-.49c-.96,0-1.66.4-2.09,1.2v8.96h-3.39v-12.68h3.18Z" fill="#fff"/>
      <path d="M141.14,20.08c0-.51.17-.93.51-1.25s.8-.49,1.39-.49,1.04.16,1.38.49.52.75.52,1.25-.17.94-.52,1.27-.81.49-1.38.49-1.03-.16-1.38-.49-.52-.75-.52-1.27ZM144.74,36.05h-3.4v-12.68h3.4v12.68Z" fill="#fff"/>
      <path d="M153.19,32.54c0-.41-.21-.74-.62-.98s-1.07-.45-1.97-.64c-3.02-.63-4.52-1.91-4.52-3.84,0-1.12.47-2.06,1.4-2.82s2.15-1.13,3.66-1.13c1.61,0,2.9.38,3.86,1.14s1.45,1.74,1.45,2.95h-3.39c0-.48-.16-.88-.47-1.2s-.8-.47-1.46-.47c-.57,0-1.01.13-1.32.39s-.47.59-.47.98c0,.38.18.68.53.91s.96.43,1.8.6,1.55.36,2.13.57c1.79.66,2.68,1.79,2.68,3.41,0,1.16-.5,2.09-1.49,2.81s-2.27,1.07-3.84,1.07c-1.06,0-2.01-.19-2.83-.57s-1.47-.9-1.94-1.56-.7-1.37-.7-2.14h3.21c.03.6.25,1.06.67,1.38s.97.48,1.66.48c.65,0,1.14-.12,1.47-.37s.5-.57.5-.97Z" fill="#fff"/>
      <path d="M164.33,32.54c0-.41-.21-.74-.62-.98s-1.07-.45-1.97-.64c-3.02-.63-4.52-1.91-4.52-3.84,0-1.12.47-2.06,1.4-2.82s2.15-1.13,3.66-1.13c1.61,0,2.9.38,3.86,1.14s1.45,1.74,1.45,2.95h-3.39c0-.48-.16-.88-.47-1.2s-.8-.47-1.46-.47c-.57,0-1.01.13-1.32.39s-.47.59-.47.98c0,.38.18.68.53.91s.96.43,1.8.6,1.55.36,2.13.57c1.79.66,2.68,1.79,2.68,3.41,0,1.16-.5,2.09-1.49,2.81s-2.27,1.07-3.84,1.07c-1.06,0-2.01-.19-2.83-.57s-1.47-.9-1.94-1.56-.7-1.37-.7-2.14h3.21c.03.6.25,1.06.67,1.38s.97.48,1.66.48c.65,0,1.14-.12,1.47-.37s.5-.57.5-.97Z" fill="#fff"/>
      <path d="M175.95,36.05c-.16-.3-.27-.68-.34-1.14-.82.91-1.89,1.37-3.2,1.37-1.24,0-2.27-.36-3.09-1.08s-1.22-1.62-1.22-2.72c0-1.34.5-2.38,1.49-3.09s2.44-1.08,4.32-1.09h1.56v-.73c0-.59-.15-1.05-.45-1.41s-.78-.53-1.42-.53c-.57,0-1.02.14-1.34.41s-.49.65-.49,1.12h-3.39c0-.73.23-1.41.68-2.04s1.09-1.12,1.92-1.47,1.76-.53,2.79-.53c1.56,0,2.8.39,3.72,1.18s1.38,1.89,1.38,3.31v5.5c0,1.2.18,2.11.5,2.73v.2h-3.42ZM178.17,18.2c0,.88-.26,1.62-.77,2.22s-1.14.9-1.89.9c-.3,0-.56-.03-.79-.1s-.55-.21-.96-.43-.7-.35-.88-.4-.38-.08-.59-.08c-.27,0-.51.1-.7.29s-.29.47-.29.83l-1.97-.12c0-.87.26-1.61.77-2.21s1.14-.91,1.88-.91c.23,0,.46.03.66.09s.54.2,1.01.43.79.36.97.41.37.07.56.07c.27,0,.51-.1.71-.29s.3-.47.3-.83l1.96.13ZM173.15,33.69c.5,0,.96-.11,1.38-.33s.73-.52.94-.9v-2.18h-1.27c-1.7,0-2.6.59-2.71,1.76v.2c-.01.42.14.77.43,1.04s.7.41,1.22.41Z" fill="#fff"/>
      <path d="M179.74,29.59c0-1.26.24-2.38.73-3.36s1.18-1.75,2.09-2.29,1.97-.81,3.17-.81c1.71,0,3.11.52,4.19,1.57s1.69,2.47,1.81,4.27l.02.87c0,1.95-.54,3.51-1.63,4.68s-2.54,1.76-4.37,1.76-3.29-.59-4.38-1.76-1.63-2.77-1.63-4.78v-.15ZM183.13,29.83c0,1.21.23,2.13.68,2.76s1.1.96,1.95.96,1.46-.32,1.92-.95.69-1.64.69-3.02c0-1.18-.23-2.1-.69-2.75s-1.11-.97-1.95-.97-1.47.32-1.92.97-.68,1.65-.68,3Z" fill="#fff"/>
    </g>
  </g>
</svg>