<?xml version="1.0" encoding="UTF-8"?>
<svg id="Layer_2" data-name="Layer 2" xmlns="http://www.w3.org/2000/svg" viewBox="0 0 59.09 57.64">
  <g id="Layer_1-2" data-name="Layer 1">
    <g>
      <path d="M11.87,51.91c-5.09-3.74-9.64-9.89-10.99-16.07l-.3-1.37c-.31-1.44-.45-2.91-.54-4.39-.17-2.67.18-5.1.68-7.72.69-3.66,2.25-6.98,4.42-9.98.44-.6.82-1.25,1.33-1.75.77-.76,2.01-2.38,2.74-2.84.5-.31.74-.72,1.19-1.1,3.16-2.67,6.84-4.58,10.86-5.67,1.18-.32,4.25-.93,5.4-.96,5.17-.13,6.29-.2,11.3,1.07,2.72.69,5.19,1.9,7.56,3.37,9.04,5.61,14.54,16.35,13.4,27.06-.66,6.21-3.32,11.88-7.5,16.49-10.14,11.19-27.47,12.73-39.57,3.85ZM56.12,28.74c0-14.68-11.9-26.58-26.58-26.58S2.95,14.06,2.95,28.74s11.9,26.58,26.58,26.58,26.58-11.9,26.58-26.58Z" fill="#ecb529"/>
      <path d="M56.12,28.74c0,14.68-11.9,26.58-26.58,26.58S2.95,43.42,2.95,28.74,14.85,2.16,29.53,2.16s26.58,11.9,26.58,26.58ZM25.08,41.6c.93-.27,1.51-1,1.51-1.96v-22.14c0-.97-.78-1.75-1.69-1.77-1.52-.04-2.94-.04-4.44,0-.98.03-1.72.83-1.72,1.84v22.24c0,1.1.81,1.81,1.87,1.81l4.48-.02ZM38.45,41.6c1,0,1.81-.79,1.81-1.79v-22.3c0-1-.83-1.79-1.74-1.79h-4.18c-1.1-.01-1.92.79-1.92,1.92v22.17c0,.94.71,1.78,1.62,1.79h4.41Z" fill="#276da5"/>
      <g>
        <path d="M25.08,41.6l-4.48.02c-1.06,0-1.88-.71-1.88-1.81v-22.24c0-1.01.75-1.81,1.73-1.84,1.5-.04,2.93-.04,4.44,0,.91.02,1.69.8,1.69,1.77v22.14c0,.96-.58,1.69-1.51,1.96Z" fill="#fcfdfd"/>
        <path d="M38.45,41.6h-4.41c-.91,0-1.61-.85-1.61-1.79v-22.17c0-1.12.81-1.93,1.91-1.93h4.18c.92.01,1.75.8,1.75,1.8v22.3c0,1-.82,1.79-1.82,1.79Z" fill="#fcfdfd"/>
      </g>
    </g>
  </g>
</svg>