<?xml version="1.0" encoding="UTF-8"?>
<svg id="Layer_2" data-name="Layer 2" xmlns="http://www.w3.org/2000/svg" viewBox="0 0 59.11 57.61">
  <g id="Layer_1-2" data-name="Layer 1">
    <g>
      <path d="M37.84,56.51c-2.86.78-6.48,1.26-9.44,1.06l-1.94-.13c-3.54-.23-6.85-1.38-10.06-2.94C6.99,49.93.65,40.75.05,30.19c-.06-.98-.08-1.93,0-2.89l.24-2.87C1.17,13.71,11.6,2.83,22.9.67c1.24-.24,2.41-.54,3.71-.58,4.17-.14,6.58-.24,10.69.83,5.67,1.47,10.81,4.7,14.7,9.08,5.04,5.66,7.48,12.95,7.06,20.51s-3.56,13.73-8.7,18.73c-3.53,3.44-7.76,5.97-12.53,7.28ZM13.59,7.71c-.1.04-.2.07-.28.15-.05.05-.13.07-.16.14-.04.01-.08,0-.12,0-.31.25-.69.42-.9.76-.03.04-.09.11-.14.14-.25.13-.47.32-.6.58-.04.02-.09,0-.13,0-.39.09-2.11,2.08-2.54,2.65l-1.21,1.6c-.24.32-.35.66-.56.94-2.41,3.28-4.03,8.46-4.24,12.6-.49,9.7,4.5,18.71,12.79,23.74,4.64,2.81,10.05,4.29,15.51,3.99,9.25-.5,17.65-5.61,22.18-13.66,2.42-4.31,3.44-8.84,3.22-13.82-.36-8.27-4.75-16.07-11.71-20.43-.26-.6-1.03-.69-1.52-1.01-.64-.42-1.31-.73-2.01-1.03-.44-.19-.83-.66-1.36-.6-.04,0-.1.01-.14,0-.04-.32-.42-.23-.69-.33-4.11-1.61-7.91-1.77-12.29-1.52-2.8.16-5.84,1.2-8.43,2.26-.49.2-4.7,2.31-4.66,2.84Z" fill="#ecb529"/>
      <path d="M39.65,4.46s.1,0,.14,0c.72.95.21-.19,1.32,1.42.87,1.26,2.31.43,3.58,1.22,6.96,4.36,11.35,12.16,11.71,20.43.22,4.98-.81,9.52-3.22,13.82-4.53,8.06-12.93,13.16-22.18,13.66-5.46.3-10.87-1.18-15.51-3.99-8.29-5.02-13.28-14.04-12.79-23.74.21-4.14,1.83-9.32,4.24-12.6.56-.5,1.29-.89,1.49-1.63.45-.08.65-1.03,1.06-1.46.47-.49.96-.91,1.28-1.52.31-.11.49-.33.49-.58.04,0,.09.01.13,0,.27-.11.45-.34.6-.58.04-.02.11-.09.14-.14.32-.23.84-.33.9-.76.04,0,.08.01.12,0,.07-.03.12-.08.16-.14.08-.09.17-.11.28-.15.35-.15.71-.34,1.06-.59.4-.3.86-.33,1.3-.51.73-.29,1.18-.99,1.89-1.34,3-1.49,6.22-2.25,9.56-2.53,1.37-.11,2.69-.06,4.06.01,2.87.15,5.54.82,8.19,1.7ZM42.24,29.98c.63-.39.76-.89.74-1.46s-.35-.91-.89-1.24l-19.55-12.16c-.53-.33-1.14-.53-1.75-.16-.34.2-.77.63-.77,1.27l.02,24.91c0,.68.57,1.14.96,1.32.63.28,1.08.05,1.62-.29l19.61-12.19Z" fill="#276da5"/>
      <path d="M39.65,4.46c-2.65-.88-5.33-1.56-8.19-1.7-1.37-.07-2.68-.13-4.06-.01-3.35.28-6.56,1.03-9.56,2.53-.71.35-1.17,1.05-1.89,1.34-.44.18-.9.21-1.3.51-.34.25-.71.44-1.06.59-.04-.53,4.17-2.64,4.66-2.84,2.59-1.06,5.63-2.1,8.43-2.26,4.37-.26,8.18-.09,12.29,1.52.27.11.64.01.69.33Z" fill="#2776b9"/>
      <path d="M41.15,5.06c-.07.08-.18-.04-.32.07.23.13,2.23,1.45,2.33.97.49.32,1.27.41,1.52,1.01-1.27-.79-2.7.04-3.58-1.22-1.11-1.6-.6-.47-1.32-1.42.54-.06.93.41,1.36.6Z" fill="#2776b9"/>
      <path d="M8.43,13.05c.11-.41.7-.98.29-.91.43-.57,2.15-2.56,2.54-2.65,0,.26-.19.47-.49.58-.32.61-.8,1.03-1.28,1.52-.41.42-.61,1.37-1.06,1.46Z" fill="#2776b9"/>
      <path d="M12.13,8.78c.21-.34.6-.52.9-.76-.06.43-.58.53-.9.76Z" fill="#2776b9"/>
      <path d="M11.39,9.49c.13-.25.35-.44.6-.58-.15.24-.34.47-.6.58Z" fill="#2776b9"/>
      <path d="M13.16,8.01c.03-.07.11-.09.16-.14-.04.06-.09.12-.16.14Z" fill="#2776b9"/>
      <path d="M42.24,29.98l-19.61,12.19c-.54.34-.99.57-1.62.29-.39-.17-.96-.64-.96-1.32l-.02-24.91c0-.64.43-1.07.77-1.27.61-.36,1.22-.17,1.75.16l19.55,12.16c.54.34.88.68.89,1.24s-.11,1.07-.74,1.46Z" fill="#fcfdfd"/>
    </g>
  </g>
</svg>