<?xml version="1.0" encoding="UTF-8"?>
<svg id="Layer_2" data-name="Layer 2" xmlns="http://www.w3.org/2000/svg" viewBox="0 0 59.03 57.71">
  <g id="Layer_1-2" data-name="Layer 1">
    <g>
      <path d="M27.4,57.59l-2.97-.31c-.38-.04-.8-.14-1.22-.22C11.99,54.73,3.06,45.97.5,34.81c.16-.68-.15-1.23-.23-1.87C-.93,23.94,1.92,14.31,8.67,8.32l1.49-1.32C15.66,2.12,23.47-.38,30.79.05l2.22.13c2.33.14,4.53.81,6.74,1.6,6.59,2.35,12,6.86,15.51,12.93,4.96,8.57,5.04,19.24.13,27.87-.9,1.58-1.77,2.94-2.95,4.35-4.65,5.57-11.15,9.37-18.38,10.43-2.27.33-4.43.47-6.65.23ZM56.07,28.79c0-14.67-11.9-26.57-26.57-26.57S2.93,14.12,2.93,28.79s11.9,26.57,26.57,26.57,26.57-11.89,26.57-26.57Z" fill="#ecb529"/>
      <path d="M56.07,28.79c0,14.67-11.9,26.57-26.57,26.57S2.93,43.46,2.93,28.79,14.82,2.23,29.5,2.23s26.57,11.89,26.57,26.57ZM26.61,39.56c.45.32,1.05.18,1.35-.02.34-.24.51-.65.52-1.12l.05-8.56,7.85,5.49,6.1,4.27c.36.25.89.17,1.17-.05.29-.23.61-.52.61-1.02v-19.76c0-.45-.45-.78-.7-.94-.26-.17-.75-.23-1.09,0l-13.95,9.75-.04-8.71c0-.46-.28-.84-.57-.97-.35-.16-.89-.29-1.27-.02l-13.82,9.77c-.38.27-.55.71-.55,1.06,0,.33.18.81.53,1.06l7.19,5.07,6.62,4.7Z" fill="#276da5"/>
      <path d="M26.61,39.56l-6.62-4.7-7.19-5.07c-.36-.25-.53-.73-.53-1.06,0-.35.16-.79.55-1.06l13.82-9.77c.39-.27.92-.14,1.27.02.28.13.56.51.57.97l.04,8.71,13.95-9.75c.34-.24.82-.18,1.09,0,.24.16.7.49.7.94v19.76c0,.49-.31.79-.61,1.02-.28.22-.81.3-1.17.05l-6.1-4.27-7.85-5.49-.05,8.56c0,.47-.17.89-.52,1.12-.3.2-.9.34-1.35.02Z" fill="#fcfdfd"/>
    </g>
  </g>
</svg>