<?xml version="1.0" encoding="UTF-8"?>
<svg id="Layer_2" data-name="Layer 2" xmlns="http://www.w3.org/2000/svg" viewBox="0 0 260.06 301.74">
  <g id="Layer_1-2" data-name="Layer 1">
    <g>
      <rect x=".5" y=".5" width="259.06" height="300.73" rx="19.27" ry="19.27" fill="#1a2a3d"/>
      <path d="M240.29,301.74H19.77c-10.9,0-19.77-8.87-19.77-19.77V19.77C0,8.87,8.87,0,19.77,0h220.52c10.9,0,19.77,8.87,19.77,19.77v262.19c0,10.9-8.87,19.77-19.77,19.77ZM19.77,1C9.42,1,1,9.42,1,19.77v262.19c0,10.35,8.42,18.77,18.77,18.77h220.52c10.35,0,18.77-8.42,18.77-18.77V19.77c0-10.35-8.42-18.77-18.77-18.77H19.77Z" fill="#7dabe2"/>
    </g>
    <g>
      <path d="M39.86,39.76c0,1.46-.25,2.74-.74,3.83-.49,1.09-1.19,1.92-2.09,2.5s-1.96.86-3.16.86-2.22-.29-3.13-.87c-.91-.58-1.62-1.4-2.12-2.47-.5-1.07-.76-2.31-.77-3.72v-1.08c0-1.44.25-2.7.75-3.8s1.2-1.94,2.12-2.53c.91-.58,1.96-.88,3.13-.88s2.25.29,3.16.87c.91.58,1.61,1.42,2.11,2.51.49,1.1.74,2.37.74,3.83v.94ZM37.9,38.79c0-1.77-.36-3.13-1.07-4.08-.71-.95-1.71-1.42-2.98-1.42s-2.22.47-2.94,1.42c-.71.95-1.08,2.26-1.1,3.94v1.1c0,1.72.36,3.06,1.08,4.04.72.98,1.71,1.47,2.98,1.47s2.26-.46,2.95-1.39c.7-.93,1.06-2.25,1.08-3.98v-1.11Z" fill="#fff"/>
      <path d="M44.58,46.74h-1.9v-15.75h1.9v15.75Z" fill="#fff"/>
      <path d="M54.46,46.74c-.11-.22-.2-.61-.27-1.17-.88.92-1.93,1.37-3.16,1.37-1.09,0-1.99-.31-2.69-.93-.7-.62-1.05-1.4-1.05-2.35,0-1.16.44-2.05,1.32-2.69.88-.64,2.11-.96,3.71-.96h1.85v-.87c0-.66-.2-1.19-.59-1.58-.4-.39-.98-.59-1.75-.59-.68,0-1.24.17-1.7.51-.46.34-.69.76-.69,1.24h-1.91c0-.55.2-1.09.59-1.6.39-.52.93-.92,1.6-1.23s1.41-.45,2.22-.45c1.28,0,2.28.32,3,.96.72.64,1.1,1.52,1.13,2.64v5.11c0,1.02.13,1.83.39,2.43v.16h-1.99ZM51.31,45.29c.59,0,1.16-.15,1.69-.46s.92-.71,1.16-1.2v-2.28h-1.49c-2.32,0-3.49.68-3.49,2.04,0,.59.2,1.06.59,1.39s.91.5,1.53.5ZM53.07,30.99h2.3l-2.75,3.01h-1.53s1.98-3.01,1.98-3.01Z" fill="#fff"/>
      <path d="M59.24,45.78c0-.31.09-.57.28-.78.19-.21.47-.32.84-.32s.65.1.84.32c.19.21.29.47.29.78s-.1.57-.29.77c-.19.2-.47.31-.84.31s-.65-.1-.84-.31c-.19-.2-.28-.46-.28-.77ZM61.16,42.51h-1.71l-.13-10.7h1.99l-.14,10.7Z" fill="#fff"/>
      <path d="M32.77,65.29c-1.69-.49-2.92-1.08-3.69-1.79-.77-.71-1.15-1.58-1.15-2.62,0-1.17.47-2.15,1.41-2.92.94-.77,2.16-1.15,3.67-1.15,1.03,0,1.94.2,2.74.59s1.43.94,1.87,1.64c.44.7.66,1.46.66,2.29h-1.98c0-.91-.29-1.62-.86-2.13s-1.38-.78-2.43-.78c-.97,0-1.73.21-2.27.64-.54.43-.82,1.02-.82,1.78,0,.61.26,1.12.77,1.55.52.42,1.39.81,2.63,1.16,1.24.35,2.21.73,2.91,1.15.7.42,1.22.91,1.56,1.47.34.56.51,1.22.51,1.98,0,1.21-.47,2.18-1.42,2.91-.94.73-2.2,1.09-3.78,1.09-1.03,0-1.98-.2-2.87-.59-.89-.39-1.57-.93-2.06-1.62-.48-.68-.72-1.46-.72-2.33h1.98c0,.9.33,1.62,1,2.14.67.52,1.56.79,2.67.79,1.04,0,1.84-.21,2.39-.64.55-.42.83-1,.83-1.73s-.26-1.3-.77-1.7c-.51-.4-1.44-.79-2.79-1.18Z" fill="#fff"/>
      <path d="M45.14,72.15c-1.5,0-2.73-.49-3.67-1.48-.94-.99-1.42-2.31-1.42-3.96v-.35c0-1.1.21-2.08.63-2.95.42-.87,1.01-1.54,1.76-2.03.76-.49,1.57-.73,2.46-.73,1.44,0,2.56.48,3.36,1.42.8.95,1.2,2.31,1.2,4.08v.79h-7.52c.03,1.09.35,1.98.96,2.65.61.67,1.39,1.01,2.33,1.01.67,0,1.24-.14,1.7-.41.46-.27.87-.63,1.22-1.09l1.16.9c-.93,1.43-2.32,2.14-4.18,2.14ZM44.91,62.2c-.77,0-1.41.28-1.93.84-.52.56-.84,1.34-.96,2.34h5.56v-.14c-.05-.96-.31-1.71-.78-2.24-.46-.53-1.09-.79-1.89-.79Z" fill="#fff"/>
      <path d="M58.51,70.84c-.74.87-1.82,1.3-3.25,1.3-1.18,0-2.08-.34-2.7-1.03-.62-.69-.93-1.7-.94-3.05v-7.22h1.9v7.17c0,1.68.68,2.52,2.05,2.52,1.45,0,2.41-.54,2.89-1.62v-8.07h1.9v11.09h-1.8l-.04-1.1Z" fill="#fff"/>
      <path d="M77.81,66.52c0,1.69-.39,3.05-1.16,4.08-.77,1.03-1.82,1.55-3.14,1.55s-2.41-.43-3.18-1.28v5.34h-1.9v-15.36h1.73l.09,1.23c.77-.96,1.85-1.44,3.22-1.44s2.39.5,3.16,1.51c.78,1.01,1.16,2.4,1.16,4.19v.17ZM75.91,66.3c0-1.25-.27-2.24-.8-2.96-.53-.72-1.26-1.09-2.19-1.09-1.15,0-2.01.51-2.58,1.53v5.3c.57,1.01,1.44,1.52,2.6,1.52.91,0,1.63-.36,2.17-1.08.54-.72.81-1.79.81-3.21Z" fill="#fff"/>
      <path d="M85.58,62.55c-.29-.05-.6-.07-.93-.07-1.24,0-2.09.53-2.53,1.59v7.88h-1.9v-11.09h1.85l.03,1.28c.62-.99,1.5-1.49,2.65-1.49.37,0,.65.05.84.14v1.76Z" fill="#fff"/>
      <path d="M86.62,66.29c0-1.09.21-2.06.64-2.93.43-.87,1.02-1.54,1.78-2.01.76-.47,1.63-.71,2.61-.71,1.51,0,2.73.52,3.67,1.57.93,1.04,1.4,2.44,1.4,4.17v.13c0,1.08-.21,2.05-.62,2.91-.41.86-1,1.53-1.77,2-.77.48-1.65.72-2.65.72-1.5,0-2.72-.52-3.66-1.57-.93-1.05-1.4-2.43-1.4-4.15v-.13ZM88.53,66.52c0,1.23.29,2.22.86,2.96s1.33,1.12,2.29,1.12,1.73-.38,2.3-1.13c.57-.75.85-1.81.85-3.17,0-1.22-.29-2.2-.87-2.96-.58-.75-1.34-1.13-2.3-1.13s-1.69.37-2.27,1.12-.86,1.81-.86,3.2Z" fill="#fff"/>
      <path d="M100.03,71.94v-9.63h-1.75v-1.47h1.75v-1.14c0-1.19.32-2.11.95-2.76s1.53-.97,2.7-.97c.44,0,.87.06,1.3.17l-.1,1.53c-.32-.06-.66-.09-1.03-.09-.62,0-1.09.18-1.43.54s-.5.88-.5,1.55v1.17h2.37v1.47h-2.37v9.63h-1.9Z" fill="#fff"/>
      <path d="M110.75,72.15c-1.5,0-2.73-.49-3.67-1.48-.94-.99-1.42-2.31-1.42-3.96v-.35c0-1.1.21-2.08.63-2.95.42-.87,1.01-1.54,1.76-2.03.76-.49,1.57-.73,2.46-.73,1.44,0,2.56.48,3.36,1.42.8.95,1.2,2.31,1.2,4.08v.79h-7.52c.03,1.09.35,1.98.96,2.65.61.67,1.39,1.01,2.33,1.01.67,0,1.24-.14,1.7-.41.46-.27.87-.63,1.22-1.09l1.16.9c-.93,1.43-2.32,2.14-4.18,2.14ZM110.51,62.2c-.77,0-1.41.28-1.93.84-.52.56-.84,1.34-.96,2.34h5.56v-.14c-.05-.96-.31-1.71-.78-2.24-.46-.53-1.09-.79-1.89-.79Z" fill="#fff"/>
      <path d="M123.73,69c0-.51-.19-.91-.58-1.19-.39-.28-1.06-.53-2.02-.73s-1.72-.45-2.29-.74c-.56-.29-.98-.63-1.25-1.03-.27-.4-.41-.87-.41-1.41,0-.91.38-1.68,1.15-2.31.77-.63,1.75-.94,2.95-.94,1.26,0,2.28.33,3.06.97.78.65,1.17,1.48,1.17,2.49h-1.91c0-.52-.22-.97-.66-1.34-.44-.38-1-.56-1.67-.56s-1.23.15-1.62.45-.58.69-.58,1.18c0,.46.18.8.54,1.04s1.02.46,1.96.67c.95.21,1.71.46,2.3.76.59.29,1.02.65,1.31,1.06.28.41.43.92.43,1.51,0,.99-.4,1.79-1.19,2.38-.79.6-1.82.9-3.09.9-.89,0-1.67-.16-2.36-.47s-1.22-.75-1.6-1.32c-.39-.56-.58-1.17-.58-1.83h1.9c.03.63.29,1.14.76,1.51.48.37,1.1.56,1.88.56.72,0,1.29-.14,1.73-.44.43-.29.65-.68.65-1.16Z" fill="#fff"/>
      <path d="M134.56,69c0-.51-.19-.91-.58-1.19-.39-.28-1.06-.53-2.02-.73s-1.72-.45-2.29-.74c-.56-.29-.98-.63-1.25-1.03-.27-.4-.41-.87-.41-1.41,0-.91.38-1.68,1.15-2.31.77-.63,1.75-.94,2.95-.94,1.26,0,2.28.33,3.06.97.78.65,1.17,1.48,1.17,2.49h-1.91c0-.52-.22-.97-.66-1.34-.44-.38-1-.56-1.67-.56s-1.23.15-1.62.45-.58.69-.58,1.18c0,.46.18.8.54,1.04s1.02.46,1.96.67c.95.21,1.71.46,2.3.76.59.29,1.02.65,1.31,1.06.28.41.43.92.43,1.51,0,.99-.4,1.79-1.19,2.38-.79.6-1.82.9-3.09.9-.89,0-1.67-.16-2.36-.47s-1.22-.75-1.6-1.32c-.39-.56-.58-1.17-.58-1.83h1.9c.03.63.29,1.14.76,1.51.48.37,1.1.56,1.88.56.72,0,1.29-.14,1.73-.44.43-.29.65-.68.65-1.16Z" fill="#fff"/>
      <path d="M138.42,66.29c0-1.09.21-2.06.64-2.93.43-.87,1.02-1.54,1.78-2.01.76-.47,1.63-.71,2.61-.71,1.51,0,2.73.52,3.67,1.57.93,1.04,1.4,2.44,1.4,4.17v.13c0,1.08-.21,2.05-.62,2.91-.41.86-1,1.53-1.77,2-.77.48-1.65.72-2.65.72-1.5,0-2.72-.52-3.66-1.57-.93-1.05-1.4-2.43-1.4-4.15v-.13ZM140.33,66.52c0,1.23.29,2.22.86,2.96s1.33,1.12,2.29,1.12,1.73-.38,2.3-1.13c.57-.75.85-1.81.85-3.17,0-1.22-.29-2.2-.87-2.96-.58-.75-1.34-1.13-2.3-1.13s-1.69.37-2.27,1.12-.86,1.81-.86,3.2Z" fill="#fff"/>
      <path d="M156.26,62.55c-.29-.05-.6-.07-.93-.07-1.24,0-2.09.53-2.53,1.59v7.88h-1.9v-11.09h1.85l.03,1.28c.62-.99,1.5-1.49,2.65-1.49.37,0,.65.05.84.14v1.76Z" fill="#fff"/>
      <path d="M165.16,60.85v12.38c0,2.13-.97,3.2-2.9,3.2-.42,0-.8-.06-1.16-.18v-1.51c.22.05.51.08.86.08.42,0,.75-.11.97-.34.22-.23.33-.63.33-1.2v-12.43h1.9ZM163.07,57.9c0-.3.09-.56.28-.77.19-.22.46-.32.83-.32s.65.11.84.32.29.47.29.78-.1.56-.29.77-.47.31-.84.31-.65-.1-.83-.31-.28-.46-.28-.77Z" fill="#fff"/>
      <path d="M175.07,71.94c-.11-.22-.2-.61-.27-1.17-.88.92-1.93,1.37-3.16,1.37-1.09,0-1.99-.31-2.69-.93-.7-.62-1.05-1.4-1.05-2.35,0-1.16.44-2.05,1.32-2.69.88-.64,2.11-.96,3.71-.96h1.85v-.87c0-.66-.2-1.19-.59-1.58-.4-.39-.98-.59-1.75-.59-.68,0-1.24.17-1.7.51-.46.34-.69.76-.69,1.24h-1.91c0-.55.2-1.09.59-1.6.39-.52.93-.92,1.6-1.23s1.41-.45,2.22-.45c1.28,0,2.28.32,3,.96.72.64,1.1,1.52,1.13,2.64v5.11c0,1.02.13,1.83.39,2.43v.16h-1.99ZM171.92,70.5c.59,0,1.16-.15,1.69-.46s.92-.71,1.16-1.2v-2.28h-1.49c-2.32,0-3.49.68-3.49,2.04,0,.59.2,1.06.59,1.39s.91.5,1.53.5ZM173.67,56.19h2.3l-2.75,3.01h-1.53s1.98-3.01,1.98-3.01Z" fill="#fff"/>
      <path d="M34.93,97.14c-.11-.22-.2-.61-.27-1.17-.88.92-1.93,1.37-3.16,1.37-1.09,0-1.99-.31-2.69-.93-.7-.62-1.05-1.4-1.05-2.35,0-1.16.44-2.05,1.32-2.69.88-.64,2.11-.96,3.71-.96h1.85v-.87c0-.66-.2-1.19-.59-1.58-.4-.39-.98-.59-1.75-.59-.68,0-1.24.17-1.7.51-.46.34-.69.76-.69,1.24h-1.91c0-.55.2-1.09.59-1.6.39-.52.93-.92,1.6-1.23s1.41-.45,2.22-.45c1.28,0,2.28.32,3,.96.72.64,1.1,1.52,1.13,2.64v5.11c0,1.02.13,1.83.39,2.43v.16h-1.99ZM31.78,95.7c.59,0,1.16-.15,1.69-.46s.92-.71,1.16-1.2v-2.28h-1.49c-2.32,0-3.49.68-3.49,2.04,0,.59.2,1.06.59,1.39s.91.5,1.53.5Z" fill="#fff"/>
      <path d="M48.87,91.72c0,1.69-.39,3.05-1.16,4.08-.77,1.03-1.82,1.55-3.14,1.55s-2.41-.43-3.18-1.28v5.34h-1.9v-15.36h1.73l.09,1.23c.77-.96,1.85-1.44,3.22-1.44s2.39.5,3.16,1.51c.78,1.01,1.16,2.4,1.16,4.19v.17ZM46.98,91.5c0-1.25-.27-2.24-.8-2.96-.53-.72-1.26-1.09-2.19-1.09-1.15,0-2.01.51-2.58,1.53v5.3c.57,1.01,1.44,1.52,2.6,1.52.91,0,1.63-.36,2.17-1.08.54-.72.81-1.79.81-3.21Z" fill="#fff"/>
      <path d="M56.65,87.75c-.29-.05-.6-.07-.93-.07-1.24,0-2.09.53-2.53,1.59v7.88h-1.9v-11.09h1.85l.03,1.28c.62-.99,1.5-1.49,2.65-1.49.37,0,.65.05.84.14v1.76Z" fill="#fff"/>
      <path d="M62.8,97.35c-1.5,0-2.73-.49-3.67-1.48-.94-.99-1.42-2.31-1.42-3.96v-.35c0-1.1.21-2.08.63-2.95.42-.87,1.01-1.54,1.76-2.03.76-.49,1.57-.73,2.46-.73,1.44,0,2.56.48,3.36,1.42.8.95,1.2,2.31,1.2,4.08v.79h-7.52c.03,1.09.35,1.98.96,2.65.61.67,1.39,1.01,2.33,1.01.67,0,1.24-.14,1.7-.41.46-.27.87-.63,1.22-1.09l1.16.9c-.93,1.43-2.32,2.14-4.18,2.14ZM62.56,87.4c-.77,0-1.41.28-1.93.84-.52.56-.84,1.34-.96,2.34h5.56v-.14c-.05-.96-.31-1.71-.78-2.24-.46-.53-1.09-.79-1.89-.79Z" fill="#fff"/>
      <path d="M75.78,94.2c0-.51-.19-.91-.58-1.19-.39-.28-1.06-.53-2.02-.73s-1.72-.45-2.29-.74c-.56-.29-.98-.63-1.25-1.03-.27-.4-.41-.87-.41-1.41,0-.91.38-1.68,1.15-2.31.77-.63,1.75-.94,2.95-.94,1.26,0,2.28.33,3.06.97.78.65,1.17,1.48,1.17,2.49h-1.91c0-.52-.22-.97-.66-1.34-.44-.38-1-.56-1.67-.56s-1.23.15-1.62.45-.58.69-.58,1.18c0,.46.18.8.54,1.04s1.02.46,1.96.67c.95.21,1.71.46,2.3.76.59.29,1.02.65,1.31,1.06.28.41.43.92.43,1.51,0,.99-.4,1.79-1.19,2.38-.79.6-1.82.9-3.09.9-.89,0-1.67-.16-2.36-.47s-1.22-.75-1.6-1.32c-.39-.56-.58-1.17-.58-1.83h1.9c.03.63.29,1.14.76,1.51.48.37,1.1.56,1.88.56.72,0,1.29-.14,1.73-.44.43-.29.65-.68.65-1.16Z" fill="#fff"/>
      <path d="M84.75,97.35c-1.5,0-2.73-.49-3.67-1.48-.94-.99-1.42-2.31-1.42-3.96v-.35c0-1.1.21-2.08.63-2.95.42-.87,1.01-1.54,1.76-2.03.76-.49,1.57-.73,2.46-.73,1.44,0,2.56.48,3.36,1.42.8.95,1.2,2.31,1.2,4.08v.79h-7.52c.03,1.09.35,1.98.96,2.65.61.67,1.39,1.01,2.33,1.01.67,0,1.24-.14,1.7-.41.46-.27.87-.63,1.22-1.09l1.16.9c-.93,1.43-2.32,2.14-4.18,2.14ZM84.52,87.4c-.77,0-1.41.28-1.93.84-.52.56-.84,1.34-.96,2.34h5.56v-.14c-.05-.96-.31-1.71-.78-2.24-.46-.53-1.09-.79-1.89-.79Z" fill="#fff"/>
      <path d="M93.07,86.05l.06,1.39c.85-1.07,1.96-1.6,3.32-1.6,2.34,0,3.53,1.32,3.55,3.97v7.33h-1.9v-7.34c0-.8-.19-1.39-.55-1.77-.36-.38-.92-.57-1.68-.57-.62,0-1.16.16-1.62.49s-.83.76-1.09,1.29v7.91h-1.9v-11.09h1.79Z" fill="#fff"/>
      <path d="M105.43,83.36v2.69h2.07v1.47h-2.07v6.89c0,.44.09.78.28,1s.5.33.94.33c.22,0,.52-.04.9-.12v1.53c-.5.14-.98.2-1.46.2-.85,0-1.49-.26-1.92-.77-.43-.51-.65-1.24-.65-2.18v-6.88h-2.02v-1.47h2.02v-2.69h1.9Z" fill="#fff"/>
      <path d="M109.01,91.49c0-1.09.21-2.06.64-2.93.43-.87,1.02-1.54,1.78-2.01.76-.47,1.63-.71,2.61-.71,1.51,0,2.73.52,3.67,1.57.93,1.04,1.4,2.44,1.4,4.17v.13c0,1.08-.21,2.05-.62,2.91-.41.86-1,1.53-1.77,2-.77.48-1.65.72-2.65.72-1.5,0-2.72-.52-3.66-1.57-.93-1.05-1.4-2.43-1.4-4.15v-.13ZM110.92,91.72c0,1.23.29,2.22.86,2.96s1.33,1.12,2.29,1.12,1.73-.38,2.3-1.13c.57-.75.85-1.81.85-3.17,0-1.22-.29-2.2-.87-2.96-.58-.75-1.34-1.13-2.3-1.13s-1.69.37-2.27,1.12-.86,1.81-.86,3.2Z" fill="#fff"/>
      <path d="M128.34,96.04c-.74.87-1.82,1.3-3.25,1.3-1.18,0-2.08-.34-2.7-1.03-.62-.69-.93-1.7-.94-3.05v-7.22h1.9v7.17c0,1.68.68,2.52,2.05,2.52,1.45,0,2.41-.54,2.89-1.62v-8.07h1.9v11.09h-1.8l-.04-1.1Z" fill="#fff"/>
      <path d="M137.76,91.49c0-1.09.21-2.06.64-2.93.43-.87,1.02-1.54,1.78-2.01.76-.47,1.63-.71,2.61-.71,1.51,0,2.73.52,3.67,1.57.93,1.04,1.4,2.44,1.4,4.17v.13c0,1.08-.21,2.05-.62,2.91-.41.86-1,1.53-1.77,2-.77.48-1.65.72-2.65.72-1.5,0-2.72-.52-3.66-1.57-.93-1.05-1.4-2.43-1.4-4.15v-.13ZM139.67,91.72c0,1.23.29,2.22.86,2.96s1.33,1.12,2.29,1.12,1.73-.38,2.3-1.13c.57-.75.85-1.81.85-3.17,0-1.22-.29-2.2-.87-2.96-.58-.75-1.34-1.13-2.3-1.13s-1.69.37-2.27,1.12-.86,1.81-.86,3.2Z" fill="#fff"/>
      <path d="M158.02,83.36v2.69h2.07v1.47h-2.07v6.89c0,.44.09.78.28,1s.5.33.94.33c.22,0,.52-.04.9-.12v1.53c-.5.14-.98.2-1.46.2-.85,0-1.49-.26-1.92-.77-.43-.51-.65-1.24-.65-2.18v-6.88h-2.02v-1.47h2.02v-2.69h1.9Z" fill="#fff"/>
      <path d="M166.91,97.35c-1.5,0-2.73-.49-3.67-1.48-.94-.99-1.42-2.31-1.42-3.96v-.35c0-1.1.21-2.08.63-2.95.42-.87,1.01-1.54,1.76-2.03.76-.49,1.57-.73,2.46-.73,1.44,0,2.56.48,3.36,1.42.8.95,1.2,2.31,1.2,4.08v.79h-7.52c.03,1.09.35,1.98.96,2.65.61.67,1.39,1.01,2.33,1.01.67,0,1.24-.14,1.7-.41.46-.27.87-.63,1.22-1.09l1.16.9c-.93,1.43-2.32,2.14-4.18,2.14ZM166.67,87.4c-.77,0-1.41.28-1.93.84-.52.56-.84,1.34-.96,2.34h5.56v-.14c-.05-.96-.31-1.71-.78-2.24-.46-.53-1.09-.79-1.89-.79Z" fill="#fff"/>
      <path d="M175.21,86.05l.05,1.23c.81-.96,1.91-1.44,3.29-1.44,1.55,0,2.61.59,3.17,1.78.37-.53.85-.96,1.44-1.29.59-.33,1.29-.49,2.1-.49,2.43,0,3.67,1.29,3.71,3.87v7.43h-1.9v-7.32c0-.79-.18-1.39-.54-1.78-.36-.39-.97-.59-1.83-.59-.7,0-1.29.21-1.75.63-.46.42-.73.99-.81,1.7v7.36h-1.91v-7.27c0-1.61-.79-2.42-2.37-2.42-1.24,0-2.1.53-2.55,1.59v8.1h-1.9v-11.09h1.79Z" fill="#fff"/>
      <path d="M198.68,97.14c-.11-.22-.2-.61-.27-1.17-.88.92-1.93,1.37-3.16,1.37-1.09,0-1.99-.31-2.69-.93-.7-.62-1.05-1.4-1.05-2.35,0-1.16.44-2.05,1.32-2.69.88-.64,2.11-.96,3.71-.96h1.85v-.87c0-.66-.2-1.19-.59-1.58-.4-.39-.98-.59-1.75-.59-.68,0-1.24.17-1.7.51-.46.34-.69.76-.69,1.24h-1.91c0-.55.2-1.09.59-1.6.39-.52.93-.92,1.6-1.23s1.41-.45,2.22-.45c1.28,0,2.28.32,3,.96.72.64,1.1,1.52,1.13,2.64v5.11c0,1.02.13,1.83.39,2.43v.16h-1.99ZM195.54,95.7c.59,0,1.16-.15,1.69-.46s.92-.71,1.16-1.2v-2.28h-1.49c-2.32,0-3.49.68-3.49,2.04,0,.59.2,1.06.59,1.39s.91.5,1.53.5Z" fill="#fff"/>
      <path d="M207.99,91.5c0-1.7.4-3.07,1.21-4.11.81-1.04,1.86-1.55,3.17-1.55s2.33.44,3.09,1.33v-5.78h1.9v15.75h-1.74l-.09-1.19c-.76.93-1.81,1.39-3.17,1.39s-2.33-.53-3.14-1.58c-.81-1.05-1.22-2.43-1.22-4.12v-.14ZM209.89,91.72c0,1.26.26,2.24.78,2.95s1.24,1.07,2.15,1.07c1.2,0,2.08-.54,2.64-1.62v-5.1c-.57-1.05-1.44-1.57-2.61-1.57-.93,0-1.65.36-2.17,1.08s-.78,1.78-.78,3.19Z" fill="#fff"/>
      <path d="M227.15,97.14c-.11-.22-.2-.61-.27-1.17-.88.92-1.93,1.37-3.16,1.37-1.09,0-1.99-.31-2.69-.93-.7-.62-1.05-1.4-1.05-2.35,0-1.16.44-2.05,1.32-2.69.88-.64,2.11-.96,3.71-.96h1.85v-.87c0-.66-.2-1.19-.59-1.58-.4-.39-.98-.59-1.75-.59-.68,0-1.24.17-1.7.51-.46.34-.69.76-.69,1.24h-1.91c0-.55.2-1.09.59-1.6.39-.52.93-.92,1.6-1.23s1.41-.45,2.22-.45c1.28,0,2.28.32,3,.96.72.64,1.1,1.52,1.13,2.64v5.11c0,1.02.13,1.83.39,2.43v.16h-1.99ZM224,95.7c.59,0,1.16-.15,1.69-.46s.92-.71,1.16-1.2v-2.28h-1.49c-2.32,0-3.49.68-3.49,2.04,0,.59.2,1.06.59,1.39s.91.5,1.53.5Z" fill="#fff"/>
      <path d="M34.93,122.34c-.11-.22-.2-.61-.27-1.17-.88.92-1.93,1.37-3.16,1.37-1.09,0-1.99-.31-2.69-.93-.7-.62-1.05-1.4-1.05-2.35,0-1.16.44-2.05,1.32-2.69.88-.64,2.11-.96,3.71-.96h1.85v-.87c0-.66-.2-1.19-.59-1.58-.4-.39-.98-.59-1.75-.59-.68,0-1.24.17-1.7.51-.46.34-.69.76-.69,1.24h-1.91c0-.55.2-1.09.59-1.6.39-.52.93-.92,1.6-1.23s1.41-.45,2.22-.45c1.28,0,2.28.32,3,.96.72.64,1.1,1.52,1.13,2.64v5.11c0,1.02.13,1.83.39,2.43v.16h-1.99ZM31.78,120.89c.59,0,1.16-.15,1.69-.46s.92-.71,1.16-1.2v-2.28h-1.49c-2.32,0-3.49.68-3.49,2.04,0,.59.2,1.06.59,1.39s.91.5,1.53.5Z" fill="#fff"/>
      <path d="M46.35,121.24c-.74.87-1.82,1.3-3.25,1.3-1.18,0-2.08-.34-2.7-1.03-.62-.69-.93-1.7-.94-3.05v-7.22h1.9v7.17c0,1.68.68,2.52,2.05,2.52,1.45,0,2.41-.54,2.89-1.62v-8.07h1.9v11.09h-1.8l-.04-1.1Z" fill="#fff"/>
      <path d="M53.14,122.34h-1.9v-15.75h1.9v15.75Z" fill="#fff"/>
      <path d="M63.02,122.34c-.11-.22-.2-.61-.27-1.17-.88.92-1.93,1.37-3.16,1.37-1.09,0-1.99-.31-2.69-.93-.7-.62-1.05-1.4-1.05-2.35,0-1.16.44-2.05,1.32-2.69.88-.64,2.11-.96,3.71-.96h1.85v-.87c0-.66-.2-1.19-.59-1.58-.4-.39-.98-.59-1.75-.59-.68,0-1.24.17-1.7.51-.46.34-.69.76-.69,1.24h-1.91c0-.55.2-1.09.59-1.6.39-.52.93-.92,1.6-1.23s1.41-.45,2.22-.45c1.28,0,2.28.32,3,.96.72.64,1.1,1.52,1.13,2.64v5.11c0,1.02.13,1.83.39,2.43v.16h-1.99ZM59.88,120.89c.59,0,1.16-.15,1.69-.46s.92-.71,1.16-1.2v-2.28h-1.49c-2.32,0-3.49.68-3.49,2.04,0,.59.2,1.06.59,1.39s.91.5,1.53.5Z" fill="#fff"/>
      <path d="M67.64,121.35c0-.33.1-.6.29-.82.2-.22.49-.33.88-.33s.69.11.89.33.3.49.3.82-.1.58-.3.79-.5.32-.89.32-.68-.11-.88-.32c-.19-.21-.29-.47-.29-.79Z" fill="#fff"/>
      <path d="M86.86,118.43h-6.25l-1.4,3.91h-2.03l5.7-14.93h1.72l5.71,14.93h-2.02l-1.43-3.91ZM81.2,116.82h5.08l-2.54-6.98-2.53,6.98Z" fill="#fff"/>
      <path d="M91.57,116.7c0-1.73.4-3.11,1.2-4.13.8-1.02,1.86-1.53,3.18-1.53s2.41.48,3.17,1.44l.09-1.23h1.73v10.83c0,1.44-.43,2.57-1.28,3.39-.85.83-1.99,1.24-3.43,1.24-.8,0-1.58-.17-2.35-.51s-1.35-.81-1.75-1.4l.98-1.14c.81,1,1.81,1.51,2.98,1.51.92,0,1.64-.26,2.16-.78.52-.52.77-1.25.77-2.2v-.95c-.76.88-1.79,1.31-3.11,1.31s-2.35-.52-3.15-1.57c-.8-1.05-1.21-2.47-1.21-4.28ZM93.48,116.92c0,1.25.26,2.23.77,2.95.51.71,1.23,1.07,2.15,1.07,1.2,0,2.07-.54,2.64-1.63v-5.07c-.58-1.06-1.45-1.59-2.61-1.59-.92,0-1.64.36-2.16,1.08s-.78,1.78-.78,3.19Z" fill="#fff"/>
      <path d="M103.3,116.69c0-1.09.21-2.06.64-2.93.43-.87,1.02-1.54,1.78-2.01.76-.47,1.63-.71,2.61-.71,1.51,0,2.73.52,3.67,1.57.93,1.04,1.4,2.44,1.4,4.17v.13c0,1.08-.21,2.05-.62,2.91-.41.86-1,1.53-1.77,2-.77.48-1.65.72-2.65.72-1.5,0-2.72-.52-3.66-1.57-.93-1.05-1.4-2.43-1.4-4.15v-.13ZM105.21,116.92c0,1.23.29,2.22.86,2.96s1.33,1.12,2.29,1.12,1.73-.38,2.3-1.13c.57-.75.85-1.81.85-3.17,0-1.22-.29-2.2-.87-2.96-.58-.75-1.34-1.13-2.3-1.13s-1.69.37-2.27,1.12-.86,1.81-.86,3.2Z" fill="#fff"/>
      <path d="M121.14,112.95c-.29-.05-.6-.07-.93-.07-1.24,0-2.09.53-2.53,1.59v7.88h-1.9v-11.09h1.85l.03,1.28c.62-.99,1.5-1.49,2.65-1.49.37,0,.65.05.84.14v1.76Z" fill="#fff"/>
      <path d="M129.33,122.34c-.11-.22-.2-.61-.27-1.17-.88.92-1.93,1.37-3.16,1.37-1.09,0-1.99-.31-2.69-.93-.7-.62-1.05-1.4-1.05-2.35,0-1.16.44-2.05,1.32-2.69.88-.64,2.11-.96,3.71-.96h1.85v-.87c0-.66-.2-1.19-.59-1.58-.4-.39-.98-.59-1.75-.59-.68,0-1.24.17-1.7.51-.46.34-.69.76-.69,1.24h-1.91c0-.55.2-1.09.59-1.6.39-.52.93-.92,1.6-1.23s1.41-.45,2.22-.45c1.28,0,2.28.32,3,.96.72.64,1.1,1.52,1.13,2.64v5.11c0,1.02.13,1.83.39,2.43v.16h-1.99ZM126.18,120.89c.59,0,1.16-.15,1.69-.46s.92-.71,1.16-1.2v-2.28h-1.49c-2.32,0-3.49.68-3.49,2.04,0,.59.2,1.06.59,1.39s.91.5,1.53.5Z" fill="#fff"/>
      <path d="M142.76,119.77l2.75-8.52h1.94l-3.98,11.09h-1.45l-4.02-11.09h1.94l2.82,8.52Z" fill="#fff"/>
      <path d="M155.97,122.34c-.11-.22-.2-.61-.27-1.17-.88.92-1.93,1.37-3.16,1.37-1.09,0-1.99-.31-2.69-.93-.7-.62-1.05-1.4-1.05-2.35,0-1.16.44-2.05,1.32-2.69.88-.64,2.11-.96,3.71-.96h1.85v-.87c0-.66-.2-1.19-.59-1.58-.4-.39-.98-.59-1.75-.59-.68,0-1.24.17-1.7.51-.46.34-.69.76-.69,1.24h-1.91c0-.55.2-1.09.59-1.6.39-.52.93-.92,1.6-1.23s1.41-.45,2.22-.45c1.28,0,2.28.32,3,.96.72.64,1.1,1.52,1.13,2.64v5.11c0,1.02.13,1.83.39,2.43v.16h-1.99ZM152.82,120.89c.59,0,1.16-.15,1.69-.46s.92-.71,1.16-1.2v-2.28h-1.49c-2.32,0-3.49.68-3.49,2.04,0,.59.2,1.06.59,1.39s.91.5,1.53.5Z" fill="#fff"/>
      <path d="M162.32,111.25l.05,1.23c.81-.96,1.91-1.44,3.29-1.44,1.55,0,2.61.59,3.17,1.78.37-.53.85-.96,1.44-1.29.59-.33,1.29-.49,2.1-.49,2.43,0,3.67,1.29,3.71,3.87v7.43h-1.9v-7.32c0-.79-.18-1.39-.54-1.78-.36-.39-.97-.59-1.83-.59-.7,0-1.29.21-1.75.63-.46.42-.73.99-.81,1.7v7.36h-1.91v-7.27c0-1.61-.79-2.42-2.37-2.42-1.24,0-2.1.53-2.55,1.59v8.1h-1.9v-11.09h1.79Z" fill="#fff"/>
      <path d="M178.44,116.69c0-1.09.21-2.06.64-2.93.43-.87,1.02-1.54,1.78-2.01.76-.47,1.63-.71,2.61-.71,1.51,0,2.73.52,3.67,1.57.93,1.04,1.4,2.44,1.4,4.17v.13c0,1.08-.21,2.05-.62,2.91-.41.86-1,1.53-1.77,2-.77.48-1.65.72-2.65.72-1.5,0-2.72-.52-3.66-1.57-.93-1.05-1.4-2.43-1.4-4.15v-.13ZM180.35,116.92c0,1.23.29,2.22.86,2.96s1.33,1.12,2.29,1.12,1.73-.38,2.3-1.13c.57-.75.85-1.81.85-3.17,0-1.22-.29-2.2-.87-2.96-.58-.75-1.34-1.13-2.3-1.13s-1.69.37-2.27,1.12-.86,1.81-.86,3.2Z" fill="#fff"/>
      <path d="M197.38,119.4c0-.51-.19-.91-.58-1.19-.39-.28-1.06-.53-2.02-.73s-1.72-.45-2.29-.74c-.56-.29-.98-.63-1.25-1.03-.27-.4-.41-.87-.41-1.41,0-.91.38-1.68,1.15-2.31.77-.63,1.75-.94,2.95-.94,1.26,0,2.28.33,3.06.97.78.65,1.17,1.48,1.17,2.49h-1.91c0-.52-.22-.97-.66-1.34-.44-.38-1-.56-1.67-.56s-1.23.15-1.62.45-.58.69-.58,1.18c0,.46.18.8.54,1.04s1.02.46,1.96.67c.95.21,1.71.46,2.3.76.59.29,1.02.65,1.31,1.06.28.41.43.92.43,1.51,0,.99-.4,1.79-1.19,2.38-.79.6-1.82.9-3.09.9-.89,0-1.67-.16-2.36-.47s-1.22-.75-1.6-1.32c-.39-.56-.58-1.17-.58-1.83h1.9c.03.63.29,1.14.76,1.51.48.37,1.1.56,1.88.56.72,0,1.29-.14,1.73-.44.43-.29.65-.68.65-1.16Z" fill="#fff"/>
      <path d="M32.53,146.2c.68,0,1.27-.21,1.77-.62s.79-.92.84-1.54h1.79c-.03.63-.25,1.24-.66,1.81s-.94,1.03-1.62,1.37-1.39.51-2.14.51c-1.51,0-2.71-.5-3.6-1.51-.89-1.01-1.34-2.39-1.34-4.14v-.32c0-1.08.2-2.04.59-2.88.4-.84.97-1.49,1.71-1.96s1.62-.7,2.63-.7c1.24,0,2.28.37,3.1,1.12.82.75,1.26,1.71,1.32,2.9h-1.79c-.05-.72-.33-1.31-.81-1.77-.49-.46-1.09-.69-1.81-.69-.96,0-1.71.35-2.24,1.04-.53.69-.79,1.7-.79,3.01v.36c0,1.28.26,2.26.79,2.95s1.28,1.04,2.26,1.04Z" fill="#fff"/>
      <path d="M38.57,141.89c0-1.09.21-2.06.64-2.93.43-.87,1.02-1.54,1.78-2.01.76-.47,1.63-.71,2.61-.71,1.51,0,2.73.52,3.67,1.57.93,1.04,1.4,2.44,1.4,4.17v.13c0,1.08-.21,2.05-.62,2.91-.41.86-1,1.53-1.77,2-.77.48-1.65.72-2.65.72-1.5,0-2.72-.52-3.66-1.57-.93-1.05-1.4-2.43-1.4-4.15v-.13ZM40.48,142.12c0,1.23.29,2.22.86,2.96s1.33,1.12,2.29,1.12,1.73-.38,2.3-1.13c.57-.75.85-1.81.85-3.17,0-1.22-.29-2.2-.87-2.96-.58-.75-1.34-1.13-2.3-1.13s-1.69.37-2.27,1.12-.86,1.81-.86,3.2Z" fill="#fff"/>
      <path d="M52.83,136.45l.05,1.23c.81-.96,1.91-1.44,3.29-1.44,1.55,0,2.61.59,3.17,1.78.37-.53.85-.96,1.44-1.29.59-.33,1.29-.49,2.1-.49,2.43,0,3.67,1.29,3.71,3.87v7.43h-1.9v-7.32c0-.79-.18-1.39-.54-1.78-.36-.39-.97-.59-1.83-.59-.7,0-1.29.21-1.75.63-.46.42-.73.99-.81,1.7v7.36h-1.91v-7.27c0-1.61-.79-2.42-2.37-2.42-1.24,0-2.1.53-2.55,1.59v8.1h-1.9v-11.09h1.79Z" fill="#fff"/>
      <path d="M74.06,147.75c-1.5,0-2.73-.49-3.67-1.48-.94-.99-1.42-2.31-1.42-3.96v-.35c0-1.1.21-2.08.63-2.95.42-.87,1.01-1.54,1.76-2.03.76-.49,1.57-.73,2.46-.73,1.44,0,2.56.48,3.36,1.42.8.95,1.2,2.31,1.2,4.08v.79h-7.52c.03,1.09.35,1.98.96,2.65.61.67,1.39,1.01,2.33,1.01.67,0,1.24-.14,1.7-.41.46-.27.87-.63,1.22-1.09l1.16.9c-.93,1.43-2.32,2.14-4.18,2.14ZM73.82,137.8c-.77,0-1.41.28-1.93.84-.52.56-.84,1.34-.96,2.34h5.56v-.14c-.05-.96-.31-1.71-.78-2.24-.46-.53-1.09-.79-1.89-.79Z" fill="#fff"/>
      <path d="M85.03,146.2c.68,0,1.27-.21,1.77-.62s.79-.92.84-1.54h1.79c-.03.63-.25,1.24-.66,1.81s-.94,1.03-1.62,1.37-1.39.51-2.14.51c-1.51,0-2.71-.5-3.6-1.51-.89-1.01-1.34-2.39-1.34-4.14v-.32c0-1.08.2-2.04.59-2.88.4-.84.97-1.49,1.71-1.96s1.62-.7,2.63-.7c1.24,0,2.28.37,3.1,1.12.82.75,1.26,1.71,1.32,2.9h-1.79c-.05-.72-.33-1.31-.81-1.77-.49-.46-1.09-.69-1.81-.69-.96,0-1.71.35-2.24,1.04-.53.69-.79,1.7-.79,3.01v.36c0,1.28.26,2.26.79,2.95s1.28,1.04,2.26,1.04ZM85.34,147.63l-.12.53c1.05.19,1.57.78,1.57,1.77,0,.66-.27,1.19-.82,1.57-.55.39-1.31.58-2.29.58l-.07-1.1c.54,0,.96-.09,1.26-.27.3-.18.45-.43.45-.75,0-.3-.11-.52-.33-.67-.22-.14-.66-.25-1.33-.31l.33-1.38h1.36Z" fill="#fff"/>
      <path d="M98.42,147.54c-.11-.22-.2-.61-.27-1.17-.88.92-1.93,1.37-3.16,1.37-1.09,0-1.99-.31-2.69-.93-.7-.62-1.05-1.4-1.05-2.35,0-1.16.44-2.05,1.32-2.69.88-.64,2.11-.96,3.71-.96h1.85v-.87c0-.66-.2-1.19-.59-1.58-.4-.39-.98-.59-1.75-.59-.68,0-1.24.17-1.7.51-.46.34-.69.76-.69,1.24h-1.91c0-.55.2-1.09.59-1.6.39-.52.93-.92,1.6-1.23s1.41-.45,2.22-.45c1.28,0,2.28.32,3,.96.72.64,1.1,1.52,1.13,2.64v5.11c0,1.02.13,1.83.39,2.43v.16h-1.99ZM95.27,146.09c.59,0,1.16-.15,1.69-.46s.92-.71,1.16-1.2v-2.28h-1.49c-2.32,0-3.49.68-3.49,2.04,0,.59.2,1.06.59,1.39s.91.5,1.53.5Z" fill="#fff"/>
      <path d="M108.36,138.15c-.29-.05-.6-.07-.93-.07-1.24,0-2.09.53-2.53,1.59v7.88h-1.9v-11.09h1.85l.03,1.28c.62-.99,1.5-1.49,2.65-1.49.37,0,.65.05.84.14v1.76Z" fill="#fff"/>
      <path d="M122.15,147.54c-.11-.22-.2-.61-.27-1.17-.88.92-1.93,1.37-3.16,1.37-1.09,0-1.99-.31-2.69-.93-.7-.62-1.05-1.4-1.05-2.35,0-1.16.44-2.05,1.32-2.69.88-.64,2.11-.96,3.71-.96h1.85v-.87c0-.66-.2-1.19-.59-1.58-.4-.39-.98-.59-1.75-.59-.68,0-1.24.17-1.7.51-.46.34-.69.76-.69,1.24h-1.91c0-.55.2-1.09.59-1.6.39-.52.93-.92,1.6-1.23s1.41-.45,2.22-.45c1.28,0,2.28.32,3,.96.72.64,1.1,1.52,1.13,2.64v5.11c0,1.02.13,1.83.39,2.43v.16h-1.99ZM119,146.09c.59,0,1.16-.15,1.69-.46s.92-.71,1.16-1.2v-2.28h-1.49c-2.32,0-3.49.68-3.49,2.04,0,.59.2,1.06.59,1.39s.91.5,1.53.5Z" fill="#fff"/>
      <path d="M133.71,136.45l.06,1.39c.85-1.07,1.96-1.6,3.32-1.6,2.34,0,3.53,1.32,3.55,3.97v7.33h-1.9v-7.34c0-.8-.19-1.39-.55-1.77-.36-.38-.92-.57-1.68-.57-.62,0-1.16.16-1.62.49s-.83.76-1.09,1.29v7.91h-1.9v-11.09h1.79Z" fill="#fff"/>
      <path d="M143,141.89c0-1.09.21-2.06.64-2.93.43-.87,1.02-1.54,1.78-2.01.76-.47,1.63-.71,2.61-.71,1.51,0,2.73.52,3.67,1.57.93,1.04,1.4,2.44,1.4,4.17v.13c0,1.08-.21,2.05-.62,2.91-.41.86-1,1.53-1.77,2-.77.48-1.65.72-2.65.72-1.5,0-2.72-.52-3.66-1.57-.93-1.05-1.4-2.43-1.4-4.15v-.13ZM144.91,142.12c0,1.23.29,2.22.86,2.96s1.33,1.12,2.29,1.12,1.73-.38,2.3-1.13c.57-.75.85-1.81.85-3.17,0-1.22-.29-2.2-.87-2.96-.58-.75-1.34-1.13-2.3-1.13s-1.69.37-2.27,1.12-.86,1.81-.86,3.2Z" fill="#fff"/>
      <path d="M161.94,144.6c0-.51-.19-.91-.58-1.19-.39-.28-1.06-.53-2.02-.73s-1.72-.45-2.29-.74c-.56-.29-.98-.63-1.25-1.03-.27-.4-.41-.87-.41-1.41,0-.91.38-1.68,1.15-2.31.77-.63,1.75-.94,2.95-.94,1.26,0,2.28.33,3.06.97.78.65,1.17,1.48,1.17,2.49h-1.91c0-.52-.22-.97-.66-1.34-.44-.38-1-.56-1.67-.56s-1.23.15-1.62.45-.58.69-.58,1.18c0,.46.18.8.54,1.04s1.02.46,1.96.67c.95.21,1.71.46,2.3.76.59.29,1.02.65,1.31,1.06.28.41.43.92.43,1.51,0,.99-.4,1.79-1.19,2.38-.79.6-1.82.9-3.09.9-.89,0-1.67-.16-2.36-.47s-1.22-.75-1.6-1.32c-.39-.56-.58-1.17-.58-1.83h1.9c.03.63.29,1.14.76,1.51.48.37,1.1.56,1.88.56.72,0,1.29-.14,1.73-.44.43-.29.65-.68.65-1.16Z" fill="#fff"/>
      <path d="M172.77,144.6c0-.51-.19-.91-.58-1.19-.39-.28-1.06-.53-2.02-.73s-1.72-.45-2.29-.74c-.56-.29-.98-.63-1.25-1.03-.27-.4-.41-.87-.41-1.41,0-.91.38-1.68,1.15-2.31.77-.63,1.75-.94,2.95-.94,1.26,0,2.28.33,3.06.97.78.65,1.17,1.48,1.17,2.49h-1.91c0-.52-.22-.97-.66-1.34-.44-.38-1-.56-1.67-.56s-1.23.15-1.62.45-.58.69-.58,1.18c0,.46.18.8.54,1.04s1.02.46,1.96.67c.95.21,1.71.46,2.3.76.59.29,1.02.65,1.31,1.06.28.41.43.92.43,1.51,0,.99-.4,1.79-1.19,2.38-.79.6-1.82.9-3.09.9-.89,0-1.67-.16-2.36-.47s-1.22-.75-1.6-1.32c-.39-.56-.58-1.17-.58-1.83h1.9c.03.63.29,1.14.76,1.51.48.37,1.1.56,1.88.56.72,0,1.29-.14,1.73-.44.43-.29.65-.68.65-1.16Z" fill="#fff"/>
      <path d="M183.99,147.54c-.11-.22-.2-.61-.27-1.17-.88.92-1.93,1.37-3.16,1.37-1.09,0-1.99-.31-2.69-.93-.7-.62-1.05-1.4-1.05-2.35,0-1.16.44-2.05,1.32-2.69.88-.64,2.11-.96,3.71-.96h1.85v-.87c0-.66-.2-1.19-.59-1.58-.4-.39-.98-.59-1.75-.59-.68,0-1.24.17-1.7.51-.46.34-.69.76-.69,1.24h-1.91c0-.55.2-1.09.59-1.6.39-.52.93-.92,1.6-1.23s1.41-.45,2.22-.45c1.28,0,2.28.32,3,.96.72.64,1.1,1.52,1.13,2.64v5.11c0,1.02.13,1.83.39,2.43v.16h-1.99ZM180.84,146.09c.59,0,1.16-.15,1.69-.46s.92-.71,1.16-1.2v-2.28h-1.49c-2.32,0-3.49.68-3.49,2.04,0,.59.2,1.06.59,1.39s.91.5,1.53.5Z" fill="#fff"/>
      <path d="M30.04,161.65v12.38c0,2.13-.97,3.2-2.9,3.2-.42,0-.8-.06-1.16-.18v-1.51c.22.05.51.08.86.08.42,0,.75-.11.97-.34.22-.23.33-.63.33-1.2v-12.43h1.9ZM27.95,158.7c0-.3.09-.56.28-.77.19-.22.46-.32.83-.32s.65.11.84.32.29.47.29.78-.1.56-.29.77-.47.31-.84.31-.65-.1-.83-.31-.28-.46-.28-.77Z" fill="#fff"/>
      <path d="M32.59,167.09c0-1.09.21-2.06.64-2.93.43-.87,1.02-1.54,1.78-2.01.76-.47,1.63-.71,2.61-.71,1.51,0,2.73.52,3.67,1.57.93,1.04,1.4,2.44,1.4,4.17v.13c0,1.08-.21,2.05-.62,2.91-.41.86-1,1.53-1.77,2-.77.48-1.65.72-2.65.72-1.5,0-2.72-.52-3.66-1.57-.93-1.05-1.4-2.43-1.4-4.15v-.13ZM34.5,167.32c0,1.23.29,2.22.86,2.96s1.33,1.12,2.29,1.12,1.73-.38,2.3-1.13c.57-.75.85-1.81.85-3.17,0-1.22-.29-2.2-.87-2.96-.58-.75-1.34-1.13-2.3-1.13s-1.69.37-2.27,1.12-.86,1.81-.86,3.2Z" fill="#fff"/>
      <path d="M50.43,163.35c-.29-.05-.6-.07-.93-.07-1.24,0-2.09.53-2.53,1.59v7.88h-1.9v-11.09h1.85l.03,1.28c.62-.99,1.5-1.49,2.65-1.49.37,0,.65.05.84.14v1.76Z" fill="#fff"/>
      <path d="M53.97,161.65l.06,1.39c.85-1.07,1.96-1.6,3.32-1.6,2.34,0,3.53,1.32,3.55,3.97v7.33h-1.9v-7.34c0-.8-.19-1.39-.55-1.77-.36-.38-.92-.57-1.68-.57-.62,0-1.16.16-1.62.49s-.83.76-1.09,1.29v7.91h-1.9v-11.09h1.79Z" fill="#fff"/>
      <path d="M70.61,172.74c-.11-.22-.2-.61-.27-1.17-.88.92-1.93,1.37-3.16,1.37-1.09,0-1.99-.31-2.69-.93-.7-.62-1.05-1.4-1.05-2.35,0-1.16.44-2.05,1.32-2.69.88-.64,2.11-.96,3.71-.96h1.85v-.87c0-.66-.2-1.19-.59-1.58-.4-.39-.98-.59-1.75-.59-.68,0-1.24.17-1.7.51-.46.34-.69.76-.69,1.24h-1.91c0-.55.2-1.09.59-1.6.39-.52.93-.92,1.6-1.23s1.41-.45,2.22-.45c1.28,0,2.28.32,3,.96.72.64,1.1,1.52,1.13,2.64v5.11c0,1.02.13,1.83.39,2.43v.16h-1.99ZM67.46,171.29c.59,0,1.16-.15,1.69-.46s.92-.71,1.16-1.2v-2.28h-1.49c-2.32,0-3.49.68-3.49,2.04,0,.59.2,1.06.59,1.39s.91.5,1.53.5Z" fill="#fff"/>
      <path d="M74.72,167.1c0-1.7.4-3.07,1.21-4.11.81-1.04,1.86-1.55,3.17-1.55s2.33.44,3.09,1.33v-5.78h1.9v15.75h-1.74l-.09-1.19c-.76.93-1.81,1.39-3.17,1.39s-2.33-.53-3.14-1.58c-.81-1.05-1.22-2.43-1.22-4.12v-.14ZM76.62,167.32c0,1.26.26,2.24.78,2.95s1.24,1.07,2.15,1.07c1.2,0,2.08-.54,2.64-1.62v-5.1c-.57-1.05-1.44-1.57-2.61-1.57-.93,0-1.65.36-2.17,1.08s-.78,1.78-.78,3.19Z" fill="#fff"/>
      <path d="M93.88,172.74c-.11-.22-.2-.61-.27-1.17-.88.92-1.93,1.37-3.16,1.37-1.09,0-1.99-.31-2.69-.93-.7-.62-1.05-1.4-1.05-2.35,0-1.16.44-2.05,1.32-2.69.88-.64,2.11-.96,3.71-.96h1.85v-.87c0-.66-.2-1.19-.59-1.58-.4-.39-.98-.59-1.75-.59-.68,0-1.24.17-1.7.51-.46.34-.69.76-.69,1.24h-1.91c0-.55.2-1.09.59-1.6.39-.52.93-.92,1.6-1.23s1.41-.45,2.22-.45c1.28,0,2.28.32,3,.96.72.64,1.1,1.52,1.13,2.64v5.11c0,1.02.13,1.83.39,2.43v.16h-1.99ZM90.73,171.29c.59,0,1.16-.15,1.69-.46s.92-.71,1.16-1.2v-2.28h-1.49c-2.32,0-3.49.68-3.49,2.04,0,.59.2,1.06.59,1.39s.91.5,1.53.5Z" fill="#fff"/>
      <path d="M108.25,172.95c-1.5,0-2.73-.49-3.67-1.48-.94-.99-1.42-2.31-1.42-3.96v-.35c0-1.1.21-2.08.63-2.95.42-.87,1.01-1.54,1.76-2.03.76-.49,1.57-.73,2.46-.73,1.44,0,2.56.48,3.36,1.42.8.95,1.2,2.31,1.2,4.08v.79h-7.52c.03,1.09.35,1.98.96,2.65.61.67,1.39,1.01,2.33,1.01.67,0,1.24-.14,1.7-.41.46-.27.87-.63,1.22-1.09l1.16.9c-.93,1.43-2.32,2.14-4.18,2.14ZM108.02,163c-.77,0-1.41.28-1.93.84-.52.56-.84,1.34-.96,2.34h5.56v-.14c-.05-.96-.31-1.71-.78-2.24-.46-.53-1.09-.79-1.89-.79Z" fill="#fff"/>
      <path d="M119.51,167.1c0-1.7.4-3.07,1.21-4.11.81-1.04,1.86-1.55,3.17-1.55s2.33.44,3.09,1.33v-5.78h1.9v15.75h-1.74l-.09-1.19c-.76.93-1.81,1.39-3.17,1.39s-2.33-.53-3.14-1.58c-.81-1.05-1.22-2.43-1.22-4.12v-.14ZM121.41,167.32c0,1.26.26,2.24.78,2.95s1.24,1.07,2.15,1.07c1.2,0,2.08-.54,2.64-1.62v-5.1c-.57-1.05-1.44-1.57-2.61-1.57-.93,0-1.65.36-2.17,1.08s-.78,1.78-.78,3.19Z" fill="#fff"/>
      <path d="M136.42,172.95c-1.5,0-2.73-.49-3.67-1.48-.94-.99-1.42-2.31-1.42-3.96v-.35c0-1.1.21-2.08.63-2.95.42-.87,1.01-1.54,1.76-2.03.76-.49,1.57-.73,2.46-.73,1.44,0,2.56.48,3.36,1.42.8.95,1.2,2.31,1.2,4.08v.79h-7.52c.03,1.09.35,1.98.96,2.65.61.67,1.39,1.01,2.33,1.01.67,0,1.24-.14,1.7-.41.46-.27.87-.63,1.22-1.09l1.16.9c-.93,1.43-2.32,2.14-4.18,2.14ZM136.19,163c-.77,0-1.41.28-1.93.84-.52.56-.84,1.34-.96,2.34h5.56v-.14c-.05-.96-.31-1.71-.78-2.24-.46-.53-1.09-.79-1.89-.79Z" fill="#fff"/>
      <path d="M149.4,169.8c0-.51-.19-.91-.58-1.19-.39-.28-1.06-.53-2.02-.73s-1.72-.45-2.29-.74c-.56-.29-.98-.63-1.25-1.03-.27-.4-.41-.87-.41-1.41,0-.91.38-1.68,1.15-2.31.77-.63,1.75-.94,2.95-.94,1.26,0,2.28.33,3.06.97.78.65,1.17,1.48,1.17,2.49h-1.91c0-.52-.22-.97-.66-1.34-.44-.38-1-.56-1.67-.56s-1.23.15-1.62.45-.58.69-.58,1.18c0,.46.18.8.54,1.04s1.02.46,1.96.67c.95.21,1.71.46,2.3.76.59.29,1.02.65,1.31,1.06.28.41.43.92.43,1.51,0,.99-.4,1.79-1.19,2.38-.79.6-1.82.9-3.09.9-.89,0-1.67-.16-2.36-.47s-1.22-.75-1.6-1.32c-.39-.56-.58-1.17-.58-1.83h1.9c.03.63.29,1.14.76,1.51.48.37,1.1.56,1.88.56.72,0,1.29-.14,1.73-.44.43-.29.65-.68.65-1.16Z" fill="#fff"/>
      <path d="M158.22,171.4c.68,0,1.27-.21,1.77-.62s.79-.92.84-1.54h1.79c-.03.63-.25,1.24-.66,1.81s-.94,1.03-1.62,1.37-1.39.51-2.14.51c-1.51,0-2.71-.5-3.6-1.51-.89-1.01-1.34-2.39-1.34-4.14v-.32c0-1.08.2-2.04.59-2.88.4-.84.97-1.49,1.71-1.96s1.62-.7,2.63-.7c1.24,0,2.28.37,3.1,1.12.82.75,1.26,1.71,1.32,2.9h-1.79c-.05-.72-.33-1.31-.81-1.77-.49-.46-1.09-.69-1.81-.69-.96,0-1.71.35-2.24,1.04-.53.69-.79,1.7-.79,3.01v.36c0,1.28.26,2.26.79,2.95s1.28,1.04,2.26,1.04Z" fill="#fff"/>
      <path d="M164.26,167.09c0-1.09.21-2.06.64-2.93.43-.87,1.02-1.54,1.78-2.01.76-.47,1.63-.71,2.61-.71,1.51,0,2.73.52,3.67,1.57.93,1.04,1.4,2.44,1.4,4.17v.13c0,1.08-.21,2.05-.62,2.91-.41.86-1,1.53-1.77,2-.77.48-1.65.72-2.65.72-1.5,0-2.72-.52-3.66-1.57-.93-1.05-1.4-2.43-1.4-4.15v-.13ZM166.17,167.32c0,1.23.29,2.22.86,2.96s1.33,1.12,2.29,1.12,1.73-.38,2.3-1.13c.57-.75.85-1.81.85-3.17,0-1.22-.29-2.2-.87-2.96-.58-.75-1.34-1.13-2.3-1.13s-1.69.37-2.27,1.12-.86,1.81-.86,3.2Z" fill="#fff"/>
      <path d="M186.13,167.32c0,1.7-.39,3.06-1.17,4.09-.78,1.03-1.83,1.54-3.14,1.54-1.4,0-2.48-.5-3.25-1.49l-.09,1.28h-1.74v-15.75h1.9v5.88c.77-.95,1.82-1.42,3.17-1.42s2.4.51,3.17,1.53c.77,1.02,1.15,2.41,1.15,4.18v.16ZM184.24,167.1c0-1.29-.25-2.29-.75-2.99s-1.22-1.06-2.15-1.06c-1.25,0-2.15.58-2.7,1.74v4.8c.58,1.16,1.49,1.74,2.72,1.74.91,0,1.62-.35,2.12-1.06s.76-1.76.76-3.18Z" fill="#fff"/>
      <path d="M193.88,163.35c-.29-.05-.6-.07-.93-.07-1.24,0-2.09.53-2.53,1.59v7.88h-1.9v-11.09h1.85l.03,1.28c.62-.99,1.5-1.49,2.65-1.49.37,0,.65.05.84.14v1.76Z" fill="#fff"/>
      <path d="M195.64,158.7c0-.31.09-.57.28-.78s.47-.32.84-.32.65.11.84.32.29.47.29.78-.1.56-.29.77-.47.31-.84.31-.65-.1-.84-.31-.28-.46-.28-.77ZM197.69,172.74h-1.9v-11.09h1.9v11.09Z" fill="#fff"/>
      <path d="M206.09,163.35c-.29-.05-.6-.07-.93-.07-1.24,0-2.09.53-2.53,1.59v7.88h-1.9v-11.09h1.85l.03,1.28c.62-.99,1.5-1.49,2.65-1.49.37,0,.65.05.84.14v1.76Z" fill="#fff"/>
      <path d="M30.04,186.85v12.38c0,2.13-.97,3.2-2.9,3.2-.42,0-.8-.06-1.16-.18v-1.51c.22.05.51.08.86.08.42,0,.75-.11.97-.34.22-.23.33-.63.33-1.2v-12.43h1.9ZM27.95,183.9c0-.3.09-.56.28-.77.19-.22.46-.32.83-.32s.65.11.84.32.29.47.29.78-.1.56-.29.77-.47.31-.84.31-.65-.1-.83-.31-.28-.46-.28-.77Z" fill="#fff"/>
      <path d="M39.94,196.84c-.74.87-1.82,1.3-3.25,1.3-1.18,0-2.08-.34-2.7-1.03-.62-.69-.93-1.7-.94-3.05v-7.22h1.9v7.17c0,1.68.68,2.52,2.05,2.52,1.45,0,2.41-.54,2.89-1.62v-8.07h1.9v11.09h-1.8l-.04-1.1Z" fill="#fff"/>
      <path d="M46.46,186.85l.06,1.39c.85-1.07,1.96-1.6,3.32-1.6,2.34,0,3.53,1.32,3.55,3.97v7.33h-1.9v-7.34c0-.8-.19-1.39-.55-1.77-.36-.38-.92-.57-1.68-.57-.62,0-1.16.16-1.62.49s-.83.76-1.09,1.29v7.91h-1.9v-11.09h1.79Z" fill="#fff"/>
      <path d="M58.83,184.16v2.69h2.07v1.47h-2.07v6.89c0,.44.09.78.28,1s.5.33.94.33c.22,0,.52-.04.9-.12v1.53c-.5.14-.98.2-1.46.2-.85,0-1.49-.26-1.92-.77-.43-.51-.65-1.24-.65-2.18v-6.88h-2.02v-1.47h2.02v-2.69h1.9Z" fill="#fff"/>
      <path d="M62.41,192.29c0-1.09.21-2.06.64-2.93.43-.87,1.02-1.54,1.78-2.01.76-.47,1.63-.71,2.61-.71,1.51,0,2.73.52,3.67,1.57.93,1.04,1.4,2.44,1.4,4.17v.13c0,1.08-.21,2.05-.62,2.91-.41.86-1,1.53-1.77,2-.77.48-1.65.72-2.65.72-1.5,0-2.72-.52-3.66-1.57-.93-1.05-1.4-2.43-1.4-4.15v-.13ZM64.32,192.52c0,1.23.29,2.22.86,2.96s1.33,1.12,2.29,1.12,1.73-.38,2.3-1.13c.57-.75.85-1.81.85-3.17,0-1.22-.29-2.2-.87-2.96-.58-.75-1.34-1.13-2.3-1.13s-1.69.37-2.27,1.12-.86,1.81-.86,3.2Z" fill="#fff"/>
      <path d="M81.35,195c0-.51-.19-.91-.58-1.19-.39-.28-1.06-.53-2.02-.73s-1.72-.45-2.29-.74c-.56-.29-.98-.63-1.25-1.03-.27-.4-.41-.87-.41-1.41,0-.91.38-1.68,1.15-2.31.77-.63,1.75-.94,2.95-.94,1.26,0,2.28.33,3.06.97.78.65,1.17,1.48,1.17,2.49h-1.91c0-.52-.22-.97-.66-1.34-.44-.38-1-.56-1.67-.56s-1.23.15-1.62.45-.58.69-.58,1.18c0,.46.18.8.54,1.04s1.02.46,1.96.67c.95.21,1.71.46,2.3.76.59.29,1.02.65,1.31,1.06.28.41.43.92.43,1.51,0,.99-.4,1.79-1.19,2.38-.79.6-1.82.9-3.09.9-.89,0-1.67-.16-2.36-.47s-1.22-.75-1.6-1.32c-.39-.56-.58-1.17-.58-1.83h1.9c.03.63.29,1.14.76,1.51.48.37,1.1.56,1.88.56.72,0,1.29-.14,1.73-.44.43-.29.65-.68.65-1.16Z" fill="#fff"/>
      <path d="M95.36,196.6c.68,0,1.27-.21,1.77-.62s.79-.92.84-1.54h1.79c-.03.63-.25,1.24-.66,1.81s-.94,1.03-1.62,1.37-1.39.51-2.14.51c-1.51,0-2.71-.5-3.6-1.51-.89-1.01-1.34-2.39-1.34-4.14v-.32c0-1.08.2-2.04.59-2.88.4-.84.97-1.49,1.71-1.96s1.62-.7,2.63-.7c1.24,0,2.28.37,3.1,1.12.82.75,1.26,1.71,1.32,2.9h-1.79c-.05-.72-.33-1.31-.81-1.77-.49-.46-1.09-.69-1.81-.69-.96,0-1.71.35-2.24,1.04-.53.69-.79,1.7-.79,3.01v.36c0,1.28.26,2.26.79,2.95s1.28,1.04,2.26,1.04Z" fill="#fff"/>
      <path d="M101.4,192.29c0-1.09.21-2.06.64-2.93.43-.87,1.02-1.54,1.78-2.01.76-.47,1.63-.71,2.61-.71,1.51,0,2.73.52,3.67,1.57.93,1.04,1.4,2.44,1.4,4.17v.13c0,1.08-.21,2.05-.62,2.91-.41.86-1,1.53-1.77,2-.77.48-1.65.72-2.65.72-1.5,0-2.72-.52-3.66-1.57-.93-1.05-1.4-2.43-1.4-4.15v-.13ZM103.31,192.52c0,1.23.29,2.22.86,2.96s1.33,1.12,2.29,1.12,1.73-.38,2.3-1.13c.57-.75.85-1.81.85-3.17,0-1.22-.29-2.2-.87-2.96-.58-.75-1.34-1.13-2.3-1.13s-1.69.37-2.27,1.12-.86,1.81-.86,3.2Z" fill="#fff"/>
      <path d="M115.67,186.85l.05,1.23c.81-.96,1.91-1.44,3.29-1.44,1.55,0,2.61.59,3.17,1.78.37-.53.85-.96,1.44-1.29.59-.33,1.29-.49,2.1-.49,2.43,0,3.67,1.29,3.71,3.87v7.43h-1.9v-7.32c0-.79-.18-1.39-.54-1.78-.36-.39-.97-.59-1.83-.59-.7,0-1.29.21-1.75.63-.46.42-.73.99-.81,1.7v7.36h-1.91v-7.27c0-1.61-.79-2.42-2.37-2.42-1.24,0-2.1.53-2.55,1.59v8.1h-1.9v-11.09h1.79Z" fill="#fff"/>
      <path d="M131.79,192.29c0-1.09.21-2.06.64-2.93.43-.87,1.02-1.54,1.78-2.01.76-.47,1.63-.71,2.61-.71,1.51,0,2.73.52,3.67,1.57.93,1.04,1.4,2.44,1.4,4.17v.13c0,1.08-.21,2.05-.62,2.91-.41.86-1,1.53-1.77,2-.77.48-1.65.72-2.65.72-1.5,0-2.72-.52-3.66-1.57-.93-1.05-1.4-2.43-1.4-4.15v-.13ZM133.69,192.52c0,1.23.29,2.22.86,2.96s1.33,1.12,2.29,1.12,1.73-.38,2.3-1.13c.57-.75.85-1.81.85-3.17,0-1.22-.29-2.2-.87-2.96-.58-.75-1.34-1.13-2.3-1.13s-1.69.37-2.27,1.12-.86,1.81-.86,3.2Z" fill="#fff"/>
      <path d="M156.31,197.94c-.11-.22-.2-.61-.27-1.17-.88.92-1.93,1.37-3.16,1.37-1.09,0-1.99-.31-2.69-.93-.7-.62-1.05-1.4-1.05-2.35,0-1.16.44-2.05,1.32-2.69.88-.64,2.11-.96,3.71-.96h1.85v-.87c0-.66-.2-1.19-.59-1.58-.4-.39-.98-.59-1.75-.59-.68,0-1.24.17-1.7.51-.46.34-.69.76-.69,1.24h-1.91c0-.55.2-1.09.59-1.6.39-.52.93-.92,1.6-1.23s1.41-.45,2.22-.45c1.28,0,2.28.32,3,.96.72.64,1.1,1.52,1.13,2.64v5.11c0,1.02.13,1.83.39,2.43v.16h-1.99ZM153.17,196.5c.59,0,1.16-.15,1.69-.46s.92-.71,1.16-1.2v-2.28h-1.49c-2.32,0-3.49.68-3.49,2.04,0,.59.2,1.06.59,1.39s.91.5,1.53.5Z" fill="#fff"/>
      <path d="M160.44,192.3c0-1.73.4-3.11,1.2-4.13.8-1.02,1.86-1.53,3.18-1.53s2.41.48,3.17,1.44l.09-1.23h1.73v10.83c0,1.44-.43,2.57-1.28,3.39-.85.83-1.99,1.24-3.43,1.24-.8,0-1.58-.17-2.35-.51s-1.35-.81-1.75-1.4l.98-1.14c.81,1,1.81,1.51,2.98,1.51.92,0,1.64-.26,2.16-.78.52-.52.77-1.25.77-2.2v-.95c-.76.88-1.79,1.31-3.11,1.31s-2.35-.52-3.15-1.57c-.8-1.05-1.21-2.47-1.21-4.28ZM162.34,192.52c0,1.25.26,2.23.77,2.95.51.71,1.23,1.07,2.15,1.07,1.2,0,2.07-.54,2.64-1.63v-5.07c-.58-1.06-1.45-1.59-2.61-1.59-.92,0-1.64.36-2.16,1.08s-.78,1.78-.78,3.19Z" fill="#fff"/>
      <path d="M172.68,183.9c0-.31.09-.57.28-.78s.47-.32.84-.32.65.11.84.32.29.47.29.78-.1.56-.29.77-.47.31-.84.31-.65-.1-.84-.31-.28-.46-.28-.77ZM174.73,197.94h-1.9v-11.09h1.9v11.09Z" fill="#fff"/>
      <path d="M183.13,188.55c-.29-.05-.6-.07-.93-.07-1.24,0-2.09.53-2.53,1.59v7.88h-1.9v-11.09h1.85l.03,1.28c.62-.99,1.5-1.49,2.65-1.49.37,0,.65.05.84.14v1.76Z" fill="#fff"/>
      <path d="M194.52,196.6c.68,0,1.27-.21,1.77-.62s.79-.92.84-1.54h1.79c-.03.63-.25,1.24-.66,1.81s-.94,1.03-1.62,1.37-1.39.51-2.14.51c-1.51,0-2.71-.5-3.6-1.51-.89-1.01-1.34-2.39-1.34-4.14v-.32c0-1.08.2-2.04.59-2.88.4-.84.97-1.49,1.71-1.96s1.62-.7,2.63-.7c1.24,0,2.28.37,3.1,1.12.82.75,1.26,1.71,1.32,2.9h-1.79c-.05-.72-.33-1.31-.81-1.77-.49-.46-1.09-.69-1.81-.69-.96,0-1.71.35-2.24,1.04-.53.69-.79,1.7-.79,3.01v.36c0,1.28.26,2.26.79,2.95s1.28,1.04,2.26,1.04Z" fill="#fff"/>
      <path d="M200.56,192.29c0-1.09.21-2.06.64-2.93.43-.87,1.02-1.54,1.78-2.01.76-.47,1.63-.71,2.61-.71,1.51,0,2.73.52,3.67,1.57.93,1.04,1.4,2.44,1.4,4.17v.13c0,1.08-.21,2.05-.62,2.91-.41.86-1,1.53-1.77,2-.77.48-1.65.72-2.65.72-1.5,0-2.72-.52-3.66-1.57-.93-1.05-1.4-2.43-1.4-4.15v-.13ZM202.47,192.52c0,1.23.29,2.22.86,2.96s1.33,1.12,2.29,1.12,1.73-.38,2.3-1.13c.57-.75.85-1.81.85-3.17,0-1.22-.29-2.2-.87-2.96-.58-.75-1.34-1.13-2.3-1.13s-1.69.37-2.27,1.12-.86,1.81-.86,3.2Z" fill="#fff"/>
      <path d="M214.82,186.85l.05,1.23c.81-.96,1.91-1.44,3.29-1.44,1.55,0,2.61.59,3.17,1.78.37-.53.85-.96,1.44-1.29.59-.33,1.29-.49,2.1-.49,2.43,0,3.67,1.29,3.71,3.87v7.43h-1.9v-7.32c0-.79-.18-1.39-.54-1.78-.36-.39-.97-.59-1.83-.59-.7,0-1.29.21-1.75.63-.46.42-.73.99-.81,1.7v7.36h-1.91v-7.27c0-1.61-.79-2.42-2.37-2.42-1.24,0-2.1.53-2.55,1.59v8.1h-1.9v-11.09h1.79Z" fill="#fff"/>
      <path d="M29.86,212.05l.05,1.23c.81-.96,1.91-1.44,3.29-1.44,1.55,0,2.61.59,3.17,1.78.37-.53.85-.96,1.44-1.29.59-.33,1.29-.49,2.1-.49,2.43,0,3.67,1.29,3.71,3.87v7.43h-1.9v-7.32c0-.79-.18-1.39-.54-1.78-.36-.39-.97-.59-1.83-.59-.7,0-1.29.21-1.75.63-.46.42-.73.99-.81,1.7v7.36h-1.91v-7.27c0-1.61-.79-2.42-2.37-2.42-1.24,0-2.1.53-2.55,1.59v8.1h-1.9v-11.09h1.79Z" fill="#fff"/>
      <path d="M53.33,223.14c-.11-.22-.2-.61-.27-1.17-.88.92-1.93,1.37-3.16,1.37-1.09,0-1.99-.31-2.69-.93-.7-.62-1.05-1.4-1.05-2.35,0-1.16.44-2.05,1.32-2.69.88-.64,2.11-.96,3.71-.96h1.85v-.87c0-.66-.2-1.19-.59-1.58-.4-.39-.98-.59-1.75-.59-.68,0-1.24.17-1.7.51-.46.34-.69.76-.69,1.24h-1.91c0-.55.2-1.09.59-1.6.39-.52.93-.92,1.6-1.23s1.41-.45,2.22-.45c1.28,0,2.28.32,3,.96.72.64,1.1,1.52,1.13,2.64v5.11c0,1.02.13,1.83.39,2.43v.16h-1.99ZM50.19,221.7c.59,0,1.16-.15,1.69-.46s.92-.71,1.16-1.2v-2.28h-1.49c-2.32,0-3.49.68-3.49,2.04,0,.59.2,1.06.59,1.39s.91.5,1.53.5Z" fill="#fff"/>
      <path d="M57.92,209.1c0-.31.09-.57.28-.78s.47-.32.84-.32.65.11.84.32.29.47.29.78-.1.56-.29.77-.47.31-.84.31-.65-.1-.84-.31-.28-.46-.28-.77ZM59.97,223.14h-1.9v-11.09h1.9v11.09Z" fill="#fff"/>
      <path d="M69.46,220.2c0-.51-.19-.91-.58-1.19-.39-.28-1.06-.53-2.02-.73s-1.72-.45-2.29-.74c-.56-.29-.98-.63-1.25-1.03-.27-.4-.41-.87-.41-1.41,0-.91.38-1.68,1.15-2.31.77-.63,1.75-.94,2.95-.94,1.26,0,2.28.33,3.06.97.78.65,1.17,1.48,1.17,2.49h-1.91c0-.52-.22-.97-.66-1.34-.44-.38-1-.56-1.67-.56s-1.23.15-1.62.45-.58.69-.58,1.18c0,.46.18.8.54,1.04s1.02.46,1.96.67c.95.21,1.71.46,2.3.76.59.29,1.02.65,1.31,1.06.28.41.43.92.43,1.51,0,.99-.4,1.79-1.19,2.38-.79.6-1.82.9-3.09.9-.89,0-1.67-.16-2.36-.47s-1.22-.75-1.6-1.32c-.39-.56-.58-1.17-.58-1.83h1.9c.03.63.29,1.14.76,1.51.48.37,1.1.56,1.88.56.72,0,1.29-.14,1.73-.44.43-.29.65-.68.65-1.16Z" fill="#fff"/>
      <path d="M85.49,220.2c0-.51-.19-.91-.58-1.19-.39-.28-1.06-.53-2.02-.73s-1.72-.45-2.29-.74c-.56-.29-.98-.63-1.25-1.03-.27-.4-.41-.87-.41-1.41,0-.91.38-1.68,1.15-2.31.77-.63,1.75-.94,2.95-.94,1.26,0,2.28.33,3.06.97.78.65,1.17,1.48,1.17,2.49h-1.91c0-.52-.22-.97-.66-1.34-.44-.38-1-.56-1.67-.56s-1.23.15-1.62.45-.58.69-.58,1.18c0,.46.18.8.54,1.04s1.02.46,1.96.67c.95.21,1.71.46,2.3.76.59.29,1.02.65,1.31,1.06.28.41.43.92.43,1.51,0,.99-.4,1.79-1.19,2.38-.79.6-1.82.9-3.09.9-.89,0-1.67-.16-2.36-.47s-1.22-.75-1.6-1.32c-.39-.56-.58-1.17-.58-1.83h1.9c.03.63.29,1.14.76,1.51.48.37,1.1.56,1.88.56.72,0,1.29-.14,1.73-.44.43-.29.65-.68.65-1.16Z" fill="#fff"/>
      <path d="M94.46,223.35c-1.5,0-2.73-.49-3.67-1.48-.94-.99-1.42-2.31-1.42-3.96v-.35c0-1.1.21-2.08.63-2.95.42-.87,1.01-1.54,1.76-2.03.76-.49,1.57-.73,2.46-.73,1.44,0,2.56.48,3.36,1.42.8.95,1.2,2.31,1.2,4.08v.79h-7.52c.03,1.09.35,1.98.96,2.65.61.67,1.39,1.01,2.33,1.01.67,0,1.24-.14,1.7-.41.46-.27.87-.63,1.22-1.09l1.16.9c-.93,1.43-2.32,2.14-4.18,2.14ZM94.23,213.4c-.77,0-1.41.28-1.93.84-.52.56-.84,1.34-.96,2.34h5.56v-.14c-.05-.96-.31-1.71-.78-2.24-.46-.53-1.09-.79-1.89-.79Z" fill="#fff"/>
      <path d="M100.53,217.5c0-1.73.4-3.11,1.2-4.13.8-1.02,1.86-1.53,3.18-1.53s2.41.48,3.17,1.44l.09-1.23h1.73v10.83c0,1.44-.43,2.57-1.28,3.39-.85.83-1.99,1.24-3.43,1.24-.8,0-1.58-.17-2.35-.51s-1.35-.81-1.75-1.4l.98-1.14c.81,1,1.81,1.51,2.98,1.51.92,0,1.64-.26,2.16-.78.52-.52.77-1.25.77-2.2v-.95c-.76.88-1.79,1.31-3.11,1.31s-2.35-.52-3.15-1.57c-.8-1.05-1.21-2.47-1.21-4.28ZM102.44,217.72c0,1.25.26,2.23.77,2.95.51.71,1.23,1.07,2.15,1.07,1.2,0,2.07-.54,2.64-1.63v-5.07c-.58-1.06-1.45-1.59-2.61-1.59-.92,0-1.64.36-2.16,1.08s-.78,1.78-.78,3.19Z" fill="#fff"/>
      <path d="M119.62,222.04c-.74.87-1.82,1.3-3.25,1.3-1.18,0-2.08-.34-2.7-1.03-.62-.69-.93-1.7-.94-3.05v-7.22h1.9v7.17c0,1.68.68,2.52,2.05,2.52,1.45,0,2.41-.54,2.89-1.62v-8.07h1.9v11.09h-1.8l-.04-1.1Z" fill="#fff"/>
      <path d="M129.71,213.75c-.29-.05-.6-.07-.93-.07-1.24,0-2.09.53-2.53,1.59v7.88h-1.9v-11.09h1.85l.03,1.28c.62-.99,1.5-1.49,2.65-1.49.37,0,.65.05.84.14v1.76Z" fill="#fff"/>
      <path d="M137.89,223.14c-.11-.22-.2-.61-.27-1.17-.88.92-1.93,1.37-3.16,1.37-1.09,0-1.99-.31-2.69-.93-.7-.62-1.05-1.4-1.05-2.35,0-1.16.44-2.05,1.32-2.69.88-.64,2.11-.96,3.71-.96h1.85v-.87c0-.66-.2-1.19-.59-1.58-.4-.39-.98-.59-1.75-.59-.68,0-1.24.17-1.7.51-.46.34-.69.76-.69,1.24h-1.91c0-.55.2-1.09.59-1.6.39-.52.93-.92,1.6-1.23s1.41-.45,2.22-.45c1.28,0,2.28.32,3,.96.72.64,1.1,1.52,1.13,2.64v5.11c0,1.02.13,1.83.39,2.43v.16h-1.99ZM134.74,221.7c.59,0,1.16-.15,1.69-.46s.92-.71,1.16-1.2v-2.28h-1.49c-2.32,0-3.49.68-3.49,2.04,0,.59.2,1.06.59,1.39s.91.5,1.53.5Z" fill="#fff"/>
      <path d="M144.26,212.05l.06,1.39c.85-1.07,1.96-1.6,3.32-1.6,2.34,0,3.53,1.32,3.55,3.97v7.33h-1.9v-7.34c0-.8-.19-1.39-.55-1.77-.36-.38-.92-.57-1.68-.57-.62,0-1.16.16-1.62.49s-.83.76-1.09,1.29v7.91h-1.9v-11.09h1.79Z" fill="#fff"/>
      <path d="M158.5,221.8c.68,0,1.27-.21,1.77-.62s.79-.92.84-1.54h1.79c-.03.63-.25,1.24-.66,1.81s-.94,1.03-1.62,1.37-1.39.51-2.14.51c-1.51,0-2.71-.5-3.6-1.51-.89-1.01-1.34-2.39-1.34-4.14v-.32c0-1.08.2-2.04.59-2.88.4-.84.97-1.49,1.71-1.96s1.62-.7,2.63-.7c1.24,0,2.28.37,3.1,1.12.82.75,1.26,1.71,1.32,2.9h-1.79c-.05-.72-.33-1.31-.81-1.77-.49-.46-1.09-.69-1.81-.69-.96,0-1.71.35-2.24,1.04-.53.69-.79,1.7-.79,3.01v.36c0,1.28.26,2.26.79,2.95s1.28,1.04,2.26,1.04ZM158.81,223.23l-.12.53c1.05.19,1.57.78,1.57,1.77,0,.66-.27,1.19-.82,1.57-.55.39-1.31.58-2.29.58l-.07-1.1c.54,0,.96-.09,1.26-.27.3-.18.45-.43.45-.75,0-.3-.11-.52-.33-.67-.22-.14-.66-.25-1.33-.31l.33-1.38h1.36Z" fill="#fff"/>
      <path d="M171.89,223.14c-.11-.22-.2-.61-.27-1.17-.88.92-1.93,1.37-3.16,1.37-1.09,0-1.99-.31-2.69-.93-.7-.62-1.05-1.4-1.05-2.35,0-1.16.44-2.05,1.32-2.69.88-.64,2.11-.96,3.71-.96h1.85v-.87c0-.66-.2-1.19-.59-1.58-.4-.39-.98-.59-1.75-.59-.68,0-1.24.17-1.7.51-.46.34-.69.76-.69,1.24h-1.91c0-.55.2-1.09.59-1.6.39-.52.93-.92,1.6-1.23s1.41-.45,2.22-.45c1.28,0,2.28.32,3,.96.72.64,1.1,1.52,1.13,2.64v5.11c0,1.02.13,1.83.39,2.43v.16h-1.99ZM168.74,221.7c.59,0,1.16-.15,1.69-.46s.92-.71,1.16-1.2v-2.28h-1.49c-2.32,0-3.49.68-3.49,2.04,0,.59.2,1.06.59,1.39s.91.5,1.53.5Z" fill="#fff"/>
      <path d="M183.46,212.05l.06,1.39c.85-1.07,1.96-1.6,3.32-1.6,2.34,0,3.53,1.32,3.55,3.97v7.33h-1.9v-7.34c0-.8-.19-1.39-.55-1.77-.36-.38-.92-.57-1.68-.57-.62,0-1.16.16-1.62.49s-.83.76-1.09,1.29v7.91h-1.9v-11.09h1.79Z" fill="#fff"/>
      <path d="M192.75,217.49c0-1.09.21-2.06.64-2.93.43-.87,1.02-1.54,1.78-2.01.76-.47,1.63-.71,2.61-.71,1.51,0,2.73.52,3.67,1.57.93,1.04,1.4,2.44,1.4,4.17v.13c0,1.08-.21,2.05-.62,2.91-.41.86-1,1.53-1.77,2-.77.48-1.65.72-2.65.72-1.5,0-2.72-.52-3.66-1.57-.93-1.05-1.4-2.43-1.4-4.15v-.13ZM194.65,217.72c0,1.23.29,2.22.86,2.96s1.33,1.12,2.29,1.12,1.73-.38,2.3-1.13c.57-.75.85-1.81.85-3.17,0-1.22-.29-2.2-.87-2.96-.58-.75-1.34-1.13-2.3-1.13s-1.69.37-2.27,1.12-.86,1.81-.86,3.2Z" fill="#fff"/>
      <path d="M30.65,234.56v2.69h2.07v1.47h-2.07v6.89c0,.44.09.78.28,1s.5.33.94.33c.22,0,.52-.04.9-.12v1.53c-.5.14-.98.2-1.46.2-.85,0-1.49-.26-1.92-.77-.43-.51-.65-1.24-.65-2.18v-6.88h-2.02v-1.47h2.02v-2.69h1.9Z" fill="#fff"/>
      <path d="M40.3,238.95c-.29-.05-.6-.07-.93-.07-1.24,0-2.09.53-2.53,1.59v7.88h-1.9v-11.09h1.85l.03,1.28c.62-.99,1.5-1.49,2.65-1.49.37,0,.65.05.84.14v1.76Z" fill="#fff"/>
      <path d="M48.48,248.34c-.11-.22-.2-.61-.27-1.17-.88.92-1.93,1.37-3.16,1.37-1.09,0-1.99-.31-2.69-.93-.7-.62-1.05-1.4-1.05-2.35,0-1.16.44-2.05,1.32-2.69.88-.64,2.11-.96,3.71-.96h1.85v-.87c0-.66-.2-1.19-.59-1.58-.4-.39-.98-.59-1.75-.59-.68,0-1.24.17-1.7.51-.46.34-.69.76-.69,1.24h-1.91c0-.55.2-1.09.59-1.6.39-.52.93-.92,1.6-1.23s1.41-.45,2.22-.45c1.28,0,2.28.32,3,.96.72.64,1.1,1.52,1.13,2.64v5.11c0,1.02.13,1.83.39,2.43v.16h-1.99ZM49.26,235.39v.1h-1.57s-1.54-1.74-1.54-1.74l-1.53,1.74h-1.57v-.13l2.52-2.78h1.15l2.53,2.8ZM45.34,246.89c.59,0,1.16-.15,1.69-.46s.92-.71,1.16-1.2v-2.28h-1.49c-2.32,0-3.49.68-3.49,2.04,0,.59.2,1.06.59,1.39s.91.5,1.53.5Z" fill="#fff"/>
      <path d="M54.85,237.25l.06,1.39c.85-1.07,1.96-1.6,3.32-1.6,2.34,0,3.53,1.32,3.55,3.97v7.33h-1.9v-7.34c0-.8-.19-1.39-.55-1.77-.36-.38-.92-.57-1.68-.57-.62,0-1.16.16-1.62.49s-.83.76-1.09,1.29v7.91h-1.9v-11.09h1.79Z" fill="#fff"/>
      <path d="M71.1,245.4c0-.51-.19-.91-.58-1.19-.39-.28-1.06-.53-2.02-.73s-1.72-.45-2.29-.74c-.56-.29-.98-.63-1.25-1.03-.27-.4-.41-.87-.41-1.41,0-.91.38-1.68,1.15-2.31.77-.63,1.75-.94,2.95-.94,1.26,0,2.28.33,3.06.97.78.65,1.17,1.48,1.17,2.49h-1.91c0-.52-.22-.97-.66-1.34-.44-.38-1-.56-1.67-.56s-1.23.15-1.62.45-.58.69-.58,1.18c0,.46.18.8.54,1.04s1.02.46,1.96.67c.95.21,1.71.46,2.3.76.59.29,1.02.65,1.31,1.06.28.41.43.92.43,1.51,0,.99-.4,1.79-1.19,2.38-.79.6-1.82.9-3.09.9-.89,0-1.67-.16-2.36-.47s-1.22-.75-1.6-1.32c-.39-.56-.58-1.17-.58-1.83h1.9c.03.63.29,1.14.76,1.51.48.37,1.1.56,1.88.56.72,0,1.29-.14,1.73-.44.43-.29.65-.68.65-1.16Z" fill="#fff"/>
      <path d="M75.48,234.3c0-.31.09-.57.28-.78s.47-.32.84-.32.65.11.84.32.29.47.29.78-.1.56-.29.77-.47.31-.84.31-.65-.1-.84-.31-.28-.46-.28-.77ZM77.53,248.34h-1.9v-11.09h1.9v11.09Z" fill="#fff"/>
      <path d="M83.14,234.56v2.69h2.07v1.47h-2.07v6.89c0,.44.09.78.28,1s.5.33.94.33c.22,0,.52-.04.9-.12v1.53c-.5.14-.98.2-1.46.2-.85,0-1.49-.26-1.92-.77-.43-.51-.65-1.24-.65-2.18v-6.88h-2.02v-1.47h2.02v-2.69h1.9Z" fill="#fff"/>
      <path d="M86.72,242.69c0-1.09.21-2.06.64-2.93.43-.87,1.02-1.54,1.78-2.01.76-.47,1.63-.71,2.61-.71,1.51,0,2.73.52,3.67,1.57.93,1.04,1.4,2.44,1.4,4.17v.13c0,1.08-.21,2.05-.62,2.91-.41.86-1,1.53-1.77,2-.77.48-1.65.72-2.65.72-1.5,0-2.72-.52-3.66-1.57-.93-1.05-1.4-2.43-1.4-4.15v-.13ZM88.63,242.92c0,1.23.29,2.22.86,2.96s1.33,1.12,2.29,1.12,1.73-.38,2.3-1.13c.57-.75.85-1.81.85-3.17,0-1.22-.29-2.2-.87-2.96-.58-.75-1.34-1.13-2.3-1.13s-1.69.37-2.27,1.12-.86,1.81-.86,3.2Z" fill="#fff"/>
      <path d="M99.24,247.35c0-.33.1-.6.29-.82.2-.22.49-.33.88-.33s.69.11.89.33.3.49.3.82-.1.58-.3.79-.5.32-.89.32-.68-.11-.88-.32c-.19-.21-.29-.47-.29-.79Z" fill="#fff"/>
    </g>
  </g>
</svg>