<?xml version="1.0" encoding="UTF-8"?>
<svg id="Layer_2" data-name="Layer 2" xmlns="http://www.w3.org/2000/svg" viewBox="0 0 260.06 184.91">
  <g id="Layer_1-2" data-name="Layer 1">
    <g>
      <rect x=".5" y=".5" width="259.06" height="183.91" rx="15.07" ry="15.07" fill="#1a2a3d"/>
      <path d="M244.49,184.91H15.57c-8.59,0-15.57-6.98-15.57-15.57V15.57C0,6.98,6.98,0,15.57,0h228.92c8.58,0,15.57,6.98,15.57,15.57v153.77c0,8.58-6.98,15.57-15.57,15.57ZM15.57,1C7.54,1,1,7.54,1,15.57v153.77c0,8.03,6.54,14.57,14.57,14.57h228.92c8.03,0,14.57-6.54,14.57-14.57V15.57c0-8.03-6.54-14.57-14.57-14.57H15.57Z" fill="#7dabe2"/>
    </g>
    <g>
      <path d="M30.34,55.55v5.84h-1.97v-14.93h5.51c1.63,0,2.91.42,3.84,1.25s1.39,1.94,1.39,3.31c0,1.45-.45,2.57-1.36,3.35-.91.78-2.2,1.17-3.89,1.17h-3.52ZM30.34,53.94h3.54c1.05,0,1.86-.25,2.42-.74s.84-1.21.84-2.15c0-.89-.28-1.6-.84-2.14s-1.33-.81-2.31-.83h-3.65v5.87Z" fill="#fff"/>
      <path d="M48.06,61.4c-.11-.22-.2-.61-.27-1.17-.88.92-1.93,1.37-3.16,1.37-1.09,0-1.99-.31-2.69-.93-.7-.62-1.05-1.4-1.05-2.35,0-1.16.44-2.05,1.32-2.69.88-.64,2.11-.96,3.71-.96h1.85v-.87c0-.66-.2-1.19-.59-1.58-.4-.39-.98-.59-1.75-.59-.68,0-1.24.17-1.7.51-.46.34-.69.76-.69,1.24h-1.91c0-.55.2-1.09.59-1.6.39-.52.93-.92,1.6-1.23s1.41-.45,2.22-.45c1.28,0,2.28.32,3,.96.72.64,1.1,1.52,1.13,2.64v5.11c0,1.02.13,1.83.39,2.43v.16h-1.99ZM44.92,59.95c.59,0,1.16-.15,1.69-.46s.92-.71,1.16-1.2v-2.28h-1.49c-2.32,0-3.49.68-3.49,2.04,0,.59.2,1.06.59,1.39s.91.5,1.53.5Z" fill="#fff"/>
      <path d="M58,52.01c-.29-.05-.6-.07-.93-.07-1.24,0-2.09.53-2.53,1.59v7.88h-1.9v-11.09h1.85l.03,1.28c.62-.99,1.5-1.49,2.65-1.49.37,0,.65.05.84.14v1.76Z" fill="#fff"/>
      <path d="M66.18,61.4c-.11-.22-.2-.61-.27-1.17-.88.92-1.93,1.37-3.16,1.37-1.09,0-1.99-.31-2.69-.93-.7-.62-1.05-1.4-1.05-2.35,0-1.16.44-2.05,1.32-2.69.88-.64,2.11-.96,3.71-.96h1.85v-.87c0-.66-.2-1.19-.59-1.58-.4-.39-.98-.59-1.75-.59-.68,0-1.24.17-1.7.51-.46.34-.69.76-.69,1.24h-1.91c0-.55.2-1.09.59-1.6.39-.52.93-.92,1.6-1.23s1.41-.45,2.22-.45c1.28,0,2.28.32,3,.96.72.64,1.1,1.52,1.13,2.64v5.11c0,1.02.13,1.83.39,2.43v.16h-1.99ZM63.03,59.95c.59,0,1.16-.15,1.69-.46s.92-.71,1.16-1.2v-2.28h-1.49c-2.32,0-3.49.68-3.49,2.04,0,.59.2,1.06.59,1.39s.91.5,1.53.5Z" fill="#fff"/>
      <path d="M80.15,55.98c0,1.7-.39,3.06-1.17,4.09-.78,1.03-1.83,1.54-3.14,1.54-1.4,0-2.48-.5-3.25-1.49l-.09,1.28h-1.74v-15.75h1.9v5.88c.77-.95,1.82-1.42,3.17-1.42s2.4.51,3.17,1.53c.77,1.02,1.15,2.41,1.15,4.18v.16ZM78.25,55.76c0-1.29-.25-2.29-.75-2.99s-1.22-1.06-2.15-1.06c-1.25,0-2.15.58-2.7,1.74v4.8c.58,1.16,1.49,1.74,2.72,1.74.91,0,1.62-.35,2.12-1.06s.76-1.76.76-3.18Z" fill="#fff"/>
      <path d="M87.14,61.6c-1.5,0-2.73-.49-3.67-1.48-.94-.99-1.42-2.31-1.42-3.96v-.35c0-1.1.21-2.08.63-2.95.42-.87,1.01-1.54,1.76-2.03.76-.49,1.57-.73,2.46-.73,1.44,0,2.56.48,3.36,1.42.8.95,1.2,2.31,1.2,4.08v.79h-7.52c.03,1.09.35,1.98.96,2.65.61.67,1.39,1.01,2.33,1.01.67,0,1.24-.14,1.7-.41.46-.27.87-.63,1.22-1.09l1.16.9c-.93,1.43-2.32,2.14-4.18,2.14ZM86.91,51.66c-.77,0-1.41.28-1.93.84-.52.56-.84,1.34-.96,2.34h5.56v-.14c-.05-.96-.31-1.71-.78-2.24-.46-.53-1.09-.79-1.89-.79Z" fill="#fff"/>
      <path d="M95.46,50.3l.06,1.39c.85-1.07,1.96-1.6,3.32-1.6,2.34,0,3.53,1.32,3.55,3.97v7.33h-1.9v-7.34c0-.8-.19-1.39-.55-1.77-.36-.38-.92-.57-1.68-.57-.62,0-1.16.16-1.62.49s-.83.76-1.09,1.29v7.91h-1.9v-11.09h1.79Z" fill="#fff"/>
      <path d="M111.71,58.46c0-.51-.19-.91-.58-1.19-.39-.28-1.06-.53-2.02-.73s-1.72-.45-2.29-.74c-.56-.29-.98-.63-1.25-1.03-.27-.4-.41-.87-.41-1.41,0-.91.38-1.68,1.15-2.31.77-.63,1.75-.94,2.95-.94,1.26,0,2.28.33,3.06.97.78.65,1.17,1.48,1.17,2.49h-1.91c0-.52-.22-.97-.66-1.34-.44-.38-1-.56-1.67-.56s-1.23.15-1.62.45-.58.69-.58,1.18c0,.46.18.8.54,1.04s1.02.46,1.96.67c.95.21,1.71.46,2.3.76.59.29,1.02.65,1.31,1.06.28.41.43.92.43,1.51,0,.99-.4,1.79-1.19,2.38-.79.6-1.82.9-3.09.9-.89,0-1.67-.16-2.36-.47s-1.22-.75-1.6-1.32c-.39-.56-.58-1.17-.58-1.83h1.9c.03.63.29,1.14.76,1.51.48.37,1.1.56,1.88.56.72,0,1.29-.14,1.73-.44.43-.29.65-.68.65-1.16Z" fill="#fff"/>
      <path d="M116.28,60.44c0-.31.09-.57.28-.78.19-.21.47-.32.84-.32s.65.1.84.32c.19.21.29.47.29.78s-.1.57-.29.77c-.19.2-.47.31-.84.31s-.65-.1-.84-.31c-.19-.2-.28-.46-.28-.77ZM118.2,57.17h-1.71l-.13-10.7h1.99l-.14,10.7Z" fill="#fff"/>
      <path d="M131.92,58.78l4.27-12.31h2.15l-5.54,14.93h-1.74l-5.53-14.93h2.14l4.25,12.31Z" fill="#fff"/>
      <path d="M139.07,55.75c0-1.09.21-2.06.64-2.93.43-.87,1.02-1.54,1.78-2.01.76-.47,1.63-.71,2.61-.71,1.51,0,2.73.52,3.67,1.57.93,1.04,1.4,2.44,1.4,4.17v.13c0,1.08-.21,2.05-.62,2.91-.41.86-1,1.53-1.77,2-.77.48-1.65.72-2.65.72-1.5,0-2.72-.52-3.66-1.57-.93-1.05-1.4-2.43-1.4-4.15v-.13ZM140.97,55.98c0,1.23.29,2.22.86,2.96s1.33,1.12,2.29,1.12,1.73-.38,2.3-1.13c.57-.75.85-1.81.85-3.17,0-1.22-.29-2.2-.87-2.96-.58-.75-1.34-1.13-2.3-1.13s-1.69.37-2.27,1.12-.86,1.81-.86,3.2Z" fill="#fff"/>
      <path d="M156,60.06c.68,0,1.27-.21,1.77-.62s.79-.92.84-1.54h1.79c-.03.63-.25,1.24-.66,1.81s-.94,1.03-1.62,1.37-1.39.51-2.14.51c-1.51,0-2.71-.5-3.6-1.51-.89-1.01-1.34-2.39-1.34-4.14v-.32c0-1.08.2-2.04.59-2.88.4-.84.97-1.49,1.71-1.96s1.62-.7,2.63-.7c1.24,0,2.28.37,3.1,1.12.82.75,1.26,1.71,1.32,2.9h-1.79c-.05-.72-.33-1.31-.81-1.77-.49-.46-1.09-.69-1.81-.69-.96,0-1.71.35-2.24,1.04-.53.69-.79,1.7-.79,3.01v.36c0,1.28.26,2.26.79,2.95s1.28,1.04,2.26,1.04Z" fill="#fff"/>
      <path d="M167.14,61.6c-1.5,0-2.73-.49-3.67-1.48-.94-.99-1.42-2.31-1.42-3.96v-.35c0-1.1.21-2.08.63-2.95.42-.87,1.01-1.54,1.76-2.03.76-.49,1.57-.73,2.46-.73,1.44,0,2.56.48,3.36,1.42.8.95,1.2,2.31,1.2,4.08v.79h-7.52c.03,1.09.35,1.98.96,2.65.61.67,1.39,1.01,2.33,1.01.67,0,1.24-.14,1.7-.41.46-.27.87-.63,1.22-1.09l1.16.9c-.93,1.43-2.32,2.14-4.18,2.14ZM170,48.45v.1h-1.57s-1.54-1.74-1.54-1.74l-1.53,1.74h-1.57v-.13l2.52-2.78h1.15l2.53,2.8ZM166.91,51.66c-.77,0-1.41.28-1.93.84-.52.56-.84,1.34-.96,2.34h5.56v-.14c-.05-.96-.31-1.71-.78-2.24-.46-.53-1.09-.79-1.89-.79Z" fill="#fff"/>
      <path d="M27.62,80.96c0-1.7.4-3.07,1.21-4.11.81-1.04,1.86-1.55,3.17-1.55s2.33.44,3.09,1.33v-5.78h1.9v15.75h-1.74l-.09-1.19c-.76.93-1.81,1.39-3.17,1.39s-2.33-.53-3.14-1.58c-.81-1.05-1.22-2.43-1.22-4.12v-.14ZM29.51,81.18c0,1.26.26,2.24.78,2.95s1.24,1.07,2.15,1.07c1.2,0,2.08-.54,2.64-1.62v-5.1c-.57-1.05-1.44-1.57-2.61-1.57-.93,0-1.65.36-2.17,1.08s-.78,1.78-.78,3.19Z" fill="#fff"/>
      <path d="M44.53,86.8c-1.5,0-2.73-.49-3.67-1.48-.94-.99-1.42-2.31-1.42-3.96v-.35c0-1.1.21-2.08.63-2.95.42-.87,1.01-1.54,1.76-2.03.76-.49,1.57-.73,2.46-.73,1.44,0,2.56.48,3.36,1.42.8.95,1.2,2.31,1.2,4.08v.79h-7.52c.03,1.09.35,1.98.96,2.65.61.67,1.39,1.01,2.33,1.01.67,0,1.24-.14,1.7-.41.46-.27.87-.63,1.22-1.09l1.16.9c-.93,1.43-2.32,2.14-4.18,2.14ZM44.29,76.86c-.77,0-1.41.28-1.93.84-.52.56-.84,1.34-.96,2.34h5.56v-.14c-.05-.96-.31-1.71-.78-2.24-.46-.53-1.09-.79-1.89-.79Z" fill="#fff"/>
      <path d="M57.51,83.66c0-.51-.19-.91-.58-1.19-.39-.28-1.06-.53-2.02-.73s-1.72-.45-2.29-.74c-.56-.29-.98-.63-1.25-1.03-.27-.4-.41-.87-.41-1.41,0-.91.38-1.68,1.15-2.31.77-.63,1.75-.94,2.95-.94,1.26,0,2.28.33,3.06.97.78.65,1.17,1.48,1.17,2.49h-1.91c0-.52-.22-.97-.66-1.34-.44-.38-1-.56-1.67-.56s-1.23.15-1.62.45-.58.69-.58,1.18c0,.46.18.8.54,1.04s1.02.46,1.96.67c.95.21,1.71.46,2.3.76.59.29,1.02.65,1.31,1.06.28.41.43.92.43,1.51,0,.99-.4,1.79-1.19,2.38-.79.6-1.82.9-3.09.9-.89,0-1.67-.16-2.36-.47s-1.22-.75-1.6-1.32c-.39-.56-.58-1.17-.58-1.83h1.9c.03.63.29,1.14.76,1.51.48.37,1.1.56,1.88.56.72,0,1.29-.14,1.73-.44.43-.29.65-.68.65-1.16Z" fill="#fff"/>
      <path d="M71.27,81.18c0,1.7-.39,3.06-1.17,4.09-.78,1.03-1.83,1.54-3.14,1.54-1.4,0-2.48-.5-3.25-1.49l-.09,1.28h-1.74v-15.75h1.9v5.88c.77-.95,1.82-1.42,3.17-1.42s2.4.51,3.17,1.53c.77,1.02,1.15,2.41,1.15,4.18v.16ZM69.37,80.96c0-1.29-.25-2.29-.75-2.99s-1.22-1.06-2.15-1.06c-1.25,0-2.15.58-2.7,1.74v4.8c.58,1.16,1.49,1.74,2.72,1.74.91,0,1.62-.35,2.12-1.06s.76-1.76.76-3.18Z" fill="#fff"/>
      <path d="M75.72,86.6h-1.9v-15.75h1.9v15.75Z" fill="#fff"/>
      <path d="M78.25,80.95c0-1.09.21-2.06.64-2.93.43-.87,1.02-1.54,1.78-2.01.76-.47,1.63-.71,2.61-.71,1.51,0,2.73.52,3.67,1.57.93,1.04,1.4,2.44,1.4,4.17v.13c0,1.08-.21,2.05-.62,2.91-.41.86-1,1.53-1.77,2-.77.48-1.65.72-2.65.72-1.5,0-2.72-.52-3.66-1.57-.93-1.05-1.4-2.43-1.4-4.15v-.13ZM80.16,81.18c0,1.23.29,2.22.86,2.96s1.33,1.12,2.29,1.12,1.73-.38,2.3-1.13c.57-.75.85-1.81.85-3.17,0-1.22-.29-2.2-.87-2.96-.58-.75-1.34-1.13-2.3-1.13s-1.69.37-2.27,1.12-.86,1.81-.86,3.2Z" fill="#fff"/>
      <path d="M90.27,80.96c0-1.74.4-3.12,1.2-4.14.8-1.01,1.87-1.52,3.22-1.52s2.35.44,3.11,1.32l.08-1.12h1.74v15.36h-1.9v-5.29c-.77.82-1.78,1.23-3.06,1.23-1.34,0-2.41-.52-3.2-1.56-.8-1.04-1.19-2.42-1.19-4.15v-.13ZM92.17,81.18c0,1.27.27,2.27.8,2.99s1.26,1.09,2.17,1.09c1.13,0,1.99-.5,2.58-1.5v-5.44c-.6-.98-1.46-1.47-2.56-1.47-.92,0-1.64.36-2.18,1.09-.54.73-.81,1.8-.81,3.23Z" fill="#fff"/>
      <path d="M109.52,85.5c-.74.87-1.82,1.3-3.25,1.3-1.18,0-2.08-.34-2.7-1.03-.62-.69-.93-1.7-.94-3.05v-7.22h1.9v7.17c0,1.68.68,2.52,2.05,2.52,1.45,0,2.41-.54,2.89-1.62v-8.07h1.9v11.09h-1.8l-.04-1.1Z" fill="#fff"/>
      <path d="M118.85,86.8c-1.5,0-2.73-.49-3.67-1.48-.94-.99-1.42-2.31-1.42-3.96v-.35c0-1.1.21-2.08.63-2.95.42-.87,1.01-1.54,1.76-2.03.76-.49,1.57-.73,2.46-.73,1.44,0,2.56.48,3.36,1.42.8.95,1.2,2.31,1.2,4.08v.79h-7.52c.03,1.09.35,1.98.96,2.65.61.67,1.39,1.01,2.33,1.01.67,0,1.24-.14,1.7-.41.46-.27.87-.63,1.22-1.09l1.16.9c-.93,1.43-2.32,2.14-4.18,2.14ZM118.61,76.86c-.77,0-1.41.28-1.93.84-.52.56-.84,1.34-.96,2.34h5.56v-.14c-.05-.96-.31-1.71-.78-2.24-.46-.53-1.09-.79-1.89-.79Z" fill="#fff"/>
      <path d="M124.87,80.95c0-1.09.21-2.06.64-2.93.43-.87,1.02-1.54,1.78-2.01.76-.47,1.63-.71,2.61-.71,1.51,0,2.73.52,3.67,1.57.93,1.04,1.4,2.44,1.4,4.17v.13c0,1.08-.21,2.05-.62,2.91-.41.86-1,1.53-1.77,2-.77.48-1.65.72-2.65.72-1.5,0-2.72-.52-3.66-1.57-.93-1.05-1.4-2.43-1.4-4.15v-.13ZM126.77,81.18c0,1.23.29,2.22.86,2.96s1.33,1.12,2.29,1.12,1.73-.38,2.3-1.13c.57-.75.85-1.81.85-3.17,0-1.22-.29-2.2-.87-2.96-.58-.75-1.34-1.13-2.3-1.13s-1.69.37-2.27,1.12-.86,1.81-.86,3.2Z" fill="#fff"/>
      <path d="M144.19,85.5c-.74.87-1.82,1.3-3.25,1.3-1.18,0-2.08-.34-2.7-1.03-.62-.69-.93-1.7-.94-3.05v-7.22h1.9v7.17c0,1.68.68,2.52,2.05,2.52,1.45,0,2.41-.54,2.89-1.62v-8.07h1.9v11.09h-1.8l-.04-1.1Z" fill="#fff"/>
      <path d="M160.97,86.6c-.11-.22-.2-.61-.27-1.17-.88.92-1.93,1.37-3.16,1.37-1.09,0-1.99-.31-2.69-.93-.7-.62-1.05-1.4-1.05-2.35,0-1.16.44-2.05,1.32-2.69.88-.64,2.11-.96,3.71-.96h1.85v-.87c0-.66-.2-1.19-.59-1.58-.4-.39-.98-.59-1.75-.59-.68,0-1.24.17-1.7.51-.46.34-.69.76-.69,1.24h-1.91c0-.55.2-1.09.59-1.6.39-.52.93-.92,1.6-1.23s1.41-.45,2.22-.45c1.28,0,2.28.32,3,.96.72.64,1.1,1.52,1.13,2.64v5.11c0,1.02.13,1.83.39,2.43v.16h-1.99ZM157.82,85.15c.59,0,1.16-.15,1.69-.46s.92-.71,1.16-1.2v-2.28h-1.49c-2.32,0-3.49.68-3.49,2.04,0,.59.2,1.06.59,1.39s.91.5,1.53.5Z" fill="#fff"/>
      <path d="M177.2,83.66c0-.51-.19-.91-.58-1.19-.39-.28-1.06-.53-2.02-.73s-1.72-.45-2.29-.74c-.56-.29-.98-.63-1.25-1.03-.27-.4-.41-.87-.41-1.41,0-.91.38-1.68,1.15-2.31.77-.63,1.75-.94,2.95-.94,1.26,0,2.28.33,3.06.97.78.65,1.17,1.48,1.17,2.49h-1.91c0-.52-.22-.97-.66-1.34-.44-.38-1-.56-1.67-.56s-1.23.15-1.62.45-.58.69-.58,1.18c0,.46.18.8.54,1.04s1.02.46,1.96.67c.95.21,1.71.46,2.3.76.59.29,1.02.65,1.31,1.06.28.41.43.92.43,1.51,0,.99-.4,1.79-1.19,2.38-.79.6-1.82.9-3.09.9-.89,0-1.67-.16-2.36-.47s-1.22-.75-1.6-1.32c-.39-.56-.58-1.17-.58-1.83h1.9c.03.63.29,1.14.76,1.51.48.37,1.1.56,1.88.56.72,0,1.29-.14,1.73-.44.43-.29.65-.68.65-1.16Z" fill="#fff"/>
      <path d="M188.42,85.5c-.74.87-1.82,1.3-3.25,1.3-1.18,0-2.08-.34-2.7-1.03-.62-.69-.93-1.7-.94-3.05v-7.22h1.9v7.17c0,1.68.68,2.52,2.05,2.52,1.45,0,2.41-.54,2.89-1.62v-8.07h1.9v11.09h-1.8l-.04-1.1Z" fill="#fff"/>
      <path d="M200,86.6c-.11-.22-.2-.61-.27-1.17-.88.92-1.93,1.37-3.16,1.37-1.09,0-1.99-.31-2.69-.93-.7-.62-1.05-1.4-1.05-2.35,0-1.16.44-2.05,1.32-2.69.88-.64,2.11-.96,3.71-.96h1.85v-.87c0-.66-.2-1.19-.59-1.58-.4-.39-.98-.59-1.75-.59-.68,0-1.24.17-1.7.51-.46.34-.69.76-.69,1.24h-1.91c0-.55.2-1.09.59-1.6.39-.52.93-.92,1.6-1.23s1.41-.45,2.22-.45c1.28,0,2.28.32,3,.96.72.64,1.1,1.52,1.13,2.64v5.11c0,1.02.13,1.83.39,2.43v.16h-1.99ZM196.85,85.15c.59,0,1.16-.15,1.69-.46s.92-.71,1.16-1.2v-2.28h-1.49c-2.32,0-3.49.68-3.49,2.04,0,.59.2,1.06.59,1.39s.91.5,1.53.5Z" fill="#fff"/>
      <path d="M37.45,106.38c0,1.69-.39,3.05-1.16,4.08-.77,1.03-1.82,1.55-3.14,1.55s-2.41-.43-3.18-1.28v5.34h-1.9v-15.36h1.73l.09,1.23c.77-.96,1.85-1.44,3.22-1.44s2.39.5,3.16,1.51c.78,1.01,1.16,2.4,1.16,4.19v.17ZM35.55,106.16c0-1.25-.27-2.24-.8-2.96-.53-.72-1.26-1.09-2.19-1.09-1.15,0-2.01.51-2.58,1.53v5.3c.57,1.01,1.44,1.52,2.6,1.52.91,0,1.63-.36,2.17-1.08.54-.72.81-1.79.81-3.21Z" fill="#fff"/>
      <path d="M45.22,102.41c-.29-.05-.6-.07-.93-.07-1.24,0-2.09.53-2.53,1.59v7.88h-1.9v-11.09h1.85l.03,1.28c.62-.99,1.5-1.49,2.65-1.49.37,0,.65.05.84.14v1.76Z" fill="#fff"/>
      <path d="M46.26,106.15c0-1.09.21-2.06.64-2.93.43-.87,1.02-1.54,1.78-2.01.76-.47,1.63-.71,2.61-.71,1.51,0,2.73.52,3.67,1.57.93,1.04,1.4,2.44,1.4,4.17v.13c0,1.08-.21,2.05-.62,2.91-.41.86-1,1.53-1.77,2-.77.48-1.65.72-2.65.72-1.5,0-2.72-.52-3.66-1.57-.93-1.05-1.4-2.43-1.4-4.15v-.13ZM48.17,106.38c0,1.23.29,2.22.86,2.96s1.33,1.12,2.29,1.12,1.73-.38,2.3-1.13c.57-.75.85-1.81.85-3.17,0-1.22-.29-2.2-.87-2.96-.58-.75-1.34-1.13-2.3-1.13s-1.69.37-2.27,1.12-.86,1.81-.86,3.2ZM52.15,96.05h2.3l-2.75,3.01h-1.53s1.98-3.01,1.98-3.01Z" fill="#fff"/>
      <path d="M62.24,104.75l2.46-4.05h2.21l-3.63,5.49,3.74,5.61h-2.19l-2.56-4.15-2.56,4.15h-2.2l3.74-5.61-3.63-5.49h2.19l2.43,4.05Z" fill="#fff"/>
      <path d="M68.94,97.76c0-.31.09-.57.28-.78s.47-.32.84-.32.65.11.84.32.29.47.29.78-.1.56-.29.77-.47.31-.84.31-.65-.1-.84-.31-.28-.46-.28-.77ZM70.99,111.8h-1.9v-11.09h1.9v11.09Z" fill="#fff"/>
      <path d="M75.81,100.71l.05,1.23c.81-.96,1.91-1.44,3.29-1.44,1.55,0,2.61.59,3.17,1.78.37-.53.85-.96,1.44-1.29.59-.33,1.29-.49,2.1-.49,2.43,0,3.67,1.29,3.71,3.87v7.43h-1.9v-7.32c0-.79-.18-1.39-.54-1.78-.36-.39-.97-.59-1.83-.59-.7,0-1.29.21-1.75.63-.46.42-.73.99-.81,1.7v7.36h-1.91v-7.27c0-1.61-.79-2.42-2.37-2.42-1.24,0-2.1.53-2.55,1.59v8.1h-1.9v-11.09h1.79Z" fill="#fff"/>
      <path d="M99.28,111.8c-.11-.22-.2-.61-.27-1.17-.88.92-1.93,1.37-3.16,1.37-1.09,0-1.99-.31-2.69-.93-.7-.62-1.05-1.4-1.05-2.35,0-1.16.44-2.05,1.32-2.69.88-.64,2.11-.96,3.71-.96h1.85v-.87c0-.66-.2-1.19-.59-1.58-.4-.39-.98-.59-1.75-.59-.68,0-1.24.17-1.7.51-.46.34-.69.76-.69,1.24h-1.91c0-.55.2-1.09.59-1.6.39-.52.93-.92,1.6-1.23s1.41-.45,2.22-.45c1.28,0,2.28.32,3,.96.72.64,1.1,1.52,1.13,2.64v5.11c0,1.02.13,1.83.39,2.43v.16h-1.99ZM96.13,110.35c.59,0,1.16-.15,1.69-.46s.92-.71,1.16-1.2v-2.28h-1.49c-2.32,0-3.49.68-3.49,2.04,0,.59.2,1.06.59,1.39s.91.5,1.53.5Z" fill="#fff"/>
      <path d="M110.84,100.71l.05,1.23c.81-.96,1.91-1.44,3.29-1.44,1.55,0,2.61.59,3.17,1.78.37-.53.85-.96,1.44-1.29.59-.33,1.29-.49,2.1-.49,2.43,0,3.67,1.29,3.71,3.87v7.43h-1.9v-7.32c0-.79-.18-1.39-.54-1.78-.36-.39-.97-.59-1.83-.59-.7,0-1.29.21-1.75.63-.46.42-.73.99-.81,1.7v7.36h-1.91v-7.27c0-1.61-.79-2.42-2.37-2.42-1.24,0-2.1.53-2.55,1.59v8.1h-1.9v-11.09h1.79Z" fill="#fff"/>
      <path d="M127.47,97.76c0-.31.09-.57.28-.78s.47-.32.84-.32.65.11.84.32.29.47.29.78-.1.56-.29.77-.47.31-.84.31-.65-.1-.84-.31-.28-.46-.28-.77ZM129.52,111.8h-1.9v-11.09h1.9v11.09Z" fill="#fff"/>
      <path d="M139.02,108.86c0-.51-.19-.91-.58-1.19-.39-.28-1.06-.53-2.02-.73s-1.72-.45-2.29-.74c-.56-.29-.98-.63-1.25-1.03-.27-.4-.41-.87-.41-1.41,0-.91.38-1.68,1.15-2.31.77-.63,1.75-.94,2.95-.94,1.26,0,2.28.33,3.06.97.78.65,1.17,1.48,1.17,2.49h-1.91c0-.52-.22-.97-.66-1.34-.44-.38-1-.56-1.67-.56s-1.23.15-1.62.45-.58.69-.58,1.18c0,.46.18.8.54,1.04s1.02.46,1.96.67c.95.21,1.71.46,2.3.76.59.29,1.02.65,1.31,1.06.28.41.43.92.43,1.51,0,.99-.4,1.79-1.19,2.38-.79.6-1.82.9-3.09.9-.89,0-1.67-.16-2.36-.47s-1.22-.75-1.6-1.32c-.39-.56-.58-1.17-.58-1.83h1.9c.03.63.29,1.14.76,1.51.48.37,1.1.56,1.88.56.72,0,1.29-.14,1.73-.44.43-.29.65-.68.65-1.16Z" fill="#fff"/>
      <path d="M149.84,108.86c0-.51-.19-.91-.58-1.19-.39-.28-1.06-.53-2.02-.73s-1.72-.45-2.29-.74c-.56-.29-.98-.63-1.25-1.03-.27-.4-.41-.87-.41-1.41,0-.91.38-1.68,1.15-2.31.77-.63,1.75-.94,2.95-.94,1.26,0,2.28.33,3.06.97.78.65,1.17,1.48,1.17,2.49h-1.91c0-.52-.22-.97-.66-1.34-.44-.38-1-.56-1.67-.56s-1.23.15-1.62.45-.58.69-.58,1.18c0,.46.18.8.54,1.04s1.02.46,1.96.67c.95.21,1.71.46,2.3.76.59.29,1.02.65,1.31,1.06.28.41.43.92.43,1.51,0,.99-.4,1.79-1.19,2.38-.79.6-1.82.9-3.09.9-.89,0-1.67-.16-2.36-.47s-1.22-.75-1.6-1.32c-.39-.56-.58-1.17-.58-1.83h1.9c.03.63.29,1.14.76,1.51.48.37,1.1.56,1.88.56.72,0,1.29-.14,1.73-.44.43-.29.65-.68.65-1.16Z" fill="#fff"/>
      <path d="M161.06,111.8c-.11-.22-.2-.61-.27-1.17-.88.92-1.93,1.37-3.16,1.37-1.09,0-1.99-.31-2.69-.93-.7-.62-1.05-1.4-1.05-2.35,0-1.16.44-2.05,1.32-2.69.88-.64,2.11-.96,3.71-.96h1.85v-.87c0-.66-.2-1.19-.59-1.58-.4-.39-.98-.59-1.75-.59-.68,0-1.24.17-1.7.51-.46.34-.69.76-.69,1.24h-1.91c0-.55.2-1.09.59-1.6.39-.52.93-.92,1.6-1.23s1.41-.45,2.22-.45c1.28,0,2.28.32,3,.96.72.64,1.1,1.52,1.13,2.64v5.11c0,1.02.13,1.83.39,2.43v.16h-1.99ZM162.37,96.38c0,.74-.21,1.34-.63,1.79-.42.46-.94.69-1.57.69-.28,0-.52-.03-.73-.1s-.47-.21-.8-.42c-.33-.21-.57-.34-.72-.38-.15-.04-.32-.07-.51-.07-.28,0-.52.11-.72.32-.2.22-.3.49-.3.83l-1.27-.07c0-.73.21-1.34.62-1.81.41-.48.94-.72,1.57-.72.24,0,.45.04.65.1s.45.2.78.4.58.33.75.39c.17.06.37.09.58.09.29,0,.54-.12.73-.35.19-.23.29-.5.29-.81l1.27.12ZM157.91,110.35c.59,0,1.16-.15,1.69-.46s.92-.71,1.16-1.2v-2.28h-1.49c-2.32,0-3.49.68-3.49,2.04,0,.59.2,1.06.59,1.39s.91.5,1.53.5Z" fill="#fff"/>
      <path d="M165.13,106.15c0-1.09.21-2.06.64-2.93.43-.87,1.02-1.54,1.78-2.01.76-.47,1.63-.71,2.61-.71,1.51,0,2.73.52,3.67,1.57.93,1.04,1.4,2.44,1.4,4.17v.13c0,1.08-.21,2.05-.62,2.91-.41.86-1,1.53-1.77,2-.77.48-1.65.72-2.65.72-1.5,0-2.72-.52-3.66-1.57-.93-1.05-1.4-2.43-1.4-4.15v-.13ZM167.04,106.38c0,1.23.29,2.22.86,2.96s1.33,1.12,2.29,1.12,1.73-.38,2.3-1.13c.57-.75.85-1.81.85-3.17,0-1.22-.29-2.2-.87-2.96-.58-.75-1.34-1.13-2.3-1.13s-1.69.37-2.27,1.12-.86,1.81-.86,3.2Z" fill="#fff"/>
      <path d="M177.65,110.81c0-.33.1-.6.29-.82.2-.22.49-.33.88-.33s.69.11.89.33.3.49.3.82-.1.58-.3.79-.5.32-.89.32-.68-.11-.88-.32c-.19-.21-.29-.47-.29-.79Z" fill="#fff"/>
    </g>
  </g>
</svg>