<?xml version="1.0" encoding="UTF-8"?>
<svg id="Layer_2" data-name="Layer 2" xmlns="http://www.w3.org/2000/svg" viewBox="0 0 59.03 57.74">
  <g id="Layer_1-2" data-name="Layer 1">
    <g>
      <path d="M43.61,54.28c-6.18,3.22-11.66,3.95-18.65,3.17-6.06-.92-11.65-3.66-16.02-7.93C4.1,44.79.83,38.91.24,32.11l-.17-1.92C-.61,22.31,3.35,12.5,9.26,7.82l2.09-1.65C15.05,3.22,19.43,1.35,24.08.54c2.18-.38,5.31-.72,7.43-.43.82.11,1.6,0,2.43.22.65.18,1.32.18,2.04.34,11.96,2.58,21.3,12.37,22.92,24.6.14,1.06.19,4.76.09,5.77-.13,1.28-.23,2.51-.51,3.76-.98,4.34-2.8,8.42-5.67,11.77l-1.23,1.44c-1.85,2.16-5.41,4.95-7.96,6.28ZM56.12,28.85c0-14.67-11.89-26.55-26.56-26.55S3,14.18,3,28.85s11.89,26.55,26.56,26.55,26.56-11.89,26.56-26.55Z" fill="#ecb529"/>
      <path d="M56.12,28.85c0,14.67-11.89,26.55-26.56,26.55S3,43.52,3,28.85,14.89,2.3,29.56,2.3s26.56,11.89,26.56,26.55ZM39.1,40.6c1.26,0,2.3-1.11,2.3-2.29v-19.07c0-1.17-.97-2.28-2.12-2.28l-18.86-.04c-1.42,0-2.74.8-2.74,2.37l-.02,19.09c.22,1.55,1.41,2.31,2.91,2.3l18.53-.09Z" fill="#276da5"/>
      <path d="M39.1,40.6l-18.53.09c-1.5,0-2.69-.75-2.91-2.3l.02-19.09c0-1.57,1.32-2.37,2.74-2.37l18.86.04c1.15,0,2.11,1.11,2.11,2.28v19.07c0,1.17-1.04,2.28-2.3,2.29Z" fill="#fcfdfd"/>
    </g>
  </g>
</svg>