<?xml version="1.0" encoding="UTF-8"?>
<svg id="Layer_2" data-name="Layer 2" xmlns="http://www.w3.org/2000/svg" viewBox="0 0 530.54 101.32">
  <g id="Layer_1-2" data-name="Layer 1">
    <g opacity=".5">
      <rect x=".5" y=".5" width="529.54" height="100.32" rx="15.91" ry="15.91" fill="#1a2a3d"/>
      <path d="M514.13,101.32H16.41c-9.05,0-16.41-7.36-16.41-16.41V16.41C0,7.36,7.36,0,16.41,0h497.72c9.05,0,16.41,7.36,16.41,16.41v68.5c0,9.05-7.36,16.41-16.41,16.41ZM16.41,1C7.91,1,1,7.91,1,16.41v68.5c0,8.5,6.91,15.41,15.41,15.41h497.72c8.5,0,15.41-6.91,15.41-15.41V16.41c0-8.5-6.91-15.41-15.41-15.41H16.41Z" fill="#7dabe2"/>
    </g>
    <g>
      <path d="M52.13,55.33c0,8.02-5.71,11.43-9.89,11.43h-12.03c-1.43,0-2.36-.82-2.36-2.09s2.2-.82,2.2-5.22l.11-.11h-.11v-23.68c0-4.4-2.2-4.01-2.2-5.22s.93-2.09,2.36-2.09h12.03c2.8,0,7.42,1.81,7.42,9.01,0,4.4-2.25,6.7-5.77,7.75,4.89.99,8.24,4.18,8.24,10.22ZM38.23,32.14h-.11v10.6c5.22-.93,5.88-4.34,5.88-5.88,0-4.23-3.57-4.72-5.77-4.72ZM46.42,54.56c0-2.31-.77-7.25-8.3-7.53v14.73h2.53c2.25,0,5.77-1.7,5.77-7.2Z" fill="#f9eacd"/>
      <path d="M78.95,64.62c0,1.26-.93,2.09-2.36,2.09-3.46,0-7.53-1.21-7.91-6.59-1.54,3.13-5.82,6.81-8.68,6.81-3.57,0-5.99-2.47-5.99-7.25,0-6.1,6.98-12.42,14.62-8.85-.17-4.62-1.1-8.74-3.24-8.74-3.24,0-1.65,5.05-2.86,6.43-1.92,2.09-8.46-1.15-7.2-4.18,2.14-5.06,5.66-6.04,10.06-6.04,7.25,0,11.37,5.99,11.37,14.4v6.65h-.11l.11.05c0,4.4,2.2,4.01,2.2,5.22ZM68.67,53.13c-8.74-2.86-8.02,8.68-5.66,8.68,3.24,0,5.66-5.49,5.66-8.68Z" fill="#f9eacd"/>
      <path d="M92.96,64.62c0,1.26-.93,2.09-2.36,2.09h-7.8c-1.43,0-2.36-.82-2.36-2.09s2.2-.82,2.2-5.22v-13.24h.06-.06c0-4.4-2.2-4.01-2.2-5.27s.93-2.03,2.36-2.03c3.63,0,7.91,1.26,7.91,7.31v13.24h.06c0,4.4,2.2,4.01,2.2,5.22ZM82.02,31.54c0-2.53,2.09-4.62,4.67-4.62s4.67,2.09,4.67,4.62-2.09,4.67-4.67,4.67-4.67-2.09-4.67-4.67Z" fill="#f9eacd"/>
      <path d="M111.59,50.28c-1.26-1.37.38-8.19-2.86-8.19-2.09,0-3.52,3.85-3.9,8.24v9.07c0,4.4,2.25,4.01,2.25,5.22s-.93,2.09-2.36,2.09h-7.8c-1.43,0-2.36-.82-2.36-2.09s2.2-.82,2.2-5.22v-13.24h.06-.06c0-4.4-2.2-4.01-2.2-5.27s.93-2.03,2.36-2.03c2.47,0,5.27.6,6.81,2.91,1.15-2.2,3.13-3.46,5.6-3.46,5.6,0,7.31,2.75,9.4,7.8,1.26,3.02-5.27,6.21-7.14,4.18Z" fill="#f9eacd"/>
      <path d="M136.81,50.28c-1.26-1.37.38-8.19-2.86-8.19-2.09,0-3.52,3.85-3.9,8.24v9.07c0,4.4,2.25,4.01,2.25,5.22s-.93,2.09-2.36,2.09h-7.8c-1.43,0-2.36-.82-2.36-2.09s2.2-.82,2.2-5.22v-13.24h.06-.06c0-4.4-2.2-4.01-2.2-5.27s.93-2.03,2.36-2.03c2.47,0,5.27.6,6.81,2.91,1.15-2.2,3.13-3.46,5.6-3.46,5.6,0,7.31,2.75,9.4,7.8,1.26,3.02-5.27,6.21-7.14,4.18Z" fill="#f9eacd"/>
      <path d="M168.18,52.69c0,8.41-4.12,14.4-11.32,14.4s-11.37-5.99-11.37-14.4,4.12-14.4,11.37-14.4,11.32,5.99,11.32,14.4ZM160.82,52.69c0-5.28-1.54-10.6-3.96-10.6s-3.96,5.33-3.96,10.6,1.54,10.55,3.96,10.55,3.96-5.28,3.96-10.55Z" fill="#f9eacd"/>
      <path d="M212.8,64.56c0,1.26-.93,2.09-2.36,2.09-3.13,0-6.7-.99-7.69-5-1.7,2.31-4.62,5.28-8.35,5.28-7.31,0-7.03-10.33-7.03-12.97s.99-15.22,8.41-15.22c3.13,0,5.33,2.03,6.7,4.01v-7.14c0-4.4-2.2-3.96-2.2-5.22s.93-2.09,2.36-2.09c3.63,0,7.91,1.32,7.91,7.31v23.74c0,4.4,2.25,3.96,2.25,5.22ZM202.47,50.17c-.22-3.13-1.15-5.66-2.86-5.66-1.43,0-3.46,1.43-3.96,8.96-.27,3.41.71,7.86,2.69,7.86,1.76,0,3.74-3.41,4.12-6.76v-4.4Z" fill="#f9eacd"/>
      <path d="M239.23,64.62c0,1.26-.93,2.09-2.36,2.09-3.46,0-7.53-1.21-7.91-6.59-1.54,3.13-5.82,6.81-8.68,6.81-3.57,0-5.99-2.47-5.99-7.25,0-6.1,6.98-12.42,14.62-8.85-.17-4.62-1.1-8.74-3.24-8.74-3.24,0-1.65,5.05-2.86,6.43-1.92,2.09-8.46-1.15-7.2-4.18,2.14-5.06,5.66-6.04,10.06-6.04,7.25,0,11.37,5.99,11.37,14.4v6.65h-.11l.11.05c0,4.4,2.2,4.01,2.2,5.22ZM228.95,53.13c-8.74-2.86-8.02,8.68-5.66,8.68,3.24,0,5.66-5.49,5.66-8.68Z" fill="#f9eacd"/>
      <path d="M282.25,46.71c0,14.12-6.48,20.06-10.66,20.06h-12.03c-1.43,0-2.36-.82-2.36-2.09s2.2-.82,2.2-5.22l.06-.06-.06-.05v-23.68c0-4.4-2.2-4.01-2.2-5.22s.93-2.09,2.36-2.09l10.27.06c6.7,0,12.42,5.44,12.42,18.3ZM275.77,46.71c0-6.98-.93-14.51-8.3-14.51v29.56h.06c6.1,0,8.24-5.33,8.24-15.06Z" fill="#f9eacd"/>
      <path d="M307.03,57.09c0,5.33-3.74,10-10.27,10-7.25,0-12.31-5.99-12.31-14.4s4.12-14.4,11.37-14.4c4.34,0,7.09,1.59,9.23,5.38,1.1,1.87,1.48,5.83-.5,5.83h-12.53c-.11,1.04-.17,2.09-.17,3.19,0,5.27,3.3,7.2,5.27,7.2,2.8,0,5.66-1.81,5.66-7.75,0-1.43,4.23.17,4.23,4.95ZM292.25,47.91h6.15c.05-1.81.55-5.82-2.58-5.82-1.7,0-2.91,2.53-3.57,5.82Z" fill="#f9eacd"/>
      <path d="M333.02,58.24c0,7.42-8.13,8.85-11.98,8.85-1.15,0-7.09,0-10.05-2.86-2.03-1.98,1.98-8.63,5.22-7.36,3.46,1.43,2.36,5.82,5.99,6.59,1.92.38,3.85-1.1,3.85-2.91,0-3.68-4.56-4.23-7.42-5.5-2.75-1.26-6.7-2.03-6.7-8.63,0-5.99,6.37-8.13,9.34-8.13,1.32,0,8.13-.22,11.32,2.86,2.03,1.98-2.47,6.48-4.73,5.38-1.54-.66-2.8-4.83-5.6-4.83-1.7,0-3.35,1.26-3.35,3.13,0,3.63,4.83,4.01,6.76,4.62,3.02.93,7.36,2.2,7.36,8.79Z" fill="#f9eacd"/>
      <path d="M356.48,57.09c0,5.33-3.74,10-10.27,10-7.25,0-12.31-5.99-12.31-14.4s4.12-14.4,11.37-14.4c4.34,0,7.91.99,10,6.04,1.26,3.02-5.27,6.26-7.14,4.18-1.26-1.37.38-6.43-2.86-6.43-2.42,0-3.96,5.33-3.96,10.6s3.3,7.2,5.27,7.2c2.8,0,5.66-1.81,5.66-7.75,0-1.43,4.23.17,4.23,4.95Z" fill="#f9eacd"/>
      <path d="M381.32,52.69c0,8.41-4.12,14.4-11.32,14.4s-11.37-5.99-11.37-14.4,4.12-14.4,11.37-14.4,11.32,5.99,11.32,14.4ZM373.96,52.69c0-5.28-1.54-10.6-3.96-10.6s-3.96,5.33-3.96,10.6,1.54,10.55,3.96,10.55,3.96-5.28,3.96-10.55Z" fill="#f9eacd"/>
      <path d="M408.63,51.71c0,2.64-.93,15.22-8.35,15.22-3.46,0-5.82-2.47-7.2-4.67-1.15,3.52-4.56,4.4-7.47,4.4-1.43,0-2.36-.82-2.36-2.09s2.2-.82,2.2-5.22v-23.74c0-4.4-2.2-3.96-2.2-5.22s.93-2.09,2.36-2.09c3.63,0,7.91,1.32,7.91,7.31v8.13c1.76-2.31,4.56-5,8.13-5,7.31,0,6.98,10.38,6.98,12.97ZM400.39,50.39c0-3.41-1.81-5.88-2.8-5.88-1.81,0-3.63,3.24-4.07,6.59v4.95c.22,2.86.88,5.28,2.58,5.28s4.29-3.74,4.29-10.93Z" fill="#f9eacd"/>
      <path d="M433.57,57.09c0,5.33-3.74,10-10.27,10-7.25,0-12.31-5.99-12.31-14.4s4.12-14.4,11.37-14.4c4.34,0,7.09,1.59,9.23,5.38,1.1,1.87,1.48,5.83-.5,5.83h-12.53c-.11,1.04-.17,2.09-.17,3.19,0,5.27,3.3,7.2,5.27,7.2,2.8,0,5.66-1.81,5.66-7.75,0-1.43,4.23.17,4.23,4.95ZM418.79,47.91h6.15c.05-1.81.55-5.82-2.58-5.82-1.7,0-2.91,2.53-3.57,5.82Z" fill="#f9eacd"/>
      <path d="M452.2,50.28c-1.26-1.37.38-8.19-2.86-8.19-2.09,0-3.52,3.85-3.9,8.24v9.07c0,4.4,2.25,4.01,2.25,5.22s-.93,2.09-2.36,2.09h-7.8c-1.43,0-2.36-.82-2.36-2.09s2.2-.82,2.2-5.22v-13.24h.05-.05c0-4.4-2.2-4.01-2.2-5.27s.93-2.03,2.36-2.03c2.47,0,5.27.6,6.81,2.91,1.15-2.2,3.13-3.46,5.6-3.46,5.6,0,7.31,2.75,9.4,7.8,1.26,3.02-5.27,6.21-7.14,4.18Z" fill="#f9eacd"/>
      <path d="M476.93,61.05c0,4.95-5.22,5.6-6.7,5.6-3.57,0-7.86-1.32-7.91-7.31v-20.77h-2.8c-.22,0-.44-.11-.55-.28-.17-.22-.22-.44-.17-.66l.22-1.21c.11-.33.38-.6.77-.6h2.53v-.22c0-4.4-2.2-3.96-2.2-5.22s.93-2.09,2.36-2.09c3.57,0,7.91,1.32,7.91,7.31v.22h3.57c.22,0,.44.11.6.28.11.17.22.44.16.66l-.27,1.21c-.05.33-.38.6-.71.6h-3.35v20.77c0,3.19,3.63,3.24,5.38.6.38-.6,1.15-.05,1.15,1.1Z" fill="#f9eacd"/>
      <path d="M503.08,64.62c0,1.26-.93,2.09-2.36,2.09-3.46,0-7.53-1.21-7.91-6.59-1.54,3.13-5.82,6.81-8.68,6.81-3.57,0-5.99-2.47-5.99-7.25,0-6.1,6.98-12.42,14.62-8.85-.16-4.62-1.1-8.74-3.24-8.74-3.24,0-1.65,5.05-2.86,6.43-1.92,2.09-8.46-1.15-7.2-4.18,2.14-5.06,5.66-6.04,10.06-6.04,7.25,0,11.37,5.99,11.37,14.4v6.65h-.11l.11.05c0,4.4,2.2,4.01,2.2,5.22ZM492.81,53.13c-8.74-2.86-8.02,8.68-5.66,8.68,3.24,0,5.66-5.49,5.66-8.68Z" fill="#f9eacd"/>
    </g>
  </g>
</svg>