<?xml version="1.0" encoding="UTF-8"?>
<svg id="Layer_2" data-name="Layer 2" xmlns="http://www.w3.org/2000/svg" viewBox="0 0 227.09 62.32">
  <g id="Layer_1-2" data-name="Layer 1">
    <rect x=".5" y=".5" width="226.09" height="61.32" rx="8.13" ry="8.13" fill="#1a2a3d" opacity=".5" stroke="#7dabe2" stroke-miterlimit="10"/>
    <rect x="56.19" y="28.36" width="164" height="21.11" rx="4.06" ry="4.06" fill="#1a2a3d" opacity=".5" stroke="#7dabe2" stroke-miterlimit="10"/>
    <rect x="56.19" y="28.36" width="124.47" height="21.11" rx="3.54" ry="3.54" fill="#e539c5" opacity=".5" stroke="#7dabe2" stroke-miterlimit="10"/>
    <g>
      <path d="M80.4,12.92l2.3-4.23h2.91l-3.57,6.08,3.66,6.18h-2.94l-2.36-4.3-2.36,4.3h-2.94l3.66-6.18-3.57-6.08h2.91l2.3,4.23Z" fill="#fff"/>
      <path d="M88.64,16.63v4.32h-2.53v-12.26h4.79c.92,0,1.73.17,2.43.5.7.34,1.24.82,1.61,1.44.38.62.56,1.33.56,2.12,0,1.2-.41,2.15-1.23,2.84-.82.69-1.96,1.04-3.42,1.04h-2.22ZM88.64,14.59h2.26c.67,0,1.18-.16,1.53-.47.35-.31.53-.76.53-1.35s-.18-1.09-.53-1.46c-.35-.37-.84-.56-1.47-.57h-2.32v3.85Z" fill="#fff"/>
      <path d="M108.54,10.74h-3.76v10.22h-2.53v-10.22h-3.71v-2.05h9.99v2.05Z" fill="#fff"/>
      <path d="M118.96,15.1c0,1.21-.21,2.27-.64,3.18s-1.04,1.61-1.83,2.11c-.79.5-1.71.74-2.73.74s-1.92-.25-2.72-.73c-.8-.49-1.42-1.19-1.85-2.09-.44-.91-.66-1.95-.67-3.13v-.61c0-1.21.22-2.27.65-3.19.44-.92,1.05-1.62,1.84-2.11.79-.49,1.7-.74,2.73-.74s1.93.25,2.72.74c.79.49,1.41,1.2,1.85,2.11.43.92.65,1.98.65,3.18v.55ZM116.39,14.54c0-1.29-.23-2.26-.69-2.93-.46-.67-1.12-1-1.97-1s-1.5.33-1.96.99-.69,1.63-.7,2.9v.6c0,1.25.23,2.22.69,2.92.46.69,1.12,1.04,1.99,1.04s1.5-.33,1.95-1c.46-.67.69-1.63.69-2.91v-.6Z" fill="#fff"/>
      <path d="M128.45,10.74h-3.76v10.22h-2.53v-10.22h-3.71v-2.05h9.99v2.05Z" fill="#fff"/>
      <path d="M134.94,18.43h-4.43l-.84,2.53h-2.69l4.57-12.26h2.34l4.59,12.26h-2.69l-.85-2.53ZM131.19,16.38h3.07l-1.54-4.59-1.53,4.59Z" fill="#fff"/>
      <path d="M141.29,18.92h5.37v2.03h-7.89v-12.26h2.53v10.23Z" fill="#fff"/>
    </g>
    <g>
      <path d="M18.37,46.98h-3.1v-11.93l-3.7,1.15v-2.52l6.46-2.31h.33v15.62Z" fill="#fff"/>
      <path d="M33.03,46.98h-10.69v-2.12l5.04-5.38c.69-.76,1.21-1.42,1.54-1.98.33-.56.5-1.1.5-1.61,0-.69-.18-1.24-.53-1.63s-.85-.59-1.5-.59c-.7,0-1.25.24-1.65.72-.4.48-.61,1.12-.61,1.9h-3.11c0-.95.23-1.82.68-2.6.45-.79,1.09-1.4,1.92-1.85.83-.45,1.77-.67,2.82-.67,1.61,0,2.85.38,3.74,1.16.89.77,1.33,1.86,1.33,3.27,0,.77-.2,1.56-.6,2.36-.4.8-1.08,1.73-2.06,2.8l-3.55,3.74h6.71v2.5Z" fill="#fff"/>
      <path d="M44.33,40.53c0,2.16-.45,3.81-1.34,4.95-.89,1.14-2.2,1.71-3.92,1.71s-3-.56-3.9-1.68-1.36-2.73-1.38-4.82v-2.87c0-2.18.45-3.83,1.36-4.96.9-1.13,2.2-1.69,3.9-1.69s3,.56,3.9,1.68c.9,1.12,1.36,2.72,1.38,4.82v2.87ZM41.23,37.37c0-1.29-.18-2.24-.53-2.83s-.91-.88-1.66-.88-1.27.28-1.61.84c-.35.56-.53,1.44-.55,2.63v3.8c0,1.27.17,2.22.52,2.84s.9.93,1.67.93,1.3-.3,1.64-.89c.34-.59.51-1.5.53-2.72v-3.71Z" fill="#fff"/>
    </g>
  </g>
</svg>