<?xml version="1.0" encoding="UTF-8"?>
<svg id="Layer_2" data-name="Layer 2" xmlns="http://www.w3.org/2000/svg" viewBox="0 0 220 900">
  <g id="Layer_1-2" data-name="Layer 1">
    <rect width="220" height="900" fill="#2e4963"/>
    <rect x="217.69" width="1.93" height="900" fill="#fff"/>
    <g>
      <rect x="27.39" y="223.97" width="149.34" height="39.36" rx="5.29" ry="5.29" fill="#1a2a3d"/>
      <path d="M171.36,263.65H32.76c-3.14,0-5.7-2.48-5.7-5.54v-28.92c0-3.05,2.56-5.54,5.7-5.54h138.6c3.14,0,5.7,2.48,5.7,5.54v28.92c0,3.05-2.56,5.54-5.7,5.54ZM32.76,224.29c-2.78,0-5.04,2.2-5.04,4.9v28.92c0,2.7,2.26,4.9,5.04,4.9h138.6c2.78,0,5.04-2.2,5.04-4.9v-28.92c0-2.7-2.26-4.9-5.04-4.9H32.76Z" fill="#7dabe2"/>
    </g>
    <g>
      <path d="M68.32,244.88c-.09,1.29-.55,2.31-1.38,3.06-.83.74-1.93,1.12-3.29,1.12-1.49,0-2.66-.52-3.51-1.56-.85-1.04-1.28-2.46-1.28-4.28v-.74c0-1.16.2-2.18.59-3.06.39-.88.96-1.56,1.69-2.03s1.58-.71,2.55-.71c1.34,0,2.42.37,3.24,1.12.82.74,1.29,1.79,1.42,3.13h-2.39c-.06-.78-.27-1.34-.63-1.69-.36-.35-.9-.53-1.64-.53-.8,0-1.39.3-1.79.89-.4.59-.6,1.51-.61,2.76v.91c0,1.3.19,2.25.57,2.85s.98.9,1.8.9c.74,0,1.29-.17,1.65-.52.36-.35.57-.89.62-1.62h2.39Z" fill="#fff"/>
      <path d="M68.57,244.33c0-.89.16-1.68.49-2.37.33-.69.8-1.23,1.42-1.61.62-.38,1.34-.57,2.16-.57,1.16,0,2.11.37,2.85,1.11.74.74,1.15,1.74,1.23,3.01l.02.61c0,1.37-.37,2.47-1.11,3.3s-1.73,1.24-2.97,1.24-2.24-.41-2.98-1.24-1.11-1.95-1.11-3.37v-.11ZM70.87,244.5c0,.85.15,1.5.46,1.95.31.45.75.67,1.32.67s.99-.22,1.31-.67c.31-.44.47-1.15.47-2.13,0-.83-.16-1.48-.47-1.94s-.75-.69-1.32-.69-1,.23-1.31.68c-.31.46-.46,1.16-.46,2.11Z" fill="#fff"/>
      <path d="M79.46,239.94l.07,1.03c.62-.8,1.44-1.2,2.48-1.2.91,0,1.59.28,2.04.83s.67,1.39.69,2.5v5.78h-2.3v-5.72c0-.51-.11-.88-.32-1.1-.21-.23-.57-.34-1.06-.34-.65,0-1.13.29-1.46.86v6.3h-2.3v-8.94h2.17Z" fill="#fff"/>
      <path d="M86.29,248.88v-7.19h-1.28v-1.75h1.28v-.76c0-1,.28-1.78.83-2.33.55-.55,1.33-.83,2.33-.83.32,0,.71.06,1.17.17l-.02,1.85c-.19-.05-.42-.07-.7-.07-.87,0-1.3.42-1.3,1.26v.72h1.71v1.75h-1.71v7.19h-2.31Z" fill="#fff"/>
      <path d="M90.68,237.63c0-.36.12-.65.35-.88.23-.23.55-.35.94-.35s.71.12.94.35c.23.23.35.53.35.88s-.12.66-.35.89-.55.35-.94.35-.7-.12-.94-.35-.35-.53-.35-.89ZM93.13,248.88h-2.31v-8.94h2.31v8.94Z" fill="#fff"/>
      <path d="M93.87,244.35c0-1.37.32-2.48.94-3.31.63-.84,1.48-1.26,2.55-1.26.95,0,1.68.34,2.21,1.01l.1-.84h2.09v8.64c0,.78-.17,1.46-.51,2.04-.34.58-.83,1.02-1.45,1.32-.62.3-1.35.46-2.18.46-.63,0-1.25-.13-1.85-.39-.6-.26-1.06-.6-1.36-1.01l1.02-1.45c.57.67,1.27,1,2.09,1,.61,0,1.09-.17,1.43-.51s.51-.82.51-1.44v-.48c-.53.62-1.23.93-2.1.93-1.04,0-1.88-.42-2.51-1.26-.64-.84-.96-1.95-.96-3.34v-.1ZM96.18,244.53c0,.81.16,1.45.47,1.91s.74.69,1.29.69c.7,0,1.2-.27,1.51-.82v-3.77c-.31-.55-.8-.82-1.49-.82-.55,0-.99.23-1.3.7-.32.47-.47,1.17-.47,2.1Z" fill="#fff"/>
      <path d="M107.88,247.98c-.57.72-1.36,1.07-2.36,1.07-.92,0-1.63-.28-2.12-.83s-.73-1.36-.75-2.42v-5.86h2.3v5.78c0,.93.41,1.4,1.23,1.4s1.32-.28,1.61-.84v-6.34h2.31v8.94h-2.17l-.06-.91Z" fill="#fff"/>
      <path d="M115.87,242.18c-.31-.04-.59-.07-.83-.07-.87,0-1.44.31-1.71.92v5.85h-2.3v-8.94h2.18l.06,1.07c.46-.82,1.1-1.23,1.92-1.23.26,0,.49.04.72.11l-.03,2.3Z" fill="#fff"/>
      <path d="M120.92,248.88c-.11-.21-.18-.48-.23-.8-.56.64-1.28.97-2.18.97-.85,0-1.55-.25-2.1-.76-.56-.51-.83-1.15-.83-1.92,0-.95.34-1.67,1.02-2.18.68-.51,1.66-.76,2.94-.77h1.06v-.51c0-.41-.1-.74-.31-.99-.21-.25-.53-.37-.97-.37-.39,0-.69.1-.91.29-.22.19-.33.46-.33.79h-2.3c0-.52.15-1,.46-1.44.31-.44.74-.79,1.31-1.04.56-.25,1.2-.38,1.9-.38,1.06,0,1.91.28,2.53.83.62.55.94,1.33.94,2.33v3.88c0,.85.12,1.49.34,1.92v.14h-2.33ZM119.02,247.22c.34,0,.65-.08.94-.24s.5-.37.64-.63v-1.54h-.86c-1.15,0-1.77.41-1.84,1.24v.14c0,.3.09.54.29.74.2.19.48.29.83.29Z" fill="#fff"/>
      <path d="M127.45,247.12c.42,0,.77-.12,1.04-.36.27-.24.4-.56.41-.97h2.16c0,.61-.17,1.16-.48,1.67-.31.5-.74.9-1.29,1.17s-1.15.42-1.8.42c-1.23,0-2.21-.41-2.92-1.22s-1.07-1.93-1.07-3.37v-.16c0-1.38.35-2.48,1.06-3.3.71-.82,1.68-1.23,2.91-1.23,1.08,0,1.94.32,2.59.96.65.64.98,1.48.99,2.54h-2.16c-.01-.47-.15-.84-.41-1.13-.27-.29-.62-.44-1.05-.44-.54,0-.94.2-1.21.61-.27.41-.41,1.06-.41,1.97v.25c0,.92.14,1.58.41,1.99.27.4.68.6,1.24.6ZM128.29,248.83l-.09.48c.8.15,1.2.62,1.2,1.43,0,.61-.24,1.08-.73,1.44-.49.35-1.17.53-2.05.53l-.06-1.38c.59,0,.89-.22.89-.67,0-.23-.09-.39-.27-.47-.18-.09-.47-.14-.86-.17l.25-1.18h1.72Z" fill="#fff"/>
      <path d="M131.2,244.33c0-.89.16-1.68.49-2.37.33-.69.8-1.23,1.42-1.61.62-.38,1.34-.57,2.16-.57,1.16,0,2.11.37,2.85,1.11.74.74,1.15,1.74,1.23,3.01l.02.61c0,1.37-.37,2.47-1.11,3.3s-1.73,1.24-2.97,1.24-2.24-.41-2.98-1.24-1.11-1.95-1.11-3.37v-.11ZM138.26,236.3c0,.62-.18,1.14-.53,1.57-.35.42-.78.63-1.28.63-.2,0-.38-.02-.54-.07-.16-.05-.37-.15-.65-.3s-.48-.25-.6-.29-.25-.05-.4-.05c-.19,0-.34.07-.47.21-.13.14-.2.33-.2.59l-1.34-.08c0-.61.17-1.13.52-1.56.35-.43.77-.64,1.28-.64.16,0,.31.02.45.06s.37.14.69.3c.32.16.54.26.66.29s.25.05.38.05c.19,0,.35-.07.48-.2.14-.13.2-.33.2-.58l1.33.09ZM133.5,244.5c0,.85.15,1.5.46,1.95.31.45.75.67,1.32.67s.99-.22,1.31-.67c.31-.44.47-1.15.47-2.13,0-.83-.16-1.48-.47-1.94s-.75-.69-1.32-.69-1,.23-1.31.68c-.31.46-.46,1.16-.46,2.11Z" fill="#fff"/>
      <path d="M143.94,249.05c-1.27,0-2.29-.4-3.09-1.21-.79-.8-1.19-1.88-1.19-3.21v-.23c0-.9.17-1.7.5-2.41s.81-1.25,1.42-1.64c.61-.38,1.31-.57,2.1-.57,1.18,0,2.11.39,2.79,1.16s1.02,1.86,1.02,3.28v.98h-5.49c.07.58.3,1.05.67,1.4.37.35.85.53,1.42.53.89,0,1.58-.33,2.08-1l1.13,1.31c-.35.51-.81.9-1.4,1.19-.59.28-1.24.43-1.96.43ZM143.68,241.7c-.46,0-.83.16-1.11.48-.29.32-.47.78-.55,1.38h3.2v-.19c-.01-.53-.15-.94-.42-1.23-.27-.29-.64-.44-1.13-.44Z" fill="#fff"/>
      <path d="M152.65,246.41c0-.29-.14-.52-.42-.69-.28-.17-.73-.32-1.34-.45-2.05-.45-3.08-1.35-3.08-2.71,0-.79.32-1.46.95-1.99s1.46-.8,2.49-.8c1.09,0,1.97.27,2.63.8s.98,1.23.98,2.08h-2.3c0-.34-.11-.62-.32-.85-.21-.22-.54-.33-1-.33-.39,0-.69.09-.9.27-.21.18-.32.41-.32.69,0,.26.12.48.36.64.24.16.65.3,1.22.42.57.12,1.06.25,1.45.4,1.22.46,1.83,1.26,1.83,2.4,0,.82-.34,1.48-1.01,1.98s-1.55.76-2.61.76c-.72,0-1.36-.13-1.92-.4-.56-.27-1-.63-1.32-1.1-.32-.46-.48-.97-.48-1.51h2.18c.02.42.17.75.46.98.28.23.66.34,1.13.34.44,0,.77-.09,1-.26s.34-.4.34-.68Z" fill="#fff"/>
    </g>
    <g>
      <rect x="27.39" y="277.35" width="149.34" height="39.36" rx="5.29" ry="5.29" fill="#1a2a3d"/>
      <path d="M171.36,317.03H32.76c-3.14,0-5.7-2.48-5.7-5.54v-28.92c0-3.05,2.56-5.54,5.7-5.54h138.6c3.14,0,5.7,2.48,5.7,5.54v28.92c0,3.05-2.56,5.54-5.7,5.54ZM32.76,277.67c-2.78,0-5.04,2.2-5.04,4.9v28.92c0,2.7,2.26,4.9,5.04,4.9h138.6c2.78,0,5.04-2.2,5.04-4.9v-28.92c0-2.7-2.26-4.9-5.04-4.9H32.76Z" fill="#7dabe2"/>
    </g>
    <g>
      <path d="M73.08,298.21c-.09,1.25-.55,2.23-1.38,2.95-.83.72-1.93,1.08-3.29,1.08-1.49,0-2.66-.5-3.51-1.5-.85-1-1.28-2.38-1.28-4.12v-.71c0-1.12.2-2.1.59-2.95.39-.85.96-1.5,1.69-1.96s1.58-.68,2.55-.68c1.34,0,2.42.36,3.24,1.08.82.72,1.29,1.72,1.42,3.02h-2.39c-.06-.75-.27-1.29-.63-1.63-.36-.34-.9-.51-1.64-.51-.8,0-1.39.29-1.79.86-.4.57-.6,1.46-.61,2.66v.88c0,1.25.19,2.17.57,2.75s.98.87,1.8.87c.74,0,1.29-.17,1.65-.51.36-.34.57-.86.62-1.57h2.39Z" fill="#fff"/>
      <path d="M73.33,297.68c0-.86.16-1.62.49-2.29.33-.67.8-1.19,1.42-1.55.62-.37,1.34-.55,2.16-.55,1.16,0,2.11.36,2.85,1.07.74.71,1.15,1.68,1.23,2.9l.02.59c0,1.32-.37,2.38-1.11,3.18s-1.73,1.2-2.97,1.2-2.24-.4-2.98-1.2-1.11-1.88-1.11-3.25v-.1ZM75.63,297.85c0,.82.15,1.45.46,1.88.31.43.75.65,1.32.65s.99-.21,1.31-.64c.31-.43.47-1.11.47-2.05,0-.8-.16-1.43-.47-1.87s-.75-.66-1.32-.66-1,.22-1.31.66c-.31.44-.46,1.12-.46,2.04Z" fill="#fff"/>
      <path d="M84.22,293.45l.07,1c.62-.77,1.44-1.16,2.48-1.16.91,0,1.59.27,2.04.8.45.54.67,1.34.69,2.41v5.57h-2.3v-5.52c0-.49-.11-.84-.32-1.06-.21-.22-.57-.33-1.06-.33-.65,0-1.13.28-1.46.83v6.08h-2.3v-8.62h2.17Z" fill="#fff"/>
      <path d="M90.07,297.68c0-1.36.3-2.43.9-3.21.6-.79,1.43-1.18,2.48-1.18.92,0,1.66.35,2.21,1.06l.15-.9h2.02v11.94h-2.31v-4.06c-.53.6-1.23.9-2.09.9-1.03,0-1.84-.4-2.46-1.2-.61-.8-.92-1.92-.92-3.36ZM92.37,297.85c0,.83.15,1.45.43,1.88.29.43.7.65,1.22.65.71,0,1.21-.28,1.5-.85v-3.57c-.29-.54-.78-.81-1.48-.81-.53,0-.94.22-1.24.65-.29.43-.44,1.11-.44,2.05Z" fill="#fff"/>
      <path d="M103.99,301.2c-.57.69-1.36,1.04-2.36,1.04-.92,0-1.63-.27-2.12-.8s-.73-1.31-.75-2.33v-5.65h2.3v5.58c0,.9.41,1.35,1.23,1.35s1.32-.27,1.61-.81v-6.11h2.31v8.62h-2.17l-.06-.88Z" fill="#fff"/>
      <path d="M107.13,291.22c0-.35.12-.63.35-.85.23-.22.55-.33.94-.33s.71.11.94.33c.23.22.35.51.35.85s-.12.64-.35.86c-.24.22-.55.33-.94.33s-.7-.11-.94-.33c-.24-.22-.35-.51-.35-.86ZM109.58,302.08h-2.31v-8.62h2.31v8.62Z" fill="#fff"/>
      <path d="M115.33,299.69c0-.28-.14-.5-.42-.67-.28-.16-.73-.31-1.34-.43-2.05-.43-3.08-1.3-3.08-2.61,0-.76.32-1.4.95-1.92s1.46-.77,2.49-.77c1.09,0,1.97.26,2.63.77.66.52.98,1.19.98,2.01h-2.3c0-.33-.11-.6-.32-.82-.21-.22-.54-.32-1-.32-.39,0-.69.09-.9.26-.21.18-.32.4-.32.67,0,.25.12.46.36.62.24.16.65.29,1.22.41.57.11,1.06.24,1.45.39,1.22.45,1.83,1.22,1.83,2.32,0,.79-.34,1.42-1.01,1.91-.67.49-1.55.73-2.61.73-.72,0-1.36-.13-1.92-.39-.56-.26-1-.61-1.32-1.06-.32-.45-.48-.93-.48-1.46h2.18c.02.41.17.72.46.94.28.22.66.33,1.13.33.44,0,.77-.08,1-.25s.34-.39.34-.66Z" fill="#fff"/>
      <path d="M120.99,291.33v2.12h1.47v1.69h-1.47v4.3c0,.32.06.55.18.69.12.14.36.21.7.21.25,0,.48-.02.68-.06v1.75c-.45.14-.92.21-1.4.21-1.62,0-2.44-.82-2.47-2.45v-4.65h-1.26v-1.69h1.26v-2.12h2.3Z" fill="#fff"/>
      <path d="M127.93,302.08c-.11-.21-.18-.46-.23-.77-.56.62-1.28.93-2.18.93-.85,0-1.55-.24-2.1-.73-.56-.49-.83-1.1-.83-1.85,0-.91.34-1.62,1.02-2.1.68-.49,1.66-.74,2.94-.74h1.06v-.49c0-.4-.1-.72-.31-.96-.21-.24-.53-.36-.97-.36-.39,0-.69.09-.91.28-.22.19-.33.44-.33.77h-2.3c0-.5.15-.96.46-1.39.31-.42.74-.76,1.31-1,.56-.24,1.2-.36,1.9-.36,1.06,0,1.91.27,2.53.8.62.53.94,1.28.94,2.25v3.74c0,.82.12,1.44.34,1.86v.14h-2.33ZM126.03,300.47c.34,0,.65-.08.94-.23s.5-.35.64-.61v-1.48h-.86c-1.15,0-1.77.4-1.84,1.2v.13c0,.29.09.52.29.71.2.19.48.28.83.28Z" fill="#fff"/>
      <path d="M135.54,299.69c0-.28-.14-.5-.42-.67-.28-.16-.73-.31-1.34-.43-2.05-.43-3.08-1.3-3.08-2.61,0-.76.32-1.4.95-1.92s1.46-.77,2.49-.77c1.09,0,1.97.26,2.63.77.66.52.98,1.19.98,2.01h-2.3c0-.33-.11-.6-.32-.82-.21-.22-.54-.32-1-.32-.39,0-.69.09-.9.26-.21.18-.32.4-.32.67,0,.25.12.46.36.62.24.16.65.29,1.22.41.57.11,1.06.24,1.45.39,1.22.45,1.83,1.22,1.83,2.32,0,.79-.34,1.42-1.01,1.91-.67.49-1.55.73-2.61.73-.72,0-1.36-.13-1.92-.39-.56-.26-1-.61-1.32-1.06-.32-.45-.48-.93-.48-1.46h2.18c.02.41.17.72.46.94.28.22.66.33,1.13.33.44,0,.77-.08,1-.25s.34-.39.34-.66Z" fill="#fff"/>
    </g>
    <g>
      <g>
        <path d="M165.49,151.19c-1.32,8.75-8.03,21.46-20.74,30.8-12.42,9.14-41.4,20.52-42.69,21.02-1.29-.5-30.26-11.88-42.69-21.02-12.71-9.35-19.42-22.05-20.74-30.8-5.97-39.63.9-87.68.9-87.68l62.52-19.36,62.52,19.36s6.87,48.05.9,87.68Z" fill="#fafffe"/>
        <path d="M169.48,92.16c-.96-20.86-3.21-30.33-3.21-30.33l-62.48-20.67-1.72-.57-1.72.57-62.48,20.67s-2.25,9.47-3.21,30.33c-.96,20.86-2.79,47.59,3.21,65.32,5.99,17.74,18.46,26.85,30.45,33.08,11.54,6,32.19,15.56,33.71,16.26v.04s.02,0,.04-.02c.03.01.04.02.04.02v-.04c1.52-.7,22.17-10.26,33.71-16.26,11.99-6.23,24.45-15.34,30.45-33.08,5.99-17.74,4.17-44.47,3.21-65.32ZM165.49,151.19c-1.32,8.75-8.03,21.46-20.74,30.8-12.42,9.14-41.4,20.52-42.69,21.02-1.29-.5-30.26-11.88-42.69-21.02-12.71-9.35-19.42-22.05-20.74-30.8-5.97-39.63.9-87.68.9-87.68l62.52-19.36,62.52,19.36s6.87,48.05.9,87.68Z" fill="#ffc200"/>
        <path d="M42.98,113.05s.76-38.55.94-41.24,1.98-4.85,5.21-5.75,50.34-17.98,53.4-17.98,51.06,18.16,55.02,19.06,4.14,3.24,3.96,6.83-2.2,23.32-2.2,23.32l-57.13-.49-58.61,22.65-.58-6.4Z" fill="#9fddf6"/>
        <path d="M43.05,92.49s4.91-26.61,30.92-31.52c26.01-4.91,55.02,6.35,65.32,12.11,10.31,5.75,14.86,26.25,14.62,28.29s-13.24-7.32-39.46-5.28c-26.22,2.04-71.65,24.57-71.65,24.57l.24-28.17Z" fill="#d8f0fa"/>
        <path d="M130.07,74.39c-.29-1.4.43-2.81,1.68-3.36,1.13-.5,2.48-.21,3.36.72,1.44-2.99,4.69-4.44,7.43-3.6,2.06.64,3.62,2.51,4.08,4.79,1.95-.79,3.88.11,4.32,1.44.29.88-.08,1.96-.84,2.76-2.89.15-6.43.09-10.43-.48-3.74-.54-6.97-1.4-9.59-2.28Z" fill="#fff"/>
        <path d="M163.96,106.93s-18.97-4.85-29.22-3.51c-10.25,1.35-12.95,2.34-13.3,4.14s2.07,4.14,17.8,7.91c15.73,3.78,24.72,7.28,24.72,7.28v-15.82Z" fill="#b1d008"/>
        <path d="M138.47,104.73s8.81.72,13.84,1.26c5.03.54,10.95,2.24,11.49,3.5s.15,13.27.15,13.27c0,0-32.23-8.87-35.73-10.29-2.4-.97,10.43-3.96,13.48-4.67s-3.24-3.06-3.24-3.06Z" fill="#59a11b"/>
        <path d="M103.88,86.64s-5.27-2.01-5.14-2.52,4.27-4.73,6.69-6.89,5.33-6.17,6.35-6.14,15.97,9.08,16.21,9.41.78.57.51,1.05-4.29,2.76-4.73,2.46-10.49-7.91-10.79-7.64-8.52,10.51-9.11,10.28Z" fill="#8d0800"/>
        <path d="M99.32,84.21s1.28.76,1.72.6,10.71-11.79,11.23-12.11,11.71,7.07,12.75,7.59,2.32,1.6,2.64,1.48.64-.8.48-.88-16.08-10.13-16.33-9.8-12.48,13.12-12.48,13.12Z" fill="#bc1713"/>
        <path d="M145.45,87.81s.87.12,1.05,0-.15-2.01-1.05-3.9-1.11-3.15-1.41-3.18-18.33.51-19.9.51c-.96,0-4.47,6.59-4.26,7.07s.51.51,2.4.7,19.57-.01,20.17-.25,3-.96,3-.96Z" fill="#8d0800"/>
        <path d="M121.21,87.38c-.35-.18,1.8-4.04,2.56-4.87s1.16-.84,1.16-.84l18.18-.44.2.04s-1.76,5.75-2.12,5.79-19.42.6-19.98.32Z" fill="#bc1713"/>
        <path d="M44.41,112.41c1.44-.91,3.83-.46,3.6-.48-.06,0-.81-.08-1.16-.72-.31-.56-.17-1.31.36-1.8-.18-.21-1.53-1.79-1.12-3.72.47-2.23,2.96-4.05,5.07-3.4,1.69.53,2.35,2.4,2.44,2.68,2.78,2.58,5.57,5.17,8.35,7.75-3.34,1.66-6.97,3.66-10.75,6.07-3.66,2.33-5.59,3.49-8.43,5.75-.28-.5-3.96-8.62,1.64-12.14Z" fill="#59a11b"/>
        <path d="M71.66,101.23c.28-.47,1.4-2.33,3.76-3,1.97-.56,3.62.06,4.16.28.02-.22.29-2.3,2.2-3.4,1.66-.96,3.33-.45,3.6-.36.28-.26,2.03-1.83,4.59-1.6,3.14.29,4.65,3.03,4.75,3.24.04,1.84.08,3.68.12,5.51-4.13.94-8.58,2.15-13.26,3.72-3.47,1.16-8.89,2.95-11.9,4.21-.14-.25-.17-5.01,1.99-8.6Z" fill="#59a11b"/>
        <path d="M94.15,102.27s.48-4.47.6-6.39,0-4.67,0-4.67c0,0,8.51-.2,8.67-.28s-.2-5.71,0-5.79,9.55-9.31,9.75-9.35,9.27,6.67,9.39,6.91-2.36,5.03-2.08,5.47,1.24.64,1.68.6,19.14-.36,19.54-.4,1.8-4.04,1.88-4.32,2.4,3.6,2.4,3.76-.56,11.19-.56,11.19c0,0-3.6,1.96-4.28,1.84s-6.15-1.8-25.73-.84c-6.55.32-21.26,2.28-21.26,2.28Z" fill="#ffc200"/>
        <path d="M122.77,82.67c-.12-.31-9.35-7.24-9.75-7.28s-9.79,9.31-10.03,9.71c-.24.4-.36,5.27-.36,5.27l-8.27.27-.84,12.04s2.76-.24,3.84-.4c1.08-.16,12.11-1.47,12.11-1.47l.2-2.36s-5.47.36-5.67.28c-.2-.08.04-12.43.16-12.87.12-.44,9.03-8.71,9.03-8.71,0,0,6.11,4.99,6.95,5.63.84.64,1.38,1.73,1.54,2.02.16.29,1.22-1.82,1.1-2.13ZM103.2,99.28s-7.31.76-7.47.6c-.16-.16,0-7.27,0-7.79,0,0,7.15-.36,7.47-.2.32.16,0,7.39,0,7.39Z" fill="#ff9100"/>
        <path d="M143.77,83.58c-.32-.24-.76.04-.84.32-.08.28-1.16,4-1.56,4.04-.4.04-19.66.4-19.66.4l.48,9.53s-2.76.18-4.63.18h-1.88v2.2s12.79-.2,16.74,0c3.96.2,8.71.84,8.71.84l4.43-1.84.44-11.87s-1.92-3.56-2.24-3.8ZM139.61,98.44c-.36.28-4.98-.4-8.34-.44-3.36-.04-8.48.2-8.48,0v-8.03h10.2c.56,0,6.39-.4,6.47-.2.08.2.52,8.39.16,8.67Z" fill="#ff9100"/>
        <path d="M108.96,91.22c-.74,1,0,9.67,0,9.67l7.37-.56s.26-8.23,0-9.1-1.81-1.13-3.79-.95c-1.97.17-3.58.95-3.58.95Z" fill="#331006"/>
        <path d="M104.67,101.37c-5.89,1.88-21.61,6.21-18.66,14.38,2.7,7.46,30.18,13.14,26.07,21.32-3.15,6.28-23.91,11.4-31.64,13.92-7.73,2.52-31.64,9.35-32.18,8.99-.54-.36-4.4-10.79-4.85-17.8-.45-7.01-.63-17.62-.63-17.62,0,0,12.14-10.79,32.36-17.53,20.23-6.74,29.53-5.66,29.53-5.66Z" fill="#b1d008"/>
        <path d="M129.71,91.47c-.1-.04-1.87.03-2.8,0s-1.65.09-1.65.09c0,0-.03,2.12,0,3.25.03,1.12.09,1.68.09,1.68,0,0,4.3.06,4.36-.06s.1-4.91,0-4.96ZM129.2,95.86c-.05.1-3.36.05-3.36.05,0,0-.05-.46-.07-1.39-.03-.93,0-2.68,0-2.68,0,0,.56-.1,1.27-.08.71.02,2.08-.04,2.16,0,.08.04.05,4,0,4.1Z" fill="#721f01"/>
        <path d="M137.8,91.47c-.1-.04-1.87.03-2.8,0s-1.65.09-1.65.09c0,0-.03,2.12,0,3.25.03,1.12.09,1.68.09,1.68,0,0,4.3.06,4.36-.06s.1-4.91,0-4.96ZM137.29,95.86c-.05.1-3.36.05-3.36.05,0,0-.05-.46-.07-1.39-.03-.93,0-2.68,0-2.68,0,0,.56-.1,1.27-.08.71.02,2.08-.04,2.16,0,.08.04.05,4,0,4.1Z" fill="#721f01"/>
        <path d="M101.88,93.41c-.1-.04-1.87.03-2.8,0s-1.65.09-1.65.09c0,0-.03,2.12,0,3.25.03,1.12.09,1.68.09,1.68,0,0,4.3.06,4.36-.06s.1-4.91,0-4.96ZM101.38,97.8c-.05.1-3.36.05-3.36.05,0,0-.05-.46-.07-1.39-.03-.93,0-2.68,0-2.68,0,0,.56-.1,1.27-.08.71.02,2.08-.04,2.16,0,.08.04.05,4,0,4.1Z" fill="#721f01"/>
        <path d="M115.23,81.81c-.1-.04-1.87.03-2.8,0s-1.65.09-1.65.09c0,0-.03,2.12,0,3.25.03,1.12.09,1.68.09,1.68,0,0,4.3.06,4.36-.06s.1-4.91,0-4.96ZM114.72,86.2c-.05.1-3.36.05-3.36.05,0,0-.05-.46-.07-1.39-.03-.93,0-2.68,0-2.68,0,0,.56-.1,1.27-.08.71.02,2.08-.04,2.16,0,.08.04.05,4,0,4.1Z" fill="#721f01"/>
        <path d="M90.63,111.08c-3.4,7.55,13.05,13.44,15.86,14.94,2.82,1.5,11.44,3.75,12.71,8.39,1.44,5.26-16.6,12.59-24.63,15.7-8.03,3.12-43.63,13.9-43.75,14.14s1.68,2.4,4.02,5.87,12.53,11.03,16.6,13.96c4.08,2.94,30.74,14.5,31.58,14.68s14.03-5.32,23.61-10.85c10.33-5.96,22.31-12.19,33.46-31.85,5.52-9.73,3.72-24.63,3.84-26.85s-.2-4.71-.2-4.71c0,0-6.95-2.52-12.53-4.08-5.57-1.56-36.34-7.9-34.03-12.58,3.39-6.85,26.95-5.6,26.95-5.6,0,0-15.16-3.18-30.17-1-15.04,2.19-21.7,6.27-23.33,9.81Z" fill="#0f0d0e"/>
        <path d="M93.13,111.38c-2.64,6.29,11.69,11.09,14.74,12.29,2.97,1.16,16.95,4.94,17.98,9.65,1.62,7.43-19.6,15.82-27.63,18.94-8.03,3.12-41.53,14.14-41.65,14.38s8.57,10.61,17.14,15.22c4.42,2.38,28.77,13.18,29.61,13.36.84.18,12.43-3.91,21.99-9.47,10.2-5.93,16.92-10.85,28.71-25.89,11.08-14.14,9.23-27.75,9.23-27.75.71-3.82-1.92-6.41-13.18-9.59-5.57-1.57-35.84-8.39-34.04-14.56,2.14-7.34,28.1-5.69,28.1-5.69,0,0-15.01-2.36-30.02-.18-15.04,2.19-19.34,5.75-20.98,9.29Z" fill="#313131"/>
        <g>
          <path d="M118.49,103.18c.86-.08,1.93-.31,1.92-.45-.01-.13-.92-.19-1.74-.09-.84.1-1.7.38-1.68.51.02.13.98.08,1.5.03Z" fill="#fff"/>
          <path d="M112.2,105.04c.76-.13.89-.35,2.1-.72,1.04-.32,1.62-.36,1.62-.48,0-.14-.86-.24-1.62-.24-.99,0-4.15.93-4.08,1.29.05.25,1.15.29,1.98.15Z" fill="#fff"/>
          <path d="M106.69,107.65c.8-.48,2.46-1.5,2.7-1.74.22-.22-.99-.24-1.29-.15-1.21.36-2.64,1.43-2.85,1.68-.25.29,1.37.25,1.44.21Z" fill="#fff"/>
          <path d="M104.47,112.44c.18.07,1.32.1,1.2-.24-.13-.36-.31-1.16-.21-2.7.03-.53.19-.63.05-.75-.2-.19-.65-.06-.98-.08-.28-.02-.75,1.28-.78,1.59,0,.08.07,1.94.72,2.19Z" fill="#fff"/>
          <path d="M107.27,113.97c-.89-.11-1.38-.06-1.47.15-.17.42,1.23,1.48,4.2,3.18.49-.15.98-.3,1.47-.45-.74-.35-1.6-.83-2.49-1.47-.66-.48-1.23-.96-1.71-1.41Z" fill="#fff"/>
          <path d="M114.94,118.02c-.55.19-1.1.38-1.65.57.78.38,1.6.77,2.46,1.14,1.13.49,2.22.92,3.27,1.29.53-.25,1.06-.5,1.59-.75-.89-.37-1.8-.74-2.73-1.11-.99-.39-1.97-.77-2.94-1.14Z" fill="#fff"/>
          <path d="M126.45,123.14c.45-.25.9-.5,1.35-.75-.84-.23-1.68-.46-2.52-.69-.93-.26-1.86-.52-2.79-.78-.48.16-.96.32-1.44.48.71.37,1.57.75,2.58,1.08,1.05.34,2,.54,2.82.66Z" fill="#fff"/>
          <path d="M136.94,126.44c.64-.24,1.28-.48,1.92-.72-1.15-.53-2.47-1.06-3.96-1.53-1.24-.39-2.41-.68-3.48-.9-.41.31-.82.62-1.23.93,1.04.28,2.12.59,3.24.96,1.24.4,2.41.83,3.51,1.26Z" fill="#fff"/>
          <path d="M142.6,130.6c.67,1.12.93,2.17,1.05,2.85.89-.09,1.78-.18,2.67-.27-.22-.86-.77-2.5-2.19-4.02-.93-1-1.91-1.6-2.61-1.95-.49.25-.98.5-1.47.75.62.41,1.7,1.23,2.55,2.64Z" fill="#fff"/>
          <path d="M141.61,140.31c-1.17,1.83-2.44,3.22-3.51,4.23,1.11.16,2.22.32,3.33.48.83-1.01,1.75-2.28,2.61-3.84.95-1.71,1.58-3.31,2.01-4.64-.84.02-1.68.04-2.52.06-.44,1.1-1.06,2.37-1.92,3.72Z" fill="#fff"/>
          <path d="M128.58,152.48c-2.35,1.69-4.64,3.19-6.83,4.52,1.28.25,2.56.5,3.84.75,1.88-1.15,3.94-2.57,6.08-4.29,2.05-1.65,3.81-3.29,5.3-4.82-1.01-.09-2.02-.18-3.03-.27-1.66,1.35-3.44,2.73-5.36,4.11Z" fill="#fff"/>
          <path d="M109.04,164.16c-2.3,1.21-4.56,2.34-6.77,3.42,1.29.4,2.58.8,3.87,1.2,4.21-2.37,8.41-4.73,12.62-7.1-1.2-.28-2.4-.56-3.6-.84-1.97,1.11-4.01,2.22-6.11,3.33Z" fill="#fff"/>
          <path d="M75.12,180.44c1.34.7,2.68,1.4,4.02,2.1,6.64-3.43,13.28-6.85,19.93-10.28-1.26-.42-2.52-.84-3.78-1.26-6.72,3.15-13.44,6.29-20.17,9.44Z" fill="#fff"/>
        </g>
        <path d="M65.83,142.62c.44.23,2.82,1.42,5.48.45,1.38-.5,2.26-1.37,2.7-1.89-2.22-9.83-4.43-19.66-6.65-29.49,1.15-.28,3.03-.94,4.05-2.61,1.22-2.01.53-4.44.27-5.39-1.23-4.56-3.24-14.91-5.93-29.22-.12-.27-1.41-2.95-3.96-3.24-.65-.07-1.23.03-1.71.18-1.86.2-3.4.44-4.49.63-3.89.67-5.12,1.2-6.11,1.8-1.99,1.21-2.35,2.31-2.43,2.61-.3,1.06.11,2,.18,2.34.95,4.73,6.01,29.68,6.56,31.73.23.87.71,1.24,1.37,1.82,1.66,1.45,4.24.99,4.97.76,1.9,9.84,3.8,19.68,5.7,29.52Z" fill="#162336"/>
        <path d="M49.69,75.95c-.56,1.21,4.08,21.93,6.89,34.58.97,1.32,2.08,1.76,3.66,1.38.86-.21,2.17-.43,4.2-1.02,2.16-.63,4.31-1.18,5.27-1.98,1.46-1.22,1.34-1.79,1.22-2.78-.24-1.97-1.02-5.35-1.48-7.87-.11-.58-2.56-11.95-4.41-21.24-.09-.43-.23-2.87-1.08-3.78-.51-.54-1.25-.78-2.76-.84-3.2-.13-5.75.86-8.39,1.62-1.1.32-2.56.72-3.12,1.92Z" fill="#38475c"/>
        <path d="M157.18,103.84c-.49.17-4.02,1.34-7.43-.72-2.67-1.61-3.56-4.17-3.78-4.85-.15-.17-2.16-2.5-1.38-5.39.65-2.41,2.97-4.18,5.69-4.26-.63-2.38.36-4.8,2.28-5.87,2.24-1.25,4.62-.03,4.79.06,2.39-1.62,5.44-1.79,7.85-.42,3.01,1.71,3.54,4.99,3.6,5.39,2.84.19,5.23,1.97,5.99,4.43.8,2.56-.49,4.78-.72,5.15.19.46,1.14,2.84,0,5.21-1.15,2.4-3.6,3.12-4.61,3.42-2.16.63-3.95.24-6.71-.36-2.35-.51-4.25-1.22-5.57-1.8Z" fill="#59a11b"/>
        <path d="M149.39,96.23c-1.48-.78-2.13-2.54-1.56-4.02.62-1.6,2.51-2.44,4.2-1.8-.8-2.81.34-5.34,2.1-5.99,1.31-.49,2.66.2,3.06.42,1.52-1.82,3.96-2.58,6.17-1.92,2.46.74,4.17,3.09,4.14,5.75,2.71-.27,5.1,1.49,5.57,3.84.38,1.86-.5,3.87-2.22,5.03.17.7.63,2.89-.54,4.02-.56.54-1.21.55-3.66.54-6.04-.03-6.82-.11-7.97-.36-1.41-.31-2.58-.72-3.48-1.08-.34.26-1.99,1.5-4.14,1.14-.18-.03-3.26-.59-3.48-2.64-.11-1.09.63-2.23,1.8-2.94Z" fill="#b1d008"/>
        <path d="M156.52,93.42c-1.02-.54-1.89-2.17-1.86-4.14.02-1.52,1.45-3.42,3.24-3.42,1.51,0,2.5,1.37,2.64,1.56.67-1.46,2.09-2.32,3.36-2.16,1.71.22,3.19,2.31,2.58,4.61,1.68-.79,3.58-.39,4.55.84,1.26,1.58.48,3.88-.72,5.03-1.47,1.41-4.01,1.54-5.99.12-7.25,1.04-7.66-2.39-7.79-2.46Z" fill="#ecf2c0"/>
        <ellipse cx="84.87" cy="69.77" rx="7.9" ry="7.97" fill="#ffc200"/>
        <ellipse cx="60.82" cy="92.26" rx="5.55" ry="5.6" fill="#564922"/>
        <path d="M83.42,61.03s1.19-3.94,1.2-3.93l1.08,3.84s-2.28.09-2.28.09Z" fill="#ffc200"/>
        <path d="M87.01,61.24s2.69-3.11,2.7-3.09l-.58,3.94s-2.12-.85-2.12-.85Z" fill="#ffc200"/>
        <path d="M90.13,62.76s3.69-1.82,3.69-1.8l-2.07,3.4s-1.62-1.6-1.62-1.6Z" fill="#ffc200"/>
        <path d="M92.4,65.28s4.11-.28,4.1-.26l-3.21,2.36s-.89-2.1-.89-2.1Z" fill="#ffc200"/>
        <path d="M93.47,68.71s3.86,1.42,3.85,1.43l-3.89.85s.05-2.28.05-2.28Z" fill="#ffc200"/>
        <path d="M93.15,72.17s3,2.82,2.98,2.82l-3.92-.74s.93-2.08.93-2.08Z" fill="#ffc200"/>
        <path d="M91.66,75.15s1.98,3.61,1.96,3.6l-3.49-1.91s1.53-1.69,1.53-1.69Z" fill="#ffc200"/>
        <path d="M89,77.57s.34,4.1.32,4.09l-2.41-3.17s2.09-.92,2.09-.92Z" fill="#ffc200"/>
        <path d="M85.73,78.74s-1.29,3.91-1.3,3.89l-.98-3.86s2.28-.03,2.28-.03Z" fill="#ffc200"/>
        <path d="M82.34,78.59s-2.68,3.13-2.68,3.11l.56-3.95s2.12.84,2.12.84Z" fill="#ffc200"/>
        <path d="M79.14,76.96s-3.72,1.76-3.71,1.75l2.12-3.37s1.59,1.63,1.59,1.63Z" fill="#ffc200"/>
        <path d="M76.89,74.31s-4.11.17-4.1.16l3.27-2.28s.83,2.12.83,2.12Z" fill="#ffc200"/>
        <path d="M76.1,71.04s-3.96-1.14-3.94-1.15l3.82-1.13s.12,2.28.12,2.28Z" fill="#ffc200"/>
        <path d="M76.12,67.65s-3.23-2.56-3.21-2.56l3.96.41s-.75,2.15-.75,2.15Z" fill="#ffc200"/>
        <path d="M77.63,64.39s-1.9-3.65-1.89-3.65l3.45,1.99s-1.57,1.66-1.57,1.66Z" fill="#ffc200"/>
        <path d="M80.19,62.04s-.33-4.1-.32-4.09l2.4,3.18s-2.09.91-2.09.91Z" fill="#ffc200"/>
        <ellipse cx="60.82" cy="92.26" rx="4.91" ry="4.95" fill="#ffc200"/>
        <path d="M64.15,90.14c0,.86-1.5.32-3.19.32s-2.44-.29-2.44-1.15.76-1.48,2.45-1.48,3.19,1.44,3.19,2.31Z" fill="#f9df95"/>
        <ellipse cx="63.42" cy="104.49" rx="5.55" ry="5.6" fill="#2f330f"/>
        <ellipse cx="63.42" cy="104.49" rx="4.91" ry="4.95" fill="#b1d008"/>
        <path d="M66.75,102.37c0,.86-1.5.32-3.19.32s-2.44-.29-2.44-1.15.76-1.48,2.45-1.48,3.19,1.44,3.19,2.31Z" fill="#ecf2c0"/>
        <ellipse cx="58.1" cy="80.32" rx="5.55" ry="5.6" fill="#3a131d"/>
        <ellipse cx="58.1" cy="80.32" rx="4.91" ry="4.95" fill="#ff0037"/>
        <path d="M61.43,78.2c0,.86-1.5.32-3.19.32s-2.44-.29-2.44-1.15.76-1.48,2.45-1.48,3.19,1.44,3.19,2.31Z" fill="#ef7f9d"/>
        <path d="M150.41,113.07c2.18-.83,3.25-2.1,3.72-2.76.75-1.07,1.02-2.19,1.56-4.43.52-2.2.79-3.3.66-4.14-.37-2.41-2.2-4.36-3.3-5.51-.27-.29-.51-.51-.66-.66.24-.2.96-.76,1.86-.66,1.07.12,1.71,1.09,1.98,1.5.95,1.44.37,2.41,1.38,3.48.21.22.78.82,1.56.84.38,0,.83-.12,2.82-1.86,1.09-.95,1.31-1.23,1.86-1.32.93-.16,1.98.36,1.98.78,0,.31-.59.41-1.5.9-.59.32-2.23,1.32-3.06,3-.24.49-.59,1.39-.54,2.7-.53.88-1.34,2.49-1.56,4.67-.28,2.8.57,4.97,1.02,5.93-1.41,0-3.3-.13-5.45-.72-1.77-.49-3.22-1.14-4.32-1.74Z" fill="#721f01"/>
        <path d="M112.09,137.07c2.58-5.14-7.3-9.29-15.67-13.52-1.43.25-2.29,1.09-2.22,2.06.11,1.41,4.25,1.07,5.87,3.72,2.58,4.2-.5,9.54-.96,10.31-3.52,5.88-11.14,6.86-21.1,8.15-15.61,2.02-22.84-1.72-25.77-3.6-2.66-1.7-3.51-2.97-3.6-4.2-.36-5.08,12.5-9.25,13.18-9.47-.5-.58-4.08-4.56-9.83-4.43-.28,0-5.55.21-9.09,4.2.1,3.6.26,8.23.5,11.89.45,7.01,4.32,17.44,4.85,17.8.54.36,24.45-6.47,32.18-8.99,7.73-2.52,28.49-7.64,31.64-13.92Z" fill="#59a11b"/>
        <path d="M109.23,91.56c-.68.92,0,8.91,0,8.91l6.79-.52s.24-7.59,0-8.39-1.67-1.04-3.49-.88-3.3.88-3.3.88Z" fill="#721f01"/>
        <path d="M114.46,96.08c-.63-.21-.78.9-.21,1.02s.93-.78.21-1.02Z" fill="#f9df95"/>
        <path d="M103.47,91.17s-8.87.6-9.23.28-.68-.7-.26-1.24,3.92-4.49,4.19-4.82.54-.72.75-.72,4.55.09,4.7.42.18,5.72-.15,6.08Z" fill="#8d0800"/>
        <path d="M98.96,85.15c-.51.36-4.2,4.47-3.56,4.51s7.23.04,7.39-.24.72-3.24.36-3.72-3.52-1.04-4.2-.56Z" fill="#bc1713"/>
        <path d="M114.72,86.2c-.05.1-3.36.05-3.36.05,0,0-.05-.46-.07-1.39-.03-.93,0-2.68,0-2.68,0,0,.56-.1,1.27-.08.71.02,2.08-.04,2.16,0,.08.04.05,4,0,4.1Z" fill="#d8f0fa"/>
        <path d="M129.2,95.86c-.05.1-3.36.05-3.36.05,0,0-.05-.46-.07-1.39-.03-.93,0-2.68,0-2.68,0,0,.56-.1,1.27-.08.71.02,2.08-.04,2.16,0,.08.04.05,4,0,4.1Z" fill="#d8f0fa"/>
        <path d="M137.29,95.86c-.05.1-3.36.05-3.36.05,0,0-.05-.46-.07-1.39-.03-.93,0-2.68,0-2.68,0,0,.56-.1,1.27-.08.71.02,2.08-.04,2.16,0,.08.04.05,4,0,4.1Z" fill="#d8f0fa"/>
        <path d="M101.38,97.8c-.05.1-3.36.05-3.36.05,0,0-.05-.46-.07-1.39-.03-.93,0-2.68,0-2.68,0,0,.56-.1,1.27-.08.71.02,2.08-.04,2.16,0,.08.04.05,4,0,4.1Z" fill="#d8f0fa"/>
      </g>
      <g>
        <g>
          <path d="M171.54,134.67c-.68-1.14-19.06-.56-28.21,0-18.66,1.14-38.22,4.55-40.27,4.55-5.69,0-18.43-2.73-36.4-5.23-17.97-2.5-34.13,0-35.72,1.14-1.59,1.14-.46,2.96-.46,14.56s2.05,19.11,2.05,19.11l6.94,2.89,3.07,8.48s31.62,3.41,54.15,3.64c22.52.23,60.74-2.05,61.43-2.28.68-.23,5.69-10.92,5.69-10.92,0,0-.73-.16-2.16-.42,4.67-.6,7.8-1.1,8.3-1.4,2.28-1.37,1.14-4.32,1.59-10.92.46-6.6.68-22.07,0-23.21Z" fill="#fafffe"/>
          <path d="M100.05,187.89c-1.16,0-2.29,0-3.4-.02-22.46-.23-54.22-3.63-54.54-3.66l-2.52-.27-3.32-9.19-7.13-2.97-.52-1.92c-.09-.33-2.19-8.17-2.19-20.18,0-4.35-.16-7.24-.28-9.34-.1-1.86-.17-3.09-.05-4.18.21-1.86,1.05-3.33,2.48-4.35.73-.52,1.89-1.09,5.38-1.7,2.38-.42,5.29-.76,8.41-.98,5.74-.4,14.71-.59,24.85.83,7.38,1.03,13.74,2.07,19.36,2.99,7.48,1.23,13.4,2.2,16.45,2.2.6-.03,3.21-.4,5.73-.75,7.93-1.12,21.22-2.99,34.33-3.79,4.05-.25,11.05-.56,17.48-.64,3.24-.04,5.85-.01,7.77.08,1.17.06,2.09.14,2.81.25.76.12,2.78.44,3.89,2.27.6,1,.81,2.15.93,5.11.07,1.68.09,3.95.08,6.56-.03,4.96-.2,10.55-.44,13.91-.14,1.98-.12,3.6-.1,5.02.02,1.73.04,3.09-.23,4.42-.42,2.08-1.5,3.65-3.22,4.68-.6.36-1.14.68-5.14,1.3-.5,1.04-1.25,2.62-2.04,4.22-.8,1.62-1.47,2.93-2,3.89-.92,1.68-1.71,3.12-3.46,3.71-.58.19-.8.27-7.76.68-4.66.28-10.3.57-15.86.83-10.16.46-24.18.99-35.73.99ZM45.5,176.4c7.91.8,32.82,3.17,51.24,3.36,19.43.2,51.23-1.53,59.07-2.08.53-.99,1.27-2.43,2.05-4.03l-22.85-4.13,26.13-3.34c3.38-.43,5.24-.73,6.23-.91.02-.57.01-1.33,0-1.99-.02-1.5-.04-3.37.12-5.68.37-5.41.52-14.88.36-19.43-1.59-.08-4.27-.12-8.73-.04-4.85.09-10.95.33-15.54.61-12.8.78-25.88,2.62-33.69,3.72-4.39.62-5.96.83-6.82.83-3.7,0-9.61-.97-17.8-2.31-5.57-.91-11.88-1.95-19.16-2.96-8.98-1.25-16.98-1.14-22.12-.84-4.7.28-8.03.79-9.8,1.17.02.47.05,1.01.08,1.55.12,2.08.29,5.22.29,9.79,0,7.59.93,13.36,1.49,16.17l6.65,2.77,2.81,7.77ZM168.45,165.04s0,0,0,0c0,0,0,0,0,0ZM32.85,138.7s0,0,0,0c0,0,0,0,0,0ZM167.68,135.85h0s0,0,0,0Z" fill="#fafffe"/>
        </g>
        <path d="M43.46,173.35l-10.92-4.55s-2.05-7.51-2.05-19.11-1.14-13.42.46-14.56,17.75-3.64,35.72-1.14c17.97,2.5,30.71,5.23,36.4,5.23,2.05,0,21.61-3.41,40.27-4.55,9.15-.56,27.53-1.14,28.21,0s.46,16.61,0,23.21.68,9.56-1.59,10.92-57.79,6.83-68.48,6.37-54.37.91-58.01-1.82Z" fill="#045b24"/>
        <g>
          <path d="M48.1,159.83c0,.63-.77,1.03-1.54,1.03-1.96,0-3.41-.57-4.77-3.29-.59-1.22-1.54-5.09-2.02-7.07h-.39v6.75c0,2.18,1.22,1.96,1.22,2.58s-.5,1.03-1.27,1.03h-4.21c-.77,0-1.27-.41-1.27-1.03s1.19-.41,1.19-2.58v-11.78c0-2.18-1.19-1.99-1.19-2.58s.5-1.03,1.27-1.03h7.82c1.51,0,4,.9,4,4.46,0,2.37-1.45,3.54-3.65,3.97.5,1.58,2.07,6.2,2.93,7.64,1.04,1.74,1.87,1.28,1.87,1.9ZM40.75,143.72h-1.36v5.39c4.06-.11,4.48-2.18,4.48-3.05,0-2.09-1.9-2.34-3.11-2.34Z" fill="#fafffe"/>
          <path d="M62.8,159.8c0,.63-.5,1.03-1.27,1.03-1.72,0-3.7-.49-4.18-2.61-.92,1.17-2.49,2.61-4.48,2.61-2.73,0-3.47-3.26-3.47-4.57v-5.6c0-2.18-1.19-1.99-1.19-2.61s.5-1.01,1.27-1.01c1.96,0,4.27.63,4.27,3.62v5.6c0,1.2.71,1.9,1.24,1.9,1.01,0,2.04-1.85,2.22-3.59v-3.94c0-2.18-1.19-1.99-1.19-2.58s.5-1.03,1.27-1.03h4.21c.77,0,1.27.41,1.27,1.03s-1.19.41-1.19,2.58v6.56h-.06l.06.03c0,2.18,1.19,1.99,1.19,2.58Z" fill="#fafffe"/>
          <path d="M77.29,159.8c0,.63-.5,1.03-1.27,1.03-1.87,0-4.06-.6-4.27-3.26-.83,1.55-3.14,3.37-4.68,3.37-1.93,0-3.23-1.22-3.23-3.59,0-3.02,3.76-6.15,7.88-4.38-.09-2.29-.59-4.33-1.75-4.33-1.75,0-.89,2.5-1.54,3.18-1.04,1.03-4.56-.57-3.88-2.07,1.16-2.5,3.05-2.99,5.42-2.99,3.91,0,6.13,2.97,6.13,7.13v3.29h-.06l.06.03c0,2.18,1.19,1.99,1.19,2.58ZM71.75,154.11c-4.71-1.41-4.33,4.3-3.05,4.3,1.75,0,3.05-2.72,3.05-4.3Z" fill="#fafffe"/>
          <path d="M89.01,159.67c0,.38-.31.63-.78.63-1.03,0-2.21-.3-2.53-1.51-.56.7-1.52,1.6-2.75,1.6-2.41,0-2.32-3.12-2.32-3.92s.33-4.6,2.77-4.6c1.03,0,1.76.62,2.21,1.21v-2.16c0-1.33-.72-1.2-.72-1.58s.31-.63.78-.63c1.2,0,2.61.4,2.61,2.21v7.18c0,1.33.74,1.2.74,1.58ZM85.61,155.32c-.07-.95-.38-1.71-.94-1.71-.47,0-1.14.43-1.3,2.71-.09,1.03.24,2.38.89,2.38.58,0,1.23-1.03,1.36-2.04v-1.33Z" fill="#fafffe"/>
          <path d="M96.89,156.08c0,2.54-1.36,4.35-3.73,4.35s-3.75-1.81-3.75-4.35,1.36-4.35,3.75-4.35,3.73,1.81,3.73,4.35ZM94.46,156.08c0-1.6-.51-3.21-1.3-3.21s-1.3,1.61-1.3,3.21.51,3.19,1.3,3.19,1.3-1.6,1.3-3.19Z" fill="#fafffe"/>
          <path d="M109.47,149.79c3.94,2.07,5.66,4.35,4.39,7.59-1.54,3.86-6.94,3.65-7.85,3.65-1.54-.03-4.65-.57-5.81-1.71-1.13-1.12,1.39-5.88,2.87-4.87,1.07.73.98,3.73,3.5,3.73,3.23,0,4.53-2.56-1.33-6.01-4.68-2.75-4.89-5.77-3.97-7.56,1.57-3.02,5.28-2.99,6.19-2.97,1.54.03,3.7.54,4.89,1.71,1.1,1.09-2.04,3.62-3.05,2.67-1.16-1.12-1.48-2.09-2.9-2.12-1.48-.03-1.78,3.35,3.08,5.9Z" fill="#fafffe"/>
          <path d="M127.7,159.8c0,.63-.5,1.03-1.27,1.03-1.87,0-4.06-.6-4.27-3.26-.83,1.55-3.14,3.37-4.68,3.37-1.93,0-3.23-1.22-3.23-3.59,0-3.02,3.76-6.15,7.88-4.38-.09-2.29-.59-4.33-1.75-4.33-1.75,0-.89,2.5-1.54,3.18-1.04,1.03-4.56-.57-3.88-2.07,1.16-2.5,3.05-2.99,5.42-2.99,3.91,0,6.13,2.97,6.13,7.13v3.29h-.06l.06.03c0,2.18,1.19,1.99,1.19,2.58ZM122.15,154.11c-4.71-1.41-4.33,4.3-3.05,4.3,1.75,0,3.05-2.72,3.05-4.3Z" fill="#fafffe"/>
          <path d="M142.1,153.41c0,1.31-.5,7.54-4.5,7.54-1.87,0-3.14-1.22-3.88-2.31-.62,1.74-2.46,2.18-4.03,2.18-.77,0-1.27-.41-1.27-1.03s1.19-.41,1.19-2.58v-11.75c0-2.18-1.19-1.96-1.19-2.58s.5-1.03,1.27-1.03c1.96,0,4.27.65,4.27,3.62v4.03c.95-1.14,2.46-2.48,4.39-2.48,3.94,0,3.76,5.14,3.76,6.42ZM137.65,152.75c0-1.69-.98-2.91-1.51-2.91-.98,0-1.96,1.61-2.19,3.26v2.45c.12,1.41.47,2.61,1.39,2.61s2.31-1.85,2.31-5.41Z" fill="#fafffe"/>
          <path d="M155.55,156.07c0,2.64-2.02,4.95-5.54,4.95-3.91,0-6.64-2.97-6.64-7.13s2.22-7.13,6.13-7.13c2.34,0,3.82.79,4.98,2.67.59.92.8,2.88-.27,2.88h-6.76c-.06.52-.09,1.03-.09,1.58,0,2.61,1.78,3.56,2.85,3.56,1.51,0,3.05-.9,3.05-3.84,0-.71,2.28.08,2.28,2.45ZM147.58,151.53h3.32c.03-.9.3-2.88-1.39-2.88-.92,0-1.57,1.25-1.93,2.88Z" fill="#fafffe"/>
          <path d="M165.6,152.7c-.68-.68.21-4.05-1.54-4.05-1.13,0-1.9,1.9-2.1,4.08v4.49c0,2.18,1.22,1.99,1.22,2.58s-.5,1.03-1.27,1.03h-4.21c-.77,0-1.27-.41-1.27-1.03s1.19-.41,1.19-2.58v-6.56h.03-.03c0-2.18-1.19-1.99-1.19-2.61s.5-1.01,1.27-1.01c1.33,0,2.85.3,3.67,1.44.62-1.09,1.69-1.71,3.02-1.71,3.02,0,3.94,1.36,5.07,3.86.68,1.5-2.85,3.07-3.85,2.07Z" fill="#fafffe"/>
        </g>
        <path d="M38.68,169.48l3.87,10.69s31.62,3.41,54.15,3.64c22.52.23,60.74-2.05,61.43-2.28s5.69-10.92,5.69-10.92c0,0-23.21-5.01-64.61-5.01s-60.52,3.87-60.52,3.87Z" fill="#ff9100"/>
      </g>
    </g>
    <g>
      <g>
        <rect x="18.3" y="417.41" width="175.32" height="203.53" rx="13.04" ry="13.04" fill="#1a2a3d"/>
        <path d="M180.59,621.28H31.35c-7.38,0-13.38-6-13.38-13.38v-177.44c0-7.38,6-13.38,13.38-13.38h149.24c7.38,0,13.38,6,13.38,13.38v177.44c0,7.38-6,13.38-13.38,13.38ZM31.35,417.75c-7,0-12.7,5.7-12.7,12.7v177.44c0,7,5.7,12.7,12.7,12.7h149.24c7,0,12.7-5.7,12.7-12.7v-177.44c0-7-5.7-12.7-12.7-12.7H31.35Z" fill="#7dabe2"/>
      </g>
      <g>
        <path d="M44.94,443.98c0,.99-.17,1.85-.5,2.59s-.8,1.3-1.42,1.69c-.61.39-1.32.58-2.14.58s-1.5-.2-2.12-.59c-.62-.39-1.09-.95-1.43-1.67-.34-.72-.51-1.56-.52-2.52v-.73c0-.97.17-1.83.51-2.57.34-.74.82-1.31,1.43-1.71.62-.4,1.32-.59,2.12-.59s1.52.2,2.14.59c.62.39,1.09.96,1.43,1.7s.5,1.61.5,2.59v.64ZM43.62,443.33c0-1.2-.24-2.12-.72-2.76-.48-.64-1.15-.96-2.02-.96s-1.5.32-1.99.96c-.48.64-.73,1.53-.75,2.67v.74c0,1.16.24,2.07.73,2.74.49.66,1.16,1,2.02,1s1.53-.31,2-.94c.47-.63.71-1.53.73-2.7v-.75Z" fill="#fff"/>
        <path d="M48.13,448.71h-1.28v-10.66h1.28v10.66Z" fill="#fff"/>
        <path d="M54.82,448.71c-.07-.15-.13-.41-.18-.79-.6.62-1.31.93-2.14.93-.74,0-1.35-.21-1.82-.63-.47-.42-.71-.95-.71-1.59,0-.78.3-1.39.89-1.82.59-.43,1.43-.65,2.51-.65h1.25v-.59c0-.45-.13-.81-.4-1.07-.27-.27-.66-.4-1.19-.4-.46,0-.84.12-1.15.35-.31.23-.46.51-.46.84h-1.29c0-.37.13-.74.4-1.09.27-.35.63-.63,1.08-.83s.96-.31,1.5-.31c.87,0,1.54.22,2.03.65.49.43.74,1.03.76,1.79v3.46c0,.69.09,1.24.26,1.64v.11h-1.35ZM52.69,447.73c.4,0,.78-.1,1.15-.31.36-.21.62-.48.78-.81v-1.54h-1.01c-1.57,0-2.36.46-2.36,1.38,0,.4.13.72.4.94.27.23.61.34,1.03.34ZM53.88,438.05h1.55l-1.86,2.04h-1.03s1.34-2.04,1.34-2.04Z" fill="#fff"/>
        <path d="M58.06,448.05c0-.21.06-.39.19-.53.13-.14.32-.21.57-.21s.44.07.57.21c.13.14.19.32.19.53s-.06.38-.19.52c-.13.14-.32.21-.57.21s-.44-.07-.57-.21c-.13-.14-.19-.31-.19-.52ZM59.36,445.84h-1.16l-.09-7.24h1.35l-.1,7.24Z" fill="#fff"/>
        <path d="M40.15,461.26c-1.14-.33-1.97-.73-2.49-1.21s-.78-1.07-.78-1.77c0-.8.32-1.45.95-1.97.64-.52,1.46-.78,2.48-.78.69,0,1.31.13,1.86.4.54.27.96.64,1.26,1.11.3.47.45.99.45,1.55h-1.34c0-.61-.19-1.09-.58-1.44-.39-.35-.94-.53-1.64-.53-.66,0-1.17.14-1.54.43-.37.29-.55.69-.55,1.21,0,.41.17.76.52,1.05.35.29.94.54,1.78.78.84.24,1.5.5,1.97.78.47.28.83.62,1.05,1,.23.38.34.83.34,1.34,0,.82-.32,1.47-.96,1.97-.64.49-1.49.74-2.56.74-.69,0-1.34-.13-1.94-.4-.6-.27-1.07-.63-1.39-1.09-.33-.46-.49-.99-.49-1.58h1.34c0,.61.23,1.09.68,1.45.45.35,1.05.53,1.81.53.7,0,1.24-.14,1.62-.43.37-.29.56-.68.56-1.17s-.17-.88-.52-1.15c-.35-.27-.98-.54-1.89-.8Z" fill="#fff"/>
        <path d="M48.52,465.9c-1.02,0-1.85-.33-2.48-1-.64-.67-.96-1.56-.96-2.68v-.24c0-.74.14-1.41.43-2,.28-.58.68-1.04,1.19-1.37.51-.33,1.07-.5,1.66-.5.98,0,1.74.32,2.28.96.54.64.81,1.56.81,2.76v.53h-5.09c.02.74.24,1.34.65,1.79.41.46.94.68,1.58.68.45,0,.84-.09,1.15-.28.31-.19.59-.43.83-.74l.78.61c-.63.97-1.57,1.45-2.83,1.45ZM48.36,459.17c-.52,0-.95.19-1.3.57-.35.38-.57.91-.65,1.59h3.76v-.1c-.04-.65-.21-1.16-.53-1.52-.32-.36-.74-.54-1.28-.54Z" fill="#fff"/>
        <path d="M57.57,465.02c-.5.59-1.23.88-2.2.88-.8,0-1.41-.23-1.83-.7-.42-.46-.63-1.15-.64-2.06v-4.89h1.28v4.85c0,1.14.46,1.71,1.39,1.71.98,0,1.63-.37,1.96-1.1v-5.46h1.28v7.51h-1.22l-.03-.74Z" fill="#fff"/>
        <path d="M70.63,462.09c0,1.14-.26,2.06-.78,2.76-.52.7-1.23,1.05-2.12,1.05s-1.63-.29-2.15-.87v3.62h-1.28v-10.4h1.17l.06.83c.52-.65,1.25-.97,2.18-.97s1.62.34,2.14,1.02c.53.68.79,1.63.79,2.84v.12ZM69.34,461.94c0-.85-.18-1.52-.54-2.01-.36-.49-.86-.74-1.49-.74-.78,0-1.36.34-1.75,1.03v3.59c.38.69.97,1.03,1.76,1.03.62,0,1.1-.24,1.47-.73.36-.49.54-1.21.54-2.17Z" fill="#fff"/>
        <path d="M75.89,459.4c-.19-.03-.4-.05-.63-.05-.84,0-1.41.36-1.71,1.08v5.33h-1.28v-7.51h1.25l.02.87c.42-.67,1.02-1.01,1.79-1.01.25,0,.44.03.57.1v1.19Z" fill="#fff"/>
        <path d="M76.59,461.94c0-.74.14-1.4.43-1.99.29-.59.69-1.04,1.21-1.36.52-.32,1.1-.48,1.77-.48,1.02,0,1.85.35,2.48,1.06.63.71.95,1.65.95,2.83v.09c0,.73-.14,1.39-.42,1.97-.28.58-.68,1.03-1.2,1.36-.52.32-1.12.49-1.79.49-1.02,0-1.84-.35-2.47-1.06-.63-.71-.95-1.64-.95-2.81v-.09ZM77.88,462.09c0,.83.19,1.5.58,2.01.39.5.9.76,1.55.76s1.17-.26,1.55-.77c.38-.51.58-1.23.58-2.15,0-.82-.2-1.49-.59-2-.39-.51-.91-.77-1.56-.77s-1.15.25-1.53.76-.58,1.23-.58,2.17Z" fill="#fff"/>
        <path d="M85.66,465.76v-6.52h-1.19v-.99h1.19v-.77c0-.8.22-1.43.65-1.87.43-.44,1.04-.66,1.83-.66.3,0,.59.04.88.12l-.07,1.04c-.22-.04-.45-.06-.69-.06-.42,0-.74.12-.96.37-.23.24-.34.59-.34,1.05v.79h1.6v.99h-1.6v6.52h-1.28Z" fill="#fff"/>
        <path d="M92.91,465.9c-1.02,0-1.85-.33-2.48-1-.64-.67-.96-1.56-.96-2.68v-.24c0-.74.14-1.41.43-2,.28-.58.68-1.04,1.19-1.37.51-.33,1.07-.5,1.66-.5.98,0,1.74.32,2.28.96.54.64.81,1.56.81,2.76v.53h-5.09c.02.74.24,1.34.65,1.79.41.46.94.68,1.58.68.45,0,.84-.09,1.15-.28.31-.19.59-.43.83-.74l.78.61c-.63.97-1.57,1.45-2.83,1.45ZM92.76,459.17c-.52,0-.95.19-1.3.57-.35.38-.57.91-.65,1.59h3.76v-.1c-.04-.65-.21-1.16-.53-1.52-.32-.36-.74-.54-1.28-.54Z" fill="#fff"/>
        <path d="M101.7,463.77c0-.35-.13-.62-.39-.81-.26-.19-.72-.36-1.37-.5-.65-.14-1.17-.31-1.55-.5-.38-.19-.66-.43-.85-.69-.18-.27-.27-.59-.27-.96,0-.62.26-1.14.78-1.56s1.19-.64,2-.64c.85,0,1.54.22,2.07.66.53.44.79,1,.79,1.69h-1.29c0-.35-.15-.65-.45-.91-.3-.25-.67-.38-1.13-.38s-.83.1-1.1.31-.4.47-.4.8c0,.31.12.54.37.7s.69.31,1.33.45,1.16.31,1.56.51c.4.2.69.44.88.72.19.28.29.62.29,1.02,0,.67-.27,1.21-.8,1.61-.54.41-1.23.61-2.09.61-.6,0-1.13-.11-1.6-.32-.46-.21-.83-.51-1.09-.89-.26-.38-.39-.79-.39-1.24h1.28c.02.43.2.77.52,1.02s.75.38,1.27.38c.49,0,.88-.1,1.17-.29.29-.2.44-.46.44-.79Z" fill="#fff"/>
        <path d="M109.03,463.77c0-.35-.13-.62-.39-.81-.26-.19-.72-.36-1.37-.5-.65-.14-1.17-.31-1.55-.5-.38-.19-.66-.43-.85-.69-.18-.27-.27-.59-.27-.96,0-.62.26-1.14.78-1.56s1.19-.64,2-.64c.85,0,1.54.22,2.07.66.53.44.79,1,.79,1.69h-1.29c0-.35-.15-.65-.45-.91-.3-.25-.67-.38-1.13-.38s-.83.1-1.1.31-.4.47-.4.8c0,.31.12.54.37.7s.69.31,1.33.45,1.16.31,1.56.51c.4.2.69.44.88.72.19.28.29.62.29,1.02,0,.67-.27,1.21-.8,1.61-.54.41-1.23.61-2.09.61-.6,0-1.13-.11-1.6-.32-.46-.21-.83-.51-1.09-.89-.26-.38-.39-.79-.39-1.24h1.28c.02.43.2.77.52,1.02s.75.38,1.27.38c.49,0,.88-.1,1.17-.29.29-.2.44-.46.44-.79Z" fill="#fff"/>
        <path d="M111.65,461.94c0-.74.14-1.4.43-1.99.29-.59.69-1.04,1.21-1.36.52-.32,1.1-.48,1.77-.48,1.02,0,1.85.35,2.48,1.06.63.71.95,1.65.95,2.83v.09c0,.73-.14,1.39-.42,1.97-.28.58-.68,1.03-1.2,1.36-.52.32-1.12.49-1.79.49-1.02,0-1.84-.35-2.47-1.06-.63-.71-.95-1.64-.95-2.81v-.09ZM112.94,462.09c0,.83.19,1.5.58,2.01.39.5.9.76,1.55.76s1.17-.26,1.55-.77c.38-.51.58-1.23.58-2.15,0-.82-.2-1.49-.59-2-.39-.51-.91-.77-1.56-.77s-1.15.25-1.53.76-.58,1.23-.58,2.17Z" fill="#fff"/>
        <path d="M123.72,459.4c-.19-.03-.4-.05-.63-.05-.84,0-1.41.36-1.71,1.08v5.33h-1.28v-7.51h1.25l.02.87c.42-.67,1.02-1.01,1.79-1.01.25,0,.44.03.57.1v1.19Z" fill="#fff"/>
        <path d="M129.74,458.25v8.38c0,1.44-.65,2.17-1.96,2.17-.28,0-.54-.04-.78-.12v-1.02c.15.04.34.06.58.06.29,0,.51-.08.66-.23.15-.16.22-.42.22-.81v-8.41h1.28ZM128.33,456.26c0-.2.06-.38.19-.52.13-.15.31-.22.56-.22s.44.07.57.22c.13.14.19.32.19.53s-.07.38-.19.52c-.13.14-.32.21-.57.21s-.44-.07-.56-.21-.19-.31-.19-.52Z" fill="#fff"/>
        <path d="M136.45,465.76c-.07-.15-.13-.41-.18-.79-.6.62-1.31.93-2.14.93-.74,0-1.35-.21-1.82-.63-.47-.42-.71-.95-.71-1.59,0-.78.3-1.39.89-1.82.59-.43,1.43-.65,2.51-.65h1.25v-.59c0-.45-.13-.81-.4-1.07-.27-.27-.66-.4-1.19-.4-.46,0-.84.12-1.15.35-.31.23-.46.51-.46.84h-1.29c0-.38.13-.74.4-1.09.27-.35.63-.63,1.08-.83.46-.2.96-.31,1.5-.31.87,0,1.54.22,2.03.65.49.43.74,1.03.76,1.79v3.46c0,.69.09,1.24.26,1.64v.11h-1.35ZM134.32,464.78c.4,0,.78-.1,1.15-.31.36-.21.62-.48.78-.81v-1.54h-1.01c-1.57,0-2.36.46-2.36,1.38,0,.4.13.72.4.94.27.23.61.34,1.03.34ZM135.5,455.1h1.55l-1.86,2.04h-1.03s1.34-2.04,1.34-2.04Z" fill="#fff"/>
        <path d="M41.61,482.81c-.07-.15-.13-.41-.18-.79-.6.62-1.31.93-2.14.93-.74,0-1.35-.21-1.82-.63-.47-.42-.71-.95-.71-1.59,0-.78.3-1.39.89-1.82.59-.43,1.43-.65,2.51-.65h1.25v-.59c0-.45-.13-.81-.4-1.07-.27-.27-.66-.4-1.19-.4-.46,0-.84.12-1.15.35-.31.23-.46.51-.46.84h-1.29c0-.38.13-.74.4-1.09.27-.35.63-.63,1.08-.83.46-.2.96-.31,1.5-.31.87,0,1.54.22,2.03.65.49.43.74,1.03.76,1.79v3.46c0,.69.09,1.24.26,1.64v.11h-1.35ZM39.47,481.84c.4,0,.78-.1,1.15-.31.36-.21.62-.48.78-.81v-1.54h-1.01c-1.57,0-2.36.46-2.36,1.38,0,.4.13.72.4.94.27.23.61.34,1.03.34Z" fill="#fff"/>
        <path d="M51.04,479.14c0,1.14-.26,2.06-.78,2.76-.52.7-1.23,1.05-2.12,1.05s-1.63-.29-2.15-.87v3.62h-1.28v-10.4h1.17l.06.83c.52-.65,1.25-.97,2.18-.97s1.62.34,2.14,1.02c.53.68.79,1.63.79,2.84v.12ZM49.76,479c0-.85-.18-1.52-.54-2.01-.36-.49-.86-.74-1.49-.74-.78,0-1.36.34-1.75,1.03v3.59c.38.69.97,1.03,1.76,1.03.62,0,1.1-.24,1.47-.73.36-.49.54-1.21.54-2.17Z" fill="#fff"/>
        <path d="M56.3,476.46c-.19-.03-.4-.05-.63-.05-.84,0-1.41.36-1.71,1.08v5.33h-1.28v-7.51h1.25l.02.87c.42-.67,1.02-1.01,1.79-1.01.25,0,.44.03.57.1v1.19Z" fill="#fff"/>
        <path d="M60.47,482.95c-1.02,0-1.85-.33-2.48-1-.64-.67-.96-1.56-.96-2.68v-.24c0-.74.14-1.41.43-2,.28-.58.68-1.04,1.19-1.37.51-.33,1.07-.5,1.66-.5.98,0,1.74.32,2.28.96.54.64.81,1.56.81,2.76v.53h-5.09c.02.74.24,1.34.65,1.79.41.46.94.68,1.58.68.45,0,.84-.09,1.15-.28.31-.19.59-.43.83-.74l.78.61c-.63.97-1.57,1.45-2.83,1.45ZM60.31,476.22c-.52,0-.95.19-1.3.57-.35.38-.57.91-.65,1.59h3.76v-.1c-.04-.65-.21-1.16-.53-1.52-.32-.36-.74-.54-1.28-.54Z" fill="#fff"/>
        <path d="M69.25,480.82c0-.35-.13-.62-.39-.81-.26-.19-.72-.36-1.37-.5-.65-.14-1.17-.31-1.55-.5-.38-.19-.66-.43-.85-.69-.18-.27-.27-.59-.27-.96,0-.62.26-1.14.78-1.56s1.19-.64,2-.64c.85,0,1.54.22,2.07.66.53.44.79,1,.79,1.69h-1.29c0-.35-.15-.65-.45-.91-.3-.25-.67-.38-1.13-.38s-.83.1-1.1.31-.4.47-.4.8c0,.31.12.54.37.7s.69.31,1.33.45,1.16.31,1.56.51c.4.2.69.44.88.72.19.28.29.62.29,1.02,0,.67-.27,1.21-.8,1.61-.54.41-1.23.61-2.09.61-.6,0-1.13-.11-1.6-.32-.46-.21-.83-.51-1.09-.89-.26-.38-.39-.79-.39-1.24h1.28c.02.43.2.77.52,1.02s.75.38,1.27.38c.49,0,.88-.1,1.17-.29.29-.2.44-.46.44-.79Z" fill="#fff"/>
        <path d="M75.32,482.95c-1.02,0-1.85-.33-2.48-1-.64-.67-.96-1.56-.96-2.68v-.24c0-.74.14-1.41.43-2,.28-.58.68-1.04,1.19-1.37.51-.33,1.07-.5,1.66-.5.98,0,1.74.32,2.28.96.54.64.81,1.56.81,2.76v.53h-5.09c.02.74.24,1.34.65,1.79.41.46.94.68,1.58.68.45,0,.84-.09,1.15-.28.31-.19.59-.43.83-.74l.78.61c-.63.97-1.57,1.45-2.83,1.45ZM75.16,476.22c-.52,0-.95.19-1.3.57-.35.38-.57.91-.65,1.59h3.76v-.1c-.04-.65-.21-1.16-.53-1.52-.32-.36-.74-.54-1.28-.54Z" fill="#fff"/>
        <path d="M80.95,475.31l.04.94c.57-.72,1.32-1.08,2.25-1.08,1.59,0,2.39.9,2.4,2.69v4.96h-1.28v-4.97c0-.54-.13-.94-.37-1.2-.24-.26-.62-.39-1.13-.39-.42,0-.78.11-1.1.33-.32.22-.56.51-.74.87v5.35h-1.28v-7.51h1.21Z" fill="#fff"/>
        <path d="M89.32,473.49v1.82h1.4v.99h-1.4v4.66c0,.3.06.53.19.68s.34.23.64.23c.15,0,.35-.03.61-.08v1.04c-.34.09-.67.14-.99.14-.57,0-1.01-.17-1.3-.52-.29-.35-.44-.84-.44-1.48v-4.66h-1.37v-.99h1.37v-1.82h1.28Z" fill="#fff"/>
        <path d="M91.74,478.99c0-.74.14-1.4.43-1.99.29-.59.69-1.04,1.21-1.36.52-.32,1.1-.48,1.77-.48,1.02,0,1.85.35,2.48,1.06.63.71.95,1.65.95,2.83v.09c0,.73-.14,1.39-.42,1.97-.28.58-.68,1.03-1.2,1.36-.52.32-1.12.49-1.79.49-1.02,0-1.84-.35-2.47-1.06-.63-.71-.95-1.64-.95-2.81v-.09ZM93.03,479.14c0,.83.19,1.5.58,2.01.39.5.9.76,1.55.76s1.17-.26,1.55-.77c.38-.51.58-1.23.58-2.15,0-.82-.2-1.49-.59-2-.39-.51-.91-.77-1.56-.77s-1.15.25-1.53.76-.58,1.23-.58,2.17Z" fill="#fff"/>
        <path d="M104.82,482.07c-.5.59-1.23.88-2.2.88-.8,0-1.41-.23-1.83-.7-.42-.46-.63-1.15-.64-2.06v-4.89h1.28v4.85c0,1.14.46,1.71,1.39,1.71.98,0,1.63-.37,1.96-1.1v-5.46h1.28v7.51h-1.22l-.03-.74Z" fill="#fff"/>
        <path d="M111.2,478.99c0-.74.14-1.4.43-1.99.29-.59.69-1.04,1.21-1.36.52-.32,1.1-.48,1.77-.48,1.02,0,1.85.35,2.48,1.06.63.71.95,1.65.95,2.83v.09c0,.73-.14,1.39-.42,1.97-.28.58-.68,1.03-1.2,1.36-.52.32-1.12.49-1.79.49-1.02,0-1.84-.35-2.47-1.06-.63-.71-.95-1.64-.95-2.81v-.09ZM112.49,479.14c0,.83.19,1.5.58,2.01.39.5.9.76,1.55.76s1.17-.26,1.55-.77c.38-.51.58-1.23.58-2.15,0-.82-.2-1.49-.59-2-.39-.51-.91-.77-1.56-.77s-1.15.25-1.53.76-.58,1.23-.58,2.17Z" fill="#fff"/>
        <path d="M124.91,473.49v1.82h1.4v.99h-1.4v4.66c0,.3.06.53.19.68s.34.23.64.23c.15,0,.35-.03.61-.08v1.04c-.34.09-.67.14-.99.14-.57,0-1.01-.17-1.3-.52-.29-.35-.44-.84-.44-1.48v-4.66h-1.37v-.99h1.37v-1.82h1.28Z" fill="#fff"/>
        <path d="M130.92,482.95c-1.02,0-1.85-.33-2.48-1-.64-.67-.96-1.56-.96-2.68v-.24c0-.74.14-1.41.43-2,.28-.58.68-1.04,1.19-1.37.51-.33,1.07-.5,1.66-.5.98,0,1.74.32,2.28.96.54.64.81,1.56.81,2.76v.53h-5.09c.02.74.24,1.34.65,1.79.41.46.94.68,1.58.68.45,0,.84-.09,1.15-.28.31-.19.59-.43.83-.74l.78.61c-.63.97-1.57,1.45-2.83,1.45ZM130.76,476.22c-.52,0-.95.19-1.3.57-.35.38-.57.91-.65,1.59h3.76v-.1c-.04-.65-.21-1.16-.53-1.52-.32-.36-.74-.54-1.28-.54Z" fill="#fff"/>
        <path d="M136.54,475.31l.04.83c.55-.65,1.29-.97,2.23-.97,1.05,0,1.76.4,2.14,1.21.25-.36.57-.65.97-.88.4-.22.87-.33,1.42-.33,1.65,0,2.48.87,2.51,2.62v5.03h-1.28v-4.96c0-.54-.12-.94-.37-1.2-.25-.27-.66-.4-1.24-.4-.48,0-.87.14-1.19.43-.31.28-.5.67-.55,1.15v4.98h-1.29v-4.92c0-1.09-.53-1.64-1.6-1.64-.84,0-1.42.36-1.73,1.08v5.48h-1.28v-7.51h1.21Z" fill="#fff"/>
        <path d="M152.43,482.81c-.07-.15-.13-.41-.18-.79-.6.62-1.31.93-2.14.93-.74,0-1.35-.21-1.82-.63-.47-.42-.71-.95-.71-1.59,0-.78.3-1.39.89-1.82.59-.43,1.43-.65,2.51-.65h1.25v-.59c0-.45-.13-.81-.4-1.07-.27-.27-.66-.4-1.19-.4-.46,0-.84.12-1.15.35-.31.23-.46.51-.46.84h-1.29c0-.38.13-.74.4-1.09.27-.35.63-.63,1.08-.83.46-.2.96-.31,1.5-.31.87,0,1.54.22,2.03.65.49.43.74,1.03.76,1.79v3.46c0,.69.09,1.24.26,1.64v.11h-1.35ZM150.3,481.84c.4,0,.78-.1,1.15-.31.36-.21.62-.48.78-.81v-1.54h-1.01c-1.57,0-2.36.46-2.36,1.38,0,.4.13.72.4.94.27.23.61.34,1.03.34Z" fill="#fff"/>
        <path d="M158.73,479c0-1.15.27-2.08.82-2.78.55-.7,1.26-1.05,2.14-1.05s1.58.3,2.09.9v-3.91h1.28v10.66h-1.18l-.06-.8c-.51.63-1.23.94-2.14.94s-1.58-.36-2.13-1.07c-.55-.71-.82-1.64-.82-2.79v-.1ZM160.01,479.14c0,.85.18,1.52.53,2,.35.48.84.72,1.46.72.81,0,1.41-.37,1.78-1.1v-3.45c-.38-.71-.97-1.06-1.77-1.06-.63,0-1.12.24-1.47.73s-.53,1.21-.53,2.16Z" fill="#fff"/>
        <path d="M171.69,482.81c-.07-.15-.13-.41-.18-.79-.6.62-1.31.93-2.14.93-.74,0-1.35-.21-1.82-.63-.47-.42-.71-.95-.71-1.59,0-.78.3-1.39.89-1.82.59-.43,1.43-.65,2.51-.65h1.25v-.59c0-.45-.13-.81-.4-1.07-.27-.27-.66-.4-1.19-.4-.46,0-.84.12-1.15.35-.31.23-.46.51-.46.84h-1.29c0-.38.13-.74.4-1.09.27-.35.63-.63,1.08-.83.46-.2.96-.31,1.5-.31.87,0,1.54.22,2.03.65.49.43.74,1.03.76,1.79v3.46c0,.69.09,1.24.26,1.64v.11h-1.35ZM169.56,481.84c.4,0,.78-.1,1.15-.31.36-.21.62-.48.78-.81v-1.54h-1.01c-1.57,0-2.36.46-2.36,1.38,0,.4.13.72.4.94.27.23.61.34,1.03.34Z" fill="#fff"/>
        <path d="M41.61,499.87c-.07-.15-.13-.41-.18-.79-.6.62-1.31.93-2.14.93-.74,0-1.35-.21-1.82-.63-.47-.42-.71-.95-.71-1.59,0-.78.3-1.39.89-1.82.59-.43,1.43-.65,2.51-.65h1.25v-.59c0-.45-.13-.81-.4-1.07-.27-.27-.66-.4-1.19-.4-.46,0-.84.12-1.15.35-.31.23-.46.51-.46.84h-1.29c0-.38.13-.74.4-1.09.27-.35.63-.63,1.08-.83.46-.2.96-.31,1.5-.31.87,0,1.54.22,2.03.65.49.43.74,1.03.76,1.79v3.46c0,.69.09,1.24.26,1.64v.11h-1.35ZM39.47,498.89c.4,0,.78-.1,1.15-.31.36-.21.62-.48.78-.81v-1.54h-1.01c-1.57,0-2.36.46-2.36,1.38,0,.4.13.72.4.94.27.23.61.34,1.03.34Z" fill="#fff"/>
        <path d="M49.34,499.13c-.5.59-1.23.88-2.2.88-.8,0-1.41-.23-1.83-.7-.42-.46-.63-1.15-.64-2.06v-4.89h1.28v4.85c0,1.14.46,1.71,1.39,1.71.98,0,1.63-.37,1.96-1.1v-5.46h1.28v7.51h-1.22l-.03-.74Z" fill="#fff"/>
        <path d="M53.93,499.87h-1.28v-10.66h1.28v10.66Z" fill="#fff"/>
        <path d="M60.62,499.87c-.07-.15-.13-.41-.18-.79-.6.62-1.31.93-2.14.93-.74,0-1.35-.21-1.82-.63-.47-.42-.71-.95-.71-1.59,0-.78.3-1.39.89-1.82.59-.43,1.43-.65,2.51-.65h1.25v-.59c0-.45-.13-.81-.4-1.07-.27-.27-.66-.4-1.19-.4-.46,0-.84.12-1.15.35-.31.23-.46.51-.46.84h-1.29c0-.38.13-.74.4-1.09.27-.35.63-.63,1.08-.83.46-.2.96-.31,1.5-.31.87,0,1.54.22,2.03.65.49.43.74,1.03.76,1.79v3.46c0,.69.09,1.24.26,1.64v.11h-1.35ZM58.49,498.89c.4,0,.78-.1,1.15-.31.36-.21.62-.48.78-.81v-1.54h-1.01c-1.57,0-2.36.46-2.36,1.38,0,.4.13.72.4.94.27.23.61.34,1.03.34Z" fill="#fff"/>
        <path d="M63.74,499.2c0-.22.07-.41.2-.56.13-.15.33-.22.59-.22s.46.07.6.22c.14.15.21.33.21.56s-.07.39-.21.53-.34.21-.6.21-.46-.07-.59-.21-.2-.32-.2-.53Z" fill="#fff"/>
        <path d="M76.75,497.23h-4.23l-.95,2.64h-1.37l3.86-10.1h1.17l3.87,10.1h-1.37l-.96-2.64ZM72.92,496.14h3.43l-1.72-4.73-1.71,4.73Z" fill="#fff"/>
        <path d="M79.94,496.05c0-1.17.27-2.1.81-2.79.54-.69,1.26-1.04,2.15-1.04s1.63.32,2.14.97l.06-.83h1.17v7.33c0,.97-.29,1.74-.86,2.3-.58.56-1.35.84-2.32.84-.54,0-1.07-.12-1.59-.35-.52-.23-.91-.55-1.19-.95l.67-.77c.55.68,1.22,1.02,2.02,1.02.62,0,1.11-.18,1.46-.53s.52-.85.52-1.49v-.64c-.51.59-1.21.89-2.1.89s-1.59-.35-2.13-1.06-.82-1.67-.82-2.89ZM81.23,496.2c0,.85.17,1.51.52,2s.83.72,1.46.72c.81,0,1.4-.37,1.78-1.1v-3.43c-.39-.72-.98-1.08-1.77-1.08-.62,0-1.11.24-1.46.73s-.53,1.21-.53,2.16Z" fill="#fff"/>
        <path d="M87.88,496.05c0-.74.14-1.4.43-1.99.29-.59.69-1.04,1.21-1.36.52-.32,1.1-.48,1.77-.48,1.02,0,1.85.35,2.48,1.06.63.71.95,1.65.95,2.83v.09c0,.73-.14,1.39-.42,1.97-.28.58-.68,1.03-1.2,1.36-.52.32-1.12.49-1.79.49-1.02,0-1.84-.35-2.47-1.06-.63-.71-.95-1.64-.95-2.81v-.09ZM89.17,496.2c0,.83.19,1.5.58,2.01.39.5.9.76,1.55.76s1.17-.26,1.55-.77c.38-.51.58-1.23.58-2.15,0-.82-.2-1.49-.59-2-.39-.51-.91-.77-1.56-.77s-1.15.25-1.53.76-.58,1.23-.58,2.17Z" fill="#fff"/>
        <path d="M99.95,493.51c-.19-.03-.4-.05-.63-.05-.84,0-1.41.36-1.71,1.08v5.33h-1.28v-7.51h1.25l.02.87c.42-.67,1.02-1.01,1.79-1.01.25,0,.44.03.57.1v1.19Z" fill="#fff"/>
        <path d="M105.49,499.87c-.07-.15-.13-.41-.18-.79-.6.62-1.31.93-2.14.93-.74,0-1.35-.21-1.82-.63-.47-.42-.71-.95-.71-1.59,0-.78.3-1.39.89-1.82.59-.43,1.43-.65,2.51-.65h1.25v-.59c0-.45-.13-.81-.4-1.07-.27-.27-.66-.4-1.19-.4-.46,0-.84.12-1.15.35-.31.23-.46.51-.46.84h-1.29c0-.38.13-.74.4-1.09.27-.35.63-.63,1.08-.83.46-.2.96-.31,1.5-.31.87,0,1.54.22,2.03.65.49.43.74,1.03.76,1.79v3.46c0,.69.09,1.24.26,1.64v.11h-1.35ZM103.36,498.89c.4,0,.78-.1,1.15-.31.36-.21.62-.48.78-.81v-1.54h-1.01c-1.57,0-2.36.46-2.36,1.38,0,.4.13.72.4.94.27.23.61.34,1.03.34Z" fill="#fff"/>
        <path d="M114.58,498.13l1.86-5.77h1.31l-2.69,7.51h-.98l-2.72-7.51h1.31l1.91,5.77Z" fill="#fff"/>
        <path d="M123.52,499.87c-.07-.15-.13-.41-.18-.79-.6.62-1.31.93-2.14.93-.74,0-1.35-.21-1.82-.63-.47-.42-.71-.95-.71-1.59,0-.78.3-1.39.89-1.82.59-.43,1.43-.65,2.51-.65h1.25v-.59c0-.45-.13-.81-.4-1.07-.27-.27-.66-.4-1.19-.4-.46,0-.84.12-1.15.35-.31.23-.46.51-.46.84h-1.29c0-.38.13-.74.4-1.09.27-.35.63-.63,1.08-.83.46-.2.96-.31,1.5-.31.87,0,1.54.22,2.03.65.49.43.74,1.03.76,1.79v3.46c0,.69.09,1.24.26,1.64v.11h-1.35ZM121.39,498.89c.4,0,.78-.1,1.15-.31.36-.21.62-.48.78-.81v-1.54h-1.01c-1.57,0-2.36.46-2.36,1.38,0,.4.13.72.4.94.27.23.61.34,1.03.34Z" fill="#fff"/>
        <path d="M127.82,492.36l.04.83c.55-.65,1.29-.97,2.23-.97,1.05,0,1.76.4,2.14,1.21.25-.36.57-.65.97-.88.4-.22.87-.33,1.42-.33,1.65,0,2.48.87,2.51,2.62v5.03h-1.28v-4.96c0-.54-.12-.94-.37-1.2-.25-.27-.66-.4-1.24-.4-.48,0-.87.14-1.19.43-.31.28-.5.67-.55,1.15v4.98h-1.29v-4.92c0-1.09-.53-1.64-1.6-1.64-.84,0-1.42.36-1.73,1.08v5.48h-1.28v-7.51h1.21Z" fill="#fff"/>
        <path d="M138.73,496.05c0-.74.14-1.4.43-1.99.29-.59.69-1.04,1.21-1.36.52-.32,1.1-.48,1.77-.48,1.02,0,1.85.35,2.48,1.06.63.71.95,1.65.95,2.83v.09c0,.73-.14,1.39-.42,1.97-.28.58-.68,1.03-1.2,1.36-.52.32-1.12.49-1.79.49-1.02,0-1.84-.35-2.47-1.06-.63-.71-.95-1.64-.95-2.81v-.09ZM140.02,496.2c0,.83.19,1.5.58,2.01.39.5.9.76,1.55.76s1.17-.26,1.55-.77c.38-.51.58-1.23.58-2.15,0-.82-.2-1.49-.59-2-.39-.51-.91-.77-1.56-.77s-1.15.25-1.53.76-.58,1.23-.58,2.17Z" fill="#fff"/>
        <path d="M151.55,497.88c0-.35-.13-.62-.39-.81-.26-.19-.72-.36-1.37-.5-.65-.14-1.17-.31-1.55-.5-.38-.19-.66-.43-.85-.69-.18-.27-.27-.59-.27-.96,0-.62.26-1.14.78-1.56s1.19-.64,2-.64c.85,0,1.54.22,2.07.66.53.44.79,1,.79,1.69h-1.29c0-.35-.15-.65-.45-.91-.3-.25-.67-.38-1.13-.38s-.83.1-1.1.31-.4.47-.4.8c0,.31.12.54.37.7s.69.31,1.33.45,1.16.31,1.56.51c.4.2.69.44.88.72.19.28.29.62.29,1.02,0,.67-.27,1.21-.8,1.61-.54.41-1.23.61-2.09.61-.6,0-1.13-.11-1.6-.32-.46-.21-.83-.51-1.09-.89-.26-.38-.39-.79-.39-1.24h1.28c.02.43.2.77.52,1.02s.75.38,1.27.38c.49,0,.88-.1,1.17-.29.29-.2.44-.46.44-.79Z" fill="#fff"/>
        <path d="M39.98,516.02c.46,0,.86-.14,1.2-.42.34-.28.53-.62.57-1.04h1.21c-.02.43-.17.84-.44,1.23-.27.39-.64.7-1.09.93-.46.23-.94.35-1.45.35-1.02,0-1.84-.34-2.44-1.02s-.91-1.62-.91-2.8v-.22c0-.73.13-1.38.4-1.95.27-.57.65-1.01,1.16-1.33.5-.31,1.1-.47,1.78-.47.84,0,1.54.25,2.1.76.56.5.85,1.16.89,1.96h-1.21c-.04-.49-.22-.88-.55-1.2s-.74-.47-1.22-.47c-.65,0-1.16.24-1.52.71-.36.47-.54,1.15-.54,2.04v.24c0,.87.18,1.53.54,2,.36.47.86.7,1.53.7Z" fill="#fff"/>
        <path d="M44.07,513.1c0-.74.14-1.4.43-1.99.29-.59.69-1.04,1.21-1.36.52-.32,1.1-.48,1.77-.48,1.02,0,1.85.35,2.48,1.06.63.71.95,1.65.95,2.83v.09c0,.73-.14,1.39-.42,1.97-.28.58-.68,1.03-1.2,1.36-.52.32-1.12.49-1.79.49-1.02,0-1.84-.35-2.47-1.06-.63-.71-.95-1.64-.95-2.81v-.09ZM45.36,513.25c0,.83.19,1.5.58,2.01.39.5.9.76,1.55.76s1.17-.26,1.55-.77c.38-.51.58-1.23.58-2.15,0-.82-.2-1.49-.59-2-.39-.51-.91-.77-1.56-.77s-1.15.25-1.53.76-.58,1.23-.58,2.17Z" fill="#fff"/>
        <path d="M53.72,509.42l.04.83c.55-.65,1.29-.97,2.23-.97,1.05,0,1.76.4,2.14,1.21.25-.36.57-.65.97-.88.4-.22.87-.33,1.42-.33,1.65,0,2.48.87,2.51,2.62v5.03h-1.28v-4.96c0-.54-.12-.94-.37-1.2-.25-.27-.66-.4-1.24-.4-.48,0-.87.14-1.19.43-.31.28-.5.67-.55,1.15v4.98h-1.29v-4.92c0-1.09-.53-1.64-1.6-1.64-.84,0-1.42.36-1.73,1.08v5.48h-1.28v-7.51h1.21Z" fill="#fff"/>
        <path d="M68.09,517.06c-1.02,0-1.85-.33-2.48-1-.64-.67-.96-1.56-.96-2.68v-.24c0-.74.14-1.41.43-2,.28-.58.68-1.04,1.19-1.37.51-.33,1.07-.5,1.66-.5.98,0,1.74.32,2.28.96.54.64.81,1.56.81,2.76v.53h-5.09c.02.74.24,1.34.65,1.79.41.46.94.68,1.58.68.45,0,.84-.09,1.15-.28.31-.19.59-.43.83-.74l.78.61c-.63.97-1.57,1.45-2.83,1.45ZM67.93,510.33c-.52,0-.95.19-1.3.57-.35.38-.57.91-.65,1.59h3.76v-.1c-.04-.65-.21-1.16-.53-1.52-.32-.36-.74-.54-1.28-.54Z" fill="#fff"/>
        <path d="M75.51,516.02c.46,0,.86-.14,1.2-.42.34-.28.53-.62.57-1.04h1.21c-.02.43-.17.84-.44,1.23-.27.39-.64.7-1.09.93-.46.23-.94.35-1.45.35-1.02,0-1.84-.34-2.44-1.02s-.91-1.62-.91-2.8v-.22c0-.73.13-1.38.4-1.95.27-.57.65-1.01,1.16-1.33.5-.31,1.1-.47,1.78-.47.84,0,1.54.25,2.1.76.56.5.85,1.16.89,1.96h-1.21c-.04-.49-.22-.88-.55-1.2s-.74-.47-1.22-.47c-.65,0-1.16.24-1.52.71-.36.47-.54,1.15-.54,2.04v.24c0,.87.18,1.53.54,2,.36.47.86.7,1.53.7ZM75.72,516.99l-.08.36c.71.12,1.06.53,1.06,1.2,0,.45-.19.8-.55,1.07-.37.26-.89.39-1.55.39l-.05-.74c.37,0,.65-.06.85-.18s.3-.29.3-.51c0-.2-.07-.35-.22-.45-.15-.1-.45-.17-.9-.21l.22-.93h.92Z" fill="#fff"/>
        <path d="M84.57,516.92c-.07-.15-.13-.41-.18-.79-.6.62-1.31.93-2.14.93-.74,0-1.35-.21-1.82-.63-.47-.42-.71-.95-.71-1.59,0-.78.3-1.39.89-1.82.59-.43,1.43-.65,2.51-.65h1.25v-.59c0-.45-.13-.81-.4-1.07-.27-.27-.66-.4-1.19-.4-.46,0-.84.12-1.15.35-.31.23-.46.51-.46.84h-1.29c0-.38.13-.74.4-1.09.27-.35.63-.63,1.08-.83.46-.2.96-.31,1.5-.31.87,0,1.54.22,2.03.65.49.43.74,1.03.76,1.79v3.46c0,.69.09,1.24.26,1.64v.11h-1.35ZM82.44,515.95c.4,0,.78-.1,1.15-.31.36-.21.62-.48.78-.81v-1.54h-1.01c-1.57,0-2.36.46-2.36,1.38,0,.4.13.72.4.94.27.23.61.34,1.03.34Z" fill="#fff"/>
        <path d="M91.3,510.57c-.19-.03-.4-.05-.63-.05-.84,0-1.41.36-1.71,1.08v5.33h-1.28v-7.51h1.25l.02.87c.42-.67,1.02-1.01,1.79-1.01.25,0,.44.03.57.1v1.19Z" fill="#fff"/>
        <path d="M100.63,516.92c-.07-.15-.13-.41-.18-.79-.6.62-1.31.93-2.14.93-.74,0-1.35-.21-1.82-.63-.47-.42-.71-.95-.71-1.59,0-.78.3-1.39.89-1.82.59-.43,1.43-.65,2.51-.65h1.25v-.59c0-.45-.13-.81-.4-1.07-.27-.27-.66-.4-1.19-.4-.46,0-.84.12-1.15.35-.31.23-.46.51-.46.84h-1.29c0-.38.13-.74.4-1.09.27-.35.63-.63,1.08-.83.46-.2.96-.31,1.5-.31.87,0,1.54.22,2.03.65.49.43.74,1.03.76,1.79v3.46c0,.69.09,1.24.26,1.64v.11h-1.35ZM98.5,515.95c.4,0,.78-.1,1.15-.31.36-.21.62-.48.78-.81v-1.54h-1.01c-1.57,0-2.36.46-2.36,1.38,0,.4.13.72.4.94.27.23.61.34,1.03.34Z" fill="#fff"/>
        <path d="M108.46,509.42l.04.94c.57-.72,1.32-1.08,2.25-1.08,1.59,0,2.39.9,2.4,2.69v4.96h-1.28v-4.97c0-.54-.13-.94-.37-1.2-.24-.26-.62-.39-1.13-.39-.42,0-.78.11-1.1.33-.32.22-.56.51-.74.87v5.35h-1.28v-7.51h1.21Z" fill="#fff"/>
        <path d="M114.75,513.1c0-.74.14-1.4.43-1.99.29-.59.69-1.04,1.21-1.36.52-.32,1.1-.48,1.77-.48,1.02,0,1.85.35,2.48,1.06.63.71.95,1.65.95,2.83v.09c0,.73-.14,1.39-.42,1.97-.28.58-.68,1.03-1.2,1.36-.52.32-1.12.49-1.79.49-1.02,0-1.84-.35-2.47-1.06-.63-.71-.95-1.64-.95-2.81v-.09ZM116.04,513.25c0,.83.19,1.5.58,2.01.39.5.9.76,1.55.76s1.17-.26,1.55-.77c.38-.51.58-1.23.58-2.15,0-.82-.2-1.49-.59-2-.39-.51-.91-.77-1.56-.77s-1.15.25-1.53.76-.58,1.23-.58,2.17Z" fill="#fff"/>
        <path d="M127.57,514.93c0-.35-.13-.62-.39-.81-.26-.19-.72-.36-1.37-.5-.65-.14-1.17-.31-1.55-.5-.38-.19-.66-.43-.85-.69-.18-.27-.27-.59-.27-.96,0-.62.26-1.14.78-1.56s1.19-.64,2-.64c.85,0,1.54.22,2.07.66.53.44.79,1,.79,1.69h-1.29c0-.35-.15-.65-.45-.91-.3-.25-.67-.38-1.13-.38s-.83.1-1.1.31-.4.47-.4.8c0,.31.12.54.37.7s.69.31,1.33.45,1.16.31,1.56.51c.4.2.69.44.88.72.19.28.29.62.29,1.02,0,.67-.27,1.21-.8,1.61-.54.41-1.23.61-2.09.61-.6,0-1.13-.11-1.6-.32-.46-.21-.83-.51-1.09-.89-.26-.38-.39-.79-.39-1.24h1.28c.02.43.2.77.52,1.02s.75.38,1.27.38c.49,0,.88-.1,1.17-.29.29-.2.44-.46.44-.79Z" fill="#fff"/>
        <path d="M134.89,514.93c0-.35-.13-.62-.39-.81-.26-.19-.72-.36-1.37-.5-.65-.14-1.17-.31-1.55-.5-.38-.19-.66-.43-.85-.69-.18-.27-.27-.59-.27-.96,0-.62.26-1.14.78-1.56s1.19-.64,2-.64c.85,0,1.54.22,2.07.66.53.44.79,1,.79,1.69h-1.29c0-.35-.15-.65-.45-.91-.3-.25-.67-.38-1.13-.38s-.83.1-1.1.31-.4.47-.4.8c0,.31.12.54.37.7s.69.31,1.33.45,1.16.31,1.56.51c.4.2.69.44.88.72.19.28.29.62.29,1.02,0,.67-.27,1.21-.8,1.61-.54.41-1.23.61-2.09.61-.6,0-1.13-.11-1.6-.32-.46-.21-.83-.51-1.09-.89-.26-.38-.39-.79-.39-1.24h1.28c.02.43.2.77.52,1.02s.75.38,1.27.38c.49,0,.88-.1,1.17-.29.29-.2.44-.46.44-.79Z" fill="#fff"/>
        <path d="M142.49,516.92c-.07-.15-.13-.41-.18-.79-.6.62-1.31.93-2.14.93-.74,0-1.35-.21-1.82-.63-.47-.42-.71-.95-.71-1.59,0-.78.3-1.39.89-1.82.59-.43,1.43-.65,2.51-.65h1.25v-.59c0-.45-.13-.81-.4-1.07-.27-.27-.66-.4-1.19-.4-.46,0-.84.12-1.15.35-.31.23-.46.51-.46.84h-1.29c0-.38.13-.74.4-1.09.27-.35.63-.63,1.08-.83.46-.2.96-.31,1.5-.31.87,0,1.54.22,2.03.65.49.43.74,1.03.76,1.79v3.46c0,.69.09,1.24.26,1.64v.11h-1.35ZM140.35,515.95c.4,0,.78-.1,1.15-.31.36-.21.62-.48.78-.81v-1.54h-1.01c-1.57,0-2.36.46-2.36,1.38,0,.4.13.72.4.94.27.23.61.34,1.03.34Z" fill="#fff"/>
        <path d="M38.29,526.47v8.38c0,1.44-.65,2.17-1.96,2.17-.28,0-.54-.04-.78-.12v-1.02c.15.04.34.06.58.06.29,0,.51-.08.66-.23.15-.16.22-.42.22-.81v-8.41h1.28ZM36.88,524.48c0-.2.06-.38.19-.52.13-.15.31-.22.56-.22s.44.07.57.22c.13.14.19.32.19.53s-.07.38-.19.52c-.13.14-.32.21-.57.21s-.44-.07-.56-.21-.19-.31-.19-.52Z" fill="#fff"/>
        <path d="M40.02,530.15c0-.74.14-1.4.43-1.99.29-.59.69-1.04,1.21-1.36.52-.32,1.1-.48,1.77-.48,1.02,0,1.85.35,2.48,1.06.63.71.95,1.65.95,2.83v.09c0,.73-.14,1.39-.42,1.97-.28.58-.68,1.03-1.2,1.36-.52.32-1.12.49-1.79.49-1.02,0-1.84-.35-2.47-1.06-.63-.71-.95-1.64-.95-2.81v-.09ZM41.31,530.31c0,.83.19,1.5.58,2.01.39.5.9.76,1.55.76s1.17-.26,1.55-.77c.38-.51.58-1.23.58-2.15,0-.82-.2-1.49-.59-2-.39-.51-.91-.77-1.56-.77s-1.15.25-1.53.76-.58,1.23-.58,2.17Z" fill="#fff"/>
        <path d="M52.1,527.62c-.19-.03-.4-.05-.63-.05-.84,0-1.41.36-1.71,1.08v5.33h-1.28v-7.51h1.25l.02.87c.42-.67,1.02-1.01,1.79-1.01.25,0,.44.03.57.1v1.19Z" fill="#fff"/>
        <path d="M54.49,526.47l.04.94c.57-.72,1.32-1.08,2.25-1.08,1.59,0,2.39.9,2.4,2.69v4.96h-1.28v-4.97c0-.54-.13-.94-.37-1.2-.24-.26-.62-.39-1.13-.39-.42,0-.78.11-1.1.33-.32.22-.56.51-.74.87v5.35h-1.28v-7.51h1.21Z" fill="#fff"/>
        <path d="M65.75,533.98c-.07-.15-.13-.41-.18-.79-.6.62-1.31.93-2.14.93-.74,0-1.35-.21-1.82-.63-.47-.42-.71-.95-.71-1.59,0-.78.3-1.39.89-1.82.59-.43,1.43-.65,2.51-.65h1.25v-.59c0-.45-.13-.81-.4-1.07-.27-.27-.66-.4-1.19-.4-.46,0-.84.12-1.15.35-.31.23-.46.51-.46.84h-1.29c0-.38.13-.74.4-1.09.27-.35.63-.63,1.08-.83.46-.2.96-.31,1.5-.31.87,0,1.54.22,2.03.65.49.43.74,1.03.76,1.79v3.46c0,.69.09,1.24.26,1.64v.11h-1.35ZM63.62,533c.4,0,.78-.1,1.15-.31.36-.21.62-.48.78-.81v-1.54h-1.01c-1.57,0-2.36.46-2.36,1.38,0,.4.13.72.4.94.27.23.61.34,1.03.34Z" fill="#fff"/>
        <path d="M68.54,530.16c0-1.15.27-2.08.82-2.78.55-.7,1.26-1.05,2.14-1.05s1.58.3,2.09.9v-3.91h1.28v10.66h-1.18l-.06-.8c-.51.63-1.23.94-2.14.94s-1.58-.36-2.13-1.07c-.55-.71-.82-1.64-.82-2.79v-.1ZM69.82,530.31c0,.85.18,1.52.53,2,.35.48.84.72,1.46.72.81,0,1.41-.37,1.78-1.1v-3.45c-.38-.71-.97-1.06-1.77-1.06-.63,0-1.12.24-1.47.73s-.53,1.21-.53,2.16Z" fill="#fff"/>
        <path d="M81.5,533.98c-.07-.15-.13-.41-.18-.79-.6.62-1.31.93-2.14.93-.74,0-1.35-.21-1.82-.63-.47-.42-.71-.95-.71-1.59,0-.78.3-1.39.89-1.82.59-.43,1.43-.65,2.51-.65h1.25v-.59c0-.45-.13-.81-.4-1.07-.27-.27-.66-.4-1.19-.4-.46,0-.84.12-1.15.35-.31.23-.46.51-.46.84h-1.29c0-.38.13-.74.4-1.09.27-.35.63-.63,1.08-.83.46-.2.96-.31,1.5-.31.87,0,1.54.22,2.03.65.49.43.74,1.03.76,1.79v3.46c0,.69.09,1.24.26,1.64v.11h-1.35ZM79.37,533c.4,0,.78-.1,1.15-.31.36-.21.62-.48.78-.81v-1.54h-1.01c-1.57,0-2.36.46-2.36,1.38,0,.4.13.72.4.94.27.23.61.34,1.03.34Z" fill="#fff"/>
        <path d="M91.23,534.12c-1.02,0-1.85-.33-2.48-1-.64-.67-.96-1.56-.96-2.68v-.24c0-.74.14-1.41.43-2,.28-.58.68-1.04,1.19-1.37.51-.33,1.07-.5,1.66-.5.98,0,1.74.32,2.28.96.54.64.81,1.56.81,2.76v.53h-5.09c.02.74.24,1.34.65,1.79.41.46.94.68,1.58.68.45,0,.84-.09,1.15-.28.31-.19.59-.43.83-.74l.78.61c-.63.97-1.57,1.45-2.83,1.45ZM91.07,527.39c-.52,0-.95.19-1.3.57-.35.38-.57.91-.65,1.59h3.76v-.1c-.04-.65-.21-1.16-.53-1.52-.32-.36-.74-.54-1.28-.54Z" fill="#fff"/>
        <path d="M98.85,530.16c0-1.15.27-2.08.82-2.78.55-.7,1.26-1.05,2.14-1.05s1.58.3,2.09.9v-3.91h1.28v10.66h-1.18l-.06-.8c-.51.63-1.23.94-2.14.94s-1.58-.36-2.13-1.07c-.55-.71-.82-1.64-.82-2.79v-.1ZM100.13,530.31c0,.85.18,1.52.53,2,.35.48.84.72,1.46.72.81,0,1.41-.37,1.78-1.1v-3.45c-.38-.71-.97-1.06-1.77-1.06-.63,0-1.12.24-1.47.73s-.53,1.21-.53,2.16Z" fill="#fff"/>
        <path d="M110.29,534.12c-1.02,0-1.85-.33-2.48-1-.64-.67-.96-1.56-.96-2.68v-.24c0-.74.14-1.41.43-2,.28-.58.68-1.04,1.19-1.37.51-.33,1.07-.5,1.66-.5.98,0,1.74.32,2.28.96.54.64.81,1.56.81,2.76v.53h-5.09c.02.74.24,1.34.65,1.79.41.46.94.68,1.58.68.45,0,.84-.09,1.15-.28.31-.19.59-.43.83-.74l.78.61c-.63.97-1.57,1.45-2.83,1.45ZM110.13,527.39c-.52,0-.95.19-1.3.57-.35.38-.57.91-.65,1.59h3.76v-.1c-.04-.65-.21-1.16-.53-1.52-.32-.36-.74-.54-1.28-.54Z" fill="#fff"/>
        <path d="M119.08,531.99c0-.35-.13-.62-.39-.81-.26-.19-.72-.36-1.37-.5-.65-.14-1.17-.31-1.55-.5-.38-.19-.66-.43-.85-.69-.18-.27-.27-.59-.27-.96,0-.62.26-1.14.78-1.56s1.19-.64,2-.64c.85,0,1.54.22,2.07.66.53.44.79,1,.79,1.69h-1.29c0-.35-.15-.65-.45-.91-.3-.25-.67-.38-1.13-.38s-.83.1-1.1.31-.4.47-.4.8c0,.31.12.54.37.7s.69.31,1.33.45,1.16.31,1.56.51c.4.2.69.44.88.72.19.28.29.62.29,1.02,0,.67-.27,1.21-.8,1.61-.54.41-1.23.61-2.09.61-.6,0-1.13-.11-1.6-.32-.46-.21-.83-.51-1.09-.89-.26-.38-.39-.79-.39-1.24h1.28c.02.43.2.77.52,1.02s.75.38,1.27.38c.49,0,.88-.1,1.17-.29.29-.2.44-.46.44-.79Z" fill="#fff"/>
        <path d="M125.04,533.07c.46,0,.86-.14,1.2-.42.34-.28.53-.62.57-1.04h1.21c-.02.43-.17.84-.44,1.23-.27.39-.64.7-1.09.93-.46.23-.94.35-1.45.35-1.02,0-1.84-.34-2.44-1.02s-.91-1.62-.91-2.8v-.22c0-.73.13-1.38.4-1.95.27-.57.65-1.01,1.16-1.33.5-.31,1.1-.47,1.78-.47.84,0,1.54.25,2.1.76.56.5.85,1.16.89,1.96h-1.21c-.04-.49-.22-.88-.55-1.2s-.74-.47-1.22-.47c-.65,0-1.16.24-1.52.71-.36.47-.54,1.15-.54,2.04v.24c0,.87.18,1.53.54,2,.36.47.86.7,1.53.7Z" fill="#fff"/>
        <path d="M129.13,530.15c0-.74.14-1.4.43-1.99.29-.59.69-1.04,1.21-1.36.52-.32,1.1-.48,1.77-.48,1.02,0,1.85.35,2.48,1.06.63.71.95,1.65.95,2.83v.09c0,.73-.14,1.39-.42,1.97-.28.58-.68,1.03-1.2,1.36-.52.32-1.12.49-1.79.49-1.02,0-1.84-.35-2.47-1.06-.63-.71-.95-1.64-.95-2.81v-.09ZM130.42,530.31c0,.83.19,1.5.58,2.01.39.5.9.76,1.55.76s1.17-.26,1.55-.77c.38-.51.58-1.23.58-2.15,0-.82-.2-1.49-.59-2-.39-.51-.91-.77-1.56-.77s-1.15.25-1.53.76-.58,1.23-.58,2.17Z" fill="#fff"/>
        <path d="M143.93,530.31c0,1.15-.26,2.07-.79,2.77s-1.24,1.04-2.12,1.04c-.95,0-1.68-.33-2.2-1.01l-.06.87h-1.18v-10.66h1.28v3.98c.52-.64,1.23-.96,2.14-.96s1.63.34,2.15,1.03c.52.69.78,1.63.78,2.83v.11ZM142.65,530.16c0-.88-.17-1.55-.51-2.03-.34-.48-.82-.71-1.46-.71-.85,0-1.46.39-1.83,1.18v3.25c.39.79,1.01,1.18,1.84,1.18.62,0,1.09-.24,1.44-.71.34-.48.51-1.19.51-2.15Z" fill="#fff"/>
        <path d="M149.18,527.62c-.19-.03-.4-.05-.63-.05-.84,0-1.41.36-1.71,1.08v5.33h-1.28v-7.51h1.25l.02.87c.42-.67,1.02-1.01,1.79-1.01.25,0,.44.03.57.1v1.19Z" fill="#fff"/>
        <path d="M150.37,524.48c0-.21.06-.38.19-.53.13-.14.32-.22.57-.22s.44.07.57.22c.13.14.19.32.19.53s-.06.38-.19.52c-.13.14-.32.21-.57.21s-.44-.07-.57-.21c-.13-.14-.19-.31-.19-.52ZM151.75,533.98h-1.28v-7.51h1.28v7.51Z" fill="#fff"/>
        <path d="M157.44,527.62c-.19-.03-.4-.05-.63-.05-.84,0-1.41.36-1.71,1.08v5.33h-1.28v-7.51h1.25l.02.87c.42-.67,1.02-1.01,1.79-1.01.25,0,.44.03.57.1v1.19Z" fill="#fff"/>
        <path d="M38.29,543.52v8.38c0,1.44-.65,2.17-1.96,2.17-.28,0-.54-.04-.78-.12v-1.02c.15.04.34.06.58.06.29,0,.51-.08.66-.23.15-.16.22-.42.22-.81v-8.41h1.28ZM36.88,541.53c0-.2.06-.38.19-.52.13-.15.31-.22.56-.22s.44.07.57.22c.13.14.19.32.19.53s-.07.38-.19.52c-.13.14-.32.21-.57.21s-.44-.07-.56-.21-.19-.31-.19-.52Z" fill="#fff"/>
        <path d="M45,550.29c-.5.59-1.23.88-2.2.88-.8,0-1.41-.23-1.83-.7-.42-.46-.63-1.15-.64-2.06v-4.89h1.28v4.85c0,1.14.46,1.71,1.39,1.71.98,0,1.63-.37,1.96-1.1v-5.46h1.28v7.51h-1.22l-.03-.74Z" fill="#fff"/>
        <path d="M49.41,543.52l.04.94c.57-.72,1.32-1.08,2.25-1.08,1.59,0,2.39.9,2.4,2.69v4.96h-1.28v-4.97c0-.54-.13-.94-.37-1.2-.24-.26-.62-.39-1.13-.39-.42,0-.78.11-1.1.33-.32.22-.56.51-.74.87v5.35h-1.28v-7.51h1.21Z" fill="#fff"/>
        <path d="M57.78,541.71v1.82h1.4v.99h-1.4v4.66c0,.3.06.53.19.68s.34.23.64.23c.15,0,.35-.03.61-.08v1.04c-.34.09-.67.14-.99.14-.57,0-1.01-.17-1.3-.52-.29-.35-.44-.84-.44-1.48v-4.66h-1.37v-.99h1.37v-1.82h1.28Z" fill="#fff"/>
        <path d="M60.2,547.21c0-.74.14-1.4.43-1.99.29-.59.69-1.04,1.21-1.36.52-.32,1.1-.48,1.77-.48,1.02,0,1.85.35,2.48,1.06.63.71.95,1.65.95,2.83v.09c0,.73-.14,1.39-.42,1.97-.28.58-.68,1.03-1.2,1.36-.52.32-1.12.49-1.79.49-1.02,0-1.84-.35-2.47-1.06-.63-.71-.95-1.64-.95-2.81v-.09ZM61.49,547.36c0,.83.19,1.5.58,2.01.39.5.9.76,1.55.76s1.17-.26,1.55-.77c.38-.51.58-1.23.58-2.15,0-.82-.2-1.49-.59-2-.39-.51-.91-.77-1.56-.77s-1.15.25-1.53.76-.58,1.23-.58,2.17Z" fill="#fff"/>
        <path d="M73.02,549.04c0-.35-.13-.62-.39-.81-.26-.19-.72-.36-1.37-.5-.65-.14-1.17-.31-1.55-.5-.38-.19-.66-.43-.85-.69-.18-.27-.27-.59-.27-.96,0-.62.26-1.14.78-1.56s1.19-.64,2-.64c.85,0,1.54.22,2.07.66.53.44.79,1,.79,1.69h-1.29c0-.35-.15-.65-.45-.91-.3-.25-.67-.38-1.13-.38s-.83.1-1.1.31-.4.47-.4.8c0,.31.12.54.37.7s.69.31,1.33.45,1.16.31,1.56.51c.4.2.69.44.88.72.19.28.29.62.29,1.02,0,.67-.27,1.21-.8,1.61-.54.41-1.23.61-2.09.61-.6,0-1.13-.11-1.6-.32-.46-.21-.83-.51-1.09-.89-.26-.38-.39-.79-.39-1.24h1.28c.02.43.2.77.52,1.02s.75.38,1.27.38c.49,0,.88-.1,1.17-.29.29-.2.44-.46.44-.79Z" fill="#fff"/>
        <path d="M82.51,550.12c.46,0,.86-.14,1.2-.42.34-.28.53-.62.57-1.04h1.21c-.02.43-.17.84-.44,1.23-.27.39-.64.7-1.09.93-.46.23-.94.35-1.45.35-1.02,0-1.84-.34-2.44-1.02s-.91-1.62-.91-2.8v-.22c0-.73.13-1.38.4-1.95.27-.57.65-1.01,1.16-1.33.5-.31,1.1-.47,1.78-.47.84,0,1.54.25,2.1.76.56.5.85,1.16.89,1.96h-1.21c-.04-.49-.22-.88-.55-1.2s-.74-.47-1.22-.47c-.65,0-1.16.24-1.52.71-.36.47-.54,1.15-.54,2.04v.24c0,.87.18,1.53.54,2,.36.47.86.7,1.53.7Z" fill="#fff"/>
        <path d="M86.6,547.21c0-.74.14-1.4.43-1.99.29-.59.69-1.04,1.21-1.36.52-.32,1.1-.48,1.77-.48,1.02,0,1.85.35,2.48,1.06.63.71.95,1.65.95,2.83v.09c0,.73-.14,1.39-.42,1.97-.28.58-.68,1.03-1.2,1.36-.52.32-1.12.49-1.79.49-1.02,0-1.84-.35-2.47-1.06-.63-.71-.95-1.64-.95-2.81v-.09ZM87.89,547.36c0,.83.19,1.5.58,2.01.39.5.9.76,1.55.76s1.17-.26,1.55-.77c.38-.51.58-1.23.58-2.15,0-.82-.2-1.49-.59-2-.39-.51-.91-.77-1.56-.77s-1.15.25-1.53.76-.58,1.23-.58,2.17Z" fill="#fff"/>
        <path d="M96.25,543.52l.04.83c.55-.65,1.29-.97,2.23-.97,1.05,0,1.76.4,2.14,1.21.25-.36.57-.65.97-.88.4-.22.87-.33,1.42-.33,1.65,0,2.48.87,2.51,2.62v5.03h-1.28v-4.96c0-.54-.12-.94-.37-1.2-.25-.27-.66-.4-1.24-.4-.48,0-.87.14-1.19.43-.31.28-.5.67-.55,1.15v4.98h-1.29v-4.92c0-1.09-.53-1.64-1.6-1.64-.84,0-1.42.36-1.73,1.08v5.48h-1.28v-7.51h1.21Z" fill="#fff"/>
        <path d="M107.16,547.21c0-.74.14-1.4.43-1.99.29-.59.69-1.04,1.21-1.36.52-.32,1.1-.48,1.77-.48,1.02,0,1.85.35,2.48,1.06.63.71.95,1.65.95,2.83v.09c0,.73-.14,1.39-.42,1.97-.28.58-.68,1.03-1.2,1.36-.52.32-1.12.49-1.79.49-1.02,0-1.84-.35-2.47-1.06-.63-.71-.95-1.64-.95-2.81v-.09ZM108.45,547.36c0,.83.19,1.5.58,2.01.39.5.9.76,1.55.76s1.17-.26,1.55-.77c.38-.51.58-1.23.58-2.15,0-.82-.2-1.49-.59-2-.39-.51-.91-.77-1.56-.77s-1.15.25-1.53.76-.58,1.23-.58,2.17Z" fill="#fff"/>
        <path d="M123.76,551.03c-.07-.15-.13-.41-.18-.79-.6.62-1.31.93-2.14.93-.74,0-1.35-.21-1.82-.63-.47-.42-.71-.95-.71-1.59,0-.78.3-1.39.89-1.82.59-.43,1.43-.65,2.51-.65h1.25v-.59c0-.45-.13-.81-.4-1.07-.27-.27-.66-.4-1.19-.4-.46,0-.84.12-1.15.35-.31.23-.46.51-.46.84h-1.29c0-.38.13-.74.4-1.09.27-.35.63-.63,1.08-.83.46-.2.96-.31,1.5-.31.87,0,1.54.22,2.03.65.49.43.74,1.03.76,1.79v3.46c0,.69.09,1.24.26,1.64v.11h-1.35ZM121.63,550.05c.4,0,.78-.1,1.15-.31.36-.21.62-.48.78-.81v-1.54h-1.01c-1.57,0-2.36.46-2.36,1.38,0,.4.13.72.4.94.27.23.61.34,1.03.34Z" fill="#fff"/>
        <path d="M126.55,547.22c0-1.17.27-2.1.81-2.79.54-.69,1.26-1.04,2.15-1.04s1.63.32,2.14.97l.06-.83h1.17v7.33c0,.97-.29,1.74-.86,2.3-.58.56-1.35.84-2.32.84-.54,0-1.07-.12-1.59-.35-.52-.23-.91-.55-1.19-.95l.67-.77c.55.68,1.22,1.02,2.02,1.02.62,0,1.11-.18,1.46-.53s.52-.85.52-1.49v-.64c-.51.59-1.21.89-2.1.89s-1.59-.35-2.13-1.06-.82-1.67-.82-2.89ZM127.84,547.36c0,.85.17,1.51.52,2s.83.72,1.46.72c.81,0,1.4-.37,1.78-1.1v-3.43c-.39-.72-.98-1.08-1.77-1.08-.62,0-1.11.24-1.46.73s-.53,1.21-.53,2.16Z" fill="#fff"/>
        <path d="M134.83,541.53c0-.21.06-.38.19-.53.13-.14.32-.22.57-.22s.44.07.57.22c.13.14.19.32.19.53s-.06.38-.19.52c-.13.14-.32.21-.57.21s-.44-.07-.57-.21c-.13-.14-.19-.31-.19-.52ZM136.22,551.03h-1.28v-7.51h1.28v7.51Z" fill="#fff"/>
        <path d="M141.9,544.68c-.19-.03-.4-.05-.63-.05-.84,0-1.41.36-1.71,1.08v5.33h-1.28v-7.51h1.25l.02.87c.42-.67,1.02-1.01,1.79-1.01.25,0,.44.03.57.1v1.19Z" fill="#fff"/>
        <path d="M149.61,550.12c.46,0,.86-.14,1.2-.42.34-.28.53-.62.57-1.04h1.21c-.02.43-.17.84-.44,1.23-.27.39-.64.7-1.09.93-.46.23-.94.35-1.45.35-1.02,0-1.84-.34-2.44-1.02s-.91-1.62-.91-2.8v-.22c0-.73.13-1.38.4-1.95.27-.57.65-1.01,1.16-1.33.5-.31,1.1-.47,1.78-.47.84,0,1.54.25,2.1.76.56.5.85,1.16.89,1.96h-1.21c-.04-.49-.22-.88-.55-1.2s-.74-.47-1.22-.47c-.65,0-1.16.24-1.52.71-.36.47-.54,1.15-.54,2.04v.24c0,.87.18,1.53.54,2,.36.47.86.7,1.53.7Z" fill="#fff"/>
        <path d="M153.7,547.21c0-.74.14-1.4.43-1.99.29-.59.69-1.04,1.21-1.36.52-.32,1.1-.48,1.77-.48,1.02,0,1.85.35,2.48,1.06.63.71.95,1.65.95,2.83v.09c0,.73-.14,1.39-.42,1.97-.28.58-.68,1.03-1.2,1.36-.52.32-1.12.49-1.79.49-1.02,0-1.84-.35-2.47-1.06-.63-.71-.95-1.64-.95-2.81v-.09ZM154.99,547.36c0,.83.19,1.5.58,2.01.39.5.9.76,1.55.76s1.17-.26,1.55-.77c.38-.51.58-1.23.58-2.15,0-.82-.2-1.49-.59-2-.39-.51-.91-.77-1.56-.77s-1.15.25-1.53.76-.58,1.23-.58,2.17Z" fill="#fff"/>
        <path d="M163.35,543.52l.04.83c.55-.65,1.29-.97,2.23-.97,1.05,0,1.76.4,2.14,1.21.25-.36.57-.65.97-.88.4-.22.87-.33,1.42-.33,1.65,0,2.48.87,2.51,2.62v5.03h-1.28v-4.96c0-.54-.12-.94-.37-1.2-.25-.27-.66-.4-1.24-.4-.48,0-.87.14-1.19.43-.31.28-.5.67-.55,1.15v4.98h-1.29v-4.92c0-1.09-.53-1.64-1.6-1.64-.84,0-1.42.36-1.73,1.08v5.48h-1.28v-7.51h1.21Z" fill="#fff"/>
        <path d="M38.18,560.58l.04.83c.55-.65,1.29-.97,2.23-.97,1.05,0,1.76.4,2.14,1.21.25-.36.57-.65.97-.88.4-.22.87-.33,1.42-.33,1.65,0,2.48.87,2.51,2.62v5.03h-1.28v-4.96c0-.54-.12-.94-.37-1.2-.25-.27-.66-.4-1.24-.4-.48,0-.87.14-1.19.43-.31.28-.5.67-.55,1.15v4.98h-1.29v-4.92c0-1.09-.53-1.64-1.6-1.64-.84,0-1.42.36-1.73,1.08v5.48h-1.28v-7.51h1.21Z" fill="#fff"/>
        <path d="M54.06,568.09c-.07-.15-.13-.41-.18-.79-.6.62-1.31.93-2.14.93-.74,0-1.35-.21-1.82-.63-.47-.42-.71-.95-.71-1.59,0-.78.3-1.39.89-1.82.59-.43,1.43-.65,2.51-.65h1.25v-.59c0-.45-.13-.81-.4-1.07-.27-.27-.66-.4-1.19-.4-.46,0-.84.12-1.15.35-.31.23-.46.51-.46.84h-1.29c0-.38.13-.74.4-1.09.27-.35.63-.63,1.08-.83.46-.2.96-.31,1.5-.31.87,0,1.54.22,2.03.65.49.43.74,1.03.76,1.79v3.46c0,.69.09,1.24.26,1.64v.11h-1.35ZM51.93,567.11c.4,0,.78-.1,1.15-.31.36-.21.62-.48.78-.81v-1.54h-1.01c-1.57,0-2.36.46-2.36,1.38,0,.4.13.72.4.94.27.23.61.34,1.03.34Z" fill="#fff"/>
        <path d="M57.16,558.59c0-.21.06-.38.19-.53.13-.14.32-.22.57-.22s.44.07.57.22c.13.14.19.32.19.53s-.06.38-.19.52c-.13.14-.32.21-.57.21s-.44-.07-.57-.21c-.13-.14-.19-.31-.19-.52ZM58.55,568.09h-1.28v-7.51h1.28v7.51Z" fill="#fff"/>
        <path d="M64.98,566.1c0-.35-.13-.62-.39-.81-.26-.19-.72-.36-1.37-.5-.65-.14-1.17-.31-1.55-.5-.38-.19-.66-.43-.85-.69-.18-.27-.27-.59-.27-.96,0-.62.26-1.14.78-1.56s1.19-.64,2-.64c.85,0,1.54.22,2.07.66.53.44.79,1,.79,1.69h-1.29c0-.35-.15-.65-.45-.91-.3-.25-.67-.38-1.13-.38s-.83.1-1.1.31-.4.47-.4.8c0,.31.12.54.37.7s.69.31,1.33.45,1.16.31,1.56.51c.4.2.69.44.88.72.19.28.29.62.29,1.02,0,.67-.27,1.21-.8,1.61-.54.41-1.23.61-2.09.61-.6,0-1.13-.11-1.6-.32-.46-.21-.83-.51-1.09-.89-.26-.38-.39-.79-.39-1.24h1.28c.02.43.2.77.52,1.02s.75.38,1.27.38c.49,0,.88-.1,1.17-.29.29-.2.44-.46.44-.79Z" fill="#fff"/>
        <path d="M75.82,566.1c0-.35-.13-.62-.39-.81-.26-.19-.72-.36-1.37-.5-.65-.14-1.17-.31-1.55-.5-.38-.19-.66-.43-.85-.69-.18-.27-.27-.59-.27-.96,0-.62.26-1.14.78-1.56s1.19-.64,2-.64c.85,0,1.54.22,2.07.66.53.44.79,1,.79,1.69h-1.29c0-.35-.15-.65-.45-.91-.3-.25-.67-.38-1.13-.38s-.83.1-1.1.31-.4.47-.4.8c0,.31.12.54.37.7s.69.31,1.33.45,1.16.31,1.56.51c.4.2.69.44.88.72.19.28.29.62.29,1.02,0,.67-.27,1.21-.8,1.61-.54.41-1.23.61-2.09.61-.6,0-1.13-.11-1.6-.32-.46-.21-.83-.51-1.09-.89-.26-.38-.39-.79-.39-1.24h1.28c.02.43.2.77.52,1.02s.75.38,1.27.38c.49,0,.88-.1,1.17-.29.29-.2.44-.46.44-.79Z" fill="#fff"/>
        <path d="M81.9,568.23c-1.02,0-1.85-.33-2.48-1-.64-.67-.96-1.56-.96-2.68v-.24c0-.74.14-1.41.43-2,.28-.58.68-1.04,1.19-1.37.51-.33,1.07-.5,1.66-.5.98,0,1.74.32,2.28.96.54.64.81,1.56.81,2.76v.53h-5.09c.02.74.24,1.34.65,1.79.41.46.94.68,1.58.68.45,0,.84-.09,1.15-.28.31-.19.59-.43.83-.74l.78.61c-.63.97-1.57,1.45-2.83,1.45ZM81.74,561.49c-.52,0-.95.19-1.3.57-.35.38-.57.91-.65,1.59h3.76v-.1c-.04-.65-.21-1.16-.53-1.52-.32-.36-.74-.54-1.28-.54Z" fill="#fff"/>
        <path d="M86,564.27c0-1.17.27-2.1.81-2.79.54-.69,1.26-1.04,2.15-1.04s1.63.32,2.14.97l.06-.83h1.17v7.33c0,.97-.29,1.74-.86,2.3-.58.56-1.35.84-2.32.84-.54,0-1.07-.12-1.59-.35-.52-.23-.91-.55-1.19-.95l.67-.77c.55.68,1.22,1.02,2.02,1.02.62,0,1.11-.18,1.46-.53s.52-.85.52-1.49v-.64c-.51.59-1.21.89-2.1.89s-1.59-.35-2.13-1.06-.82-1.67-.82-2.89ZM87.29,564.42c0,.85.17,1.51.52,2s.83.72,1.46.72c.81,0,1.4-.37,1.78-1.1v-3.43c-.39-.72-.98-1.08-1.77-1.08-.62,0-1.11.24-1.46.73s-.53,1.21-.53,2.16Z" fill="#fff"/>
        <path d="M98.92,567.35c-.5.59-1.23.88-2.2.88-.8,0-1.41-.23-1.83-.7-.42-.46-.63-1.15-.64-2.06v-4.89h1.28v4.85c0,1.14.46,1.71,1.39,1.71.98,0,1.63-.37,1.96-1.1v-5.46h1.28v7.51h-1.22l-.03-.74Z" fill="#fff"/>
        <path d="M105.75,561.73c-.19-.03-.4-.05-.63-.05-.84,0-1.41.36-1.71,1.08v5.33h-1.28v-7.51h1.25l.02.87c.42-.67,1.02-1.01,1.79-1.01.25,0,.44.03.57.1v1.19Z" fill="#fff"/>
        <path d="M111.28,568.09c-.07-.15-.13-.41-.18-.79-.6.62-1.31.93-2.14.93-.74,0-1.35-.21-1.82-.63-.47-.42-.71-.95-.71-1.59,0-.78.3-1.39.89-1.82.59-.43,1.43-.65,2.51-.65h1.25v-.59c0-.45-.13-.81-.4-1.07-.27-.27-.66-.4-1.19-.4-.46,0-.84.12-1.15.35-.31.23-.46.51-.46.84h-1.29c0-.38.13-.74.4-1.09.27-.35.63-.63,1.08-.83.46-.2.96-.31,1.5-.31.87,0,1.54.22,2.03.65.49.43.74,1.03.76,1.79v3.46c0,.69.09,1.24.26,1.64v.11h-1.35ZM109.15,567.11c.4,0,.78-.1,1.15-.31.36-.21.62-.48.78-.81v-1.54h-1.01c-1.57,0-2.36.46-2.36,1.38,0,.4.13.72.4.94.27.23.61.34,1.03.34Z" fill="#fff"/>
        <path d="M115.59,560.58l.04.94c.57-.72,1.32-1.08,2.25-1.08,1.59,0,2.39.9,2.4,2.69v4.96h-1.28v-4.97c0-.54-.13-.94-.37-1.2-.24-.26-.62-.39-1.13-.39-.42,0-.78.11-1.1.33-.32.22-.56.51-.74.87v5.35h-1.28v-7.51h1.21Z" fill="#fff"/>
        <path d="M125.23,567.18c.46,0,.86-.14,1.2-.42.34-.28.53-.62.57-1.04h1.21c-.02.43-.17.84-.44,1.23-.27.39-.64.7-1.09.93-.46.23-.94.35-1.45.35-1.02,0-1.84-.34-2.44-1.02s-.91-1.62-.91-2.8v-.22c0-.73.13-1.38.4-1.95.27-.57.65-1.01,1.16-1.33.5-.31,1.1-.47,1.78-.47.84,0,1.54.25,2.1.76.56.5.85,1.16.89,1.96h-1.21c-.04-.49-.22-.88-.55-1.2s-.74-.47-1.22-.47c-.65,0-1.16.24-1.52.71-.36.47-.54,1.15-.54,2.04v.24c0,.87.18,1.53.54,2,.36.47.86.7,1.53.7ZM125.44,568.15l-.08.36c.71.12,1.06.53,1.06,1.2,0,.45-.19.8-.55,1.07-.37.26-.89.39-1.55.39l-.05-.74c.37,0,.65-.06.85-.18s.3-.29.3-.51c0-.2-.07-.35-.22-.45-.15-.1-.45-.17-.9-.21l.22-.93h.92Z" fill="#fff"/>
        <path d="M134.3,568.09c-.07-.15-.13-.41-.18-.79-.6.62-1.31.93-2.14.93-.74,0-1.35-.21-1.82-.63-.47-.42-.71-.95-.71-1.59,0-.78.3-1.39.89-1.82.59-.43,1.43-.65,2.51-.65h1.25v-.59c0-.45-.13-.81-.4-1.07-.27-.27-.66-.4-1.19-.4-.46,0-.84.12-1.15.35-.31.23-.46.51-.46.84h-1.29c0-.38.13-.74.4-1.09.27-.35.63-.63,1.08-.83.46-.2.96-.31,1.5-.31.87,0,1.54.22,2.03.65.49.43.74,1.03.76,1.79v3.46c0,.69.09,1.24.26,1.64v.11h-1.35ZM132.17,567.11c.4,0,.78-.1,1.15-.31.36-.21.62-.48.78-.81v-1.54h-1.01c-1.57,0-2.36.46-2.36,1.38,0,.4.13.72.4.94.27.23.61.34,1.03.34Z" fill="#fff"/>
        <path d="M142.12,560.58l.04.94c.57-.72,1.32-1.08,2.25-1.08,1.59,0,2.39.9,2.4,2.69v4.96h-1.28v-4.97c0-.54-.13-.94-.37-1.2-.24-.26-.62-.39-1.13-.39-.42,0-.78.11-1.1.33-.32.22-.56.51-.74.87v5.35h-1.28v-7.51h1.21Z" fill="#fff"/>
        <path d="M148.41,564.26c0-.74.14-1.4.43-1.99.29-.59.69-1.04,1.21-1.36.52-.32,1.1-.48,1.77-.48,1.02,0,1.85.35,2.48,1.06.63.71.95,1.65.95,2.83v.09c0,.73-.14,1.39-.42,1.97-.28.58-.68,1.03-1.2,1.36-.52.32-1.12.49-1.79.49-1.02,0-1.84-.35-2.47-1.06-.63-.71-.95-1.64-.95-2.81v-.09ZM149.7,564.42c0,.83.19,1.5.58,2.01.39.5.9.76,1.55.76s1.17-.26,1.55-.77c.38-.51.58-1.23.58-2.15,0-.82-.2-1.49-.59-2-.39-.51-.91-.77-1.56-.77s-1.15.25-1.53.76-.58,1.23-.58,2.17Z" fill="#fff"/>
        <path d="M38.71,575.81v1.82h1.4v.99h-1.4v4.66c0,.3.06.53.19.68s.34.23.64.23c.15,0,.35-.03.61-.08v1.04c-.34.09-.67.14-.99.14-.57,0-1.01-.17-1.3-.52-.29-.35-.44-.84-.44-1.48v-4.66h-1.37v-.99h1.37v-1.82h1.28Z" fill="#fff"/>
        <path d="M45.24,578.79c-.19-.03-.4-.05-.63-.05-.84,0-1.41.36-1.71,1.08v5.33h-1.28v-7.51h1.25l.02.87c.42-.67,1.02-1.01,1.79-1.01.25,0,.44.03.57.1v1.19Z" fill="#fff"/>
        <path d="M50.78,585.14c-.07-.15-.13-.41-.18-.79-.6.62-1.31.93-2.14.93-.74,0-1.35-.21-1.82-.63-.47-.42-.71-.95-.71-1.59,0-.78.3-1.39.89-1.82.59-.43,1.43-.65,2.51-.65h1.25v-.59c0-.45-.13-.81-.4-1.07-.27-.27-.66-.4-1.19-.4-.46,0-.84.12-1.15.35-.31.23-.46.51-.46.84h-1.29c0-.38.13-.74.4-1.09.27-.35.63-.63,1.08-.83.46-.2.96-.31,1.5-.31.87,0,1.54.22,2.03.65.49.43.74,1.03.76,1.79v3.46c0,.69.09,1.24.26,1.64v.11h-1.35ZM51.31,576.38v.07h-1.06s-1.04-1.18-1.04-1.18l-1.03,1.18h-1.06v-.09l1.71-1.88h.78l1.71,1.9ZM48.65,584.16c.4,0,.78-.1,1.15-.31.36-.21.62-.48.78-.81v-1.54h-1.01c-1.57,0-2.36.46-2.36,1.38,0,.4.13.72.4.94.27.23.61.34,1.03.34Z" fill="#fff"/>
        <path d="M55.09,577.63l.04.94c.57-.72,1.32-1.08,2.25-1.08,1.59,0,2.39.9,2.4,2.69v4.96h-1.28v-4.97c0-.54-.13-.94-.37-1.2-.24-.26-.62-.39-1.13-.39-.42,0-.78.11-1.1.33-.32.22-.56.51-.74.87v5.35h-1.28v-7.51h1.21Z" fill="#fff"/>
        <path d="M66.09,583.15c0-.35-.13-.62-.39-.81-.26-.19-.72-.36-1.37-.5-.65-.14-1.17-.31-1.55-.5-.38-.19-.66-.43-.85-.69-.18-.27-.27-.59-.27-.96,0-.62.26-1.14.78-1.56s1.19-.64,2-.64c.85,0,1.54.22,2.07.66.53.44.79,1,.79,1.69h-1.29c0-.35-.15-.65-.45-.91-.3-.25-.67-.38-1.13-.38s-.83.1-1.1.31-.4.47-.4.8c0,.31.12.54.37.7s.69.31,1.33.45,1.16.31,1.56.51c.4.2.69.44.88.72.19.28.29.62.29,1.02,0,.67-.27,1.21-.8,1.61-.54.41-1.23.61-2.09.61-.6,0-1.13-.11-1.6-.32-.46-.21-.83-.51-1.09-.89-.26-.38-.39-.79-.39-1.24h1.28c.02.43.2.77.52,1.02s.75.38,1.27.38c.49,0,.88-.1,1.17-.29.29-.2.44-.46.44-.79Z" fill="#fff"/>
        <path d="M69.05,575.64c0-.21.06-.38.19-.53.13-.14.32-.22.57-.22s.44.07.57.22c.13.14.19.32.19.53s-.06.38-.19.52c-.13.14-.32.21-.57.21s-.44-.07-.57-.21c-.13-.14-.19-.31-.19-.52ZM70.44,585.14h-1.28v-7.51h1.28v7.51Z" fill="#fff"/>
        <path d="M74.23,575.81v1.82h1.4v.99h-1.4v4.66c0,.3.06.53.19.68s.34.23.64.23c.15,0,.35-.03.61-.08v1.04c-.34.09-.67.14-.99.14-.57,0-1.01-.17-1.3-.52-.29-.35-.44-.84-.44-1.48v-4.66h-1.37v-.99h1.37v-1.82h1.28Z" fill="#fff"/>
        <path d="M76.66,581.32c0-.74.14-1.4.43-1.99.29-.59.69-1.04,1.21-1.36.52-.32,1.1-.48,1.77-.48,1.02,0,1.85.35,2.48,1.06.63.71.95,1.65.95,2.83v.09c0,.73-.14,1.39-.42,1.97-.28.58-.68,1.03-1.2,1.36-.52.32-1.12.49-1.79.49-1.02,0-1.84-.35-2.47-1.06-.63-.71-.95-1.64-.95-2.81v-.09ZM77.95,581.47c0,.83.19,1.5.58,2.01.39.5.9.76,1.55.76s1.17-.26,1.55-.77c.38-.51.58-1.23.58-2.15,0-.82-.2-1.49-.59-2-.39-.51-.91-.77-1.56-.77s-1.15.25-1.53.76-.58,1.23-.58,2.17Z" fill="#fff"/>
        <path d="M85.13,584.47c0-.22.07-.41.2-.56.13-.15.33-.22.59-.22s.46.07.6.22c.14.15.21.33.21.56s-.07.39-.21.53-.34.21-.6.21-.46-.07-.59-.21-.2-.32-.2-.53Z" fill="#fff"/>
      </g>
    </g>
    <g>
      <path d="M118.17,860.79c-42.75,1.84-84.12-4.6-93.77-20.68,5.81-46.02,68.81-44.84,70.79-34.93l62.97-2.76c43.21-1.84,42.8,26.42,22.06,37.69-30.8,25.28-62.05,20.68-62.05,20.68Z" fill="#0e1a26" opacity=".2"/>
      <g>
        <path d="M89.02,788.15c0,21.21-3,40.23,15.16,41.79,36.92,3.18,50.86-20.58,50.86-41.79,0-21.21-14.78-38.41-33.01-38.41-18.23,0-33.01,17.2-33.01,38.41Z" fill="#05293d"/>
        <ellipse cx="103.96" cy="790.95" rx="33.01" ry="38.41" fill="#05293d"/>
        <ellipse cx="97.78" cy="794.41" rx="21.27" ry="25.1" fill="#78a2c9"/>
        <path d="M55.64,792.26c-3.19-3.1-5.73-6.49-8.36-10.39-3.56,7.24-7.68,16.01-14.13,20.54-2.45,1.97-5.26,2.42-8.35,2.03-7.67-.97-10.92-9.34-11.69-16.08-.85-7.4-.49-14.69.95-22.01,1.29-6.56,2.74-12.82,4.45-19.27,2.38-8.98,6.25-19.23,11.73-26.81.12-9.06,1.16-18.92,5.39-27.2-1.11-2.13-1.71-4.2-1.92-6.66-.94-11.19-.24-22.28,2.42-33.19,3.79-15.54,11.49-29.37,24.41-38.97,13.92-10.34,35.37-13.76,52.35-13.04,4.69.2,30.27-.95,51.24,19.37,2.94,2.85,5.5,5.73,7.58,9.22,5.93,9.97,11.09,27.37,13.59,38.84.92,4.47,1.53,8.7,1.8,13.24.27,4.58-.92,8.82-3.5,12.68,8.41,7.77,10.97,17.78,13.95,28.33,2,8.65,3.11,20.64-1.48,28.52-2.97,5.11-6.18,5.35-11.59,5.61-2.73,8.44-6.75,16.06-11.56,23.37-2.79,4.24-5.91,7.81-9.87,11.02-7.97,6.47-17.17,11.09-27.13,13.7-3.37.88-6.64,1.07-10.09,1.48-4.54.54-8.83,1.25-13.43,1.45-14.71.64-31.29-1.26-44.83-7.75-4.5-2.18-8.4-4.68-11.93-8.04ZM94.7,604.9c-11.21,1.32-22.99,4.92-32.06,11.61-7.27,5.36-12.89,12.37-17.02,20.15-3.37,6.35-5.99,12.77-7.39,19.93-2.04,10.43-2.7,21.07-1.07,31.64,1.09,7.04,10.97,12.91,16.96,15.62,8.5,3.84,17.39,6.14,26.67,7.3,17.45,2.18,37.67,1.23,55.06-1.26,13.68-1.96,27.26-5.54,39.17-12.53,1.09-.64,2.51-.87,3.44-1.67,3.1-2.69,5.15-6.81,5.45-10.92s-.15-7.61-.79-11.5c-1.73-10.53-4.67-20.63-8.52-30.55-1.28-3.3-2.72-6.24-4.31-9.34-1.98-3.85-4.7-6.89-7.66-9.8-8.02-7.9-17.92-13.5-28.63-16.61-2.8-.81-5.33-1.77-8.19-2.08-4.61-.49-9.13-.68-13.63-.56-5.96-.44-11.74-.08-17.47.59ZM37.24,697c-2.63,5.76-3.55,13.07-3.73,19.5,1.45-1.19,2.81-2.26,4.46-3.05,6.47-3.13,10.87.82,13.84,1.65s5.4,1.57,7.43,3.99c9.41,11.21,8,31.15,3.16,44.19-1.36,3.65-3.59,6.68-6.03,9.51-1.67,1.94-4.37,2.84-6.39,3.82-.61.55-.77,1.24-1.06,2.03,2.6,4.21,5.49,8.09,9.13,11.47,7.21,6.7,18.45,10.7,27.97,12.74,8.2,1.76,16.34,2.35,24.74,2.26,5.14-.05,10.03-.05,15.1-.65,3.08-.36,5.84-1.32,8.82-2.16,6.86-1.93,13.31-4.68,19.3-8.54,5.11-3.29,5.19-3.55,9.65-7.3,2.68-2.25,4.32-5,6.24-7.63,17.26-23.63,19.49-50.95,10.03-78.2-1.83,2.1-3.15,3.99-4.88,5.77-.32.33-.54.69-.55,1.08-.67.31-1.14.77-1.65,1.27-5.71,5.51-12.25,9.8-19.59,12.92-12.85,5.46-25.45,6.77-39.35,6.95-9.82.12-19.37-.59-29-2.4-7.76-1.46-14.95-3.92-22.03-7.01-10.27-5.14-19-12.52-25.57-22.2ZM193.76,722.13c-2.18-7.94-5.05-18.24-11.31-24.13,1.78,5.49,3.43,10.41,4.51,15.86,1.62,8.16,2.13,16.3,1.56,24.5-.36,5.14-1.88,10.16-2.89,15.35,1.34.05,3.04.02,4.33-.52,3.48-1.48,5.51-7.45,5.55-10.75,1.08-5.96-.12-14.39-1.74-20.31ZM65.17,716.47c16.07,7.74,35.56,9.7,53.21,8.8,7.09-.36,13.82-1.03,20.7-2.58,6.27-1.42,12.14-3.37,17.86-6.3,7.44-3.87,13.92-9.04,18.96-15.95-14.14,7.68-28.4,11.4-44.17,13.4-14.49,1.66-28.9,2-43.47,1.11-6.88-.53-13.42-1.22-20.11-2.75-6.59-1.33-12.56-3.61-18.85-6.41,4.74,4.72,10.18,7.8,15.86,10.67ZM49.11,705.81c.07,0,.12-.05.12-.12,0-.07-.05-.12-.12-.12s-.12.05-.12.12.05.12.12.12ZM23.82,740.26c-2.22,6.31-3.89,12.68-4.99,19.15-2.01,7.27-3.3,16.71-2.63,23.96-.06,6.78,1.63,13.86,7.01,18.09,1.04.82,2.24,1.06,3.44.72,3.37-.96,6.08-2.9,8.31-5.59,2.58-3.11,4.61-6.44,6.37-10.11l6.39-13.39c5.93-12.42,13.65-31.11,10.04-44.63-1.43-5.35-5.14-9.64-10.21-11.56-11.66-6.64-20.88,15.28-23.73,23.36Z" fill="#05293d"/>
        <path d="M56.36,772.79c15.59,11.89,34.52,18.99,54.22,20.25,20.45,1.31,40.2-3.38,57.81-13.7.55-.32.95-.51,1.45-.5,17.26-23.63,19.49-50.95,10.03-78.2-1.83,2.1-3.15,3.99-4.88,5.77-.32.33-.54.69-.55,1.08.22.23.34.69.2,1.17-3.06,10.98-10.32,20.45-18.77,28.05-.46.41-38.34,12.46-41.28,12.17-12.74-1.25-26.41-1.12-36.21-9.31-5.75-4.81-11.15-11.33-14.74-18.01,0-.01-1.74-2.27-.83-2.35-10.27-5.14-19-12.52-25.57-22.2-2.63,5.76-3.55,13.07-3.73,19.5,1.45-1.19,2.81-2.26,4.46-3.05,6.47-3.13,10.87.82,13.84,1.65s5.4,1.57,7.43,3.99c9.41,11.21,8,31.15,3.16,44.19-1.36,3.65-3.59,6.68-6.03,9.51Z" fill="#4982b7"/>
        <path d="M37.15,688.22c1.09,7.04,10.97,12.91,16.96,15.62,8.5,3.84,17.39,6.14,26.67,7.3,17.45,2.18,37.67,1.23,55.06-1.26,13.68-1.96,27.26-5.54,39.17-12.53,1.09-.64,2.51-.87,3.44-1.67,3.1-2.69,5.15-6.81,5.45-10.92.29-3.93-.15-7.61-.79-11.5-1.73-10.53-4.67-20.63-8.52-30.55-1.28-3.3-2.72-6.24-4.31-9.34-1.98-3.85-4.7-6.89-7.66-9.8-.44-.52-.91-.97-1.42-1.35-7.76-7.19-17.12-12.33-27.21-15.26-2.8-.81-5.33-1.77-8.19-2.08-4.61-.49-9.13-.68-13.63-.56.11.59-.36.99-.67,1.52-2.71,4.64-9.02,5.87-13.34,3.22-1.67-1.02-3.22-2.34-3.46-4.14-11.21,1.32-22.99,4.92-32.06,11.61-7.27,5.36-12.89,12.37-17.02,20.15-3.37,6.35-5.99,12.77-7.39,19.93-2.04,10.43-2.7,21.07-1.07,31.64ZM85.13,639.03c3.12-3.19,6.55-5.92,11-7.21,4.09-1.19,8.16-1.97,12.46-2.1,5.66-.16,9.43,1.49,14.88,2.37.09-.04.17-.08.26-.11-.09.04-.18.07-.26.11,2.83.91,5.94,1.14,9.04.88,2.37-.2,4.46-1.37,6.15-2.94l3.33-3.1c3.09-2.88,6.88-4.12,11.15-3.75,12.06,1.05,18.97,15.74,22.24,25.89,2.87,8.9,4.88,17.94,5.72,27.25.52,5.73-1.56,10.9-5.64,14.74-5.96,5.61-15.47,8.73-23.43,10.32-8.67,1.74-17.16,3.07-25.95,4.16-8.53,1.05-18.57,1.66-26.73-1-9.71-3.17-15.19-10.82-18.01-20.32-1.74-5.85-2.59-11.71-3-17.81-.63-9.38.72-19.85,6.8-27.39Z" fill="#78a2c9"/>
        <path d="M62.81,719.2c-.91.08.83,2.34.83,2.35,3.58,6.68,8.98,13.2,14.74,18.01,9.79,8.19,20.77,12.73,33.53,13.77,26.1,2.14,44.67-15.9,45.13-16.32,8.45-7.6,14.53-17.39,17.59-28.37.13-.48.01-.94-.2-1.17-.67.31-1.14.77-1.65,1.27-5.71,5.51-12.25,9.8-19.59,12.92-12.85,5.46-25.45,6.77-39.35,6.95-9.82.12-19.37-.59-29-2.4-7.76-1.46-14.95-3.92-22.03-7.01Z" fill="#78a2c9"/>
        <path d="M169.84,778.84c-.5,0-.9.18-1.45.5-17.6,10.32-37.35,15.01-57.81,13.7-19.7-1.26-38.63-8.36-54.22-20.25-1.67,1.94-4.37,2.84-6.39,3.82-.61.55-.77,1.24-1.06,2.03,2.6,4.21,5.49,8.09,9.13,11.47,7.21,6.7,18.45,10.7,27.97,12.74,8.2,1.76,16.34,2.35,24.74,2.26,5.14-.05,10.03-.05,15.1-.65,3.08-.36,5.84-1.32,8.82-2.16,6.86-1.93,13.31-4.68,19.3-8.54,5.11-3.29,5.19-3.55,9.65-7.3,2.68-2.25,4.32-5,6.24-7.63Z" fill="#165d91"/>
        <path d="M18.82,759.41c-2.01,7.27-3.3,16.71-2.63,23.96,10.19,0,21.32-3.87,29.86-9.58.59-.4,1.09-.66,1.66-.7,5.93-12.42,13.65-31.11,10.04-44.63-1.43-5.35-5.14-9.64-10.21-11.56.56,3.24,1.11,6.48.87,9.88-.55,7.75-3.23,14.97-8.38,20.84-5.78,6.58-12.61,10.47-21.2,11.79Z" fill="#4982b7"/>
        <path d="M49.32,705.81c4.74,4.72,10.18,7.8,15.86,10.67,16.07,7.74,35.56,9.7,53.21,8.8,7.09-.36,13.82-1.03,20.7-2.58,6.27-1.42,12.14-3.37,17.86-6.3,7.44-3.87,13.92-9.04,18.96-15.95-14.14,7.68-28.4,11.4-44.17,13.4-14.49,1.66-28.9,2-43.47,1.11-6.88-.53-13.42-1.22-20.11-2.75-6.59-1.33-12.56-3.61-18.85-6.41Z" fill="#05293d"/>
        <path d="M18.82,759.41c8.59-1.32,15.43-5.21,21.2-11.79,5.15-5.87,7.83-13.09,8.38-20.84.24-3.4-.3-6.64-.87-9.88-11.66-6.64-20.88,15.28-23.73,23.36-2.22,6.31-3.89,12.68-4.99,19.15Z" fill="#78a2c9"/>
        <path d="M16.19,783.37c-.06,6.78,1.63,13.86,7.01,18.09,1.04.82,2.24,1.06,3.44.72,3.37-.96,6.08-2.9,8.31-5.59,2.58-3.11,4.61-6.44,6.37-10.11l6.39-13.39c-.57.04-1.07.3-1.66.7-8.54,5.71-19.67,9.58-29.86,9.58Z" fill="#165d91"/>
        <path d="M188.52,738.37l5.12,3.28c.62.4,1.16.88,1.86.79,1.08-5.96-.12-14.39-1.74-20.31-2.18-7.94-5.05-18.24-11.31-24.13,1.78,5.49,3.43,10.41,4.51,15.86,1.62,8.16,2.13,16.3,1.56,24.5Z" fill="#4982b7"/>
        <path d="M188.52,738.37c-.36,5.14-1.88,10.16-2.89,15.35,1.34.05,3.04.02,4.33-.52,3.48-1.48,5.51-7.45,5.55-10.75-.7.09-1.25-.4-1.86-.79l-5.12-3.28Z" fill="#165d91"/>
        <path d="M94.7,604.9c.24,1.8,1.79,3.12,3.46,4.14,4.32,2.65,10.63,1.42,13.34-3.22.3-.52.78-.92.67-1.52-5.96-.44-11.74-.08-17.47.59Z" fill="#bbdaf2"/>
        <circle cx="49.11" cy="705.69" r=".12" fill="#35397c"/>
        <path d="M132.51,632.97c2.37-.2,4.46-1.37,6.15-2.94l3.33-3.1c3.09-2.88,6.88-4.12,11.15-3.75,12.06,1.05,18.97,15.74,22.24,25.89,2.87,8.9,4.88,17.94,5.72,27.25.52,5.73-1.56,10.9-5.64,14.74-5.96,5.61-15.47,8.73-23.43,10.32-8.67,1.74-17.16,3.07-25.95,4.16-8.53,1.05-18.57,1.66-26.73-1-9.71-3.17-15.19-10.82-18.01-20.32-1.74-5.85-2.59-11.71-3-17.81-.63-9.38.72-19.85,6.8-27.39,3.12-3.19,6.55-5.92,11-7.21,4.09-1.19,8.16-1.97,12.46-2.1,5.66-.16,9.43,1.49,14.88,2.37,2.83.91,5.94,1.14,9.04.88ZM128.22,703.88c8.1-1.15,15.94-2.54,23.92-4.28,4.57-1,8.83-2.31,13.1-4.12,8.27-3.5,15.08-9.27,14.48-19.16-1.26-14.21-7.41-39.93-19.55-48.68-4-2.89-9.23-3.77-13.83-1.8-5.44,2.33-6.29,7.98-15.03,8.28-4.1.14-8.04-.16-12.06-1.22-5.97-1.58-11.94-1.8-17.98-.49-2.7.59-5.24,1.1-7.75,2.33-13.69,6.73-15.29,23.55-13.15,36.81.46,4.67,1.53,9.01,2.96,13.32,2.79,8.37,7.99,15.24,16.61,18.09,4.41,1.46,8.94,2.03,13.46,1.89,5.05.1,9.82-.28,14.81-.99Z" fill="#d3ab32"/>
        <g>
          <path d="M126.2,739.53c2.75.77,5.44.55,7.9-.82l3.85-2.15c4.8-2.86,10.37-3.37,15.75-1.83,6.49,1.86,7.88-2.09,8.55.04,2.02,9.46,1.49,21.29-3.68,29.85-3.44,5.69-10.1,8.48-16.53,6.92-1.91-.46-3.23-1.39-4.74-2.47-1.88-1.34-3.49-2.63-4.7-4.66-3.12-5.22-3.71-8.38-5.47-14.08-.38-3.53-1.26-7-.91-10.8ZM142.51,769.55c5.6,1.54,11.37-1.18,14.28-6.07,4.38-7.36,5.27-18.31,3.64-26.66-2.55.82-4.9.57-7.3-.13-5.05-1.49-10.17-.94-14.64,1.81-3.11,1.91-6.4,3.83-10.35,3.44.48,8.05,3.68,19.97,9.84,25.65,1.17,1.08,3.08,1.57,4.54,1.97Z" fill="#05293d"/>
          <path d="M137.97,767.58c1.17,1.08,3.08,1.57,4.54,1.97,5.6,1.54,11.37-1.18,14.28-6.07,4.38-7.36,5.27-18.31,3.64-26.66-2.55.82-4.9.57-7.3-.13-5.05-1.49-10.17-.94-14.64,1.81-3.11,1.91-6.4,3.83-10.35,3.44.48,8.05,3.68,19.97,9.84,25.65Z" fill="#ffb600"/>
        </g>
        <path d="M80.37,671.56c.46,4.67,1.53,9.01,2.96,13.32,2.79,8.37,7.99,15.24,16.61,18.09,4.41,1.46,8.94,2.03,13.46,1.89,5.05.1,9.82-.28,14.81-.99,8.1-1.15,15.94-2.54,23.92-4.28,4.57-1,8.83-2.31,13.1-4.12,8.27-3.5,15.08-9.27,14.48-19.16-1.26-14.21-7.41-39.93-19.55-48.68-4-2.89-9.23-3.77-13.83-1.8-5.44,2.33-6.29,7.98-15.03,8.28-4.1.14-8.04-.16-12.06-1.22-5.97-1.58-11.94-1.8-17.98-.49-2.7.59-5.24,1.1-7.75,2.33-13.69,6.73-15.29,23.55-13.15,36.81Z" fill="#05293d"/>
        <path d="M98.75,678.97c-4.97-10.48-7.14-27.73,5.68-33.34,7.12-3.11,14.7-.44,18.74,6.05,4.57,7.34,6.2,18.07,3.75,26.27-.96,2.43-2.02,4.61-3.84,6.45-5.04,5.11-14.71,6.11-20.41.25-1.63-1.67-2.9-3.53-3.92-5.68Z" fill="#fefefe"/>
        <path d="M145.14,648.62c.08-3.24,1.09-8.75,4.19-10.26,4.19-2.04,9.07-1.12,12.52,1.97,5.67,5.08,8.13,15.13,8.39,22.43.14,4.1-.81,9.75-4.49,12.06-4.23,2.66-9.49,1.83-12.97-1.83-5.74-6.04-7.83-16.43-7.64-24.37Z" fill="#fefefe"/>
        <path d="M159.44,670.43c6.17-1.22,2.52-16.09-4.73-14.49-4.93,1.08-.51,15.53,4.73,14.49Z" fill="#05293d"/>
        <path d="M113.1,679.96c6.29-.05,5.47-15.34-1.95-15.12-5.05.15-3.39,15.16,1.95,15.12Z" fill="#05293d"/>
        <path d="M152.68,686.22c.64.58-3.28,5.88-10.26,5.83-3.95-.03-6.72-1.67-6.3-2.91.45-1.36,3.65,1.3,10.09-.52,4.87-1.38,6.11-2.72,6.48-2.39Z" fill="#fefefe"/>
        <path d="M37.64,659.86c2.32,6.2,5.96,12.68,12.31,17.16,3.32,2.34,10.94,6.63,30.49,3.92.27,1.1.56,2.2.89,3.29,2.82,9.5,8.31,17.15,18.01,20.32,8.16,2.66,18.2,2.06,26.73,1,8.79-1.09,17.29-2.42,25.95-4.16,7.96-1.59,17.47-4.72,23.43-10.32,4.08-3.84,6.16-9.01,5.64-14.74-.85-9.31-2.85-18.35-5.72-27.25-.57-1.76-1.25-3.67-2.05-5.61.46-.19.91-.36,1.35-.52,3.8,9.84,6.71,19.87,8.43,30.31.64,3.9,1.08,7.57.79,11.5-.3,4.12-2.35,8.23-5.45,10.92-.93.8-2.35,1.04-3.44,1.67-11.91,6.98-25.49,10.57-39.17,12.53-17.39,2.49-37.61,3.44-55.06,1.26-9.28-1.16-18.17-3.46-26.67-7.3-6-2.71-15.88-8.58-16.96-15.62-1.46-9.47-1.08-18.99.48-28.37Z" fill="#165d91"/>
      </g>
    </g>
  </g>
</svg>