<?xml version="1.0" encoding="UTF-8"?>
<svg id="Layer_2" data-name="Layer 2" xmlns="http://www.w3.org/2000/svg" viewBox="0 0 91.21 200.48">
  <g id="Layer_1-2" data-name="Layer 1">
    <g id="qrjQy7">
      <g>
        <path d="M55.89,6.41c-4.44-1.67-8.82-3.51-13.53-4.53-.12-.03-.15-.18-.08-.21,1.34.02,12.32,3.47,13.61,4.75Z" fill="#603620"/>
        <path d="M86.91,51.44c-.03,2.02-1.06,3.92-1.79,5.9.29.2.65.21.71.49-.29-.09-.6-.18-.93-.41.66-1.97,1.4-3.86,1.79-5.92.02-.1.19-.14.21-.07Z" fill="#603620"/>
        <path d="M26.72,10.56c-.92-.02-6.53-1.71-7.03-2.46,2.26.9,4.53,1.76,6.95,2.33.03.09.05.12.07.13Z" fill="#603620"/>
        <path d="M34.11,92.43c-.86.39-5.14-1.27-6.26-1.72-.2-.08-.41-.13-.36-.34.23.02.48.1.74.22,1.92.89,3.91,1.35,5.88,1.84Z" fill="#603620"/>
        <path d="M.26,18.73v5.81c-.09.09-.25-.04-.25-.17v-5.47c0-.13.16-.26.25-.17Z" fill="#603620"/>
        <path d="M30.57.25c-1.75-.02-3.54-.12-5.25-.09-.04-.07.06-.15.16-.15h4.92c.13,0,.26.16.17.24Z" fill="#603620"/>
        <path d="M3.73,43.42c.01-1.85,1.39-4.36,1.2-5.51.14.01.24.09.32.18.15.18.03.31-.04.52-.58,1.54-.94,3.12-1.29,4.74-.02.11-.13.14-.19.07Z" fill="#603620"/>
        <path d="M1.92,71.61c-.49.26-2.19-4.99-1.66-5.1.17,0,.15.25.16.42.16,1.72.88,3.17,1.49,4.67Z" fill="#603620"/>
        <path d="M89.92,66.5c0,1.66-.66,3.26-1.32,4.84-.06.13-.22.15-.28.14.54-1.47,1.22-2.89,1.35-4.54,0-.12,0-.23.02-.31.02-.08.1-.22.23-.13Z" fill="#603620"/>
        <path d="M39.82,167.53c-.17,1.45-.83,2.8-1.42,4.19-.07.16-.18.27-.31.24.48-1.41,1.22-2.72,1.47-4.28.02-.11.21-.23.27-.16Z" fill="#603620"/>
        <path d="M7.15,11.11c-.1-.08-.17-.22-.17-.41v-3.18c0-.21.1-.31.16-.42.08-.05.11.06.11.16v3.68c0,.1-.03.21-.11.16Z" fill="#603620"/>
        <path d="M90.75,37.81c-.05.07-.17.03-.2-.07-.26-.98-.47-1.93-.84-2.87-.18-.47-.39-.9-.43-1.36.03-.05.17-.03.21.07.5,1.43,1.09,2.79,1.26,4.23Z" fill="#603620"/>
        <path d="M3.59,48.61c-.1-.08-.17-.22-.17-.41v-2.9c0-.19.07-.33.17-.41.08-.05.11.06.11.16v3.41c0,.1-.03.21-.11.16Z" fill="#603620"/>
        <path d="M57.26,95.8c-.25.01-.45-.14-.71-.24l-3.3-1.26c1.25.05,2.4.78,3.68,1.13.2.05.36.23.34.37Z" fill="#603620"/>
        <path d="M52.43,189.47c-.51.02-1.47-3.18-1.47-3.74,0-.03.09-.05.19-.03.22,1.37.82,2.54,1.28,3.77Z" fill="#603620"/>
        <path d="M83.12,17.13c.05.08-.06.11-.16.11h-3.14c-.1,0-.21-.03-.16-.11.09-.1.22-.16.41-.16h2.63c.19,0,.33.07.41.17Z" fill="#603620"/>
        <path d="M40.78,163.42c0,.29-.69,3.59-.95,3.88-.07-1.25.59-2.48.71-3.81.05-.08.21-.14.24-.07Z" fill="#603620"/>
        <path d="M8.48,1.26c-.67.44-.7,3.53-1.06,3.15.01-.7.37-3.03,1.06-3.15Z" fill="#603620"/>
        <path d="M87.09,144.16l-.94-2.25c-.17-.4-.36-.72-.45-1.08.06,0,.23.02.29.15.43,1.07,1.1,2.09,1.1,3.18Z" fill="#603620"/>
        <path d="M3.96,57.63c-.04-.4.6-.24.8-.53.33-.49-.56-1.52-.25-2.22.31.21.41,1.75.54,2.3l-1.08.45Z" fill="#603620"/>
        <path d="M60.54,90.91c.33.28-3.4,1.33-3.47,1.33-.09-.14.12-.23.27-.28l3.2-1.05Z" fill="#603620"/>
        <path d="M86.69,18.05c-1.02-.28-2.02-.62-3.14-.7-.09,0-.13-.19-.06-.22.47,0,3.36.43,3.2.91Z" fill="#603620"/>
        <path d="M1.37,60.08c-.42,1.27-.71,1.23-1,2.99-.02.1-.16.14-.2.07-.01-.74.65-2.94,1.2-3.06Z" fill="#603620"/>
        <path d="M9.16,18.78c-.32.25-1.15-2.76-1.19-3.07.25-.07.26.28.33.49l.86,2.57Z" fill="#603620"/>
        <path d="M27.14,90.33c-.92-.23-1.7-.84-2.65-1.2-.13-.05-.14-.21-.14-.28.16,0,3.02,1.27,2.78,1.48Z" fill="#603620"/>
        <path d="M2.32,33.29c-.27.23-1.18-2.76-1.19-3.07.13-.09.23.12.28.27l.91,2.79Z" fill="#603620"/>
        <path d="M.26,66.15c-.09.1-.24-.04-.24-.17L0,63.91c0-.19.08-.33.17-.41.21-.28.09,2.58.09,2.65Z" fill="#603620"/>
        <path d="M.58,27.67c-.12.19-.65-2.88-.32-2.77.26.09.14.43.16.7.06.8.44,1.9.16,2.07Z" fill="#603620"/>
        <path d="M89.92,64.09c-.03.07-.21.02-.23-.06,0-.99-.31-1.85-.55-2.73.46-.08.85,2.18.78,2.79Z" fill="#603620"/>
        <path d="M80.24,155.89c-.66.5-1.6.67-2.47.73-.16.01-.23-.17-.29-.18.88-.26,1.23.04,2.54-.62.1-.05.19.03.23.07Z" fill="#603620"/>
        <path d="M75.02,123.63c-.24.37-1.36-2.51-1.36-2.52.22-.33,1.37,2.53,1.36,2.52Z" fill="#603620"/>
        <path d="M7.56,13.84c-.32-.72-.42-1.58-.41-2.37.07-.07.14-.03.17.03-.05-.09.42,1.9.23,2.35Z" fill="#603620"/>
        <path d="M87.61,45.74c-.18.48-.18-2.71,0-2.23.23-.17.23,2.4,0,2.23Z" fill="#603620"/>
        <path d="M89.25,33.15c-.22.24-1.17-2.04-1.21-2.24.25-.21,1.16,1.97,1.21,2.24Z" fill="#603620"/>
        <path d="M41.46,160.13c-.04.8-.2,1.65-.54,2.37-.22-.75.32-1.48.32-2.31.01-.09.19-.13.22-.06Z" fill="#603620"/>
        <path d="M90.75,41.62c.19-.35.18-1.6.18-2.08.25-.54.56,2.19-.18,2.08Z" fill="#603620"/>
        <path d="M62.33,141.81c1.23-1.34.2-1.09.66-1.8.31.68.06,1.53-.66,1.8Z" fill="#603620"/>
        <path d="M8.25,76.63c-.22-.02-2.37-.63-2.11-.93l1.83.66c.16.06.37.13.28.28Z" fill="#603620"/>
        <path d="M82.43,155.24c.11.53-1.56.55-1.96.65-.19-.34.97-.32,1.96-.65Z" fill="#603620"/>
        <path d="M63.38,148.96c-.09.08-.21-.03-.25-.17l-.27-1.26c-.04-.18.03-.31.12-.4.21.57.38,1.21.4,1.83Z" fill="#603620"/>
        <path d="M63.92,151.7c-.3.38-.68-1.97-.4-1.83.25.56.38,1.21.4,1.83Z" fill="#603620"/>
        <path d="M7.25,6.45c-.29.24.02-1.87.17-1.81.26-.46-.07,2.16-.17,1.81Z" fill="#603620"/>
        <path d="M33.02.3c-.51.18-1.21.24-1.68-.04-.05-.18,1.94-.19,1.68.04Z" fill="#603620"/>
        <path d="M89.93,66.14c-.2-.5-.2-1.18,0-1.68.27.48.26,1.2,0,1.68Z" fill="#603620"/>
        <path d="M62.69,145.54c-.2.46-.68-1.87-.4-1.7.28.5.38,1.12.4,1.7Z" fill="#603620"/>
        <path d="M67.62,169.22c-.24.38-.7-1.77-.4-1.7.26.52.38,1.13.4,1.7Z" fill="#603620"/>
        <path d="M82.04,76.96c.44.23-1.99.72-1.69.41.51-.28,1.12-.29,1.69-.41Z" fill="#603620"/>
        <path d="M41.37,1.52c-.52.17-1.2-.05-1.67-.32.53-.15,1.19.07,1.67.32Z" fill="#603620"/>
        <path d="M10.03,76.91c-.53.02-1.12.08-1.55-.27-.26-.16,2.09.03,1.55.27Z" fill="#603620"/>
        <path d="M38.63.98c.33.28-1.88-.08-1.54-.18-.01-.26,1.57.06,1.54.18Z" fill="#603620"/>
        <path d="M87.6,46.24c0,.48.19,1.02-.13,1.41-.13.33-.28-1.81.13-1.41Z" fill="#603620"/>
        <path d="M76.65,13.03c-.21.2-.78-1.23-.8-1.42.22-.19.81,1.18.8,1.42Z" fill="#603620"/>
        <path d="M72.41,118.43c-.22.18-.79-1.17-.79-1.42.31-.17.79,1.41.79,1.42Z" fill="#603620"/>
        <path d="M4.27,53.81c-.22-.4-.41-.98-.18-1.4.23.39.42.99.18,1.4Z" fill="#603620"/>
        <path d="M3.16,35.08c-.23.16-.81-1.19-.8-1.43.22-.19.78,1.21.8,1.43Z" fill="#603620"/>
        <path d="M69.26,176.75c-.15.47-.71-1.73-.39-1.56.22.48.35,1.03.39,1.56Z" fill="#603620"/>
        <path d="M29.05,11.1c.19.29-2.06-.27-1.55-.4.52.01,1.1.13,1.55.4Z" fill="#603620"/>
        <path d="M77.33,14.95c-.2.35-.63-1.46-.64-1.56.26-.24.62,1.32.64,1.56Z" fill="#603620"/>
        <path d="M87.05,50.53c-.25.17.09-1.74.18-1.4.23.42.03,1-.18,1.4Z" fill="#603620"/>
        <path d="M87.9,20.01c.36-1.09-.17-1-.43-1.67.25.12.42.2.63.5.29.42.23,1.01-.2,1.17Z" fill="#603620"/>
        <path d="M71.98,83.51c-.24.41-.5.66-.9.93.21-.38.55-.67.9-.93Z" fill="#603620"/>
        <path d="M24.36.43c-.32.34-.49.8-.27,1.23-.49-.22-.18-1.04.27-1.23Z" fill="#603620"/>
        <path d="M7.97,15.49c-.31-.38-.37-.93-.4-1.41.13-.35.55,1.06.4,1.41Z" fill="#603620"/>
        <path d="M90.93,39.3c-.21-.34-.35-.89-.18-1.26.24.35.42.88.18,1.26Z" fill="#603620"/>
        <path d="M71.64,6.84c-.33-.18-.74-.37-1.16-.29,0-.16.12-.26.23-.26.23,0,.99.28.92.55Z" fill="#603620"/>
        <path d="M63.01,89.82c-.15.42-.73.56-1.15.65.15-.42.74-.55,1.15-.65Z" fill="#603620"/>
        <path d="M62.57,135.82c-.45.32-.29-1.39-.13-1.15.21.35.11.75.13,1.15Z" fill="#603620"/>
        <path d="M87.6,43.01c-.41.33-.26-1.43-.13-1.14.29.3.13.75.13,1.14Z" fill="#603620"/>
        <path d="M90.52,41.64c.09.13-.05.21-.12.23-.24.07-1.08.03-1.01-.39.37.1.75.15,1.14.15Z" fill="#603620"/>
        <path d="M62.69,137.18c-.44.3-.27-1.4-.12-1.15.24.33.1.76.12,1.15Z" fill="#603620"/>
        <path d="M64.38,89.12c-.13.44-.73.55-1.15.68.13-.44.73-.56,1.15-.68Z" fill="#603620"/>
        <path d="M9.85,20.29c-.42-.15-.61-.73-.65-1.15.42.14.56.73.65,1.15Z" fill="#603620"/>
        <path d="M67.91,170.59c-.4-.13-.5-.81-.28-1.15.24.31.26.76.28,1.15Z" fill="#603620"/>
        <path d="M65.98,161.42c-.39-.13-.5-.83-.25-1.15.2.33.24.76.25,1.15Z" fill="#603620"/>
        <path d="M81.17,187.38c-.04.41-.07,1.03-.51,1.15.01-.06.33-1.47.51-1.15Z" fill="#603620"/>
        <path d="M23.29,88.3c-.34-.17-.77-.29-.94-.65.54.34.99.36.94.65Z" fill="#603620"/>
        <path d="M72.45,114.06c0-.39-.02-.78-.14-1.15.3-.03.29.35.36.54.11.29.04.54-.22.61Z" fill="#603620"/>
        <path d="M1.82,17.52c-.38-.14-.77-.16-1.15,0,.02-.3.35-.38.61-.37.22.02.55.1.53.36Z" fill="#603620"/>
        <path d="M34.25.43c.26.13-1.3.27-1-.13.34-.02.74-.13,1,.13Z" fill="#603620"/>
        <path d="M3.72,49.85c-.26-.27-.12-.66-.13-1.01.43.05.3.74.13,1.01Z" fill="#603620"/>
        <path d="M35.63.66c-.15,0-1.24.16-1.01-.22.14,0,1.25-.15,1.01.22Z" fill="#603620"/>
        <path d="M3.59,44.65c0-.33-.17-.78.14-1,.19.13.2,1.24-.14,1Z" fill="#603620"/>
        <path d="M87.46,149.04c0,.38-.09.95-.52,1.02.02-.1.35-1.3.52-1.02Z" fill="#603620"/>
        <path d="M64.88,156.21c-.37-.08-.48-.73-.25-1.01.2.29.24.66.25,1.01Z" fill="#603620"/>
        <path d="M64.34,153.61c-.37-.08-.47-.73-.25-1.01.2.29.24.66.25,1.01Z" fill="#603620"/>
        <path d="M85.68,27.63c-.27-.15-.5-.37-.64-.64.25.2.43.39.64.64Z" fill="#603620"/>
        <path d="M62.83,138.28c-.25.08-.28-.22-.27-.37.02-.19-.03-.42.15-.51.22.24.11.58.12.88Z" fill="#603620"/>
        <path d="M36.86.8c-.29,0-.69.15-.86-.13.14-.11.31-.13.49-.13.16,0,.46.01.38.26Z" fill="#603620"/>
        <path d="M58.49,96.35c-.33-.08-.82-.12-.87-.51.33.05.81.14.87.51Z" fill="#603620"/>
        <path d="M3.87,51.21c-.29-.17-.13-.58-.14-.86.25-.08.26.22.26.38,0,.18-.02.35-.13.49Z" fill="#603620"/>
        <path d="M27,95.7c-.06.38-.56.41-.88.53.07-.38.54-.47.88-.53Z" fill="#603620"/>
        <path d="M78.19,77.36c-.26.19-.63.2-.86-.04.21-.2.68-.21.86.04Z" fill="#603620"/>
        <path d="M13.14,78.18c-.39-.04-.48-.53-.54-.86.39.04.47.53.54.86Z" fill="#603620"/>
        <path d="M79.7,77.46c-.15.1-.26.22-.49.18-.15-.02-.46,0-.38-.27.29,0,.65-.13.86.09Z" fill="#603620"/>
        <path d="M87.6,146.5c-.25.08-.27-.21-.27-.38,0-.17.02-.35.13-.49.29.17.13.58.14.86Z" fill="#603620"/>
        <path d="M77.49,128.42c-.39-.05-.42-.56-.54-.88.38.07.4.57.54.88Z" fill="#603620"/>
        <path d="M75.42,153.2c-.19-.26-.19-.63.04-.86.2.21.21.68-.04.86Z" fill="#603620"/>
        <path d="M87.37,20.42c-.13.35-.51.46-.87.51.06-.38.54-.47.87-.51Z" fill="#603620"/>
        <path d="M87.46,48.02c0,.11.15,1.09-.22.88-.01-.13-.15-1.08.22-.88Z" fill="#603620"/>
        <path d="M57.95,7.39c-.33-.08-.82-.15-.88-.53.32.12.83.1.88.53Z" fill="#603620"/>
        <path d="M62.96,139.51c-.25.08-.29-.21-.27-.37.02-.19-.03-.42.14-.51.23.24.13.57.13.87Z" fill="#603620"/>
        <path d="M24.26,88.85c-.33,0-.81-.16-.86-.55.34.07.83.15.86.55Z" fill="#603620"/>
        <path d="M87.6,147.86c-.2-.21-.2-.65,0-.86.23.23.24.63,0,.86Z" fill="#603620"/>
        <path d="M.99,29.45c-.21-.22-.39-.59-.18-.85.2.22.34.59.18.85Z" fill="#603620"/>
        <path d="M30.02,11.34c-.13,0-.34.04-.48.03-.11,0-.34-.05-.25-.26.26,0,.77-.16.74.23Z" fill="#603620"/>
        <path d="M4.09,52.18c-.21.09-.25-.15-.25-.25,0-.17.03-.35.03-.49.38-.03.24.48.22.74Z" fill="#603620"/>
        <path d="M.56,17.64c-.05.26-.07.55-.3.72-.13-.12-.12-.29-.07-.43.06-.17.19-.27.36-.28Z" fill="#603620"/>
        <path d="M56.84,92.24c-.18.19-.49.36-.72.18.18-.19.49-.36.72-.18Z" fill="#603620"/>
        <path d="M62.41,133.9c-.18.09-.28-.1-.27-.23.02-.14,0-.36.16-.37.11.22.14.35.11.6Z" fill="#603620"/>
        <path d="M71.47,111.17c-.31.02-.38-.33-.41-.59.33-.03.31.36.41.59Z" fill="#603620"/>
        <path d="M72.15,112.41c-.32.02-.31-.36-.41-.59.32-.02.33.35.41.59Z" fill="#603620"/>
        <path d="M39.46,1.21c-.11.02-.23.03-.36.03-.11,0-.33-.06-.24-.26.12-.02.31-.05.47,0,.08.02.23.09.13.23Z" fill="#603620"/>
        <path d="M83.13,76.54c.01.32-.35.35-.6.37-.01-.32.35-.35.6-.37Z" fill="#603620"/>
        <path d="M25.76,96.37c.02.31-.32.4-.58.4-.02-.32.33-.35.58-.4Z" fill="#603620"/>
        <path d="M70.37,109.26c-.31.02-.38-.34-.41-.6.32-.02.31.37.41.6Z" fill="#603620"/>
        <path d="M4.5,54.65c-.19.09-.25-.14-.25-.24,0-.15,0-.25.03-.36.14-.09.22.05.24.14.03.14.01.35-.01.47Z" fill="#603620"/>
        <path d="M87.6,148.22c.02.19.09.5-.14.59-.1-.1-.13-.24-.13-.35,0-.15.1-.33.26-.24Z" fill="#603620"/>
        <path d="M4.68,19.43c-.26-.01-.61-.1-.58-.41.25.04.61.1.58.41Z" fill="#603620"/>
        <path d="M61.5,90.5c0,.31-.35.36-.6.37-.01-.31.35-.35.6-.37Z" fill="#603620"/>
        <path d="M17.02,6.84c-.23-.11-.64-.08-.6-.41.26.03.6.11.6.41Z" fill="#603620"/>
        <path d="M58.76,7.8c-.25-.05-.61-.07-.6-.39.26,0,.61.08.6.39Z" fill="#603620"/>
        <path d="M60.26,8.62c-.26-.04-.61-.09-.6-.41.26.03.62.09.6.41Z" fill="#603620"/>
        <path d="M33.55,180.12c-.03.25-.1.61-.41.59,0-.26.1-.61.41-.59Z" fill="#603620"/>
        <path d="M79.27,131.7c-.34.04-.34-.34-.41-.58.34-.04.33.34.41.58Z" fill="#603620"/>
        <path d="M5.78,75.56c-.25-.04-.61-.09-.58-.41.26.03.6.1.58.41Z" fill="#603620"/>
        <path d="M85.82,74.76c-.08.16-.22.28-.37.37.07-.17.23-.26.37-.37Z" fill="#603620"/>
        <path d="M20.94,86.76c-.18-.05-.35-.15-.38-.34.16.07.31.17.38.34Z" fill="#603620"/>
        <path d="M19.84,85.94c-.15-.09-.35-.15-.36-.35.15.09.28.2.36.35Z" fill="#603620"/>
        <path d="M19.02,85.26c-.14-.1-.3-.19-.37-.36.13.11.28.2.37.36Z" fill="#603620"/>
        <path d="M16.28,82.53c-.19-.05-.29-.2-.37-.37.17.07.25.24.37.37Z" fill="#603620"/>
        <path d="M24.49,2.17c-.18-.05-.32-.19-.37-.37.16.08.25.24.37.37Z" fill="#603620"/>
        <path d="M4.37,74.58c-.16-.09-.35-.16-.37-.37.16.08.29.21.37.37Z" fill="#603620"/>
        <path d="M3.27,73.49c-.2-.03-.3-.19-.37-.37.15.09.28.22.37.37Z" fill="#603620"/>
        <path d="M12.58,3.94c-.16-.08-.28-.21-.37-.35.15.09.32.17.37.35Z" fill="#603620"/>
        <path d="M26.54,4.36c-.2-.04-.25-.24-.36-.37.15.1.26.23.36.37Z" fill="#603620"/>
        <path d="M88.28,59.66c-.15-.1-.27-.22-.36-.37.18.1.29.16.36.37Z" fill="#603620"/>
        <path d="M62.27,132.54c-.1.08-.21-.02-.25-.11-.04-.13.04-.27.14-.35.2.07.06.32.1.46Z" fill="#603620"/>
        <path d="M87.46,145.4c-.13.09-.21-.05-.23-.13-.03-.12,0-.24,0-.34.13-.09.21.05.23.12.03.13-.01.24,0,.34Z" fill="#603620"/>
        <path d="M64.07,152.39c-.1.08-.22,0-.27-.11-.05-.11.03-.27.13-.36.18.06.13.32.14.47Z" fill="#603620"/>
        <path d="M65.57,159.36c-.1.07-.22,0-.26-.1-.05-.12.03-.27.13-.36.18.05.12.31.13.46Z" fill="#603620"/>
        <path d="M55.34,92.56c.1.13-.05.21-.13.23-.13.03-.24,0-.34,0-.09-.13.05-.22.12-.24.13-.03.25.01.34,0Z" fill="#603620"/>
        <path d="M64.47,154.3c-.09.07-.22,0-.26-.1-.05-.12.03-.28.13-.36.18.06.12.31.13.46Z" fill="#603620"/>
        <path d="M62.83,146.22c-.1.07-.22,0-.25-.11-.04-.12.03-.27.12-.35.18.05.12.31.13.46Z" fill="#603620"/>
        <path d="M66.66,164.7c-.1.07-.22,0-.25-.11-.04-.12.03-.27.13-.35.18.05.12.31.13.46Z" fill="#603620"/>
        <path d="M52.73,93.2c-.04.19-.3.13-.45.14-.08-.1,0-.2.12-.24s.25.01.34.11Z" fill="#603620"/>
        <path d="M65.72,160.06c-.1.07-.22-.01-.27-.12-.05-.11.03-.27.13-.36.18.06.13.32.14.47Z" fill="#603620"/>
        <path d="M.81,28.36c-.13.09-.21-.05-.23-.12-.03-.13,0-.24,0-.34.13-.09.21.05.23.13.03.13,0,.24,0,.34Z" fill="#603620"/>
        <path d="M40.92,162.73c.01.15.06.42-.14.45-.08-.07-.12-.16-.12-.23,0-.14.11-.33.26-.22Z" fill="#603620"/>
        <path d="M66.26,162.79c-.1.08-.22,0-.27-.12-.05-.11.03-.27.13-.36.18.06.13.32.14.47Z" fill="#603620"/>
        <path d="M42.05,1.66c-.07.08-.16.12-.23.12-.15,0-.33-.11-.22-.26.15-.01.41-.06.45.14Z" fill="#603620"/>
        <path d="M87.05,50.76c0,.15.06.41-.13.45-.08-.07-.12-.16-.12-.23-.01-.15.11-.32.26-.22Z" fill="#603620"/>
        <path d="M64.62,154.98c-.09.08-.23,0-.27-.1-.05-.12.03-.28.13-.36.18.06.13.31.14.47Z" fill="#603620"/>
        <path d="M67.21,167.3c-.1.07-.22,0-.25-.11-.04-.12.03-.27.12-.35.18.05.12.31.13.46Z" fill="#603620"/>
        <path d="M9.22,1.19c-.16.02-.32.03-.47.02,0-.14.07-.27.23-.27.14,0,.23.11.24.25Z" fill="#603620"/>
        <path d="M75.46,154.29c-.07-.06-.12-.13-.15-.22s.11-.16.11-.22c.13-.03.15.13.16.22,0,.07.02.26-.12.22Z" fill="#603620"/>
        <path d="M62.97,146.9c-.1.07-.22,0-.26-.1-.04-.12.03-.27.12-.35.18.05.12.31.13.46Z" fill="#603620"/>
        <path d="M63.51,149.64c-.1.07-.22,0-.26-.1-.05-.12.03-.27.13-.36.18.06.12.31.13.46Z" fill="#603620"/>
        <path d="M22.21,87.62c-.09,0-.2-.01-.29-.09-.05-.04-.07-.11-.02-.18.06,0,.14-.02.21.01.09.04.18.16.11.26Z" fill="#603620"/>
        <path d="M66.43,87.88c.08.1-.03.21-.11.25-.07.03-.14.03-.21.03-.08-.07-.01-.12.02-.18.08-.12.21-.06.3-.1Z" fill="#603620"/>
        <path d="M17.54,104.03c0,.06,0,.13-.03.2-.04.09-.15.12-.25.09.05-.07,0-.2.1-.25.06-.03.12-.04.18-.05Z" fill="#603620"/>
        <path d="M68.46,106.11c-.07.08-.12.01-.18-.03-.11-.08-.06-.2-.1-.28.1-.08.21.02.25.1.03.07.03.15.03.21Z" fill="#603620"/>
        <path d="M15.89,106.08c0,.06,0,.13-.03.21-.04.09-.15.12-.25.09.04-.08,0-.2.1-.25.05-.03.13-.03.18-.05Z" fill="#603620"/>
        <path d="M68.73,106.51c-.07.07-.13.03-.19-.02-.09-.08-.1-.19-.08-.28.11-.06.22,0,.23.1l.03.2Z" fill="#603620"/>
        <path d="M69.41,107.61c-.07.07-.12.01-.18-.02-.11-.08-.06-.21-.1-.28.1-.08.19.03.24.11.04.06.01.14.03.2Z" fill="#603620"/>
        <path d="M69.82,108.3c-.07.07-.13.02-.18-.03-.1-.09-.08-.2-.09-.29.1-.09.19.05.24.12.04.06.02.14.03.2Z" fill="#603620"/>
        <path d="M14.11,108.54l-.03.2c-.01.09-.13.16-.24.1-.02-.1-.01-.21.08-.29.05-.04.12-.07.19-.02Z" fill="#603620"/>
        <path d="M62.17,98.56c-.06,0-.14,0-.21-.03-.09-.04-.11-.16-.09-.26.13.09.31.07.29.28Z" fill="#603620"/>
        <path d="M13.84,108.94c0,.06,0,.14-.03.21-.04.09-.15.16-.25.1.03-.09,0-.21.1-.29.06-.04.1-.11.18-.03Z" fill="#603620"/>
        <path d="M12.99,110.44c0,.06.02.13,0,.21-.02.09-.11.2-.22.12,0-.09-.03-.2.05-.3.05-.06.1-.1.18-.03Z" fill="#603620"/>
        <path d="M61.49,98.01s-.14,0-.2-.04c-.08-.05-.2-.14-.11-.24.1,0,.21,0,.29.09.04.05.05.12.02.19Z" fill="#603620"/>
        <path d="M13,111.87c-.11.09-.21-.03-.23-.12-.02-.08,0-.15,0-.21.08-.07.13-.02.17.03.09.1.04.21.06.3Z" fill="#603620"/>
        <path d="M23.7,97.73c.02.06,0,.13-.02.19-.05.1-.22.04-.28.09-.03-.1.01-.2.1-.24.07-.03.14-.02.2-.04Z" fill="#603620"/>
        <path d="M61.08,97.73c-.06,0-.14.01-.21-.01-.09-.04-.17-.15-.1-.25.08.03.2,0,.29.09.04.05.06.11.02.18Z" fill="#603620"/>
        <path d="M13.29,114.13c-.03.06,0,.14-.03.21s-.13.2-.24.12c.04-.08-.02-.22.1-.3.05-.03.1-.11.17-.03Z" fill="#603620"/>
        <path d="M60.41,97.33c-.06-.01-.14,0-.22-.03s-.2-.14-.11-.24c.08.03.21-.01.29.1.04.05.11.1.04.17Z" fill="#603620"/>
        <path d="M72.96,119.53c-.08.07-.13.02-.17-.03-.09-.1-.05-.21-.08-.3.11-.08.2.04.24.12.04.07,0,.15.02.21Z" fill="#603620"/>
        <path d="M53.41,93.07c0,.15-.21.13-.32.13-.09-.09,0-.18.11-.24.07-.04.14.07.21.11Z" fill="#603620"/>
        <path d="M54.1,92.93c0,.15-.22.13-.32.13-.1-.09.02-.19.11-.23.06-.03.16.03.21.11Z" fill="#603620"/>
        <path d="M76.65,126.78c-.08.07-.12.01-.17-.03-.1-.09-.05-.21-.08-.29.1-.09.2.03.24.11.03.07,0,.15.02.21Z" fill="#603620"/>
        <path d="M54.65,92.79c0,.15-.21.13-.32.13-.09-.08,0-.19.11-.24.06-.03.16.04.21.11Z" fill="#603620"/>
        <path d="M55.89,92.42c.09.08-.02.2-.1.24-.07.03-.16-.03-.21-.1,0-.15.2-.14.32-.14Z" fill="#603620"/>
        <path d="M65.32,88.57c.06.11-.02.23-.1.24l-.21.03c-.07-.07,0-.12.03-.17.08-.11.2-.07.28-.1Z" fill="#603620"/>
        <path d="M66.01,88.15c.1.1-.03.21-.11.25-.07.04-.15.02-.21.03-.07-.07-.02-.13.03-.18.08-.09.19-.11.29-.1Z" fill="#603620"/>
        <path d="M24.95.16c-.02.18-.17.24-.33.22-.09-.11.03-.21.12-.23s.15-.01.21,0Z" fill="#603620"/>
        <path d="M64.19,130.89c-.11.08-.2-.03-.22-.11l-.04-.19c.06-.02.14-.02.2.01.1.07.05.2.07.29Z" fill="#603620"/>
        <path d="M21.79,87.34c-.1,0-.21,0-.29-.09-.05-.05-.06-.12-.02-.18.06,0,.14-.02.21.01.09.04.19.16.1.26Z" fill="#603620"/>
        <path d="M21.38,87.07c-.1,0-.21,0-.29-.09-.04-.05-.05-.12-.02-.19.07,0,.14,0,.21.03.08.04.19.15.11.25Z" fill="#603620"/>
        <path d="M68.88,86.24c.04.11-.01.22-.1.24l-.2.04c-.02-.06-.01-.14.02-.18.07-.09.19-.07.28-.09Z" fill="#603620"/>
        <path d="M20.42,86.38c-.09,0-.21,0-.28-.1-.04-.04-.05-.12-.02-.18.05.03.14,0,.2.04.09.04.16.14.1.24Z" fill="#603620"/>
        <path d="M69.43,85.83c.03.1,0,.2-.09.24-.07.03-.14.02-.2.04-.02-.06,0-.13.02-.18.06-.1.2-.06.27-.09Z" fill="#603620"/>
        <path d="M73.25,82.12c-.07.12-.04.34-.28.3,0-.06,0-.13.03-.21.04-.09.15-.11.25-.09Z" fill="#603620"/>
        <path d="M15.62,81.74c-.1.03-.19-.02-.24-.1-.03-.06-.01-.15-.04-.2.06-.01.13-.01.19.02.1.06.06.19.09.28Z" fill="#603620"/>
        <path d="M15.07,81.05c-.1.03-.2-.01-.24-.1-.03-.07-.02-.14-.04-.2.06-.02.13-.01.18.02.1.06.06.2.09.28Z" fill="#603620"/>
        <path d="M84.2,138.54c-.06,0-.14.01-.19-.02-.09-.06-.1-.18-.09-.27.2-.02.26.13.28.29Z" fill="#603620"/>
        <path d="M74.48,80.47c0,.1,0,.21-.1.29-.05.04-.12.07-.19.02.03-.06,0-.14.04-.2.05-.08.14-.21.24-.11Z" fill="#603620"/>
        <path d="M14.66,80.51c-.1.05-.22,0-.25-.1-.03-.08-.03-.15-.03-.21.07-.08.12-.02.18.03.1.08.08.19.1.28Z" fill="#603620"/>
        <path d="M74.75,80.07c.01.1,0,.21-.07.29-.05.05-.12.07-.19.02,0-.06-.01-.14.01-.21.03-.09.14-.17.25-.1Z" fill="#603620"/>
        <path d="M14.38,80.1c-.11.06-.21-.01-.25-.1-.03-.07-.03-.15-.03-.21.07-.07.13-.03.19.02.09.08.1.19.08.29Z" fill="#603620"/>
        <path d="M75.02,79.65c-.03.09.01.21-.1.29-.06.04-.11.11-.18.03,0-.06,0-.14.03-.21.04-.08.15-.19.25-.1Z" fill="#603620"/>
        <path d="M14.1,79.69c-.11.06-.21-.01-.24-.1-.03-.08-.03-.15-.03-.21.07-.07.13-.03.19.02.09.08.1.19.08.29Z" fill="#603620"/>
        <path d="M75.43,78.95c-.04.08.02.21-.09.3-.05.04-.11.1-.18.03.01-.06,0-.14.03-.2.04-.07.13-.21.24-.12Z" fill="#603620"/>
        <path d="M13.83,79.27c-.11.05-.22,0-.24-.1l-.03-.2c.07-.04.14-.02.19.02.09.07.09.19.08.29Z" fill="#603620"/>
        <path d="M87.23,144.71c-.16,0-.13-.21-.13-.32.09-.09.19,0,.24.11.03.06-.03.15-.11.21Z" fill="#603620"/>
        <path d="M9.88,1.51c-.06,0-.13,0-.2-.03-.09-.04-.14-.14-.1-.25.09,0,.21,0,.26.09.03.05.03.13.04.19Z" fill="#603620"/>
        <path d="M57.53,198.33c-.1,0-.31.02-.33-.12.07-.02.15-.17.23-.13.11.06.18.16.1.25Z" fill="#603620"/>
        <path d="M13.42,78.61c-.11.08-.2-.05-.24-.13-.04-.07-.03-.14-.04-.2.07-.07.14-.02.19.02.11.09.08.21.09.31Z" fill="#603620"/>
        <path d="M84.22,75.98c.08.1-.03.2-.11.24-.07.04-.14.02-.2.03-.08-.07-.01-.12.02-.17.08-.11.2-.06.29-.1Z" fill="#603620"/>
        <path d="M85.03,75.42c.04.1,0,.22-.1.24l-.21.04c-.02-.06,0-.13.02-.18.07-.1.2-.06.28-.1Z" fill="#603620"/>
        <path d="M4.95,75.02c-.08-.04-.2,0-.28-.1-.04-.05-.07-.1-.02-.17.05.03.14,0,.21.03.09.04.13.14.09.24Z" fill="#603620"/>
        <path d="M87.49,72.95c-.04.08,0,.2-.1.28-.05.04-.12.04-.18.02.03-.05,0-.14.04-.21.04-.08.14-.13.24-.09Z" fill="#603620"/>
        <path d="M2.75,72.84c-.11.07-.21-.02-.23-.1l-.04-.2c.06-.02.14-.02.19.02.1.07.07.19.09.28Z" fill="#603620"/>
        <path d="M87.89,72.4c-.03.09.01.21-.09.28-.05.03-.12.05-.18.02.03-.05,0-.14.04-.2.04-.08.13-.19.24-.1Z" fill="#603620"/>
        <path d="M88.3,71.7c0,.1.01.21-.09.3-.05.04-.11.1-.18.03.01-.06,0-.14.03-.21.04-.08.13-.2.24-.12Z" fill="#603620"/>
        <path d="M2.2,72.03c-.1.08-.2-.04-.24-.12-.04-.07-.03-.14-.03-.2.07-.07.13-.02.18.02.11.09.07.2.09.3Z" fill="#603620"/>
        <path d="M88.85,60.52c-.07.05-.14.02-.18-.02-.1-.09-.09-.21-.09-.3.11-.08.22.05.23.12l.04.2Z" fill="#603620"/>
        <path d="M1.64,59.66c0,.06.02.14-.01.21-.04.09-.16.19-.26.1,0-.1,0-.2.09-.29.05-.05.11-.07.18-.02Z" fill="#603620"/>
        <path d="M86.66,150.57c-.05.07,0,.22-.1.28-.05.03-.12.05-.18.02.03-.05,0-.14.04-.2.04-.09.14-.13.24-.1Z" fill="#603620"/>
        <path d="M1.93,59.26c0,.06,0,.14-.03.2-.04.09-.15.16-.25.1,0-.09,0-.2.1-.26.05-.03.14-.03.19-.04Z" fill="#603620"/>
        <path d="M87.49,58.87c-.06,0-.13,0-.21-.03-.09-.04-.12-.15-.09-.25.08.04.23,0,.25.1l.04.18Z" fill="#603620"/>
        <path d="M86.95,58.45c-.05-.03-.14,0-.2-.04-.08-.04-.19-.13-.11-.24.08.03.21-.01.28.09.03.05.05.11.02.18Z" fill="#603620"/>
        <path d="M3.03,58.17c0,.06.02.14-.02.19-.06.09-.18.1-.28.09,0-.17.12-.29.29-.28Z" fill="#603620"/>
        <path d="M84.34,153.58c-.09.12-.05.33-.28.29,0-.06,0-.13.03-.2.04-.09.16-.11.25-.09Z" fill="#603620"/>
        <path d="M3.59,57.77c.03.06.01.13-.02.18-.08.1-.19.07-.28.09-.08-.1.02-.22.1-.24l.2-.04Z" fill="#603620"/>
        <path d="M75.7,154.85c-.11.08-.21-.02-.24-.11-.02-.08,0-.15,0-.21.07-.07.13-.03.18.03.08.1.05.2.06.3Z" fill="#603620"/>
        <path d="M82.84,154.96c.04.11,0,.22-.1.25-.08.03-.15.03-.21.03-.08-.07,0-.12.03-.17.07-.11.21-.06.28-.11Z" fill="#603620"/>
        <path d="M75.98,155.38c-.1.08-.22-.02-.25-.1-.03-.08-.02-.15-.02-.21.07-.07.12,0,.17.03.1.09.08.19.1.28Z" fill="#603620"/>
        <path d="M4.8,37.66c-.1.07-.19-.02-.24-.1-.04-.06-.02-.14-.04-.2.06-.02.14-.01.19.02.1.07.07.19.09.28Z" fill="#603620"/>
        <path d="M76.4,155.92c-.08-.04-.2,0-.25-.1-.03-.06-.02-.14-.04-.19.06,0,.14,0,.2.02.09.05.11.17.09.26Z" fill="#603620"/>
        <path d="M4.39,37.11c-.11.04-.2-.01-.24-.1-.03-.07-.01-.15-.04-.21.07-.03.13-.01.18.02.09.08.07.19.1.28Z" fill="#603620"/>
        <path d="M3.71,36.03c-.1.09-.2-.04-.24-.11-.04-.07-.02-.14-.03-.2.07-.07.13-.01.18.03.11.08.07.2.09.29Z" fill="#603620"/>
        <path d="M76.97,156.31c-.09-.02-.21.04-.29-.07-.04-.06-.09-.12-.02-.18.05.03.13,0,.2.03.08.03.19.11.11.22Z" fill="#603620"/>
        <path d="M65.01,156.76c-.08.08-.2,0-.25-.1-.03-.06.07-.17.13-.23.14.01.12.22.12.33Z" fill="#603620"/>
        <path d="M87.89,30.54c-.07.07-.13.03-.19-.02-.09-.08-.1-.19-.08-.29.11-.05.22,0,.24.1l.03.2Z" fill="#603620"/>
        <path d="M87.63,30.14c-.07.08-.13.03-.19-.02-.09-.08-.11-.19-.09-.3.1-.1.21.03.26.11.03.07.03.14.03.21Z" fill="#603620"/>
        <path d="M1.13,30c-.15,0-.13-.21-.13-.32.08-.09.2.01.24.11.03.06-.04.16-.11.21Z" fill="#603620"/>
        <path d="M87.35,29.73c-.07.08-.12.02-.17-.03-.1-.08-.08-.19-.1-.28.1-.05.22,0,.25.1.03.07.03.15.02.21Z" fill="#603620"/>
        <path d="M86.94,29.17c-.06.02-.13.01-.19-.02-.1-.07-.07-.19-.09-.28.1-.07.19.02.24.1.03.07.02.14.04.2Z" fill="#603620"/>
        <path d="M86.53,28.62c-.06,0-.14.02-.19-.02-.09-.06-.1-.18-.09-.28.17,0,.29.13.28.3Z" fill="#603620"/>
        <path d="M83.66,25.87c-.05-.03-.14,0-.2-.03-.09-.04-.13-.14-.1-.24.08.04.2,0,.28.1.04.05.07.11.02.17Z" fill="#603620"/>
        <path d="M83.12,25.46c-.06-.03-.14,0-.2-.04-.08-.05-.2-.14-.11-.24.1,0,.21,0,.29.09.04.05.05.12.02.19Z" fill="#603620"/>
        <path d="M66.11,161.96c-.08.08-.2,0-.25-.1-.03-.07.06-.17.13-.23.14.01.12.22.12.33Z" fill="#603620"/>
        <path d="M82.71,25.18c-.06,0-.14.02-.2-.01-.09-.05-.19-.16-.11-.26.1,0,.21,0,.29.09.05.05.07.12.02.18Z" fill="#603620"/>
        <path d="M82.3,24.91c-.06,0-.14.02-.21-.01-.09-.04-.17-.15-.1-.25.09.02.2,0,.29.09.04.05.06.11.02.18Z" fill="#603620"/>
        <path d="M84.76,21.77c.06.11-.01.22-.1.23l-.2.03c-.06-.07-.03-.13.02-.19.08-.09.19-.09.29-.08Z" fill="#603620"/>
        <path d="M5.12,19.71c-.06-.02-.15.01-.22-.03s-.21-.14-.11-.25c.1,0,.21.01.3.1.04.04.11.1.04.17Z" fill="#603620"/>
        <path d="M4,19.02c-.06,0-.14.01-.21-.01-.1-.03-.13-.15-.09-.25.07.04.21,0,.28.09.04.05.06.11.02.18Z" fill="#603620"/>
        <path d="M3.04,18.34c-.06-.02-.14,0-.21-.03-.09-.04-.13-.14-.09-.24.08.04.2,0,.28.1.04.05.08.1.02.17Z" fill="#603620"/>
        <path d="M2.49,17.93c-.05-.03-.13,0-.2-.04-.08-.04-.14-.13-.1-.24.08.04.21-.01.28.09.03.05.05.12.02.18Z" fill="#603620"/>
        <path d="M67.1,13.56c-.06,0-.13,0-.2-.03-.09-.04-.11-.16-.09-.25.24-.04.2.2.29.28Z" fill="#603620"/>
        <path d="M66.28,12.87c-.06,0-.14,0-.21-.02-.09-.04-.11-.16-.09-.26.13.1.29.07.3.28Z" fill="#603620"/>
        <path d="M65.46,12.19c-.06,0-.13,0-.21-.03-.09-.04-.11-.16-.09-.25.19,0,.27.11.3.28Z" fill="#603620"/>
        <path d="M64.77,11.64s-.14,0-.2-.04c-.08-.04-.12-.14-.09-.24.07.04.22,0,.28.1.03.05.04.12.02.18Z" fill="#603620"/>
        <path d="M75.71,11.24c-.07.07-.12.01-.17-.02-.11-.08-.06-.21-.1-.29.1-.08.19.03.24.11.04.06.02.14.03.2Z" fill="#603620"/>
        <path d="M63.82,10.95l-.21-.03c-.09-.01-.13-.14-.09-.24.08.04.2,0,.28.1.04.05.08.1.02.17Z" fill="#603620"/>
        <path d="M27.27,10.7c-.05.07-.15.14-.21.11-.1-.05-.19-.16-.11-.24.11,0,.32-.02.32.13Z" fill="#603620"/>
        <path d="M63.27,10.54c-.06-.03-.14,0-.2-.04-.08-.05-.2-.14-.11-.24.1,0,.21,0,.29.09.04.05.08.12.02.18Z" fill="#603620"/>
        <path d="M62.86,10.26c-.06,0-.14.01-.21-.01-.1-.03-.13-.16-.09-.26.08.04.2,0,.28.09.04.05.06.11.02.18Z" fill="#603620"/>
        <path d="M74.89,10c-.06.02-.13.01-.19-.02-.1-.07-.06-.19-.09-.28.1-.07.22.01.24.1l.04.2Z" fill="#603620"/>
        <path d="M62.05,9.72c-.06-.02-.14,0-.21-.03-.08-.05-.2-.14-.11-.25.1,0,.21,0,.29.1.04.05.1.11.03.18Z" fill="#603620"/>
        <path d="M74.48,9.46c-.06,0-.14.02-.19-.02-.09-.06-.1-.18-.09-.28.1.06.35.07.28.3Z" fill="#603620"/>
        <path d="M61.63,9.44c-.06,0-.14.02-.21-.01-.09-.04-.17-.15-.1-.25.08.03.2,0,.29.09.04.05.06.11.02.18Z" fill="#603620"/>
        <path d="M60.96,9.03c-.06-.01-.14,0-.22-.03s-.19-.14-.11-.24c.1,0,.2,0,.29.1.04.05.11.1.04.17Z" fill="#603620"/>
        <path d="M29.58,8.23c-.11.04-.22-.01-.24-.1l-.04-.2c.06-.02.13,0,.18.02.1.06.05.2.09.28Z" fill="#603620"/>
        <path d="M18.24,7.51c-.05-.02-.14.03-.21,0-.08-.04-.19-.14-.11-.25.08.04.2,0,.29.08.05.05.1.09.03.17Z" fill="#603620"/>
        <path d="M72.44,7.4c-.06,0-.13,0-.21-.03-.09-.04-.12-.15-.09-.25.2.11.18.18.3.28Z" fill="#603620"/>
        <path d="M15.38,5.88c-.07,0-.14,0-.22-.03s-.2-.14-.11-.25c.1,0,.21.01.29.1.04.05.11.1.04.17Z" fill="#603620"/>
        <path d="M14.95,5.6c-.06,0-.14.02-.21-.01-.09-.04-.2-.16-.11-.26.1,0,.21,0,.29.09.05.05.07.12.02.18Z" fill="#603620"/>
        <path d="M14.54,5.33c-.06,0-.14.02-.2-.01-.09-.04-.19-.16-.11-.26.1,0,.21,0,.29.09.05.05.06.12.02.18Z" fill="#603620"/>
        <path d="M27.25,5.21c-.1.03-.2-.01-.24-.09-.03-.06,0-.16-.04-.2.06-.01.13,0,.19.02.1.06.05.2.09.27Z" fill="#603620"/>
        <path d="M81.17,186.19c-.09.07-.2,0-.25-.09-.04-.08,0-.26.12-.23.03.11.13.18.13.32Z" fill="#603620"/>
        <path d="M14.13,5.06c-.06,0-.14.02-.21-.01-.09-.04-.19-.16-.1-.26.1,0,.21,0,.29.09.05.05.06.12.02.18Z" fill="#603620"/>
        <path d="M69.44,195.77c.09.12-.04.19-.12.22s-.15,0-.21.03c-.07-.07,0-.13.03-.18.08-.12.22-.04.3-.06Z" fill="#603620"/>
        <path d="M64.66,197.44c.09.11-.06.18-.13.2-.08.02-.15,0-.21,0-.06-.07-.03-.14.02-.19.1-.1.23-.01.31-.02Z" fill="#603620"/>
        <path d="M62.87,197.94c0,.14-.22.12-.33.12-.08-.08,0-.2.11-.24.06-.03.16.06.22.12Z" fill="#603620"/>
        <path d="M89.28,41.48c-.1,0-.21,0-.29-.09-.04-.05-.05-.12-.02-.19.06.03.14,0,.2.04.08.05.2.14.11.24Z" fill="#603620"/>
        <g>
          <path d="M12.56,77.06c-.64-.48-.51-.13-1.49-.15-.19-.38.5-.15,1.26-.19.19-.01.21.24.23.35Z" fill="#603620"/>
          <path d="M52.05,93.34c-.05.12-.17.17-.29.17,0-.08-.05-.22.07-.29.07-.04.19.03.22.12Z" fill="#603620"/>
          <path d="M64.88,131.99c-.11.08-.18-.03-.22-.11-.03-.06,0-.15-.04-.19.06-.02.14-.03.2.01.1.07.03.23.06.3Z" fill="#603620"/>
          <g>
            <path d="M10,20.8c.05-.42.75,1.16.62,1.16-.88-.16-4.78-1.36-4.88-1.98,1.48.58,2.88,1.34,4.56,1.72-.02-.43-.27-.62-.3-.9Z" fill="#603620"/>
            <path d="M69.94,7.09l.03,4.55c0,.13-.17.26-.25.17l-.04-4.42c0-.23.2-.23.27-.29Z" fill="#603620"/>
            <path d="M68.62,14.94c.6.45.87-2.97,1.09-2.91.42.32-.51,2.6-.74,3.1-.03.07-.18.02-.24,0s-.05-.14-.11-.19Z" fill="#603620"/>
            <path d="M77.74,17c-.16.42-.58-1.46-.4-1.83.31.53.38,1.21.4,1.83Z" fill="#603620"/>
            <path d="M79.3,17.14c.07.07.03.14-.03.17-.07.05-.16.06-.27.07l-1.09.15c-.13.02-.22.02-.27-.07-.05-.08.01-.19.12-.23l1.55-.09Z" fill="#603620"/>
            <path d="M76.93,77.29c-1.06-.07-.55.77-1.07.75.11-.25.25-.56.42-.83.13-.21.55-.08.65.08Z" fill="#603620"/>
            <path d="M87.9,40.52c-.21-.12-.45-.16-.65,0-.03-.09-.09-.16-.11-.22-.05-.19.13-.17.31-.12.24.06.48.1.44.34Z" fill="#603620"/>
            <path d="M31.11,11.47c-.29,0-.7.16-.86-.14.13-.11.31-.13.48-.13.16,0,.46.01.38.26Z" fill="#603620"/>
            <path d="M85.73,21.22c-.06.39-.54.46-.87.55.03-.39.53-.49.87-.55Z" fill="#603620"/>
            <path d="M87.46,41.51c-.21.08-.25-.14-.26-.25,0-.19.03-.35.04-.49.38-.03.23.49.22.74Z" fill="#603620"/>
            <path d="M81.72,23.99c-.05.17-.05.35-.02.52-.1-.04-.27-.08-.29-.21-.02-.18.2-.23.31-.31Z" fill="#603620"/>
            <path d="M16.32,6.43c-.26-.01-.6-.09-.58-.4.25.05.61.09.58.4Z" fill="#603620"/>
            <path d="M84.32,26.39c-.13-.11-.29-.21-.38-.36.16.09.35.16.38.36Z" fill="#603620"/>
            <path d="M31.33,11.47l.03-.4s.15.02.2.04c.1.04.1.22.07.32-.04.13-.21.05-.3.04Z" fill="#603620"/>
            <path d="M88.73,41.07c-.08-.04-.2,0-.28-.09-.04-.05-.05-.11-.02-.18.06,0,.14-.01.21.02.1.04.13.15.09.26Z" fill="#603620"/>
            <path d="M88.33,40.8c-.1,0-.21,0-.3-.09-.04-.04-.05-.12-.02-.19.06,0,.14,0,.21.02.09.04.2.15.11.25Z" fill="#603620"/>
            <path d="M82.43,23.41c.03.1-.01.2-.1.24-.06.03-.15,0-.2.04-.02-.06,0-.13.02-.18.06-.1.2-.05.27-.09Z" fill="#603620"/>
            <path d="M83.12,22.86c.07.11-.02.21-.1.23l-.2.04c-.02-.06-.01-.13.02-.19.06-.11.21-.04.28-.09Z" fill="#603620"/>
            <path d="M31.22,10.7c-.1.08-.21-.03-.25-.11-.03-.07-.03-.14-.03-.21.07-.08.12-.01.18.03.11.08.07.2.1.29Z" fill="#603620"/>
            <path d="M30.94,10.28c-.11.05-.22-.01-.23-.1l-.03-.2c.07-.06.13-.03.19.02.09.08.1.19.08.29Z" fill="#603620"/>
            <path d="M30.26,9.19c-.11.08-.19-.03-.23-.11-.04-.06-.02-.14-.04-.2.06-.02.14-.01.19.02.11.07.05.21.09.29Z" fill="#603620"/>
            <path d="M28.89,7.27c-.11.06-.21-.02-.23-.1l-.04-.2c.06-.02.13-.01.19.02.1.06.06.2.09.28Z" fill="#603620"/>
            <path d="M28.35,6.58c-.1.03-.22,0-.24-.1l-.04-.2c.06-.02.13,0,.18.02.1.06.06.2.09.28Z" fill="#603620"/>
            <path d="M27.8,5.9c-.1.03-.22,0-.24-.09l-.04-.2c.06-.02.13,0,.18.02.1.06.05.2.1.27Z" fill="#603620"/>
            <path d="M13.72,4.78c-.06,0-.14.01-.21-.01-.1-.03-.13-.16-.09-.26.08.04.2,0,.28.09.04.05.05.11.02.18Z" fill="#603620"/>
            <path d="M13.17,4.38c-.05-.03-.14,0-.21-.03-.09-.04-.12-.14-.09-.24.08.04.21,0,.28.1.03.05.05.11.02.18Z" fill="#603620"/>
            <path d="M11.8,3.29l-.2-.04c-.09-.02-.12-.14-.09-.24.06.05.22,0,.27.1.03.05.04.12.02.18Z" fill="#603620"/>
            <path d="M49.8,86.81c-.1-1.21,1.04-3.61.29-4.04-.22-.13-.58-.14-.81.07-.98.88-1.92,1.81-3.07,2.5-.57.34-5.14,2.85-5.58,2.47-1.13-.81-1.98-1.91-2.79-2.99-.28-.37-.51-.62-.95-.64-1.13-.05-1.42,1.52-2.23,2.41-2.88-1.83-3.32-1.89-5.31-4.52-.2-.27-.33-.42-.67-.36-.95.15-.18,2.04-.18,2.73-.37.04-.7-.04-1.06-.19-9.56-4.11-16.31-11.44-18.88-21.64l-1.35-5.38c-.9-3.59-1.48-7.23-1.42-10.92.04-2.74.66-5.27,1.66-7.75.22-.54-.01-.93-.35-1.3-1.84-2.08-3.09-4.46-3.84-7.14-.87-3.11-1.26-6.27-1.01-9.58,1.31.8,2.35,1.51,3.63,2.05,1.36.57,6.44,2.3,7.46,1.36.21-.19.54-.68.29-1.05-1.04-1.54-1.91-3.08-2.57-4.84-1.58-4.22-2.38-8.95-1.38-13.56,4.43,3.67,9.52,6.23,14.91,7.73,2.91.81,5.76,1.39,8.8,1.31.37,0,.66-.1.81-.34.17-.26.21-.61.05-.95-1.69-3.62-4.02-6.8-6.65-9.86.89-.17,1.68-.02,2.53,0,9.69.26,20.6,3.28,29.04,8.06,2.72,1.54,5.05,3.33,7.34,5.4.82.74,1.52,1.48,2.16,2.38.09.13.28.19.39.22.15.04.36-.03.48-.2,1.71-2.5,2.43-5.28,2.3-8.51,2.21,2.21,3.45,5.05,3.84,8.04.07.53.02,1,0,1.55s.55,1.2,1.11.95c.68-.3,1.28-.61,2.01-.75,1.88-.35,3.72-.56,5.73-.06-1.76.96-3.22,1.97-4.53,3.35l-1.39,1.46c-.16.16-.24.47-.2.67.16.87,3.47,1.11,6.71,5.72,1.71,2.44,3.11,5.04,3.62,8.1-1.2-.32-3.28-1.8-3.96-.99-.14.17-.14.43-.07.72.57,2.42.96,4.81.78,7.31-.3,4.09-1.23,8.07-2.97,11.78-1.34.52-2.77,1.04-3.49,2.28-1.02,1.76-1.53,3.7-2.15,5.64-1.17,3.63-2.98,6.88-5.38,9.82-.57.7-1.06,1.37-1.69,2.04-2.29,2.44-4.94,4.48-7.89,6.07-.9.49-1.77.94-2.83,1.07-.01-.68,1.15-2.01.57-2.56-.55-.52-1.76.46-1.77.46-.62.69-1.21,1.33-2.01,1.84-1.84,1.18-3.86,2.11-6.11,2.55Z" fill="#603620"/>
            <path d="M16.13,78.92c2.16,1.85,4.08,3.61,6.52,4.96,2.3,1.28,4.67,2.23,7.3,2.53l.11-.99c1.17,1.11,2.37,2.01,3.84,2.65,1.62.71,1.84-.15,3-1.37l2.95,2.66c.47.43.87.4,1.4.18,2.24-.9,4.42-1.79,6.57-3.13.41.65-.43,2.47.79,2.34,2.02-.23,3.87-.9,5.72-1.7,1.07-.47,1.94-1.09,2.91-1.76.31-.22-.03.61.07.83.41.88,4.55-.7,5.56-1.22,3.08-1.59,5.8-3.67,8.12-6.24,3.89-4.3,5.47-6.82,7.4-12.26.37-1.03.72-1.97,1.17-2.95.83-1.8,2-4.63,4.68-3.91,1.22.33,2.28,1.14,2.86,2.31,2.17,4.38-.26,10.25-4.5,12.68-1.74.99-3.83,1.23-5.64.54-.59-.22-.91-.72-1.53-.91l-1.3,2.72c-1.92,3.99-5.32,7.22-9.11,9.51-3.53,2.13-7.37,3.54-11.37,4.52-1,.25-1.9.5-2.91.5-.27-.59.16-1.5-.36-1.78-.49-.26-1.04.69-1.07,1.45l-.1,2.42-4.43-.51c-1.92-.22-3.84-.22-5.77-.02l-1.9.19c-.06-.99.27-3.43-.17-3.93-.12-.13-.45-.21-.55,0l-.73,1.56c-7.56-1.6-15.02-5.21-19.53-11.85Z" fill="#edb390"/>
            <path d="M12.15,74.65c-2.93.57-5.77-.67-7.61-2.95-1.37-1.7-2.05-3.78-2.28-5.96-.27-2.49.43-5.78,3.31-6.68.85,4.01,2.1,7.77,3.96,11.37.75,1.45,1.62,2.65,2.62,4.21Z" fill="#edb390"/>
            <circle cx="16.03" cy="78.71" r=".12" fill="#edb390"/>
          </g>
          <g>
            <path d="M25.32.16c1.71-.03,3.5.07,5.25.09.24,0,.55.03.78,0,.46.29,1.17.22,1.68.04.07-.02.16,0,.23,0-.3.4,1.26.26,1,.13.12,0,.24.01.37,0-.22.38.86.23,1.01.22.12,0,.25,0,.37,0,.17.29.58.13.86.13h.23c-.35.1,1.86.47,1.54.18.08,0,.16.01.23,0-.09.19.14.26.24.26.14,0,.26-.01.36-.03.07-.01.16.02.23,0,.47.26,1.15.48,1.67.32.07-.02.16.01.23,0-.1.14.08.27.22.26.07,0,.16-.04.23-.12h.23c-.07.04-.04.19.08.22,4.71,1.02,9.09,2.86,13.53,4.53l1.18.44c.06.38.54.45.88.53.07.02.15.02.22.02-.01.32.35.35.6.39.33.06.56.38.9.41-.01.32.34.37.6.41.13.02.24.13.37.14-.09.1.03.21.11.24s.15.02.22.03c.13.02.24.09.36.14-.07.1.01.21.1.25.07.03.14.01.21.01h.1c-.09.11.03.2.11.25.06.04.15,0,.21.03.18.07.34.19.51.27-.04.1,0,.22.09.26.07.03.15.01.21.01h.1c-.09.1.03.19.11.24.06.04.14,0,.2.04l.25.13c-.03.1,0,.23.09.24l.21.03c.25.04.43.28.66.41-.03.1,0,.2.09.24.07.03.16,0,.2.04l.39.27c-.02.1,0,.22.09.25.07.03.15.03.21.03l.53.4c-.02.1,0,.22.09.26.07.03.15.03.21.02l.52.4c-.02.1,0,.22.09.25.07.03.14.03.2.03l1.52,1.39c.06.05.05.18.11.19s.21.07.24,0c.23-.5,1.16-2.78.74-3.1v-.23c.08.09.26-.03.25-.17l-.03-4.55c.05-.4.15-.49.54-.54.41-.07.83.12,1.16.29l.5.27c-.03.1,0,.22.09.25.07.03.14.03.21.03.62.48,1.29,1.16,1.76,1.76,0,.09,0,.21.09.28.05.04.13.03.19.02.03.09.11.16.13.25s0,.21.09.28c.05.04.12.04.19.02.07.33.41.59.55.93.03.08-.02.21.1.29.05.04.1.09.17.02.04.12.13.24.14.37.02.19.59,1.62.8,1.42,0,.12.03.24.04.36,0,.1.44,1.91.64,1.56,0,.06.03.18,0,.23-.17.37.25,2.24.4,1.83v.22c-.1.04-.16.15-.11.23.06.09.15.09.27.07l1.09-.15c.12-.02.2-.02.27-.07.05-.04.1-.1.03-.17.12,0,.25-.02.36,0-.05.08.06.11.16.11h3.14c.1,0,.21-.03.16-.11.12,0,.24,0,.36,0-.07.02-.03.21.06.22,1.13.08,2.13.42,3.14.7.28.08.51.17.78.29.26.66.79.58.43,1.67-.09.19-.32.36-.52.41-.33.05-.81.14-.87.51-.27.04-.5.24-.77.29-.34.07-.84.16-.87.55-.03,0-.07,0-.1,0-.1-.01-.21-.01-.29.08-.05.06-.08.12-.02.19l-1.34.82c-.07.04-.22-.02-.28.09-.03.05-.04.12-.02.19-.14.03-.25.2-.39.27-.08.04-.21,0-.27.09-.03.05-.04.12-.02.18l-.41.3c-.11.08-.33.13-.31.31.02.13.19.17.29.21s.19.11.29.14c-.07.1.01.21.1.25.07.03.14.01.21.01h.1c-.09.1.02.21.11.26.06.03.14.01.2.01h.1c-.09.1.03.19.11.24.06.04.14,0,.2.04l.25.13c-.03.1,0,.2.1.24.07.03.15,0,.2.03l.28.16c.09.15.24.25.38.36l.72.59c.14.28.37.5.64.64l.56.7c0,.09,0,.21.09.28.05.04.13.03.19.02.03.09.11.16.13.25s0,.21.09.28c.05.04.12.04.19.02.02.09.11.16.13.25.02.09,0,.2.1.28.05.05.1.11.17.03,0,.03,0,.06,0,.09-.01.1,0,.21.09.3.06.05.12.1.19.02,0,.03,0,.07,0,.1-.02.1-.01.21.08.29.06.05.12.08.19.02.02.13.11.24.14.37.05.2.99,2.48,1.21,2.24.02.12.02.24.04.36.04.45.25.88.43,1.36.36.94.58,1.89.84,2.87.03.1.15.14.2.07,0,.06.03.17,0,.23-.17.37-.03.93.18,1.26v.23c0,.48.01,1.74-.18,2.08-.07-.01-.16.02-.23.02-.39,0-.77-.05-1.14-.15-.03,0-.07,0-.1,0,.09-.1-.03-.19-.11-.24-.06-.04-.14,0-.2-.04l-.25-.13c.04-.1,0-.22-.09-.26-.07-.03-.15-.01-.21-.02h-.1c.09-.1-.02-.21-.11-.25-.07-.03-.14-.02-.21-.02h-.1c.03-.25-.21-.29-.44-.35-.18-.05-.36-.06-.31.12.01.06.08.13.11.22.02.07-.01.17-.02.25-.01.14-.05.3-.04.49,0,.11.05.34.26.25,0,.12,0,.24,0,.37-.13-.3-.28,1.47.13,1.14v.5c-.17-.48-.17,2.71,0,2.23v.5c-.42-.4-.27,1.75-.14,1.41,0,.12-.01.24,0,.37-.37-.21-.23.75-.22.88,0,.07-.03.17,0,.23-.09-.34-.43,1.58-.18,1.4v.23c-.15-.1-.27.08-.26.22,0,.07.04.16.12.23v.23c-.03-.07-.2-.03-.22.07-.39,2.06-1.13,3.95-1.79,5.92.32.23.63.32.93.41s.54.24.81.34c-.08.1.03.19.11.24.06.04.15,0,.2.04l.25.13c-.02.1,0,.22.09.25.07.03.14.03.21.03.2.05.26.34.42.43.09.15.22.27.36.37.06.19.29.32.3.53,0,.1,0,.21.09.3.04.04.11.07.18.02.05.26.22.51.29.78.25.88.55,1.75.55,2.73.02.08.2.13.23.06-.01.1-.02.27,0,.36-.2.5-.2,1.18,0,1.68-.03.1,0,.26,0,.36-.13-.09-.21.05-.23.13-.03.08,0,.2-.02.31-.13,1.65-.81,3.08-1.35,4.54-.02.06-.02.16-.02.22-.1-.09-.2.04-.24.12-.04.07-.02.15-.03.21-.02.13-.1.25-.14.37-.1-.08-.19.03-.24.1-.04.06,0,.14-.04.2l-.13.25c-.1-.03-.2,0-.24.09-.03.07,0,.16-.04.21-.36.58-.86,1.08-1.39,1.51-.14.11-.29.2-.37.37-.14.09-.27.21-.42.29-.08.04-.21,0-.28.1-.03.05-.04.12-.02.18-.18.03-.33.2-.51.27-.08.03-.21-.02-.29.1-.04.05-.1.1-.02.17-.27.05-.5.27-.78.3-.25.03-.61.05-.6.37-.16.02-.34,0-.49.04-.57.12-1.17.13-1.69.41-.17.09-.48-.02-.65.09-.22-.22-.58-.08-.86-.09h-.64c-.18-.25-.65-.24-.86-.04l-.41-.03c-.1-.16-.51-.28-.65-.08-.17.27-.31.58-.42.83l-.42.91c-.11-.08-.2.05-.24.12-.04.07-.02.14-.03.2-.02.13-.1.25-.14.37-.1-.08-.21.02-.25.1-.03.07-.03.15-.03.21,0,.03,0,.07,0,.1-.1-.07-.21,0-.25.1-.03.07-.01.14-.01.21v.1c-.1-.09-.19.04-.24.11-.04.06-.01.15-.04.2-.23.5-.66.88-.95,1.34-.1-.02-.22,0-.25.09-.03.07-.03.14-.03.21-.22.43-.75.69-.99,1.1-.35.26-.69.55-.9.93-.6.4-1,1.05-1.65,1.38-.08.04-.22,0-.27.09-.03.05-.04.12-.02.18-.09.03-.16.11-.25.13s-.21,0-.28.09c-.04.05-.04.12-.02.18-.8.14-1.36,1.04-2.15,1.37-.08.03-.22-.02-.3.1-.04.06-.11.11-.02.18-.03,0-.06,0-.09,0-.1-.01-.21,0-.29.1-.05.05-.1.11-.03.18-.13.02-.24.1-.36.14-.09.03-.2,0-.28.1-.04.05-.1.1-.03.17-.22.03-.41.21-.64.28-.41.13-1.02.24-1.15.68-.07.02-.15,0-.22.02-.41.1-1,.23-1.15.65-.11.02-.24.03-.36.04-.25.02-.61.06-.6.37-.11,0-.25,0-.36.04l-3.2,1.05c-.16.05-.37.15-.27.28h-.23c-.23-.18-.54,0-.72.18h-.23c-.11,0-.31-.01-.32.14h-.23c-.1,0-.21-.04-.34,0-.08.02-.21.11-.12.24h-.23c-.05-.07-.15-.14-.21-.11-.1.05-.2.16-.11.24h-.23c-.05-.07-.14-.13-.21-.1-.09.04-.22.15-.11.23-.12,0-.25.02-.36,0-.07-.04-.14-.15-.21-.11-.12.06-.21.15-.11.24h-.36c-.09-.09-.23-.14-.34-.1s-.2.14-.12.24h-.23c-.03-.08-.15-.16-.22-.11-.12.07-.06.2-.07.29s.02.17,0,.25c-.04.2.1.29.3.34.11.02.28.1.4-.03.07,0,.15.01.23,0-.09.11.03.21.12.23.08.02.15,0,.21,0,.08,0,.15,0,.23,0l3.3,1.26c.26.1.47.26.71.24.12,0,.24.02.36.04.06.39.55.44.87.51.57.13,1.05.49,1.59.7-.09.11.04.21.11.24s.15.02.22.03c.13.02.24.09.36.14-.07.1.01.21.1.25.07.03.14.01.21.01h.1c-.09.1.03.19.11.24.06.04.15,0,.2.04l.39.27c-.02.1,0,.22.09.26.07.03.15.03.21.03,1.73,1.44,3.22,3.19,4.5,5.05.05.07,0,.22.1.28.05.03.11.05.18.02l.68,1.07c.05.07-.01.22.1.28.05.03.11.05.18.02l.27.52c.04.08-.01.21.1.28.06.04.1.11.18.03,0,.03,0,.07,0,.1-.02.1-.01.21.08.28.06.05.12.08.19.02l.41.79c.04.08-.02.21.1.28.05.04.11.09.18.02.05.12.12.24.14.37.02.1-.01.21.09.29.05.04.11.1.18.03.04.12.12.24.14.37.03.26.09.61.41.6l.28.63c.04.08-.01.21.09.3.05.04.11.1.18.02.04.12.12.24.14.37.03.25.09.61.41.59l.28.65c.1.23.08.61.41.59l.16.5c.12.37.15.76.14,1.15-.15.55-.68.94-1.11,1.33-.19.18-.45.13-.22.58.07.13.07.47.33.41.04.21.17.42.17.64,0,.25.57,1.6.79,1.42l.29.77c.03.09,0,.2.08.3.04.05.1.1.17.03l.7,1.58s1.13,2.88,1.36,2.52l1.37,2.83c.04.08-.02.21.08.29.05.04.1.1.17.03l.29.76c.12.32.15.83.54.88l.55,1.18c.14.3.16.83.54.87.05.23.21.42.28.65.07.24.07.62.41.58.1.32.37.58.43.92.01.09-.03.21.08.29.05.04.11.09.18.02.12.31.33.59.41.92.07.25.07.62.41.6.17.4.36.87.69,1.22l2.46,2.58c0,.09,0,.21.09.27.05.04.13.03.19.02l.27.39c.05.07,0,.21.1.27.05.03.12.04.18.02.11.58.8.99.96,1.6.09.36.29.68.45,1.08l.94,2.25c0,.08,0,.15,0,.23,0,.11-.02.32.13.32,0,.08.01.16,0,.23-.01.1-.04.22,0,.34.02.08.1.22.23.13v.23c-.11.13-.13.31-.13.49,0,.16.02.46.27.38v.5c-.19.21-.19.65,0,.86,0,.12-.02.24,0,.36-.17-.09-.26.08-.26.24,0,.12.03.25.13.35v.23c-.17-.28-.5.92-.52,1.02-.04.19-.17.34-.27.5-.1-.03-.2,0-.24.1-.03.07,0,.15-.04.2l-.13.25c-.1-.04-.23,0-.24.1l-.03.21c-.09.52-.65.88-.95,1.34-.1-.02-.22,0-.25.09-.03.07-.03.14-.03.21l-.4.52c-.1-.02-.22,0-.25.09-.03.07-.03.14-.03.2-.34.42-.74.81-1.21,1.08-.07.04-.21,0-.28.11-.04.06-.1.1-.03.17-.03,0-.07,0-.1,0-.99.33-2.15.32-1.96.65-.07.02-.16-.01-.23,0-.04-.04-.13-.12-.23-.07-1.3.66-1.65.36-2.54.62l-.51-.13c.07-.11-.03-.19-.11-.22-.07-.03-.15,0-.2-.03l-.25-.13c.02-.1,0-.21-.09-.26-.06-.03-.13-.03-.2-.02-.03-.09-.11-.16-.13-.25s0-.2-.1-.28c-.05-.04-.1-.11-.17-.03l-.02-.22c0-.09.02-.2-.06-.3-.04-.06-.1-.1-.18-.03v-.23c.13.03.12-.15.11-.22,0-.1-.03-.25-.16-.22v-.65c.25-.18.23-.65.04-.86,0-.12.02-.24,0-.36.2.09.25-.14.25-.25,0-.13-.03-.25-.03-.36v-.23c.28-.12.14-.48.14-.72s-.1-.45-.25-.65c-.05-.06.01-.23-.09-.27-.06-.02-.13-.04-.19-.02l-.81-.94c0-.09,0-.21-.09-.27-.05-.04-.13-.03-.19-.02-1.14-1.35-1.93-2.94-2.19-4.78-.09-.67.18-1.5-.1-2.08-.48-.91-1.25-1.57-1.9-2.36-1.86-2.28-3.74-4.51-5.13-7.03-.04-.07.04-.23-.06-.3-.05-.04-.14-.03-.2-.01-.17-.25-.37-.49-.42-.79-.02-.09.04-.22-.07-.29-.05-.04-.13-.03-.2-.01-.21-.97-1.17-1.74-1.52-2.7-.03-.08.06-.23-.06-.3-.06-.03-.12-.06-.19-.02-.04-.23-.24-.43-.31-.67-.03-.12-.03-.31-.25-.35-.13-.02-.18.13-.14.24.02.05.1.1.14.14l.03.62c-.16.01-.14.23-.16.37-.01.13.09.32.26.23,0,.18,0,.46.03.63-.16.01-.14.23-.16.37s.09.31.27.23c0,.19,0,.45.03.63-.17,0-.14.23-.16.37s.1.31.27.23c-.03.11.04.25.02.36-.16.01-.14.23-.16.37s.1.31.27.23l.03.5c-.1.08-.19.22-.14.35.03.09.15.19.25.11.06.23-.07.55.03.76-.16.01-.14.23-.16.37-.02.13.09.32.27.23-.02.22,0,.56.03.77-.16-.24-.32,1.47.13,1.15v.22c-.14-.25-.31,1.45.13,1.15v.22c-.16.09-.12.32-.14.51-.01.15.02.45.27.37v.36c-.16.08-.11.32-.13.51-.02.15.02.44.27.37,0,.14-.01.36.02.49-.46.7.57.45-.66,1.8-.04.01-.1.03-.14.03-.1,0-.22-.02-.29.07-.28.34.18,1.89.37,1.58,0,.1.05.27.02.36-.28-.18.2,2.16.4,1.7v.22c-.09.08-.16.23-.12.35.04.1.16.18.25.11v.22c-.09.08-.16.23-.12.35.04.1.16.17.26.1v.22c-.07.09-.15.22-.11.4l.27,1.26c.03.15.16.26.25.17v.22c-.09.08-.16.23-.12.36.04.1.16.17.26.1v.22c-.27-.14.11,2.21.41,1.83v.22c-.09.08-.17.24-.12.36.05.11.17.19.27.11v.21c-.21.28-.11.93.26,1.01v.22c-.09.08-.17.24-.12.36.04.1.16.17.26.1v.22c-.09.08-.17.24-.12.36.04.1.18.19.27.1v.22c-.21.28-.1.92.26,1.01v.22c-.05.05-.15.16-.12.23.05.1.17.18.25.1l.02.36c-.27-.09.15,1.92.4,1.56v.22c-.09.08-.16.23-.12.36.04.1.16.17.26.1v.22c-.09.08-.17.24-.12.36s.17.19.27.12v.21c-.24.32-.13,1.02.26,1.15v.22c-.06.05-.15.16-.12.23.05.1.17.18.25.1l.02.36c-.1.09-.18.24-.13.36s.17.19.27.12v.21c-.21.28-.1.92.26,1.01v.22c-.09.08-.16.23-.12.35.04.1.16.18.25.11v.22c-.09.08-.16.24-.12.36.04.1.16.17.26.1v.22c-.19.29-.1.92.27,1.01v.22c-.09.08-.16.23-.12.35.04.1.16.18.25.11v.22c-.3-.08.17,2.08.41,1.7v.23c-.21.34-.11,1.02.29,1.15v.21c-.31-.16.23,2.01.4,1.56v.22c-.09.08-.17.24-.12.36.04.1.18.19.27.1v.22c-.21.28-.1.92.26,1.01v.22c-.09.08-.17.24-.12.35s.17.19.27.12v.2c-.31-.17.24,2.03.39,1.56,0,.11.06.3.02.4-.08.18.08.29.25.36.13.06.22.2.29.29-.01.09-.01.23.08.28.06.03.15.02.21.02.03.07.14.15.14.24,0,.26.08.61.4.58,0,.07.05.16.04.23-.08.65.6.78.45,1.65-.03.19.18.34.31.31.01.08.01.2.01.28,0,.06-.1.21,0,.25.28.11.56.04.81.01.27-.02.55.02.82.02-.08.24.19.3.36.27.13-.02.35,0,.37-.16l.49.03c-.09.15.06.27.22.26.08,0,.16-.09.24-.14.11-.01.24.01.36.02-.08.08,0,.2.1.25.06.03.17-.06.22-.13.07,0,.15,0,.22,0-.08.08,0,.19.1.25.07.04.15-.11.22-.12l.64.15c0,.35.47.33.74.37.22.03.43.09.64.16-.09.1.02.21.11.25.07.03.15,0,.21,0,.25,0,.45.15.65.29-.04.11,0,.21.09.25.07.03.17-.01.22.01.84.43,1.47,1.28,1.74,2.18-.12-.03-.17.15-.12.23.05.09.17.17.25.09.01.4.04.79,0,1.19-.18-.32-.5,1.09-.51,1.15-.2,1.15-3.91,3.74-5.05,4.12-.08,0-.24-.07-.31.03-.04.06,0,.17-.01.22-.14.14-.31.26-.52.28-.09.01-.22-.04-.3.07-.04.05-.04.13-.01.19-1.76.34-3.27,1.79-5.03,2.35-.08.03-.22-.06-.3.06-.04.06-.1.11-.03.18-1.48.5-2.9,1.22-4.45,1.42-.09.01-.21-.07-.31.02-.05.05-.08.12-.02.19h-.23c-.05-.06-.16-.15-.22-.11-.11.05-.18.17-.1.25h-.22c-.05-.06-.16-.15-.22-.12-.1.05-.19.17-.11.25l-.36.02c-.06-.07-.15-.15-.22-.12-.1.04-.19.16-.11.24l-.49.02c-.09-.1-.23-.17-.35-.13-.1.03-.19.15-.11.25-.19.04-.46-.03-.63.03-.01-.16-.23-.14-.37-.16s-.32.09-.23.27c-.94.03-1.88.05-2.82,0,.08-.09,0-.19-.1-.25-.07-.04-.16.11-.23.13-.32,0-.72-.21-1.04-.27.09-.1-.03-.21-.11-.24-.07-.03-.14-.01-.21-.01-.04,0-.09-.02-.14-.03-.12-.21-.3-.39-.51-.51,0-.04-.02-.09-.03-.14-.33-.98-.61-1.97-.8-3.05l-.63-3.57-1.3-.82s0-.07,0-.1c-.46-1.23-1.06-2.4-1.28-3.77-.1-.02-.18,0-.19.03v-.23c.13.38.16-3.04.23-2.6-.21-1.45-.65-2.78-1.02-4.19-.89-3.39-1.71-6.69-2.84-10.04s-2.58-6.65-3.91-10.02c-.09-.23-.17-.46-.4-.44-.04-.1-.02-.25-.04-.36-.02-.09.04-.21-.06-.3-.05-.05-.11-.09-.18-.03-.03-.24-.13-.46-.22-.68-.1-.26-.17-.55-.4-.75-.22.17-.09.41-.09.6v.27c-.18-.09-.27.09-.27.24,0,.12.03.25.13.35v.23c-.04-.07-.19-.03-.21.07l-.32,1.62c-.03.16-.02.41.11.41-.03.06,0,.16,0,.23-.03-.07-.21-.03-.22.06,0,.83-.54,1.56-.32,2.31.02.07-.01.16,0,.23-.14-.1-.27.08-.26.22,0,.07.04.16.12.23v.23c-.03-.07-.19-.02-.24.07-.12,1.34-.78,2.56-.71,3.81,0,.07,0,.16,0,.23-.06-.07-.25.04-.27.16-.24,1.56-.99,2.86-1.47,4.28-.16.46-.33.89-.57,1.33-.45.11-.67.72-.68,1.13v.1c-.4.03-.43.55-.55.87l-.14.36c-.31-.02-.39.33-.41.59-.01.13-.12.25-.14.37-.31-.03-.39.32-.4.58,0,.03,0,.07,0,.1-.31-.03-.4.33-.41.59,0,.03,0,.07,0,.1-.32-.03-.39.34-.41.6-.01.13-.1.24-.14.36-.11-.07-.21.02-.24.11s-.02.15-.03.22c-.02.13-.09.24-.14.36-.1-.07-.21.01-.25.1-.03.07-.02.14-.02.21,0,.03,0,.07,0,.1-.31-.03-.4.33-.41.59,0,.03,0,.07,0,.1-.36-.04-.3.37-.41.6l-1.09,2.1c-.93,1.79-1.19,3.95-2.73,5.42-.2.2-.49.28-.44.57.21,1.2,2.23,1.04,4.39,3.38,1.16,1.26,1.64,2.98,1.28,4.67-.42,1.96-2.48,2.5-4.23,2.63-1.15.09-2.26.32-3.41.28-2.77-.11-5.46-.47-8.08-1.33-1.76-.58-3.22-1.6-4.43-3-2.09-2.41-4.76-6.07-5.67-9.11-.97-3.23.79-4.91,2.72-7.1-.25-1.45,1.32-3.95,2.13-5.23.41-.65.96-.83,1.55-1.23.52-.35.82-1.13,1.17-1.68l4.73-7.43c.45-.7.45-1.5.5-2.29l.17-2.97.15-3.63.11-9.54.11-2.61c.03-.72.25-1.41.1-2.14l-.91-.46c-.41-.21-.65-.58-.57-1.1.33-2.32.67-4.56.89-6.89.25-2.69.92-5.23.92-8.07-1.73,3.48-3.02,6.82-4.26,10.31-.5,1.4-1.03,2.93-1.19,4.37.56,1.24,1.39,2.39,1.68,3.78.36,1.71.8,3.38.91,5.13.05.93-.06,1.72-.7,2.3-1.11,1.01-2.17.64-3.5,0-.03,1.93.73,4.96-1.3,6.05-.82.43-1.58.35-2.36.05-.34-.13-.56.24-.81.37-1.13.58-2.68.47-3.47-.49l-1.06-1.27c-1.32-.04-2.37-.79-2.93-1.97-1.5-3.15-1.13-7.47-.16-10.75.75-2.55,2.62-4.43,2.77-5.44,1.23-8.1,3.52-15.47,7.34-22.61.11.09.2-.04.24-.12s0-.16.03-.21l.44-.95c.09-.11.24-.21.1-.35-.13-.13-.25-.21-.37-.3-.22-.17-.41-.39-.46-.67-.02-.09.03-.2-.06-.3-.05-.05-.1-.1-.17-.03v-.77c.11.09.2-.03.22-.12.02-.08,0-.15,0-.21.04-.46.42-.77.57-1.19.1.06.22-.01.25-.1.03-.08.03-.15.03-.21,0-.03,0-.07,0-.1.11.06.22,0,.24-.1l.03-.2c.1-.64.81-1.02,1.09-1.61.1.04.2-.01.24-.1.03-.07,0-.15.04-.2l.13-.25c.1.03.21,0,.25-.09.03-.07.03-.14.03-.21l.82-1.07c.1.03.22,0,.24-.09l.04-.2.27-.39c.1.03.21,0,.25-.09.03-.07.03-.14.03-.2,1.81-2.14,3.68-4.26,5.87-6.01.06-.05.23.01.28-.09.03-.06.04-.13.02-.19.09-.03.16-.12.25-.13.09-.02.2,0,.29-.1.04-.05.08-.11.02-.18.03,0,.07,0,.1,0,.1.02.22.02.29-.08.05-.06.08-.13.02-.19.03,0,.07,0,.1,0,.1.02.22.02.29-.08.05-.06.08-.13.02-.19h.1c.26,0,.6-.09.58-.4l.36-.14c.32-.12.82-.15.88-.53.11-.02.25,0,.36-.04,2.11-.74,4.18-1.61,6.4-2.22.26-.07.44-.31.75-.27.2.03.35-.12.4-.27.04-.11.11-.34-.02-.39-.18-.08-.36-.04-.5-.06l-.27-.03c-1.97-.48-3.95-.94-5.88-1.84-.26-.12-.51-.2-.74-.22-.12,0-.24,0-.36-.04.24-.21-2.62-1.48-2.78-1.48h-.1c-.03-.4-.53-.48-.86-.55-.03,0-.08,0-.11,0,.06-.29-.39-.3-.94-.65-.03-.02-.1-.03-.14-.03.07-.1-.02-.22-.11-.26-.07-.03-.14-.01-.21-.01h-.1c.08-.1-.01-.22-.1-.26-.06-.03-.14-.01-.21-.01h-.1c.09-.1-.02-.21-.11-.25-.07-.03-.14-.02-.21-.03-.04,0-.09-.02-.13-.03-.06-.17-.21-.27-.38-.34-.04-.02-.1-.03-.14-.03.06-.11-.01-.2-.1-.24-.07-.03-.15,0-.2-.04l-.28-.16c-.09-.15-.22-.27-.36-.35-.16-.1-.31-.22-.46-.33-.09-.16-.24-.25-.37-.36-.85-.72-1.64-1.52-2.37-2.37-.11-.13-.2-.3-.37-.37-.07-.15-.23-.26-.29-.42-.03-.08,0-.22-.09-.28-.05-.03-.13-.04-.19-.02-.08-.13-.2-.25-.27-.39-.04-.08,0-.21-.09-.28-.05-.03-.12-.04-.18-.02-.02-.09-.11-.16-.13-.25-.02-.09,0-.2-.1-.28-.05-.04-.1-.1-.18-.03,0-.03,0-.07,0-.1.02-.1,0-.21-.08-.29-.06-.05-.12-.09-.19-.02,0-.03,0-.07,0-.1.02-.1.01-.21-.08-.29-.06-.05-.12-.1-.19-.02,0-.03,0-.07,0-.1.01-.1.01-.21-.08-.29-.05-.04-.12-.05-.19-.02-.02-.12-.12-.23-.14-.36-.01-.1.02-.22-.09-.31-.05-.04-.11-.1-.19-.02,0-.03,0-.07,0-.1-.07-.33-.15-.82-.54-.86l-.04-.26c-.02-.11-.04-.36-.23-.35-.75.05-1.45-.19-1.26.19-.34,0-.7-.01-1.04,0,.54-.24-1.81-.43-1.55-.27-.06.01-.17,0-.23,0,.09-.14-.12-.22-.28-.28l-1.83-.66-.37-.14c.02-.31-.32-.38-.58-.41l-.25-.13c.04-.1,0-.2-.09-.24-.07-.03-.15,0-.21-.03l-.28-.16c-.08-.16-.22-.28-.37-.37-.28-.2-.53-.45-.73-.73-.09-.15-.21-.28-.37-.37-.04-.1-.13-.18-.16-.28-.02-.09,0-.21-.09-.28-.05-.04-.12-.04-.19-.02-.04-.17-.23-.32-.27-.51-.02-.1.02-.21-.09-.3-.05-.04-.11-.1-.18-.02,0-.03,0-.07,0-.1-.61-1.51-1.34-2.95-1.49-4.67-.02-.18,0-.41-.16-.42,0-.12-.01-.24,0-.37,0-.06.12-2.93-.09-2.65,0-.12,0-.24,0-.36.04.07.19.03.2-.07.28-1.77.58-1.72,1-2.99,0-.03,0-.07,0-.1.1.08.22-.01.26-.1.03-.07,0-.15.01-.21v-.1c.11.06.21,0,.26-.1.03-.07.04-.14.03-.2.21-.3.5-.59.81-.81.09,0,.21,0,.28-.09.04-.05.03-.13.02-.19.08-.03.16-.11.25-.13s.21,0,.28-.09c.04-.05.05-.12.02-.18.12-.02.26-.09.38-.14l1.08-.45c-.13-.54-.23-2.09-.54-2.3.03-.07-.02-.16,0-.23.03-.12.04-.32.01-.47-.02-.08-.1-.22-.24-.14.01-.07-.03-.17,0-.23.24-.41.05-1.01-.18-1.4.03-.06,0-.16,0-.23.02-.26.16-.78-.22-.74v-.23c.11-.13.13-.31.13-.49,0-.16-.01-.46-.26-.38v-.5c.16-.27.29-.96-.14-1.01v-.23c.08.05.11-.06.11-.16v-3.41c0-.1-.03-.21-.11-.16v-.23c.34.24.33-.87.14-1v-.23c.06.07.17.04.19-.07.34-1.62.71-3.2,1.29-4.74.08-.2.2-.34.04-.52-.07-.09-.18-.17-.32-.18-.04-.08-.11-.16-.13-.25s0-.21-.09-.28c-.05-.04-.13-.04-.19-.02-.03-.09-.11-.16-.13-.25s0-.21-.1-.28c-.05-.04-.11-.05-.18-.02-.11-.27-.34-.49-.41-.78-.02-.09.01-.21-.09-.29-.05-.04-.11-.1-.18-.03-.04-.23-.26-.4-.28-.63-.02-.22-.58-1.62-.8-1.43,0-.11,0-.25-.04-.36l-.91-2.79c-.05-.15-.15-.37-.28-.27v-.23c.07-.05.14-.15.11-.21-.05-.09-.16-.2-.24-.11v-.23c.16-.26.02-.64-.18-.85v-.23c0-.1.04-.21,0-.34-.02-.08-.1-.22-.23-.13v-.23c.28-.17-.11-1.27-.17-2.07-.02-.27.1-.61-.16-.7v-.37s0-5.81,0-5.81c0-.12,0-.24,0-.37.22-.17.25-.46.3-.72.04-.04.08-.08.12-.12.37-.17.77-.14,1.15,0,.12.04.25.08.36.14-.04.11.02.2.1.24.07.03.15,0,.2.04l.25.13c-.04.1,0,.2.09.24.07.03.15.01.21.03.24.1.43.28.66.41-.04.1,0,.22.09.25.07.03.15.02.21.01.03,0,.07,0,.1,0-.03.31.32.4.58.41.03,0,.07,0,.1,0-.09.11.04.21.11.25s.16,0,.22.03c.22.06.41.19.62.28.1.62,4,1.82,4.88,1.98.13,0-.56-1.59-.62-1.16-.02-.17-.12-.34-.15-.52-.09-.41-.22-1-.65-1.15l-.04-.36-.86-2.57c-.07-.21-.08-.57-.33-.49,0-.06-.03-.17,0-.23.15-.35-.27-1.76-.4-1.41,0-.06-.03-.17,0-.23.18-.44-.28-2.44-.23-2.35-.03-.06-.1-.1-.17-.03,0-.12,0-.24,0-.36.08.05.11-.06.11-.16v-3.68c0-.1-.03-.21-.11-.16.09-.17-.03-.5.1-.65.1.34.44-2.28.17-1.81v-.23c.36.38.39-2.71,1.06-3.15l.26-.05c.16,0,.32,0,.47-.02.12,0,.24.03.35.04-.04.1.02.21.1.25.07.03.14.04.2.03l1.62,1.5c-.03.1,0,.23.09.24l.2.04c.16.03.27.2.42.29.09.15.21.28.37.35.1.05.19.12.29.17-.03.1,0,.21.09.24.07.03.15,0,.21.03l.25.13c-.04.1,0,.22.09.26.07.03.15.01.21.01h.1c-.09.1.02.22.1.26.06.03.14.01.21.01h.1c-.09.1.02.22.11.26.06.03.14.01.2.01h.1c-.09.1.02.22.11.26.06.03.14.01.21.01h.1c-.09.11.03.22.11.25s.16.03.22.03c.13,0,.24.11.35.14-.02.31.32.39.58.4.03,0,.07,0,.1,0-.03.34.37.31.6.41l.91.41c-.09.1.02.2.11.25.07.03.16-.01.21,0l1.45.58c.5.75,6.11,2.44,7.03,2.46h.23c-.09.09,0,.2.11.25.06.03.16-.04.21-.11h.23c-.51.14,1.74.7,1.55.41h.23c-.08.21.14.26.25.27.15,0,.35-.03.48-.03h.23c.17.3.58.14.86.14.07,0,.15,0,.22,0,.09,0,.26.08.3-.04.03-.1.03-.28-.07-.32-.05-.02-.15-.01-.2-.04-.03-.13-.09-.25-.14-.37-.03-.09.02-.21-.1-.29-.06-.04-.11-.1-.18-.03,0-.03,0-.07,0-.1.02-.1.01-.21-.08-.29-.06-.05-.12-.08-.19-.02l-.41-.79c-.04-.08.02-.22-.09-.29-.05-.03-.12-.04-.19-.02-.11-.24-.29-.43-.41-.66-.04-.08,0-.22-.09-.28-.05-.03-.12-.04-.18-.02-.05-.24-.32-.41-.41-.66-.03-.08.01-.22-.09-.28-.05-.03-.13-.04-.19-.02-.03-.14-.2-.25-.27-.39-.04-.08,0-.21-.09-.28-.05-.03-.12-.04-.18-.02l-.27-.39c-.05-.07,0-.21-.1-.27-.05-.03-.12-.04-.18-.02l-.27-.39c-.05-.07,0-.22-.09-.27-.05-.03-.12-.04-.19-.02l-.43-.56c-.11-.14-.22-.27-.36-.37l-1.69-1.82c-.12-.13-.21-.29-.37-.37l-.03-.13c-.22-.43-.05-.89.27-1.23.07-.03.19-.05.26-.05.16.02.32-.04.33-.22h.36ZM49.8,86.81c2.24-.44,4.26-1.37,6.11-2.55.8-.52,1.39-1.16,2.01-1.84,0,0,1.22-.98,1.77-.46.59.55-.58,1.88-.57,2.56,1.07-.13,1.93-.58,2.83-1.07,2.95-1.59,5.6-3.63,7.89-6.07.63-.67,1.12-1.33,1.69-2.04,2.4-2.95,4.2-6.2,5.38-9.82.63-1.94,1.13-3.89,2.15-5.64.72-1.24,2.15-1.76,3.49-2.28,1.73-3.71,2.67-7.69,2.97-11.78.18-2.5-.2-4.89-.78-7.31-.07-.3-.07-.55.07-.72.68-.81,2.77.68,3.96.99-.5-3.06-1.91-5.66-3.62-8.1-3.24-4.62-6.55-4.85-6.71-5.72-.04-.2.04-.51.2-.67l1.39-1.46c1.31-1.38,2.77-2.39,4.53-3.35-2.01-.5-3.85-.29-5.73.06-.73.14-1.33.44-2.01.75-.57.25-1.12-.4-1.11-.95s.06-1.01,0-1.55c-.39-2.99-1.63-5.84-3.84-8.04.13,3.23-.59,6.01-2.3,8.51-.12.17-.33.24-.48.2-.11-.03-.3-.09-.39-.22-.64-.9-1.34-1.64-2.16-2.38-2.29-2.07-4.62-3.86-7.34-5.4-8.44-4.78-19.35-7.8-29.04-8.06-.85-.02-1.64-.18-2.53,0,2.63,3.05,4.95,6.24,6.65,9.86.16.34.12.69-.05.95-.16.24-.44.34-.81.34-3.05.08-5.89-.51-8.8-1.31-5.39-1.49-10.48-4.06-14.91-7.73-1,4.61-.21,9.34,1.38,13.56.66,1.77,1.53,3.3,2.57,4.84.25.36-.09.86-.29,1.05-1.03.94-6.11-.79-7.46-1.36-1.28-.54-2.32-1.25-3.63-2.05-.25,3.32.14,6.47,1.01,9.58.75,2.68,2,5.06,3.84,7.14.33.38.56.77.35,1.3-1,2.48-1.62,5.01-1.66,7.75-.06,3.69.52,7.33,1.42,10.92l1.35,5.38c2.57,10.2,9.32,17.53,18.88,21.64.35.15.68.24,1.06.19,0-.7-.77-2.58.18-2.73.35-.06.47.09.67.36,2,2.63,2.43,2.69,5.31,4.52.81-.89,1.1-2.46,2.23-2.41.44.02.67.26.95.64.81,1.08,1.65,2.18,2.79,2.99.44.38,5.02-2.13,5.58-2.47,1.14-.7,2.08-1.63,3.07-2.5.23-.21.59-.2.81-.07.75.43-.39,2.83-.29,4.04ZM12.15,74.65c-1.01-1.57-1.87-2.76-2.62-4.21-1.86-3.6-3.11-7.37-3.96-11.37-2.87.89-3.57,4.19-3.31,6.68.23,2.18.91,4.26,2.28,5.96,1.84,2.28,4.68,3.52,7.61,2.95ZM16.13,78.92c4.51,6.64,11.97,10.25,19.53,11.85l.73-1.56c.1-.21.43-.13.55,0,.44.5.11,2.94.17,3.93l1.9-.19c1.93-.2,3.84-.2,5.77.02l4.43.51.1-2.42c.03-.77.58-1.71,1.07-1.45.52.28.09,1.19.36,1.78,1.01,0,1.91-.25,2.91-.5,4-.99,7.83-2.4,11.37-4.52,3.8-2.28,7.2-5.51,9.11-9.51l1.3-2.72c.62.19.94.69,1.53.91,1.81.68,3.9.45,5.64-.54,4.25-2.42,6.67-8.29,4.5-12.68-.58-1.17-1.64-1.98-2.86-2.31-2.67-.72-3.85,2.11-4.68,3.91-.45.98-.8,1.92-1.17,2.95-1.94,5.44-3.52,7.96-7.4,12.26-2.33,2.57-5.04,4.66-8.12,6.24-1.01.52-5.15,2.1-5.56,1.22-.1-.22.24-1.04-.07-.83-.97.67-1.84,1.3-2.91,1.76-1.84.8-3.7,1.47-5.72,1.7-1.22.14-.38-1.69-.79-2.34-2.15,1.34-4.33,2.23-6.57,3.13-.54.21-.93.24-1.4-.18l-2.95-2.66c-1.16,1.22-1.37,2.08-3,1.37-1.47-.64-2.67-1.54-3.84-2.65l-.11.99c-2.63-.3-5-1.25-7.3-2.53-2.44-1.35-4.35-3.11-6.52-4.96ZM16.15,78.71c0-.07-.05-.12-.12-.12s-.12.05-.12.12.05.12.12.12.12-.05.12-.12ZM36.56,141.53c.96.38,2.03,0,3.09.2.86.17,1.71.04,2.59.14,2.5.28,8.35-.22,8.43-.21.45.07.87-.17,1.34-.22.97-.09,1.88-.07,2.83-.21l2.24-.33c.64-.09,3.35-.44,3.52-.78.24-.72.02-1.64-.06-2.42l-.83-8.35-.7-6.68c-.17-1.59-1.39-.46-2.03-2.11l-2.4-6.18c-.25-.63-1.04-2.94-.27-3.2.73-.24,1.78,2.79,2.07,3.51.72,1.75,1.39,3.44,2.31,5.12,2.54-.4,5.79-2.42,7.96-3.74,1.26-.76,2.46-1.52,3.58-2.47-.28-.77-.73-1.33-1.11-2.04-1.91-3.59-4.15-6.95-6.88-9.95-1.28-1.4-2.68-2.51-4.41-3.28-2.75-1.22-5.48-2.47-8.45-2.92l-1.64-.25-2.2-.28c-.89-.11-1.81.02-2.69-.12-.94-.15-1.81-.03-2.75,0-4.67.15-6.89.69-11.15,2.46-2.48,1.03-4.49,2.59-6.37,4.47s-3.64,3.81-5.3,5.94c-.88,1.13-1.81,2.16-2.39,3.54,2.05,2.27,5.44,4.57,8.14,6.09.24.13.51-.12.55-.37.28-1.72,1.12-7.42,1.69-8.68.17-.37.46-.56.8-.49s.58.52.51.98l-2.11,14.47-1.08,8.66-.89,7.15c1.13.51,1.72.42,2.78.77.39.13.89.2,1.31.28l1.37.27c.46.09,4.74.82,4.56.73.54.23,1.04.07,1.59.15l1.05.14c.44.06.84.3,1.37.19ZM12.79,147.56c.4-.46-.3-2.3.03-2.95.42-.83,2.2,2.86,2.3,3.06.38.75,1.1,1.83,2,1.35.57-.3-.72-5.11-1-5.92-.42-1.21-.89-2.28-1.69-3.3.5-3.08,1.38-5.86,2.54-8.7,1.68-4.11,3.6-7.98,5.79-11.88-2.68-1.71-4.78-2.72-7.17-4.98-.47.57-.72,1.12-1.05,1.77-3.23,6.4-5.39,13.19-6.67,20.25-.17.93-.25,1.95-.73,2.7-.78,1.22-1.71,2.26-2.18,3.69-1.02,3.11-1.59,7.4.28,10.32.1.16.33.28.45.29.39.05.69-1.24.69-1.23.13-1.12.15-2.28-.04-3.39-.05-.26-.23-.47-.07-.64.13-.14.36-.23.59-.19,1.03.19,1.96.3,3.01.35.94.05,2.2.21,2.92-.6ZM80.89,153.72c1.28.14,2.17-2.73,2.19-3.43l.13-4c0-.2.05-.34.22-.35.16,0,.22.11.31.27.78,1.34.61,2.79.29,4.41,2.53-2.45,1.17-6.84-.47-9.4-1.06-1.65-2.46-2.88-3.72-4.37-.98-1.16-1.51-2.65-2.35-3.94-1.11-1.74-1.89-3.5-2.81-5.34-1.83-3.64-3.7-7.16-5.35-10.9-2.68,1.87-5.3,3.36-8.19,4.56l2.2,4.3c2.49,4.63,5.42,8.92,8.86,12.9,3.94,4.56-.2,3.26,3.58,8.62.6.85,1.51,1.57,1.98,2.5.15.74-.9,4.27.08,4.76.6.31,1.32-.45,1.56-1,1.27-2.97.4-4.78,1.31-5.09,1.18.95.51,4.12.15,5.49ZM43.07,153.13c1.92,3.68,5.72,12.97,6.74,16.6l1.77,6.32,1.69,6.69c1.86.08,3.38.04,5.11-.36,2.78-.63,6.46-1.92,8.51-3.95.24-.24.46-.49.37-.9l-1.51-6.87-3.36-16.06-2.52-12.1c-2.04.3-3.92.6-5.91.79l-3.56.32c-.66-.1-1.28.07-1.92.08l-3.69.07c-.58.01-1.08.03-1.66,0l-3.61-.11-3.92-.28-3.13-.3c-.73-.07-1.39-.13-2.12-.24l-2.01-.32-4.26-.91c-.28.61-.27,1.21-.25,1.85.02.8-.09,1.53-.1,2.32l-.11,8.02-.14,4.52-.14,2.72c-.17,3.29.03,2.88-1.63,5.5l-4.34,6.84c.4.33.84.25,1.26.35,4.34.98,8.94,4.25,11.39,8.11.63-.66.92-1.46,1.37-2.24l4.08-6.99c.84-1.44,1.52-2.87,1.95-4.5.82-3.07,1.44-6.08,2.03-9.19l.8-4.26c.05-.29.05-.52-.12-.73-.16-.19-.42-.13-.7-.21-1.77-.54-3.48-1.08-5.15-1.81-.29-.13-.47-.47-.45-.71.02-.23.37-.49.69-.44,1.07.18,2.12.35,3.16.64l3.1.89c.63.18,1.87.17,2.28.84ZM9.46,149.5c-.62-.3-1.22-.4-1.95-.43.03,1.19.02,6.05,1.35,6.3,2.29.42.88-4.65.6-5.87ZM12.9,150.3c-.07-.45.02-.9-.27-1.27-.68.1-1.28.25-1.91.54l.55,3.43c.11.72.55,2,1.4,1.82.94-.2.36-3.6.23-4.52ZM29.08,184.45c0-.76-.65-1.59-1.08-2.17-2.72-3.64-7.9-7.34-12.62-6.92-.88.92-1.56,1.91-1.99,3.2,5.59.16,10.87,4.41,14.02,8.94.61-.97,1.5-1.88,1.67-3.04ZM54.99,188.51c5.65-.06,10.46-1.49,14.47-5.46-.1-1.27-.39-2.37-1.06-3.53-3.86,3.73-10.02,5.44-15.29,5.14-.03,1.09.37,3.87,1.87,3.86ZM26.77,190.93c-.13-.52-.16-1.04-.42-1.52-2.38-4.37-7.89-9.26-13.17-8.86-.97.97-1.85,1.93-2.58,3.2,4.34.24,7.68,3.13,10.02,6.45l3.34,4.73c.88,1.24,1.75,2.4,2.93,3.43,1.54.13,3.06-.04,4.55-.41.52-.13.79-.46.83-1.03.26-3.95-5.17-4.65-5.51-5.98ZM69.34,193.66c2.04-.94,3.98-1.85,5.86-3.06.98-.63,4.56-2.84,3.74-4.23-1.14-1.93-5.2-2.78-7.29-2.66-1.93,1.92-3.97,3.54-6.39,4.69-2.2,1.04-6.93,2.25-9.4,2.09-.2.78.14,1.39.25,2.08l.41,2.49c.1.59.5,1.06,1.14,1.11,3.8.32,8.24-.93,11.68-2.51Z" fill="#0f0807"/>
            <path d="M27.36,95.66c-.02-.06.02-.23.15-.28,2.15-.81,4.25-1.6,6.46-2.26.32-.1.68.04.91-.34-.17-.2-.39-.19-.49-.33.15.01.32-.02.5.06.14.06.06.28.02.39-.05.16-.19.3-.4.27-.32-.04-.49.2-.75.27-2.22.61-4.29,1.48-6.4,2.22Z" fill="#603620"/>
            <path d="M41.88,157.8c0,.7-.15,1.44-.41,2.1-.14,0-.14-.26-.11-.41l.32-1.62c.02-.1.16-.14.2-.07Z" fill="#603620"/>
            <path d="M71.45,181.11c-.13.04-.34-.12-.31-.31.15-.87-.52-1-.45-1.65.27-.3.74,1.87.76,1.96Z" fill="#603620"/>
            <path d="M62.19,141.84c-.37.72.14.89.09,1.65-.19.3-.65-1.24-.37-1.58.07-.08.19-.07.29-.07Z" fill="#603620"/>
            <path d="M65.43,158.68c-.25.35-.67-1.65-.4-1.56.24.47.37,1.03.4,1.56Z" fill="#603620"/>
            <path d="M68.31,172.36c-.17.45-.71-1.72-.39-1.56.23.48.37,1.03.39,1.56Z" fill="#603620"/>
            <path d="M68.71,174.28c-.36-.09-.47-.73-.25-1.01.2.29.23.66.25,1.01Z" fill="#603620"/>
            <path d="M66.52,164.02c-.36-.09-.47-.73-.25-1.01.2.29.24.67.25,1.01Z" fill="#603620"/>
            <path d="M71.34,115.39c-.04.34.05.66.12.99-.27.05-.26-.28-.33-.41-.24-.45.02-.4.22-.58Z" fill="#603620"/>
            <path d="M67.07,166.62c-.37-.09-.46-.72-.26-1.01.22.27.25.67.26,1.01Z" fill="#603620"/>
            <path d="M13.73,113.19c-.02-.24-.17-.44-.27-.65.11.09.24.17.37.3.15.15,0,.24-.1.35Z" fill="#603620"/>
            <path d="M75.82,150.41c0,.24.14.6-.14.72-.11-.13-.14-.3-.12-.48.01-.12.08-.34.26-.24Z" fill="#603620"/>
            <path d="M77.38,182.72c-.27-.04-.74-.02-.74-.37.26.06.73.04.74.37Z" fill="#603620"/>
            <path d="M52.46,94.06c-.12.13-.29.06-.4.03-.21-.05-.35-.14-.3-.34.25.06.53.1.7.3Z" fill="#603620"/>
            <path d="M35.6,176.71c-.04.25-.09.61-.4.58.01-.26.09-.61.4-.58Z" fill="#603620"/>
            <path d="M61.73,128.15c-.18.09-.28-.1-.26-.23.02-.14,0-.36.16-.37.15.19.12.37.11.6Z" fill="#603620"/>
            <path d="M75.68,151.37c0,.11.03.23.03.36,0,.11-.06.34-.25.25-.01-.12-.05-.32-.01-.47.02-.08.09-.23.23-.14Z" fill="#603620"/>
            <path d="M36.15,175.75c-.05.25-.09.61-.41.59.02-.26.1-.61.41-.59Z" fill="#603620"/>
            <path d="M61.87,129.38c-.18.08-.28-.09-.27-.23s0-.36.16-.37c.14.19.12.37.11.6Z" fill="#603620"/>
            <path d="M35.2,177.39c-.04.25-.1.61-.41.59.01-.26.1-.61.41-.59Z" fill="#603620"/>
            <path d="M34.79,178.07c-.03.26-.11.6-.41.6.02-.26.09-.63.41-.6Z" fill="#603620"/>
            <path d="M62.01,130.61c-.18.08-.29-.08-.27-.23s0-.36.16-.37c.09.19.17.37.11.6Z" fill="#603620"/>
            <path d="M70.65,178.92c-.32.03-.4-.32-.4-.58.28.05.38.32.4.58Z" fill="#603620"/>
            <path d="M62.14,131.57c-.18.08-.29-.09-.27-.23s0-.36.16-.37c.16.17.1.39.11.6Z" fill="#603620"/>
            <path d="M66.8,165.38c-.1.07-.22,0-.26-.1-.05-.12.03-.27.13-.36.18.06.13.31.13.46Z" fill="#603620"/>
            <path d="M68.86,174.98c-.1.07-.22-.01-.27-.12s.02-.27.13-.35c.18.06.13.32.14.48Z" fill="#603620"/>
            <path d="M68.45,173.05c-.09.08-.23,0-.27-.1-.05-.12.03-.28.13-.36.18.06.13.31.14.46Z" fill="#603620"/>
            <path d="M62.05,198.07c-.06.2-.32.09-.46.12-.08-.1.01-.21.11-.25.12-.04.27.03.35.13Z" fill="#603620"/>
            <path d="M16.99,104.71l-.04.2c-.02.09-.14.12-.24.09.05-.06,0-.22.09-.27.06-.03.12-.04.18-.02Z" fill="#603620"/>
            <path d="M67.91,105.28c-.07.03-.13,0-.18-.02-.11-.06-.05-.21-.1-.28.11-.04.22,0,.24.1l.04.21Z" fill="#603620"/>
            <path d="M15.48,106.62c-.03.05,0,.13-.04.2-.04.08-.13.14-.24.1.04-.08-.01-.22.09-.28.05-.03.12-.05.18-.02Z" fill="#603620"/>
            <path d="M70.92,110.21c-.07.07-.13.02-.18-.02-.1-.09-.05-.21-.09-.3.11-.08.19.05.23.12.04.06.02.14.04.2Z" fill="#603620"/>
            <path d="M24.26,97.32c.06.07.02.13-.02.18-.08.1-.19.08-.29.1-.08-.1.02-.21.1-.25.06-.03.14-.03.2-.03Z" fill="#603620"/>
            <path d="M24.66,97.05c.06.07.03.13-.02.19-.07.1-.19.1-.29.08-.06-.11.01-.21.1-.24.07-.03.14-.03.2-.03Z" fill="#603620"/>
            <path d="M25.08,96.77c.07.07.03.13-.02.19-.08.1-.19.1-.29.08-.07-.11.02-.21.11-.24.07-.03.14-.03.21-.03Z" fill="#603620"/>
            <path d="M53.02,94.29c-.06,0-.13.02-.21,0-.09-.02-.2-.12-.12-.23.09-.01.2-.03.3.05.06.04.1.1.03.18Z" fill="#603620"/>
            <path d="M62.41,127.88c-.11.09-.2-.03-.22-.12l-.04-.2c.07-.05.13-.02.19.02.12.07.03.22.06.3Z" fill="#603620"/>
            <path d="M86.25,151.11c-.04.08,0,.21-.1.28-.05.04-.12.05-.18.02l.03-.21c.02-.09.14-.13.24-.1Z" fill="#603620"/>
            <path d="M85.02,152.76c-.08.12-.05.32-.28.3,0-.06,0-.13.03-.21.04-.09.16-.11.25-.09Z" fill="#603620"/>
            <path d="M66.95,103.91c-.07.03-.13,0-.18-.02-.11-.06-.05-.21-.1-.28.1-.04.2.01.24.1.03.06,0,.16.04.21Z" fill="#603620"/>
            <path d="M70.11,178.1c-.06,0-.14.01-.21-.02-.09-.05-.09-.18-.08-.28.16.03.29.11.29.3Z" fill="#603620"/>
            <path d="M34.23,179.03c-.03.09,0,.2-.1.29-.05.04-.09.11-.17.04.01-.06,0-.14.03-.22.04-.08.14-.18.24-.11Z" fill="#603620"/>
            <path d="M76.01,182.21c-.07.02-.15.16-.22.12-.11-.06-.18-.17-.1-.25.1.02.32-.02.32.13Z" fill="#603620"/>
            <path d="M78.34,183.13c-.06,0-.14.02-.21,0-.09-.03-.19-.14-.11-.25.08.03.2,0,.29.08.05.05.11.09.03.17Z" fill="#603620"/>
            <path d="M64.1,197.66c0,.15-.22.13-.32.13-.07-.08,0-.2.1-.25.06-.03.17.06.22.12Z" fill="#603620"/>
            <g>
              <path d="M78.58,130.48c-.39-.04-.4-.57-.54-.87.37.07.47.54.54.87Z" fill="#603620"/>
              <path d="M61.84,126.89l-.25.03s-.12-.09-.14-.14c-.04-.11,0-.26.14-.24.22.03.22.23.25.35Z" fill="#603620"/>
              <path d="M80.77,134.45c-.34.02-.34-.35-.41-.6.37-.04.31.37.41.6Z" fill="#603620"/>
              <path d="M79.95,132.94c-.07.07-.13.02-.18-.02-.11-.08-.06-.2-.08-.29.11-.07.19.03.23.11.03.07,0,.15.03.2Z" fill="#603620"/>
              <path d="M84.75,139.23c-.06.02-.13.01-.18-.02-.1-.06-.05-.2-.1-.27.1-.03.22,0,.24.09l.04.2Z" fill="#603620"/>
              <path d="M74.48,148.54c-.12-.04-.2-.19-.28-.29.06,0,.14-.02.19.02.09.06.1.18.09.27Z" fill="#603620"/>
              <path d="M75.58,149.77c-.1.03-.19-.01-.24-.09-.03-.06,0-.16-.04-.2.06-.02.13,0,.19.02.11.04.05.21.09.27Z" fill="#603620"/>
              <path d="M50.67,141.67c-.47-.35-1.08,0-1.66,0l-8.74-.02-1.66-.14c-.73-.06-1.38-.18-2.05.03-.53.11-.94-.13-1.37-.19l-1.05-.14c-.56-.08-1.06.09-1.59-.15.19.08-4.1-.64-4.56-.73l-1.37-.27c-.42-.08-.92-.15-1.31-.28-1.06-.35-1.65-.27-2.78-.77l.89-7.15,1.08-8.66,2.11-14.47c.07-.47-.16-.91-.51-.98s-.63.11-.8.49c-.57,1.27-1.41,6.97-1.69,8.68-.04.25-.31.5-.55.37-2.7-1.51-6.1-3.82-8.14-6.09.58-1.39,1.51-2.41,2.39-3.54,1.66-2.13,3.39-4.03,5.3-5.94s3.89-3.44,6.37-4.47c4.26-1.77,6.48-2.31,11.15-2.46.94-.03,1.81-.15,2.75,0,.88.14,1.8.01,2.69.12l2.2.28,1.64.25c2.97.45,5.7,1.7,8.45,2.92,1.73.77,3.13,1.87,4.41,3.28,2.73,3,4.97,6.37,6.88,9.95.38.71.84,1.26,1.11,2.04-1.13.95-2.32,1.71-3.58,2.47-2.18,1.32-5.42,3.34-7.96,3.74-.92-1.68-1.59-3.37-2.31-5.12-.3-.72-1.34-3.75-2.07-3.51-.77.25.02,2.56.27,3.2l2.4,6.18c.64,1.65,1.86.52,2.03,2.11l.7,6.68.83,8.35c.08.78.3,1.7.06,2.42-.17.34-2.88.68-3.52.78l-2.24.33c-.95.14-1.86.12-2.83.21-.48.04-.89.29-1.34.22Z" fill="#d23131"/>
              <path d="M80.89,153.72c.35-1.37,1.02-4.54-.15-5.49-.91.31-.04,2.12-1.31,5.09-.23.55-.95,1.31-1.56,1-.98-.5.07-4.02-.08-4.76-.47-.93-1.38-1.65-1.98-2.5-3.78-5.37.36-4.07-3.58-8.62-3.44-3.98-6.36-8.26-8.86-12.9l-2.2-4.3c2.89-1.2,5.51-2.69,8.19-4.56,1.65,3.74,3.52,7.26,5.35,10.9.93,1.84,1.71,3.6,2.81,5.34.84,1.28,1.36,2.78,2.35,3.94,1.26,1.48,2.66,2.71,3.72,4.37,1.64,2.56,3,6.95.47,9.4.32-1.62.49-3.07-.29-4.41-.1-.16-.15-.28-.31-.27-.18,0-.22.15-.22.35l-.13,4c-.02.7-.91,3.57-2.19,3.43Z" fill="#edb390"/>
              <path d="M12.79,147.56c-.72.81-1.99.65-2.92.6-1.05-.06-1.98-.16-3.01-.35-.23-.04-.45.05-.59.19-.16.17.02.38.07.64.19,1.11.17,2.28.04,3.39,0,0-.3,1.28-.69,1.23-.12-.02-.35-.13-.45-.29-1.86-2.91-1.3-7.2-.28-10.32.47-1.43,1.39-2.47,2.18-3.69.49-.76.56-1.78.73-2.7,1.28-7.06,3.44-13.85,6.67-20.25.33-.65.58-1.2,1.05-1.77,2.39,2.26,4.49,3.27,7.17,4.98-2.19,3.9-4.12,7.77-5.79,11.88-1.16,2.83-2.03,5.62-2.54,8.7.8,1.02,1.27,2.09,1.69,3.3.28.81,1.57,5.62,1,5.92-.9.48-1.62-.6-2-1.35-.1-.2-1.89-3.89-2.3-3.06-.33.65.37,2.49-.03,2.95ZM9.68,146c2.58-1.74,2.62-5.13,1.64-5.01-.92.11.23,3.22-2.9,4.61-.45.2-1.59.88-1.21,1.26.36.36,2.02-.56,2.48-.86Z" fill="#edb390"/>
              <path d="M9.46,149.5c.28,1.22,1.7,6.29-.6,5.87-1.33-.24-1.32-5.11-1.35-6.3.73.03,1.33.13,1.95.43Z" fill="#edb390"/>
              <path d="M12.9,150.3c.13.92.72,4.33-.23,4.52-.85.18-1.29-1.11-1.4-1.82l-.55-3.43c.63-.29,1.23-.44,1.91-.54.29.37.2.82.27,1.27Z" fill="#edb390"/>
              <path d="M50.67,141.67c-.08-.01-5.93.49-8.43.21-.88-.1-1.73.03-2.59-.14-1.06-.21-2.14.18-3.09-.2.67-.21,1.33-.09,2.05-.03l1.66.14,8.74.02c.58,0,1.19-.35,1.66,0Z" fill="#603620"/>
              <path d="M9.68,146c-.45.3-2.12,1.22-2.48.86-.38-.38.76-1.06,1.21-1.26,3.13-1.39,1.98-4.5,2.9-4.61.99-.12.95,3.27-1.64,5.01Z" fill="#0f0807"/>
            </g>
            <g>
              <path d="M50.96,185.5c-.37.05-.07-2.1-.02-2.47.06-.47-.81-3.51-1-4.2l-1.79-6.7c-.71-2.65-1.61-5.1-2.63-7.64l-2.51-6.27c.22-.02.31.21.4.44,1.33,3.36,2.75,6.58,3.91,10.02s1.95,6.65,2.84,10.04c.37,1.41.81,2.73,1.02,4.19-.06-.44-.1,2.98-.23,2.6Z" fill="#603620"/>
              <path d="M55.16,197.01c-.81-.13-1.38-5.57-1.67-6.55-.4-.26-1.02-.39-1.06-.89l1.3.82.63,3.57c.19,1.08.47,2.07.8,3.05Z" fill="#603620"/>
              <path d="M42.52,156.86c-.14-.13-.32-.3-.5-.14,0-.19-.13-.43.09-.6.23.2.3.49.4.75Z" fill="#603620"/>
              <path d="M37.52,173.29c-.2.37-.19,1.03-.68,1.13,0-.41.23-1.02.68-1.13Z" fill="#603620"/>
              <path d="M72.27,181.65c-.25.02-.53.1-.81-.01-.1-.04,0-.19,0-.25.24.18.55.13.81.26Z" fill="#603620"/>
              <path d="M36.84,174.51c0,.33-.17.81-.55.87.12-.32.16-.84.55-.87Z" fill="#603620"/>
              <path d="M73.82,181.78c-.02.16-.24.13-.37.16-.17.03-.44-.03-.36-.27.25,0,.53-.08.74.11Z" fill="#603620"/>
              <path d="M55.7,197.65c-.24-.09-.46-.25-.51-.51.21.12.39.29.51.51Z" fill="#603620"/>
              <path d="M60.96,198.22c-.19.16-.37.1-.6.11-.09-.18.1-.28.23-.27s.36,0,.37.16Z" fill="#603620"/>
              <path d="M42.01,156.98c0,.19.1.51-.13.59-.1-.1-.13-.23-.13-.35,0-.15.09-.33.26-.24Z" fill="#603620"/>
              <path d="M33.15,180.81c-.03.26-.11.59-.41.6.12-.23.06-.64.41-.6Z" fill="#603620"/>
              <path d="M69.53,177.51c-.17-.08-.32-.18-.25-.36.14.07.22.21.25.36Z" fill="#603620"/>
              <path d="M74.78,181.93c-.08.05-.16.13-.24.14-.16.01-.31-.11-.22-.26.15,0,.41-.06.46.12Z" fill="#603620"/>
              <path d="M42.97,157.86c-.11.09-.2-.03-.22-.12-.02-.07,0-.15-.01-.21.07-.06.13-.02.18.03.1.09.04.21.06.3Z" fill="#603620"/>
              <path d="M33.82,179.72c-.03.08.01.21-.09.29-.05.04-.11.06-.18.02,0-.06-.01-.14.02-.21.04-.09.15-.17.25-.1Z" fill="#603620"/>
              <path d="M75.47,182.07c-.05.07-.16.16-.22.13-.1-.05-.18-.17-.1-.25.1,0,.32-.02.33.12Z" fill="#603620"/>
              <path d="M79.3,183.69s-.15.01-.22-.01c-.09-.04-.13-.14-.09-.25.06.05.21,0,.28.09.04.05.08.1.03.17Z" fill="#603620"/>
              <path d="M75.61,192.65c.09.11-.07.16-.13.2-.05.03-.15.01-.19.05,0-.05-.03-.16.01-.22.07-.1.23-.03.31-.03Z" fill="#603620"/>
              <path d="M74.78,193.17c.09.11-.03.2-.11.22l-.2.04c-.03-.06-.03-.14.01-.19.08-.1.2-.06.3-.07Z" fill="#603620"/>
              <path d="M56.16,197.94c-.09-.02-.2,0-.29-.08-.05-.05-.1-.1-.03-.18.07,0,.14-.02.21.01.08.04.2.14.11.24Z" fill="#603620"/>
              <path d="M63.55,197.8c0,.14-.22.12-.33.12-.08-.08,0-.2.11-.25.06-.03.17.06.22.12Z" fill="#603620"/>
              <path d="M43.07,153.13c-.41-.67-1.66-.66-2.28-.84l-3.1-.89c-1.04-.3-2.09-.46-3.16-.64-.32-.05-.67.21-.69.44-.02.25.16.59.45.71,1.67.72,3.38,1.27,5.15,1.81.28.08.54.02.7.21.18.21.18.44.12.73l-.8,4.26c-.58,3.12-1.21,6.13-2.03,9.19-.43,1.63-1.11,3.06-1.95,4.5l-4.08,6.99c-.45.78-.74,1.57-1.37,2.24-2.46-3.86-7.06-7.13-11.39-8.11-.42-.1-.86-.02-1.26-.35l4.34-6.84c1.66-2.62,1.46-2.21,1.63-5.5l.14-2.72.14-4.52.11-8.02c.01-.79.13-1.52.1-2.32-.02-.63-.03-1.24.25-1.85l4.26.91,2.01.32c.73.12,1.4.18,2.12.24l3.13.3,3.92.28,3.61.11c.58.02,1.08,0,1.66,0l3.69-.07c.64-.01,1.26-.18,1.92-.08l3.56-.32c1.99-.18,3.87-.48,5.91-.79l2.52,12.1,3.36,16.06,1.51,6.87c.09.41-.13.66-.37.9-2.04,2.03-5.72,3.32-8.51,3.95-1.74.39-3.25.43-5.11.36l-1.69-6.69-1.77-6.32c-1.01-3.63-4.81-12.92-6.74-16.6Z" fill="#0b689e"/>
              <path d="M69.34,193.66c-3.44,1.59-7.88,2.83-11.68,2.51-.64-.05-1.04-.52-1.14-1.11l-.41-2.49c-.11-.69-.45-1.3-.25-2.08,2.47.16,7.2-1.05,9.4-2.09,2.42-1.15,4.46-2.77,6.39-4.69,2.1-.12,6.15.72,7.29,2.66.81,1.38-2.76,3.59-3.74,4.23-1.88,1.21-3.82,2.12-5.86,3.06Z" fill="#603620"/>
              <path d="M26.77,190.93c.34,1.33,5.77,2.03,5.51,5.98-.04.57-.31.9-.83,1.03-1.49.37-3.01.53-4.55.41-1.17-1.03-2.05-2.18-2.93-3.43l-3.34-4.73c-2.34-3.31-5.69-6.21-10.02-6.45.73-1.27,1.6-2.23,2.58-3.2,5.28-.39,10.78,4.5,13.17,8.86.26.48.29,1,.42,1.52Z" fill="#603620"/>
              <path d="M29.08,184.45c-.17,1.16-1.06,2.07-1.67,3.04-3.16-4.53-8.43-8.78-14.02-8.94.43-1.29,1.11-2.28,1.99-3.2,4.72-.41,9.91,3.28,12.62,6.92.43.58,1.09,1.42,1.08,2.17Z" fill="#0b689e"/>
              <path d="M54.99,188.51c-1.5.02-1.91-2.77-1.87-3.86,5.27.3,11.43-1.41,15.29-5.14.67,1.16.95,2.26,1.06,3.53-4.02,3.97-8.82,5.41-14.47,5.46Z" fill="#0b689e"/>
            </g>
          </g>
        </g>
      </g>
    </g>
  </g>
</svg>