<?xml version="1.0" encoding="UTF-8"?>
<svg id="Layer_2" data-name="Layer 2" xmlns="http://www.w3.org/2000/svg" xmlns:xlink="http://www.w3.org/1999/xlink" viewBox="0 0 194.54 218.07">
  <defs>
    <clipPath id="clippath">
      <circle cx="97.27" cy="82.73" r="81.32" fill="none"/>
    </clipPath>
  </defs>
  <g id="Layer_1-2" data-name="Layer 1">
    <path d="M97.27,2.83C53.21,2.83,17.37,38.68,17.37,82.73s35.84,79.9,79.9,79.9,79.9-35.84,79.9-79.9S141.33,2.83,97.27,2.83Z" fill="#1a2a3d" opacity=".5" stroke="#7dabe2" stroke-miterlimit="10"/>
    <g>
      <path d="M11.98,181.13h5.01v16.84c0,1.55-.34,2.92-1.03,4.1-.68,1.19-1.65,2.1-2.9,2.75-1.25.65-2.66.97-4.23.97-2.57,0-4.58-.65-6.02-1.96-1.44-1.31-2.16-3.16-2.16-5.56h5.05c0,1.19.25,2.07.75,2.64s1.29.85,2.37.85c.96,0,1.72-.33,2.29-.99.57-.66.85-1.59.85-2.81v-16.84Z" fill="#fff"/>
      <path d="M18.51,196.25c0-1.79.34-3.39,1.04-4.79.69-1.4,1.69-2.49,2.98-3.26,1.3-.77,2.8-1.15,4.52-1.15,2.44,0,4.43.75,5.97,2.24,1.54,1.49,2.4,3.52,2.58,6.08l.03,1.24c0,2.77-.77,5-2.32,6.68-1.55,1.68-3.63,2.51-6.23,2.51s-4.69-.83-6.24-2.51c-1.55-1.67-2.33-3.94-2.33-6.82v-.22ZM23.34,196.59c0,1.72.32,3.03.97,3.94.65.91,1.57,1.36,2.77,1.36s2.08-.45,2.74-1.35c.66-.9.99-2.33.99-4.31,0-1.68-.33-2.99-.99-3.92s-1.58-1.39-2.77-1.39-2.09.46-2.74,1.38c-.65.92-.97,2.35-.97,4.28Z" fill="#fff"/>
      <path d="M47.38,205.46c-.22-.43-.38-.97-.48-1.62-1.17,1.3-2.69,1.95-4.56,1.95-1.77,0-3.24-.51-4.4-1.54-1.16-1.02-1.75-2.32-1.75-3.88,0-1.92.71-3.39,2.13-4.41,1.42-1.03,3.47-1.54,6.16-1.55h2.22v-1.04c0-.84-.21-1.5-.64-2.01-.43-.5-1.11-.75-2.03-.75-.81,0-1.45.2-1.91.59-.46.39-.69.92-.69,1.6h-4.83c0-1.05.32-2.02.97-2.91.65-.89,1.56-1.59,2.74-2.1,1.18-.51,2.51-.76,3.98-.76,2.23,0,4,.56,5.31,1.68,1.31,1.12,1.96,2.69,1.96,4.72v7.84c.01,1.72.25,3.01.72,3.89v.28h-4.88ZM50.53,180.01c0,1.26-.37,2.31-1.1,3.17-.74.85-1.63,1.28-2.69,1.28-.42,0-.8-.05-1.13-.14-.33-.1-.78-.3-1.36-.61s-1-.5-1.25-.58c-.26-.07-.54-.11-.84-.11-.39,0-.72.14-.99.42-.27.28-.41.67-.41,1.19l-2.81-.17c0-1.24.37-2.29,1.09-3.16.73-.87,1.62-1.3,2.68-1.3.33,0,.65.04.94.12.29.08.78.29,1.45.61.67.32,1.13.52,1.39.58.26.07.52.1.8.1.39,0,.73-.14,1.01-.41.28-.27.43-.67.43-1.18l2.79.18ZM43.38,202.1c.71,0,1.37-.16,1.97-.48.6-.32,1.05-.74,1.34-1.28v-3.11h-1.8c-2.42,0-3.7.84-3.86,2.51l-.02.29c0,.6.21,1.1.63,1.49.42.39,1,.59,1.74.59Z" fill="#fff"/>
      <path d="M52.78,196.25c0-1.79.34-3.39,1.04-4.79.69-1.4,1.69-2.49,2.98-3.26,1.3-.77,2.8-1.15,4.52-1.15,2.44,0,4.43.75,5.97,2.24,1.54,1.49,2.4,3.52,2.58,6.08l.03,1.24c0,2.77-.77,5-2.32,6.68-1.55,1.68-3.63,2.51-6.23,2.51s-4.69-.83-6.24-2.51c-1.55-1.67-2.33-3.94-2.33-6.82v-.22ZM57.61,196.59c0,1.72.32,3.03.97,3.94.65.91,1.57,1.36,2.77,1.36s2.08-.45,2.74-1.35c.66-.9.99-2.33.99-4.31,0-1.68-.33-2.99-.99-3.92s-1.58-1.39-2.77-1.39-2.09.46-2.74,1.38c-.65.92-.97,2.35-.97,4.28Z" fill="#fff"/>
      <path d="M92.04,200.44h-8.79l-1.67,5.01h-5.33l9.06-24.33h4.65l9.11,24.33h-5.33l-1.69-5.01ZM84.6,196.38h6.08l-3.06-9.11-3.02,9.11Z" fill="#fff"/>
      <path d="M109.94,203.62c-1.19,1.45-2.84,2.17-4.95,2.17-1.94,0-3.42-.56-4.44-1.67-1.02-1.11-1.54-2.75-1.56-4.9v-11.85h4.83v11.69c0,1.88.86,2.83,2.57,2.83s2.76-.57,3.38-1.71v-12.81h4.85v18.08h-4.54l-.13-1.84Z" fill="#fff"/>
      <path d="M115.85,196.28c0-2.77.66-5.01,1.98-6.7,1.32-1.69,3.1-2.54,5.34-2.54,1.98,0,3.53.68,4.63,2.04l.2-1.7h4.38v17.48c0,1.58-.36,2.96-1.08,4.13-.72,1.17-1.73,2.06-3.03,2.67-1.3.61-2.83.92-4.58.92-1.33,0-2.62-.27-3.88-.79-1.26-.53-2.21-1.21-2.86-2.05l2.14-2.94c1.2,1.35,2.66,2.02,4.38,2.02,1.28,0,2.28-.34,2.99-1.03.71-.69,1.07-1.66,1.07-2.92v-.97c-1.11,1.26-2.58,1.89-4.39,1.89-2.17,0-3.93-.85-5.27-2.55-1.34-1.7-2.01-3.95-2.01-6.76v-.2ZM120.68,196.64c0,1.64.33,2.93.99,3.86s1.56,1.4,2.71,1.4c1.47,0,2.52-.55,3.16-1.66v-7.62c-.65-1.1-1.69-1.66-3.12-1.66-1.16,0-2.07.47-2.73,1.42-.66.95-.99,2.37-.99,4.25Z" fill="#fff"/>
      <path d="M145.2,203.62c-1.19,1.45-2.84,2.17-4.95,2.17-1.94,0-3.42-.56-4.44-1.67-1.02-1.11-1.54-2.75-1.56-4.9v-11.85h4.83v11.69c0,1.88.86,2.83,2.57,2.83s2.76-.57,3.38-1.71v-12.81h4.85v18.08h-4.54l-.13-1.84Z" fill="#fff"/>
      <path d="M161.6,200.46c0-.59-.29-1.05-.88-1.39-.58-.34-1.52-.64-2.82-.91-4.3-.9-6.45-2.73-6.45-5.48,0-1.6.67-2.94,2-4.02,1.33-1.07,3.07-1.61,5.22-1.61,2.29,0,4.13.54,5.51,1.62,1.38,1.08,2.06,2.48,2.06,4.21h-4.83c0-.69-.22-1.26-.67-1.71s-1.14-.68-2.09-.68c-.81,0-1.44.18-1.89.55-.45.37-.67.84-.67,1.4,0,.53.25.97.76,1.29.51.33,1.36.61,2.56.85,1.2.24,2.22.51,3.04.81,2.55.94,3.83,2.56,3.83,4.86,0,1.65-.71,2.98-2.12,4-1.42,1.02-3.24,1.53-5.48,1.53-1.51,0-2.86-.27-4.04-.81-1.17-.54-2.1-1.28-2.76-2.22-.67-.94-1-1.96-1-3.05h4.58c.04.86.36,1.52.95,1.97.59.46,1.38.68,2.37.68.92,0,1.62-.17,2.1-.53.47-.35.71-.81.71-1.38Z" fill="#fff"/>
      <path d="M173.48,182.93v4.44h3.09v3.54h-3.09v9.02c0,.67.13,1.15.38,1.44.26.29.75.43,1.47.43.54,0,1.01-.04,1.42-.12v3.66c-.95.29-1.92.43-2.92.43-3.39,0-5.11-1.71-5.18-5.13v-9.74h-2.64v-3.54h2.64v-4.44h4.83Z" fill="#fff"/>
      <path d="M176.29,196.25c0-1.79.34-3.39,1.04-4.79.69-1.4,1.68-2.49,2.98-3.26,1.3-.77,2.8-1.15,4.52-1.15,2.44,0,4.43.75,5.97,2.24,1.54,1.49,2.4,3.52,2.58,6.08l.03,1.24c0,2.77-.77,5-2.32,6.68-1.55,1.68-3.63,2.51-6.23,2.51s-4.69-.83-6.24-2.51-2.33-3.94-2.33-6.82v-.22ZM181.12,196.59c0,1.72.32,3.03.97,3.94.65.91,1.57,1.36,2.77,1.36s2.08-.45,2.74-1.35c.66-.9.99-2.33.99-4.31,0-1.68-.33-2.99-.99-3.92s-1.58-1.39-2.77-1.39-2.09.46-2.74,1.38c-.65.92-.97,2.35-.97,4.28Z" fill="#fff"/>
    </g>
    <g clip-path="url(#clippath)">
      <g id="L9dOtN">
        <g>
          <path d="M95.98,194.9c-.08.02-.13-.04-.12-.09.01-.1.03-.29.15-.23.04.05.12.13.09.21-.03.05-.08.09-.12.12Z" fill="#f6bd97"/>
          <g>
            <g>
              <path d="M98.84,167.8c-.03-.47,0-.94-.2-1.43-.37.51-.16,1.02-.18,1.46-.02.41-.22.83-.15,1.26-.11-.06-.14.13-.15.24,0,.05.04.1.12.09-.05.44-.13.97-.13,1.4-.11-.03-.12.12-.13.24,0,.06.02.15.11.1-.05.44-.13.96-.13,1.39-.11-.03-.12.12-.13.23,0,.04.03.11.11.09-.06.33-.12.79-.12,1.12-.13.04-.1.25-.09.36.04.34-.04.75-.04,1.08-.13-.04-.12.15-.14.24-.01.07-.03.23.1.22-.07.38-.11.89-.12,1.27-.11-.03-.12.12-.14.23,0,.04.04.11.12.09-.06.39-.12.87-.12,1.26-.11-.03-.11.13-.13.23,0,.04.02.11.11.09l-.26,2.7c-.11-.03-.12.14-.13.23,0,.05.03.12.11.1l-.26,2.69c-.11-.03-.12.14-.14.24-.01.04.03.11.11.09l-.27,2.99c-.11-.03-.12.12-.13.23,0,.04.03.11.11.09l-.27,2.85c-.11-.03-.12.12-.14.24,0,.04.04.11.12.09l-.26,2.99c-.11-.06-.13.14-.15.23,0,.05.04.1.12.09l-.26,2.85c-.11-.06-.14.13-.15.23,0,.05.04.1.12.09-.48,2.7.33,2.11.34,3.45.01,1.46-.18,2.87-.29,4.32-.05.67-.54,1.12-.91,1.54,0,2.11.22,4.11.07,6.14-.04.53-.27.87-.71,1.12-1.11.63-2.24,1.07-3.51,1.4-3.57.92-7.1,1.57-10.8,1.88-3.12.26-10.09.37-12.44-1.81-.75-.7-.71-2.04-.4-2.99,1.19-3.66,4.4-5.9,7.69-7.76-.28-1.92-.29-3.85.08-5.75.11-.57.41-.95,1.01-1.2l1.06-27.41.72-16.13c.03-.68-1.34-.31-1.2-1.6l1.52-13.52c-.08-.17-.23-.19-.19,0l-2.51,7.91-2.11,7.23c-.02.08-.01.2-.12.31,1.21,1.79,2.08,3.68,2.44,5.82.29,1.68,1.82,5.11-.06,6.55-1.43,1.09-2.96.42-4.31-.84-.07,2.28,1.31,5,.02,6.99-.77,1.19-2.31,1.34-3.45.56-.3-.21-.54-.56-.89-.68-.55-.18-1.11-.11-1.61-.42-6.63-4.09-5.86-12.94-2.8-19.09,1.17-9.17,3.15-18.14,6.45-26.9-.86-.63-1.67-1.05-2.33-1.8-.25-.29-.19-.63-.01-.99,1.64-3.32,3.48-6.47,5.58-9.53,3.03-4.41,6.43-7.58,11.71-9.01l5.44-1.47c.29-.08.22-.87.06-1.06-8.96-2.13-19.19-7.54-23.11-16.34-4.61,1.64-9.49-.13-12.28-3.98-2.04-2.81-3.15-6.13-2.67-9.61.39-2.86,1.98-5.32,4.6-6.68-2.2-5.83-3.63-11.71-2.43-18.08-1.49.2-2.52,1.9-3.51,1.46-.2-.09-.56-.29-.53-.67.45-6.65,3.64-13.69,9.68-17.24-1.9-1.83-3.99-3.15-6.37-3.97-.44-.15-.65-.63-.63-.99.02-.41.26-.76.69-.95,3.07-1.36,6.38-1.71,9.76-.73.48-4.78,2.25-8.76,6-11.72.45-.36,1.4-.28,1.5.36.14.82,0,1.63,0,2.45.02,2.14.25,4.2,1.19,6.33,4.55-5.03,10.47-8.62,16.65-11.13,4.31-1.75,8.68-2.9,13.27-3.74,4.99-.92,9.92-1.34,14.96-1.03.39.02.62.42.68.65s.06.68-.18.91c-3.01,2.82-5.5,6.15-7.24,10.1,3.22-.26,6.03-1.09,8.87-2.15,4.88-1.83,9.18-4.53,13.08-7.95.4-.35,1.39-.64,1.6.02,2.2,6.86,1.38,14.07-2.1,20.69,3.15-.43,5.82-2.16,8.14-4.13.33-.27.74-.34,1.07-.23s.55.45.6.9c.91,6.94-.49,15.29-4.84,20.95,2.47,6.56,1.62,12.29-.42,18.8,1.86.32,3.25,1.36,4.24,2.85,2.69,4.03,1.48,10.07-1.19,13.9-1.9,2.73-4.92,4.16-8.21,4.1-1.3,3.39-3.22,6.26-5.82,8.66-5.2,4.81-11.49,7.58-18.44,8.75-.31.05-.46.09-.46.37,0,.24.1.37.38.44,2.12.51,4.09,1.22,6.06,2.15,2.68,1.27,4.8,3.12,6.53,5.53,2.65,3.68,4.94,7.52,7.01,11.54.31.61.2,1.11-.29,1.52l-2.01,1.67c1.55,4.5,3.1,8.88,4.19,13.51l2.69,11.47c.63,2.69,1.46,5.15,1.56,7.97.1,2.64-.03,5.22-.95,7.71-.57,1.52-1.33,2.89-2.47,3.98s-2.36.95-3.68.43c-.61,0-1.49.54-2.27.03-.47-.31-1.09-.79-1.25-1.6l-.19-.94c-1.04-.35-1.55-1.32-1.61-2.43-.15-2.86,2.03-3.8.98-6.46-.77-1.96-.84-4.08-.15-6.07.27-.77.22-1.47-.21-2.13-.1.5.12.95-.14,1.33s-.76.47-1.18.72l.55,13.93.75,22.15.33,7.61c1.63.91,1.36,5.1,1.19,6.66,3.16,1.73,5.81,3.21,7.69,6.31.57.94.98,1.91,1.01,3.04s-.6,1.98-1.64,2.38c-2.15.83-4.39,1.08-6.72,1.1-2.88.02-5.62-.09-8.46-.52s-8.22-1.22-10.58-2.64c-.51-.31-.81-.69-.86-1.3-.18-2-.12-4.14-.02-6.12-.59-.48-.95-1.01-1.02-1.77-.11-1.2-.47-4.75.42-5.53l-.99-16.19-1.14-15.95ZM86.29,42.57l8.51,2.22c3.72.97,7.21,2.25,10.58,4.28-.2-2.52-.97-4.76-1.98-6.96-.41-.89-1.3-2.19-.69-2.7.17-.14.46-.19.75-.09,5.07,1.83,9.48,4.86,12.97,9.09.68-2.6.63-5.14.1-7.62-.07-.33-.04-.6.21-.78.19-.14.51-.24.8-.08,5.48,2.96,10.65,7.44,12.83,13.44.55,1.5.72,2.99.73,4.6l.08,9.06,1.93-.94c2.37-6.17,3.23-12.75.75-19.04-.13-.34-.05-.65.16-.93,3.91-5.27,5.4-12.05,4.81-18.62-3,2.33-6.38,3.71-10.01,4.04-.36.03-.72-.09-.84-.3-.12-.2-.21-.61-.04-.88,3.77-5.72,5.2-12.72,3.61-19.61-6.59,5.47-15.48,9.64-24.01,9.91-.25-.07-.46-.11-.57-.24-.14-.15-.15-.36-.13-.6,1.4-4.03,3.91-7.69,6.8-10.99-7.05-.31-15.69,1.35-22.26,3.57-5.83,1.97-11.18,4.85-15.87,8.79-1.45,1.22-2.7,2.47-3.83,3.95-.21.27-.61.3-.92.27-.28-.03-.48-.27-.67-.58-1.49-2.48-1.96-5.24-2-8.25-2.72,2.69-3.99,6.89-3.94,10.55,0,.49-.75.53-1.12.42-2.53-.75-5.14-1.13-7.85-.27,2.35,1.33,4.44,2.82,6.15,4.82.21.25.03.63-.08.81-.15.23-.47.17-.75.33-5.21,3.01-8.2,8.24-9.2,14.23.91-.38,3.45-1.56,4.01-1.03.13.13.29.44.21.72-1.91,6.44-.54,13.14,2.11,19.31,2.61-.38,5.08.51,6.92,2.36.73.74,1.21,1.6,1.84,2.47l.57-8.61c.72-1.4,1.81-2.7,2.64-4.08,2.97-4.92,2.22-8.96.77-14.32-.1-.38,0-.75.32-.9.24-.11.49-.07.78.12,2.58,1.69,5.43,2.88,8.64,3.38-1.79-2.2-2.86-4.59-3.48-7.25-.05-.22.04-.45.15-.53.09-.06.36-.24.52-.15,2.84,1.57,5.76,2.77,8.99,3.61ZM121.07,95.43c6.59-5.06,9.34-12.41,8.92-20.62l-.28-5.47-.04-9.64-.18-3.62c-1.05-5.95-6.01-10.81-11.09-13.71.22,2.88.11,5.38-.98,7.8-.09.33-.27.59-.53.64-.28.06-.61.04-.83-.26-2.77-3.79-6.51-6.88-10.97-8.78,1.15,3.13,1.96,5.89,1.9,8.93-.01.31-.09.67-.3.74-.24.08-.57.09-.79-.07-3.72-2.63-7.46-3.99-11.88-5.14l-9.1-2.41c-2.12-.56-4.02-1.37-6.11-2.32.74,2.34,2.16,4.16,3.76,5.84.29.3.39.63.24,1.01-.12.29-.51.49-.95.43-3.31-.43-6.46-1.27-9.51-2.82,1.03,4.62,1.2,8.4-1.1,12.5-.92,1.59-1.87,3.03-2.92,4.55l-.61,11.37c-.02.45-.24.77-.63.84-.33.06-.62-.19-.78-.53l-1.55-3.2c-1.31-2.7-4.34-4.22-7.31-3.38-2.28.65-3.85,2.57-4.37,4.88-1,4.4,1.46,9.58,5.31,11.75,4.67,2.63,8.22-.28,8.62-.02.45.29,1.65,5.19,7.14,9.51s11.48,6.72,18.08,7.83c10.14,1.7,20.63-.32,28.83-6.62ZM134.07,72.17c-.96.82-2.22,1.94-2.27,3.36-.11,3.1-.14,6.12-1.2,9.07,3.89.11,6.42-2.78,7.7-6.1.93-2.41,1.17-4.98.39-7.45-.5-1.58-1.55-2.97-3.15-3.49s-3.2.18-4.26,1.31l.34,4.08c.65-.61,1.13-1.23,1.88-1.68.99-.59,2.27-.58,3.07.26.14.15.07.44,0,.54-.31.51-.99-.7-2.5.1ZM104.02,107.93c.32-1.71-.58-1.16-.42-3.89-4.17.52-8.31.29-12.47-.42,0,.94-.08,1.79-.23,2.77,2.08,3,5.49,4.71,9.13,4.74,2.03.02,3.61-1.17,4-3.21ZM98.75,155.35c5.16,0,10.19-.39,15.22-1.5,1.29-.29,2.48-.57,3.78-1.09l-3.28-25.94-.91-6.36c-.05-.37.23-.67.52-.68.27-.02.42.21.59.5l1.66,8.67c2.58-1.22,4.94-2.73,7.16-4.58-2-3.78-4.12-7.29-6.57-10.68-2.63-3.94-6.55-5.81-11.23-7.04.16,3.07-1.75,5.67-4.85,5.97-4.7.46-9.33-2.09-11.64-6.23l-5.27,1.42c-5.88,1.58-9.34,6.21-12.33,11.16-1.16,1.92-2.2,3.8-3.26,5.82,1.62,1.21,3.33,2.1,5.13,2.99,2.36,1.16,4.7,2.2,7.28,2.94.88-2.82,1.72-5.48,2.89-8.09.13-.29.41-.49.62-.38.15.07.38.47.3.72l-2.84,9.27c-.1.32-.8.13-1.08.26l-2.36,20.38c6.16,1.86,14.02,2.48,20.48,2.49ZM69.64,170.78l-.44-3.4c-.14-1.11.05-4.92.96-5.03,1.11-.14,1.23,2.27,2.81,3.63.29.25,1.02.56,1.26.12.31-.56.18-1.38.02-2l-1.1-4.4c-.58-2.31-2.17-3.44-1.89-4.82.48-2.34,1.1-4.52,1.83-6.81,1.66-5.49,3.45-10.8,5.51-16.29-2.97-1.06-5.62-2.29-8.3-3.64-3.12,8.79-5.05,17.58-6.23,26.63-1.98,3.88-3.14,9.19-1.26,13.25.2-.59-.24-3.77.41-3.7.44.05.08,6.16,2.86,7.27-.52-2.01-.95-3.84-.65-5.8.06-.38.05-.83.43-1.03.4.65.4,1.33.49,2.02.25,1.88.64,3.67,1.6,5.3.27.46.99,1.11,1.47.68.45-.4.29-1.35.21-1.98ZM126.14,158.52c.74.07-.24,2.48-.04,3.25,1.06,4.09-.77,5.55-.93,8.05-.03.39.12.75.4.93.81.5,1.89-.93,2.29-1.61,2.76-4.68,1.93-11.43.24-16.44-1.46-7.51-3.4-14.81-5.81-22.06l-.83-2.49-4.76,2.54,1.58,11.08c.14.99.13,1.97.46,2.9l2.88,8.02c.27.76.34,1.29.05,2.09-.62,1.71-.67,3.54-.05,5.25.42,1.15.49,2.26.57,3.49.05.78.8,1.6,1.59,1.27,1.5-.63,1.06-3.45,1.58-5.41.08-.29.4-.88.77-.85ZM100.51,165.81l1.19,16.74,1.11,17.22c5.15.74,10.27.18,15.32-1.19l-.29-7.49-1.02-29.05-.3-6.96c-4.59,1.28-9.03,1.83-13.63,2.02-7.62.32-16.02-.17-23.43-2l-.29,4.84-.83,19.65-.72,19c5.23,1.35,10.61,1.9,16.11,1.19l.99-11.66,2.09-22.61c.04-.45.21-.87.69-.93,2.26-.29,4.43-.83,6.68-1.24.33-.06.73.13.76.39.11.99-3.59,1.8-4.43,2.09ZM121.1,167.84c.3-.78.78-1.35,1.31-2.03-.34-.35-.61-.67-1.02-.89-.33.51-1.01,2.62-.29,2.92ZM123.17,170.71c.97.07.33-.93,1.41-3.38.31-.7.62-1.34.6-2.15-.46.67-1.04.71-1.61,1-.49.25-.62,1.07-.87,1.55-.58,1.11-.45,2.92.46,2.98ZM102.42,205.65c5.32,1.09,12.02.53,17.01-1.14.09-1.52.13-2.94-.1-4.43l-4.8,1.07c-3.72.83-7.48.85-11.26.44-.4-.04-.72-.11-1.1.07.06,1.35-.11,2.65.24,3.99ZM94.24,201.66c-.06-.14-.56-.15-.76-.13-3.79.53-8.11.37-12.06-.4-1.68-.33-3.23-.75-4.92-.95-.19,1.52-.22,2.88-.05,4.3,5.27,1.66,12.17,2.33,17.45,1.2.15-1.42.38-2.66.34-4.02ZM125.19,215.67c.96-.18,2.04-.35,2.72-.98.42-.4,0-1.31-.2-1.76-1.44-3.1-5.1-5.28-8.1-6.7-4.87,1.77-11.26,2.06-16.33,1.33l.09,5.52c1.3.66,2.55.91,3.88,1.3,5.33,1.12,12.5,2.3,17.93,1.28ZM88.9,214.56c1.53-.39,2.85-.74,4.2-1.44v-5.51c-5.17.7-11.22.29-16.29-1.23-2.97,1.43-6.92,3.93-8.04,7.23-.13.37-.2.77-.05,1.1.12.25.48.49.83.62,5.09,1.85,13.94.58,19.35-.78Z" fill="#070606"/>
              <path d="M96.27,191.59c-.08.02-.12-.04-.12-.09.02-.12.03-.26.14-.24.04.05.13.13.1.21-.02.06-.09.09-.12.12Z" fill="#f6bd97"/>
              <path d="M95.69,198.07c-.08.02-.12-.04-.12-.09.01-.11.04-.29.15-.23.04.05.12.13.09.2-.03.05-.09.09-.12.12Z" fill="#f6bd97"/>
              <g>
                <path d="M98.75,155.35c-6.46,0-14.33-.63-20.48-2.49l2.36-20.38c.28-.13.98.06,1.08-.26l2.84-9.27c.08-.25-.16-.64-.3-.72-.22-.11-.49.09-.62.38-1.17,2.61-2.01,5.28-2.89,8.09-2.58-.74-4.91-1.78-7.28-2.94-1.8-.89-3.5-1.77-5.13-2.99,1.06-2.02,2.11-3.9,3.26-5.82,2.99-4.95,6.45-9.57,12.33-11.16l5.27-1.42c2.31,4.14,6.95,6.69,11.64,6.23,3.1-.3,5.01-2.9,4.85-5.97,4.68,1.23,8.61,3.1,11.23,7.04,2.45,3.39,4.56,6.9,6.57,10.68-2.23,1.85-4.58,3.36-7.16,4.58l-1.66-8.67c-.17-.29-.32-.52-.59-.5-.29.02-.57.31-.52.68l.91,6.36,3.28,25.94c-1.29.52-2.48.81-3.78,1.09-5.03,1.12-10.05,1.51-15.22,1.5Z" fill="#d92e30"/>
                <path d="M69.64,170.78c.08.63.25,1.58-.21,1.98-.48.43-1.2-.22-1.47-.68-.96-1.63-1.35-3.42-1.6-5.3-.09-.69-.1-1.37-.49-2.02-.37.2-.37.64-.43,1.03-.3,1.96.13,3.8.65,5.8-2.77-1.12-2.42-7.23-2.86-7.27-.65-.07-.21,3.11-.41,3.7-1.88-4.07-.72-9.37,1.26-13.25,1.18-9.05,3.11-17.84,6.23-26.63,2.68,1.35,5.33,2.58,8.3,3.64-2.06,5.49-3.86,10.8-5.51,16.29-.73,2.3-1.35,4.48-1.83,6.81-.28,1.38,1.31,2.51,1.89,4.82l1.1,4.4c.15.62.28,1.44-.02,2-.24.43-.97.12-1.26-.12-1.58-1.36-1.7-3.77-2.81-3.63-.92.11-1.11,3.92-.96,5.03l.44,3.4Z" fill="#f6bd97"/>
                <path d="M126.14,158.52c-.36-.03-.69.56-.77.85-.52,1.97-.08,4.78-1.58,5.41-.78.33-1.54-.49-1.59-1.27-.08-1.23-.15-2.33-.57-3.49-.62-1.71-.57-3.54.05-5.25.29-.8.22-1.33-.05-2.09l-2.88-8.02c-.33-.93-.32-1.91-.46-2.9l-1.58-11.08,4.76-2.54.83,2.49c2.41,7.25,4.35,14.55,5.81,22.06,1.69,5,2.51,11.76-.24,16.44-.4.68-1.48,2.11-2.29,1.61-.28-.17-.43-.53-.4-.93.16-2.5,1.99-3.96.93-8.05-.2-.77.78-3.19.04-3.25Z" fill="#f6bd97"/>
                <path d="M104.02,107.93c-.38,2.03-1.97,3.22-4,3.21-3.63-.03-7.05-1.74-9.13-4.74.15-.98.22-1.83.23-2.77,4.16.71,8.3.94,12.47.42-.16,2.73.74,2.17.42,3.89Z" fill="#f6bd97"/>
                <path d="M123.17,170.71c-.91-.07-1.05-1.88-.46-2.98.25-.47.38-1.3.87-1.55.56-.29,1.15-.33,1.61-1,.02.81-.29,1.45-.6,2.15-1.08,2.45-.44,3.45-1.41,3.38Z" fill="#f6bd97"/>
                <path d="M121.1,167.84c-.71-.3-.04-2.41.29-2.92.41.22.68.54,1.02.89-.53.67-1,1.24-1.31,2.03Z" fill="#f6bd97"/>
              </g>
              <g>
                <path d="M98.84,167.8c-.13,0-.25,0-.38.03.02-.44-.19-.95.18-1.46.2.49.16.97.2,1.43Z" fill="#f6bd97"/>
                <path d="M97.7,175.89c-.13,0-.12-.15-.1-.22.02-.09.01-.28.14-.24.03.07.14.15.14.25,0,.11-.13.16-.18.22Z" fill="#f6bd97"/>
                <path d="M98,172.87c-.08.02-.12-.04-.11-.09.02-.11.02-.26.13-.23.03.06.14.12.1.2-.03.06-.1.08-.12.12Z" fill="#f6bd97"/>
                <path d="M97.78,174.35c-.01-.11-.04-.32.09-.36.03.07.18.14.14.23-.04.1-.13.22-.23.13Z" fill="#f6bd97"/>
                <path d="M97.57,177.48c-.08.02-.12-.04-.12-.09.02-.11.02-.26.14-.23.03.06.14.12.1.2-.03.05-.1.08-.12.12Z" fill="#f6bd97"/>
                <path d="M97.41,179.06c-.08.02-.11-.05-.11-.09.02-.11.03-.26.13-.23.03.06.15.12.11.2-.03.06-.1.09-.13.12Z" fill="#f6bd97"/>
                <path d="M97.13,182.09c-.08.02-.12-.04-.11-.1.01-.08.02-.26.13-.23.04.05.14.13.1.21-.03.06-.09.09-.12.12Z" fill="#f6bd97"/>
                <path d="M96.84,185.11c-.08.02-.12-.04-.11-.09.02-.11.03-.27.14-.24.04.06.13.13.09.21-.02.05-.09.09-.12.12Z" fill="#f6bd97"/>
                <path d="M96.56,188.42c-.08.02-.12-.04-.11-.09.02-.11.02-.27.13-.23.04.05.14.13.1.2-.02.06-.09.09-.12.12Z" fill="#f6bd97"/>
                <path d="M98.29,169.42c-.08.01-.13-.04-.12-.09.01-.1.03-.29.15-.24.01.06.14.12.09.21-.03.05-.09.09-.12.12Z" fill="#f6bd97"/>
                <path d="M98.15,171.16c-.09.05-.12-.04-.11-.1,0-.11.01-.26.13-.24.03.06.14.13.1.21-.03.06-.09.09-.11.13Z" fill="#f6bd97"/>
                <path d="M100.51,165.81c.84-.3,4.54-1.1,4.43-2.09-.03-.25-.42-.45-.76-.39-2.25.42-4.41.96-6.68,1.24-.47.06-.64.48-.69.93l-2.09,22.61-.99,11.66c-5.5.71-10.88.16-16.11-1.19l.72-19,.83-19.65.29-4.84c7.41,1.83,15.81,2.33,23.43,2,4.6-.19,9.04-.74,13.63-2.02l.3,6.96,1.02,29.05.29,7.49c-5.06,1.37-10.17,1.93-15.32,1.19l-1.11-17.22-1.19-16.74Z" fill="#036dab"/>
                <path d="M88.9,214.56c-5.4,1.36-14.26,2.63-19.35.78-.36-.13-.71-.37-.83-.62-.16-.33-.08-.72.05-1.1,1.12-3.3,5.07-5.8,8.04-7.23,5.08,1.51,11.13,1.93,16.3,1.23v5.51c-1.35.7-2.68,1.05-4.2,1.44Z" fill="#653921"/>
                <path d="M125.19,215.67c-5.43,1.02-12.6-.16-17.93-1.28-1.33-.39-2.58-.65-3.88-1.3l-.09-5.52c5.07.73,11.46.43,16.33-1.33,3,1.42,6.66,3.6,8.1,6.7.21.44.62,1.36.2,1.76-.68.63-1.76.8-2.72.98Z" fill="#653921"/>
                <path d="M94.24,201.66c.04,1.37-.19,2.6-.34,4.02-5.28,1.14-12.18.46-17.45-1.2-.17-1.42-.14-2.78.05-4.3,1.69.2,3.23.62,4.92.95,3.96.77,8.27.93,12.06.4.2-.03.7-.01.76.13Z" fill="#036dab"/>
                <path d="M102.42,205.65c-.36-1.34-.19-2.64-.24-3.99.38-.18.7-.11,1.1-.07,3.78.41,7.54.4,11.26-.44l4.8-1.07c.23,1.49.19,2.91.1,4.43-4.99,1.67-11.69,2.23-17.01,1.14Z" fill="#036dab"/>
              </g>
            </g>
            <g>
              <path d="M86.29,42.57c-3.22-.84-6.14-2.04-8.99-3.61-.16-.09-.43.09-.52.15-.11.08-.2.31-.15.53.61,2.66,1.69,5.05,3.48,7.25-3.21-.5-6.07-1.68-8.64-3.38-.29-.19-.53-.24-.78-.12-.31.15-.42.52-.32.9,1.45,5.36,2.2,9.39-.77,14.32-.83,1.38-1.92,2.68-2.64,4.08l-.57,8.61c-.63-.88-1.11-1.74-1.84-2.47-1.84-1.85-4.31-2.74-6.92-2.36-2.66-6.17-4.02-12.86-2.11-19.31.08-.28-.07-.59-.21-.72-.56-.53-3.09.66-4.01,1.03,1.01-5.99,3.99-11.22,9.2-14.23.28-.16.6-.11.75-.33.11-.17.29-.56.08-.81-1.71-2.01-3.8-3.5-6.15-4.82,2.71-.85,5.32-.47,7.85.27.36.11,1.12.06,1.12-.42-.05-3.66,1.22-7.86,3.94-10.55.05,3.01.51,5.78,2,8.25.19.31.4.55.67.58.31.03.71,0,.92-.27,1.14-1.48,2.38-2.73,3.83-3.95,4.69-3.95,10.03-6.82,15.87-8.79,6.57-2.22,15.21-3.87,22.26-3.57-2.89,3.3-5.39,6.96-6.8,10.99-.02.24,0,.45.13.6.11.12.32.17.57.24,8.54-.27,17.42-4.44,24.01-9.91,1.59,6.9.15,13.9-3.61,19.61-.17.26-.08.68.04.88.13.21.49.33.84.3,3.63-.33,7.01-1.71,10.01-4.04.59,6.57-.9,13.36-4.81,18.62-.22.28-.29.59-.16.93,2.48,6.29,1.62,12.87-.75,19.04l-1.93.94-.08-9.06c-.01-1.61-.19-3.1-.73-4.6-2.19-5.99-7.35-10.48-12.83-13.44-.3-.16-.61-.06-.8.08-.24.18-.28.44-.21.78.53,2.48.58,5.02-.1,7.62-3.49-4.23-7.9-7.26-12.97-9.09-.28-.1-.58-.06-.75.09-.61.51.28,1.81.69,2.7,1.01,2.2,1.78,4.45,1.98,6.96-3.37-2.04-6.86-3.31-10.58-4.28l-8.51-2.22Z" fill="#653921"/>
              <g>
                <path d="M121.07,95.43c-8.21,6.3-18.69,8.32-28.83,6.62-6.6-1.11-12.83-3.7-18.08-7.83s-6.69-9.22-7.14-9.51c-.39-.26-3.95,2.65-8.62.02-3.85-2.17-6.31-7.35-5.31-11.75.52-2.3,2.09-4.23,4.37-4.88,2.96-.84,5.99.68,7.31,3.38l1.55,3.2c.16.34.45.59.78.53.39-.07.61-.39.63-.84l.61-11.37c1.04-1.53,2-2.96,2.92-4.55,2.3-4.1,2.13-7.89,1.1-12.5,3.05,1.55,6.2,2.39,9.51,2.82.44.06.84-.14.95-.43.15-.38.05-.71-.24-1.01-1.61-1.67-3.03-3.5-3.76-5.84,2.08.95,3.99,1.76,6.11,2.32l9.1,2.41c4.41,1.15,8.15,2.51,11.88,5.14.23.16.55.14.79.07.21-.07.29-.42.3-.74.07-3.04-.74-5.8-1.9-8.93,4.45,1.9,8.19,4.99,10.97,8.78.22.3.55.32.83.26.26-.05.44-.32.53-.64,1.09-2.41,1.2-4.92.98-7.8,5.08,2.9,10.03,7.76,11.09,13.71l.18,3.62.04,9.64.28,5.47c.42,8.21-2.33,15.56-8.92,20.62ZM88.5,55.35c.81.13,1.46-.4,1.58-1.07.44-2.37-4.04-2.12-5.62-1.8-2.79.57-5.3,2.02-7.19,4.13-.3.34-.18.89.07,1.18,1.21,1.39,4.01-3.55,11.16-2.43ZM124.34,57.71c.16-.28.23-.8-.07-1.14-2.62-2.94-7.02-5.07-11.05-3.9-.66.19-.96.75-.97,1.4,0,.7.53,1.39,1.34,1.28,7.08-.94,9.74,4.12,10.75,2.35ZM127.15,70.77c0-5.91-4.79-10.7-10.7-10.7s-10.7,4.79-10.7,10.7,4.79,10.7,10.7,10.7,10.7-4.79,10.7-10.7ZM96.52,70.92c0-5.95-4.82-10.77-10.77-10.77s-10.77,4.82-10.77,10.77,4.82,10.77,10.77,10.77,10.77-4.82,10.77-10.77ZM61.98,81.58c-.15-.37-.38-.5-.6-.66-.89-.65-1.22-1.79-.67-2.81.43-.81,1.71-1.19,2.39-.52.33.33.46,1.66.85,1.59.08-.01.29-.11.29-.27.2-4.64-4-8.5-7.06-7.19-1.05.45-1.76,1.67-1.05,2.79.49-1.48,1.7-2.18,3.02-1.75,1,.33,1.82.88,2.44,1.76.35.5.8.92.93,1.64-1.56-.09-2.75.81-3.08,2.25-.22.97.04,1.99.67,2.76.46.57,1.25.81,1.87.4ZM102.97,78.14c-.02.08-.1.12-.09.18.04.36,1.69.39,2.59,1.13.99.8.79,2.29-.19,3.05-.82.64-1.79.88-2.78.95-.57.04-1.12-.18-1.75,0,.64.46,1.32.7,2.03.73,1.13.06,2.24-.27,3.13-1.05,1.3-1.14,1.49-3.12.23-4.34-.81-.78-1.93-.9-2.96-.82-.11-.66,0-1.34-.26-2.07-.96.45.18,1.75.05,2.23ZM109.15,89.92c-.23-.39-1.49.03-2.06.18-4.21,1.11-8.59.99-12.67-.55-1.11-.42-2.14-.88-2.94-1.66.31-.27.46-.45.51-.63.45-1.77-3.57.68-3.2,1.66.08.21.32.33.59.32.4-.01.64-.28.99-.46,4.47,3.43,11.24,4.06,16.5,2.63.52-.14,2.71-.76,2.29-1.49Z" fill="#f6bd97"/>
                <path d="M134.07,72.17c1.51-.8,2.19.41,2.5-.1.06-.1.13-.4,0-.54-.8-.84-2.08-.85-3.07-.26-.75.45-1.24,1.07-1.88,1.68l-.34-4.08c1.06-1.13,2.72-1.81,4.26-1.31s2.65,1.91,3.15,3.49c.78,2.47.54,5.04-.39,7.45-1.28,3.31-3.81,6.21-7.7,6.1,1.07-2.95,1.1-5.96,1.2-9.07.05-1.42,1.31-2.53,2.27-3.36Z" fill="#f6bd97"/>
                <path d="M127.15,70.77c0,5.91-4.79,10.7-10.7,10.7s-10.7-4.79-10.7-10.7,4.79-10.7,10.7-10.7,10.7,4.79,10.7,10.7ZM125.92,70.76c0-5.25-4.26-9.51-9.51-9.51s-9.51,4.26-9.51,9.51,4.26,9.51,9.51,9.51,9.51-4.26,9.51-9.51Z" fill="#070606"/>
                <path d="M96.52,70.92c0,5.95-4.82,10.77-10.77,10.77s-10.77-4.82-10.77-10.77,4.82-10.77,10.77-10.77,10.77,4.82,10.77,10.77ZM95.38,70.91c0-5.3-4.3-9.6-9.61-9.6s-9.61,4.3-9.61,9.6,4.3,9.6,9.61,9.6,9.61-4.3,9.61-9.6Z" fill="#070606"/>
                <path d="M88.5,55.35c-7.14-1.12-9.94,3.83-11.16,2.43-.25-.28-.38-.84-.07-1.18,1.89-2.1,4.4-3.55,7.19-4.13,1.57-.32,6.05-.57,5.62,1.8-.12.67-.77,1.19-1.58,1.07Z" fill="#070606"/>
                <path d="M124.34,57.71c-1.01,1.77-3.67-3.29-10.75-2.35-.81.11-1.35-.58-1.34-1.28,0-.65.31-1.21.97-1.4,4.03-1.17,8.43.95,11.05,3.9.3.34.23.85.07,1.14Z" fill="#070606"/>
                <path d="M109.15,89.92c.42.72-1.77,1.35-2.29,1.49-5.27,1.42-12.04.8-16.5-2.63-.34.19-.58.45-.99.46-.27.01-.51-.11-.59-.32-.37-.98,3.66-3.42,3.2-1.66-.05.19-.2.36-.51.63.8.78,1.84,1.24,2.94,1.66,4.08,1.54,8.46,1.66,12.67.55.57-.15,1.83-.56,2.06-.18Z" fill="#070606"/>
                <path d="M61.98,81.58c-.62.4-1.41.16-1.87-.4-.62-.77-.89-1.79-.67-2.76.33-1.43,1.52-2.34,3.08-2.25-.13-.72-.58-1.14-.93-1.64-.62-.88-1.44-1.43-2.44-1.76-1.32-.44-2.54.27-3.02,1.75-.71-1.12,0-2.34,1.05-2.79,3.06-1.31,7.26,2.55,7.06,7.19,0,.16-.21.25-.29.27-.39.06-.52-1.26-.85-1.59-.68-.68-1.95-.29-2.39.52-.55,1.02-.21,2.16.67,2.81.22.16.45.29.6.66Z" fill="#070606"/>
                <path d="M102.78,84.18c-.15-.22-.26-.47-.27-.74.99-.06,1.96-.3,2.78-.95.98-.76,1.18-2.25.19-3.05-.9-.73-2.54-.76-2.59-1.13,0-.06.07-.1.09-.18l.21-.17c1.03-.08,2.15.04,2.96.82,1.26,1.21,1.07,3.2-.23,4.34-.89.78-2.01,1.11-3.13,1.05Z" fill="#070606"/>
                <path d="M103.18,77.97l-.21.17c.13-.48-1.01-1.78-.05-2.23.26.72.15,1.41.26,2.07Z" fill="#653921"/>
                <path d="M102.5,83.44c.01.27.13.51.27.74-.71-.04-1.39-.28-2.03-.73.63-.19,1.19.03,1.75,0Z" fill="#653921"/>
                <path d="M125.92,70.76c0,5.25-4.26,9.51-9.51,9.51s-9.51-4.26-9.51-9.51,4.26-9.51,9.51-9.51,9.51,4.26,9.51,9.51ZM118.29,71.02c0-2.34-1.89-4.23-4.23-4.23s-4.23,1.89-4.23,4.23,1.89,4.23,4.23,4.23,4.23-1.89,4.23-4.23Z" fill="#fefefe"/>
                <path d="M95.38,70.91c0,5.3-4.3,9.6-9.61,9.6s-9.61-4.3-9.61-9.6,4.3-9.6,9.61-9.6,9.61,4.3,9.61,9.6ZM91.28,71.02c0-2.34-1.9-4.23-4.23-4.23s-4.23,1.89-4.23,4.23,1.9,4.23,4.23,4.23,4.23-1.89,4.23-4.23Z" fill="#fefefe"/>
                <circle cx="114.06" cy="71.02" r="4.23" fill="#070606"/>
                <circle cx="87.05" cy="71.02" r="4.23" fill="#070606"/>
              </g>
            </g>
          </g>
        </g>
      </g>
    </g>
    <path d="M97.27,165.47c-45.62,0-82.73-37.11-82.73-82.73S51.65,0,97.27,0s82.74,37.11,82.74,82.73-37.11,82.73-82.74,82.73ZM97.27,2.83C53.21,2.83,17.37,38.68,17.37,82.73s35.84,79.9,79.9,79.9,79.9-35.84,79.9-79.9S141.33,2.83,97.27,2.83Z" fill="#fff"/>
  </g>
</svg>