<?xml version="1.0" encoding="UTF-8"?>
<svg id="Layer_2" data-name="Layer 2" xmlns="http://www.w3.org/2000/svg" viewBox="0 0 151.55 119.9">
  <g id="Layer_1-2" data-name="Layer 1">
    <g>
      <ellipse cx="75.77" cy="59.95" rx="75.77" ry="59.95" fill="#2e4963"/>
      <ellipse cx="75.77" cy="59.95" rx="71.01" ry="56.18" fill="#476ea8"/>
      <ellipse cx="75.77" cy="56.13" rx="71.01" ry="47.69" fill="#699ccb"/>
      <ellipse cx="75.77" cy="47.63" rx="62.41" ry="47.63" fill="#2e4963"/>
      <ellipse cx="75.47" cy="46.95" rx="58.75" ry="45.14" fill="#e4902c"/>
      <ellipse cx="75.47" cy="40.38" rx="56.48" ry="38.58" fill="#f9d345"/>
      <ellipse cx="75.47" cy="37.6" rx="54.72" ry="35.8" fill="#f0bc37"/>
      <ellipse cx="43.64" cy="19.35" rx="10.6" ry="6.11" transform="translate(-4.09 18.76) rotate(-23.2)" fill="#fbe89b"/>
      <g>
        <path d="M65.22,56.77c-.85,0-1.65-.33-2.24-.92l-.05-.05-.04-.05c-.51-.61-.78-1.33-.78-2.09v-.05c.37-10.26,3.88-15.35,8.09-20.49,6.45-7.81,6.32-10.82,6.16-11.51-.98.12-1.47.68-2.56,2.05-.45.56-.95,1.2-1.59,1.88-.55.59-1.31.9-2.18.9-2.36,0-5.15-2.37-6.08-4.49-.64-1.46-.47-2.87.45-3.86,2.59-2.85,7.14-3.94,10.24-4,7.38,0,11.93,3.09,12.52,8.47.38,3.87.22,8.26-6.19,15.66-.76.88-1.5,1.67-2.15,2.37-2.59,2.79-4.16,4.48-4.48,7.89h1.61c2.02-.19,3.21-1.43,4.16-2.42.75-.78,1.45-1.52,2.48-1.52.9,0,1.69.32,2.29.92,1.28,1.28,1.27,3.44,1.27,4.47v4.24c0,.68-.28,1.37-.75,1.85-.47.47-1.16.75-1.85.75h-18.35Z" fill="#f8f9f9"/>
        <path d="M74.67,15.51c1.74,0,10.3,0,11.09,7.2.39,4-.06,7.88-5.85,14.58-4.11,4.73-7.04,6.53-7.04,12.61h3.15c4.05-.34,5.4-3.94,6.59-3.94,2.25,0,2.14,3.1,2.14,4.11v4.11c0,.28-.11.62-.34.84-.23.23-.56.34-.84.34h-18.35c-.45,0-.9-.17-1.24-.51-.28-.34-.45-.73-.45-1.18.34-9.51,3.43-14.35,7.77-19.64,8.78-10.64,6.59-13.85,5.4-13.85-2.7.06-3.32,2.08-5.52,4.39-.3.32-.7.46-1.15.46-2.43,0-6.39-4.03-4.59-5.97,2.2-2.42,6.3-3.49,9.23-3.55M74.67,12.67h-.05c-3.38.07-8.36,1.27-11.27,4.47-1.29,1.41-1.55,3.41-.7,5.38,1.13,2.58,4.36,5.34,7.37,5.34,1.25,0,2.39-.48,3.21-1.34-.88,1.47-2.18,3.35-4.13,5.7-4.22,5.15-8.03,10.66-8.41,21.35v.05s0,.05,0,.05c0,1.09.38,2.13,1.11,3l.08.1.09.09c.86.86,2.01,1.34,3.24,1.34h18.35c1.07,0,2.1-.43,2.85-1.17.74-.74,1.17-1.78,1.17-2.85v-4.24c0-1.13.02-3.78-1.68-5.48-.87-.87-2.01-1.34-3.29-1.34-1.63,0-2.67,1.08-3.51,1.95-.87.91-1.69,1.77-3.06,1.97.55-1.97,1.8-3.31,3.83-5.5.66-.71,1.4-1.51,2.18-2.4,6.12-7.07,7.04-11.63,6.53-16.71v-.02s0-.02,0-.02c-.45-4.08-2.94-7.16-7.03-8.66-2.93-1.07-5.9-1.07-6.88-1.07h0Z" fill="#2e4963"/>
      </g>
    </g>
  </g>
</svg>