<?xml version="1.0" encoding="UTF-8"?>
<svg id="Layer_2" data-name="Layer 2" xmlns="http://www.w3.org/2000/svg" viewBox="0 0 113.65 89.92">
  <g id="Layer_1-2" data-name="Layer 1">
    <g>
      <g>
        <ellipse cx="56.83" cy="44.96" rx="56.83" ry="44.96" fill="#2e4963"/>
        <ellipse cx="56.83" cy="44.96" rx="53.26" ry="42.14" fill="#476ea8"/>
        <ellipse cx="56.83" cy="42.1" rx="53.26" ry="35.77" fill="#699ccb"/>
        <ellipse cx="56.83" cy="35.72" rx="46.8" ry="35.72" fill="#2e4963"/>
        <ellipse cx="56.6" cy="35.21" rx="44.06" ry="33.86" fill="#a52121"/>
        <ellipse cx="56.6" cy="30.28" rx="42.36" ry="28.93" fill="#f8b5ab"/>
        <ellipse cx="56.6" cy="28.2" rx="41.04" ry="26.84" fill="#e53030"/>
        <ellipse cx="32.73" cy="14.51" rx="7.95" ry="4.58" transform="translate(-3.07 14.07) rotate(-23.2)" fill="#f8b5ab"/>
      </g>
      <g>
        <path d="M54.73,43.47c-1.72,0-2.88-1.05-2.88-2.62,0-.82.5-1.26.84-1.55.4-.35.85-.74.85-2.46v-3.2h-7.93c-.51,0-1.03-.21-1.38-.56-.37-.37-.56-.85-.56-1.38v-2.07c0-.46.12-.84.38-1.19,1.22-1.65,8.06-10.69,10.53-13.79,1.45-1.83,3.5-2.76,6.11-2.76,1.69,0,2.88,1.1,2.88,2.67,0,.8-.5,1.24-.83,1.52-.4.35-.86.75-.86,2.49v9.7h.12c.89,0,1.61.7,1.61,1.57v2.24c0,.86-.72,1.57-1.61,1.57h-.12v3.2c0,1.72.45,2.11.85,2.46.33.29.84.73.84,1.55,0,1.54-1.18,2.62-2.88,2.62h-5.95ZM53.54,28.26v-3.96l-2.93,3.96h2.93Z" fill="#f8f9f9"/>
        <path d="M60.68,12.94c1.1,0,1.82.63,1.82,1.6s-1.69.63-1.69,4.01v10.22c0,.3.25.55.51.55h.68c.3,0,.55.21.55.51v2.24c0,.3-.25.51-.55.51h-.68c-.25,0-.51.25-.51.55v3.71c0,3.38,1.69,3.04,1.69,4.01s-.72,1.56-1.82,1.56h-5.95c-1.14,0-1.82-.59-1.82-1.56s1.69-.63,1.69-4.01v-3.55c0-.38-.34-.72-.72-.72h-8.27c-.21,0-.46-.08-.63-.25-.17-.17-.25-.38-.25-.63v-2.07c0-.21.04-.38.17-.55,1.18-1.6,8.02-10.64,10.51-13.76,1.44-1.82,3.33-2.36,5.28-2.36M49.24,29.32h4.56c.42,0,.8-.38.8-.84v-6.54c0-.13-.08-.21-.17-.25-.03-.01-.07-.02-.1-.02-.09,0-.17.04-.24.1l-5.15,6.96c-.04.13-.08.25,0,.38.04.13.17.21.3.21M60.68,10.82c-2.94,0-5.28,1.07-6.94,3.17-2.47,3.1-9.31,12.13-10.55,13.81-.39.52-.59,1.13-.59,1.81v2.07c0,.81.31,1.57.88,2.14.56.56,1.33.88,2.14.88h6.87v2.14c0,1.23-.22,1.42-.49,1.66-.39.34-1.2,1.05-1.2,2.35,0,2.17,1.62,3.69,3.94,3.69h5.95c2.28,0,3.94-1.55,3.94-3.69,0-1.3-.81-2.01-1.2-2.35-.27-.24-.49-.43-.49-1.66v-2.31c1.01-.38,1.73-1.34,1.73-2.46v-2.24c0-1.12-.72-2.09-1.73-2.46v-8.81c0-1.25.23-1.45.5-1.69.39-.34,1.19-1.04,1.19-2.32,0-2.16-1.66-3.73-3.94-3.73h0Z" fill="#9b002c"/>
      </g>
    </g>
  </g>
</svg>