<?xml version="1.0" encoding="UTF-8"?>
<svg id="Layer_2" data-name="Layer 2" xmlns="http://www.w3.org/2000/svg" viewBox="0 0 113.65 89.92">
  <g id="Layer_1-2" data-name="Layer 1">
    <g>
      <g>
        <ellipse cx="56.83" cy="44.96" rx="56.83" ry="44.96" fill="#2e4963"/>
        <ellipse cx="56.83" cy="44.96" rx="53.26" ry="42.14" fill="#476ea8"/>
        <ellipse cx="56.83" cy="42.1" rx="53.26" ry="35.77" fill="#699ccb"/>
        <ellipse cx="56.83" cy="35.72" rx="46.8" ry="35.72" fill="#2e4963"/>
        <ellipse cx="56.6" cy="35.21" rx="44.06" ry="33.86" fill="#a52121"/>
        <ellipse cx="56.6" cy="30.28" rx="42.36" ry="28.93" fill="#f8b5ab"/>
        <ellipse cx="56.6" cy="28.2" rx="41.04" ry="26.84" fill="#e53030"/>
        <ellipse cx="32.73" cy="14.51" rx="7.95" ry="4.58" transform="translate(-3.07 14.07) rotate(-23.2)" fill="#f8b5ab"/>
      </g>
      <g>
        <path d="M56.52,42.92c-.19,0-.36,0-.49,0-2.39,0-5.8-.93-7.68-2.96-.69-.75-.81-1.8-.34-2.9.7-1.6,2.81-3.39,4.58-3.39.64,0,1.19.22,1.6.65.49.52.88,1.01,1.21,1.44.89,1.14,1.25,1.53,2.16,1.53h.03c.16,0,.49-.24.71-.76.49-1.19.24-3.25-1.96-5.44-.16-.16-.87-.69-3.19-.69-.3,0-.62,0-.94.03h-.03s-.03,0-.03,0c-.59,0-1.15-.22-1.56-.62-.45-.4-.72-1-.72-1.63v-2.83c0-.63.24-1.19.69-1.6.29-.31.78-.65,1.59-.65h.06c.28.02.55.02.83.02,1.61,0,2.85-.27,3.3-.73,2.2-2.17,2.45-4.23,1.96-5.43-.22-.53-.55-.77-.71-.77-.94.02-1.3.42-2.2,1.56-.34.42-.72.9-1.19,1.41-.41.44-.98.67-1.63.67h0c-1.77,0-3.86-1.78-4.56-3.37-.48-1.09-.36-2.15.34-2.9,1.94-2.14,5.35-2.95,7.68-3h.25c3.12,0,7.26.9,9.26,5.17.75,1.6.87,4.72-.4,7.34-.82,1.71-2.12,2.99-3.81,3.79,2.54,1.27,3.78,3.06,4.38,4.47,1.04,2.41.81,4.94.12,6.37-.91,1.94-3.33,5.21-9.31,5.21Z" fill="#f8f9f9"/>
        <path d="M56.27,11.63c1.59,0,6.21.11,8.3,4.56.97,2.07.89,8.82-5.36,10.3-.13.04-.25.17-.25.34s.08.3.25.34c6.71,2.15,6.63,8.06,5.66,10.09-1.99,4.24-6.54,4.61-8.35,4.61-.19,0-.35,0-.47,0-2.2,0-5.28-.84-6.92-2.62-1.36-1.47,1.64-4.5,3.46-4.5.33,0,.62.1.84.33,1.65,1.73,2.11,3.29,4.14,3.29,0,0,.02,0,.03,0,1.81,0,3.58-3.95-.49-8.02-.81-.81-2.51-1-3.94-1-.36,0-.7.01-1,.03-.34,0-.63-.13-.84-.34-.25-.21-.38-.55-.38-.84v-2.83c0-.34.13-.63.38-.84.21-.25.51-.34.84-.34.27.02.57.02.88.02,1.45,0,3.22-.21,4.05-1.04,4.07-4.03,2.3-8.02.49-8.02,0,0-.02,0-.03,0-2.03.04-2.49,1.56-4.14,3.29-.22.24-.52.34-.86.34-1.82,0-4.79-3.02-3.44-4.48,1.65-1.82,4.73-2.62,6.92-2.66.07,0,.14,0,.23,0M56.27,9.51h-.13s-.1,0-.1,0h-.04c-2.54.05-6.27.96-8.45,3.35-.97,1.05-1.16,2.56-.52,4.03.84,1.93,3.27,4.01,5.53,4.01.94,0,1.79-.36,2.41-1.01.51-.53.9-1.03,1.25-1.47.61-.77.85-1.02,1.07-1.11.07.15.15.4.16.76.01.64-.21,1.96-1.85,3.58-.14.12-.88.42-2.56.42-.25,0-.51,0-.77-.02h-.06s-.06,0-.06,0c-1.16,0-1.9.49-2.34.95-.65.61-1,1.43-1,2.35v2.83c0,.92.4,1.81,1.07,2.41.61.58,1.42.9,2.28.9h.12c.3-.02.6-.03.88-.03,1.59,0,2.3.28,2.44.39,1.64,1.64,1.86,2.96,1.85,3.6,0,.36-.09.61-.16.75-.2-.07-.43-.31-1.05-1.1-.35-.45-.75-.96-1.27-1.5h0s0-.02,0-.02c-.61-.63-1.45-.97-2.36-.97-2.27,0-4.7,2.08-5.55,4.03-.65,1.48-.45,2.99.53,4.04,2.11,2.27,5.75,3.29,8.45,3.3.12,0,.3,0,.51,0,4.79,0,8.53-2.12,10.27-5.82.79-1.65,1.06-4.53-.11-7.24-.54-1.25-1.52-2.77-3.3-4.05,1.14-.86,2.06-1.98,2.71-3.33,1.41-2.92,1.26-6.43.4-8.26-1.24-2.64-4.01-5.78-10.22-5.78h0Z" fill="#9b002c"/>
      </g>
    </g>
  </g>
</svg>