<?xml version="1.0" encoding="UTF-8"?>
<svg id="Layer_2" data-name="Layer 2" xmlns="http://www.w3.org/2000/svg" viewBox="0 0 199.68 302.17">
  <g id="Layer_1-2" data-name="Layer 1">
    <path d="M20.78,217.37c-1.85,2.93-1.98,6.53-.96,10.06l-2.9.07c-.56.01-.75.34-.75.71,0,1.21,5.19.53,6.32.53l28.27-.03h128.68c1.22,0,2.1.36,2.91-.29-.01.19-.01.71-.31.73l-3.57.22H21.93c-2.25,0-3.97-.01-6.02-.24-.03-.7-.13-1.33.11-1.91,1.21-.18,2.18.12,3.47-.34-1.8-2.97-.69-7.97,1.29-9.49Z" fill="#493626"/>
    <path d="M36.02,175.09c-.17.37-.41.71-.8.85.19-.35.4-.74.8-.85Z" fill="#493626"/>
    <path d="M37.01,173.76c-.17.39-.44.72-.83.9.14-.41.37-.82.83-.9Z" fill="#493626"/>
    <path d="M35.13,176.26l.02,1.08c-.19-.01-.59,0-.64-.21-.06-.27-.11-.66.16-.76.12-.05.29-.08.46-.11Z" fill="#493626"/>
    <path d="M148,125.58c-.29.01-.51-.27-.69-.42-.1-.31.38-.34.53-.25.24.15.15.47.16.67Z" fill="#493626"/>
    <path d="M36.83,203c.16.16.06.31-.06.44-.19.22-.45.23-.69.19-.18-.26.05-.47.25-.56.17-.08.35-.02.49-.07Z" fill="#493626"/>
    <path d="M182.4,227.8c-.17.13-.29.07-.42-.06-.17-.17-.27-.39-.22-.61.22,0,.62-.19.71.11.06.2-.05.42-.06.56Z" fill="#493626"/>
    <path d="M33.2,206.22c.02.15.01.33-.07.49-.1.21-.36.38-.6.24,0-.22.02-.49.23-.62.13-.07.3-.08.44-.11Z" fill="#493626"/>
    <path d="M23.5,214.7c.19.17.05.3-.06.43-.19.22-.43.28-.67.24.06-.17.04-.51.24-.59.18-.07.35-.08.49-.08Z" fill="#493626"/>
    <path d="M32.53,207.18c0,.15.04.33-.03.5-.08.22-.36.37-.6.23.07-.2-.01-.48.21-.68.11-.09.26-.14.42-.05Z" fill="#493626"/>
    <path d="M139.21,125.23h.65l.34-.03c-22.44.26-45.18-1.26-67.66.35-.04-.12.09-.33.4-.33h66.27Z" fill="#493626"/>
    <path d="M45.28,181.91c0-1.27-.06-2.52-.11-4.01-.74.1-10.95,1.05-9.75-.28l7.51.05c.96,0,1.75-.15,2.58-.56-.06,1.51.97,5.48-.24,4.8Z" fill="#493626"/>
    <path d="M31.57,208.79c-.1,1.27-.75,2.94-1.47,4.04-2.2.48-4.36,1.12-6.37,1.86-.13-1.37,4.83-1.94,5.91-2.2,1.13-.27.83-4.15,1.92-3.71Z" fill="#493626"/>
    <path d="M145.1,125.18c-.73.63-1.94.62-2.68,0,.75-.46,1.93-.46,2.68,0Z" fill="#493626"/>
    <path d="M40.04,169.43c-.02.16,0,.33-.08.5-.1.2-.35.46-.6.26,0-.24.03-.49.24-.69.13-.12.26-.25.43-.06Z" fill="#493626"/>
    <path d="M35.85,203.63c.14.17.06.31-.05.43-.18.22-.44.28-.67.24.06-.17.04-.51.24-.59.18-.07.34-.09.48-.08Z" fill="#493626"/>
    <path d="M142.43,125.18c.74.62,1.94.62,2.68,0h2.21c.18.14.4.42.69.41.08.2.26.38.32.59s-.01.5.22.66c.12.08.3.08.45.05.07.21.27.38.32.6s0,.5.22.67c.12.09.3.1.45.06.02.11.04.24.08.34.16.38.41.72.8.88.03.1.09.21.09.31-.01.24,0,.5.22.69.13.12.27.23.44.06,0,.08.02.16,0,.24-.05.24-.03.51.19.69.14.11.29.21.45.05,0,.08.02.16,0,.24-.04.24-.03.51.19.69.14.12.3.2.46.05.01.1.03.22.07.32.16.38.4.74.8.87.04.09.07.24.07.33,0,.24.02.49.25.71.12.11.26.25.43.06,0,.07,0,.15-.02.22-.03.24,0,.51.22.7.14.11.29.22.45.05,0,.08.02.16,0,.24-.05.24-.03.51.19.68.14.11.29.21.45.05,0,.08.02.16,0,.24-.05.24-.04.51.19.69.14.11.3.2.46.04,0,.08.02.16,0,.24-.03.23-.05.52.17.69.12.09.31.09.46.03.06.21.26.38.32.59s0,.49.21.67c.11.1.27.13.42.05v.24c0,.24.01.5.24.7.13.11.27.24.44.05,0,.07,0,.15-.02.22-.03.24,0,.51.23.7.13.11.28.23.45.06,0,.08.02.16,0,.24-.04.24-.02.5.2.68.14.12.29.22.45.05,0,.08.01.16,0,.24-.03.23-.03.51.18.69.12.1.3.12.45.04l.31.59c.1.19,0,.48.22.67.11.1.26.13.42.05v.24c.01.23.01.5.22.69.11.11.28.14.44.04v.24c0,.24,0,.51.23.71.13.11.28.25.44.05,0,.07,0,.15-.02.22-.03.24,0,.51.23.7.13.11.28.23.45.05,0,.08.01.16,0,.24-.03.23-.03.5.17.68.12.12.29.16.45.04v.24c0,.23,0,.5.21.7.11.11.28.15.44.04v.24c0,.24,0,.51.23.7.13.11.28.24.44.06,0,.08.02.16,0,.24-.05.24-.02.51.2.68.14.12.29.22.45.05,0,.08.02.16,0,.24-.05.24-.03.51.2.69.14.12.29.22.45.05,0,.08.02.16,0,.24-.05.24-.03.51.19.69.14.12.29.22.45.05,0,.08.02.16,0,.24-.05.24-.02.51.2.69.14.12.29.22.45.05,0,.08.02.16,0,.24-.05.24-.03.51.2.68.14.11.29.21.45.05,0,.08.02.16,0,.24-.05.24-.04.51.19.69.14.11.3.2.46.04,0,.08.02.16,0,.24-.03.22-.05.52.17.69.12.09.32.07.47.03.07.21.27.39.32.6s0,.49.21.67c.11.1.27.13.43.05v.24c0,.23,0,.5.21.7.11.11.28.15.44.04v.23c0,.24,0,.51.23.7.13.11.28.24.44.06,0,.08.01.16,0,.23-.03.23-.03.51.19.68.12.09.3.1.45.04.1.59.66,1.03.97,1.56.1.18-.02.51.22.67.12.08.26.13.42.05v.24c0,.24.01.51.24.7.13.11.27.24.44.06,0,.08.02.16,0,.24-.04.24-.02.5.2.68.14.12.28.23.45.06,0,.08.02.16,0,.23-.04.24-.02.5.2.68.14.12.29.22.45.05,0,.08.02.16,0,.24-.04.24-.02.51.2.69.14.12.29.23.45.05,0,.08.02.16,0,.24-.04.24-.02.5.2.69.14.12.29.22.45.05,0,.08.02.16,0,.24-.04.24-.02.5.2.69.14.12.29.23.45.05,0,.08.02.16,0,.24-.04.24-.02.5.2.69.14.12.29.23.45.05,0,.08.02.16,0,.24-.04.24-.02.51.2.68.14.12.29.22.45.05,0,.08.02.16,0,.24-.05.24-.03.51.19.69.14.11.29.21.45.05,0,.08.01.16,0,.24-.03.22-.04.52.18.68.12.09.32.07.46.03.06.21.27.38.32.59.05.22,0,.48.25.67.13.11.25.25.42.06,0,.08.01.16,0,.24-.04.23-.03.5.19.68.12.1.29.15.45.04.08.44.03.95-.3,1.27-3.58.02-7.11-.13-10.86.31.18.99-.21,1.89-.21,3.01v43.15c0-.17.16,4.55.92,3.02l9.41.02c-.04.23.05.45.22.61.13.13.25.19.42.06l-.05.61c-.81.65-1.69.3-2.91.3h-94.86c-.09-.85.75-1.13,1.32-1.63l13.25.04c-.19.41.18.63.54.63s.74-.22.54-.63c.68,0,1.36.09,2.21-.16v-47.33c.01-.35,0-.71.02-1.06.07-1.39-.13-2.81.32-4.14.19-.02.34-.05.46-.09.19-.06.28-.25.19-.46-.07-.16-.4-.2-.62-.22.02-.17-.08-.36-.04-.53.1-.39-.19-.5-.38-.71-1.57-1.76-3.02-3.76-4.19-5.8-.05-.1,0-.31-.04-.48-.06-.26-.45-.11-.58-.24-.28-.27-.58-.64-.72-1.01-.37-.98-1.08-1.78-1.82-2.51-.1-.19-.07-.44-.16-.64-.07-.15-.2-.27-.3-.4-.07-.08-.21-.16-.25-.26-.05-.16-.02-.33-.09-.51-.09-.21-.33-.35-.58-.23v-.25c-.02-.15.03-.33-.03-.52-.08-.24-.39-.28-.63-.21,0-.09,0-.19-.02-.27-.04-.15-.19-.23-.29-.33-.93-.92-1.73-2.01-2.27-3.2-.06-.13.02-.35-.07-.52-.11-.2-.34-.41-.6-.24l-.02-.24c-.65-.77-.94-1.93-1.9-2.37-.04-.19-.35-.36-.34-.58.02-.33-.16-.49-.4-.67-.84-.63-1.46-1.6-1.91-2.55-.06-.12.03-.34-.04-.51-.09-.22-.35-.3-.59-.21-.18-.28-.34-.57-.41-.9-.03-.12-.19-.35-.3-.39-.37-.15-.58-.53-.63-.93-.04-.11-.21-.31-.32-.36-.23-.11-.58-.55-.66-.96-.02-.13-.21-.23-.29-.33l-6.97-9.39-26.26,36.24c-.6.82-.88,1.31-1.21,2.05-.62,1.44-.25,3.02-.25,4.59l-.09,40.96c-.48-.19-.66.16-.68.52-.03.55.07,1.06.68.85l.1,2.52c.05,1.32-.34,2.72.19,3.95.08.19-.01.44.06.63.03.08.02.17.04.25-.16.12-.22.15-.28.24-.11.14-.15.6.19.45,1.22-.56,2.28,0,3.27,0v1.03s-28.27.03-28.27.03c-1.13,0-6.32.69-6.32-.53,0-.37.19-.7.75-.71l2.9-.07c-1.02-3.53-.9-7.12.96-10.06.69-.53,1.1-1.67,1.99-2,.24.04.49-.02.67-.24.11-.13.25-.26.06-.43.07,0,.17.02.23,0,2.01-.75,4.17-1.38,6.37-1.86.71-1.1,1.36-2.78,1.47-4.04.02-.31.23-.59.33-.88.24.14.52-.02.6-.23.07-.17.03-.35.03-.5v-.24c.25.15.51-.03.61-.24.08-.16.08-.33.07-.49.48-.74,1.21-1.42,1.92-1.91.24.04.49-.02.67-.24.1-.12.19-.27.05-.43.08,0,.16-.02.24,0,.23.04.5.03.69-.19.11-.13.22-.28.06-.44.39-.13.79-.27,1.19-.37,2.39-.6,4.67-1.46,7.4-.73.28-1.27.39-2.27.4-3.48l.08-9.41c0-.31-.43-.59-.61-.39v-6.71c1.21.67.17-3.29.24-4.8-.83.41-1.63.57-2.58.56l-7.51-.05c-.1-.09-.19-.18-.28-.28l-.02-1.08c.04-.1.03-.22.08-.31.39-.14.64-.49.8-.85.06-.14.11-.29.16-.43.39-.18.66-.52.83-.9.04-.1.06-.23.08-.34.25.17.5-.02.6-.24.07-.17.03-.34.05-.5.01-.09.03-.25.08-.32.66-.45,1.05-1.2,1.48-1.86.05-.07.07-.24.07-.32.25.2.5-.06.6-.26.08-.17.06-.34.08-.5.01-.09.02-.24.07-.31.4.3,3.25-4.11,3.39-4.45.09-.23.08-.49.16-.73,1.64-1.52,6.16-8.64,7.68-9.75.35-.26.65-.55.72-1.01.09-.08.15-.22.25-.29.36-.21.62-.56.69-.97.02-.09.02-.2.01-.29.58.06.85-.51.96-1.01.02-.09.01-.2.01-.29.58.06.85-.51.96-1.02.02-.09.02-.2.02-.29.58.07.89-.51.96-1.03.06-.46.16-.8.61-.95.53-.19.71-.81.75-1.31.74-.77,1.37-1.66,1.92-2.57.58.07.84-.5.95-1,.02-.09.01-.2.01-.29.68.1.76-.57.96-1.04.68-1.57,2.03-2.74,2.91-4.2.3-.07.38-.39.39-.66.26-.19.62-.54.63-.89.81-.14,1.2-.96,1.35-1.71,1.67-2.62,3.88-4.92,5.2-7.73l.93-.07c22.47-1.61,45.21-.09,67.66-.35l2.23-.03ZM73.47,126.86c-.41-.44-3.71,4.42-3.79,4.57-.18-.03-.3.17-.34.32-.03.09-.02.2-.02.29-.58-.07-.86.49-.94,1.01-.02.11,0,.22-.01.33-.39.28-.76.6-.97,1.05v.27c-.14.06-.27.17-.34.31-.04.08.04.22-.01.29-1.05.24-1.88,1.33-1.92,2.31v.33c-.95.85-1.97,1.68-2.29,2.93-.02.09.02.21-.02.3-.58-.07-.86.5-.96,1.01-.02.1-.02.2-.02.3-.58-.08-.86.49-.95,1-.02.1.03.23-.01.33-.12.12-.26.22-.37.35-.09.1-.19.19-.27.3-.61.84-1.58,1.57-1.71,2.62h-.24c-.66.67-1.25,1.46-1.68,2.3-.06.11-.18.19-.27.28-.11.12-.27.22-.33.38-.03.08,0,.2,0,.29-.59.42-1.14.95-1.34,1.66-.11.38-.37.68-.65.94-.11.1-.22.21-.3.34-.04.07.02.19-.01.27-.63-.07-.84.56-.99,1.06-.21.7-.7,1.29-1.22,1.99l-11.1,15.22c-.09.12-.26.18-.34.31-.02.09.02.21-.01.29-.58-.06-.93.5-.96,1.01l-.02.3c-.05-.78-1.54,2-1.98,2.55.13-.03,11.37.56,8.16-.63-.09-.79.14-1.72,0-2.52.45-.24.29-.9.34-1.34.49-1.06,1.27-1.81,2.03-2.85l16.81-23.16,9.65-13.11c.23-.31.66-.68.92-.71.28-.03.79.27,1.01.57l5.64,7.71,17.76,24.82,7.61,10.95c.13.19.23.36.66.36h27.32c-.08.29.01.57.21.61.77.15,1.41-.09,2.18.06.2.04.29.31.21.62h-26.65c-.35,0-.62.38-.41.59-1.5,0-3.05.19-4.49-.23-.11-.41-.34-.78-.69-1.01-.43-.28-.36-.95-1.13-1.27.24,2.62.15,5.1-.03,7.76-.02.22-.28,5.16.18,4.29l-.02,15.88-.19,10.09c-.02,1.23.21,2.33.21,3.31l.05,9.36v.37c-.15.06-.42.36-.31.47.13.14.52.43.77.44l8.98.08c.31,0,.58-.43.38-.61l54.93-.04c.22,0,.54.05.71-.07.24-.17.2-.52.2-.92l-.09-28.3v-1.93s.08-17.24.08-17.24c0-.22.16-.65-.03-.98l-2.77-.1c.19-.41.44-.79.57-1.22,4.03,0,8.15.3,12.02-.35-1.54-3.81-4.62-7.05-6.8-10.72-.35-.59-.47-1.37-1.27-1.63-.04-.09,0-.21-.02-.3-.18-.7-.73-1.22-1.28-1.65-.04-.08-.02-.21-.02-.3,0-.56-.34-1.13-.95-1.07-.12-.56-.49-1.08-.9-1.67l-13.22-19.32-4.14-6.25c-.45-.68-.92-1.23-1.02-1.94s-.77-1.21-1.3-1.64c-.01-.09,0-.2,0-.29,0-.19-.13-.32-.31-.34-.08,0-.17,0-.25,0,.02-.29-.11-.57-.4-.66v-.29c-.02-.19-.14-.32-.32-.34-.08,0-.17.02-.25,0,0-.3-.15-.52-.41-.65-.11-.06-.17-.25-.3-.3.13-.16-.08-.29-.39-.37h-71.74c-.43,0-.56-.02-.79.06-.19.07-.2.4-.28.59ZM25.75,227.15l19.77-.07v-20.82c0-1.02-.18-1.92-.32-2.95-6.8-1.09-12.63,3.94-13.45,10.69-3.05,1.61-1.89-.4-6.43,1.9-4.3,2.18-6,7.14-3.82,11.41,1.52.29,2.81-.15,4.25-.15Z" fill="#2c2221"/>
    <path d="M182.5,177.62c.83,1.59-9.97-.08-10.51.8-.27.43.05.9.05,1.55v44.77c0,.98-.38,1.79.31,2.38-.76,1.53-.93-3.19-.93-3.02v-43.15c0-1.12.4-2.02.22-3.01,3.75-.43,7.28-.29,10.86-.31Z" fill="#493626"/>
    <path d="M38.02,202.63c-.41-.92,3.51-1.52,4.26-1.51,1.01,0,1.96.49,2.87-.08l.13-12.42c.18-.2.61.07.61.39l-.08,9.41c-.01,1.21-.12,2.21-.4,3.48-2.73-.73-5.01.13-7.4.73Z" fill="#493626"/>
    <path d="M43.5,164.67c-.14.34-2.98,4.75-3.39,4.45,1.01-1.56,1.99-3.23,3.39-4.45Z" fill="#493626"/>
    <path d="M39.29,170.5c-.43.66-.81,1.41-1.48,1.86.5-.64.64-1.65,1.48-1.86Z" fill="#493626"/>
    <path d="M150.84,129.42c-.39-.16-.64-.5-.8-.88.46.04.68.47.8.88Z" fill="#493626"/>
    <path d="M153.76,133.62c-.4-.13-.65-.49-.8-.87.38.15.62.51.8.87Z" fill="#493626"/>
    <path d="M160.04,142.85c-.16.17-.31.06-.45-.05-.22-.18-.24-.44-.2-.68.25-.15.51.02.59.23.07.18.07.35.06.5Z" fill="#493626"/>
    <path d="M179.88,172.14c-.16.17-.31.06-.45-.05-.22-.18-.24-.44-.2-.68.25-.15.51.03.58.24.06.18.07.35.07.5Z" fill="#493626"/>
    <path d="M148.98,126.88c-.14.03-.32.03-.45-.05-.23-.16-.16-.45-.22-.66.25-.09.47.03.56.23.08.16.05.34.1.48Z" fill="#493626"/>
    <path d="M168.17,154.89c-.16.17-.31.07-.45-.05-.22-.18-.24-.45-.2-.69.25-.16.51.03.58.24.06.18.07.35.07.5Z" fill="#493626"/>
    <path d="M179.23,171.16c-.16.17-.31.06-.45-.05-.22-.18-.24-.45-.2-.69.25-.15.51.03.58.24.06.18.07.35.06.5Z" fill="#493626"/>
    <path d="M149.97,128.2c-.15.04-.33.03-.45-.06-.23-.17-.17-.45-.22-.67.24-.2.48.06.58.25.09.16.07.33.09.48Z" fill="#493626"/>
    <path d="M180.53,173.11c-.16.16-.31.06-.45-.05-.22-.18-.24-.45-.19-.69.25-.15.5.03.58.24.06.18.07.35.07.5Z" fill="#493626"/>
    <path d="M168.82,155.86c-.16.16-.31.06-.45-.05-.22-.18-.24-.44-.2-.68.25-.15.5.03.58.24.07.17.08.34.07.49Z" fill="#493626"/>
    <path d="M167.52,153.92c-.16.17-.31.07-.45-.05-.22-.18-.24-.45-.19-.69.25-.16.5.03.58.24.06.18.07.35.07.5Z" fill="#493626"/>
    <path d="M178.58,170.19c-.16.17-.31.07-.45-.05-.22-.18-.24-.45-.2-.69.25-.15.51.03.58.24.06.18.07.35.06.5Z" fill="#493626"/>
    <path d="M169.48,156.83c-.16.16-.31.07-.46-.04-.23-.18-.24-.45-.19-.69.25-.15.5.03.58.24.06.17.08.34.07.49Z" fill="#493626"/>
    <path d="M151.59,130.48c-.16.17-.31.06-.44-.06-.22-.2-.23-.45-.22-.69.25-.1.52.03.59.25.06.18.08.35.07.5Z" fill="#493626"/>
    <path d="M37.73,172.68c-.02.16.02.33-.05.5-.09.22-.35.41-.6.24.02-.22.02-.48.21-.68.1-.11.28-.12.43-.06Z" fill="#493626"/>
    <path d="M152.24,131.46c-.16.16-.31.07-.45-.05-.22-.18-.24-.45-.19-.69.25-.16.5.03.58.24.07.17.08.34.07.49Z" fill="#493626"/>
    <path d="M177.93,169.21c-.16.17-.31.07-.45-.05-.22-.18-.24-.44-.2-.69.25-.16.51.03.58.24.07.18.07.35.06.5Z" fill="#493626"/>
    <path d="M170.12,157.79c-.14.04-.35.06-.47-.03-.22-.17-.2-.47-.17-.69.25-.11.46.04.55.24.07.16.04.33.09.48Z" fill="#493626"/>
    <path d="M152.89,132.43c-.16.16-.31.07-.46-.05-.22-.18-.23-.45-.19-.69.26-.14.49.04.56.25.07.18.06.34.08.49Z" fill="#493626"/>
    <path d="M166.87,152.94c-.16.17-.31.07-.45-.05-.22-.18-.24-.45-.2-.69.25-.15.5.03.58.24.07.18.07.35.07.5Z" fill="#493626"/>
    <path d="M164.89,150c-.16.11-.33.07-.44-.04-.21-.2-.21-.47-.21-.7.23-.22.5.05.61.26.08.15.04.33.04.48Z" fill="#493626"/>
    <path d="M181.17,174.06c-.14.04-.34.06-.46-.03-.22-.17-.2-.46-.18-.68.25-.11.46.03.55.24.07.16.05.33.09.48Z" fill="#493626"/>
    <path d="M182.16,175.39c-.17.18-.29.04-.42-.06-.24-.2-.2-.45-.25-.67.25-.12.52.02.6.23.07.18.08.35.07.51Z" fill="#493626"/>
    <path d="M164.24,149.02c-.16.12-.32.08-.45-.04-.2-.19-.21-.45-.17-.68.24-.17.5.02.58.24.06.17.04.34.04.49Z" fill="#493626"/>
    <path d="M177.28,168.24c-.16.17-.31.06-.45-.05-.22-.18-.24-.45-.2-.69.25-.16.51.03.58.24.07.18.07.35.06.5Z" fill="#493626"/>
    <path d="M182.79,176.35c-.16.1-.32.06-.45-.04-.22-.18-.23-.45-.19-.68.25-.17.49.03.59.24.08.17.02.34.05.49Z" fill="#493626"/>
    <path d="M171.07,159.11c-.16.08-.31.05-.43-.05-.21-.18-.16-.45-.21-.67.23-.19.5.03.6.23.07.15.03.34.03.48Z" fill="#493626"/>
    <path d="M163.62,148.06c-.17.18-.31.06-.45-.05-.23-.19-.26-.46-.23-.7.24-.23.51.07.61.26.08.16.07.34.07.5Z" fill="#493626"/>
    <path d="M154.51,134.72c-.17.19-.31.06-.43-.06-.22-.21-.24-.47-.25-.71.25-.2.51.06.61.27.08.16.07.34.06.5Z" fill="#493626"/>
    <path d="M166.22,151.96c-.16.17-.31.06-.45-.05-.22-.18-.24-.44-.2-.68.25-.16.51.03.58.24.07.18.07.35.06.5Z" fill="#493626"/>
    <path d="M162.96,147.09c-.16.19-.31.06-.44-.05-.23-.2-.23-.46-.23-.71.24-.22.51.06.61.26.08.16.07.34.06.5Z" fill="#493626"/>
    <path d="M171.72,160.08c-.16.11-.33.07-.44-.04-.21-.2-.21-.47-.21-.7.23-.22.5.05.61.26.08.15.04.33.04.48Z" fill="#493626"/>
    <path d="M176.63,167.26c-.16.17-.31.07-.45-.05-.22-.18-.24-.44-.2-.68.25-.16.51.03.59.24.07.18.07.35.06.5Z" fill="#493626"/>
    <path d="M172.4,161.08c-.17.18-.31.06-.44-.06-.23-.2-.23-.46-.23-.7.24-.22.51.07.61.26.08.16.07.34.07.5Z" fill="#493626"/>
    <path d="M155.16,135.69c-.16.17-.31.06-.45-.05-.23-.19-.26-.46-.22-.7.23-.23.5.07.61.26.08.16.08.34.07.49Z" fill="#493626"/>
    <path d="M175.98,166.29c-.16.18-.3.06-.45-.06-.22-.18-.25-.44-.2-.68.25-.16.51.02.59.24.07.18.07.35.06.5Z" fill="#493626"/>
    <path d="M162.29,146.09c-.16.1-.33.07-.44-.04-.21-.19-.21-.46-.21-.69.23-.2.51.03.62.24.08.15.03.33.03.48Z" fill="#493626"/>
    <path d="M161.63,145.13c-.16.07-.31.04-.42-.05-.21-.19-.11-.48-.22-.67.24-.09.53,0,.61.22.06.18.03.35.03.5Z" fill="#493626"/>
    <path d="M155.82,136.66c-.16.16-.31.07-.45-.05-.22-.18-.24-.44-.19-.68.25-.15.5.03.58.24.06.17.08.34.07.49Z" fill="#493626"/>
    <path d="M156.47,137.64c-.16.16-.31.07-.46-.04-.23-.18-.23-.45-.19-.69.25-.15.5.03.58.24.06.17.08.34.07.49Z" fill="#493626"/>
    <path d="M175.33,165.31c-.17.18-.31.05-.44-.06-.23-.19-.23-.46-.24-.7.24-.21.51.06.61.26.08.16.07.35.06.5Z" fill="#493626"/>
    <path d="M173.04,162.03c-.15.06-.33.06-.45-.04-.22-.17-.22-.45-.19-.68.25-.13.52.02.56.24l.08.48Z" fill="#493626"/>
    <path d="M160.68,143.81c-.16.08-.33.06-.45-.04-.22-.18-.22-.46-.18-.69.25-.12.47.03.55.24.07.17.01.35.08.48Z" fill="#493626"/>
    <path d="M157.11,138.6c-.15.06-.34.06-.46-.03-.22-.17-.21-.47-.17-.69.25-.11.46.04.55.24.07.16.04.34.09.48Z" fill="#493626"/>
    <path d="M165.57,150.99c-.17.18-.31.06-.44-.06-.23-.19-.23-.46-.23-.7.24-.22.51.07.61.26.08.16.08.34.07.5Z" fill="#493626"/>
    <path d="M158.06,139.92c-.16.08-.31.05-.42-.05-.21-.19-.16-.46-.21-.67.24-.13.52.01.6.23.07.17.03.35.03.5Z" fill="#493626"/>
    <path d="M174.65,164.32c-.16.08-.3.03-.42-.05-.23-.16-.12-.49-.22-.67.24-.11.52,0,.6.23.06.17.03.35.03.49Z" fill="#493626"/>
    <path d="M158.74,140.9c-.16.19-.31.06-.44-.05-.22-.19-.23-.45-.24-.7.24-.21.51.05.62.25.08.16.07.35.06.5Z" fill="#493626"/>
    <path d="M159.39,141.88c-.17.18-.31.06-.45-.06-.22-.19-.26-.46-.23-.7.24-.23.51.07.61.26.08.16.07.34.07.5Z" fill="#493626"/>
    <path d="M101.8,178.89c.11.14.06.5.28.68.1.08.21.18.39.07v47.33c-.86.25-1.54.16-2.22.16h-1.09l-13.25-.04c.02-.2.02-.4.02-.6.2.19.61-.05.61-.4v-25.02c0-.35-.42-.57-.61-.39v-7.05c.2.19.6-.06.6-.37l.04-6.22c0-.55-.47-.58-.68-.68-.1-.46-.4-.9-.93-.92-.01-.25-.12-.49-.29-.58-.18-.09-.43-.08-.72-.08h-19.54c-.31,0-.48.07-.58.22-.08.11,0,.36-.07.46-.25.17-.64.48-.64.99l-.04,16.84c-.18-.14-.35-.04-.44.06-.34.41-.37,2.85.44,2.32-.04.5,0,1.02,0,1.52-.17-.15-.45-.04-.48.2l-.08.65-.05,19.05c-4.55,0-9.15.31-13.65-.28-1.78-1.25.37-5.35-1.53-4.65l-.1-2.52v-1.37s.09-40.96.09-40.96c.87.43,3.13-3.16,3.13-3.17.52-1.16,1.49-1.88,2.32-3.02l21.91-29.88,10.05,14.19,15.1,21.26c.64.9,1.26,1.66,2.01,2.22Z" fill="#e3e9ec"/>
    <path d="M141.56,193.88c.48,4.91.16,9.86.27,14.96.01.56.43.92.89,1,4.38.82,8.82-.1,13.09.04,1.61.05,3.27.83,4.6-.06.26-.18.49-.26.63-.56,1.1.06.36-1.79.74-3.94.55-.22.92.75,1.49.65.43-.07.25-1.13.8-1.06.39.06.42.58.69.72,1.02.55,1,1.28,1.23,2.2.37,1.45,2.22,1.6,3.3,2.19.66.36.18,1.52.18,2.1v12.36c-.01.98-.07,1.82-.32,2.61l-54.93.04-8.84-.05c.06-.25,0-.53-.22-.62-.27-.11-.53-.1-.76-.07l-.05-9.36c1-.38-.15-8.02.67-9.4.71,1.85,0,3.82,1.19,5.15,1.02,1.13,2.91,1.58,3.68.32.23-.37.27-.81.6-.92.42-.14.68.34,1.01,1.05.84-1.36,1.87-.81,3.09-.88l5.7-.32,4.53-.53c.63-.07,1.49.44,1.86-.61l-11.53-.08c-.38,0-.64-.06-.85-.29-.15-.16-.05-.5-.16-.68h17.89c.86,0,1.23-.55,1.26-1.3.22-4.6-.32-9.06.32-13.41.72.52,1.44.27,2.15-.03l3.37-1.42c.64-.27,1.7.93,2.42.19Z" fill="#bdd0d7"/>
    <path d="M146.68,126.58c.13.05.18.24.3.3-.01.28.13.56.41.65.08.02.17,0,.25,0,0,.18.03.48.31.34v.29c.02.29.1.59.41.66.08.02.17,0,.25,0,0,.19.03.49.31.34,0,.09,0,.2,0,.29.11.73.7,1.26,1.3,1.64.1.71.57,1.26,1.02,1.94l4.14,6.25,13.22,19.32c.41.6.78,1.11.9,1.67.12.52.29,1.16.95,1.07,0,.09-.02.22.02.3.31.65.43,1.68,1.28,1.65.02.09-.02.21.02.3.31.65.42,1.69,1.27,1.63,2.18,3.67,5.26,6.9,6.8,10.72h-72.85s-7.61-10.95-7.61-10.95l-17.76-24.82-5.64-7.71c-.22-.3-.74-.6-1.01-.57s-.69.4-.92.71l-9.65,13.11-16.81,23.16c-.76,1.05-1.53,1.8-2.03,2.85-.23.49-.46.69-.34,1.34.15.8-.08,1.72,0,2.52-.29.67-6.35.41-7.31.13.41-.9,1.09-1.36,1.13-2.05l.02-.3c.43-.21.75-.58.96-1.01.04-.08-.01-.21.01-.29.12-.1.24-.2.34-.31l11.1-15.22c.51-.7,1.01-1.29,1.22-1.99.44-.23.77-.62.99-1.06.04-.07-.03-.2.01-.27.26.09.29-.16.3-.34.28-.26.54-.57.65-.94.62-.39,1.22-.91,1.34-1.66.01-.09-.03-.21,0-.29.23.05.33-.19.33-.38.08-.09.21-.17.27-.28.83-.51,1.51-1.32,1.68-2.29h.24c.7-.79,1.54-1.57,1.71-2.63.08-.11.18-.2.27-.3.22.12.3-.2.37-.35.04-.1,0-.22.01-.33.49-.15.95-.44.95-1,0-.1,0-.2.02-.3.43-.21.75-.58.96-1.01.04-.08,0-.21.02-.3.85-.87,2.23-1.76,2.28-2.93v-.33c.9-.51,1.36-1.48,1.93-2.31.05-.07-.03-.21.01-.29.14-.06.26-.17.34-.31v-.27c.59.03.95-.49.97-1.05,0-.11,0-.22.01-.33.49-.15.95-.45.94-1.01,0-.09-.01-.21.02-.29.1-.11.27-.19.34-.32.08-.15,3.38-5.01,3.79-4.57l61.3-.13c4.15,0,7.98-.38,11.91-.15ZM82.61,130.78c-.51.01-.36.92-.34,1.27.01.15.11.36.31.33.03.1.02.22.02.33,0,.28.08.59.38.68.07.02.17-.02.24,0,0,.43.23.82.65.94.02.1.02.22.02.33,0,.29.09.59.39.67.07.02.17-.02.24,0,0,.43.24.83.66.95v.29c.05.71.74,1.24,1.31,1.66.04.07.01.2.01.29,0,.57.46.9.96,1.05.08.46.31.87.65,1.35l10.87,15.45c3.72,5.29,7.13,10.6,11.26,15.37l.08.45c.03.17.23.21.63.21h59.43c.42-.12.6-.4.42-.67.09,0,.19,0,.28,0,.13,0,.28.04.46,0,.15-.04.14-.21.18-.35.12-.38-.12-.88.01-1.24.1-.26.3-.37.09-.6-.26-.28-.49-.39-.77-.42l-.02-.29c-.11-.11-.22-.21-.33-.31-.03-.08,0-.19,0-.27-.08-.53-.33-1.17-.95-1.05,0-.08,0-.17-.01-.25-.09-.53-.35-1.15-.96-1.08-.04-.09.03-.21-.01-.29-.33-.65-.43-1.68-1.29-1.66-.02-.09.03-.21-.02-.29-.32-.65-.43-1.68-1.29-1.66,0-.09.02-.21-.02-.29-.32-.65-.43-1.69-1.28-1.65,0-.08.02-.19-.01-.26-.23-.48-3.56-5.96-4.19-5.59l-9.21-13.51-3.43-4.71c-.09-.12-.22-.2-.32-.31l-.02-.33c-.01-.28-.09-.66-.39-.67h-.24c0-.44-.25-.83-.67-.96-.02-.09-.02-.2-.02-.29,0-.56-.46-.89-.97-1.04-.08-.4-.42-.65-.62-.97-.17-.26-.07-.95-.78-.95h-61c-.32.05-.54.17-.42.34Z" fill="#df6a5c"/>
    <path d="M105.35,176.97c-.04.24-.04.49.08.75s.39.2.62.27c1.44.41,2.99.23,4.49.23l57.89.07c.79-.39,1.23-.1,1.64.34l-.08,17.24c-.14-.16-.25.04-.43,0-.05-.26.01-.71,0,0,.39.6-.15,1.46.44,1.93l.09,28.3c0,.41.04.75-.2.92-.17.12-.49.07-.71.07.25-.79.31-1.63.31-2.61v-12.36c.01-.59.49-1.74-.17-2.1-1.08-.59-2.93-.74-3.3-2.19-.24-.92-.22-1.65-1.23-2.2-.27-.15-.3-.67-.69-.72-.55-.08-.37.98-.8,1.06-.57.1-.95-.87-1.49-.65.04-.21-.13-.46-.13-.68.24-.04.99.2.99-.33s-.74-.29-.99-.33l.02-12.67c0-.68-.23-2.23-1.04-2.23l-17.52-.1c-.58,0-.88.32-.99.69-.32,1.04-.56,2.49-.19,3.59-.13.15-.4.39-.38.61-.72.74-1.77-.46-2.42-.19l-3.37,1.42c-.72.3-1.43.55-2.15.03-.15,1.02.03-6.76-1.23-6.1-1.55-1.66.56-3.12-.69-4.96-.42-.61-1.47-.73-2.25-.74l-24.51-.29c-.75,1.09.37,4.07-.57,4.71-.46.87-.19-4.07-.18-4.29.18-2.66.27-5.14.03-7.76.77.32.69,1,1.13,1.27ZM162.65,188.99c1.25,2.47,2.81.07,6.71,3.31l.03-13.73c-.62,1.53-.04,2.97-.32,4.5-3.63.83-5.9-.62-8.6,1.3-.5.36-1.14.37-1.14.91-.02,2.32,1.71.55,3.31,3.72ZM169.5,193.56c0-.11-.09-.21-.21-.21s-.21.09-.21.21.09.21.21.21.21-.09.21-.21ZM169.26,200.39c.31-1.07.33-1.71,0-2.3-.24.9-.21,1.59,0,2.3ZM169.5,202.02c0-.11-.09-.21-.21-.21s-.21.09-.21.21.09.21.21.21.21-.09.21-.21ZM169.46,204.14c0-.09-.07-.16-.16-.16s-.16.07-.16.16.07.16.16.16.16-.07.16-.16ZM169.49,206.15c-.18-.34-.36-.2-.4.18.05.76.44.66.4-.18Z" fill="#adc1c9"/>
    <path d="M25.75,227.15c-1.44,0-2.73.44-4.25.15-2.18-4.28-.48-9.24,3.82-11.41,4.54-2.3,3.37-.29,6.43-1.9.82-6.74,6.65-11.78,13.45-10.69.14,1.04.32,1.93.32,2.95v20.82s-19.77.07-19.77.07Z" fill="#72a645"/>
    <path d="M81.96,143.8c.02.17.01.46.29.33.07.41.43.85.66.96.01.19.03.51.32.36.06.4.26.78.63.93.04.16.04.55.3.39.07.33.23.62.41.9.11.16,0,.48.23.66.11.08.24.15.41.06.45.94,1.07,1.92,1.91,2.55.08.22.06.73.4.67-.01.23.3.39.34.58.21,1.03,1.01,1.84,1.9,2.37l.02.24c.01.23.05.48.26.68.11.11.24.25.42.08.54,1.19,1.34,2.28,2.27,3.2,0,.19.03.42.29.33.02.08.01.19.02.27.01.22.04.47.22.67.1.11.26.15.43.06v.25c.02.24.04.48.25.67.12.11.26.22.43.07.04.1.18.17.25.26.04.16.04.55.3.4.09.2.06.45.16.64.49.92.93,1.93,1.82,2.51.14.37.44.74.72,1.01-.05.23,0,.48.19.66.12.11.26.16.43.06,1.17,2.05,2.62,4.04,4.19,5.8.04.28.07.63.38.71-.04.16.06.36.04.53l-.02.78c-.45,1.33-.25,2.75-.32,4.14-.24.08-.46.19-.67.32-.75-.56-1.38-1.32-2.01-2.22l-15.1-21.26-10.05-14.19-21.91,29.88c-.84,1.14-1.81,1.86-2.32,3.02-.61-.11-1.52.27-2.12-.24-.37-.31-.12-1.31-.76-1.19.32-.74.61-1.23,1.21-2.05l26.26-36.24,6.97,9.39Z" fill="#adc1c9"/>
    <path d="M132.4,189.04l-8.77-.02c.16-.3-.06-.58-.26-.62-.07-.02-3.03-.39-2.4.62-4.19.16-7.38-.73-7.39,1.61l-.03,11.38c-1.27-.3-2.63-.28-3.87.49-1.38.85-1.95-.26-4.24,1.13-.64.74.36,1.94-.49,2.38-.56-.97.32-2.11-.6-2.37l.02-15.88c.94-.64-.18-3.61.57-4.71l24.51.29c.79,0,1.83.13,2.25.74,1.25,1.84-.86,3.3.69,4.96Z" fill="#bdd0d7"/>
    <path d="M84.96,185.42c.53.03.83.47.93.92l.03,7.27v32.87c0,.2,0,.4-.02.6-.57.5-1.41.78-1.32,1.62h-33.82v-1.03s12.05.07,12.05.07c.41,0,.31-.49.3-.66l-.04-19.9c0-.5-.04-1.03,0-1.52.07-.8,0-1.59,0-2.38l.04-16.84c0-.51.38-.82.64-.99l21.2-.02ZM64.74,187.43l-.03,13.89c-.19-.19-.62.06-.62.37v7.82c0,.31.43.56.62.37l.02,17.22,19.43-.02.07-3.2c.47-1.33.67-3.04,0-4.35v-16.8c.9-.67.14-5.71,0-6.63-.44-2.98.6-6.15-.31-9.01.14-.17-.11-.27-.35-.37l-18.74.03c-.16.06-.09.55-.09.68Z" fill="#141313"/>
    <path d="M113.56,202v6.22c0,.69.33,1.18.59,1.61.11.19.01.52.16.68.21.22.47.28.85.29l11.53.08c-.37,1.05-1.23.54-1.86.61l-4.53.53-5.7.32c-1.22.07-2.25-.48-3.09.88-.33-.71-.6-1.19-1.01-1.05-.32.11-.37.55-.6.92-.77,1.27-2.66.81-3.68-.32-1.2-1.33-.48-3.3-1.19-5.15-.82,1.38.33,9.01-.67,9.4,0-.98-.23-2.08-.21-3.31l.19-10.09c.93.26.04,1.4.6,2.37.85-.44-.15-1.64.49-2.38,2.3-1.39,2.86-.28,4.24-1.13,1.24-.77,2.6-.79,3.87-.49Z" fill="#adc1c9"/>
    <path d="M146.68,126.58c-3.93-.23-7.76.14-11.91.15l-61.3.13c.08-.18.08-.52.28-.59.24-.08.37-.07.79-.07h71.74c.32.08.53.21.39.37Z" fill="#493626"/>
    <path d="M167.83,176.32c-.13.43-.38.81-.57,1.22l-29.68.08c.08-.31-.01-.58-.21-.62-.77-.16-1.4.08-2.18-.06-.2-.04-.29-.31-.21-.62h32.85Z" fill="#141313"/>
    <path d="M137.59,177.62l29.68-.08,2.77.1c.19.33.04.76.03.98-.41-.44-.85-.73-1.64-.34l-57.89-.07c-.21-.21.06-.59.41-.59h26.65Z" fill="#493626"/>
    <path d="M179.86,175.97c-3.87.64-8,.35-12.02.35h-60.16c-.43.01-.53-.15-.66-.34h72.85Z" fill="#a16943"/>
    <path d="M62.47,227.08h.65c0,.17.11.66-.3.66l-12.05-.07c-1,0-2.05-.56-3.27,0-.34.16-.3-.31-.19-.45.07-.09.12-.11.28-.24.41.14.88-.16,1.24-.19,4.51.59,9.1.28,13.65.28Z" fill="#493626"/>
    <path d="M50.41,174.13s-2.26,3.6-3.13,3.17c0-1.58-.37-3.15.25-4.59.63-.12.39.88.76,1.19.6.5,1.51.13,2.12.24Z" fill="#bdd0d7"/>
    <path d="M105.39,227.08l8.84.05c.2.18-.07.62-.38.61l-8.98-.08c-.25,0-.64-.3-.77-.44-.11-.12.16-.41.31-.47.3.14.63.32.98.33Z" fill="#493626"/>
    <path d="M48.81,226.8c-.36.02-.83.33-1.24.19-.02-.08-.02-.17-.04-.25.29.08.37-.22.31-.38-.07-.19-.2-.33-.37-.25-.53-1.24-.14-2.64-.19-3.95,1.9-.7-.25,3.4,1.53,4.65Z" fill="#bdd0d7"/>
    <path d="M39.08,173.69c-.04.69-.72,1.15-1.13,2.05.96.28,7.02.54,7.31-.13,3.21,1.2-8.03.6-8.16.63.44-.56,1.93-3.33,1.98-2.55Z" fill="#493626"/>
    <path d="M169.98,195.86v1.93c-.58-.47-.04-1.33-.43-1.93.18.04.3-.16.43,0Z" fill="#493626"/>
    <path d="M96.87,164.89c-.89-.58-1.33-1.59-1.82-2.51.74.73,1.45,1.53,1.82,2.51Z" fill="#493626"/>
    <path d="M47.19,218.26v1.37c-.61.21-.71-.3-.68-.85.02-.36.19-.71.68-.52Z" fill="#493626"/>
    <path d="M89.74,154.57c-.89-.53-1.69-1.34-1.9-2.37.95.43,1.25,1.6,1.9,2.37Z" fill="#493626"/>
    <path d="M173.05,165.26c-.86.05-.96-.99-1.27-1.63.8.26.92,1.05,1.27,1.63Z" fill="#a16943"/>
    <path d="M67.04,135.29c-.57.83-1.03,1.8-1.92,2.31.04-.98.87-2.07,1.92-2.31Z" fill="#493626"/>
    <path d="M170.46,161.38c-.66.09-.83-.55-.95-1.07.61-.06.94.52.95,1.07Z" fill="#a16943"/>
    <path d="M100.25,227.12c.19.41-.18.63-.54.63s-.74-.22-.54-.63h1.09Z" fill="#493626"/>
    <path d="M105.39,227.08c-.34,0-.68-.18-.98-.33v-.37c.23-.03.49-.04.76.07.21.09.28.37.22.62Z" fill="#adc1c9"/>
    <path d="M102.46,179.64c-.17.12-.29.01-.39-.07-.21-.17-.17-.54-.28-.68.21-.13.44-.24.67-.32-.02.35-.01.71-.01,1.06Z" fill="#bdd0d7"/>
    <path d="M90.43,155.57c-.17.17-.3.03-.42-.08-.21-.2-.24-.44-.26-.68.26-.17.49.04.6.24.09.17,0,.38.07.52Z" fill="#493626"/>
    <path d="M69.32,132.04c0,.55-.45.86-.94,1.01.08-.51.36-1.07.94-1.01Z" fill="#493626"/>
    <path d="M102.8,174.43l.02-.78c.22.03.55.07.62.22.1.21,0,.41-.19.46-.12.04-.27.06-.46.09Z" fill="#493626"/>
    <path d="M106.04,177.99c-.23-.07-.51-.02-.62-.27s-.11-.51-.08-.75c.36.23.59.61.69,1.01Z" fill="#493626"/>
    <path d="M85.2,148.39c-.17.09-.3.02-.41-.06-.23-.18-.12-.5-.23-.66.25-.09.5,0,.59.21.07.17-.02.39.04.51Z" fill="#493626"/>
    <path d="M93.66,160.11c-.16.1-.32.06-.43-.06-.18-.2-.21-.45-.22-.67.24-.07.55-.02.63.21.06.18.01.37.02.52Z" fill="#493626"/>
    <path d="M94.33,161.09c-.17.16-.3.04-.43-.07-.22-.19-.23-.43-.24-.67.25-.12.49.02.58.23.07.17.04.35.09.51Z" fill="#493626"/>
    <path d="M98.21,166.62c-.16.1-.31.04-.43-.06-.2-.18-.24-.43-.19-.66.13.12.52-.03.58.24.04.17,0,.38.04.48Z" fill="#493626"/>
    <path d="M45.25,173.09c-.12-.65.11-.85.34-1.34-.05.44.11,1.1-.34,1.34Z" fill="#493626"/>
    <path d="M61.84,142.46c0,.55-.46.85-.95,1,.09-.51.36-1.07.95-1Z" fill="#493626"/>
    <path d="M62.83,140.86c.32-1.25,1.34-2.09,2.28-2.93-.05,1.18-1.42,2.06-2.28,2.93Z" fill="#493626"/>
    <path d="M171.76,163.32c-.86.03-.97-1-1.28-1.65.55.43,1.11.96,1.28,1.65Z" fill="#a16943"/>
    <path d="M53.71,153.51c-.22.45-.55.84-.99,1.06.15-.51.36-1.13.99-1.06Z" fill="#493626"/>
    <path d="M58.53,147.05c.13-1.05,1.1-1.79,1.71-2.62-.17,1.06-1.01,1.84-1.71,2.62Z" fill="#493626"/>
    <path d="M40.05,172.38c-.2.43-.53.8-.96,1.01.03-.51.37-1.07.96-1.01Z" fill="#493626"/>
    <path d="M150.23,131.12c-.6-.39-1.19-.91-1.3-1.64.53.43,1.2.92,1.3,1.64Z" fill="#493626"/>
    <path d="M56.61,149.35c.43-.83,1.02-1.62,1.68-2.29-.17.97-.85,1.78-1.68,2.29Z" fill="#493626"/>
    <path d="M62.82,141.15c-.21.43-.53.79-.96,1.01.09-.51.37-1.08.96-1.01Z" fill="#493626"/>
    <path d="M54.67,151.96c.2-.71.75-1.24,1.34-1.66-.12.75-.72,1.27-1.34,1.66Z" fill="#493626"/>
    <path d="M87.51,151.61c-.34.06-.32-.45-.4-.67.24.18.41.34.4.67Z" fill="#493626"/>
    <path d="M67.39,134.41c.21-.44.58-.76.97-1.05-.03.55-.38,1.08-.97,1.05Z" fill="#493626"/>
    <path d="M148.36,128.83c-.31-.07-.39-.38-.4-.66.29.09.42.38.4.66Z" fill="#493626"/>
    <path d="M102.78,173.13c-.31-.08-.35-.44-.38-.71.19.22.49.32.38.71Z" fill="#493626"/>
    <path d="M47.53,226.74c-.07-.19.02-.45-.06-.63.17-.07.3.06.37.25.06.16-.02.46-.31.38Z" fill="#e3e9ec"/>
    <path d="M147.39,127.53c-.28-.09-.42-.37-.41-.65.26.13.42.36.41.65Z" fill="#493626"/>
    <path d="M56.01,150.01c.07-.16.22-.26.33-.38,0,.19-.11.43-.33.38Z" fill="#493626"/>
    <path d="M84.16,146.77c-.26.16-.26-.23-.3-.39.12.05.28.27.3.39Z" fill="#493626"/>
    <path d="M83.23,145.45c-.29.15-.31-.18-.32-.36.11.05.29.25.32.36Z" fill="#493626"/>
    <path d="M82.25,144.13c-.27.13-.27-.16-.29-.33.07.1.26.2.29.33Z" fill="#493626"/>
    <path d="M60.51,144.13c.11-.13.25-.24.37-.35-.07.16-.15.48-.37.35Z" fill="#493626"/>
    <path d="M40.07,172.09c.08-.13.25-.19.34-.31-.11.11-.22.22-.34.31Z" fill="#493626"/>
    <path d="M94.89,161.74c-.26.16-.25-.24-.3-.4.1.13.23.25.3.4Z" fill="#493626"/>
    <path d="M67.05,134.99c.07-.14.2-.24.34-.31-.08.14-.19.24-.34.31Z" fill="#493626"/>
    <path d="M92.99,159.1c-.26.09-.3-.14-.29-.33.1.1.25.18.29.33Z" fill="#493626"/>
    <path d="M53.72,153.24c.08-.13.19-.24.3-.34,0,.18-.04.43-.3.34Z" fill="#493626"/>
    <path d="M69.34,131.74c.05-.15.16-.35.34-.32-.07.13-.24.21-.34.32Z" fill="#493626"/>
    <path d="M148.92,129.18c-.28.15-.31-.15-.31-.34.18.02.31.16.31.34Z" fill="#493626"/>
    <path d="M147.95,127.87c-.28.15-.3-.15-.31-.34.18.02.3.15.31.34Z" fill="#493626"/>
    <path d="M85.93,226.48v-25.82c.19-.18.61.05.61.39v25.02c0,.35-.41.59-.61.4Z" fill="#bdd0d7"/>
    <path d="M84.96,185.42l-21.2.02c.06-.1-.01-.35.07-.46.1-.14.27-.22.58-.22h19.54c.3,0,.54-.01.72.08.17.08.28.33.29.58Z" fill="#bdd0d7"/>
    <path d="M63.08,207.18l.04,19.9h-.65l.05-19.05.08-.65c.03-.23.31-.35.48-.2Z" fill="#bdd0d7"/>
    <path d="M85.92,193.62l-.03-7.27c.22.09.69.12.68.68l-.04,6.22c0,.31-.4.56-.6.37Z" fill="#bdd0d7"/>
    <path d="M63.08,203.27c0,.8.07,1.58,0,2.38-.81.54-.78-1.91-.44-2.32.09-.11.26-.21.44-.06Z" fill="#bdd0d7"/>
    <path d="M120.98,189.01c.88-.03,1.77,0,2.65,0l8.77.02c1.26-.67,1.08,7.11,1.23,6.1-.64,4.35-.1,8.81-.32,13.41-.04.75-.41,1.31-1.26,1.31h-17.89c-.27-.44-.59-.93-.59-1.62v-6.22s.03-11.38.03-11.38c0-2.34,3.2-1.45,7.39-1.61ZM131.45,190.92h-16.01s0,17.3,0,17.3h16.01s0-17.3,0-17.3Z" fill="#2c2221"/>
    <path d="M161.04,209.25c-.14.3-.37.38-.63.56-.61-.72-1.78-.06-2.65-.28-1.84-.46-3.38-.3-5.2-.17-3.32.24-6.67.18-9.97.11-.82-.43-.19-1.97-.19-2.58.04-2.95.17-11.71-.47-13.64-.36-1.1-.12-2.55.19-3.59h18.87s.04,19.58.04,19.58ZM144.09,190.99c-.21,0-.35.26-.35.59l-.02,5.51c-.58-.2-.64.46-.64.87s.06,1.08.64.87c-.04.27-.02.58,0,.85-.33-.2-.51.12-.56.3-.05.21-.32,3.01.56,2.42-.03.39,0,.79,0,1.18-.41-.2-.62.19-.62.55s.21.75.62.55v1.83c-1.02-.2-.64,1.93.29,1.95,3.73.06,10.87.28,14.44-.26.25-.04.82.1,1.22-.15l.03-16.41c.23.07.52-.97.27-.97l-15.52-.05c-.24.08-.49.18-.35.36Z" fill="#141313"/>
    <path d="M160.41,209.81c-1.32.89-2.99.11-4.6.06-4.28-.14-8.71.78-13.09-.04-.47-.09-.88-.45-.89-1-.11-5.09.21-10.05-.27-14.96-.02-.23.25-.46.38-.61.64,1.93.51,10.69.47,13.64,0,.61-.64,2.15.19,2.58,3.29.07,6.64.14,9.97-.11,1.81-.13,3.35-.29,5.2.17.88.22,2.04-.44,2.65.28Z" fill="#493626"/>
    <path d="M161.65,203.98v.65c0,.22.16.46.13.68-.38,2.15.36,4.01-.74,3.94l-.04-19.59h-18.87c.11-.35.41-.68.99-.67l17.52.1c.81,0,1.04,1.55,1.04,2.23l-.02,12.67Z" fill="#493626"/>
    <path d="M144.8,131.39c.2.32.54.57.62.97.11.51.37,1.1.97,1.04,0,.1,0,.2.02.29.08.4.26.93.67.95h.24c-.02.3.1.58.39.68l.02.33c0,.19.11.34.32.31l3.43,4.71,9.21,13.51,2.79,4.08c.43.63.73,1.29,1.39,1.51.03.07,0,.18.01.26.05.78.53,1.44,1.28,1.65.04.08,0,.2.02.29.06.76.67,1.28,1.29,1.66.04.08,0,.2.02.29.17.7.73,1.23,1.29,1.66.04.08-.02.21.01.29.2.47.38,1.1.96,1.08.01.08.01.17.01.25,0,.56.35,1.09.95,1.05.01.08-.03.19,0,.27.06.15.2.25.33.31l.02.29c.06.43.33.78.68,1.02-.14.36.1.86-.01,1.24-.27-.03-.55.08-.64.36-.09,0-.19,0-.28,0h-60.56c-4.13-4.76-7.54-10.07-11.26-15.36l-10.87-15.45c-.34-.48-.57-.89-.65-1.35-.09-.51-.37-1.1-.96-1.05,0-.08.03-.21-.01-.29-.33-.65-.44-1.67-1.29-1.66v-.29c-.03-.4-.28-.8-.68-.95-.07-.03-.17.01-.24,0,.02-.29-.11-.57-.39-.67,0-.1,0-.22-.02-.33-.07-.4-.26-.8-.65-.94-.07-.03-.17.01-.24,0,.02-.29-.11-.57-.38-.68,0-.1.01-.23-.02-.33-.04-.14-.11-.43-.31-.33-.02-.35-.17-1.26.34-1.27l60.46-.03c.87,0,1.35.1,1.73.64ZM113.8,132.11l-13.63.06-1.61-.05-14.35.11,8.47,11.55c.29.39.32,1.29,1.02,1.34,2.35,4.01,5.24,8.03,8.15,11.69.23.3.3.64.59.96l.63.71c1.47,2.52,3.32,5.18,5.19,7.43.88,1.07,1.36,3.38,3.06,3.86,2.14.61,4.75-.13,7.08.17,2.06.27,3.97.27,5.86.12.5-.04,1.06.32,1.58.09l.37-.34,2.91.31,9.79.04c.49,0,.72-.4.64-.7.35.51,1.04.8,1.61.69.23-.04.47-.14.66-.27l7.13.12c2.1.04,4.23.15,6.17-.17.45.44,1.12.27,1.71.27,4.09.04,8.18.18,12.52-.06l-6.99-10.71c-.33-.5-.87-.88-1.36-.9,0-.12,0-.25,0-.37v-.56c0-.31-.38-.42-.66-.42-.11-.11-.22-.2-.36-.28.02-.9-.68-1.5-1.21-2.28-2.21-3.26-4.34-6.41-6.63-9.44.02-.57-.55-1.6-1.24-1.6.09-.66-.37-1.18-.79-1.79l-4.92-7.13c-.65-.95-1.1-2.01-2.08-2.46.08-.39-.42-.45-.37-.03h-3.83c.05-.42-.49-.4-.41.02-2.17.05-4.37.19-6.53.04l-.86-.06c.21-.61-.42-.68-.86-.69s-1.05.08-.86.69l-12.91.03c-.08-.07-.17-.2-.3-.24-.19-.05-.35.13-.46.27l-.54-.06c.21-.63-.36-.69-.86-.67-.4.02-.74.26-.53.72Z" fill="#2c2221"/>
    <path d="M170.81,171.75c.18.27,0,.56-.42.67h-59.43c-.39,0-.6-.05-.63-.21l-.08-.45h60.56Z" fill="#a16943"/>
    <path d="M144.8,131.39c-.38-.54-.86-.64-1.73-.64l-60.46.03c-.13-.18.09-.3.42-.34h61c.71,0,.61.7.78.95Z" fill="#493626"/>
    <path d="M164.87,159.77c-.66-.23-.96-.88-1.39-1.51l-2.79-4.08c.62-.36,3.96,5.11,4.19,5.59Z" fill="#a16943"/>
    <path d="M166.17,161.68c-.76-.21-1.24-.87-1.28-1.65.85-.04.96,1,1.28,1.65Z" fill="#a16943"/>
    <path d="M167.47,163.63c-.62-.38-1.23-.9-1.29-1.66.85-.02.96,1,1.29,1.66Z" fill="#a16943"/>
    <path d="M170.71,168.26c-.59.04-.95-.5-.95-1.05.62-.12.87.52.95,1.05Z" fill="#a16943"/>
    <path d="M169.75,166.95c-.59.02-.76-.61-.96-1.08.62-.07.87.55.96,1.08Z" fill="#a16943"/>
    <path d="M171.74,170.15c-.35-.24-.63-.59-.68-1.02.28.04.5.15.77.42.21.23.01.34-.09.6Z" fill="#a16943"/>
    <path d="M146.39,133.4c-.6.07-.86-.52-.97-1.04.5.15.97.47.97,1.04Z" fill="#493626"/>
    <path d="M86.5,138.25c-.57-.42-1.26-.95-1.29-1.66.85-.02.96,1.01,1.29,1.66Z" fill="#493626"/>
    <path d="M87.47,139.58c-.51-.15-.97-.48-.96-1.05.59-.06.87.53.96,1.05Z" fill="#493626"/>
    <path d="M168.77,165.58c-.56-.43-1.12-.95-1.29-1.66.85-.02.96,1.01,1.29,1.66Z" fill="#a16943"/>
    <path d="M85.19,136.3c-.42-.13-.66-.52-.66-.95.4.15.65.55.66.95Z" fill="#493626"/>
    <path d="M147.71,135.32c-.28-.1-.41-.39-.39-.67.3.01.38.39.39.67Z" fill="#493626"/>
    <path d="M84.29,135.34c-.3-.09-.4-.39-.39-.67.28.1.41.39.39.67Z" fill="#493626"/>
    <path d="M147.08,134.64c-.41-.02-.59-.55-.67-.95.42.13.67.52.67.95Z" fill="#493626"/>
    <path d="M83.88,134.34c-.42-.12-.65-.52-.65-.94.4.15.58.55.65.94Z" fill="#493626"/>
    <path d="M82.99,133.39c-.3-.08-.39-.39-.38-.68.28.11.41.39.38.68Z" fill="#493626"/>
    <path d="M171.73,171.39c-.04.14-.03.31-.18.35-.17.04-.33.02-.46,0,.09-.28.37-.38.64-.36Z" fill="#a16943"/>
    <path d="M171.05,168.84c-.14-.06-.28-.16-.33-.31.12.1.23.2.33.31Z" fill="#a16943"/>
    <path d="M148.05,135.96c-.21.03-.31-.11-.32-.31.1.11.24.19.32.31Z" fill="#493626"/>
    <path d="M82.58,132.38c-.19.03-.3-.18-.31-.33.2-.1.26.19.31.33Z" fill="#493626"/>
    <path d="M162.65,188.99c-1.61-3.17-3.33-1.4-3.31-3.72,0-.54.64-.55,1.14-.91,2.7-1.92,4.96-.47,8.6-1.3.27-1.53-.3-2.96.32-4.5l-.03,13.73c-3.89-3.24-5.45-.84-6.71-3.31Z" fill="#bdd0d7"/>
    <path d="M169.26,200.39c-.21-.7-.24-1.4,0-2.3.32.59.31,1.23,0,2.3Z" fill="#bdd0d7"/>
    <path d="M161.65,204.63v-.65c.24.04.99-.2.99.33s-.74.29-.99.33Z" fill="#bdd0d7"/>
    <path d="M169.49,206.15c.04.84-.35.93-.4.18.04-.37.22-.52.4-.18Z" fill="#bdd0d7"/>
    <circle cx="169.3" cy="202.02" r=".21" fill="#bdd0d7"/>
    <path d="M169.55,195.87c0-.36,0-.42-.01-.36s-.01.24.01.36Z" fill="#bdd0d7"/>
    <circle cx="169.3" cy="193.56" r=".21" fill="#bdd0d7"/>
    <circle cx="169.3" cy="204.14" r=".16" fill="#bdd0d7"/>
    <path d="M123.63,189.01c-.88,0-1.77-.03-2.65,0-.63-1.01,2.33-.64,2.4-.62.19.05.42.32.26.62Z" fill="#adc1c9"/>
    <path d="M83.92,187.09c.92,2.87-.12,6.03.31,9.01-.8-.79,0,8.48-.01,6.63v16.8c-.5,1.31-.5,3.05.01,4.35l-.07,3.2-19.43.02-.02-17.22v-8.57l.03-13.89,14.2-.18c1.74-.02,3.36-.35,4.97-.16Z" fill="#a16943"/>
    <path d="M83.92,187.09c-1.61-.19-3.24.14-4.97.16l-14.2.18c0-.13-.07-.62.09-.68l18.74-.03c.24.09.48.19.35.37Z" fill="#493626"/>
    <path d="M64.71,201.32v8.57c-.19.19-.62-.06-.62-.37v-7.82c0-.31.42-.56.62-.37Z" fill="#493626"/>
    <path d="M84.22,202.73c0,1.85-.79-7.42.01-6.63.13.91.89,5.95-.01,6.63Z" fill="#493626"/>
    <path d="M84.23,223.89c-.51-1.31-.51-3.05,0-4.35.68,1.31.48,3.03,0,4.35Z" fill="#493626"/>
    <rect x="115.44" y="190.92" width="16.01" height="17.29" fill="#73bdda"/>
    <path d="M159.69,191.65l-.03,16.41c-.4.25-.97.11-1.22.15l-14.29-.08c-.53,0-.41-1.39-.45-1.61v-2.93c0-.39-.04-.79,0-1.18.08-.91.08-1.82,0-2.73-.02-.27-.04-.59,0-.85.09-.59,0-1.16,0-1.75l.02-5.51c0-.33.14-.59.35-.59l14.93-.03c.43,0,.64.47.67.68Z" fill="#73bdda"/>
    <path d="M143.72,206.52c.04.22-.08,1.61.45,1.61l14.29.08c-3.57.55-10.71.33-14.44.26-.93-.02-1.31-2.15-.29-1.95Z" fill="#493626"/>
    <path d="M159.69,191.65c-.03-.21-.24-.68-.67-.68l-14.93.03c-.14-.18.11-.28.35-.36l15.52.05c.25,0-.04,1.03-.27.97Z" fill="#493626"/>
    <path d="M143.72,199.69c.07.91.08,1.82,0,2.73-.88.58-.61-2.21-.56-2.42.05-.19.23-.5.56-.3Z" fill="#493626"/>
    <path d="M143.72,197.08c0,.58.09,1.16,0,1.75-.58.21-.64-.46-.64-.87s.06-1.08.64-.87Z" fill="#493626"/>
    <path d="M143.71,203.59v1.1c-.41.2-.62-.19-.62-.55s.21-.75.62-.55Z" fill="#493626"/>
    <path d="M100.17,132.17c.09.75.6,1.38,1.01,2.14l6.55,9.18,13.77-.03-6.86-10.2c-.26-.39-.52-.68-.43-1.09l.99-.1.54.06.3.32c2.88,3.03,4.77,7.24,7.29,11.01,2.2.11,4.17.06,6.18.05l7.83-.05c-1-2.08-2.45-3.53-3.65-5.17.63.86-4.19-6.45-3.79-6.13l1.23-.1.86.06c.02.09-.02.21.01.3.51,1.56,1.56,2.97,2.67,4.18.15.16.13.5.32.66.12.1.14.3.3.37,1.04,1.92,2.31,3.71,3.59,5.48.24.34.29.68.97.69l8.75.05c.98,0,1.94.3,2.97.42-2,.45-4.05-.05-6.21.21-1.48.18-2.87.38-4.24.33h-.56c-.17.02-.39-.1-.55-.05-.8.25.5,1.75,1.17,1.96.35.34.55.79.65,1.27.07.33.32.59.62.71.49.24.66.74.72,1.24s.48.84.92,1.01c.17.29.27.61.34.94.22.6.7,1.05,1.25,1.36.09.31.22.6.33.91.12.32.32.61.67.7.18.3.23.62.34.94.25.78.71,1.02,1.29,1.02h9.37c.35.54,1.24.42,1.68.01l.59-.03c.13.08.25.17.36.28.08.29.36.45.65.42v.56s-2.6.04-2.6.04c.05-.3-.26-.34-.49-.34s-.54.04-.49.34h-1.01s-1.89-.02-1.89-.02c-1.17-.51-2.79-.51-3.96,0h-.6s-.68.03-.68.03c-.07-.13-.08-.32-.2-.33-.34-.05-.64.27-.45.51.24.29.43.29.67.23l1.93,3.16c.33.55.56,1.39,1.27,1.38.23.34.28.83.39,1.21.12.44.42.77.91.74.17.39.29.8.38,1.21.32.63.8,1.17,1.31,1.66.01.1-.03.24.01.33.33.61.77,1.2,1.29,1.66v.25c-.58,0-1.25.17-1.7-.27l-.02-.63c-.01-.35-.3-.61-.64-.68-.31-.37-.54-.8-.64-1.27-.07-.34-.32-.61-.66-.68-.2-.32-.44-.61-.59-.96-.14-.65-.46-1.27-1.05-1.62l-.03-.27-2.11-3.1c-.58-.86-.72-1.87-1.75-2.18-.09-.11-.19-.21-.3-.3.12-.32-.25-.41-.48-.37-.19.03-.66.03-.53.34h-.57c.08-.31-.37-.31-.55-.32-.28-.03-.83-.08-.83.31-.31,0-.61,0-.92,0,.11-.3-.33-.31-.52-.31s-.63,0-.52.31c-.2,0-.4-.01-.59,0-.33-.5-1.35-.49-1.68,0h-6.06c-.11-.18-.38-.49-.59-.3-.26.23-.2.64-.13.8.07.19.42.41.63.22.2.56.62.97.74,1.54.13.63.7,1.05,1.24,1.34.18.29.25.62.34.94.13.47.51.8.92,1.04.09.19.33.34.33.59.01.62.58.95.97,1.36l.3.3c.02.27.14.53.4.65.01.1-.03.24.02.33.31.61.76,1.16,1.29,1.61h.23c.03.57.23,1.11.37,1.65-.58.11-1.26-.18-1.61-.69-.23-.33-.22-.88-.38-1.25-.25-.59-.68-1.07-1.28-1.33-.08-.12-.21-.2-.28-.32.25-.83-.58-1.24-1.03-1.9s-.51-1.5-1.26-1.71l-.34-.56c-.09-.92-.75-1.72-1.62-2.04-.05-.19,0-.41-.04-.6.27.29-2.25-3.46-1.61-1.67-.65.06-1.31-.08-1.96-.05.05-.38.08-.77.04-1.16.31-.04.67,0,1-.36l-.71-1.27c-.17-.3-.25-.64-.62-.76-.44-.26-.61-.75-.69-1.24-.13-.48-.5-.84-.96-1.01-.27-.4-.51-.8-.64-1.27s-.53-.82-.97-1.01c-.04-.08,0-.2-.02-.28.06-.8-.66-1.27-1.25-1.69-.68-.89-1.17-1.89-2.14-2.88h-13.92s8.23,11.66,8.23,11.66c1.84.87,4.03.07,6.17.4.24-.09.51-.17.37-.35l5.2.04c-.02.22.04.54-.09.71-.28.38-2.03.13-1.59.5h-4.5c-.47-.5-1.54-.5-2.01,0h-2.16c-.14-.11-.36-.54-.59-.3-.25.25-.2.64-.13.81.08.19.43.36.63.19.3.66.86,1.17,1.01,1.89.1.48.54.83.96,1.02.16.29.26.61.34.94.12.48.52.82.97,1,.11.09.16.25.28.32-.08.32.18.47.35.66.67.77,1.4,1.56,1.65,2.57.12.48.53.82.97,1.01.1.1.17.23.28.32-.07.62.26,1.16.62,1.64-.52.23-1.07-.13-1.58-.09-.08-.84-.82-1.37-1.01-2.17-.08-.33-.32-.61-.65-.68-.28-.4-.53-.79-.65-1.27s-.53-.79-.93-1.04c-.1-.06-.24-.2-.3-.3.05-1.05-.87-1.73-1.67-2.29l-.04-.6c-.02-.34-.31-.59-.62-.7-.1-.19-.34-.32-.35-.56,0-.16.03-.34-.04-.51-.09-.23-.36-.35-.6-.21,0-.08,0-.17-.01-.25-.05-.35-.31-.61-.65-.71-.04-.12-.27-.21-.29-.33-.12-1.18-1.91-.78-2.68-.35h-.88c.08-.32-.36-.31-.53-.31-.29-.02-.83-.08-.82.31-.31-.01-.61,0-.92,0-1.16-.52-2.79-.51-3.96,0h-1.24c-.81-.65-1.98-.17-2.98-.3-.29-.32-.35-.67-.59-.96l13.2-.15-8.01-11.58-13.35.04c-.7-.05-.73-.94-1.02-1.34,3.31-.72,9.28.14,13.18-.43l-7.08-10.16c-.25-.36-.19-.79-.22-1.07l1.61.05ZM125.57,146.4l.66,1.58c.13.31.32.61.66.68.31.37.55.8.65,1.27.07.33.31.59.62.7.54.22.57.77.69,1.25.16.62.75,1.04,1.27,1.34.09.17,0,.43.07.61.21.59.51,1.3,1.21,1.34.06.32.64.56.64.95,0,.13,0,.29.07.45.05.1.19.16.33.17l1.53.06c-1.22.46,6.49.45,5.26,0l6.81-.03c.14-.87-.57-1.24-.68-1.91-.06-.33-.33-.61-.65-.69-.14-.3-.28-.6-.34-.94-.06-.36-.34-.53-.62-.71-.53-.33-.82-.92-.97-1.51.06-.61-.43-.96-.98-1.09-.06-.18-.01-.41-.04-.6-.1-.67-.61-1.17-1.26-1.35-.06-.19.03-.43-.04-.61-.25-.59-.57-1.24-1.25-1.34-.36-.29-.57-.72-.97-.96.14-.18-.12-.28-.36-.32h-10.38c-.24,0-.51.09-.37.28h-.59c-.65-.44-1.47-.33-2.22-.02.38.71.66,1.24,1.23,1.37Z" fill="#e3e9ec"/>
    <path d="M120.65,158.08h2.01s4.5,0,4.5,0c.86,0,1.72-.01,2.59-.05.65-.03,1.31.12,1.96.05.63.49.89,1.32,1.61,1.67.04.19-.01.41.04.6.24.9,1.17,1.27,1.62,2.04l.34.56c.74,1.24,1.54,2.39,2.29,3.61.07.12.2.21.28.32.35.51.74,1.02,1.28,1.33.16.37.15.92.38,1.25.08.3-.15.71-.64.7l-9.79-.04-2.91-.31c-.28-.48-.58-.94-.99-1.31-.11-.09-.18-.22-.28-.32-.24-.41-.53-.8-.97-1.01-.24-1.01-.98-1.79-1.65-2.57.03-.28-.11-.52-.35-.66-.12-.07-.18-.24-.28-.32-.24-.4-.54-.79-.97-1-.08-.32-.18-.64-.34-.94-.23-.42-.53-.81-.96-1.02-.15-.72-.7-1.22-1.01-1.89l.09-.7h2.16Z" fill="#2e5b94"/>
    <path d="M140.16,158.08c.56,0,1.12.03,1.68,0,.2-.01.4,0,.59,0h1.03c.31,0,.61,0,.92,0l1.38.02h.57c.34,0,.67,0,1.01.03.11.09.21.19.3.3.34.47,3.01,5.85,3.85,5.28l.03.27c.06.64.54,1.2,1.05,1.62.15.35.39.64.59.96.17.27.33.57.66.68.11.47.33.9.64,1.27.14.29.34.56.64.68l.02.63c-1.95.32-4.07.21-6.17.17l-7.13-.12-1.03-1.38h-.23c-.06-.75-.7-1.22-1.29-1.61-.04-.09,0-.23-.02-.33-.04-.27-.21-.46-.4-.65l-.3-.3c-.27-.49-.54-1-.97-1.36,0-.25-.24-.4-.33-.59-.21-.43-.46-.85-.92-1.04-.09-.32-.17-.65-.34-.94-.32-.52-.73-1-1.24-1.34-.12-.57-.54-.99-.74-1.54l.09-.71h6.06Z" fill="#2e5b94"/>
    <path d="M101.85,156.81c-2.91-3.66-5.81-7.68-8.15-11.69l13.35-.04,8.01,11.58-13.2.15Z" fill="#628abd"/>
    <path d="M113.8,132.11c.13,0,.27.07.4.05-.09.41.17.7.43,1.09l6.86,10.2-13.77.03-6.55-9.18c-.41-.76-.92-1.39-1.01-2.14l13.63-.06Z" fill="#628abd"/>
    <path d="M98.56,132.12c.03.29-.03.71.22,1.07l7.08,10.16c-3.9.57-9.87-.29-13.18.43l-8.47-11.55,14.35-.11Z" fill="#628abd"/>
    <path d="M150.57,158.07c1.32-.03,2.64,0,3.96,0h1.89c-.68.53,4.09.33,4.59.35s1.03.4,1.36.9l6.99,10.71c-4.34.25-8.43.11-12.52.06v-.25c-.02-.77-.54-1.45-1.3-1.66-.05-.08,0-.23-.01-.33-.08-.77-.56-1.43-1.31-1.66-.1-.41-.21-.82-.38-1.21s-.53-.62-.91-.74c-.11-.38-.16-.87-.39-1.21-.35-.52-.74-1.06-1.27-1.38l-1.93-3.16c.24-.06.73-.04.66-.42h.6Z" fill="#2e5b94"/>
    <path d="M141.14,144.8c3.58-.08,7.34.05,11.02.26,2.29,3.03,4.42,6.18,6.63,9.44.53.78,1.23,1.38,1.21,2.28l-.59.03c-.56-.05-1.12,0-1.68,0h-9.37c-.4-.39-.76-.84-1.29-1.03-.1-.32-.16-.64-.34-.94s-.33-.59-.67-.7c-.11-.3-.24-.6-.33-.91-.29-.56-.71-1.04-1.25-1.36-.07-.33-.17-.65-.34-.94-.23-.4-.51-.78-.92-1.01-.07-.51-.24-1.01-.72-1.24-.12-.31-.31-.58-.62-.71-.1-.48-.3-.92-.65-1.27-.51-.51-.82-1.18-.62-1.9h.56Z" fill="#2e5b94"/>
    <path d="M129.42,132.07c.16,0,.33.11.49.1-.4-.32,4.42,6.99,3.79,6.13l-3.25,3.51c-.49.53-.89,1.09-.94,1.71-2,.01-3.97.06-6.18-.05-2.52-3.77-4.41-7.98-7.29-11.01.16-.1.32-.22.46-.35l12.91-.03Z" fill="#628abd"/>
    <path d="M138.53,132.08h.41s3.83-.02,3.83-.02c.11,0,.27-.02.37.03.98.45,1.43,1.52,2.08,2.46l4.92,7.13c.41.6.87,1.12.79,1.79h-10.74c-.54,0-.97-.12-1.28-.35-1.28-1.77-2.55-3.56-3.59-5.48-.08-.14-.2-.25-.3-.37-.19-.16-.17-.5-.32-.66,1.5-1.06,2.46-2.71,3.49-4.1l-6.16-.08c-.03-.09,0-.2-.01-.3,2.16.14,4.36.01,6.53-.04Z" fill="#2e5b94"/>
    <path d="M117.39,159.47c.01.08.01.17.01.25,0,.22.05.46.22.66.11.13.24.22.41.07.01.24.25.38.35.56.15.29.28.6.62.7l.04.6c.55.78,1.2,1.46,1.67,2.29.06.1.2.24.3.3.17.45.49.84.93,1.04.12.48.37.87.65,1.27.19.26.31.59.65.68.19.8.93,1.33,1.01,2.17-1.9.15-3.8.15-5.86-.12-2.33-.3-4.94.44-7.08-.17-1.69-.48-2.18-2.79-3.06-3.86,1.26.27,2.17-.71,3.25-1.35,2.23-1.32,3.89-3.06,5.28-5.12l.6.02Z" fill="#2e5b94"/>
    <path d="M105.42,158.07h1.24c1.32,0,2.64.03,3.96,0,.31,0,.61-.01.92,0,.45.02.9,0,1.36,0h.88c.75.62,1.77.26,2.68.35.01.12.25.21.29.33l.05.69c-1.39,2.06-3.05,3.8-5.28,5.12-1.08.64-1.99,1.62-3.25,1.35-1.86-2.25-3.72-4.92-5.19-7.43.68-.5,1.55-.4,2.35-.4Z" fill="#628abd"/>
    <path d="M150.92,143.46c.69,0,1.26,1.03,1.24,1.6-3.68-.21-7.44-.34-11.02-.26,1.38.05,2.76-.15,4.24-.33,2.16-.26,4.21.24,6.21-.21-1.04-.12-1.99-.41-2.97-.42l-8.75-.05c-.69,0-.73-.35-.97-.69.31.24.74.36,1.28.36h10.74Z" fill="#bdd0d7"/>
    <path d="M157.43,158.1h.98l2.61-.04c0,.12-.01.25,0,.37-.49-.02-5.27.18-4.59-.33h1.01Z" fill="#628abd"/>
    <path d="M105.42,158.07c-.8,0-1.67-.1-2.35.4l-.63-.71c1,.13,2.17-.35,2.98.3Z" fill="#bdd0d7"/>
    <path d="M131.14,132.06l-1.23.1c-.16.01-.33-.1-.49-.1-.2-.61.4-.7.86-.69s1.08.08.86.69Z" fill="#493626"/>
    <path d="M115.19,132.07l-.99.1c-.13.01-.27-.05-.4-.05-.22-.46.13-.7.53-.72.5-.02,1.08.04.86.67Z" fill="#493626"/>
    <path d="M126.21,169.81l-.37.34c-.37-.48-.69-1.02-.62-1.64.42.37.72.83.99,1.31Z" fill="#bdd0d7"/>
    <path d="M141.82,169.87c-.19.13-.43.23-.66.27-.14-.55-.34-1.08-.37-1.65l1.03,1.38Z" fill="#bdd0d7"/>
    <path d="M116.5,132.1c-.14.13-.3.25-.46.35l-.3-.32c.11-.13.28-.31.46-.27.13.03.22.16.3.24Z" fill="#493626"/>
    <path d="M161,157.49c-.3.03-.57-.13-.65-.42.27,0,.65.12.65.42Z" fill="#bdd0d7"/>
    <path d="M143.13,132.08c-.1-.04-.26-.03-.37-.03-.05-.43.45-.37.37.03Z" fill="#493626"/>
    <path d="M138.94,132.07h-.41c-.07-.41.46-.43.41,0Z" fill="#493626"/>
    <path d="M126.56,145.06h.59s11.1.03,11.1.03c.4.24.61.67.97.96-.03.72.76.94,1.25,1.34.08.18-.01.42.04.61.19.62.63,1.14,1.26,1.35.03.19-.02.42.04.6.16.49.41,1.07.98,1.09.15.59.45,1.18.97,1.51.1.32.3.6.62.71.06.33.2.63.34.94s.32.58.65.69c.11.67.82,1.04.68,1.91l-6.81.03h-5.26s-1.53-.07-1.53-.07c0-.27-.11-.58-.41-.61,0-.39-.57-.63-.64-.95-.13-.66-.67-.96-1.21-1.34-.06-.18.02-.44-.07-.61-.3-.54-.74-1.02-1.27-1.34-.12-.48-.15-1.03-.69-1.25-.12-.3-.31-.58-.62-.7-.1-.48-.34-.9-.65-1.27-.14-.29-.35-.56-.66-.68l-.66-1.58c-.15-.31-.28-.73.05-1.07.19-.2.61-.24.94-.27Z" fill="#2e5b94"/>
    <path d="M124.92,147.98c.11.23.18.47.31.68-.94-.41-6.63,7.01-7.35,8.02l-.78.08-8.23-11.65h13.92c.97.98,1.46,1.98,2.14,2.87Z" fill="#628abd"/>
    <path d="M125.23,148.66c.23.41.46.88.95,1.01.03.08-.03.21.02.28.23.42.53.81.97,1.01.13.47.38.87.64,1.27s.51.81.96,1.01c.08.48.25.97.69,1.24.14.3.35.56.62.76l.71,1.27c-.32.36-.69.33-1,.36h-.95s-5.2-.05-5.2-.05c-1.92-.02-3.89-.33-5.76-.13.72-1.01,6.42-8.43,7.35-8.02Z" fill="#2e5b94"/>
    <path d="M129.51,143.51c.05-.62.45-1.18.94-1.71l3.25-3.51c1.2,1.63,2.65,3.09,3.65,5.17l-7.83.05Z" fill="#2e5b94"/>
    <path d="M134.68,136.59c-1.11-1.2-2.16-2.61-2.67-4.18l6.16.08c-1.03,1.39-1.99,3.04-3.49,4.1Z" fill="#628abd"/>
    <path d="M138.25,145.09l-11.1-.04c-.14-.19.12-.28.37-.28h10.38c.23.04.5.14.36.32Z" fill="#bdd0d7"/>
    <path d="M117.87,156.68c1.87-.19,3.84.12,5.76.13.14.18-.13.26-.37.35-2.14-.33-4.33.47-6.17-.4l.78-.08Z" fill="#bdd0d7"/>
    <path d="M126.56,145.06c-.33.03-.75.07-.94.27-.33.35-.2.76-.05,1.07-.57-.13-.85-.67-1.23-1.37.76-.31,1.57-.42,2.22.03Z" fill="#bdd0d7"/>
    <path d="M129.78,156.87c.05.39.01.77-.04,1.16-.87.03-1.72.05-2.59.05-.44-.38,1.3-.12,1.59-.5.13-.17.07-.49.09-.71h.95Z" fill="#bdd0d7"/>
    <path d="M139.24,156.82c1.23.45-6.48.45-5.26,0h5.26Z" fill="#bdd0d7"/>
    <path d="M116.46,158.43c-.91-.09-1.93.28-2.68-.35.77-.43,2.56-.83,2.68.35Z" fill="#bdd0d7"/>
    <path d="M154.53,158.08c-1.32-.01-2.64-.03-3.96,0,1.17-.5,2.79-.51,3.96,0Z" fill="#bdd0d7"/>
    <path d="M110.62,158.08c-1.32.03-2.64,0-3.96,0,1.17-.51,2.79-.51,3.96,0Z" fill="#bdd0d7"/>
    <path d="M151.49,163.71c-.84.57-3.52-4.81-3.85-5.28,1.03.32,1.16,1.33,1.75,2.18l2.11,3.1Z" fill="#bdd0d7"/>
    <path d="M140.58,144.82c-.2.72.1,1.39.62,1.9-.67-.21-1.97-1.71-1.17-1.96.17-.05.38.06.55.06Z" fill="#bdd0d7"/>
    <path d="M134.1,158.09l-.09.71c-.2.2-.55-.03-.63-.22-.06-.17-.12-.57.13-.8.21-.19.48.12.59.31Z" fill="#bdd0d7"/>
    <path d="M122.66,158.08h-2.01c.47-.5,1.54-.5,2.01,0Z" fill="#bdd0d7"/>
    <path d="M118.49,158.09l-.09.7c-.2.17-.56,0-.63-.19-.07-.17-.12-.56.13-.81.23-.23.45.19.59.31Z" fill="#bdd0d7"/>
    <path d="M141.84,158.08c-.56.03-1.12,0-1.68,0,.33-.49,1.35-.5,1.68,0Z" fill="#bdd0d7"/>
    <path d="M159.41,156.82c-.44.41-1.33.53-1.68,0,.56,0,1.12-.05,1.68,0Z" fill="#bdd0d7"/>
    <path d="M126.17,149.67c-.49-.13-.71-.59-.95-1.01-.12-.22-.2-.46-.31-.68.59.42,1.32.89,1.25,1.69Z" fill="#bdd0d7"/>
    <path d="M131.41,155.18c-.69-.04-1-.75-1.21-1.34.54.38,1.07.68,1.21,1.34Z" fill="#bdd0d7"/>
    <path d="M112.9,158.08c-.45,0-.9.01-1.36,0,0-.38.54-.32.82-.31.17,0,.61,0,.53.31Z" fill="#bdd0d7"/>
    <path d="M134.98,162.39c-.46-.77-1.38-1.14-1.62-2.04.87.31,1.53,1.11,1.62,2.04Z" fill="#bdd0d7"/>
    <path d="M145.76,158.1l-1.38-.02c0-.39.55-.33.83-.31.18.02.63.01.55.33Z" fill="#bdd0d7"/>
    <path d="M149.3,158.1c.03.13-.04.3.02.4-.24.06-.43.06-.67-.23-.2-.24.11-.56.45-.51.12.02.13.2.2.33Z" fill="#bdd0d7"/>
    <path d="M141.77,149.34c-.63-.2-1.07-.72-1.26-1.35.65.17,1.16.67,1.26,1.35Z" fill="#bdd0d7"/>
    <path d="M118.04,160.44c-.17.15-.3.06-.41-.07-.18-.2-.22-.43-.22-.66.24-.13.51-.02.6.21.06.17.03.35.04.51Z" fill="#bdd0d7"/>
    <path d="M140.47,147.39c-.48-.4-1.27-.62-1.25-1.34.68.1,1,.75,1.25,1.34Z" fill="#bdd0d7"/>
    <path d="M142.79,151.03c-.57-.02-.82-.6-.98-1.09.55.13,1.03.48.98,1.09Z" fill="#bdd0d7"/>
    <path d="M120.72,164.59c-.47-.82-1.12-1.51-1.67-2.29.8.56,1.72,1.24,1.67,2.29Z" fill="#bdd0d7"/>
    <path d="M137.6,166.56c-.75-1.22-1.55-2.37-2.29-3.61.75.21.82,1.07,1.26,1.71s1.28,1.07,1.03,1.9Z" fill="#bdd0d7"/>
    <path d="M148.35,156.81c-.58,0-1.04-.24-1.29-1.02.53.19.89.64,1.29,1.02Z" fill="#bdd0d7"/>
    <path d="M156.82,169.84c-.53-.46-.96-1.05-1.29-1.66.76.21,1.27.89,1.29,1.66Z" fill="#bdd0d7"/>
    <path d="M143.47,158.08h-1.03c-.11-.31.33-.31.52-.31s.63,0,.52.31Z" fill="#bdd0d7"/>
    <path d="M147.34,158.13c-.34-.02-.67-.03-1.01-.03-.14-.31.33-.31.53-.34.23-.03.6.05.48.37Z" fill="#bdd0d7"/>
    <path d="M158.4,158.1h-.98c-.05-.3.26-.34.49-.34s.54.04.49.34Z" fill="#bdd0d7"/>
    <path d="M117.39,159.47l-.6-.02-.05-.69c.34.1.6.35.65.71Z" fill="#bdd0d7"/>
    <path d="M155.51,167.86c-.51-.49-.99-1.03-1.31-1.66.75.23,1.23.89,1.31,1.66Z" fill="#bdd0d7"/>
    <path d="M152.56,165.6c-.5-.42-.99-.98-1.05-1.62.58.34.91.97,1.05,1.62Z" fill="#bdd0d7"/>
    <path d="M139.25,166.56c-.25-.12-.37-.38-.4-.65.18.19.36.37.4.65Z" fill="#bdd0d7"/>
    <path d="M153.82,164.99c-.49.03-.79-.3-.91-.74.39.13.75.36.91.74Z" fill="#bdd0d7"/>
    <path d="M149.97,158.08c.07.37-.42.36-.66.42-.07-.11,0-.28-.02-.4h.68Z" fill="#628abd"/>
    <path d="M133.31,159.75c-.72-.35-.98-1.17-1.61-1.67-.64-1.8,1.88,1.95,1.61,1.67Z" fill="#bdd0d7"/>
    <path d="M140.55,168.49c-.52-.44-.97-.99-1.29-1.61.58.39,1.23.86,1.29,1.61Z" fill="#bdd0d7"/>
    <path d="M138.56,165.61c-.4-.41-.96-.74-.97-1.36.44.36.71.87.97,1.36Z" fill="#bdd0d7"/>
    <path d="M152.52,163.04c-.72,0-.94-.83-1.27-1.38.53.32.93.86,1.27,1.38Z" fill="#bdd0d7"/>
    <path d="M122.32,164.61c-.17-.2-.43-.34-.35-.66.24.15.38.38.35.66Z" fill="#bdd0d7"/>
    <path d="M132.45,156.75c-.15,0-.29-.06-.33-.17-.07-.16-.08-.32-.07-.45.3.04.41.34.41.61Z" fill="#bdd0d7"/>
    <path d="M127.16,150.97c-.44-.21-.74-.59-.97-1.01.44.19.83.54.97,1.01Z" fill="#bdd0d7"/>
    <path d="M155.1,169.19c-.3-.12-.5-.39-.64-.68.34.06.63.33.64.68Z" fill="#bdd0d7"/>
    <path d="M128.17,150.64c-.31-.12-.55-.37-.62-.7.31.12.5.4.62.7Z" fill="#bdd0d7"/>
    <path d="M139.17,168.21c-.54-.31-.93-.82-1.28-1.33.6.26,1.03.74,1.28,1.33Z" fill="#bdd0d7"/>
    <path d="M124.93,168.18c-.44-.19-.85-.52-.97-1.01.43.21.73.59.97,1.01Z" fill="#bdd0d7"/>
    <path d="M142.48,148.69c-.31-.12-.56-.38-.62-.71.31.13.51.4.62.71Z" fill="#bdd0d7"/>
    <path d="M126.9,148.66c-.34-.08-.53-.37-.66-.68.31.12.52.39.66.68Z" fill="#bdd0d7"/>
    <path d="M123.25,167.89c-.35-.09-.47-.42-.65-.68.34.08.57.35.65.68Z" fill="#bdd0d7"/>
    <path d="M153.82,167.24c-.33-.11-.49-.41-.66-.68.34.07.59.34.66.68Z" fill="#bdd0d7"/>
    <path d="M144.12,150.95c-.44-.17-.86-.52-.92-1.01.41.23.69.61.92,1.01Z" fill="#bdd0d7"/>
    <path d="M121.94,165.94c-.44-.21-.76-.59-.93-1.04.4.25.81.56.93,1.04Z" fill="#bdd0d7"/>
    <path d="M137.25,163.66c-.41-.24-.79-.57-.92-1.04.46.19.71.61.92,1.04Z" fill="#bdd0d7"/>
    <path d="M121.69,163.62c-.45-.18-.85-.52-.97-1,.43.21.73.6.97,1Z" fill="#bdd0d7"/>
    <path d="M135.99,161.69c-.54-.29-1.11-.71-1.24-1.34.51.34.92.82,1.24,1.34Z" fill="#bdd0d7"/>
    <path d="M135.3,137.63c-.16-.07-.18-.27-.3-.37.1.12.23.23.3.37Z" fill="#628abd"/>
    <path d="M120.38,161.69c-.43-.19-.87-.53-.96-1.02.44.21.73.6.96,1.02Z" fill="#bdd0d7"/>
    <path d="M119.01,161.7c-.34-.11-.47-.42-.62-.7.31.11.6.36.62.7Z" fill="#bdd0d7"/>
    <path d="M130.13,153.23c-.52-.3-1.11-.72-1.27-1.34.53.33.97.8,1.27,1.34Z" fill="#bdd0d7"/>
    <path d="M145.72,153.25c-.55-.31-1.04-.76-1.25-1.36.54.32.97.8,1.25,1.36Z" fill="#bdd0d7"/>
    <path d="M128.76,153.24c-.45-.2-.7-.62-.96-1.01.46.17.83.53.96,1.01Z" fill="#bdd0d7"/>
    <path d="M144.38,153.24c-.32-.11-.53-.39-.62-.71.28.18.56.34.62.71Z" fill="#bdd0d7"/>
    <path d="M130.07,155.24c-.27-.2-.47-.46-.62-.76.37.12.45.46.62.76Z" fill="#bdd0d7"/>
    <path d="M146.72,154.85c-.35-.08-.55-.37-.67-.7.34.11.5.41.67.7Z" fill="#bdd0d7"/>
    <path d="M145.37,154.87c-.33-.11-.51-.39-.65-.69.32.09.59.36.65.69Z" fill="#bdd0d7"/>
    <path d="M91.94,85.52c0,.68.54,1.42,1.21,1.87,2.49,1.64,4.89,4.22,8.03,6.62l11.99,9.16,6.03,4.7,8.37,6.31c1.91,1.44,3.53,3.07,5.44,4.6l5.56,4.45c.74.59,1.39,1.06,1.3,2h-.65c.04-.12-.09-.33-.4-.33h-67.12c-.18.35-.11.55-.08.72-1.33,2.81-3.54,5.11-5.2,7.73-.37.58-1.32.85-1.35,1.71-.01.35-.38.7-.63.89-.24.17-.25.44-.39.66-.88,1.47-2.24,2.63-2.91,4.2-.5.15-.97.47-.96,1.04,0,.1,0,.2-.01.29-.49.13-.94.45-.95,1-.56.91-1.18,1.8-1.92,2.57-.43.31-.67.79-.75,1.31-.45.16-.55.5-.61.95-.5.15-.96.47-.96,1.03,0,.1,0,.2-.02.29-.5.15-.98.45-.96,1.02,0,.09,0,.2-.01.29-.5.14-.99.44-.96,1.01,0,.09,0,.2-.01.29-.43.13-.68.53-.69.97-.11.06-.16.21-.25.29-.42.17-.71.55-.72,1.01-1.52,1.11-6.04,8.23-7.68,9.75-.61-.83-.72-2.05-.65-3.23.13-2.12-.18-4.11-.26-6.18l-.37-9.47-1.39-20.81-.38-7.5c-.04-.85-.7-7.34.11-7.16l1.17,9.31,9.47-7.07,5.6,9.91c2.34-3.3,3.58-6.49,5.65-9.5.75-.27,1.56.86,2.1,1.25,1.81,1.32,3.68,2.31,5.21,3.94.6.64,1.24,1.37,2.17,1.29l1.56-11.26,11.01,3.17-2.47-11.23c3.41-.87,6.76-1,10.18-1.37.4-.04.72-.35.56-.6-1.35-2.09-4.9-5.97-6.66-8.77.06-.52,5.49-3.73,5.68-3.16Z" fill="#fae192"/>
    <path d="M139.21,125.23h-66.27c-.31,0-.43.2-.4.33l-.93.07c-.03-.17-.1-.37.08-.72h67.12c.31,0,.44.21.4.33Z" fill="#a16943"/>
    <path d="M65.07,135.07c.03-.86.97-1.13,1.35-1.71-.15.75-.54,1.58-1.35,1.71Z" fill="#493626"/>
    <path d="M53.99,150.32c-.02-.57.46-.87.96-1.02-.1.5-.38,1.07-.96,1.02Z" fill="#493626"/>
    <path d="M54.96,149.01c0-.56.46-.88.96-1.03-.07.52-.38,1.1-.96,1.03Z" fill="#493626"/>
    <path d="M53.01,151.63c-.02-.57.46-.87.96-1.01-.11.5-.39,1.07-.96,1.01Z" fill="#493626"/>
    <path d="M60.17,141.86c0-.56.46-.89.96-1.04-.2.47-.29,1.13-.96,1.04Z" fill="#493626"/>
    <path d="M59.21,143.15c0-.54.45-.87.95-1-.11.5-.37,1.07-.95,1Z" fill="#493626"/>
    <path d="M51.34,154.19c.01-.46.3-.84.72-1.01-.08.46-.37.75-.72,1.01Z" fill="#493626"/>
    <path d="M56.53,147.03c.08-.52.32-1,.75-1.31-.04.5-.22,1.13-.75,1.31Z" fill="#493626"/>
    <path d="M52.31,152.89c.02-.44.26-.84.69-.97-.08.42-.33.76-.69.97Z" fill="#493626"/>
    <path d="M64.04,136.62c.14-.23.15-.49.39-.66-.01.27-.09.6-.39.66Z" fill="#493626"/>
    <path d="M91.94,85.52c-.18-.58-5.62,2.63-5.68,3.16,1.76,2.8,5.3,6.68,6.66,8.77.16.25-.16.55-.56.6-3.42.37-6.77.5-10.18,1.37l2.47,11.23-11.01-3.17-1.56,11.26c-.92.08-1.56-.64-2.17-1.29-1.53-1.63-3.4-2.62-5.21-3.94-.54-.4-1.36-1.52-2.1-1.25-2.07,3.01-3.31,6.19-5.65,9.5l-5.6-9.91-9.47,7.07-1.17-9.31c1.48-4.06-8.5.69-10.55.72h-.59c-.85.03,2.43-9.15,2.5-11.01l-11.28-1.53,6.79-9.37-10.23-6.07c3.4-2.06,6.55-3.63,9.51-5.84.74-.55-.48-1.57-.83-2l-5.63-7.18,11.37-1.78-2.71-10.95c4.03,1.03,7.53,2.1,11.25,2.72.74-3.84.75-7.43,1.26-11.37l9.01,6.29c.62.43.95-.03,1.21-.5l5.15-9.45,5.78,10.04c3.43-2.04,6.22-4.31,9.7-6.69l1.09,11.45,11.37-2.46-2.78,10.96,11.41,1.89c-.55,1.27-6.79,8.3-6.74,8.79s.31.79.81,1.09l8.87,5.26c-1.43,1.32-3.31,1.51-4.53,2.91ZM71.09,116.36l1.1-8.7c.08-.59.18-1.18.69-1.42.3-.14.82-.09,1.3.05l8.51,2.36c-.08-3.26-2.27-7.53-1.58-10.34,3.12-.81,6.22-1.06,9.47-1.59l-4.69-6.61c-.52-.73-1.05-1.86-.34-2.6,1.09-1.13,2.66-1.54,3.96-2.33l4.05-2.47c-1.06-1.39-8.86-4.82-8.52-6.07.11-.39.26-.84.54-1.2l5.36-6.82-9.37-1.58c-.83-.14-1.02-.89-.83-1.65l1.96-7.82c.09-.36-.03-.75-.24-.92-.23-.19-.51.15-.82.22l-5.67,1.24c-.99.22-2.95.94-3.66.1l-1.25-9.69-8.71,5.62c-1.17-1.09-4.54-8.69-5.28-8.6-.33.04-.45.16-.65.51l-4.88,8.4-8.71-5.87-1.35,9.78c-1.33.59-2.56-.04-3.84-.32l-6.78-1.46,2.09,8.71c.12.5.2.96-.05,1.25s-.6.36-1.03.42l-8.97,1.38c1.56,2.65,3.55,4.73,5.44,7.04.26.32.85,1.08.37,1.46-2.62,2.06-5.49,3.51-8.51,5.53l7.73,4.79c.42.26.88.48.96.88.31,1.41-4.67,6.39-5.73,8.66,3.2.84,7.97.56,10.26,1.71l-2.31,10.25,9.27-2.56c.63-.17,1.22.15,1.31.83l1.2,9.46,7.48-5.42c.4-.29.91-.42,1.37-.27.24.08.48.42.69.77l4.55,7.52c.92-.94,4.64-7.73,4.87-7.85,2.65-1.38,6.55,5,9.21,5.23Z" fill="#493626"/>
    <path d="M71.09,116.36c-2.65-.23-6.56-6.61-9.21-5.23-.22.12-3.95,6.91-4.87,7.85l-4.55-7.52c-.21-.35-.46-.69-.69-.77-.45-.15-.96-.02-1.37.27l-7.48,5.42-1.2-9.46c-.09-.68-.67-1-1.31-.83l-9.27,2.56,2.31-10.25c-2.29-1.16-7.07-.87-10.26-1.71,1.07-2.27,6.04-7.25,5.73-8.66-.09-.4-.55-.62-.96-.88l-7.73-4.79c3.02-2.02,5.89-3.47,8.51-5.53.48-.38-.11-1.14-.37-1.46-1.89-2.31-3.88-4.39-5.44-7.04l8.97-1.38c.43-.07.79-.13,1.03-.42s.17-.75.05-1.25l-2.09-8.71,6.78,1.46c1.28.28,2.51.91,3.84.32l1.35-9.78,8.71,5.87,4.88-8.4c.2-.35.33-.47.65-.51.74-.09,4.11,7.51,5.28,8.6l8.71-5.62,1.25,9.69c.71.84,2.67.11,3.66-.1l5.67-1.24c.31-.07.59-.41.82-.22.21.17.33.56.24.92l-1.96,7.82c-.19.76,0,1.51.83,1.65l9.37,1.58-5.36,6.82c-.28.36-.44.81-.54,1.2-.34,1.25,7.45,4.68,8.52,6.07l-4.05,2.47c-1.3.79-2.87,1.2-3.96,2.33-.71.74-.18,1.87.34,2.6l4.69,6.61c-3.24.53-6.35.78-9.47,1.59-.69,2.81,1.49,7.08,1.58,10.34l-8.51-2.36c-.48-.13-1-.19-1.3-.05-.51.23-.61.82-.69,1.42l-1.1,8.7ZM83.06,82.57c0-14.41-11.67-26.09-26.08-26.09s-26.08,11.68-26.08,26.09,11.67,26.09,26.08,26.09,26.08-11.68,26.08-26.09Z" fill="#f2a03c"/>
    <path d="M83.06,82.57c0,14.41-11.67,26.09-26.08,26.09s-26.08-11.68-26.08-26.09,11.67-26.09,26.08-26.09,26.08,11.68,26.08,26.09ZM81.64,82.62c0-13.62-11.04-24.67-24.66-24.67s-24.66,11.04-24.66,24.67,11.04,24.67,24.66,24.67,24.66-11.04,24.66-24.67Z" fill="#493626"/>
    <path d="M81.64,82.62c0,13.62-11.04,24.67-24.66,24.67s-24.66-11.04-24.66-24.67,11.04-24.67,24.66-24.67,24.66,11.04,24.66,24.67ZM69.39,92.81c5.61-6.02,7.32-14.34,5.13-22.25-.78-2.82-1.76-5.47-3.77-7.66-2.74-1.72-5.62-2.77-8.79-3.54-9.82-1.58-19.34,1.71-24.95,10.11-3.45,5.17-4.48,11.29-3.44,17.27.37,2.12.96,3.94,1.61,5.88.4,1.18.72,1.35,1.64,2.03,10.13,7.52,23.76,7.61,32.58-1.86Z" fill="#f2a03c"/>
    <path d="M69.39,92.81c-8.82,9.47-22.45,9.38-32.58,1.86-.92-.68-1.24-.85-1.64-2.03-.65-1.94-1.24-3.76-1.61-5.88-1.04-5.98-.01-12.1,3.44-17.27,5.61-8.41,15.13-11.7,24.95-10.11,3.17.76,6.05,1.82,8.79,3.54,2.01,2.19,2.99,4.84,3.77,7.66,2.2,7.91.48,16.23-5.13,22.25Z" fill="#facb32"/>
    <path d="M85.54,260.09c-.17.38-.39,1.07-1.05,1.12-.4-.07-.25-.96-.3-1.27.44-.3.88.06,1.36.15Z" fill="#e3e9ec"/>
    <path d="M139.93,259.95c-.51.53-1.35.3-2.03.34-.14-.64.33-.74.84-.72.45.02.86.03,1.19.37Z" fill="#a16943"/>
    <path d="M88.85,261.62l-.1-1.98c.26-.06.63-.08.69.16.07.26.13,1.4-.15,1.75-.09.11-.26.22-.44.07Z" fill="#e3e9ec"/>
    <path d="M83.33,259.9c-.67.05-1.34.04-2,.05.09-.7.33-.75,1.15-.7.35.02,1.04.03.85.65Z" fill="#e3e9ec"/>
    <path d="M88.51,259.64c-.55.03-1.16-.2-1.67-.01-.2-.64.36-.69.83-.69s1.07.08.84.71Z" fill="#e3e9ec"/>
    <path d="M146.41,259.89c-.21.48-.31,1.04-.73,1.4-.36-.32-.27-.73-.06-1.24.17-.41.36-.53.79-.15Z" fill="#a16943"/>
    <path d="M145.67,261.83c0,.36.14.98-.32,1.08-.23-.19-.36-.52-.26-.8.09-.25.34-.47.58-.27Z" fill="#a16943"/>
    <path d="M148.37,262.61c0-.26-.04-.75.32-.75.18.13.33.35.26.5-.12.24-.38.46-.58.25Z" fill="#a16943"/>
    <path d="M148.7,261.31c0-.25-.05-.76.31-.77.04.16.48.23.29.52-.15.22-.37.44-.59.24Z" fill="#a16943"/>
    <path d="M140.88,260.96c-.29-.11-.37-.43-.37-.71.14.08.5-.09.65.2.08.16-.12.43-.28.51Z" fill="#a16943"/>
    <path d="M74.23,259.94c-.25-.04-.52-.21-.74-.27-.07-.2.09-.35.22-.38.26-.07.39.04.48.17.12.18.19.33.05.48Z" fill="#e3e9ec"/>
    <path d="M70.96,259.67c-.04.33-.54.24-.78.27-.17-.2,0-.47.26-.64.18-.12.37.3.52.37Z" fill="#e3e9ec"/>
    <path d="M156.83,262.26c-.02.33-.49.22-.72.3-.01-.49.17-.74.42-.62.12.06.22.19.3.32Z" fill="#2c2221"/>
    <path d="M186.14,0L13.27.15C6.89.16.72,7.13.58,13.02-.19,46.03.03,78.61.03,111.24v5.21c.89,57.12-.14,114.31.5,171.77.08,7.2,7.37,13.96,14.51,13.96l169.98-.02c7.32,0,14.6-7.25,14.6-14.68l.06-273.35C199.68,7.06,191.65,0,186.14,0ZM16.02,227.21c1.21-.18,2.18.12,3.47-.34-1.8-2.97-.69-7.97,1.29-9.49.69-.53,1.1-1.67,1.99-2,.06-.17.04-.51.24-.59.19-.07.35-.08.49-.08.07,0,.17.02.23,0-.13-1.37,4.83-1.94,5.91-2.2,1.13-.27.83-4.15,1.92-3.71.03-.31.23-.59.33-.88.07-.2-.01-.48.21-.68.11-.09.26-.14.42-.05v-.24c.01-.22.02-.49.24-.62.13-.07.3-.08.44-.11.48-.74,1.21-1.42,1.92-1.91.06-.17.04-.51.24-.59.18-.07.34-.09.48-.08.08,0,.16-.02.24,0-.18-.26.05-.47.25-.56.17-.08.35-.02.49-.07.39-.13.79-.27,1.19-.37-.41-.92,3.51-1.52,4.26-1.51,1.01,0,1.96.49,2.87-.08l.13-12.42v-6.71c0-1.27-.06-2.52-.11-4.01-.74.1-10.95,1.05-9.75-.28-.1-.09-.19-.18-.28-.28-.19-.01-.59,0-.64-.21-.06-.27-.11-.66.16-.76.12-.04.29-.08.46-.11.04-.1.03-.22.08-.31.19-.35.4-.74.8-.85.06-.14.11-.29.16-.43.14-.41.37-.82.83-.9.04-.1.06-.23.08-.34.02-.22.02-.48.21-.68.1-.11.28-.12.43-.06.01-.09.03-.25.08-.32.5-.64.64-1.65,1.48-1.86.05-.07.07-.23.07-.32,0-.24.03-.49.24-.69.13-.12.26-.25.43-.06.01-.09.02-.24.07-.31,1.01-1.56,2-3.23,3.39-4.45.09-.23.08-.5.16-.73-.61-.83-.72-2.05-.65-3.23.13-2.12-.18-4.11-.26-6.18l-.37-9.47-1.39-20.81-.38-7.5c-.04-.85-.7-7.34.11-7.16,1.48-4.06-8.5.69-10.55.72h-.59c-.85.03,2.43-9.15,2.5-11.01l-11.28-1.53,6.79-9.37-10.23-6.07c3.4-2.06,6.55-3.62,9.51-5.84.74-.55-.48-1.57-.83-2l-5.63-7.18,11.37-1.78-2.71-10.95c4.03,1.03,7.53,2.1,11.25,2.72.74-3.84.75-7.43,1.26-11.37l9.01,6.29c.62.43.95-.03,1.21-.5l5.15-9.45,5.78,10.04c3.43-2.04,6.22-4.31,9.7-6.69l1.09,11.44,11.37-2.46-2.78,10.96,11.41,1.89c-.55,1.27-6.79,8.3-6.74,8.79.05.46.31.79.81,1.09l8.87,5.26c-1.43,1.32-3.31,1.51-4.53,2.91,0,.68.54,1.42,1.21,1.87,2.49,1.64,4.89,4.22,8.03,6.62l11.99,9.16,6.03,4.7,8.37,6.31c1.91,1.44,3.53,3.07,5.44,4.6l5.56,4.45c.74.59,1.39,1.06,1.3,2l.34-.03,2.23-.03c.75-.46,1.93-.46,2.67,0h2.21c-.1-.31.38-.35.53-.26.24.15.15.47.16.67.08.2.26.38.32.59.25-.09.47.03.56.23.08.16.05.34.1.48.07.21.27.38.32.6.24-.2.48.06.58.25.09.16.07.33.09.48.02.11.04.24.08.34.46.04.68.47.8.88.03.1.09.21.09.31.25-.1.52.03.59.25.06.18.08.35.07.5,0,.08.02.16,0,.24.25-.16.5.04.58.24.07.17.08.34.07.49,0,.08.02.16,0,.24.26-.14.49.04.56.25.07.18.06.34.08.49.01.1.03.23.07.32.38.15.62.51.8.87.04.09.07.24.07.33.25-.2.51.06.61.27.08.16.07.34.06.5,0,.07,0,.15-.02.22.23-.23.5.07.61.26.08.15.08.34.07.49,0,.08.02.16,0,.24.25-.15.5.03.58.24.06.17.08.34.07.49,0,.08.02.16,0,.24.25-.15.5.03.58.24.06.17.08.34.07.49,0,.08.02.16,0,.24.25-.11.46.04.55.24.07.17.04.34.09.48.06.21.26.38.32.59.24-.13.52.01.6.23.07.17.03.35.03.5v.24c.24-.21.52.05.62.25.08.16.07.35.06.5,0,.07,0,.15-.02.22.24-.23.51.07.61.26.08.16.07.34.07.5,0,.08.02.16,0,.24.25-.15.51.02.59.23.07.18.07.35.06.5,0,.08.01.16,0,.24.25-.12.47.03.55.24.07.17.01.35.08.48l.31.59c.24-.09.53,0,.61.22.06.18.03.35.03.5v.24c.24-.21.51.03.62.24.08.15.03.33.03.48v.24c.24-.22.51.06.61.26.08.16.07.34.06.5,0,.07,0,.15-.02.22.24-.23.51.07.61.26.08.16.07.34.07.5,0,.08.01.16,0,.24.24-.17.5.02.58.24.06.17.04.34.04.48v.24c.23-.22.5.05.61.26.08.15.04.33.04.48v.24c.24-.22.51.07.61.26.08.16.08.34.07.5,0,.08.02.16,0,.24.25-.16.51.03.58.24.07.18.07.35.06.5,0,.08.02.16,0,.24.25-.15.5.03.58.24.07.18.07.35.07.5,0,.08.02.16,0,.24.25-.16.5.03.58.24.06.18.07.35.07.5,0,.08.02.16,0,.24.25-.16.51.03.58.24.06.18.07.35.07.5,0,.08.02.16,0,.24.25-.15.5.03.58.24.07.17.07.34.07.49,0,.08.02.16,0,.24.25-.15.5.03.58.24.06.17.08.34.07.49,0,.08.02.16,0,.24.25-.11.46.04.55.24.07.16.04.33.09.48.07.21.27.39.32.6.23-.19.5.03.6.23.07.15.03.34.03.48v.24c.23-.22.5.05.61.26.08.15.04.33.04.48v.23c.24-.22.51.07.61.26.08.16.07.34.07.5,0,.08.01.16,0,.23.25-.13.52.02.56.24l.08.48c.1.59.66,1.03.97,1.56.24-.11.52,0,.6.23.06.17.03.35.03.49v.24c.24-.21.51.06.61.26.08.16.07.35.06.5,0,.08.02.16,0,.24.25-.16.51.02.59.23.07.18.07.35.06.5,0,.08.02.16,0,.23.25-.16.51.03.59.24.07.18.07.35.06.5,0,.08.02.16,0,.24.25-.16.51.03.58.24.07.18.07.35.06.5,0,.08.02.16,0,.24.25-.16.51.03.58.24.07.18.07.35.06.5,0,.08.02.16,0,.24.25-.15.51.03.58.24.06.18.07.35.06.5,0,.08.02.16,0,.24.25-.15.51.03.58.24.06.18.07.35.06.5,0,.08.02.16,0,.24.25-.15.51.03.58.24.06.18.07.35.07.5,0,.08.02.16,0,.24.25-.15.5.03.58.24.06.18.07.35.07.5,0,.08.01.16,0,.24.25-.11.46.03.55.24.07.16.05.33.09.48.06.21.27.38.32.59.25-.12.52.02.6.23.07.18.08.35.07.51,0,.08.01.16,0,.24.25-.17.49.03.59.24.08.17.02.34.05.49.08.44.03.95-.3,1.27.83,1.59-9.97-.08-10.51.8-.27.43.05.9.05,1.55v44.77c0,.98-.38,1.79.31,2.38l9.41.02c.22,0,.62-.19.71.11.06.2-.05.42-.06.56l-.05.61c-.01.19-.01.71-.31.73l-3.57.22H21.93c-2.25,0-3.97-.01-6.02-.24-.03-.7-.13-1.33.11-1.91Z" fill="#fff"/>
    <g>
      <path d="M52.65,260.1h-6.47v5.29h7.52v1.61h-9.48v-14.93h9.38v1.61h-7.41v4.81h6.47v1.61Z"/>
      <path d="M57.64,255.91l.06,1.39c.85-1.07,1.96-1.6,3.32-1.6,2.34,0,3.53,1.32,3.55,3.97v7.33h-1.9v-7.34c0-.8-.19-1.39-.55-1.77-.36-.38-.92-.57-1.68-.57-.62,0-1.16.16-1.62.49s-.83.76-1.09,1.29v7.91h-1.9v-11.09h1.79Z"/>
      <path d="M72.04,267.21c-1.5,0-2.73-.49-3.67-1.48-.94-.99-1.42-2.31-1.42-3.96v-.35c0-1.1.21-2.08.63-2.95.42-.87,1.01-1.54,1.76-2.03.76-.49,1.57-.73,2.46-.73,1.44,0,2.56.48,3.36,1.42.8.95,1.2,2.31,1.2,4.08v.79h-7.52c.03,1.09.35,1.98.96,2.65.61.67,1.39,1.01,2.33,1.01.67,0,1.24-.14,1.7-.41.46-.27.87-.63,1.22-1.09l1.16.9c-.93,1.43-2.32,2.14-4.18,2.14ZM71.8,257.26c-.77,0-1.41.28-1.93.84-.52.56-.84,1.34-.96,2.34h5.56v-.14c-.05-.96-.31-1.71-.78-2.24-.46-.53-1.09-.79-1.89-.79Z"/>
      <path d="M83.92,257.61c-.29-.05-.6-.07-.93-.07-1.24,0-2.09.53-2.53,1.59v7.88h-1.9v-11.09h1.85l.03,1.28c.62-.99,1.5-1.49,2.65-1.49.37,0,.65.05.84.14v1.76Z"/>
      <path d="M85.02,261.36c0-1.73.4-3.11,1.2-4.13.8-1.02,1.86-1.53,3.18-1.53s2.41.48,3.17,1.44l.09-1.23h1.73v10.83c0,1.44-.43,2.57-1.28,3.39-.85.83-2,1.24-3.43,1.24-.8,0-1.58-.17-2.35-.51s-1.35-.81-1.75-1.4l.98-1.14c.81,1,1.81,1.51,2.98,1.51.92,0,1.64-.26,2.16-.78.52-.52.77-1.25.77-2.2v-.95c-.76.88-1.79,1.31-3.11,1.31s-2.35-.52-3.15-1.57c-.8-1.05-1.21-2.47-1.21-4.28ZM86.93,261.58c0,1.25.26,2.23.77,2.95.51.71,1.23,1.07,2.15,1.07,1.2,0,2.08-.54,2.64-1.63v-5.07c-.58-1.06-1.45-1.59-2.62-1.59-.92,0-1.64.36-2.16,1.08s-.78,1.78-.78,3.19Z"/>
      <path d="M97.27,252.97c0-.31.09-.57.28-.78.19-.21.47-.32.84-.32s.65.11.84.32.29.47.29.78-.1.56-.29.77-.47.31-.84.31-.65-.1-.84-.31c-.19-.21-.28-.46-.28-.77ZM99.32,267h-1.9v-11.09h1.9v11.09Z"/>
      <path d="M109.2,267c-.11-.22-.2-.61-.27-1.17-.88.92-1.93,1.37-3.16,1.37-1.09,0-1.99-.31-2.69-.93-.7-.62-1.05-1.4-1.05-2.35,0-1.16.44-2.05,1.32-2.69.88-.64,2.11-.96,3.71-.96h1.85v-.87c0-.66-.2-1.19-.59-1.58-.4-.39-.98-.59-1.75-.59-.68,0-1.24.17-1.7.51-.46.34-.69.76-.69,1.24h-1.91c0-.55.2-1.09.59-1.6.39-.52.93-.92,1.6-1.23.67-.3,1.41-.45,2.22-.45,1.28,0,2.28.32,3,.96.72.64,1.1,1.52,1.13,2.64v5.11c0,1.02.13,1.83.39,2.43v.16h-1.99ZM106.05,265.56c.59,0,1.16-.15,1.69-.46s.92-.71,1.16-1.2v-2.28h-1.49c-2.32,0-3.49.68-3.49,2.04,0,.59.2,1.06.59,1.39s.91.5,1.53.5Z"/>
      <path d="M123.67,260.35c-1.69-.49-2.92-1.08-3.69-1.79-.77-.71-1.15-1.58-1.15-2.62,0-1.17.47-2.15,1.41-2.92.94-.77,2.16-1.15,3.67-1.15,1.03,0,1.94.2,2.74.59.8.4,1.43.94,1.87,1.64.44.7.66,1.46.66,2.29h-1.98c0-.91-.29-1.62-.86-2.13s-1.38-.78-2.43-.78c-.97,0-1.73.21-2.27.64-.54.43-.82,1.02-.82,1.78,0,.61.26,1.12.77,1.55.52.42,1.39.81,2.63,1.16,1.24.35,2.21.73,2.91,1.15.7.42,1.22.91,1.56,1.47.34.56.51,1.22.51,1.98,0,1.21-.47,2.18-1.42,2.91-.94.73-2.2,1.09-3.78,1.09-1.03,0-1.98-.2-2.87-.59-.89-.39-1.57-.93-2.06-1.62-.48-.68-.72-1.46-.72-2.33h1.98c0,.9.33,1.62,1,2.14.67.52,1.56.79,2.67.79,1.04,0,1.83-.21,2.39-.64.55-.42.83-1,.83-1.73s-.26-1.3-.77-1.7c-.51-.4-1.44-.79-2.79-1.18Z"/>
      <path d="M130.93,261.35c0-1.09.21-2.06.64-2.93.43-.87,1.02-1.54,1.78-2.01.76-.47,1.63-.71,2.61-.71,1.51,0,2.73.52,3.67,1.57.93,1.04,1.4,2.44,1.4,4.17v.13c0,1.08-.21,2.05-.62,2.91-.41.86-1,1.53-1.77,2-.77.48-1.65.72-2.65.72-1.5,0-2.72-.52-3.66-1.57-.93-1.05-1.4-2.43-1.4-4.15v-.13ZM132.84,261.58c0,1.23.29,2.22.86,2.96.57.75,1.33,1.12,2.29,1.12s1.73-.38,2.3-1.13c.57-.75.85-1.81.85-3.17,0-1.22-.29-2.2-.87-2.96-.58-.75-1.34-1.13-2.3-1.13s-1.69.37-2.27,1.12-.86,1.81-.86,3.2Z"/>
      <path d="M145.47,267h-1.9v-15.75h1.9v15.75Z"/>
      <path d="M155.35,267c-.11-.22-.2-.61-.27-1.17-.88.92-1.93,1.37-3.16,1.37-1.09,0-1.99-.31-2.69-.93-.7-.62-1.05-1.4-1.05-2.35,0-1.16.44-2.05,1.32-2.69.88-.64,2.11-.96,3.71-.96h1.85v-.87c0-.66-.2-1.19-.59-1.58-.4-.39-.98-.59-1.75-.59-.68,0-1.24.17-1.7.51-.46.34-.69.76-.69,1.24h-1.91c0-.55.2-1.09.59-1.6.39-.52.93-.92,1.6-1.23.67-.3,1.41-.45,2.22-.45,1.28,0,2.28.32,3,.96.72.64,1.1,1.52,1.13,2.64v5.11c0,1.02.13,1.83.39,2.43v.16h-1.99ZM152.21,265.56c.59,0,1.16-.15,1.69-.46s.92-.71,1.16-1.2v-2.28h-1.49c-2.32,0-3.49.68-3.49,2.04,0,.59.2,1.06.59,1.39s.91.5,1.53.5Z"/>
      <path d="M165.29,257.61c-.29-.05-.6-.07-.93-.07-1.24,0-2.09.53-2.53,1.59v7.88h-1.9v-11.09h1.85l.03,1.28c.62-.99,1.5-1.49,2.65-1.49.37,0,.65.05.84.14v1.76Z"/>
    </g>
  </g>
</svg>