<?xml version="1.0" encoding="UTF-8"?>
<svg id="Layer_2" data-name="Layer 2" xmlns="http://www.w3.org/2000/svg" viewBox="0 0 207.68 313.85">
  <g id="Layer_1-2" data-name="Layer 1">
    <g opacity=".5">
      <rect x=".5" y=".5" width="206.68" height="312.85" rx="11" ry="11" fill="#1a2a3d"/>
      <path d="M196.18,313.85H11.5c-6.34,0-11.5-5.16-11.5-11.5V11.5C0,5.16,5.16,0,11.5,0h184.68c6.34,0,11.5,5.16,11.5,11.5v290.85c0,6.34-5.16,11.5-11.5,11.5ZM11.5,1C5.71,1,1,5.71,1,11.5v290.85c0,5.79,4.71,10.5,10.5,10.5h184.68c5.79,0,10.5-4.71,10.5-10.5V11.5c0-5.79-4.71-10.5-10.5-10.5H11.5Z" fill="#7dabe2"/>
    </g>
    <g>
      <path d="M116.16,209.6c0,15.42,2.18,29.24-11.02,30.38-26.84,2.31-36.97-14.96-36.97-30.38s10.74-27.92,23.99-27.92,23.99,12.5,23.99,27.92Z" fill="#05293d"/>
      <ellipse cx="105.3" cy="211.63" rx="23.99" ry="27.92" fill="#05293d"/>
      <ellipse cx="109.79" cy="214.14" rx="15.46" ry="18.24" fill="#78a2c9"/>
      <path d="M131.74,218.43c-9.83,4.71-21.89,6.1-32.58,5.63-3.34-.15-6.46-.66-9.76-1.06-2.51-.3-4.88-.44-7.33-1.08-7.24-1.9-13.93-5.25-19.72-9.96-2.88-2.34-5.14-4.93-7.17-8.01-3.5-5.31-6.42-10.85-8.4-16.98-3.93-.19-6.26-.37-8.42-4.08-3.33-5.73-2.52-14.45-1.07-20.73,2.17-7.67,4.03-14.95,10.14-20.59-1.87-2.81-2.74-5.89-2.54-9.22.2-3.3.64-6.38,1.31-9.62,1.82-8.33,5.57-20.98,9.88-28.23,1.51-2.53,3.37-4.63,5.51-6.7,15.24-14.77,33.83-13.93,37.24-14.08,12.34-.52,27.93,1.96,38.05,9.48,9.39,6.98,14.99,17.03,17.74,28.32,1.93,7.93,2.44,15.99,1.76,24.12-.15,1.79-.58,3.29-1.39,4.84,3.08,6.02,3.83,13.19,3.92,19.77,3.98,5.51,6.8,12.96,8.52,19.49,1.24,4.69,2.3,9.24,3.23,14.01,1.05,5.32,1.3,10.62.69,16-.56,4.9-2.92,10.98-8.49,11.69-2.25.28-4.29-.04-6.07-1.47-4.69-3.29-7.68-9.67-10.27-14.93-1.91,2.83-3.76,5.3-6.08,7.55-2.56,2.45-5.4,4.26-8.67,5.84ZM99.33,75.98c-3.27-.09-6.55.05-9.9.41-2.08.22-3.92.92-5.95,1.51-7.78,2.26-14.98,6.34-20.81,12.07-2.15,2.12-4.13,4.33-5.57,7.13-1.16,2.25-2.2,4.39-3.13,6.79-2.8,7.21-4.94,14.55-6.19,22.2-.47,2.83-.78,5.5-.57,8.36s1.71,5.98,3.96,7.94c.67.58,1.71.75,2.5,1.22,8.66,5.07,18.53,7.68,28.47,9.1,12.64,1.81,27.33,2.5,40.02.92,6.74-.84,13.2-2.52,19.38-5.31,4.36-1.97,11.54-6.23,12.33-11.35,1.18-7.68.71-15.41-.78-22.99-1.02-5.2-2.92-9.87-5.37-14.49-3-5.65-7.09-10.75-12.37-14.65-6.59-4.86-15.15-7.48-23.3-8.43-4.17-.49-8.37-.75-12.7-.43ZM135.21,159.49c-5.15,2.24-10.37,4.03-16.01,5.09-7,1.32-13.94,1.84-21.08,1.75-10.1-.13-19.27-1.08-28.6-5.05-5.33-2.27-10.08-5.39-14.24-9.39-.37-.36-.71-.7-1.2-.92-.01-.28-.17-.54-.4-.78-1.26-1.29-2.22-2.66-3.55-4.19-6.88,19.8-5.26,39.65,7.29,56.83,1.39,1.91,2.59,3.91,4.53,5.55,3.24,2.72,3.3,2.91,7.01,5.3,4.35,2.8,9.04,4.8,14.02,6.2,2.16.61,4.17,1.31,6.41,1.57,3.68.44,7.24.43,10.97.47,6.11.06,12.02-.37,17.98-1.65,6.92-1.48,15.09-4.39,20.33-9.26,2.64-2.46,4.74-5.28,6.63-8.34-.21-.57-.33-1.08-.77-1.48-1.47-.71-3.43-1.36-4.65-2.78-1.77-2.06-3.4-4.26-4.38-6.92-3.52-9.48-4.54-23.97,2.3-32.12,1.47-1.76,3.31-2.32,5.4-2.9s5.35-3.47,10.06-1.2c1.2.58,2.19,1.35,3.24,2.22-.13-4.67-.8-9.99-2.71-14.17-4.78,7.04-11.13,12.4-18.59,16.13ZM38.77,176.38c.02,2.4,1.5,6.74,4.03,7.81.93.4,2.17.42,3.14.38-.74-3.77-1.84-7.42-2.1-11.15-.41-5.96-.04-11.87,1.14-17.81.79-3.97,1.98-7.54,3.28-11.53-4.55,4.28-6.63,11.77-8.22,17.54-1.18,4.3-2.05,10.43-1.27,14.76ZM145.01,149.75c-4.57,2.04-8.91,3.69-13.7,4.66-4.86,1.11-9.61,1.61-14.61,2-10.59.65-21.06.4-31.59-.81-11.46-1.46-21.83-4.16-32.1-9.74,3.66,5.02,8.38,8.78,13.78,11.59,4.15,2.13,8.42,3.54,12.98,4.58,5,1.13,9.89,1.61,15.04,1.88,12.83.65,26.99-.77,38.67-6.4,4.12-2.08,8.08-4.32,11.52-7.75ZM145.25,149.67s-.04-.09-.09-.09-.09.04-.09.09.04.09.09.09.09-.04.09-.09ZM146.3,157.81c-3.68,1.39-6.38,4.51-7.42,8.4-2.63,9.83,2.99,23.41,7.3,32.43l4.65,9.73c1.28,2.67,2.75,5.09,4.63,7.35,1.62,1.95,3.59,3.36,6.04,4.06.87.25,1.75.07,2.5-.52,3.91-3.08,5.14-8.22,5.1-13.15.48-5.27-.46-12.13-1.91-17.41-.8-4.7-2.02-9.33-3.63-13.92-2.07-5.87-8.77-21.81-17.24-16.98Z" fill="#05293d"/>
      <path d="M139.89,198.43c-11.33,8.64-25.09,13.8-39.4,14.72-14.86.95-29.22-2.46-42.01-9.96-.4-.24-.69-.37-1.06-.37-12.55-17.18-14.17-37.03-7.29-56.83,1.33,1.53,2.29,2.9,3.55,4.19.23.24.39.5.4.78-.16.17-.24.5-.15.85,2.22,7.98,7.5,14.86,13.64,20.38.33.3,27.86,9.06,30,8.85,9.26-.91,19.2-.81,26.31-6.77,4.18-3.5,8.11-8.23,10.71-13.09,0,0,1.26-1.65.6-1.71,7.46-3.73,13.81-9.1,18.59-16.13,1.91,4.19,2.58,9.5,2.71,14.17-1.05-.87-2.04-1.64-3.24-2.22-4.7-2.28-7.9.6-10.06,1.2s-3.92,1.14-5.4,2.9c-6.84,8.15-5.81,22.64-2.3,32.12.99,2.66,2.61,4.85,4.38,6.92Z" fill="#4982b7"/>
      <path d="M153.07,113.98c-1.02-5.2-2.92-9.87-5.37-14.49-3-5.65-7.09-10.75-12.37-14.65-6.59-4.86-15.15-7.48-23.3-8.43-.18,1.31-1.3,2.27-2.52,3.01-3.14,1.93-7.73,1.03-9.7-2.34-.22-.38-.57-.67-.48-1.1-3.27-.09-6.55.05-9.9.41-2.08.22-3.92.92-5.95,1.51-7.33,2.13-14.14,5.87-19.78,11.09-.37.28-.71.6-1.03.98-2.15,2.12-4.13,4.33-5.57,7.13-1.16,2.25-2.2,4.39-3.13,6.79-2.8,7.21-4.94,14.55-6.19,22.2-.47,2.83-.78,5.5-.57,8.36.22,2.99,1.71,5.98,3.96,7.94.67.58,1.71.75,2.5,1.22,8.66,5.07,18.53,7.68,28.47,9.1,12.64,1.81,27.33,2.5,40.02.92,6.74-.84,13.2-2.52,19.38-5.31,4.36-1.97,11.54-6.23,12.33-11.35,1.18-7.68.71-15.41-.78-22.99ZM123.93,121.12c-.3,4.43-.92,8.69-2.18,12.94-2.05,6.91-6.04,12.47-13.09,14.77-5.93,1.93-13.23,1.49-19.43.73-6.39-.79-12.57-1.76-18.86-3.02-5.78-1.16-12.7-3.43-17.02-7.5-2.97-2.79-4.48-6.54-4.1-10.71.61-6.77,2.07-13.34,4.16-19.8,2.38-7.37,7.4-18.05,16.16-18.81,3.11-.27,5.86.64,8.11,2.73l2.42,2.25c1.23,1.14,2.75,1.99,4.47,2.14,2.25.19,4.51.02,6.57-.64-.06-.03-.13-.05-.19-.08.06.02.13.05.19.08,3.96-.64,6.7-1.84,10.81-1.72,3.12.09,6.08.66,9.05,1.52,3.23.94,5.73,2.92,7.99,5.24,4.43,5.47,5.4,13.09,4.95,19.9Z" fill="#78a2c9"/>
      <path d="M135.21,159.49c.66.06-.6,1.7-.6,1.71-2.6,4.85-6.53,9.59-10.71,13.09-7.12,5.95-15.1,9.25-24.37,10.01-18.97,1.56-32.47-11.56-32.8-11.86-6.14-5.52-10.56-12.64-12.78-20.62-.1-.35-.01-.68.15-.85.49.22.83.56,1.2.92,4.15,4,8.9,7.13,14.24,9.39,9.34,3.97,18.5,4.92,28.6,5.05,7.14.09,14.08-.43,21.08-1.75,5.64-1.06,10.86-2.85,16.01-5.09Z" fill="#78a2c9"/>
      <path d="M57.42,202.83c.36,0,.65.13,1.06.37,12.79,7.5,27.15,10.91,42.01,9.96,14.31-.92,28.07-6.08,39.4-14.72,1.21,1.41,3.18,2.06,4.65,2.78.45.4.56.9.77,1.48-1.89,3.06-3.99,5.88-6.63,8.34-5.24,4.87-13.41,7.78-20.33,9.26-5.96,1.28-11.87,1.71-17.98,1.65-3.73-.04-7.29-.04-10.97-.47-2.24-.27-4.25-.96-6.41-1.57-4.98-1.4-9.68-3.4-14.02-6.2-3.71-2.39-3.77-2.58-7.01-5.3-1.95-1.64-3.14-3.64-4.53-5.55Z" fill="#165d91"/>
      <path d="M167.18,188.71c1.46,5.28,2.4,12.14,1.91,17.41-7.41,0-15.5-2.81-21.7-6.96-.43-.29-.79-.48-1.21-.51-4.31-9.02-9.92-22.61-7.3-32.43,1.04-3.89,3.74-7.01,7.42-8.4-.41,2.35-.81,4.71-.63,7.18.4,5.63,2.35,10.88,6.09,15.15,4.2,4.78,9.17,7.61,15.41,8.57Z" fill="#4982b7"/>
      <path d="M145.01,149.75c-3.44,3.43-7.4,5.67-11.52,7.75-11.68,5.63-25.84,7.05-38.67,6.4-5.15-.26-10.04-.75-15.04-1.88-4.56-1.03-8.83-2.45-12.98-4.58-5.4-2.81-10.12-6.57-13.78-11.59,10.27,5.58,20.64,8.28,32.1,9.74,10.53,1.21,21,1.46,31.59.81,5-.39,9.75-.89,14.61-2,4.79-.97,9.13-2.62,13.7-4.66Z" fill="#05293d"/>
      <path d="M167.18,188.71c-6.24-.96-11.21-3.78-15.41-8.57-3.74-4.27-5.69-9.51-6.09-15.15-.18-2.47.22-4.82.63-7.18,8.47-4.83,15.18,11.1,17.24,16.98,1.61,4.59,2.83,9.21,3.63,13.92Z" fill="#78a2c9"/>
      <path d="M169.09,206.12c.04,4.93-1.19,10.07-5.1,13.15-.75.59-1.63.77-2.5.52-2.45-.7-4.42-2.11-6.04-4.06-1.88-2.26-3.35-4.68-4.63-7.35l-4.65-9.73c.42.03.78.22,1.21.51,6.21,4.15,14.3,6.96,21.7,6.96Z" fill="#165d91"/>
      <path d="M43.84,173.42l-3.72,2.39c-.45.29-.84.64-1.35.58-.79-4.33.08-10.46,1.27-14.76,1.59-5.77,3.67-13.26,8.22-17.54-1.29,3.99-2.49,7.56-3.28,11.53-1.18,5.93-1.55,11.85-1.14,17.81Z" fill="#4982b7"/>
      <path d="M43.84,173.42c.26,3.74,1.36,7.39,2.1,11.15-.97.03-2.21.02-3.14-.38-2.53-1.07-4.01-5.41-4.03-7.81.51.06.9-.29,1.35-.58l3.72-2.39Z" fill="#165d91"/>
      <path d="M112.03,76.41c-.18,1.31-1.3,2.27-2.52,3.01-3.14,1.93-7.73,1.03-9.7-2.34-.22-.38-.57-.67-.48-1.1,4.33-.32,8.53-.06,12.7.43Z" fill="#bbdaf2"/>
      <circle cx="145.16" cy="149.67" r=".09" fill="#35397c"/>
      <path d="M91.12,96.18c3.96-.64,6.7-1.84,10.81-1.72,3.12.09,6.08.66,9.05,1.52,3.23.94,5.73,2.92,7.99,5.24,4.43,5.47,5.4,13.09,4.95,19.9-.3,4.43-.92,8.69-2.18,12.94-2.05,6.91-6.04,12.47-13.09,14.77-5.93,1.93-13.23,1.49-19.43.73-6.39-.79-12.57-1.76-18.86-3.02-5.78-1.16-12.7-3.43-17.02-7.5-2.97-2.79-4.48-6.54-4.1-10.71.61-6.77,2.07-13.34,4.16-19.8,2.38-7.37,7.4-18.05,16.16-18.81,3.11-.27,5.86.64,8.11,2.73l2.42,2.25c1.23,1.14,2.75,1.99,4.47,2.14,2.25.19,4.51.02,6.57-.64ZM98.43,149.07c3.29.1,6.58-.31,9.78-1.37,6.26-2.08,10.04-7.06,12.07-13.15,1.04-3.14,1.82-6.29,2.15-9.68,1.55-9.64.39-21.87-9.56-26.76-1.82-.9-3.67-1.27-5.63-1.69-4.39-.95-8.73-.79-13.07.35-2.92.77-5.78.99-8.76.89-6.35-.22-6.97-4.32-10.92-6.02-3.34-1.44-7.14-.79-10.05,1.31-8.82,6.36-13.3,25.05-14.21,35.38-.44,7.19,4.51,11.38,10.52,13.92,3.1,1.31,6.19,2.27,9.52,2.99,5.8,1.27,11.49,2.28,17.38,3.11,3.63.52,7.09.79,10.77.72Z" fill="#d3ab32"/>
      <g>
        <path d="M88.47,182.1c-1.28,4.15-1.71,6.45-3.98,10.24-.88,1.48-2.05,2.41-3.42,3.39-1.1.78-2.06,1.46-3.45,1.79-4.67,1.13-9.51-.89-12.01-5.03-3.76-6.22-4.14-14.82-2.68-21.69.49-1.54,1.5,1.32,6.21-.03,3.91-1.12,7.96-.75,11.45,1.33l2.8,1.56c1.79,1,3.74,1.15,5.74.6.26,2.76-.39,5.28-.66,7.85ZM80.58,194.65c4.47-4.13,6.8-12.79,7.15-18.64-2.87.28-5.26-1.11-7.52-2.5-3.25-2-6.97-2.4-10.64-1.32-1.74.51-3.45.69-5.31.1-1.19,6.08-.54,14.03,2.65,19.38,2.12,3.55,6.31,5.53,10.38,4.41,1.06-.29,2.45-.65,3.3-1.43Z" fill="#05293d"/>
        <path d="M80.58,194.65c-.85.78-2.24,1.14-3.3,1.43-4.07,1.12-8.26-.86-10.38-4.41-3.19-5.35-3.83-13.3-2.65-19.38,1.85.59,3.56.42,5.31-.1,3.67-1.08,7.39-.68,10.64,1.32,2.26,1.39,4.65,2.78,7.52,2.5-.35,5.85-2.67,14.51-7.15,18.64Z" fill="#ffb600"/>
      </g>
      <path d="M112.89,98.1c-1.82-.9-3.67-1.27-5.63-1.69-4.39-.95-8.73-.79-13.07.35-2.92.77-5.78.99-8.76.89-6.35-.22-6.97-4.32-10.92-6.02-3.34-1.44-7.14-.79-10.05,1.31-8.82,6.36-13.3,25.05-14.21,35.38-.44,7.19,4.51,11.38,10.52,13.92,3.1,1.31,6.19,2.27,9.52,2.99,5.8,1.27,11.49,2.28,17.38,3.11,3.63.52,7.09.79,10.77.72,3.29.1,6.58-.31,9.78-1.37,6.26-2.08,10.04-7.06,12.07-13.15,1.04-3.14,1.82-6.29,2.15-9.68,1.55-9.64.39-21.87-9.56-26.76Z" fill="#05293d"/>
      <path d="M106.23,134.38c-4.15,4.25-11.17,3.53-14.84-.18-1.32-1.34-2.09-2.92-2.79-4.69-1.78-5.96-.59-13.76,2.73-19.09,2.93-4.71,8.45-6.66,13.62-4.4,9.32,4.08,7.74,16.61,4.13,24.23-.74,1.57-1.67,2.91-2.85,4.13Z" fill="#fefefe"/>
      <path d="M69.82,125.9c-2.53,2.66-6.35,3.26-9.42,1.33-2.67-1.68-3.37-5.79-3.26-8.77.19-5.3,1.98-12.61,6.1-16.3,2.5-2.24,6.05-2.91,9.1-1.43,2.26,1.1,2.99,5.11,3.05,7.46.14,5.77-1.38,13.32-5.55,17.71Z" fill="#fefefe"/>
      <path d="M64.97,124.04c-4.49-.88-1.83-11.69,3.44-10.53,3.58.79.37,11.28-3.44,10.53Z" fill="#05293d"/>
      <path d="M98.66,130.96c-4.57-.04-3.97-11.15,1.42-10.99,3.67.11,2.46,11.02-1.42,10.99Z" fill="#05293d"/>
      <path d="M69.89,135.51c-.47.42,2.38,4.27,7.46,4.23,2.87-.02,4.88-1.22,4.58-2.12-.33-.99-2.65.95-7.33-.38-3.54-1-4.44-1.98-4.71-1.74Z" fill="#fefefe"/>
      <path d="M153.5,116.36c-1.68,4.5-4.33,9.21-8.95,12.47-2.42,1.7-7.95,4.82-22.16,2.85-.19.8-.41,1.6-.65,2.39-2.05,6.91-6.04,12.47-13.09,14.77-5.93,1.93-13.23,1.49-19.43.73-6.39-.79-12.57-1.76-18.86-3.02-5.78-1.16-12.7-3.43-17.02-7.5-2.97-2.79-4.48-6.54-4.1-10.71.61-6.77,2.07-13.34,4.16-19.8.41-1.28.91-2.67,1.49-4.08-.33-.13-.66-.26-.98-.38-2.76,7.15-4.88,14.44-6.13,22.03-.47,2.83-.78,5.5-.57,8.36.22,2.99,1.71,5.98,3.96,7.94.67.58,1.71.75,2.5,1.22,8.66,5.07,18.53,7.68,28.47,9.1,12.64,1.81,27.33,2.5,40.02.92,6.74-.84,13.2-2.52,19.38-5.31,4.36-1.97,11.54-6.23,12.33-11.35,1.06-6.88.78-13.8-.35-20.62Z" fill="#165d91"/>
    </g>
  </g>
</svg>