<?xml version="1.0" encoding="UTF-8"?>
<svg id="Layer_2" data-name="Layer 2" xmlns="http://www.w3.org/2000/svg" viewBox="0 0 58.46 58.45">
  <g id="Layer_1-2" data-name="Layer 1">
    <g>
      <path d="M58.46,29.23c0,16.14-13.09,29.23-29.23,29.23S0,45.37,0,29.23,13.09,0,29.23,0s29.23,13.09,29.23,29.23ZM55.85,29.22c0-14.69-11.91-26.6-26.6-26.6S2.64,14.53,2.64,29.22s11.91,26.6,26.6,26.6,26.6-11.91,26.6-26.6Z" fill="#ecb529"/>
      <path d="M55.85,29.22c0,14.69-11.91,26.6-26.6,26.6S2.64,43.91,2.64,29.22,14.55,2.62,29.25,2.62s26.6,11.91,26.6,26.6ZM20.05,35.18l7.78,6.32c.44.36.91.47,1.46.23.33-.14.76-.52.76-1.11v-23.04c0-.58-.56-.87-.9-1.02-.45-.2-.97.05-1.38.38l-7.77,6.39-5.52.06c-.47,0-1.27.74-1.27,1.28l.02,9.28c0,1.98,5.47.88,6.81,1.22ZM44.59,30.52c.71,0,.97-1.03.91-1.46-.07-.52-.42-1.24-1.11-1.24h-9.91c-.76.01-1.2.75-1.21,1.37,0,.52.35,1.37,1.06,1.37l10.26-.04Z" fill="#276da5"/>
      <path d="M20.05,35.18c-1.34-.34-6.8.76-6.81-1.22l-.02-9.28c0-.55.79-1.28,1.27-1.28l5.52-.06,7.77-6.39c.4-.33.93-.58,1.38-.38.34.15.9.43.9,1.02v23.04c0,.59-.43.97-.76,1.11-.55.24-1.02.13-1.46-.23l-7.78-6.32Z" fill="#fcfdfd"/>
      <path d="M44.59,30.52l-10.26.04c-.71,0-1.07-.85-1.06-1.37,0-.62.45-1.36,1.21-1.36h9.91c.69-.01,1.03.7,1.11,1.23.06.43-.2,1.46-.91,1.46Z" fill="#fcfdfd"/>
    </g>
  </g>
</svg>