<?xml version="1.0" encoding="UTF-8"?>
<svg id="Layer_2" data-name="Layer 2" xmlns="http://www.w3.org/2000/svg" viewBox="0 0 58.44 58.43">
  <g id="Layer_1-2" data-name="Layer 1">
    <g>
      <path d="M58.44,29.22c0,16.14-13.08,29.22-29.22,29.22S0,45.35,0,29.22,13.08,0,29.22,0s29.22,13.08,29.22,29.22ZM55.87,29.19c0-14.69-11.91-26.6-26.6-26.6S2.66,14.5,2.66,29.19s11.91,26.6,26.6,26.6,26.6-11.91,26.6-26.6Z" fill="#ecb529"/>
      <path d="M55.87,29.19c0,14.69-11.91,26.6-26.6,26.6S2.66,43.88,2.66,29.19,14.57,2.59,29.27,2.59s26.6,11.91,26.6,26.6ZM23.33,25.75c.53.44,1.32-.09,1.57-.43.28-.39.38-1.19-.03-1.6l-5.62-5.69,4.98-.07c.75-.01,1.23-.59,1.28-1.25.05-.59-.38-1.37-1.11-1.38l-8.45-.04c-.78,0-1.47.53-1.46,1.36l.05,8.55c0,.73.94.98,1.46.93.6-.06,1.23-.49,1.24-1.21l.08-4.92c2.1,1.95,3.85,3.95,6,5.74ZM41.2,19.95l.11,5.13c.12.79.79,1.11,1.52,1.05.56-.04,1.21-.47,1.21-1.21v-8.28c0-.69-.59-1.35-1.29-1.35l-8.86.05c-.66,0-.94.9-.92,1.36.03.49.28,1.2.92,1.21l5.33.09-5.57,5.64c-.46.47-.28,1.34.11,1.73.44.44,1.12.62,1.7.25l5.73-5.68ZM19.3,40.36l5.36-5.4c.52-.5.61-1.24.19-1.81-.29-.39-1.15-.92-1.68-.4l-5.83,5.69-.08-5.07c-.01-.72-.75-1.09-1.38-1.11-.49-.01-1.32.31-1.33.99l-.04,8.56c0,.71.58,1.34,1.3,1.34l8.59-.03c.73,0,1.15-.79,1.12-1.36s-.42-1.26-1.1-1.27l-5.12-.11ZM39.22,40.41h-5c-.81,0-1.28.73-1.24,1.47.03.64.56,1.26,1.32,1.26h8.31c.76,0,1.41-.57,1.41-1.34l-.03-8.51c0-.74-.85-1.09-1.43-1.04s-1.23.43-1.24,1.12l-.06,5.07-5.75-5.63c-.53-.52-1.42-.17-1.76.22-.48.56-.47,1.4.05,1.9,1.5,1.43,2.93,2.84,4.35,4.35.35.37.8.56,1.07,1.13Z" fill="#276da5"/>
      <path d="M39.22,40.41c-.27-.57-.72-.76-1.07-1.13-1.42-1.51-2.85-2.92-4.35-4.35-.52-.5-.53-1.33-.05-1.9.34-.4,1.22-.75,1.76-.22l5.75,5.63.06-5.07c0-.7.68-1.07,1.24-1.12s1.43.29,1.43,1.04l.03,8.51c0,.77-.65,1.35-1.41,1.34h-8.31c-.76,0-1.29-.62-1.32-1.26-.04-.73.43-1.46,1.24-1.46h5Z" fill="#fcfdfd"/>
      <path d="M41.2,19.95l-5.73,5.68c-.58.37-1.26.19-1.7-.25-.39-.39-.57-1.26-.11-1.73l5.57-5.64-5.33-.09c-.64-.01-.89-.72-.92-1.21-.03-.46.26-1.36.92-1.36l8.86-.05c.7,0,1.3.66,1.3,1.35v8.28c0,.74-.66,1.17-1.22,1.21-.73.06-1.41-.27-1.52-1.05l-.11-5.13Z" fill="#fcfdfd"/>
      <path d="M19.3,40.36l5.12.11c.69.01,1.08.67,1.1,1.27s-.39,1.36-1.12,1.36l-8.59.03c-.72,0-1.3-.62-1.3-1.34l.04-8.56c0-.68.84-1,1.33-.99.63.02,1.37.39,1.38,1.11l.08,5.07,5.83-5.69c.53-.51,1.39.01,1.68.4.43.57.34,1.31-.19,1.81l-5.36,5.4Z" fill="#fcfdfd"/>
      <path d="M23.33,25.75c-2.14-1.79-3.9-3.79-6-5.74l-.08,4.92c-.01.72-.64,1.15-1.24,1.21-.52.05-1.46-.21-1.46-.93l-.05-8.55c0-.83.68-1.37,1.46-1.36l8.45.04c.74,0,1.16.79,1.11,1.38-.05.66-.53,1.24-1.28,1.25l-4.98.07,5.62,5.69c.41.42.31,1.21.03,1.6-.25.35-1.04.88-1.57.43Z" fill="#fcfdfd"/>
    </g>
  </g>
</svg>