<?xml version="1.0" encoding="UTF-8"?>
<svg id="Layer_2" data-name="Layer 2" xmlns="http://www.w3.org/2000/svg" viewBox="0 0 58.53 58.52">
  <g id="Layer_1-2" data-name="Layer 1">
    <g>
      <path d="M58.53,29.26c0,16.16-13.1,29.26-29.26,29.26S0,45.42,0,29.26,13.1,0,29.26,0s29.26,13.1,29.26,29.26ZM55.89,29.27c0-14.71-11.93-26.63-26.64-26.63S2.62,14.56,2.62,29.27s11.93,26.63,26.64,26.63,26.64-11.92,26.64-26.63Z" fill="#ecb529"/>
      <path d="M55.89,29.27c0,14.71-11.93,26.63-26.64,26.63S2.62,43.98,2.62,29.27,14.54,2.64,29.25,2.64s26.64,11.92,26.64,26.63ZM13.29,35.14l5.5.08,7.53,6.15c.48.39,1.07.72,1.72.43.38-.17.88-.64.88-1.29v-22.58c0-.64-.5-1.11-.87-1.27-.55-.25-1.1-.02-1.51.32l-4,3.27c-1.23,1.01-2.47,2.35-3.92,2.98-1.63.74-6.71-1.02-6.7,1.78l.05,9.03c0,.53.82,1.1,1.32,1.11ZM41.95,41.15c6.55-6.58,6.38-17.18.11-23.91-.54-.58-1.46-.51-1.95.04-.4.46-.43,1.28.09,1.83,2.46,2.63,3.77,5.92,3.92,9.54.17,3.97-1.21,7.67-3.89,10.58-.53.58-.66,1.41-.14,1.93.44.45,1.27.59,1.86-.01ZM37.96,37.66c.4-.08.62.21.91.5.47.45,1.44.53,1.71-.15.13-.33-.6-.37-.71-.56-.2-.44-.25-1.07-.5-1.48.05-.39.27-.69.43-.96.93-1.58,1.34-3.3,1.44-5.11.18-3.11-.73-5.94-2.73-8.3-.44-.52-.8-1.19-1.6-1.12-.56.05-1.11.41-1.26.84-.17.51,0,1.08.39,1.47,2.95,3.05,3.45,7.56,1.27,11.2-.41.69-.87,1.25-1.41,1.84s-.34,1.47.18,1.92c.57.5,1.21.19,1.87-.08ZM33.29,34.14c3.37-2.22,3.16-7.47.23-9.74-.55-.43-1.25-.02-1.61.39-.35.39-.5,1.12-.04,1.58,1.52,1.5,1.66,3.82.18,5.44-.47.51-.71,1.11-.33,1.77.23.39.96.96,1.57.56Z" fill="#276da5"/>
      <path d="M13.29,35.14c-.5,0-1.32-.58-1.32-1.11l-.05-9.03c-.02-2.8,5.07-1.05,6.7-1.78,1.45-.63,2.68-1.97,3.92-2.98l4-3.27c.41-.34.96-.57,1.51-.32.37.17.87.63.87,1.27v22.58c0,.65-.5,1.12-.88,1.29-.65.29-1.23-.04-1.72-.43l-7.53-6.15-5.5-.08Z" fill="#fcfdfd"/>
      <path d="M41.95,41.15c-.6.6-1.42.46-1.86.01-.52-.53-.39-1.35.14-1.93,2.68-2.91,4.06-6.61,3.89-10.58-.16-3.62-1.46-6.91-3.92-9.54-.51-.55-.49-1.37-.09-1.83.48-.56,1.4-.63,1.95-.04,6.27,6.73,6.44,17.33-.11,23.91Z" fill="#ecb529"/>
      <path d="M39.38,35.97c-.12.05-.27.14-.26.41-.48.1-.64.65-.9,1.02-.05.06-.21.08-.25.26-.65.27-1.3.59-1.87.08-.51-.45-.71-1.33-.18-1.92s.99-1.15,1.41-1.84c2.18-3.64,1.68-8.15-1.27-11.2-.38-.4-.56-.96-.39-1.47.14-.43.7-.79,1.26-.84.8-.07,1.16.6,1.6,1.12,1.99,2.37,2.9,5.19,2.73,8.3-.1,1.81-.52,3.53-1.44,5.11-.16.27-.38.57-.43.96Z" fill="#ecb529"/>
      <path d="M33.29,34.14c-.61.4-1.34-.17-1.57-.56-.38-.66-.15-1.26.33-1.77,1.49-1.62,1.34-3.94-.18-5.44-.47-.46-.31-1.19.04-1.58.37-.41,1.06-.82,1.61-.39,2.94,2.26,3.15,7.52-.23,9.74Z" fill="#ecb529"/>
      <path d="M39.38,35.97c.24.41.3,1.04.5,1.48.11.19.84.23.71.56-.26.68-1.24.6-1.71.15-.3-.28-.52-.58-.91-.5.05-.18.2-.2.25-.26.34.12,1.04-.28,1.05-.64,0-.14-.07-.27-.15-.38-.02-.27.14-.36.26-.41Z" fill="#2776b9"/>
    </g>
  </g>
</svg>