<?xml version="1.0" encoding="UTF-8"?>
<svg id="Layer_2" data-name="Layer 2" xmlns="http://www.w3.org/2000/svg" viewBox="0 0 227.09 62.32">
  <g id="Layer_1-2" data-name="Layer 1">
    <rect x=".5" y=".5" width="226.09" height="61.32" rx="8.13" ry="8.13" fill="#1a2a3d" opacity=".5" stroke="#7dabe2" stroke-miterlimit="10"/>
    <g>
      <path d="M93.71,37.46h-3.52l-6.84-11.23v11.23h-3.52v-17.06h3.52l6.86,11.25v-11.25h3.5v17.06Z" fill="#fff"/>
      <path d="M99.01,37.46h-3.39v-12.68h3.39v12.68ZM98.02,19.63h3.69l-3.25,3.63h-2.75l2.31-3.63Z" fill="#fff"/>
      <path d="M105.48,33.32l2.36-8.54h3.54l-4.28,12.68h-3.23l-4.28-12.68h3.54l2.36,8.54Z" fill="#fff"/>
      <path d="M117.34,37.69c-1.86,0-3.37-.57-4.54-1.71s-1.75-2.66-1.75-4.56v-.33c0-1.27.25-2.41.74-3.42s1.19-1.78,2.09-2.32,1.93-.81,3.09-.81c1.73,0,3.1.55,4.1,1.64s1.49,2.64,1.49,4.65v1.38h-8.07c.11.83.44,1.49.99,1.99s1.25.75,2.09.75c1.3,0,2.32-.47,3.06-1.42l1.66,1.86c-.51.72-1.2,1.28-2.06,1.68s-1.83.6-2.88.6ZM116.96,27.27c-.67,0-1.22.23-1.63.68s-.69,1.11-.8,1.95h4.71v-.27c-.02-.75-.22-1.34-.61-1.75s-.95-.62-1.66-.62Z" fill="#fff"/>
      <path d="M126.85,37.46h-3.4v-18h3.4v18Z" fill="#fff"/>
      <path d="M136.52,27.42h1.8c.86,0,1.5-.21,1.91-.64s.62-1,.62-1.71-.21-1.22-.62-1.61-.97-.57-1.69-.57c-.65,0-1.19.18-1.63.53s-.66.82-.66,1.39h-3.39c0-.89.24-1.69.72-2.4s1.15-1.26,2.02-1.66,1.81-.6,2.85-.6c1.8,0,3.22.43,4.24,1.29s1.54,2.05,1.54,3.57c0,.78-.24,1.5-.71,2.16s-1.1,1.16-1.88,1.51c.96.34,1.68.86,2.15,1.55s.71,1.5.71,2.44c0,1.52-.55,2.73-1.66,3.64s-2.57,1.37-4.39,1.37c-1.7,0-3.1-.45-4.18-1.35s-1.62-2.09-1.62-3.56h3.39c0,.64.24,1.16.72,1.57s1.07.61,1.78.61c.8,0,1.44-.21,1.89-.64s.69-.99.69-1.69c0-1.7-.94-2.55-2.81-2.55h-1.79v-2.65Z" fill="#fff"/>
    </g>
  </g>
</svg>