<?xml version="1.0" encoding="UTF-8"?>
<svg id="Layer_2" data-name="Layer 2" xmlns="http://www.w3.org/2000/svg" viewBox="0 0 206.17 228.55">
  <g id="Layer_1-2" data-name="Layer 1">
    <g>
      <g>
        <path d="M191.68,152.02c-1.81,12.03-11.04,29.49-28.5,42.34-17.07,12.56-56.9,28.2-58.67,28.89-1.77-.69-41.6-16.33-58.67-28.89-17.46-12.85-26.69-30.31-28.5-42.34-8.21-54.46,1.24-120.51,1.24-120.51L104.51,4.89l85.94,26.61s9.44,66.05,1.24,120.51Z" fill="#fafffe"/>
        <path d="M197.16,70.88c-1.32-28.67-4.41-41.68-4.41-41.68L106.88.78l-2.37-.78-2.37.78L16.26,29.2s-3.09,13.02-4.41,41.68c-1.32,28.67-3.83,65.41,4.41,89.79,8.24,24.38,25.37,36.9,41.85,45.47,15.86,8.25,44.24,21.38,46.34,22.35v.06s.02,0,.06-.03c.04.02.06.03.06.03v-.06c2.09-.97,30.47-14.1,46.34-22.35,16.47-8.57,33.61-21.09,41.85-45.47,8.24-24.38,5.73-61.12,4.41-89.79ZM191.68,152.02c-1.81,12.03-11.04,29.49-28.5,42.34-17.07,12.56-56.9,28.2-58.67,28.89-1.77-.69-41.6-16.33-58.67-28.89-17.46-12.85-26.69-30.31-28.5-42.34-8.21-54.46,1.24-120.51,1.24-120.51L104.51,4.89l85.94,26.61s9.44,66.05,1.24,120.51Z" fill="#ffc200"/>
        <path d="M23.29,99.6s1.04-52.98,1.29-56.69,2.72-6.67,7.17-7.91S100.95,10.3,105.15,10.3s70.18,24.96,75.62,26.2c5.44,1.24,5.68,4.45,5.44,9.39s-3.02,32.06-3.02,32.06l-78.53-.67-80.56,31.14-.8-8.8Z" fill="#9fddf6"/>
        <path d="M23.39,71.34s6.75-36.57,42.51-43.33c35.75-6.75,75.62,8.73,89.79,16.64,14.17,7.91,20.43,36.08,20.1,38.88s-18.2-10.06-54.24-7.25c-36.04,2.8-98.48,33.78-98.48,33.78l.33-38.72Z" fill="#d8f0fa"/>
        <path d="M143,46.46c-.4-1.93.59-3.86,2.31-4.61,1.55-.68,3.41-.29,4.61.99,1.98-4.11,6.44-6.11,10.21-4.94,2.84.88,4.98,3.45,5.6,6.59,2.68-1.08,5.33.16,5.93,1.98.4,1.21-.11,2.69-1.15,3.79-3.97.2-8.84.13-14.33-.66-5.14-.74-9.58-1.92-13.18-3.13Z" fill="#fff"/>
        <path d="M189.57,91.19s-26.07-6.67-40.16-4.82c-14.09,1.85-17.79,3.21-18.29,5.68s2.84,5.68,24.47,10.87c21.62,5.19,33.98,10.01,33.98,10.01v-21.75Z" fill="#b1d008"/>
        <path d="M154.54,88.17s12.11.99,19.03,1.73c6.92.74,15.05,3.08,15.79,4.81s.21,18.24.21,18.24c0,0-44.31-12.2-49.11-14.14-3.3-1.34,14.33-5.44,18.53-6.43s-4.45-4.2-4.45-4.2Z" fill="#59a11b"/>
        <path d="M107,63.3s-7.24-2.76-7.06-3.46,5.86-6.51,9.2-9.47,7.33-8.48,8.73-8.44,21.95,12.48,22.28,12.93,1.07.78.7,1.44-5.89,3.79-6.51,3.38-14.42-10.87-14.83-10.5-11.72,14.44-12.52,14.13Z" fill="#8d0800"/>
        <path d="M100.73,59.95s1.76,1.04,2.36.82,14.72-16.2,15.43-16.64,16.09,9.72,17.52,10.43,3.19,2.2,3.62,2.03.88-1.1.66-1.21-22.1-13.93-22.45-13.47-17.15,18.03-17.15,18.03Z" fill="#bc1713"/>
        <path d="M164.13,64.91s1.19.16,1.44,0-.21-2.76-1.44-5.35-1.52-4.32-1.94-4.37-25.2.7-27.35.7c-1.32,0-6.15,9.06-5.86,9.72s.71.7,3.3.97,26.9-.02,27.72-.35,4.12-1.32,4.12-1.32Z" fill="#8d0800"/>
        <path d="M130.82,64.32c-.48-.24,2.47-5.55,3.51-6.7s1.59-1.15,1.59-1.15l24.99-.6.27.05s-2.42,7.91-2.91,7.96-26.69.82-27.46.44Z" fill="#bc1713"/>
        <path d="M25.26,98.72c1.98-1.25,5.26-.63,4.94-.66-.09,0-1.11-.11-1.59-.99-.42-.77-.23-1.8.49-2.47-.25-.28-2.1-2.46-1.54-5.11.65-3.07,4.07-5.57,6.97-4.67,2.33.72,3.22,3.3,3.35,3.68,3.83,3.55,7.65,7.1,11.48,10.65-4.59,2.28-9.57,5.03-14.77,8.35-5.03,3.21-7.68,4.79-11.59,7.9-.39-.69-5.44-11.85,2.25-16.68Z" fill="#59a11b"/>
        <path d="M62.71,83.35c.39-.65,1.93-3.2,5.16-4.12,2.7-.76,4.97.08,5.71.38.03-.3.4-3.16,3.02-4.67,2.29-1.31,4.57-.61,4.94-.49.39-.36,2.79-2.52,6.32-2.2,4.32.39,6.39,4.17,6.54,4.45.05,2.53.11,5.05.16,7.58-5.67,1.3-11.79,2.96-18.23,5.11-4.77,1.59-12.23,4.06-16.35,5.78-.19-.34-.24-6.88,2.73-11.82Z" fill="#59a11b"/>
        <path d="M93.62,84.78s.66-6.15.82-8.79,0-6.43,0-6.43c0,0,11.7-.27,11.92-.38s-.27-7.85,0-7.96,13.13-12.8,13.4-12.85,12.74,9.17,12.91,9.5-3.24,6.92-2.86,7.52,1.7.88,2.31.82,26.3-.49,26.85-.55,2.47-5.55,2.58-5.93,3.29,4.94,3.29,5.16-.77,15.38-.77,15.38c0,0-4.94,2.69-5.88,2.53s-8.46-2.47-35.37-1.15c-9.01.44-29.22,3.13-29.22,3.13Z" fill="#ffc200"/>
        <path d="M132.96,57.84c-.17-.42-12.85-9.96-13.39-10.01s-13.45,12.8-13.78,13.34c-.33.55-.49,7.25-.49,7.25l-11.37.37-1.15,16.55s3.79-.33,5.27-.56c1.48-.23,16.64-2.03,16.64-2.03l.27-3.24s-7.52.49-7.8.38c-.27-.11.05-17.08.22-17.68.16-.6,12.41-11.97,12.41-11.97,0,0,8.4,6.86,9.56,7.74,1.15.88,1.89,2.38,2.11,2.78.22.4,1.68-2.5,1.51-2.92ZM106.06,80.67s-10.05,1.04-10.27.82c-.22-.22,0-9.99,0-10.71,0,0,9.83-.49,10.27-.27.44.22,0,10.16,0,10.16Z" fill="#ff9100"/>
        <path d="M161.82,59.09c-.44-.33-1.04.05-1.15.44-.11.38-1.59,5.49-2.14,5.55-.55.05-27.02.55-27.02.55l.66,13.09s-3.79.25-6.37.25h-2.58v3.02s17.57-.27,23.01,0c5.44.27,11.97,1.15,11.97,1.15l6.1-2.53.6-16.31s-2.64-4.89-3.08-5.22ZM156.11,79.52c-.49.38-6.85-.55-11.47-.6-4.62-.05-11.66.27-11.66,0v-11.04h14.01c.77,0,8.79-.55,8.9-.27.11.27.71,11.53.22,11.92Z" fill="#ff9100"/>
        <path d="M113.97,69.6c-1.01,1.37,0,13.28,0,13.28l10.12-.78s.36-11.32,0-12.51-2.49-1.55-5.21-1.31c-2.71.24-4.92,1.31-4.92,1.31Z" fill="#331006"/>
        <path d="M108.08,83.54c-8.1,2.58-29.7,8.54-25.64,19.76,3.71,10.26,41.48,18.06,35.83,29.31-4.33,8.63-32.87,15.67-43.49,19.13-10.63,3.46-43.49,12.85-44.24,12.36-.74-.49-6.05-14.83-6.67-24.47-.62-9.64-.86-24.22-.86-24.22,0,0,16.68-14.83,44.48-24.09,27.8-9.27,40.59-7.77,40.59-7.77Z" fill="#b1d008"/>
        <path d="M142.5,69.93c-.14-.06-2.57.04-3.85,0s-2.27.13-2.27.13c0,0-.05,2.92,0,4.46.05,1.54.13,2.31.13,2.31,0,0,5.91.08,5.99-.08s.14-6.75,0-6.82ZM141.8,75.97c-.06.14-4.61.07-4.61.07,0,0-.06-.63-.1-1.91-.04-1.28,0-3.69,0-3.69,0,0,.77-.14,1.75-.11.98.03,2.85-.05,2.96,0,.11.05.06,5.5,0,5.63Z" fill="#721f01"/>
        <path d="M153.62,69.93c-.14-.06-2.57.04-3.85,0s-2.27.13-2.27.13c0,0-.05,2.92,0,4.46.05,1.54.13,2.31.13,2.31,0,0,5.91.08,5.99-.08s.14-6.75,0-6.82ZM152.92,75.97c-.06.14-4.61.07-4.61.07,0,0-.06-.63-.1-1.91-.04-1.28,0-3.69,0-3.69,0,0,.77-.14,1.75-.11.98.03,2.85-.05,2.96,0,.11.05.06,5.5,0,5.63Z" fill="#721f01"/>
        <path d="M104.25,72.6c-.14-.06-2.57.04-3.85,0s-2.27.13-2.27.13c0,0-.05,2.92,0,4.46.05,1.54.13,2.31.13,2.31,0,0,5.91.08,5.99-.08s.14-6.75,0-6.82ZM103.55,78.64c-.06.14-4.61.07-4.61.07,0,0-.06-.63-.1-1.91-.04-1.28,0-3.69,0-3.69,0,0,.77-.14,1.75-.11.98.03,2.85-.05,2.96,0,.11.05.06,5.5,0,5.63Z" fill="#721f01"/>
        <path d="M122.59,56.66c-.14-.06-2.57.04-3.85,0s-2.27.13-2.27.13c0,0-.05,2.92,0,4.46.05,1.54.13,2.31.13,2.31,0,0,5.91.08,5.99-.08s.14-6.75,0-6.82ZM121.9,62.69c-.06.14-4.61.07-4.61.07,0,0-.06-.63-.1-1.91-.04-1.28,0-3.69,0-3.69,0,0,.77-.14,1.75-.11.98.03,2.85-.05,2.96,0,.11.05.06,5.5,0,5.63Z" fill="#721f01"/>
        <path d="M88.78,96.89c-4.67,10.38,17.93,18.48,21.8,20.54,3.87,2.06,15.72,5.15,17.46,11.53,1.97,7.23-22.82,17.3-33.86,21.58s-59.97,19.11-60.13,19.44,2.31,3.29,5.52,8.07,17.22,15.16,22.82,19.19,42.26,19.93,43.41,20.18,19.28-7.31,32.46-14.91c14.19-8.19,30.67-16.75,45.99-43.77,7.58-13.38,5.11-33.86,5.27-36.9s-.27-6.48-.27-6.48c0,0-9.56-3.46-17.22-5.6s-49.94-10.86-46.77-17.29c4.66-9.42,37.05-7.7,37.05-7.7,0,0-20.84-4.37-41.47-1.37-20.67,3.01-29.82,8.62-32.07,13.48Z" fill="#0f0d0e"/>
        <path d="M92.22,97.3c-3.62,8.65,16.06,15.24,20.26,16.89,4.08,1.6,23.3,6.8,24.71,13.26,2.22,10.21-26.94,21.75-37.97,26.03-11.04,4.28-57.09,19.44-57.25,19.77s11.78,14.58,23.56,20.92c6.08,3.27,39.54,18.12,40.69,18.37,1.15.25,17.08-5.37,30.23-13.02,14.02-8.16,23.25-14.91,39.46-35.59,15.23-19.43,12.69-38.14,12.69-38.14.98-5.25-2.64-8.81-18.12-13.18-7.66-2.16-49.26-11.53-46.79-20.02,2.94-10.09,38.63-7.82,38.63-7.82,0,0-20.63-3.25-41.26-.25-20.67,3.01-26.59,7.9-28.83,12.77Z" fill="#313131"/>
        <g>
          <path d="M127.08,86.04c1.18-.11,2.65-.42,2.64-.62-.02-.18-1.26-.26-2.39-.12-1.16.14-2.33.53-2.31.7.03.18,1.34.11,2.06.04Z" fill="#fff"/>
          <path d="M118.43,88.59c1.05-.18,1.22-.48,2.88-.99,1.43-.44,2.23-.5,2.22-.66,0-.19-1.18-.33-2.22-.33-1.36,0-5.7,1.28-5.6,1.77.07.34,1.58.4,2.72.21Z" fill="#fff"/>
          <path d="M110.85,92.18c1.1-.66,3.38-2.06,3.71-2.39.3-.3-1.37-.32-1.77-.21-1.66.49-3.63,1.97-3.91,2.31-.34.4,1.88.35,1.98.29Z" fill="#fff"/>
          <path d="M107.8,98.77c.25.1,1.81.13,1.65-.33-.18-.5-.42-1.6-.29-3.71.05-.72.26-.86.07-1.04-.28-.26-.89-.08-1.35-.12-.38-.03-1.03,1.76-1.07,2.18-.01.12.09,2.67.99,3.01Z" fill="#fff"/>
          <path d="M111.65,100.87c-1.23-.16-1.9-.09-2.02.21-.24.58,1.69,2.03,5.77,4.37.67-.21,1.35-.41,2.02-.62-1.02-.49-2.19-1.14-3.42-2.02-.91-.65-1.69-1.32-2.35-1.94Z" fill="#fff"/>
          <path d="M122.2,106.43c-.76.26-1.51.52-2.27.78,1.07.53,2.19,1.05,3.38,1.57,1.55.67,3.06,1.26,4.49,1.77.73-.34,1.46-.69,2.18-1.03-1.23-.51-2.48-1.02-3.75-1.52-1.36-.54-2.71-1.06-4.04-1.57Z" fill="#fff"/>
          <path d="M138.01,113.47c.62-.34,1.24-.69,1.85-1.03-1.15-.31-2.3-.63-3.46-.95-1.28-.36-2.56-.71-3.83-1.07-.66.22-1.32.44-1.98.66.97.5,2.16,1.03,3.54,1.48,1.44.47,2.76.74,3.87.91Z" fill="#fff"/>
          <path d="M152.43,118c.88-.33,1.76-.66,2.64-.99-1.58-.73-3.4-1.46-5.44-2.1-1.7-.54-3.31-.94-4.78-1.24-.56.43-1.13.85-1.69,1.28,1.43.38,2.91.82,4.45,1.32,1.7.55,3.31,1.14,4.82,1.73Z" fill="#fff"/>
          <path d="M160.21,123.73c.92,1.54,1.28,2.98,1.44,3.91,1.22-.12,2.44-.25,3.67-.37-.31-1.19-1.06-3.43-3.01-5.52-1.28-1.38-2.63-2.2-3.58-2.68-.67.34-1.35.69-2.02,1.03.86.56,2.34,1.69,3.5,3.62Z" fill="#fff"/>
          <path d="M158.86,137.07c-1.61,2.52-3.36,4.43-4.82,5.81,1.52.22,3.05.44,4.57.66,1.14-1.39,2.4-3.14,3.58-5.27,1.31-2.35,2.17-4.55,2.76-6.38-1.15.03-2.31.05-3.46.08-.61,1.51-1.45,3.26-2.64,5.11Z" fill="#fff"/>
          <path d="M140.94,153.79c-3.24,2.32-6.38,4.39-9.39,6.22,1.76.34,3.51.69,5.27,1.03,2.58-1.59,5.42-3.53,8.36-5.89,2.82-2.27,5.24-4.53,7.29-6.63-1.39-.12-2.77-.25-4.16-.37-2.28,1.86-4.73,3.75-7.37,5.64Z" fill="#fff"/>
          <path d="M114.08,169.86c-3.16,1.66-6.27,3.22-9.31,4.7,1.77.55,3.54,1.1,5.31,1.65,5.78-3.25,11.56-6.51,17.34-9.76-1.65-.38-3.29-.77-4.94-1.15-2.71,1.53-5.51,3.05-8.4,4.57Z" fill="#fff"/>
          <path d="M67.46,192.22c1.84.96,3.68,1.92,5.52,2.88,9.13-4.71,18.26-9.42,27.39-14.13-1.73-.58-3.46-1.15-5.19-1.73-9.24,4.32-18.48,8.65-27.72,12.97Z" fill="#fff"/>
        </g>
        <path d="M54.69,140.24c.61.32,3.88,1.95,7.54.62,1.89-.69,3.1-1.89,3.71-2.59-3.05-13.51-6.1-27.02-9.14-40.53,1.58-.39,4.17-1.29,5.56-3.58,1.67-2.76.73-6.1.37-7.41-1.69-6.26-4.46-20.49-8.16-40.16-.17-.37-1.94-4.06-5.44-4.45-.89-.1-1.69.04-2.35.25-2.56.28-4.67.61-6.18.86-5.34.92-7.04,1.65-8.4,2.47-2.73,1.66-3.22,3.18-3.34,3.58-.41,1.46.15,2.75.25,3.21,1.3,6.51,8.26,40.79,9.02,43.62.32,1.19.98,1.71,1.88,2.5,2.28,2,5.82,1.37,6.84,1.04,2.61,13.52,5.23,27.05,7.84,40.57Z" fill="#162336"/>
        <path d="M32.51,48.6c-.77,1.66,5.6,30.15,9.47,47.53,1.33,1.81,2.86,2.42,5.02,1.89,1.19-.29,2.98-.58,5.77-1.4,2.97-.87,5.93-1.62,7.25-2.72,2.01-1.67,1.84-2.46,1.67-3.82-.33-2.71-1.4-7.36-2.03-10.82-.15-.8-3.51-16.42-6.07-29.19-.12-.59-.31-3.94-1.48-5.19-.7-.75-1.72-1.07-3.79-1.15-4.4-.18-7.91,1.18-11.53,2.22-1.51.43-3.51.99-4.28,2.64Z" fill="#38475c"/>
        <path d="M180.26,86.95c-.68.24-5.53,1.84-10.21-.99-3.67-2.22-4.89-5.73-5.19-6.67-.21-.24-2.97-3.44-1.89-7.41.9-3.31,4.08-5.74,7.83-5.85-.87-3.27.49-6.6,3.13-8.07,3.08-1.72,6.36-.04,6.59.08,3.28-2.23,7.48-2.46,10.79-.58,4.14,2.35,4.86,6.86,4.94,7.41,3.9.26,7.18,2.71,8.24,6.1,1.1,3.52-.68,6.57-.99,7.08.27.63,1.56,3.9,0,7.17-1.58,3.3-4.95,4.29-6.34,4.7-2.96.87-5.43.33-9.23-.49-3.23-.7-5.84-1.68-7.66-2.47Z" fill="#59a11b"/>
        <path d="M169.55,76.48c-2.04-1.07-2.93-3.48-2.14-5.52.85-2.19,3.44-3.36,5.77-2.47-1.11-3.86.47-7.35,2.88-8.24,1.81-.67,3.66.27,4.2.58,2.09-2.51,5.45-3.55,8.48-2.64,3.38,1.01,5.73,4.25,5.68,7.91,3.72-.37,7.01,2.05,7.66,5.27.52,2.56-.69,5.32-3.05,6.92.24.96.87,3.97-.74,5.52-.78.75-1.67.76-5.02.74-8.31-.04-9.38-.15-10.96-.49-1.93-.43-3.55-.99-4.78-1.48-.47.36-2.74,2.06-5.68,1.57-.25-.04-4.49-.81-4.78-3.62-.16-1.5.87-3.06,2.47-4.04Z" fill="#b1d008"/>
        <path d="M179.35,72.61c-1.4-.74-2.6-2.98-2.55-5.68.03-2.09,2-4.7,4.45-4.7,2.08,0,3.44,1.88,3.62,2.14.93-2.01,2.87-3.19,4.61-2.97,2.35.3,4.39,3.17,3.54,6.34,2.3-1.09,4.92-.53,6.26,1.15,1.73,2.17.65,5.34-.99,6.92-2.02,1.94-5.52,2.12-8.24.16-9.97,1.43-10.53-3.28-10.71-3.38Z" fill="#ecf2c0"/>
        <ellipse cx="80.87" cy="40.12" rx="10.86" ry="10.95" fill="#ffc200"/>
        <ellipse cx="47.81" cy="71.03" rx="7.63" ry="7.69" fill="#564922"/>
        <path d="M78.87,28.1s1.63-5.42,1.65-5.4l1.48,5.27s-3.13.12-3.13.12Z" fill="#ffc200"/>
        <path d="M83.81,28.38s3.7-4.28,3.71-4.25l-.8,5.42s-2.91-1.16-2.91-1.16Z" fill="#ffc200"/>
        <path d="M88.1,30.47s5.08-2.5,5.07-2.47l-2.85,4.68s-2.22-2.21-2.22-2.21Z" fill="#ffc200"/>
        <path d="M91.21,33.94s5.65-.38,5.63-.36l-4.41,3.25s-1.22-2.89-1.22-2.89Z" fill="#ffc200"/>
        <path d="M92.69,38.66s5.31,1.96,5.29,1.97l-5.35,1.16s.06-3.13.06-3.13Z" fill="#ffc200"/>
        <path d="M92.25,43.41s4.13,3.87,4.1,3.87l-5.38-1.01s1.28-2.86,1.28-2.86Z" fill="#ffc200"/>
        <path d="M90.2,47.51s2.73,4.96,2.7,4.95l-4.8-2.63s2.1-2.32,2.1-2.32Z" fill="#ffc200"/>
        <path d="M86.54,50.84s.46,5.64.44,5.62l-3.31-4.36s2.87-1.26,2.87-1.26Z" fill="#ffc200"/>
        <path d="M82.05,52.44s-1.77,5.37-1.78,5.35l-1.35-5.31s3.13-.04,3.13-.04Z" fill="#ffc200"/>
        <path d="M77.39,52.24s-3.68,4.3-3.68,4.27l.77-5.42s2.91,1.15,2.91,1.15Z" fill="#ffc200"/>
        <path d="M72.98,49.99s-5.11,2.42-5.11,2.4l2.91-4.64s2.19,2.24,2.19,2.24Z" fill="#ffc200"/>
        <path d="M69.9,46.35s-5.65.24-5.64.22l4.49-3.13s1.15,2.92,1.15,2.92Z" fill="#ffc200"/>
        <path d="M68.82,41.86s-5.44-1.56-5.42-1.58l5.25-1.55s.16,3.13.16,3.13Z" fill="#ffc200"/>
        <path d="M68.84,37.2s-4.44-3.51-4.41-3.52l5.45.56s-1.04,2.96-1.04,2.96Z" fill="#ffc200"/>
        <path d="M70.92,32.71s-2.62-5.02-2.59-5.01l4.74,2.73s-2.15,2.28-2.15,2.28Z" fill="#ffc200"/>
        <path d="M74.44,29.49s-.45-5.64-.43-5.62l3.3,4.37s-2.87,1.26-2.87,1.26Z" fill="#ffc200"/>
        <ellipse cx="47.81" cy="71.03" rx="6.75" ry="6.8" fill="#ffc200"/>
        <path d="M52.39,68.11c0,1.19-2.06.44-4.39.44s-3.36-.4-3.36-1.59,1.04-2.03,3.37-2.03,4.38,1.98,4.38,3.17Z" fill="#f9df95"/>
        <ellipse cx="51.38" cy="87.83" rx="7.63" ry="7.69" fill="#2f330f"/>
        <ellipse cx="51.38" cy="87.83" rx="6.75" ry="6.8" fill="#b1d008"/>
        <path d="M55.96,84.92c0,1.19-2.06.44-4.39.44s-3.36-.4-3.36-1.59,1.04-2.03,3.37-2.03,4.38,1.98,4.38,3.17Z" fill="#ecf2c0"/>
        <ellipse cx="44.08" cy="54.61" rx="7.63" ry="7.69" fill="#3a131d"/>
        <ellipse cx="44.08" cy="54.61" rx="6.75" ry="6.8" fill="#ff0037"/>
        <path d="M48.65,51.69c0,1.19-2.06.44-4.39.44s-3.36-.4-3.36-1.59,1.04-2.03,3.37-2.03,4.38,1.98,4.38,3.17Z" fill="#ef7f9d"/>
        <path d="M170.95,99.63c2.99-1.14,4.46-2.88,5.11-3.79,1.04-1.47,1.41-3.01,2.14-6.1.72-3.02,1.08-4.54.91-5.68-.51-3.32-3.03-5.99-4.53-7.58-.37-.4-.7-.71-.91-.91.33-.28,1.32-1.04,2.55-.91,1.47.16,2.35,1.5,2.72,2.06,1.3,1.98.51,3.32,1.89,4.78.28.3,1.07,1.13,2.14,1.15.53.01,1.15-.17,3.87-2.55,1.5-1.31,1.81-1.69,2.55-1.81,1.28-.21,2.72.5,2.72,1.07,0,.43-.82.56-2.06,1.24-.81.44-3.07,1.81-4.2,4.12-.33.67-.81,1.91-.74,3.71-.72,1.2-1.84,3.43-2.14,6.43-.39,3.85.78,6.83,1.4,8.16-1.94,0-4.54-.18-7.5-.99-2.43-.67-4.42-1.57-5.93-2.39Z" fill="#721f01"/>
        <path d="M118.27,132.61c3.55-7.06-10.03-12.77-21.54-18.58-1.96.35-3.15,1.49-3.05,2.83.15,1.94,5.85,1.48,8.07,5.11,3.54,5.78-.68,13.11-1.32,14.17-4.84,8.08-15.31,9.43-29,11.2-21.46,2.78-31.4-2.37-35.42-4.94-3.66-2.34-4.82-4.09-4.94-5.77-.49-6.98,17.19-12.72,18.12-13.02-.69-.79-5.61-6.26-13.51-6.1-.38,0-7.62.29-12.5,5.77.14,4.95.36,11.31.68,16.34.62,9.64,5.93,23.97,6.67,24.47.74.49,33.61-8.9,44.24-12.36,10.63-3.46,39.16-10.5,43.49-19.13Z" fill="#59a11b"/>
        <path d="M114.35,70.06c-.93,1.26,0,12.25,0,12.25l9.34-.71s.33-10.44,0-11.54-2.3-1.43-4.8-1.21-4.53,1.21-4.53,1.21Z" fill="#721f01"/>
        <path d="M121.54,76.27c-.86-.29-1.07,1.24-.29,1.4s1.28-1.07.29-1.4Z" fill="#f9df95"/>
        <path d="M106.43,69.52s-12.19.82-12.69.39-.93-.97-.36-1.71,5.39-6.18,5.76-6.63.74-.99,1.03-.99,6.26.12,6.47.58.25,7.87-.21,8.36Z" fill="#8d0800"/>
        <path d="M100.23,61.24c-.7.49-5.77,6.15-4.89,6.21s9.94.05,10.16-.33.99-4.45.49-5.11-4.83-1.43-5.77-.77Z" fill="#bc1713"/>
        <path d="M121.9,62.69c-.06.14-4.61.07-4.61.07,0,0-.06-.63-.1-1.91-.04-1.28,0-3.69,0-3.69,0,0,.77-.14,1.75-.11.98.03,2.85-.05,2.96,0,.11.05.06,5.5,0,5.63Z" fill="#d8f0fa"/>
        <path d="M141.8,75.97c-.06.14-4.61.07-4.61.07,0,0-.06-.63-.1-1.91-.04-1.28,0-3.69,0-3.69,0,0,.77-.14,1.75-.11.98.03,2.85-.05,2.96,0,.11.05.06,5.5,0,5.63Z" fill="#d8f0fa"/>
        <path d="M152.92,75.97c-.06.14-4.61.07-4.61.07,0,0-.06-.63-.1-1.91-.04-1.28,0-3.69,0-3.69,0,0,.77-.14,1.75-.11.98.03,2.85-.05,2.96,0,.11.05.06,5.5,0,5.63Z" fill="#d8f0fa"/>
        <path d="M103.55,78.64c-.06.14-4.61.07-4.61.07,0,0-.06-.63-.1-1.91-.04-1.28,0-3.69,0-3.69,0,0,.77-.14,1.75-.11.98.03,2.85-.05,2.96,0,.11.05.06,5.5,0,5.63Z" fill="#d8f0fa"/>
      </g>
      <g>
        <g>
          <path d="M200,129.32c-.94-1.56-26.19-.77-38.78,0-25.64,1.56-52.53,6.25-55.35,6.25-7.82,0-25.33-3.75-50.03-7.19-24.7-3.44-46.91,0-49.09,1.56-2.19,1.56-.63,4.07-.63,20.01s2.81,26.27,2.81,26.27l9.54,3.98,4.22,11.66s43.47,4.69,74.42,5c30.96.31,83.49-2.81,84.43-3.13.94-.31,7.82-15.01,7.82-15.01,0,0-1-.22-2.97-.57,6.42-.82,10.72-1.51,11.41-1.93,3.13-1.88,1.56-5.94,2.19-15.01.63-9.07.94-30.33,0-31.9Z" fill="#fafffe"/>
          <path d="M101.73,202.47c-1.59,0-3.15,0-4.67-.02-30.87-.31-74.53-4.99-74.97-5.04l-3.47-.37-4.57-12.63-9.79-4.08-.72-2.63c-.12-.45-3.01-11.23-3.01-27.74,0-5.98-.22-9.94-.38-12.84-.14-2.56-.24-4.24-.06-5.74.3-2.56,1.44-4.57,3.41-5.98,1-.72,2.6-1.5,7.4-2.34,3.27-.58,7.27-1.04,11.56-1.34,7.89-.55,20.22-.81,34.15,1.13,10.15,1.41,18.89,2.85,26.61,4.11,10.28,1.69,18.41,3.02,22.61,3.03.83-.04,4.41-.55,7.87-1.04,10.91-1.54,29.16-4.11,47.19-5.21,5.56-.34,15.19-.77,24.02-.88,4.45-.06,8.04-.02,10.68.11,1.61.08,2.87.19,3.86.35,1.05.16,3.83.6,5.34,3.12.83,1.38,1.11,2.96,1.27,7.02.09,2.31.13,5.43.11,9.02-.04,6.81-.28,14.5-.6,19.11-.19,2.72-.16,4.95-.14,6.91.03,2.38.05,4.25-.32,6.07-.58,2.85-2.07,5.02-4.43,6.43-.82.49-1.56.94-7.06,1.78-.68,1.43-1.72,3.6-2.81,5.8-1.1,2.22-2.02,4.02-2.75,5.35-1.26,2.3-2.35,4.29-4.75,5.1-.8.27-1.1.37-10.67.94-6.41.38-14.15.79-21.8,1.14-13.96.64-33.24,1.36-49.11,1.36ZM26.75,186.67c10.87,1.1,45.11,4.36,70.42,4.61,26.71.27,70.42-2.1,81.19-2.86.73-1.36,1.74-3.34,2.82-5.54l-31.41-5.68,35.91-4.58c4.65-.59,7.2-1,8.57-1.25.03-.78.02-1.83,0-2.74-.02-2.06-.05-4.63.17-7.8.51-7.44.71-20.46.49-26.71-2.19-.1-5.87-.17-11.99-.06-6.67.12-15.06.45-21.37.83-17.59,1.07-35.57,3.61-46.31,5.12-6.04.85-8.19,1.15-9.38,1.15-5.09,0-13.21-1.33-24.46-3.18-7.65-1.25-16.33-2.68-26.34-4.07-12.34-1.72-23.34-1.57-30.4-1.15-6.46.39-11.04,1.09-13.48,1.6.03.65.07,1.39.11,2.13.16,2.85.4,7.17.4,13.46,0,10.43,1.27,18.37,2.04,22.22l9.14,3.81,3.86,10.68ZM195.74,171.06s0,0,0,0c0,0,0,0,0,0ZM9.37,134.85s0,0,0,0c0,0,0,0,0,0ZM194.69,130.94h0s0,0,0,0Z" fill="#fafffe"/>
        </g>
        <path d="M23.95,182.48l-15.01-6.25s-2.81-10.32-2.81-26.27-1.56-18.45.63-20.01,24.39-5,49.09-1.56c24.7,3.44,42.21,7.19,50.03,7.19,2.81,0,29.71-4.69,55.35-6.25,12.58-.77,37.84-1.56,38.78,0s.63,22.83,0,31.9.94,13.13-2.19,15.01-79.43,9.38-94.12,8.76c-14.7-.63-74.74,1.25-79.74-2.5Z" fill="#045b24"/>
        <g>
          <path d="M30.33,163.89c0,.86-1.06,1.42-2.12,1.42-2.69,0-4.68-.79-6.56-4.52-.81-1.68-2.12-6.99-2.77-9.72h-.53v9.27c0,2.99,1.67,2.69,1.67,3.55s-.69,1.42-1.75,1.42h-5.78c-1.06,0-1.75-.56-1.75-1.42s1.63-.56,1.63-3.55v-16.19c0-2.99-1.63-2.73-1.63-3.55s.69-1.42,1.75-1.42h10.75c2.08,0,5.5,1.23,5.5,6.13,0,3.25-2,4.86-5.01,5.46.69,2.17,2.85,8.53,4.03,10.51,1.43,2.39,2.57,1.76,2.57,2.62ZM20.23,141.76h-1.87v7.4c5.58-.15,6.15-2.99,6.15-4.19,0-2.88-2.61-3.22-4.28-3.22Z" fill="#fafffe"/>
          <path d="M50.53,163.86c0,.86-.69,1.42-1.75,1.42-2.36,0-5.09-.67-5.74-3.59-1.26,1.61-3.42,3.59-6.15,3.59-3.75,0-4.77-4.49-4.77-6.28v-7.7c0-2.99-1.63-2.73-1.63-3.59s.69-1.38,1.75-1.38c2.69,0,5.87.86,5.87,4.97v7.7c0,1.65.98,2.62,1.71,2.62,1.38,0,2.81-2.54,3.06-4.94v-5.42c0-2.99-1.63-2.73-1.63-3.55s.69-1.42,1.75-1.42h5.78c1.06,0,1.75.56,1.75,1.42s-1.63.56-1.63,3.55v9.01h-.08l.08.04c0,2.99,1.63,2.73,1.63,3.55Z" fill="#fafffe"/>
          <path d="M70.45,163.86c0,.86-.69,1.42-1.75,1.42-2.57,0-5.58-.82-5.87-4.49-1.14,2.13-4.32,4.64-6.44,4.64-2.65,0-4.44-1.68-4.44-4.94,0-4.15,5.17-8.45,10.84-6.02-.12-3.14-.81-5.95-2.4-5.95-2.4,0-1.22,3.44-2.12,4.37-1.43,1.42-6.27-.79-5.34-2.84,1.59-3.44,4.2-4.11,7.45-4.11,5.38,0,8.43,4.08,8.43,9.8v4.52h-.08l.08.04c0,2.99,1.63,2.73,1.63,3.55ZM62.84,156.04c-6.48-1.94-5.95,5.91-4.2,5.91,2.4,0,4.2-3.74,4.2-5.91Z" fill="#fafffe"/>
          <path d="M86.56,163.68c0,.53-.42.87-1.07.87-1.42,0-3.04-.41-3.48-2.08-.77.96-2.09,2.19-3.78,2.19-3.31,0-3.19-4.3-3.19-5.39s.45-6.33,3.81-6.33c1.42,0,2.41.85,3.04,1.67v-2.97c0-1.83-1-1.64-1-2.17s.42-.87,1.07-.87c1.64,0,3.58.55,3.58,3.04v9.87c0,1.83,1.02,1.64,1.02,2.17ZM81.88,157.7c-.1-1.3-.52-2.35-1.29-2.35-.65,0-1.57.59-1.79,3.72-.12,1.42.32,3.27,1.22,3.27.8,0,1.69-1.42,1.87-2.81v-1.83Z" fill="#fafffe"/>
          <path d="M97.39,158.75c0,3.5-1.87,5.99-5.13,5.99s-5.15-2.49-5.15-5.99,1.87-5.99,5.15-5.99,5.13,2.49,5.13,5.99ZM94.05,158.75c0-2.19-.7-4.41-1.79-4.41s-1.79,2.22-1.79,4.41.7,4.39,1.79,4.39,1.79-2.19,1.79-4.39Z" fill="#fafffe"/>
          <path d="M114.68,150.1c5.42,2.84,7.78,5.98,6.03,10.43-2.12,5.31-9.53,5.01-10.79,5.01-2.12-.04-6.4-.79-7.98-2.36-1.55-1.53,1.91-8.08,3.95-6.69,1.47,1.01,1.34,5.12,4.81,5.12,4.44,0,6.23-3.51-1.83-8.26-6.44-3.78-6.72-7.93-5.46-10.4,2.16-4.15,7.25-4.11,8.51-4.08,2.12.04,5.09.75,6.72,2.36,1.51,1.5-2.81,4.97-4.2,3.66-1.59-1.53-2.04-2.88-3.99-2.92-2.04-.04-2.44,4.6,4.24,8.11Z" fill="#fafffe"/>
          <path d="M139.73,163.86c0,.86-.69,1.42-1.75,1.42-2.57,0-5.58-.82-5.87-4.49-1.14,2.13-4.32,4.64-6.44,4.64-2.65,0-4.44-1.68-4.44-4.94,0-4.15,5.17-8.45,10.84-6.02-.12-3.14-.81-5.95-2.4-5.95-2.4,0-1.22,3.44-2.12,4.37-1.43,1.42-6.27-.79-5.34-2.84,1.59-3.44,4.2-4.11,7.45-4.11,5.38,0,8.43,4.08,8.43,9.8v4.52h-.08l.08.04c0,2.99,1.63,2.73,1.63,3.55ZM132.11,156.04c-6.48-1.94-5.95,5.91-4.2,5.91,2.4,0,4.2-3.74,4.2-5.91Z" fill="#fafffe"/>
          <path d="M159.53,155.07c0,1.79-.69,10.36-6.19,10.36-2.57,0-4.32-1.68-5.34-3.18-.86,2.39-3.38,2.99-5.54,2.99-1.06,0-1.75-.56-1.75-1.42s1.63-.56,1.63-3.55v-16.15c0-2.99-1.63-2.69-1.63-3.55s.69-1.42,1.75-1.42c2.69,0,5.87.9,5.87,4.97v5.53c1.3-1.57,3.38-3.4,6.03-3.4,5.42,0,5.17,7.07,5.17,8.82ZM153.42,154.17c0-2.32-1.34-4-2.08-4-1.34,0-2.69,2.21-3.01,4.49v3.37c.16,1.94.65,3.59,1.91,3.59s3.18-2.54,3.18-7.44Z" fill="#fafffe"/>
          <path d="M178.02,158.73c0,3.63-2.77,6.81-7.62,6.81-5.38,0-9.12-4.08-9.12-9.8s3.06-9.8,8.43-9.8c3.22,0,5.25,1.08,6.84,3.66.81,1.27,1.1,3.96-.37,3.96h-9.29c-.08.71-.12,1.42-.12,2.17,0,3.59,2.44,4.9,3.91,4.9,2.08,0,4.2-1.23,4.2-5.27,0-.97,3.14.11,3.14,3.37ZM167.06,152.49h4.56c.04-1.23.41-3.96-1.91-3.96-1.26,0-2.16,1.72-2.65,3.96Z" fill="#fafffe"/>
          <path d="M191.83,154.1c-.94-.93.29-5.57-2.12-5.57-1.55,0-2.61,2.62-2.89,5.61v6.17c0,2.99,1.67,2.73,1.67,3.55s-.69,1.42-1.75,1.42h-5.78c-1.06,0-1.75-.56-1.75-1.42s1.63-.56,1.63-3.55v-9.01h.04-.04c0-2.99-1.63-2.73-1.63-3.59s.69-1.38,1.75-1.38c1.83,0,3.91.41,5.05,1.98.86-1.5,2.32-2.36,4.16-2.36,4.15,0,5.42,1.87,6.97,5.31.94,2.06-3.91,4.23-5.3,2.84Z" fill="#fafffe"/>
        </g>
        <path d="M17.38,177.16l5.32,14.7s43.47,4.69,74.42,5c30.96.31,83.49-2.81,84.43-3.13s7.82-15.01,7.82-15.01c0,0-31.9-6.88-88.81-6.88s-83.18,5.32-83.18,5.32Z" fill="#ff9100"/>
      </g>
    </g>
  </g>
</svg>