<?xml version="1.0" encoding="UTF-8"?>
<svg id="Layer_2" data-name="Layer 2" xmlns="http://www.w3.org/2000/svg" viewBox="0 0 229.27 319.42">
  <g id="Layer_1-2" data-name="Layer 1">
    <path d="M129.63,319.02c-52.52,2.26-103.34-5.65-115.2-25.41,7.14-56.53,84.53-55.09,86.96-42.92l77.36-3.39c53.08-2.26,52.58,32.45,27.11,46.31-37.84,31.06-76.24,25.41-76.24,25.41Z" fill="#0e1a26" opacity=".2"/>
    <g>
      <path d="M93.81,229.79c0,26.06-3.69,49.43,18.63,51.35,45.36,3.91,62.49-25.28,62.49-51.35,0-26.06-18.16-47.19-40.56-47.19-22.4,0-40.56,21.13-40.56,47.19Z" fill="#05293d"/>
      <ellipse cx="112.17" cy="233.23" rx="40.56" ry="47.19" fill="#05293d"/>
      <ellipse cx="104.58" cy="237.47" rx="26.13" ry="30.84" fill="#78a2c9"/>
      <path d="M52.81,234.84c-3.92-3.81-7.04-7.97-10.28-12.76-4.37,8.89-9.43,19.67-17.36,25.24-3.01,2.42-6.46,2.97-10.26,2.49-9.43-1.19-13.41-11.47-14.36-19.76-1.04-9.09-.61-18.05,1.16-27.05,1.59-8.06,3.36-15.75,5.47-23.68,2.92-11.03,7.68-23.62,14.41-32.94.15-11.13,1.42-23.25,6.62-33.42-1.37-2.62-2.1-5.16-2.35-8.19-1.15-13.74-.29-27.37,2.97-40.77,4.65-19.09,14.11-36.08,29.99-47.88C75.92,3.42,102.28-.77,123.14.11c5.76.24,37.19-1.17,62.95,23.8,3.61,3.5,6.76,7.04,9.31,11.32,7.29,12.25,13.63,33.63,16.7,47.72,1.13,5.49,1.88,10.69,2.21,16.27.33,5.62-1.13,10.83-4.3,15.58,10.33,9.54,13.48,21.85,17.14,34.81,2.45,10.62,3.82,25.36-1.81,35.04-3.65,6.28-7.59,6.57-14.23,6.9-3.36,10.37-8.29,19.72-14.2,28.71-3.43,5.21-7.26,9.59-12.13,13.54-9.79,7.95-21.1,13.62-33.33,16.83-4.14,1.09-8.16,1.32-12.4,1.82-5.58.67-10.85,1.54-16.5,1.78-18.07.79-38.45-1.55-55.07-9.52-5.53-2.68-10.32-5.74-14.66-9.88ZM100.79,4.65c-13.77,1.62-28.25,6.04-39.39,14.26-8.93,6.59-15.84,15.2-20.91,24.76-4.14,7.8-7.36,15.69-9.08,24.49-2.51,12.82-3.32,25.88-1.32,38.87,1.33,8.65,13.47,15.86,20.84,19.19,10.44,4.72,21.36,7.55,32.76,8.97,21.44,2.67,46.28,1.51,67.64-1.55,16.8-2.41,33.49-6.81,48.12-15.39,1.33-.78,3.08-1.07,4.22-2.06,3.81-3.3,6.33-8.36,6.7-13.42.36-4.83-.18-9.34-.97-14.13-2.13-12.94-5.74-25.35-10.47-37.53-1.57-4.05-3.34-7.67-5.3-11.47-2.43-4.73-5.78-8.47-9.41-12.05-9.85-9.7-22.01-16.58-35.17-20.41-3.44-1-6.55-2.18-10.06-2.55-5.67-.6-11.22-.84-16.74-.69-7.33-.54-14.43-.1-21.47.73ZM30.2,117.81c-3.23,7.08-4.36,16.06-4.59,23.96,1.78-1.46,3.46-2.77,5.48-3.75,7.95-3.85,13.36,1.01,17,2.02s6.63,1.93,9.12,4.9c11.56,13.78,9.83,38.27,3.88,54.29-1.67,4.49-4.41,8.2-7.41,11.69-2.05,2.39-5.37,3.49-7.86,4.69-.75.67-.95,1.52-1.31,2.49,3.19,5.17,6.75,9.94,11.21,14.09,8.85,8.23,22.67,13.15,34.36,15.65,10.08,2.16,20.07,2.89,30.39,2.78,6.31-.07,12.33-.06,18.55-.8,3.78-.45,7.18-1.63,10.83-2.66,8.42-2.37,16.36-5.75,23.71-10.49,6.28-4.04,6.38-4.36,11.85-8.97,3.29-2.77,5.31-6.15,7.67-9.38,21.21-29.04,23.95-62.6,12.32-96.07-2.25,2.58-3.87,4.9-6,7.08-.39.4-.66.85-.68,1.32-.82.38-1.4.95-2.02,1.55-7.02,6.77-15.05,12.04-24.06,15.87-15.78,6.71-31.27,8.32-48.35,8.54-12.07.15-23.8-.72-35.63-2.95-9.54-1.8-18.36-4.82-27.06-8.61-12.61-6.31-23.34-15.38-31.42-27.27ZM222.49,148.68c-2.68-9.75-6.2-22.41-13.89-29.65,2.19,6.75,4.21,12.79,5.54,19.49,1.99,10.03,2.62,20.03,1.92,30.1-.44,6.32-2.3,12.48-3.56,18.85,1.64.06,3.73.03,5.31-.64,4.28-1.81,6.77-9.15,6.81-13.2,1.33-7.32-.14-17.68-2.14-24.95ZM64.52,141.73c19.74,9.51,43.69,11.91,65.37,10.82,8.71-.44,16.97-1.27,25.43-3.17,7.71-1.75,14.92-4.14,21.94-7.73,9.13-4.75,17.11-11.11,23.3-19.59-17.37,9.44-34.89,14-54.26,16.46-17.81,2.04-35.5,2.46-53.4,1.37-8.46-.65-16.48-1.5-24.7-3.37-8.1-1.64-15.43-4.43-23.15-7.88,5.82,5.8,12.51,9.59,19.48,13.1ZM44.78,128.62c.08,0,.15-.07.15-.15s-.07-.15-.15-.15-.15.07-.15.15.07.15.15.15ZM13.71,170.95c-2.73,7.76-4.78,15.58-6.14,23.53-2.47,8.93-4.05,20.53-3.24,29.43-.07,8.33,2.01,17.02,8.62,22.23,1.28,1,2.76,1.31,4.23.89,4.14-1.18,7.46-3.57,10.2-6.87,3.17-3.82,5.67-7.91,7.83-12.42l7.85-16.45c7.28-15.25,16.77-38.22,12.33-54.83-1.76-6.57-6.32-11.84-12.54-14.2-14.32-8.16-25.66,18.77-29.15,28.7Z" fill="#05293d"/>
      <path d="M53.69,210.91c19.15,14.61,42.41,23.33,66.61,24.88,25.13,1.61,49.39-4.16,71.02-16.83.68-.4,1.17-.62,1.78-.62,21.21-29.04,23.95-62.6,12.32-96.07-2.25,2.58-3.87,4.9-6,7.08-.39.4-.66.85-.68,1.32.26.28.41.85.25,1.44-3.76,13.49-12.68,25.12-23.06,34.46-.57.51-47.1,15.31-50.71,14.96-15.65-1.53-32.45-1.37-44.48-11.44-7.07-5.91-13.7-13.92-18.1-22.12,0-.02-2.13-2.79-1.02-2.89-12.61-6.31-23.34-15.38-31.42-27.27-3.23,7.08-4.36,16.06-4.59,23.96,1.78-1.46,3.46-2.77,5.48-3.75,7.95-3.85,13.36,1.01,17,2.02s6.63,1.93,9.12,4.9c11.56,13.78,9.83,38.27,3.88,54.29-1.67,4.49-4.41,8.2-7.41,11.69Z" fill="#4982b7"/>
      <path d="M30.1,107.02c1.33,8.65,13.47,15.86,20.84,19.19,10.44,4.72,21.36,7.55,32.76,8.97,21.44,2.67,46.28,1.51,67.64-1.55,16.8-2.41,33.49-6.81,48.12-15.39,1.33-.78,3.08-1.07,4.22-2.06,3.81-3.3,6.33-8.36,6.7-13.42.36-4.83-.18-9.34-.97-14.13-2.13-12.94-5.74-25.35-10.47-37.53-1.57-4.05-3.34-7.67-5.3-11.47-2.43-4.73-5.78-8.47-9.41-12.05-.54-.64-1.12-1.19-1.74-1.66-9.53-8.83-21.04-15.15-33.43-18.75-3.44-1-6.55-2.18-10.06-2.55-5.67-.6-11.22-.84-16.74-.69.14.73-.44,1.22-.82,1.86-3.33,5.7-11.08,7.21-16.39,3.96-2.05-1.26-3.96-2.87-4.26-5.09-13.77,1.62-28.25,6.04-39.39,14.26-8.93,6.59-15.84,15.2-20.91,24.76-4.14,7.8-7.36,15.69-9.08,24.49-2.51,12.82-3.32,25.88-1.32,38.87ZM89.04,46.58c3.83-3.92,8.04-7.27,13.51-8.86,5.03-1.46,10.03-2.42,15.3-2.57,6.95-.2,11.58,1.83,18.28,2.91.11-.05.21-.1.32-.13-.11.04-.22.08-.32.13,3.48,1.12,7.3,1.4,11.11,1.08,2.91-.24,5.48-1.68,7.56-3.61l4.09-3.81c3.8-3.53,8.45-5.07,13.7-4.61,14.82,1.29,23.3,19.34,27.32,31.8,3.52,10.93,5.99,22.04,7.03,33.48.64,7.04-1.92,13.39-6.93,18.11-7.32,6.89-19,10.73-28.78,12.68-10.65,2.13-21.09,3.78-31.89,5.11-10.48,1.3-22.82,2.04-32.84-1.23-11.93-3.89-18.66-13.29-22.13-24.96-2.14-7.19-3.19-14.39-3.69-21.88-.77-11.52.88-24.39,8.36-33.64Z" fill="#78a2c9"/>
      <path d="M61.62,145.08c-1.11.1,1.01,2.87,1.02,2.89,4.4,8.2,11.04,16.21,18.1,22.12,12.03,10.06,25.52,15.64,41.2,16.92,32.06,2.63,54.88-19.54,55.45-20.05,10.38-9.34,17.85-21.36,21.61-34.85.16-.59.02-1.16-.25-1.44-.82.38-1.4.95-2.02,1.55-7.02,6.77-15.05,12.04-24.06,15.87-15.78,6.71-31.27,8.32-48.35,8.54-12.07.15-23.8-.72-35.63-2.95-9.54-1.8-18.36-4.82-27.06-8.61Z" fill="#78a2c9"/>
      <path d="M193.1,218.34c-.61,0-1.1.22-1.78.62-21.62,12.68-45.89,18.44-71.02,16.83-24.2-1.55-47.46-10.27-66.61-24.88-2.05,2.39-5.37,3.49-7.86,4.69-.75.67-.95,1.52-1.31,2.49,3.19,5.17,6.75,9.94,11.21,14.09,8.85,8.23,22.67,13.15,34.36,15.65,10.08,2.16,20.07,2.89,30.39,2.78,6.31-.07,12.33-.06,18.55-.8,3.78-.45,7.18-1.63,10.83-2.66,8.42-2.37,16.36-5.75,23.71-10.49,6.28-4.04,6.38-4.36,11.85-8.97,3.29-2.77,5.31-6.15,7.67-9.38Z" fill="#165d91"/>
      <path d="M7.58,194.47c-2.47,8.93-4.05,20.53-3.24,29.43,12.52,0,26.2-4.75,36.69-11.77.73-.49,1.34-.81,2.04-.86,7.28-15.25,16.77-38.22,12.33-54.83-1.76-6.57-6.32-11.84-12.54-14.2.69,3.98,1.36,7.96,1.06,12.13-.68,9.52-3.97,18.4-10.3,25.61-7.1,8.09-15.5,12.86-26.05,14.48Z" fill="#4982b7"/>
      <path d="M45.04,128.62c5.82,5.8,12.51,9.59,19.48,13.1,19.74,9.51,43.69,11.91,65.37,10.82,8.71-.44,16.97-1.27,25.43-3.17,7.71-1.75,14.92-4.14,21.94-7.73,9.13-4.75,17.11-11.11,23.3-19.59-17.37,9.44-34.89,14-54.26,16.46-17.81,2.04-35.5,2.46-53.4,1.37-8.46-.65-16.48-1.5-24.7-3.37-8.1-1.64-15.43-4.43-23.15-7.88Z" fill="#05293d"/>
      <path d="M7.58,194.47c10.55-1.62,18.95-6.4,26.05-14.48,6.33-7.21,9.62-16.08,10.3-25.61.3-4.17-.37-8.15-1.06-12.13-14.32-8.16-25.66,18.77-29.15,28.7-2.73,7.76-4.78,15.58-6.14,23.53Z" fill="#78a2c9"/>
      <path d="M4.34,223.91c-.07,8.33,2.01,17.02,8.62,22.23,1.28,1,2.76,1.31,4.23.89,4.14-1.18,7.46-3.57,10.2-6.87,3.17-3.82,5.67-7.91,7.83-12.42l7.85-16.45c-.71.05-1.31.37-2.04.86-10.49,7.02-24.17,11.77-36.69,11.77Z" fill="#165d91"/>
      <path d="M216.06,168.62l6.29,4.03c.76.49,1.43,1.08,2.29.97,1.33-7.32-.14-17.68-2.14-24.95-2.68-9.75-6.2-22.41-13.89-29.65,2.19,6.75,4.21,12.79,5.54,19.49,1.99,10.03,2.62,20.03,1.92,30.1Z" fill="#4982b7"/>
      <path d="M216.06,168.62c-.44,6.32-2.3,12.48-3.56,18.85,1.64.06,3.73.03,5.31-.64,4.28-1.81,6.77-9.15,6.81-13.2-.86.11-1.53-.49-2.29-.97l-6.29-4.03Z" fill="#165d91"/>
      <path d="M100.79,4.65c.3,2.22,2.21,3.83,4.26,5.09,5.31,3.26,13.06,1.74,16.39-3.96.37-.64.96-1.13.82-1.86-7.33-.54-14.43-.1-21.47.73Z" fill="#bbdaf2"/>
      <circle cx="44.78" cy="128.48" r=".15" fill="#35397c"/>
      <path d="M147.24,39.14c2.91-.24,5.48-1.68,7.56-3.61l4.09-3.81c3.8-3.53,8.45-5.07,13.7-4.61,14.82,1.29,23.3,19.34,27.32,31.8,3.52,10.93,5.99,22.04,7.03,33.48.64,7.04-1.92,13.39-6.93,18.11-7.32,6.89-19,10.73-28.78,12.68-10.65,2.13-21.09,3.78-31.89,5.11-10.48,1.3-22.82,2.04-32.84-1.23-11.93-3.89-18.66-13.29-22.13-24.96-2.14-7.19-3.19-14.39-3.69-21.88-.77-11.52.88-24.39,8.36-33.64,3.83-3.92,8.04-7.27,13.51-8.86,5.03-1.46,10.03-2.42,15.3-2.57,6.95-.2,11.58,1.83,18.28,2.91,3.48,1.12,7.3,1.4,11.11,1.08ZM141.98,126.25c9.96-1.42,19.58-3.12,29.38-5.26,5.62-1.23,10.85-2.84,16.09-5.06,10.16-4.3,18.53-11.39,17.79-23.54-1.54-17.45-9.11-49.06-24.02-59.81-4.92-3.55-11.33-4.64-16.99-2.21-6.68,2.87-7.73,9.8-18.46,10.18-5.04.18-9.88-.2-14.81-1.5-7.33-1.94-14.67-2.21-22.09-.6-3.32.72-6.44,1.35-9.52,2.86-16.82,8.27-18.78,28.94-16.15,45.23.57,5.73,1.88,11.07,3.64,16.37,3.43,10.29,9.82,18.72,20.41,22.23,5.42,1.8,10.98,2.49,16.54,2.32,6.21.12,12.07-.34,18.2-1.21Z" fill="#d3ab32"/>
      <g>
        <path d="M139.5,170.05c3.38.94,6.68.68,9.7-1.01l4.73-2.64c5.89-3.52,12.73-4.14,19.35-2.25,7.97,2.28,9.68-2.56,10.5.05,2.48,11.62,1.83,26.15-4.52,36.67-4.22,7-12.41,10.42-20.31,8.5-2.35-.57-3.97-1.71-5.83-3.03-2.31-1.64-4.28-3.23-5.78-5.72-3.83-6.41-4.56-10.29-6.72-17.3-.47-4.34-1.55-8.6-1.12-13.26ZM159.53,206.93c6.88,1.89,13.96-1.45,17.54-7.46,5.39-9.05,6.48-22.49,4.47-32.76-3.13,1-6.02.7-8.97-.16-6.21-1.82-12.5-1.15-17.99,2.23-3.82,2.35-7.86,4.7-12.72,4.22.59,9.88,4.52,24.53,12.08,31.51,1.43,1.32,3.78,1.93,5.58,2.42Z" fill="#05293d"/>
        <path d="M153.95,204.51c1.43,1.32,3.78,1.93,5.58,2.42,6.88,1.89,13.96-1.45,17.54-7.46,5.39-9.05,6.48-22.49,4.47-32.76-3.13,1-6.02.7-8.97-.16-6.21-1.82-12.5-1.15-17.99,2.23-3.82,2.35-7.86,4.7-12.72,4.22.59,9.88,4.52,24.53,12.08,31.51Z" fill="#ffb600"/>
      </g>
      <path d="M83.19,86.54c.57,5.73,1.88,11.07,3.64,16.37,3.43,10.29,9.82,18.72,20.41,22.23,5.42,1.8,10.98,2.49,16.54,2.32,6.21.12,12.07-.34,18.2-1.21,9.96-1.42,19.58-3.12,29.38-5.26,5.62-1.23,10.85-2.84,16.09-5.06,10.16-4.3,18.53-11.39,17.79-23.54-1.54-17.45-9.11-49.06-24.02-59.81-4.92-3.55-11.33-4.64-16.99-2.21-6.68,2.87-7.73,9.8-18.46,10.18-5.04.18-9.88-.2-14.81-1.5-7.33-1.94-14.67-2.21-22.09-.6-3.32.72-6.44,1.35-9.52,2.86-16.82,8.27-18.78,28.94-16.15,45.23Z" fill="#05293d"/>
      <path d="M105.77,95.66c-6.11-12.87-8.77-34.06,6.98-40.96,8.74-3.82,18.07-.53,23.02,7.43,5.61,9.01,7.62,22.2,4.61,32.27-1.18,2.99-2.48,5.67-4.71,7.93-6.19,6.28-18.07,7.5-25.08.31-2-2.06-3.56-4.33-4.82-6.98Z" fill="#fefefe"/>
      <path d="M162.76,58.37c.1-3.98,1.34-10.75,5.15-12.61,5.15-2.51,11.15-1.38,15.38,2.42,6.96,6.24,9.99,18.59,10.31,27.56.18,5.04-1,11.98-5.52,14.82-5.2,3.27-11.66,2.25-15.93-2.25-7.05-7.42-9.62-20.18-9.38-29.94Z" fill="#fefefe"/>
      <path d="M180.34,85.16c7.59-1.5,3.1-19.76-5.81-17.81-6.06,1.33-.62,19.07,5.81,17.81Z" fill="#05293d"/>
      <path d="M123.4,96.86c7.73-.06,6.72-18.84-2.4-18.57-6.2.18-4.16,18.62,2.4,18.57Z" fill="#05293d"/>
      <path d="M172.02,104.55c.79.71-4.02,7.22-12.61,7.16-4.85-.04-8.25-2.06-7.75-3.58.56-1.67,4.49,1.6,12.39-.64,5.99-1.7,7.51-3.34,7.96-2.94Z" fill="#fefefe"/>
      <path d="M30.69,72.17c2.85,7.61,7.32,15.57,15.12,21.08,4.08,2.88,13.44,8.15,37.46,4.81.33,1.35.69,2.7,1.09,4.05,3.47,11.67,10.2,21.07,22.13,24.96,10.03,3.27,22.37,2.52,32.84,1.23,10.8-1.33,21.24-2.98,31.89-5.11,9.78-1.96,21.46-5.79,28.78-12.68,5.01-4.72,7.57-11.06,6.93-18.11-1.04-11.44-3.51-22.55-7.03-33.48-.7-2.17-1.53-4.51-2.51-6.89.56-.23,1.11-.44,1.66-.64,4.67,12.09,8.25,24.41,10.36,37.24.79,4.79,1.33,9.3.97,14.13-.37,5.06-2.89,10.12-6.7,13.42-1.14.99-2.89,1.28-4.22,2.06-14.63,8.58-31.32,12.98-48.12,15.39-21.37,3.06-46.2,4.23-67.64,1.55-11.4-1.42-22.32-4.25-32.76-8.97-7.37-3.33-19.51-10.54-20.84-19.19-1.79-11.63-1.33-23.33.6-34.85Z" fill="#165d91"/>
    </g>
  </g>
</svg>