<?xml version="1.0" encoding="UTF-8"?>
<svg id="Layer_2" data-name="Layer 2" xmlns="http://www.w3.org/2000/svg" viewBox="0 0 58.51 58.5">
  <g id="Layer_1-2" data-name="Layer 1">
    <g>
      <path d="M58.51,29.25c0,16.15-13.1,29.25-29.25,29.25S0,45.4,0,29.25,13.1,0,29.25,0s29.25,13.1,29.25,29.25ZM55.9,29.22c0-14.7-11.92-26.61-26.62-26.61S2.66,14.52,2.66,29.22s11.92,26.61,26.62,26.61,26.62-11.91,26.62-26.61Z" fill="#ecb529"/>
      <path d="M55.9,29.22c0,14.7-11.92,26.61-26.62,26.61S2.66,43.91,2.66,29.22,14.58,2.6,29.28,2.6s26.62,11.91,26.62,26.61ZM15.44,35.11l5.01.02,7.92,6.54c.4.33.98.25,1.35.02.31-.2.77-.57.77-1.1v-22.88c0-.57-.5-.92-.83-1.09-.36-.19-1-.2-1.35.1l-7.95,6.58-5.26.05c-.92,0-1.65.81-1.64,1.74l.06,8.7c0,.84,1.14,1.32,1.9,1.32ZM44.48,32.39c-1.13-1.03-2.2-2.09-3.19-3.26l3.4-3.45c.53-.53.27-1.39-.21-1.76-.55-.42-1.27-.44-1.78.06l-3.34,3.28-3.31-3.27c-.5-.49-1.24-.42-1.73-.03-.42.33-.81,1.15-.32,1.66l3.45,3.55-3.41,3.58c-.5.53-.11,1.41.32,1.71.6.43,1.3.3,1.79-.19l3.22-3.18,3.62,3.47c.52.5,1.45.03,1.77-.44.36-.51.27-1.25-.28-1.75Z" fill="#276da5"/>
      <path d="M15.44,35.11c-.76,0-1.9-.48-1.9-1.32l-.06-8.7c0-.93.72-1.74,1.64-1.74l5.26-.05,7.95-6.58c.36-.3.99-.29,1.35-.1.32.17.82.51.82,1.09v22.88c0,.54-.45.91-.77,1.1-.37.23-.95.31-1.35-.02l-7.92-6.54-5.01-.02Z" fill="#fcfdfd"/>
      <path d="M44.48,32.39c.54.5.63,1.24.28,1.75-.33.47-1.25.94-1.77.44l-3.62-3.47-3.22,3.18c-.49.49-1.18.62-1.79.19-.42-.3-.82-1.18-.32-1.71l3.41-3.58-3.45-3.55c-.49-.5-.1-1.32.32-1.66.49-.39,1.23-.47,1.73.03l3.31,3.27,3.34-3.28c.51-.5,1.23-.48,1.78-.06.48.37.74,1.22.21,1.76l-3.4,3.45c.99,1.18,2.06,2.23,3.19,3.26Z" fill="#fcfdfd"/>
    </g>
  </g>
</svg>