<?xml version="1.0" encoding="UTF-8"?>
<svg id="Layer_2" data-name="Layer 2" xmlns="http://www.w3.org/2000/svg" viewBox="0 0 227.09 62.32">
  <g id="Layer_1-2" data-name="Layer 1">
    <g opacity=".5">
      <rect x=".5" y=".5" width="226.09" height="61.32" rx="8.13" ry="8.13" fill="#1a2a3d"/>
      <path d="M218.46,62.32H8.63c-4.76,0-8.63-3.87-8.63-8.63V8.63C0,3.87,3.87,0,8.63,0h209.83c4.76,0,8.63,3.87,8.63,8.63v45.06c0,4.76-3.87,8.63-8.63,8.63ZM8.63,1C4.42,1,1,4.42,1,8.63v45.06c0,4.21,3.42,7.63,7.63,7.63h209.83c4.21,0,7.63-3.42,7.63-7.63V8.63c0-4.21-3.42-7.63-7.63-7.63H8.63Z" fill="#7dabe2"/>
    </g>
    <g>
      <path d="M60.71,21.52l4.38,12.38,4.36-12.38h4.62v17.06h-3.53v-4.66l.35-8.05-4.61,12.71h-2.41l-4.59-12.7.35,8.04v4.66h-3.52v-17.06h4.59Z" fill="#fff"/>
      <path d="M81.55,38.82c-1.86,0-3.37-.57-4.54-1.71s-1.75-2.66-1.75-4.56v-.33c0-1.27.25-2.41.74-3.42s1.19-1.78,2.09-2.32,1.93-.81,3.09-.81c1.73,0,3.1.55,4.1,1.64s1.49,2.64,1.49,4.65v1.38h-8.07c.11.83.44,1.49.99,1.99s1.25.75,2.09.75c1.3,0,2.32-.47,3.06-1.42l1.66,1.86c-.51.72-1.2,1.28-2.06,1.68s-1.83.6-2.88.6ZM81.17,28.4c-.67,0-1.22.23-1.63.68s-.69,1.11-.8,1.95h4.71v-.27c-.02-.75-.22-1.34-.61-1.75s-.95-.62-1.66-.62Z" fill="#fff"/>
      <path d="M95.08,37.3c-.84,1.02-1.99,1.52-3.47,1.52-1.36,0-2.4-.39-3.11-1.17s-1.08-1.93-1.1-3.43v-8.31h3.39v8.2c0,1.32.6,1.98,1.8,1.98s1.94-.4,2.37-1.2v-8.99h3.4v12.68h-3.19l-.09-1.29Z" fill="#fff"/>
      <path d="M106.59,35.08c0-.41-.21-.74-.62-.98s-1.07-.45-1.97-.64c-3.02-.63-4.52-1.91-4.52-3.84,0-1.12.47-2.06,1.4-2.82s2.15-1.13,3.66-1.13c1.61,0,2.9.38,3.86,1.14s1.45,1.74,1.45,2.95h-3.39c0-.48-.16-.88-.47-1.2s-.8-.47-1.46-.47c-.57,0-1.01.13-1.32.39s-.47.59-.47.98c0,.38.18.68.53.91s.96.43,1.8.6,1.55.36,2.13.57c1.79.66,2.68,1.79,2.68,3.41,0,1.16-.5,2.09-1.49,2.81s-2.27,1.07-3.84,1.07c-1.06,0-2.01-.19-2.83-.57s-1.47-.9-1.94-1.56-.7-1.37-.7-2.14h3.21c.03.6.25,1.06.67,1.38s.97.48,1.66.48c.65,0,1.14-.12,1.47-.37s.5-.57.5-.97Z" fill="#fff"/>
      <path d="M129.25,32.9c-.13,1.84-.81,3.28-2.03,4.34s-2.83,1.58-4.83,1.58c-2.19,0-3.91-.74-5.16-2.21s-1.88-3.49-1.88-6.06v-1.04c0-1.64.29-3.09.87-4.34s1.4-2.21,2.48-2.88,2.32-1,3.74-1c1.97,0,3.55.53,4.76,1.58s1.9,2.54,2.09,4.44h-3.52c-.09-1.1-.39-1.9-.92-2.4s-1.33-.74-2.41-.74c-1.17,0-2.05.42-2.63,1.26s-.88,2.14-.9,3.91v1.29c0,1.84.28,3.19.84,4.04s1.44,1.28,2.64,1.28c1.09,0,1.9-.25,2.43-.74s.84-1.26.92-2.3h3.52Z" fill="#fff"/>
      <path d="M137.49,38.59c-.16-.3-.27-.68-.34-1.14-.82.91-1.89,1.37-3.2,1.37-1.24,0-2.27-.36-3.09-1.08s-1.22-1.62-1.22-2.72c0-1.34.5-2.38,1.49-3.09s2.44-1.08,4.32-1.09h1.56v-.73c0-.59-.15-1.05-.45-1.41s-.78-.53-1.42-.53c-.57,0-1.02.14-1.34.41s-.49.65-.49,1.12h-3.39c0-.73.23-1.41.68-2.04s1.09-1.12,1.92-1.47,1.76-.53,2.79-.53c1.56,0,2.8.39,3.72,1.18s1.38,1.89,1.38,3.31v5.5c0,1.2.18,2.11.5,2.73v.2h-3.42ZM134.68,36.23c.5,0,.96-.11,1.38-.33s.73-.52.94-.9v-2.18h-1.27c-1.7,0-2.6.59-2.71,1.76v.2c-.01.42.14.77.43,1.04s.7.41,1.22.41Z" fill="#fff"/>
      <path d="M148.93,29.08c-.46-.06-.87-.09-1.22-.09-1.28,0-2.12.43-2.52,1.3v8.3h-3.39v-12.68h3.2l.09,1.51c.68-1.16,1.62-1.75,2.82-1.75.38,0,.73.05,1.05.15l-.05,3.26Z" fill="#fff"/>
      <path d="M148.61,32.15c0-1.98.44-3.55,1.33-4.72s2.1-1.76,3.64-1.76c1.23,0,2.25.46,3.06,1.38v-6.47h3.4v18h-3.06l-.16-1.35c-.84,1.05-1.93,1.58-3.26,1.58-1.49,0-2.69-.59-3.59-1.76s-1.35-2.81-1.35-4.9ZM152,32.4c0,1.19.21,2.1.62,2.74.41.63,1.02.95,1.8.95,1.05,0,1.79-.44,2.21-1.33v-5.01c-.42-.88-1.15-1.33-2.19-1.33-1.63,0-2.45,1.33-2.45,3.98Z" fill="#fff"/>
      <path d="M168.33,35.08c0-.41-.21-.74-.62-.98s-1.07-.45-1.97-.64c-3.02-.63-4.52-1.91-4.52-3.84,0-1.12.47-2.06,1.4-2.82s2.15-1.13,3.66-1.13c1.61,0,2.9.38,3.86,1.14s1.45,1.74,1.45,2.95h-3.39c0-.48-.16-.88-.47-1.2s-.8-.47-1.46-.47c-.57,0-1.01.13-1.32.39s-.47.59-.47.98c0,.38.18.68.53.91s.96.43,1.8.6,1.55.36,2.13.57c1.79.66,2.68,1.79,2.68,3.41,0,1.16-.5,2.09-1.49,2.81s-2.27,1.07-3.84,1.07c-1.06,0-2.01-.19-2.83-.57s-1.47-.9-1.94-1.56-.7-1.37-.7-2.14h3.21c.03.6.25,1.06.67,1.38s.97.48,1.66.48c.65,0,1.14-.12,1.47-.37s.5-.57.5-.97Z" fill="#fff"/>
    </g>
  </g>
</svg>