<?xml version="1.0" encoding="UTF-8"?>
<svg id="Layer_2" data-name="Layer 2" xmlns="http://www.w3.org/2000/svg" viewBox="0 0 550.33 453.62">
  <g id="Layer_1-2" data-name="Layer 1">
    <path d="M304.33,453.11c-138.74,2.88-273-7.21-304.33-32.45,18.86-72.2,223.31-70.35,229.74-54.81l204.38-4.33c140.23-2.88,138.9,41.44,71.61,59.14-99.95,39.66-201.4,32.45-201.4,32.45Z" fill="#0e1a26" opacity=".2"/>
    <g>
      <rect x="524.47" y="210.6" width=".93" height="15.8" fill="#623d1a"/>
      <g>
        <path d="M182.48,221.46l-.19,1.1c-.51-.1-1.09.03-1.61,0l-.86-.06c-.98-1.7-2.1-4.09-4.14-5.14-1.53-.79-3.1,1.07-4.31,1.46.45-1,1.64-1.65,1.79-2.68.76.05,2.49-1.54,3.52-.84,2.41,1.65,4.38,3.97,5.8,6.17Z" fill="#be7c2f"/>
        <path d="M287.53,76.65l61.98,5.89,74.84,6.18,24.79,30.07,25.49,31.13,44.75,54.04-55.62-5.53c-1.2,1.49,1.23,2.52,2.86,2.82,2.63.74,5.23,1.68,5.57,4.19-2.7-.3-5.83-1.14-8.77-.13-1.66.57-1.59,3.05-2.1,4.13-.32-.04-.76.1-1.08.17-4.72,1.16-8.92,4.24-14.19,5.14-6.55,1.12-13.14-.22-19.82.56-2.64,5.26-5.66,9.79-10.61,11.9-.28-.48-1.06-.74-1.03-1.44,3.83-2.87,7.3-6.13,9.14-10.87,2.42-6.25-.09-11.79-6.34-14.43-2.68-1.13-5.65-1.29-8.02-2.6,2.52-2.12,2.84-5.48,2.54-8.65,6.97-4.86,15.27-6.57,24.34-6.5,2.05.02,6.26,1.29,7.81-.56,2.89-3.46,1.42-9.46-.3-13.31l-47.22-4.79c-3.58,5.46-7.56,9.68-9.86,14.93,4.07,1.34-22.29-5.28-18.18-1.26-.95-.1-2.04.21-3,.3-1.37.13-3.16-.49-4.47-.1,1.88-2.02,2.48-10.96,4.78-16.6-1.86-1.77-4.17-.14-5.85.04l-10.35-5.77c-1.43-2.33-4.48-4.28-7.35-3.83-7.32-5.45-30.12-6.66-31.08,5.89-11.13-4.41-22.54-4.1-32.02,1.89-4.79,3.02-7.18,7.77-4.83,13.08,2.95,1.51,6.2,2.54,8.46,4.44s3.62,5.11,5.32,7.75c2.2,3.4,14.34-3.71,17.03-4.01,5.17-.58,8.51-1.14,11.85-6.03,2.49-3.64,3.51-7.15,1.1-11.43,9.58,1.22-4.65,11.28,17.67,17.06-2.05.47-3.59-.37-5.7.84,1.31,1.12,3.05,1.1,3.83,2.52-.05.9-1.17,1.13-1.66,1.52-9.7-7.88-46.73-1.02-43.76,12.62,1.49,6.83,7.32,8.54,11.97,10.69,16.06,7.4,27.23-2.98,35.29-3.83.43-.05,1.34-.06,1.72.15,1.01.56,2.22.96,2.99,1.84-11.35,1.44-21.88,6.87-27.72,17.18-1.41,2.49-1.11,5.35.6,7.01.32,2.56,2.75,4.88,5.85,5.61,15.33,3.61,37.76-1.44,41.5-18.52,2.51-1.45,1.43,3.33,1.94,4.61-3.05,2.09-3.92,6.14-7.12,8.66-10.96,8.59-33.26,11.87-43.23,3.47-.51,2.14.28,3.34.34,4.73-.63-.16-1.36.05-2-.06-.54-2.29-.85-4.64-2.21-7.32-1.91,1.94-2.86,4.3-4.22,6.41-2.23-.04-4.68.45-6.54-.94,2.31-1.76,9-2.43,7.7-7.59-4.17,4.1-12.11,5.18-11.18,7.38-2.08.13-5.07.1-5.1-2.52,4.41-1.34,11.67-1.97,14.09-6.71,1.94-2.07,3.81-6.12,1.54-8.76-2.62-3.05-6.89-3.41-10.14-4.61-10.4-6.18-25.98-6.07-34.31,3.68-.29-.05-.62.13-.92.11-.08-.81-.75-1.47-1.58-1.46.56-.95,1.54-1.88,1.72-3.15-2.82-.98-5.27-.35-7.52-2.55,4.94,1.52,7.75-.17,11.56-.75l9.46-1.45c6.06-.93,13.11-5.45,12.64-13.01-6.63,7.84-15.24,13.11-24.33,10.72,7.74-.25,15.65-3.76,20.67-10.06,4.27-5.36,3.76-12.29-.96-17.07-4.81-4.87-11.63-6.82-18.53-6.66-8.44,3.65-17.95,3.55-23.37,13.4-2.42,4.39-1.43,10.7,2.1,14.21,4.06,4.04,9.31,5.84,14.44,6.62-8.53,3.46-18.81-4.8-20.5-14.1-2.95.23-5.55,1.76-6.24,4.28-2.19.12-4.73-.18-7.52.18l2.8,9.89c-2.75-2.24-3.53-5.93-5.98-8.74-6.44-7.38-16.37-10.28-25.82-8.11-3.85.88-8.14,1.03-11.34,3.56-5.31,4.19-4.91,12.28-.3,16.91,3.71,3.73,8.23,5.82,12.94,6.85.11.59.08,1.19-.02,1.78-.4.13-1.47.03-1.14.71-2.22.19-4.42.84-6.64.36-2.88-3.61-6.89-6.01-9.22-9.93-1.69,1.89-3.19,3.04-3.49,5.09-3.38-1.17-6.05-.15-9.35.53-4.16.86-20.02,1.35-17.7,2.59-2.45-.6-5.39.33-7.96-1.53-1.92-1.39-2.76-3.7-1.39-5.44,2.51.24,4.82,1.52,7.4,1.16-.07,3.87,15.94,1.34,19.61,1.03,5.19-.43,10.33-3.11,10.83-8.74.36-3.96,1.62-7.37,2.61-11.19,2.08-8-35.08-2.61-26.47-2.34l-1.82-.06c-.22-.49,1.06-1.23.79-1.56-.59-.73-2.14-.41-2.8-.41,4.77-.99,9.16-3.91,15.18-2.96,2.08.33,4.81-.94,7.25-.79,6.33.38,12.46-1.31,17.47-4.83l2.37-8.02c1.29-4.38,11.48-8.94,11.7-10.13.49-2.67-16.33-20.46-18.52-23.57,2.48.96,1.93,2,4.18,2.72.64.21,2.52-.81,2.17-1.43l-4.38-5.06c-8.3-9.6-17.11-18.62-25.13-27.77l-40.01-45.61,168.35,13.93ZM166.57,100.87c.29.33.59.75.96,1,.6.39,1.29.64,1.94.95,7.1,9.29,15.49,17.91,24.13,25.82.73,3.8,6.46,6.71,7.27,9.27-1.32-.33-2.07-1.61-2.85-2.04-1.44-.8-9.84,3.05-7.9,5.55,5.47,7.09,11.61,13.08,17.57,19.96,4.44-.36,8.69-.13,12.57-1.19l-16.31-19.36c.4.03.87.04,1.21-.13,1.94-1-2.87-6.02-4.15-7.33-5.64-5.78,9.83-9.59,12.76-10.33l3.91,3.84,17.54,19.99c1.43-3.68,3.51-2.81,6.03-3.37,3.03-.68,2.5,3.72,4.58,4.49,7.7,2.84,16.23,1.39,24.01,3.82l-1.37-13.95c10.9-1.92,26.6-3.71,37.51-1.49,6.3,1.28,2.52-9.21,6.18-9.78,2.58-.4,5.15.29,7.86-.46,5.66-1.57-.17,7.63,9.26,9.38l17.86,3.33c11.46,2.13,14.35-.85,24.23,4.91.84,4.37-8.55,18.09-.98,17.76,8.22-.36,16.7,2.88,24.91,1.51,3.94-.66,6.34-2.32,11.06-1.51,10.57,1.81,21.72,2.7,32.49,3.41,3.98.26,4.42,1.33,7.28,3.26,3.79,2.55,9.94,1.52,14.14,2.23l4.61.77c1.16,4.72,6.68,7.16,4.05,15.62-1.12-.11-3.81-.38-4.68.76-4.89,5.17,28.23,6.73,30.85,6.62l-36.39-45.13-41.3-50.49-88.17-7.82-61.14-5.58-120.91-10.96c-1.05-.1-1.71.3-1.95.59-.52.63-.07,1.54.6,2.31l20.72,23.81ZM266.6,165.28c-8.41-7.9-26.47-12.14-35.24-2,2.67,2.13,5.18,3.5,7.89,5.15,9.2-3.48,22.69-.67,27.35-3.15ZM207.96,188.43c13.76,3.54,32.7-6.24,31-14.45-1.7-8.17-27.92-15.66-44.56-.79-3.28,2.93-3.82,10.12-.04,11.97,4.07,1.99,8.78,2.02,13.6,3.26ZM257.12,173.58c1.58-.49,2.79-1.3,2.22-2.3-1.6-2.83-15.98-1.64-19.46-1.05.76,3.15,1.5,5.62,2.58,7.86l14.66-4.52ZM221.08,194.89c7.23,1.09,14.64-2.73,15.09-10.46-6.45,4.05-12.72,6.41-19.72,8.22.22,2.88,2.19,1.88,4.63,2.25ZM189.36,185.87c-1.25-1.59-12.65,3.25-12.58,3.14-3.9,5.99,12.74-2.45,12.58-3.14ZM426.11,203.36c.51.53.58,2.29,1.54,2.45-.3,1.02.04,2.11-.07,3.13-.66,6.13,17.33,6.23,28.41.44,3.35-1.75,3.39-4.29,4.24-7.01,5.47-17.49-34.31-21.05-45.92-11.06-.88,3.13,3.4,5.91,5.56,7.49l6.25,4.56ZM286.84,209.18c0-2.33.56-4.23.18-6.64-2.26,1.83-4.03,3.64-5.9,5.8,2.02,1.07,3.78,1.21,5.71.84Z" fill="#be7c2f"/>
        <path d="M431.68,27.48c-1.56,2.43-5.03,3.38-6.79,5.38l-68.76-6.33c-.86-2.01,10.57-2.08,11.03-4.41l64.51,5.35Z" fill="#182e44"/>
        <path d="M284.73,15.41c-1.63,2.36-4.84,3.57-6.78,5.45l-61.17-4.69c.47-.82-.3-.98-.93-.97-.23-4.64,18.36,2.12,15.62-5.33,1.79,1.33,4.06,1.9,6.67,2.12l40.83,3.53c2.07.18,4.2.33,5.75-.11Z" fill="#182e44"/>
        <path d="M159.19,108.32c8.03,9.15,16.84,18.17,25.13,27.77l4.38,5.06c.35.63-1.53,1.64-2.17,1.43-2.25-.72-1.7-1.76-4.18-2.72l-9.35-10.11-19.45-21.41c1.58.58,3.09,2.24,4.85,1.79.66-.17.76-1.13.8-1.82Z" fill="#756f4e"/>
        <path d="M499.37,31.11l.96.18c23.68,6.29,37.02,33,41.72,56,8.61,42.14-1.77,78.26-16.76,116.68l-43.38-52.1-46.46-55.72c-2.37-2.85-4.23-5.44-7.27-7.76,4.27-14.25,11.91-26.66,21.85-37.62,1.09-1.2,1.73-2.61,2.16-3.7,13.08-10.93,29.62-19.49,47.18-15.96ZM521.08,170.47c6.7-16.39,9.43-31.79,10.51-48.13.89-23.17-6.34-56.5-29.12-67.26-11.53-5.44-24.52-2.17-34.2,5.49-7.27,5.75-13.7,11.73-17.75,20.3-1.07,2.28.92,5.12,2.49,7.06l54.32,67.32c4.34,5.38,8.09,10.5,13.75,15.21Z" fill="#be7c2f"/>
        <path d="M198.23,6.06c-.63,1.62-2.67.8-4.26,1.42-13.28,5.17-24.9,13.98-32.68,25.43-2.07,3.05-5.2,5.45-7.26,9.48,2.92,1.53,5.72,1.51,8.94,1.79l108.63,9.32,104.1,8.46,29.69,2.53c-1.32,2.94-11.03-.6-12.19,2.09l-52.81-3.89-68.89-5.52-105.75-9.09c-5.43-.47-10.26-.53-15.37-2.64,3.89-8.77,8.84-15.44,14.69-23.01-3.98.2-10.43-2.05-14.02.68-10.82,8.25-19.27,19.09-26.52,31.69l64.23,6.15,55.88,4.71,52.18,4.65,100.19,8.29,26.43,2.22c5.32-12.55,12.13-23.47,21.08-33.74,6.6-7.57,14.33-13.14,23.56-19.51-16.3-3.2-32.63,4.53-41.39,17.35-1.72.47-3.9,1.87-5.5,3.84-2.12-.16-3.48,1.72-5.51,1.97,6.1-9.97,15.76-17.59,26.63-22.67,4.96-2.32,9.89-2.7,15.24-2.37,8.58.52,16-.31,24.52,1.53-13.91,1.98-22.96,10.06-31.27,18.65-10.65,11.01-19.82,23.69-25.3,38.94l-136.21-11.64-36.93-3.49-133.83-11.29c10.19-24.26,38.03-54.68,65.7-53.11l14,.79Z" fill="#f4da7d"/>
        <path d="M450.8,45.86l1.4,1.2c-.43,1.1-1.07,2.5-2.16,3.7-9.94,10.96-17.58,23.37-21.85,37.62,3.04,2.31,4.89,4.91,7.27,7.76l46.46,55.72,43.38,52.1c-.37,1.05.66,3.83-.79,4.73-2.6,1.61-6.02,1.67-8.68,2.8-.13-1.08-1.14-1.35-2.48-1.5l-41.16-4.55c-.34-2.51-2.94-3.46-5.57-4.19-1.63-.3-4.06-1.33-2.86-2.82l55.62,5.53-44.75-54.04-25.49-31.13-24.79-30.07-74.84-6.18-61.98-5.89c1.15-.81,1.9-2.06,1.76-3.49l136.21,11.64c5.48-15.26,14.65-27.94,25.3-38.94Z" fill="#623d1a"/>
        <path d="M356.14,26.53l68.76,6.33c-3.56,4.06-7.09,8.98-11.85,11.63l-78.58-6.86c5.18-5.05,11.46-7.46,18.14-9.04,1.24-.3,1.84-1.03,1.64-1.99.61-.06,1.29-.13,1.9-.07Z" fill="#5e8fb9"/>
        <path d="M408.96,50.9c-1.63,3.21-3.32,6.45-6.32,9.58l-80.98-7.04c2.31-3.99,4.87-8.3,8.6-11.03,3.24,1.68,7.07,1.22,11.16,1.64l67.55,6.84Z" fill="#4a7fad"/>
        <path d="M299.36,51.6c.38-5.29,7.65-11.81,10.93-17.93-9.83-1.44-19.4-2.05-29.02-1.19-5.19.47-8.28,3.75-10.89,7.84-1.8,2.82-4.21,5.32-3.56,8.6-1.9-.08-3.41.46-4.42-.77,10.57-18.36,28.15-36.52,50.48-33.36,8.66,1.22,16.95.36,26.14,2.79-12.06,3.84-20.95,11.16-29.03,20.43-3.94,4.52-6.32,9.96-10.63,13.59Z" fill="#f4da7d"/>
        <path d="M216.79,16.17l61.17,4.69c-2.73,4.19-6.4,8-10.17,11.36l-70.47-5.92c5.31-4.23,12.64-8.59,19.48-10.12Z" fill="#5e8fb9"/>
        <path d="M189.83,31.86c4.14.95,8.41.82,13.12,1.27l59.46,5.56c-1.01,3.14-2.7,6.91-5.76,9.64l-77.17-6.87c2.73-3.74,6.37-7.22,10.34-9.59Z" fill="#4a7fad"/>
        <path d="M299.36,51.6l-32.53-2.68c-.65-3.28,1.76-5.78,3.56-8.6,2.61-4.09,5.7-7.37,10.89-7.84,9.62-.86,19.18-.25,29.02,1.19-3.28,6.12-10.55,12.64-10.93,17.93Z" fill="#f0b13b"/>
        <path d="M354.24,26.6c.2.95-.4,1.69-1.64,1.99-6.68,1.59-12.95,4-18.14,9.04l78.58,6.86c.08,1.13-1.5,1.91-1.97,2.58l-77.14-6.55c-1.97-.17-3.25.39-3.68,1.9-3.73,2.73-6.29,7.04-8.6,11.03-2.12-.18-4.28.79-6.84-.85,10.4-15.37,21.45-24.33,39.43-25.99Z" fill="#284461"/>
        <path d="M162.73,35.78c6.25-6.22,11.3-12.91,18.9-17.59,6.17-3.8,13.28-8.14,20.12-10.04,7.75-2.15,16.7-.09,22.78,3.52-18.94-1.22-36.2,3.77-48.36,17.26l-9.95,11.04c-.82.91-4.72.8-5.1-.35-.51-1.55,1.26-2.88,1.6-3.85Z" fill="#be7c2f"/>
        <path d="M311.64,51.28c-1.42,2.37-4.95,1.23-6.8.38,9.82-16.66,24.07-30.61,43.87-32.43,3.73-.34,7.36-.05,10.18,2.43-20.24.78-36.88,12.24-47.26,29.62Z" fill="#be7c2f"/>
        <path d="M197.31,26.3l70.47,5.92c-.83.74-1.47,2.35-2.67,2.72l-67.9-5.38c-2.73-.22-5.19-.12-7.27.69-2.32-1.34-5.1-.9-7.69-1.35.67-1.7,2.75-2.42,4.07-3.53,3.64.56,7.33.62,10.98.92Z" fill="#284461"/>
        <path d="M411.08,47.07c.12,1.65-1.49,2.57-2.12,3.82l-67.55-6.84c-4.08-.41-7.92.04-11.16-1.64.42-1.5,1.71-2.06,3.68-1.9l77.14,6.55Z" fill="#5e8fb9"/>
        <path d="M265.11,34.94c-.06,1.71-1.5,2.95-2.71,3.74l-59.46-5.56c-4.71-.44-8.98-.31-13.12-1.27l.12-1.6c2.08-.81,4.54-.91,7.27-.69l67.9,5.38Z" fill="#5e8fb9"/>
        <path d="M201.76,8.16c-6.84,1.9-13.95,6.24-20.12,10.04-7.6,4.68-12.65,11.37-18.9,17.59-.11-.98.08-3.37-1.44-2.87,7.77-11.45,19.39-20.26,32.68-25.43,1.58-.62,3.63.2,4.26-1.42.84.05,1.8-.99,2.51-.09.61.76.94,1.41,1.01,2.19Z" fill="#623d1a"/>
        <path d="M182.25,28.91c2.59.46,5.37.02,7.69,1.35l-.12,1.6c-3.98,2.37-7.62,5.84-10.34,9.59-2.78-.25-5.69,1.04-8.8-.97,3-4.82,6.72-9.89,11.57-11.56Z" fill="#30597f"/>
        <path d="M215.85,15.2c.63,0,1.4.15.93.97-6.84,1.54-14.17,5.89-19.48,10.12-3.65-.31-7.34-.37-10.98-.92,8.15-6.87,18.88-10.02,29.53-10.18Z" fill="#30597f"/>
        <path d="M421.19,48.75c-3.25,4.01-5.62,8.86-9.58,12.82-8.21,8.21-5.97,6.01-18.41,5.01,1.16-2.69,10.87.85,12.19-2.09,1.06-2.36,2.56-4.72,4.58-6.33,1.25-1,2.31-2.22,2.77-3.79.89-1.17,1-3.39,2.95-3.64s3.39-2.13,5.51-1.97Z" fill="#f5c957"/>
        <path d="M409.96,58.15c-.25-1.97,1.84-2.58,2.77-3.79-.46,1.57-1.52,2.79-2.77,3.79Z" fill="#f4da7d"/>
        <path d="M500.33,31.28l-.96-.18c.36-.46.71-.15.96.18Z" fill="#623d1a"/>
        <path d="M383.14,110.17c-1.67,7.87-5.76,17.87-8.26,25.9s9.52,9.28,14.52,9.84c2.33.26,3.61,3.1,5.9,3.21,3.71.18,7.08.22,10.49.92l19.55-28.21c.77-1.12,1.36-2.13,2.47-2.35,3.73,2.19,6.16,5.92,9.14,9.51l31.31,37.77c-.83,2.4-6.36-.21-7.7,1.68-.33.46-.34,1.28-.29,1.95-4.21-.71-10.36.32-14.14-2.23-2.86-1.93-3.3-2.99-7.28-3.26-10.78-.72-21.92-1.6-32.49-3.41-4.72-.81-7.12.86-11.06,1.51-8.22,1.37-16.7-1.87-24.91-1.51-7.57.33,1.82-13.39.98-17.76-9.88-5.76-12.77-2.77-24.23-4.91l-17.86-3.33c-9.43-1.76-3.6-10.95-9.26-9.38-2.72.75-5.29.06-7.86.46-3.66.57.12,11.05-6.18,9.78-10.91-2.21-26.61-.43-37.51,1.49l1.37,13.95c-7.78-2.44-16.31-.98-24.01-3.82-2.08-.77-1.55-5.17-4.58-4.49-2.52.57-4.6-.3-6.03,3.37l-17.54-19.99c.97-.18,1.92.67,3.23-1.14-3.42-1.3-4.23-4.53-5.94-6.35-.07-1.34,16.04-8.88,18.64-9.33,5.62,4.2,7.93,11.87,13.44,12.02-.17,4.21.09,8.12.65,11.82l5.09-4.1c4.65,1.13,9.19,3.06,13.78,1.37-1.03-9.54-2.94-18.02-2.57-26.63,18.09-.51,28.69,6.03,47.47,2.13l1.65-8.5c5.62,1.65,9.13.28,12.39,1.44,1.21.43.55,2.57,1.55,3.77,8.73,10.46,22.67,3.24,42.14,5.93,4.81.66,9.64-.59,13.95.9Z" fill="#756f4e"/>
        <path d="M468.94,186.76c4.02.41,11.04,2.64,15.93.9-4.71-5.3-7.6-10.89-12.26-15.3-1.89-1.79-5.62-.86-7.72-1.22l-4.61-.77c-.05-.67-.03-1.49.29-1.95,1.34-1.89,6.88.72,7.7-1.68l-31.31-37.77c-2.98-3.59-5.41-7.31-9.14-9.51.08-1.68-.86-2.99-2.08-4.42l-9.86-11.59c-5.18-1.71-10.35-1.56-15.95-1.88-4.13-.24-9.46-2.12-13.17.05-.83,2.5-2.38,6.54-3.62,8.54-4.31-1.5-9.14-.24-13.95-.9-19.47-2.69-33.41,4.53-42.14-5.93-1-1.2-.34-3.34-1.55-3.77-3.26-1.16-6.77.21-12.39-1.44l-1.65,8.5c-18.77,3.9-29.38-2.64-47.47-2.13-2.33-3.05-1.72-7.69-1.64-11.66,8.07-1.17,15.27.87,23.14,1.55l24.23,2.11c1.04.09,2.32-.21,2.66-.82.28-.49.39-1.99-.64-2.07l-22.89-1.71-27.52-3.13c-.64-1.55,6.59.25,6.77-3.64l61.14,5.58,88.17,7.82,41.3,50.49,36.39,45.13c-2.62.11-35.74-1.44-30.85-6.62.87-1.14,3.56-.87,4.68-.76Z" fill="#623d1a"/>
        <path d="M411.91,189.22c-3.19-2.62-6.82-4.61-11.28-5.42-5.12-.93-9.54-3.36-13.94-4.81,2.3-5.25,6.27-9.46,9.86-14.93l47.22,4.79c1.72,3.85,3.19,9.85.3,13.31-1.54,1.85-5.76.57-7.81.56-9.08-.08-17.38,1.64-24.34,6.5Z" fill="#f0b13b"/>
        <path d="M268.11,85.12c-.17,3.89-7.4,2.09-6.77,3.64l-19.56-1.45-45.51-4.23c-5.19-.48-10.07-1.8-15.32.03l34.01,36.25c1.71,1.83,2.51,5.05,5.94,6.35-1.31,1.81-2.26.97-3.23,1.14l-3.91-3.84c-10.13-9.94-19.17-21.51-29.44-31.43,3.38,3.26-9.6-11.69-7.58-10.11-8.21-1.66-15.97-2.8-24.36-2.65,6.21,6.62,10.83,13.41,17.05,18.35.86,1,1.24,2.73,1.97,3.85.11,1.13-.9,1.74-1.92,1.78-.64-.31-1.33-.56-1.94-.95-.18-.45-.5-.83-.96-1l-20.72-23.81c-.67-.77-1.12-1.68-.6-2.31.24-.29.89-.68,1.95-.59l120.91,10.96Z" fill="#4e311b"/>
        <path d="M184.32,91.6c10.27,9.92,19.31,21.49,29.44,31.43-2.93.74-18.39,4.56-12.76,10.33,1.28,1.31,6.1,6.33,4.15,7.33-.34.17-.81.17-1.21.13-.81-.7-2.34-1.17-3.07-2.92-.81-2.56-6.54-5.47-7.27-9.27.54-.05.75-.32.87-.64.21-.59.53-1.99-.16-2.64-8.35-7.85-14.49-17.33-22.91-24.32-.73-1.12-1.11-2.85-1.97-3.85,4.51-3.13,9.3-6.22,14.89-5.59Z" fill="#756f4e"/>
        <path d="M200.88,137.91c.74,1.75,2.26,2.22,3.07,2.92l16.31,19.36c-3.88,1.07-8.13.83-12.57,1.19-5.97-6.88-12.1-12.87-17.57-19.96-1.93-2.5,6.46-6.35,7.9-5.55.78.43,1.52,1.71,2.85,2.04Z" fill="#f0b13b"/>
        <path d="M468.94,186.76c2.63-8.46-2.89-10.89-4.05-15.62,2.1.35,5.82-.58,7.72,1.22,4.66,4.4,7.55,10,12.26,15.3-4.89,1.74-11.9-.49-15.93-.9Z" fill="#756f4e"/>
        <path d="M193.61,128.64c-8.64-7.91-17.04-16.53-24.13-25.82,1.03-.04,2.04-.66,1.92-1.78,8.42,6.99,14.57,16.47,22.91,24.32.7.66.38,2.06.16,2.64-.12.32-.33.59-.87.64Z" fill="#623d1a"/>
        <path d="M167.54,101.87c-.37-.24-.67-.66-.96-1,.46.17.79.54.96,1Z" fill="#623d1a"/>
        <path d="M521.08,170.47c-5.66-4.71-9.4-9.83-13.75-15.21l-54.32-67.32c-1.57-1.94-3.56-4.78-2.49-7.06,4.04-8.57,10.48-14.56,17.75-20.3,9.68-7.66,22.67-10.93,34.2-5.49,22.78,10.75,30.01,44.09,29.12,67.26-1.08,16.34-3.81,31.74-10.51,48.13ZM475.98,61.69c-.49.11-1.03.07-1.53.15-.43.07-.91-.01-1.42.21s-1.36.85-.79,1.6c-2.21-.23-2.99,2.11-4.41,2.92-1.82,1.05-2.59,2.84-3.68,4.3-3.94,3.49-7.38,7.76-9.79,13.46l59.08,71.93c2.64-1.25,2.03-4.83,2.61-6.84.94-.05.84-1.49.87-2.19.02-.47.21-1.21.04-1.64,2.18-2.96,1-7.11,1.75-10.74.42-2.07,1.32-3.56.3-5.13.47-1.91.53-4.35.84-6.3,2.24-14.14-.51-29.37-6.49-42.85-6.14-13.83-16.71-28.34-33.73-21.76-1.66.64-3.53,1.12-3.65,2.87ZM506.55,62.74c-.36-1.73-1.75-3.98-4.47-3.43l4.47,3.43ZM527.03,130.05c2.38-18.47-.23-36.5-7.78-52.79-2.5-5.39-5.31-10.92-11.24-13.43,23.13,32.9,17.6,62.28,10.5,99.4,6.2-10.18,7.01-21.46,8.52-33.18Z" fill="#4e311b"/>
        <path d="M393.2,66.58c12.44,1,10.21,3.2,18.41-5.01,3.96-3.96,6.32-8.8,9.58-12.82,1.6-1.97,3.78-3.36,5.5-3.84l16.03.39c.75.02,1.37.14,1.6.51.22.35.19.87.19,1.26-8.95,10.27-15.77,21.19-21.08,33.74l-26.43-2.22-100.19-8.29-52.18-4.65-55.88-4.71-64.23-6.15c7.25-12.6,15.7-23.44,26.52-31.69,3.58-2.73,10.04-.48,14.02-.68-5.85,7.58-10.8,14.24-14.69,23.01,5.11,2.11,9.94,2.17,15.37,2.64l105.75,9.09,68.89,5.52,52.81,3.89Z" fill="#f0b13b"/>
        <path d="M444.52,47.07c0-.38.03-.91-.19-1.26-.24-.38-.85-.5-1.6-.51l-16.03-.39c8.75-12.82,25.09-20.55,41.39-17.35-9.23,6.37-16.96,11.94-23.56,19.51Z" fill="#f5c957"/>
        <path d="M261.35,88.76l27.52,3.13,22.89,1.71c1.03.08.91,1.57.64,2.07-.35.61-1.62.91-2.66.82l-24.23-2.11c-7.87-.68-15.07-2.72-23.14-1.55-.09,3.97-.69,8.62,1.64,11.66-.36,8.61,1.54,17.09,2.57,26.63-4.59,1.69-9.14-.24-13.78-1.37l-5.09,4.1c-.56-3.7-.82-7.61-.65-11.82-5.51-.15-7.82-7.82-13.44-12.02-2.6.45-18.71,7.99-18.64,9.33l-34.01-36.25c5.25-1.83,10.13-.51,15.32-.03l45.51,4.23,19.56,1.45Z" fill="#284461"/>
        <path d="M427.82,119.47c-1.11.22-1.7,1.24-2.47,2.35l-19.55,28.21c-3.41-.7-6.78-.74-10.49-.92-2.3-.11-3.58-2.95-5.9-3.21-5.01-.56-17.07-1.68-14.52-9.84s6.59-18.02,8.26-25.9c1.24-2,2.79-6.04,3.62-8.54,3.71-2.17,9.04-.29,13.17-.05,5.6.32,10.77.17,15.95,1.88l9.86,11.59c1.22,1.43,2.15,2.74,2.08,4.42Z" fill="#284461"/>
        <path d="M184.32,91.6c-5.6-.63-10.39,2.47-14.89,5.59-6.22-4.93-10.84-11.72-17.05-18.35,8.39-.15,16.15.98,24.36,2.65-2.02-1.58,10.96,13.37,7.58,10.11Z" fill="#623d1a"/>
        <path d="M519.85,123.44c-.31,1.95-.37,4.39-.84,6.3-2.09.5-3.69-.68-5.1-2.49l-12.65-16.29c-10.92-14.06-21.48-27.82-33.12-41.3-.84-.97-.33-2.38-.31-3.08,1.42-.81,2.2-3.15,4.41-2.92.67.07,1.44.08,2.01-.56.32-.36.66-.76.2-1.25.5-.08,1.04-.04,1.53-.15,6.68-1.5,13.81-1.74,19.45,3.25,6.17,5.47,11.16,12.22,14.48,19.87,4.43,10.21,7.61,20.78,9.21,31.89.35,2.44-1.34,5.31.73,6.73Z" fill="#30597f"/>
        <path d="M516.96,145.6c.18.43-.02,1.17-.04,1.64-.58-.48-1.28-.06-1.72.69-.29.49.72,1.06.85,1.5-.59,2.01.03,5.59-2.61,6.84l-59.08-71.93c2.4-5.71,5.85-9.97,9.79-13.46,1.07-.34,1.69.51,2.46,1.46l14.22,17.61,35.48,45.39c.83,3.86-.61,7.16.66,10.26Z" fill="#30597f"/>
        <path d="M519.85,123.44c-2.07-1.42-.38-4.29-.73-6.73-1.6-11.12-4.78-21.68-9.21-31.89-3.32-7.64-8.31-14.4-14.48-19.87-5.64-5-12.76-4.75-19.45-3.25.12-1.75,1.99-2.22,3.65-2.87,17.02-6.58,27.59,7.93,33.73,21.76,5.98,13.48,8.74,28.71,6.49,42.85Z" fill="#284461"/>
        <path d="M519.01,129.73c1.02,1.57.13,3.06-.3,5.13-.74,3.62.44,7.77-1.75,10.74-1.26-3.1.18-6.41-.66-10.26l-35.48-45.39-14.22-17.61c-.77-.96-1.39-1.8-2.46-1.46,1.09-1.46,1.86-3.25,3.68-4.3-.02.7-.53,2.11.31,3.08,11.64,13.48,22.2,27.24,33.12,41.3l12.65,16.29c1.41,1.81,3.01,2.99,5.1,2.49Z" fill="#284461"/>
        <path d="M527.03,130.05c-1.51,11.72-2.32,23-8.52,33.18,7.1-37.12,12.63-66.5-10.5-99.4,5.93,2.52,8.74,8.04,11.24,13.43,7.55,16.29,10.16,34.31,7.78,52.79Z" fill="#be7c2f"/>
        <path d="M516.93,147.24c-.03.7.08,2.14-.87,2.19-.13-.45-1.14-1.01-.85-1.5.44-.74,1.14-1.17,1.72-.69Z" fill="#284461"/>
        <path d="M474.45,61.84c.46.49.12.89-.2,1.25-.57.64-1.34.63-2.01.56-.57-.74.25-1.36.79-1.6s.99-.15,1.42-.21Z" fill="#284461"/>
        <path d="M506.55,62.74l-4.47-3.43c2.72-.56,4.11,1.7,4.47,3.43Z" fill="#be7c2f"/>
      </g>
      <g>
        <path d="M231.47,9.87c2.74,7.46-15.84.69-15.62,5.33-10.65.16-21.38,3.31-29.53,10.18-1.32,1.11-3.41,1.83-4.07,3.53-4.85,1.67-8.57,6.74-11.57,11.56,3.11,2.01,6.02.73,8.8.97l77.17,6.87c3.06-2.72,4.75-6.5,5.76-9.64,1.2-.79,2.65-2.03,2.71-3.74,1.2-.37,1.84-1.99,2.67-2.72,3.77-3.35,7.44-7.16,10.17-11.36,1.94-1.89,5.15-3.1,6.78-5.45,6.01-1.7,11.54-6.2,18.48-5.7l40.97,2.91c8.1.58,18.28,3.43,22.99,9.51-.47,2.32-11.89,2.39-11.03,4.41-.61-.06-1.29.01-1.9.07-17.98,1.66-29.02,10.62-39.43,25.99,2.56,1.64,4.72.67,6.84.85l80.98,7.04c3.01-3.14,4.69-6.38,6.32-9.58.64-1.25,2.24-2.17,2.12-3.82.47-.67,2.05-1.45,1.97-2.58,4.76-2.66,8.29-7.57,11.85-11.63,1.75-2,5.23-2.95,6.79-5.38,5.82-.96,11.05-5.95,17.55-6.29,16.03-.83,31.63.55,47.4,3.57,12.23,2.35,22.82,8.65,30.77,18.5,19,23.53,24.49,56.21,22.56,85.86-1.69,25.93-11.26,56.81-21.6,80.7-1,2.31-.6,6.44-.69,9.11l-.68,18.42c-.07,1.89-2.58,2.75-2.92,4.28-2.34,10.71-.89,21.35-1.63,32.19l-.89,13.1c-.33,4.89.24,9.89-.1,14.78l-1.05,14.67c-.36,5.11,1.4,7.71,2.29,11.68,2.42,10.77-.27,22.08.67,33.06.44,5.17-.07,9.98-.53,14.77-.45,4.65-2.26,5.62-6.09,7.37-6.62,3.03-14.39,6.32-20.4,10.33-6.62,4.41-12.59,2.29-19.33,4.28-15.71,4.65-29.39,15.31-44.69,21.03-.6,5.05-3.16,7.19-6.73,8.88l-20.3,9.61c-4.69,2.22-10.27,7.76-15.69,6.9l-49.04-7.77c-3.75-.59-6.3-3.39-8.85-5.31l-93.56-15.33-92.72-15.09c-7.19,5.35-35.01-1.19-45.18-3.16-5.09-.98-12.46-.86-15.79-5.28-3.11-4.12-2.3-10.76-2.77-15.68-1.17-12.41-1.75-24.3-2.17-36.62-.13-3.71,1.08-6.79,4.41-8.95l-4.84-71.74c-.27-3.98-2.98-4.85-4.63-7.6-3.77-6.3-2.97-14.36-3.86-21.58-.42-3.39-1.03-8.36,1.68-10.97l40.9-13.72c6.87-2.3,14.83-3.49,20.68-7.27,4.88-3.16,7.68-6.94,13.07-8.06-.22.94.12,1.87.13,2.8-1.91,1.85-4.31,3.03-6.48,4.53-.59.41-1.49.33-1.79,1.18-.12.34-.65.53-.84.84s-.98.56-1.02.93c.11,1.4-1.66,2.39-1.83,3.58-1.16-.18-2.02.82-3,1.1-17.33,4.94-34.45,10.24-52.81,16.85,11.03,3.19,21.5,3.2,31.67,5.22.52.1,1.11.04,1.64.06,1.58.05,3.15.04,4.72.19l1.86.18c.71,1.29,2.54.49,3.77.67l39.09,5.86c0,1.14-.09,2.27-.2,3.41l-85.87-11.56c-.25,4.01.34,21.34,2.33,23.26,1.01.98,2.52.35,3.69.46.8.36,1.75,1.2,3.1,1.37l17.38,2.18c-.11.88.6.85.93.14,1.56.16,3.1.64,4.65.75-.19.52.07.71.57.91.57.22.96-.72,1.37-.78,1.48-.04,3.15.4,4.57.79.43.12.66,1.12,1.37,1.03.54-.07,1.04-.42,1.42-.82l57.64,8.18c.32.51.8,1.03,1.41,1.02.55-.01,1.8-.02,1.48-.86,1.06.06.96-1.18.92-1.92.86.14.82-.86.79-1.38-.04-.64-.6-1.09-.92-1.49l-.87-13c-.1-1.53.59-3.59-.26-5.41-.56-.73-2.58-1.27-3.48-1.19-.96-.98-1.95-2.06-1.87-3.51,1.52.59,3.71-.02,5.54-.03.51-3.21-.21-5.8-.12-8.42.98-1.45,2.79-2.86,3.13-4.75.52.04,1.1-.09,1.61,0,1.1.21,1.98-.15,2.84-.92l.74-.67c2.22.48,4.42-.17,6.64-.36.52-.05,1.03-.07,1.14-.71.1-.59.13-1.18.02-1.78.22.05.49.06.72.04,1.58-.13,3.16-.15,4.75-.05.31.02.62.06.93.03-.21.51.12.8.53.8.72,0,.97-.87,1.34-.96,1.46-.34,3.1-.6,4.58-.85.34.45.67.13.95-.16.59-.11,1.25-.15,1.86-.19.49-.03.92-.12.93-.72l7.54-2.67c3.69-1.31,7.02-3.23,10.67-3.03l.4,1.33c-7.84,1.94,14.77,10.09,15.14,12.66l-.12,1.98c-1.8,0-3.35-.94-4.8-1.93l-.86.07c-.49-1.13-1.67-1.54-2.8-1.77.36-.65-.65-.83-1.07-1.03-.24-.12-.6.11-.85.01-.27-.36-.58-.68-.92-.97-1.22-.6-2.4-1.3-3.69-1.75,0-.55-.52-.84-.97-1.02-1.35-.55-2.95-2.39-4.91-2.81-13.07,6.14-26.78,9.3-41.38,11.62-.32,13.55.06,30.92,2.6,43.41.9,7.68,3.6,14.75,7.18,21.36,6.74,12.44,16.92,23.31,29.07,30.72,1.32,1.21,3.23,3.39,5.75,3.55,12.52-5.54,23.88-13.6,32.39-24.06.26-.32.8-.71.89-1.12.15-.71.87-1.1,1.14-1.7l2.79.34c-1.81,5.9-7.27,9.81-11.04,14.6-.55.37-2.16.44-2.21,1.78-.04,1.32,1.72,1.21,1.9.51l.33-1.32c19.04-9.24,28.76-32.14,28.45-52.22l2.85.02c0,4.53.2,9-1,14.23,2.61.92,5.05.84,7.5.83.3,0,.61-.02.92.01.28.89,1.2.71,1.91.83,7.97,1.41,16.2,1.85,24.07,3.65.19.22.47.47.8.69.52.35.84-.65,1.21-.64l2.51.18c.27.38.31,1.28.92,1.51.82.3,1.62-.11,2.08-.79.86.03,1.74.25,2.6.17-.48,1.25.84,1.7,1.64,1.76,1.28.09,2.44-.16,3.26-.97.52-.08,1.13.2,1.64.06-.55,1.24.74,1.85,1.56,1.82,1.24-.05,2.93.24,3.31-.96,1.36.57,3.23-.09,4.51.87.31.23.51.61.8.79.6.36,1.57.07,1.2-.74,1.53.04,3.15.15,4.57.79.5.23.75,1.01,1.47,1.11.87.12,1.56-.45,2.25-.81.85.02,1.99.29,2.79.62.52.21.71,1.1,1.48,1.1.83,0,1.64-.24,2.24-.88l5.66.9c.04,1.26-.16,2.55-.94,3.57l-1.91.16c-.6-.33-.83.35-1.44.77s-.52,1.28.53,1.07l.15,11.1-.17,1.71c-.91-.1-.4.88,0,1.15l-.86,45.44c-1.6-2.69-1.36,14.84-.04,12.16l.11,15.75,3.52-2.67c1.08-.16,2.5.28,3.62-.08,1.51,1.65,3.66.05,5.81.14,2.19.09,1.82,3.13,1.85,4.53-21-1.62-34.33,16.36-37.36,36.16-.46,2.98-1.92,6.67-.37,9.83.87,1.79,3.88,1.1,5.18,1.4,11.37,2.66,31.9,5.51,42.56,7.21.35.06,1.48.29,1.63-.16.86-2.53.34-4.97.53-7.28l1.76.12c-.22,2.31-.17,5.86,1.72,7.41-.04,1.05.8,1.18,1.04.11l33.47-17.24c2.09-12.4-1.49-25.5-10.03-35.02-2.44-2.72-5.68-4.13-8.59-5.33.23-1.1-1.1-1.37-1.02-.12-5-.63-9.85.61-14.8,1.27-.53.07-1.13-.07-.89.76-.36.03-.75.14-1.1.11-2.19-.22-3.32-2.18-3.61-4.24.56-.8.9-1.95.91-3.37l.15-30.88c3.69-2.13.17,11.89,2.75,11.46l-.03,19.38c0,.71.26,1.41.53,1.67.23.23.74.23,1.13.16-.08,1.25,1.32,1.07,1.11-.1,1.44-.5,2.94-.78,4.46-.92-.23.52.18.76.69.92.74.23.92-.88,1.35-1.09.83-.4,1.95.18,2.79,0-.28.95.47,1.21,1.33,1.21.56,0,1.11-.82,1.66-.95,1.15-.19,2.76,1.31,3.43-.05,1.09.32,1.38-1.05.14-.96l-.03-13.85c.44-.29.81-1.22-.03-1.07l-.41-70.72-17.37,6.61c.68,5.23-.11,9.73-.13,14.19-.85.4-1.77.16-2.6-.2l-.46-1.6c-1.02-3.55.38-7.76.1-12.16-1.99-.79-4.02-1-5.94-1.25-.3-1.41.24-2.91,1.6-3.51.59.15,1.3-.1,1.9-.01-.13.97.87.54,1.1-.01h.94c1.18.03,2.37.17,3.55-.02.3-.05.62-.1.92-.11-.23,1.15.87,1.3,1.03.1l128.29-54.39c.43-8.09,1.73-14.55.23-23.86-13.38,7.3-27.3,10.71-39.97,16.06.02-.95-.07-1.96-.78-2.66l.02-.81c.21.03.45-.06.66-.07.27-.01.53-.38.8-.34.55.08,1.27-.31,1.78-.11,1,.38,1.29-.59,1.94-.87l30.38-12.89c2.66-1.13,6.08-1.19,8.68-2.8,1.45-.9.42-3.68.79-4.73,14.99-38.43,25.37-74.54,16.76-116.68-4.7-23-18.04-49.72-41.72-56-.25-.32-.6-.64-.96-.18-17.56-3.53-34.1,5.03-47.18,15.96l-1.4-1.2c8.31-8.59,17.37-16.67,31.27-18.65-8.52-1.84-15.93-1.01-24.52-1.53-5.35-.33-10.28.05-15.24,2.37-10.88,5.08-20.53,12.7-26.63,22.67-1.94.24-2.06,2.47-2.95,3.64s-3.02,1.82-2.77,3.79c-2.02,1.61-3.52,3.97-4.58,6.33l-29.69-2.53-104.1-8.46-108.63-9.32c-3.22-.28-6.03-.26-8.94-1.79,2.05-4.03,5.19-6.43,7.26-9.48,1.52-.5,1.33,1.89,1.44,2.87-.34.98-2.11,2.3-1.6,3.85.38,1.15,4.29,1.26,5.1.35l9.95-11.04c12.15-13.49,29.42-18.48,48.36-17.26-6.09-3.62-15.04-5.67-22.78-3.52-.07-.79-.41-1.43-1.01-2.19-.72-.9-1.67.14-2.51.09l-14-.79c-27.67-1.56-55.51,28.85-65.7,53.11l133.83,11.29,36.93,3.49c.14,1.43-.61,2.68-1.76,3.49l-168.35-13.93,40.01,45.61c-.04.69-.14,1.65-.8,1.82-1.76.45-3.27-1.21-4.85-1.79l-26.89-29.9c-4.61-5.13-10.81-9.55-13.47-16.23-1.68-4.23,2.32-10.44,4.33-14.05,5.2-9.35,11.11-16.85,18.56-24.24C150.81,9.32,165.28-1.28,187.54.12l16.45,1.04c10.01.63,19.7,2.92,27.48,8.71ZM266.83,48.92l32.53,2.68c4.31-3.63,6.69-9.07,10.63-13.59,8.08-9.26,16.97-16.59,29.03-20.43-9.18-2.43-17.47-1.56-26.14-2.79-22.33-3.16-39.91,15-50.48,33.36,1.01,1.23,2.52.68,4.42.77ZM311.64,51.28c10.38-17.38,27.02-28.84,47.26-29.62-2.82-2.48-6.45-2.77-10.18-2.43-19.81,1.82-34.05,15.77-43.87,32.43,1.85.85,5.38,1.99,6.8-.38ZM525.4,210.6h-.93v15.8h.93v-15.8ZM515.17,326.13l1.72-39.31c.65-14.9,1.77-29.12,1.01-44.03-6.02,2.04-9.99,3.86-14.59,6.1l-4.2,85.2c5.48-3.13,9.78-5.91,16.06-7.96ZM495.01,332.91l4.34-81.21c-1.78-.76-3.12.15-3.85.84-.98.93-.62,2.13-.68,3.65l-3.61,81.52c2.59.69,3.63-1.8,3.79-4.81ZM88.34,255.33c-1.76-.19-4.38-.86-5.36.79-1.18-.2-1.29,1.17-.05,1.04-.1,2.2.74,4.34.9,6.47l5.38,70.44c1.87,1.15,3.63.94,4.9,2.04.35,2.54-2.7,2.84-4.7,3.66-.78.32-2-.81-2.79-.78.15-1.18-1.07-1.3-.98-.06-.29,0-1-.06-1.11.22-1.58,4.16,2.7,40.84,3.6,48.44.19,1.58,1.28,1.91,2.03,2.36s1.23.83,2.18.97c6.49.99,12.93,2.85,19.38,3.61-.12.96.63.82.99.12l6.36.91c.25.49.92,1.09,1.01.24.59.23,1.38.22,1.81.67l.77.82c.46.49,1.59.07,1.22-.74,1.76.06,3.74.57,5.45.85l.75.7c.41.38.76-.34,1.16-.44.61-.15,1.35-.17,1.99-.19l4.47-.15c.3-.01.61.08.91.05-.17,1.29,1.18,1.14,1.01-.05,1.49-.4,1.03-2.07.76-3.64-3.33-18.91-5.51-36.94-21.07-48.29l-.29-2.8c-.22-2.1.08-4.28.09-6.41.32-.68,1.17-1.53,1.11-2.37-.08-1.18-.14-3.01-1.74-2.56l-.44-10.86c.56-.62,1.3-1.42,1.25-2.36-.05-1.06-.67-2.13-1.86-1.59l-2.97-45.3c.28-.27.6-.54.75-.85.29-.6-.04-1.33-.79-1.1-.92-3.04-.11-6.53-1.31-9.84-.68-1.24-3.31-.27-4.4-.29-1-.02-2.43-.04-3.49-.16-.44-.29-1.08-.96-1.69-1.04-.27-.31-.05-1.33-.77-1.56s-.98.88-1.39.93l-4.37-.25c.54-1.14-.51-1.89-1.59-1.84-.85.05-1.75.28-2.35.99-.49.13-1.19-.29-1.64-.06.51-1.12-.42-1.94-1.53-1.82-.71.07-1.73.06-1.54,1.11ZM412.08,299.81v14.86s.1,5.47.1,5.47c.23,11.34-.78,22.76.56,34.54.17,1.48-1.68,3.54.18,5.32l-.14,18.76,6.97,6.08,56.69-27.01c1.7-7.97,5.65-14.14,10.15-20.54,1.87-2.65.1-6.99.67-10.46.19-1.17-.25-2.62.05-3.72.9-3.33,1.99-28.75,2.01-35.31.79-1.04.5-2.7.53-4.81l.26-15.58c.07-3.99,2-8.29.49-13.33l-36.9,15.8-41.77,17.55.16,12.39ZM119.35,288.72c.01,1.51.71,2.97.66,4.44l-.09,2.85c-1.2.62.04,1.51.08,2.12l1.96,30.5c.08,1.18.11,2.67.21,3.82l.9,10.75c4.74,5.09,9.6,9.9,12.52,16.36.78,1.72,2.76,1.35,3.93,1.53l56.52,8.89,148.98,22.31,10.45-9.65c3.08-2.85,1.61-9.5.77-13.06-.19-.82-.05-2.15.05-3,.15-1.39-.29-2.93-.06-4.29.46-2.65.8-5.4.82-8.56l.16-24.22-.05-1.71c-.01-.34-.02-.7.04-1.03.29-1.47-.02-3.03-.02-4.48l-.03-17.02c0-4.15,1.54-8.63-.51-13.42l-74.17-10.51c-2.19,10.3-7.07,19-13.64,26.79-1.49,1.77-4.63,2.7-4.79,5.53-1.73-.11-3.22.3-4.77,1.72-2.38,2.17-5.41,3.21-8.15,4.94-7.36,4.64-15.05,8.07-23.28,9.54-8.13,1.46-26.19-17.48-31.51-23.46-1.14-1.28-2.24-2.78-3.62-3.72-.86-.67-.75-3.24-2.19-3.61l-8.13-16.89c-1.94-4.02-1.06-9.2-3.17-13.82l-61.74-8.79c-.44,9.95,1.8,19.52,1.87,29.15ZM248.58,318.54c1.76-.82.26-3.03-1.1-1.54-1.34,1.55-2.43,2.29-3.85,2.91,1.99,1.27,2.23-1.63,4.94-1.37ZM512.7,379.03c3.04-1.26,4.72-3.31,5.05-6.33.71-13.71,1.23-27.3.19-41.17-3.23-1.28-5.48.85-7.99,1.95-9.1,3.97-15.1,11.13-17.92,20.77-3.6,12.28-5.55,25-5.51,38.02l26.18-13.24ZM482.49,390.02c.15-15.52,4.24-37.73,13.31-51.08-9.76,4.82-13.96,24.65-14.1,34.43-.1,6.79-3.88,20.4.12,18.41.35-.17.66-.93.66-1.76ZM425.26,389.92c17.86-7.47,34.05-16.18,50.86-24.79,2.94-1.51,5.59-3.58,5.44-6.3l-47.13,22.68c-3.89,1.87-8.61,3.39-11.97,5.78-.35.89,1.27,3.26,2.81,2.62ZM151.53,372.01c-.15.03.44,1.05-.14,2.08-1.2-1.2-5.1-1.08-4.35.12-1.74-.27-3.47-.51-5.7-.52-.45,1.15-.03,2.24.1,3.26-1.29-.11-.92,1.16.14.95.97,2.68,1.43,5.51,1.72,8.35-.44.3-.31.71.11.95.48,1.73.7,3.79.82,5.54-.18.28-.63.58-.74.84-.27.6.17,1.33.9.99.89,1.42,2.8,1.13,4.3,1.23.15.48.31,1.24.87,1.43s1.09-.43,1.37-.81l1.61.06c-.32.96.97,1.32,1.01.23.63.16,1.25.41,1.85.65.18,1.25,1.2.98,1.01-.16,1.85.28,3.72.49,5.5,1.04-.1,1.01.71.78,1.08.08l115.29,18.47,54.79,8.36c.94-7.25,1.93-13.68,4.73-20.48-1.57-1.08-3.16-.89-4.63-.99.48-.69-.16-1.34-.83-1.57-.79-.27-1.7.13-2.24.82-.81-.15-1.74-.03-2.54-.1-.25-.4-.27-1.31-.89-1.58-.77-.34-1.6.07-2.08.73-.82-.25-1.76-.14-2.59-.16-.27-.38-.33-1.28-.93-1.5-.82-.3-1.63.11-2.14.76-.78-.23-1.74-.07-2.51-.19-.3-.36-.32-1.3-.93-1.52-.84-.3-1.65.08-2.14.76l-1.63-.06c1.82-3.34-11.56-.63-9.41-5.01l39.12,5.98.79-5.2-204.3-31.25-.79,5.2,14.37,2.2ZM431.3,413.36l44.19-21.99,1.71-20.86-50.68,23.65c3.03,6.56,3.41,12.74,4.78,19.2Z" fill="#4e311b"/>
        <path d="M196.33,306.41c5.32,5.98,23.38,24.92,31.51,23.46.35,2.48,3.86,2.16,5.65,3.22,4.62,2.72,8.27,2.16,12.94,1.03,11.19-2.71,20.68-7.85,29.03-15.18l75.11,10.84c2.58.37,4.79.92,6.64-.25l-.16,24.22c-.02,3.16-.36,5.91-.82,8.56l-60.5-8.57-166.29-24.17c.71-9.28-2.63-22.11-1.83-31.64l68.74,8.49Z" fill="#3a74a9"/>
        <path d="M356.23,369.59c.84,3.56,2.31,10.21-.77,13.06l-10.45,9.65-148.98-22.31-56.52-8.89c-.93-8.66-10.93-16-9.02-23.29,2.74-.56,5.28.16,8.57.64l137.13,20c27.23,3.97,53.33,8.74,80.03,11.14Z" fill="#3a74a9"/>
        <path d="M147.04,374.22l164.7,25.87,1.63.06c.89.66,1.99.85,3.07.75.77.12,1.72-.04,2.51.19.89.65,1.99.84,3.07.74.83.02,1.76-.08,2.59.16.84.67,1.91.88,2.97.85.8.06,1.72-.06,2.54.1.89.74,1.99.68,3.07.75,1.47.1,3.05-.09,4.63.99-2.79,6.79-3.79,13.22-4.73,20.48l-54.79-8.36-115.29-18.47c-.35-.08-.74.02-1.08-.08-1.79-.55-3.66-.76-5.5-1.04-.32-.05-.68.17-1.01.16-.6-.25-1.22-.49-1.85-.65-.33-.08-.67-.22-1.01-.23l-1.61-.06c-.2-.94-1.54-.51-2.24-.62-1.5-.1-3.41.19-4.3-1.23l-.15-1.84c-.12-1.75-.34-3.81-.82-5.54l-.11-.95c-.29-2.83-.75-5.66-1.72-8.35-.11-.29-.1-.64-.14-.95-.13-1.02-.55-2.11-.1-3.26,2.23.01,3.97.25,5.7.52Z" fill="#f0b13b"/>
        <path d="M392.48,291.43c-.34,0-.69-.12-1.03-.1-.3.01-.62.06-.92.11-.5-7.94-.74-16.02-.06-23.95l90.56-38.23c12.67-5.35,26.59-8.77,39.97-16.06,1.5,9.31.2,15.77-.23,23.86l-128.29,54.39Z" fill="#be7c2f"/>
        <path d="M489.31,287.79c-.01,6.56-1.11,31.99-2.01,35.31l-71.23,30.98c-1.33.58-2.27.75-3.33.59-1.34-11.77-.33-23.2-.56-34.54l71.28-30.7c2.17-.94,3.82-1.96,5.84-1.64Z" fill="#30597f"/>
        <path d="M386.98,291.46h-.94c-.36-.04-.74.06-1.1,0-.61-.09-1.31.17-1.9.01-5.7-1.47-11.64-1.79-17.45-2.72l-5.66-.9-3.72-.23c-.8-.33-1.94-.6-2.79-.62l-3.72-.3c-1.42-.64-3.04-.75-4.57-.79l-2-.05c-1.29-.96-3.15-.31-4.51-.87-1.57-.66-3.08-1.31-4.87-.85-.51.13-1.12-.14-1.64-.06-1.58-.57-3.22-.95-4.9-.79-.86.08-1.74-.14-2.6-.17-.87-.65-1.95-.8-3-.72l-2.51-.18-2.01-.05c-7.86-1.8-16.1-2.24-24.07-3.65.07-.93-1.28-.76-1.91-.83-.3-.04-.61-.01-.92-.01-1.11-6.51-.83-13.14-.82-19.73l18.66,1.85,78.8,10.22c.71,7.69.87,14.6.14,21.45Z" fill="#f0b13b"/>
        <path d="M255.69,217.2c.69-.07,1.4-.05,2.09-.06.83-.01,1.5.65,1.58,1.46.15,1.53,1.44,1.77,2.9,2.3l20.59,7.49.92,6.97c2.11.61,3.74.01,5.32-.47.04,2.62,3.03,2.65,5.1,2.52,1-.06,2.54.07,3.49.21,1.86,1.38,4.31.9,6.54.94,1.46.03,2.95,1.09,4.48.82.22.7,1.26,1.08,1.07.07.29.02.59-.04.87.01.64.11,1.37-.1,2,.06,22.35,5.7,28.59,5.95,48.09-6.43-.08.42-.22,1.29-.04,1.67-4.85,5.07-11.39,7.46-18.35,9.38,4.07,2.51,8.3,1.21,11.99,2.02,5.53,1.22,11.14,1.75,16.77,2.37,1.21.13,12.78,3.39,15.8-1.61,3.34-.42,6.64-1.34,9.19-3.59,2.36-.08,4.98-.79,7.33-1.27.41-.08.91.13,1.43-.04.58-.2,1.35-.82.78-1.57l2.67-.43c4.65-.76,8.93-4.57,11.28-5.1,8.1-1.83,15.55-5.74,23-9.4.3-.15.78-.5.94-.8,5.71-.12,10.25-4.07,15.59-5.72,4.53-1.4,9.06-2.9,13.42-5.22l-12.3-2.29-.02-1.87c.32-.08.76-.21,1.08-.17,7.11.92,14.03,1.35,21.77,2.95-3.28,1.82-6.05,3.48-8.81,4.57l-41.96,16.6-46.93,19.16c-2.6,1.06-6.82-.03-9.77-.42l-91.57-12.04c-.58,3.21-.99,6.08.45,8.77l104.25,13.91,91.51-36.35c.71.7.81,1.71.78,2.66l-90.56,38.23-101.99-13.74c-1.42-.19-2.76-.73-4.65-.19.4,3.27-.12,6.19-.12,9.06l-2.85-.02-.47-29.73c-.03-1.71-1.9-1.61-2.28-2.21-.47-.73-1.09-1.39-2.42-1.81-14.29-4.49-27.92-9.98-40.47-18.02l-6.36.84-.4-1.33c3.75-8.86,19.37,7.64,27.23,6.85Z" fill="#623d1a"/>
        <path d="M474.26,216.97c-.3,2.27-1.14,4.38,0,6.13,1.46,2.24,3.71,2.34,6,2.69l-.02.81-91.51,36.35-104.25-13.91c-1.43-2.68-1.03-5.56-.45-8.77l91.57,12.04c2.95.39,7.17,1.48,9.77.42l46.93-19.16,41.96-16.6Z" fill="#f5c957"/>
        <path d="M487.26,326.82c-.56,3.47,1.2,7.81-.67,10.46-4.5,6.39-8.45,12.56-10.15,20.54l-56.69,27.01-6.97-6.08.14-18.76,74.33-33.16Z" fill="#30597f"/>
        <path d="M238.21,224.47l.86-.07c.35.85.55,1.94,1.12,2.41,1.05.88,2.64.55,3.73.44.22-.02.5.03.71.04,1.13,3.13,5.44,3.11,8.43,3.52.35.05.72-.02,1.07-.01,8.04,8.09,9.5,2.68,14.88,5.96,1.61,25.55,2.04,39.23-8.36,62.16-.27.6-.99.99-1.14,1.7-.47.2-.75.64-.89,1.12-8.51,10.47-19.87,18.52-32.39,24.06-2.53-.16-4.43-2.34-5.75-3.55-8.66-7.94-16.81-16.3-24.23-25.97-1.49-1.94-2.79-3.98-4.83-4.75-3.58-6.61-6.28-13.68-7.18-21.36,2.27-1.91.37-4.98.21-7.69-.67-10.85.37-21.29,1.68-32.16,13.15-2.25,24.79-6.25,37.06-10.49,4.92,2.91,9.83,5.09,15.04,4.65ZM194.71,280.31c-.91,2.27,1.18,3.92,1.98,6.23,3.74,10.71,10.99,19.83,21.01,25.46,3.03,1.7,5.37,3.36,7.79,6.63,5.63-3.28,11.37-5.67,16.6-9.4,3.22-2.3,5.6-5.39,8.81-8.05,6.6-5.48,9.4-14.88,10.84-23.32,1-5.85,3.98-28.85-1.34-31.1.02-1.03-.45-3.32-1.32-4.3-10.85-1.98-20.78-6.12-29.65-12.8-2.11-1-3.66-2.64-6.13-3.25-10.65,4.58-21.31,7.62-33.41,8.86-.12,15,.85,31.31,4.82,45.04Z" fill="#f0b13b"/>
        <path d="M177.74,245.86l.87,13,.13,2.87c.03.74.14,1.98-.92,1.92l-2.89-.16-57.64-8.18-2.79-.21c-1.42-.39-3.09-.83-4.57-.79l-1.93-.13c-1.55-.1-3.09-.58-4.65-.75l-.93-.14-17.38-2.18c-1.35-.17-2.3-1.01-3.1-1.37l.09-17.18c32.9,3.19,63.95,7.84,95.71,13.3Z" fill="#f0b13b"/>
        <path d="M384.13,388.17l.12,13.73c.11,12.14-.43,24.28,1.56,36.27-10.66-1.7-31.19-4.55-42.56-7.21-.36-1.25-3.05-2.07-3.07-3.69,1.11-19.96,23.83-42.76,43.94-39.11Z" fill="#f0b13b"/>
        <path d="M406.33,380.66c.32.04.72,0,1.02.12,2.91,1.2,6.15,2.61,8.59,5.33,8.53,9.51,12.12,22.62,10.03,35.02l-33.47,17.24-1.04-.11c-1.88-1.56-1.94-5.11-1.72-7.41,1-10.29.1-20.74-.02-31.57l-.18-16.48c.35.04.74-.08,1.1-.11.43-.03.82-.33.89-.76,4.95-.67,9.79-1.9,14.8-1.27Z" fill="#be7c2f"/>
        <path d="M129.55,375.12c3.53,6.55,3.56,15.19,3.68,22.33-.63.02-1.37.04-1.99.19l-1.92-.26c-1.71-.28-3.69-.78-5.45-.85l-1.99-.07c-.42-.45-1.22-.44-1.81-.67-.32-.12-.68-.13-1.01-.24l-6.36-.91-.99-.12c-6.45-.76-12.89-2.62-19.38-3.61.05-.44-.01-.9-.2-1.28-.32-.67-.99-1.06-1.71-.78.05-1.42,0-2.84-.04-4.25,1.43-1.45,1.5-4.63-.16-5.91l-.07-5.23c-.11-8.65-.03-17.03-.11-26.82,12,1.83,23.81,6.63,30.98,16.35,2.95,3.99,6.39,8.18,8.52,12.13Z" fill="#f0b13b"/>
        <path d="M408.25,360.12l.03,1.07.03,13.85c0,.32-.12.64-.14.96-.67,1.36-2.27-.13-3.43.05.23-.86-.92-.64-1.52-.88-.56-.23-.98.52-1.47.62-.84.18-1.96-.4-2.79,0,.11-.79-.76-.56-1.16-.45-.34.09-.6.6-.88.62-1.52.15-3.01.42-4.46.92-.34.12-.75.03-1.11.1-.39.07-.89.07-1.13-.16-.27-.27-.53-.97-.53-1.67l.03-19.38c1.7-1.73.43-4.18.44-6.71l.16-38.86c.02-4.46.81-8.96.13-14.19l17.37-6.61.41,70.72Z" fill="#be7c2f"/>
        <path d="M383.18,308.2l-.11,69.46c-4.97.7-10.17-.11-14.92,1.25-1.11.37-2.54-.08-3.62.08l.14-72.65c6.22-.33,12.31,1.55,18.51,1.86Z" fill="#f0b13b"/>
        <path d="M515.17,326.13c-6.28,2.05-10.58,4.83-16.06,7.96l4.2-85.2c4.6-2.24,8.58-4.06,14.59-6.1.75,14.91-.36,29.13-1.01,44.03l-1.72,39.31Z" fill="#be7c2f"/>
        <path d="M512.7,379.03l-26.18,13.24c-.04-13.03,1.91-25.74,5.51-38.02,2.82-9.64,8.82-16.8,17.92-20.77,2.51-1.09,4.76-3.22,7.99-1.95,1.04,13.86.53,27.45-.19,41.17-.33,3.02-2.01,5.08-5.05,6.33Z" fill="#be7c2f"/>
        <path d="M357.15,305.28l-67.4-8.73-6.85,14.67c-.56-.12-15.74.33-14.06-3.08,6.57-7.78,11.45-16.48,13.64-26.79l74.17,10.51c2.05,4.79.5,9.27.51,13.42Z" fill="#30597f"/>
        <path d="M88.34,255.33c.97.11,1.86,1.31,3.06.72.46-.23,1.15.2,1.64.06,1.3.33,2.6.77,3.94.84l4.37.25c.1.96,1.5.5,2.16.63.62.09,1.26.75,1.69,1.04.94,2.76-.09,5.75.12,8.48-.53.15-2.42-.09-2.46.95-.93,22.24,4.05,46.88,5.27,69.99-4.63-1.87-8.06-4.24-12.24-4.73-1.28-.15-2.45-.46-3.03-1.48-.76-1.33-1.83-14.96-2.03-18.14l-3.02-46.14c-.1-1.46-.33-2.98-1.27-3.64-.76-.54-1.85-.45-2.73-.55-.16-2.13-1-4.27-.9-6.47l.05-1.04c.98-1.65,3.6-.98,5.36-.79Z" fill="#f0b13b"/>
        <path d="M357.15,305.28l.03,17.02c-24.8-3.41-49.96-5.87-74.28-11.08l6.85-14.67,67.4,8.73Z" fill="#3a74a9"/>
        <path d="M489.84,282.98c-.58.2-1.39.03-2.38.46l-68.01,29.41c-2.65,1.15-4.79,2.47-7.38,1.81v-14.86c1.79-.27,3.55-.75,5.68-1.65l72.36-30.75-.26,15.58Z" fill="#30597f"/>
        <path d="M490.1,267.4l-72.36,30.75c-2.13.9-3.88,1.39-5.67,1.65l-.16-12.39,41.77-17.55,36.9-15.8c1.51,5.04-.42,9.34-.49,13.33Z" fill="#284461"/>
        <path d="M431.3,413.36c-1.36-6.46-1.74-12.64-4.78-19.2l50.68-23.65-1.71,20.86-44.19,21.99Z" fill="#be7c2f"/>
        <path d="M228.91,197.57c.24-.01.49.15.73.16-.28,1.37.29,2.46,1.54,2.49l2.99.06c3.3,11.56,22.01,12.38,21.54,16.92-7.86.79-23.48-15.71-27.23-6.85-3.65-.2-6.98,1.72-10.67,3.03l-7.54,2.67c-.37.13-.64.46-.93.72-.61.04-1.27.08-1.86.19l-.95.16c-1.48.25-3.12.51-4.58.85l-1.87.16c-.31.03-.62-.01-.93-.03-.23-1.11-1.48-1.15-2.33-1.08-.85.08-2.55-.08-2.42,1.13-.23.02-.5,0-.72-.04-4.71-1.03-9.23-3.12-12.94-6.85-4.61-4.63-5.01-12.71.3-16.91,3.2-2.53,7.5-2.68,11.34-3.56,9.46-2.17,19.39.72,25.82,8.11,2.45,2.81,3.23,6.5,5.98,8.74l-2.8-9.89c2.79-.36,5.33-.06,7.52-.18ZM189.75,207.43c-1.49-1.23-2.56-2.48-2.4-3.82.14-1.13.56-3.03,1.82-3.9,7.92-5.44,17.03-3.25,24.76,3.12-.17-11.09-19.19-12.7-27.59-5.21-3.85,3.43-4.04,8.83-.06,11.85,10.01,7.58,22.69,5.3,20.99,2.55-.94-1.52-9.82,1.78-17.53-4.59Z" fill="#f5c957"/>
        <path d="M182.39,282.18l-57.61-7.91c.38,5.85.85,10.66,1.82,15.38l-7.25-.92c-.07-9.63-2.31-19.2-1.87-29.15l61.74,8.79c2.11,4.62,1.24,9.8,3.17,13.82Z" fill="#30597f"/>
        <path d="M182.39,282.18l8.13,16.89-63.93-9.43c-.96-4.72-1.44-9.52-1.82-15.38l57.61,7.91Z" fill="#3a74a9"/>
        <rect x="237.07" y="279.51" width="5.26" height="206.67" transform="translate(-175 561.88) rotate(-81.3)" fill="#f5c957"/>
        <path d="M129.43,329.55l166.29,24.17,60.5,8.57c-.24,1.36.21,2.9.06,4.29l-129.49-19.02-97.25-14.01-7.38-1.11c-.1-1.15-.13-2.64-.21-3.82l7.48.92Z" fill="#284461"/>
        <path d="M131.31,207.79c-.11,1.03,1.21,3.38.3,4.3-4.65,2.63-10.14,2.28-14.81,6.21l60.75,9c-.09,2.62.63,5.22.12,8.42-1.83,0-4.02.62-5.54.03-3.24-1.27-6.74-1.07-10.12-1.58l-39.09-5.86c-.54-1.55-2.5-.93-3.77-.67l-1.86-.18c.91-1.87-6.29-1.02-4.72-.19-.53-.02-1.12.04-1.64-.06.39-.48.16-.94-.16-1.22-.46-.41-1.04-.41-1.85-.53l-12.11-1.8c-3.26-.48-6.77.22-9.85-2.19,9.66-4.91,19.67-5.99,29.52-9.16,5.12-1.65,9.74-4.25,14.82-4.53Z" fill="#f5c957"/>
        <path d="M356.28,366.59c-.09.85-.24,2.17-.05,3-26.71-2.4-52.8-7.17-80.03-11.14l-137.13-20c-3.3-.48-5.83-1.2-8.57-.64-.44-1.38-.81-2.79-.95-4.24l97.25,14.01,129.49,19.02Z" fill="#4a7fad"/>
        <path d="M108.71,259.03l6.33,82.96c1.55.72,2.79.47,3.98.58l.29,2.8c-1.36-.02-2.89.05-3.57,1.55,15.41,11.59,22.36,32.57,21.96,50.38l-4.47.15c-.11-7.14-.14-15.78-3.68-22.33-4.61-18.06-21.09-33.7-40.1-34.39.04-.32-.06-.65-.04-.97,2-.81,5.05-1.12,4.7-3.66.8.14,1.89-.42,2.65-.11,4.66,1.87,9.25,3.45,14.36,6.45l-5.79-75.09c-.21-2.73.82-5.73-.12-8.48,1.06.11,2.49.14,3.49.16Z" fill="#623d1a"/>
        <path d="M161.8,237.57c3.24.44,9.12,1.95,12.2,1.68.89-.08,2.92.47,3.48,1.19.85,1.81.16,3.88.26,5.41-31.75-5.45-62.81-10.11-95.71-13.3l-.09,17.18c-1.17-.11-2.67.53-3.69-.46-1.99-1.93-2.58-19.25-2.33-23.26l85.87,11.56Z" fill="#f4da7d"/>
        <path d="M302.33,395.08c-2.16,4.38,11.23,1.67,9.41,5.01l-164.7-25.87c-.75-1.21,3.15-1.33,4.35-.12.57-1.03-.02-2.05.14-2.08l150.8,23.07Z" fill="#623d1a"/>
        <path d="M278.11,230.67c.38.6,2.25.5,2.28,2.21l.47,29.73c.32,20.08-9.41,42.99-28.45,52.22l-.02-.97c3.77-4.78,9.22-8.7,11.04-14.6.23-.73,1.11-1.32,1.09-2.22.25-.34.96-.62,1.14-.98.37-.73.68-1.96-.55-1.81.27-.18.33-.77.64-.9,3.19-1.27,3.61-6.51,5.16-11.12,4.73-14.06,1.11-33.21,1.02-47.93.76-.99,3.38-1.29,3.35-2.73.89-.2,1.7-1.37,2.84-.91Z" fill="#be7c2f"/>
        <path d="M472.18,205.45l41.16,4.55c1.34.15,2.35.42,2.48,1.5l-30.38,12.89c-.59.25-1.96-.04-1.94.87-.52-.19-1.23.19-1.78.11-.16-1.26-1.21-.67-.8.34-.21.01-.45.1-.66.07-2.29-.35-4.54-.45-6-2.69-1.14-1.75-.29-3.86,0-6.13,2.76-1.09,5.53-2.75,8.81-4.57-7.74-1.6-14.66-2.03-21.77-2.95.51-1.08.44-3.56,2.1-4.13,2.94-1.01,6.07-.17,8.77.13Z" fill="#f0b13b"/>
        <path d="M264.04,313.67c4.43.27,8.81,1.45,13.12,2.05l-1.69,3.21c-8.35,7.33-17.84,12.47-29.03,15.18-4.68,1.13-8.32,1.69-12.94-1.03-1.79-1.05-5.3-.74-5.65-3.22,8.23-1.48,15.92-4.91,23.28-9.54,2.74-1.72,5.77-2.76,8.15-4.94,1.55-1.42,3.04-1.82,4.77-1.72Z" fill="#30597f"/>
        <path d="M390.47,267.48c-.67,7.93-.44,16.01.06,23.95-1.18.19-2.37.05-3.55.03.73-6.85.57-13.75-.14-21.45l-78.8-10.22-18.66-1.85c-.48-1.36-.77-2.77-.9-4.2l101.99,13.74Z" fill="#f5c957"/>
        <path d="M282.9,311.22c24.32,5.21,49.48,7.67,74.28,11.08,0,1.46.31,3.02.02,4.48l-.99-.08-79.05-10.99c-4.31-.6-8.69-1.78-13.12-2.05.17-2.83,3.3-3.76,4.79-5.53-1.68,3.42,13.5,2.96,14.06,3.08Z" fill="#284461"/>
        <path d="M114.42,269.16c.18.61-.08,1.33.04,1.95l2.97,45.3c.08,1.28-.69,3.12.61,3.95l.44,10.86.62,4.94c0,2.14-.31,4.32-.09,6.41-1.19-.11-2.43.14-3.98-.58l-6.33-82.96c1.09.02,3.72-.95,4.4.29,1.2,3.31.39,6.8,1.31,9.84Z" fill="#be7c2f"/>
        <path d="M495.01,332.91c-.16,3.01-1.2,5.5-3.79,4.81l3.61-81.52c.07-1.52-.29-2.72.68-3.65.73-.69,2.07-1.61,3.85-.84l-4.34,81.21Z" fill="#be7c2f"/>
        <path d="M227.91,217.94c.23.42.57.75.97,1.02,1.29.46,2.47,1.15,3.69,1.75.18.41.49.8.92.97.25.1.61-.13.85-.01-.15.58.6.94,1.07,1.03,1.14.22,2.31.64,2.8,1.77-5.22.44-10.12-1.74-15.04-4.65-12.27,4.24-23.91,8.25-37.06,10.49-1.32,10.87-2.35,21.3-1.68,32.16.17,2.72,2.07,5.78-.21,7.69-2.54-12.49-2.93-29.86-2.6-43.41,14.6-2.32,28.31-5.48,41.38-11.62,1.96.42,3.56,2.25,4.91,2.81Z" fill="#f4da7d"/>
        <path d="M364.65,292.33c5.24-.45,11.19,1.94,16.8,2.66,1.91.25,3.95.46,5.94,1.25.28,4.4-1.12,8.61-.1,12.16l-4.1-.21c-6.2-.31-12.29-2.18-18.51-1.86-.82-.09-1.77-.97-2.69-.9l-.15-11.1c0-.63.76-1.24.91-1.84l1.91-.16Z" fill="#be7c2f"/>
        <path d="M489.84,282.98c-.04,2.11.26,3.77-.53,4.81-2.02-.31-3.67.71-5.84,1.64l-71.28,30.7-.11-5.47c2.59.66,4.73-.67,7.38-1.81l68.01-29.41c.99-.43,1.8-.26,2.38-.46Z" fill="#182e44"/>
        <path d="M487.31,323.1c-.3,1.1.14,2.55-.05,3.72l-74.33,33.16c-1.86-1.78-.01-3.83-.18-5.32,1.06.17,2-.01,3.33-.59l71.23-30.98Z" fill="#182e44"/>
        <path d="M356.2,326.7c.2.46.5.88.95,1.11l.05,1.71c-1.85,1.17-4.05.63-6.64.25l-75.11-10.84,1.69-3.21,79.05,10.99Z" fill="#4a7fad"/>
        <path d="M278.11,230.67c-1.15-.47-1.95.7-2.84.91-2.08.47-4.27,1.14-6.34.6-.95-.25-1.92-.31-2.9-.31h-1.77c-.94-1.64-2.98-1.83-4.73-1.84-.57,0-1.34-.03-1.86.1-.21-.87-1.39-.74-1.84-1.21-1.44-1.5-3.49-1.93-5.48-2.37-.91-.2-1.85-.26-2.78-.34-.46-1.62-2.35-1.68-3.57-1.85-.37-2.57-22.98-10.72-15.14-12.66l6.36-.84c12.55,8.04,26.19,13.53,40.47,18.02,1.33.42,1.95,1.08,2.42,1.81Z" fill="#f0b13b"/>
        <path d="M135.07,204.04c-.41,2.86-.25,6.05,1.69,8.22-1.37,1.75-.53,4.05,1.39,5.44,2.58,1.86,5.51.93,7.96,1.53,5.58,1.36,11.62.49,17.49,1.97l12.44,3.15c1.68.43,2.86-.99,3.79-1.88l.86.06c-.35,1.88-2.15,3.3-3.13,4.75l-60.75-9c4.67-3.93,10.16-3.58,14.81-6.21.91-.92-.41-3.27-.3-4.3l.75-2.64c.98-.28,1.84-1.28,3-1.1Z" fill="#623d1a"/>
        <path d="M126.6,289.64l63.93,9.43c1.44.37,1.33,2.94,2.19,3.61l-66.09-8.45c-2.19-.28-4.33-1.5-6.61-1.07.05-1.47-.65-2.94-.66-4.44l7.25.92Z" fill="#284461"/>
        <path d="M95.91,333.58l.86,2.42c-.77-.31-1.86.25-2.65.11-1.28-1.1-3.04-.9-4.9-2.04l-5.38-70.44c.87.1,1.96.02,2.73.55.94.66,1.17,2.18,1.27,3.64l3.02,46.14c.21,3.19,1.28,16.81,2.03,18.14.58,1.02,1.75,1.33,3.03,1.48Z" fill="#f4da7d"/>
        <path d="M387.28,308.4l.46,1.6c2.96,10.28-.69,22.88-.75,34.31l-.15,30.88c0,1.42-.35,2.58-.91,3.37-.8-.48-1.89-1.05-2.87-.91l.11-69.46,4.1.21Z" fill="#f5c957"/>
        <path d="M126.63,294.23c.07,1.28.29,2.58.97,3.68-.8,9.53,2.54,22.36,1.83,31.64l-7.48-.92-1.96-30.5c.83.26,1.27-.76,1.01-1.54-.14-.41-.56-.76-1.09-.58l.09-2.85c2.29-.43,4.43.79,6.61,1.07Z" fill="#30597f"/>
        <path d="M192.71,302.69c1.38.94,2.48,2.44,3.62,3.72l-68.74-8.49c-.68-1.11-.9-2.4-.97-3.68l66.09,8.45Z" fill="#4a7fad"/>
        <path d="M364.67,306.34l-.14,72.65-3.52,2.67-.11-15.75c-.03-4.05-.03-8.11.04-12.16l.86-45.44v-1.15s.18-1.71.18-1.71c.92-.07,1.87.81,2.69.9Z" fill="#f5c957"/>
        <path d="M384.13,388.17c-20.12-3.65-42.83,19.15-43.94,39.11.02,1.62,2.72,2.44,3.07,3.69-1.3-.31-4.31.38-5.18-1.4-1.55-3.16-.09-6.85.37-9.83,7.62-13.08.54-10.1,13.06-23.26,7.38-7.75,16.35-12.18,27.52-11.45,1.17.08,2.65-.76,3.91.17.94.7,1.18,1.66,1.19,2.97Z" fill="#f5c957"/>
        <path d="M375.8,383.57c3.87.3,7.6-1.54,12.54,0-.74,15.51-.44,31.22-.41,46.33-2.68-5.82.05-12.65-1.28-19.22-1.15-5.67-.4-10.16-2.39-8.79l-.12-13.73c-.01-1.31-.25-2.28-1.19-2.97-1.26-.93-2.73-.09-3.91-.17-11.17-.73-20.15,3.7-27.52,11.45-12.52,13.16-5.45,10.18-13.06,23.26,3.03-19.8,16.36-37.78,37.36-36.16Z" fill="#f4da7d"/>
        <path d="M425.26,389.92c-1.54.64-3.15-1.73-2.81-2.62,3.36-2.4,8.08-3.91,11.97-5.78l47.13-22.68c.15,2.72-2.5,4.79-5.44,6.3-16.8,8.61-32.99,17.32-50.86,24.79Z" fill="#be7c2f"/>
        <path d="M275.27,231.57c.04,1.44-2.58,1.74-3.35,2.73.1,14.73,3.71,33.88-1.02,47.93-.35-.64.15-1.5-.86-1.97-1.3,4.89-3.93,8.63-4.3,13.09-.32.13-.37.71-.64.9-.54.37-.81.88-1.11,1.2-.82.86-.94,1.82.53,1.59.02.9-.86,1.48-1.09,2.22l-2.79-.34c10.4-22.93,9.98-36.61,8.36-62.16l-.15-2.32c-.05-.75.13-1.51.07-2.26,2.07.55,4.26-.13,6.34-.6Z" fill="#623d1a"/>
        <path d="M383.07,377.65c.98-.14,2.07.44,2.87.91.3,2.06,1.43,4.01,3.61,4.24l.18,16.48c.12,10.83,1.02,21.27.02,31.57l-1.76-.12c.02-.24.05-.61-.05-.82-.03-15.11-.33-30.82.41-46.33-4.93-1.55-8.66.3-12.54,0-.03-1.4.34-4.45-1.85-4.53-2.15-.08-4.29,1.51-5.81-.14,4.76-1.37,9.95-.56,14.92-1.25Z" fill="#623d1a"/>
        <path d="M85.63,338.93c.31,0,.66.07.98.06.79-.04,2.01,1.09,2.79.78-.02.32.08.65.04.97-1.29,10.56-1.01,21.26-.91,32.3.37.57,1.36.95,1.61.43l.07,5.23c-1.31,1.75-1.31,4.27.16,5.91.05,1.42.09,2.84.04,4.25-.01.37-.24.72-.28,1.09-.74-.45-1.84-.78-2.03-2.36-.89-7.59-5.18-44.28-3.6-48.44.11-.28.81-.22,1.11-.22Z" fill="#f4da7d"/>
        <path d="M129.54,333.56c.14,1.45.51,2.86.95,4.24-1.91,7.29,8.09,14.64,9.02,23.29-1.17-.18-3.15.19-3.93-1.53-2.92-6.46-7.78-11.27-12.52-16.36l-.9-10.75,7.38,1.11Z" fill="#30597f"/>
        <path d="M119.31,345.37c15.56,11.35,17.74,29.38,21.07,48.29.28,1.57.73,3.24-.76,3.64-.31.08-.69.02-1.01.05-.3.03-.61-.06-.91-.05.39-17.81-6.55-38.79-21.96-50.38.68-1.51,2.21-1.58,3.57-1.55Z" fill="#be7c2f"/>
        <path d="M132.06,205.14l-.75,2.64c-5.09.28-9.7,2.88-14.82,4.53-9.85,3.17-19.86,4.25-29.52,9.16,3.07,2.4,6.59,1.7,9.85,2.19l12.11,1.8c.8.12,1.38.12,1.85.53.32.28.54.74.16,1.22-10.18-2.02-20.64-2.03-31.67-5.22,18.36-6.61,35.48-11.91,52.81-16.85Z" fill="#f4da7d"/>
        <path d="M482.49,390.02c0,.83-.32,1.58-.66,1.76-4,1.99-.22-11.62-.12-18.41.14-9.78,4.34-29.61,14.1-34.43-9.07,13.35-13.16,35.56-13.31,51.08Z" fill="#be7c2f"/>
        <path d="M150.73,192.2c-.06,1.49-.66,3.12-2.26,4.11-4.48,2.79-9.15,9.71-6.61,11.52.47.33,1.28.23,2.02.15l.2.74c.46,1.7,2.35,1.9,3.86,3.65l-3.78,1.06c-2.58.35-4.89-.92-7.4-1.16-1.94-2.18-2.1-5.37-1.69-8.22.17-1.19,1.94-2.19,1.83-3.58.39-.25.73-.57,1.02-.93.19-.31.72-.5.84-.84.73-.15,1.52-.43,1.79-1.18,2.17-1.5,4.58-2.68,6.48-4.53.44-.43,1.34-.85,1.88-.83l1.82.06Z" fill="#f4da7d"/>
        <path d="M390.34,310.2l-.16,38.86c-.01,2.53,1.26,4.98-.44,6.71-2.58.43.94-13.59-2.75-11.46.06-11.43,3.71-24.03.75-34.31.83.36,1.75.6,2.6.2Z" fill="#623d1a"/>
        <path d="M288.48,253.75c.13,1.43.42,2.85.9,4.2,0,6.59-.28,13.22.82,19.73-2.45.01-4.89.1-7.5-.83,1.2-5.22.99-9.69,1-14.23,0-2.87.52-5.79.12-9.06,1.89-.54,3.23,0,4.65.19Z" fill="#be7c2f"/>
        <path d="M387.93,429.91c.1.21.07.58.05.82-.19,2.31.33,4.75-.53,7.28-.15.46-1.28.22-1.63.16-2-11.99-1.46-24.13-1.56-36.27,2-1.38,1.25,3.12,2.39,8.79,1.33,6.57-1.39,13.4,1.28,19.22Z" fill="#f5c957"/>
        <path d="M383.04,291.48c-1.36.6-1.9,2.1-1.6,3.51-5.61-.73-11.56-3.11-16.8-2.66.78-1.02.98-2.31.94-3.57,5.81.92,11.75,1.25,17.45,2.72Z" fill="#623d1a"/>
        <path d="M220.47,322.24c-12.15-7.41-22.32-18.28-29.07-30.72,2.05.77,3.34,2.81,4.83,4.75,7.43,9.67,15.57,18.03,24.23,25.97Z" fill="#f5c957"/>
        <path d="M172.12,235.75c-.07,1.45.92,2.53,1.87,3.51-3.08.27-8.96-1.25-12.2-1.68.12-1.13.2-2.27.2-3.41,3.38.51,6.87.31,10.12,1.58Z" fill="#623d1a"/>
        <path d="M173.16,216.13c-.15,1.03-1.34,1.68-1.79,2.68,1.21-.39,2.77-2.25,4.31-1.46,2.04,1.05,3.16,3.45,4.14,5.14-.92.89-2.11,2.31-3.79,1.88l-12.44-3.15c-5.87-1.49-11.91-.61-17.49-1.97-2.32-1.25,13.54-1.73,17.7-2.59,3.3-.68,5.98-1.7,9.35-.53Z" fill="#f0b13b"/>
        <path d="M185.87,220.97l-.74.67c-.89-.01-1.77-.07-2.65-.18-1.42-2.21-3.39-4.52-5.8-6.17-1.03-.7-2.76.88-3.52.84.3-2.05,1.8-3.19,3.49-5.09,2.33,3.93,6.34,6.33,9.22,9.93Z" fill="#f0b13b"/>
        <path d="M360.9,365.9c-1.32,2.68-1.56-14.86.04-12.16-.08,4.05-.07,8.11-.04,12.16Z" fill="#623d1a"/>
        <path d="M247.57,226.19l-.13,1.27-2.81-.16c-.21-.01-.49-.07-.71-.04l-.04-.93.12-1.98c1.22.17,3.11.23,3.57,1.85Z" fill="#623d1a"/>
        <path d="M338.62,284.99c-.38,1.2-2.07.91-3.31.96-.82.03-2.11-.57-1.56-1.82,1.78-.46,3.3.19,4.87.85Z" fill="#623d1a"/>
        <path d="M332.11,284.08c-.82.81-1.98,1.06-3.26.97-.81-.06-2.12-.51-1.64-1.76,1.68-.16,3.32.22,4.9.79Z" fill="#623d1a"/>
        <path d="M118.04,320.35c-1.29-.83-.52-2.67-.61-3.95,1.19-.53,1.81.53,1.86,1.59.04.94-.7,1.74-1.25,2.36Z" fill="#623d1a"/>
        <path d="M119.11,336.16l-.62-4.94c1.6-.45,1.66,1.38,1.74,2.56.05.85-.79,1.69-1.11,2.37Z" fill="#623d1a"/>
        <path d="M148.91,192.14c-.54-.02-1.44.41-1.88.83,0-.94-.35-1.86-.13-2.8.66,0,2.2-.32,2.8.41.27.33-1.01,1.07-.79,1.56Z" fill="#623d1a"/>
        <path d="M243.88,226.32l.04.93c-1.09.11-2.68.44-3.73-.44-.57-.48-.77-1.57-1.12-2.41,1.46.98,3.01,1.93,4.8,1.93Z" fill="#f4da7d"/>
        <path d="M404.75,376.06c-.55.13-1.1.95-1.66.95-.86,0-1.61-.26-1.33-1.21.49-.1.91-.85,1.47-.62.6.25,1.75.02,1.52.88Z" fill="#623d1a"/>
        <path d="M96.99,256.95c-1.34-.08-2.65-.51-3.94-.84.6-.71,1.5-.94,2.35-.99,1.08-.06,2.13.69,1.59,1.84Z" fill="#623d1a"/>
        <path d="M91.4,256.04c-1.21.6-2.09-.61-3.06-.72-.19-1.05.82-1.03,1.54-1.11,1.1-.11,2.04.71,1.53,1.82Z" fill="#623d1a"/>
        <path d="M199.14,218.11c-1.58-.1-3.17-.08-4.75.05-.13-1.22,1.56-1.06,2.42-1.13.85-.08,2.1-.03,2.33,1.08Z" fill="#623d1a"/>
        <path d="M117.29,227.46c-1.57-.15-3.15-.14-4.72-.19-1.57-.83,5.64-1.68,4.72.19Z" fill="#f4da7d"/>
        <path d="M333.17,403.7c-1.07-.07-2.18-.01-3.07-.75.53-.68,1.45-1.09,2.24-.82.67.23,1.31.88.83,1.57Z" fill="#623d1a"/>
        <path d="M327.57,402.85c-1.06.03-2.12-.19-2.97-.85.48-.66,1.31-1.07,2.08-.73.62.28.63,1.18.89,1.58Z" fill="#623d1a"/>
        <path d="M322.02,401.83c-1.08.1-2.18-.09-3.07-.74.51-.65,1.31-1.06,2.14-.76.6.22.66,1.12.93,1.5Z" fill="#623d1a"/>
        <path d="M316.44,400.91c-1.08.09-2.19-.09-3.07-.75.5-.69,1.31-1.06,2.14-.76.61.22.63,1.16.93,1.52Z" fill="#623d1a"/>
        <path d="M248.58,318.54c-2.72-.26-2.95,2.64-4.94,1.37,1.41-.62,2.5-1.36,3.85-2.91,1.35-1.49,2.86.72,1.1,1.54Z" fill="#623d1a"/>
        <path d="M252.41,314.83l-.33,1.32c-.17.69-1.94.8-1.9-.51.04-1.35,1.65-1.41,2.21-1.78l.02.97Z" fill="#623d1a"/>
        <path d="M324.61,283.12c-.46.68-1.26,1.1-2.08.79-.62-.23-.66-1.14-.92-1.51,1.06-.08,2.14.07,3,.72Z" fill="#623d1a"/>
        <path d="M150.93,396.42c-.28.38-.81,1-1.37.81s-.72-.95-.87-1.43c.7.1,2.04-.33,2.24.62Z" fill="#623d1a"/>
        <path d="M92.33,390.92c-.95-.15-1.42-.51-2.18-.97.04-.37.27-.72.28-1.09.71-.28,1.39.11,1.71.78.18.38.25.84.2,1.28Z" fill="#f5c957"/>
        <path d="M119.99,298.13c-.04-.61-1.27-1.5-.08-2.12.53-.18.95.16,1.09.58.26.78-.18,1.8-1.01,1.54Z" fill="#284461"/>
        <path d="M359.93,287.86c-.6.64-1.4.88-2.24.88-.77,0-.96-.89-1.48-1.1l3.72.23Z" fill="#623d1a"/>
        <path d="M353.42,287.01c-.68.35-1.38.93-2.25.81-.73-.1-.97-.88-1.47-1.11l3.72.3Z" fill="#623d1a"/>
        <path d="M103.53,257.83c-.66-.12-2.06.34-2.16-.63.42-.06.68-1.16,1.39-.93s.5,1.25.77,1.56Z" fill="#623d1a"/>
        <path d="M398.97,375.8c-.43.21-.61,1.32-1.35,1.09-.5-.16-.92-.4-.69-.92.27-.03.53-.53.88-.62.4-.11,1.27-.34,1.16.45Z" fill="#623d1a"/>
        <path d="M122.92,228.31c-1.23-.18-3.06.62-3.77-.67,1.26-.26,3.23-.88,3.77.67Z" fill="#f4da7d"/>
        <path d="M185.13,221.64c-.86.77-1.74,1.13-2.84.92l.19-1.1c.88.11,1.76.16,2.65.18Z" fill="#623d1a"/>
        <path d="M117.29,255.31c-.38.4-.88.75-1.42.82-.71.09-.94-.91-1.37-1.03l2.79.21Z" fill="#623d1a"/>
        <path d="M178.74,261.72l-.13-2.87c.32.39.88.85.92,1.49.03.52.07,1.52-.79,1.38Z" fill="#623d1a"/>
        <path d="M177.82,263.64c.32.84-.93.85-1.48.86-.61.01-1.09-.51-1.41-1.02l2.89.16Z" fill="#623d1a"/>
        <path d="M140.55,197.5c-.27.76-1.06,1.04-1.79,1.18.3-.85,1.2-.77,1.79-1.18Z" fill="#623d1a"/>
        <path d="M144.39,394.58c-.73.33-1.16-.39-.9-.99.12-.27.56-.57.74-.84l.15,1.84Z" fill="#623d1a"/>
        <path d="M123.88,396.53c.37.81-.76,1.23-1.22.74l-.77-.82,1.99.07Z" fill="#623d1a"/>
        <path d="M131.24,397.64c-.4.1-.75.82-1.16.44l-.75-.7,1.92.26Z" fill="#623d1a"/>
        <path d="M201.94,217.98c-.37.09-.62.96-1.34.96-.41,0-.75-.29-.53-.8l1.87-.16Z" fill="#623d1a"/>
        <path d="M345.13,285.92c.37.8-.6,1.09-1.2.74-.29-.17-.49-.56-.8-.79l2,.05Z" fill="#623d1a"/>
        <path d="M319.1,282.23c-.37-.02-.69.98-1.21.64-.33-.22-.6-.47-.8-.69l2.01.05Z" fill="#623d1a"/>
        <path d="M293.03,278.52c-.71-.13-1.63.05-1.91-.83.62.07,1.98-.1,1.91.83Z" fill="#be7c2f"/>
        <path d="M114.46,271.11c-.13-.62.14-1.34-.04-1.95.75-.23,1.08.51.79,1.1-.15.31-.47.57-.75.85Z" fill="#623d1a"/>
        <path d="M109.93,254.31c-.4.06-.8,1-1.37.78-.5-.2-.76-.39-.57-.91l1.93.13Z" fill="#623d1a"/>
        <path d="M485.43,224.38c-.66.28-.94,1.25-1.94.87-.02-.92,1.35-.62,1.94-.87Z" fill="#623d1a"/>
        <path d="M481.71,225.37c-.26-.04-.52.32-.8.34-.41-1.01.64-1.6.8-.34Z" fill="#f5c957"/>
        <path d="M102.42,253.29l.93.14c-.33.71-1.04.74-.93-.14Z" fill="#623d1a"/>
        <path d="M82.93,257.15c-1.24.13-1.13-1.24.05-1.04l-.05,1.04Z" fill="#623d1a"/>
        <path d="M235.41,222.7c-.47-.09-1.22-.45-1.07-1.03.42.2,1.43.38,1.07,1.03Z" fill="#623d1a"/>
        <path d="M391.46,438.26l1.04.11c-.24,1.07-1.08.95-1.04-.11Z" fill="#623d1a"/>
        <path d="M233.49,221.68c-.43-.17-.74-.56-.92-.97.35.29.66.61.92.97Z" fill="#623d1a"/>
        <path d="M192.51,220.61c-.32-.69.75-.59,1.14-.71-.11.64-.62.67-1.14.71Z" fill="#623d1a"/>
        <path d="M384.94,291.47c.36.05.73-.04,1.1-.01-.23.55-1.23.98-1.1.01Z" fill="#623d1a"/>
        <path d="M391.45,291.33c.34-.01.68.1,1.03.1-.16,1.19-1.25,1.05-1.03-.1Z" fill="#623d1a"/>
        <path d="M361.83,294.34c-1.05.21-1.12-.65-.53-1.07s.84-1.1,1.44-.77c-.15.6-.92,1.2-.91,1.84Z" fill="#623d1a"/>
        <path d="M228.88,218.96c-.39-.27-.73-.6-.97-1.02.44.18.97.47.97,1.02Z" fill="#623d1a"/>
        <path d="M258.61,301.73c.14-.48.42-.92.89-1.12-.09.41-.63.8-.89,1.12Z" fill="#623d1a"/>
        <path d="M361.8,308.3c-.39-.27-.9-1.25,0-1.15v1.15Z" fill="#623d1a"/>
        <path d="M206.52,217.13l.95-.16c-.28.29-.61.61-.95.16Z" fill="#623d1a"/>
        <path d="M209.33,216.79c.29-.26.56-.59.93-.72,0,.6-.44.69-.93.72Z" fill="#623d1a"/>
        <path d="M161.91,398.26c.34.1.74,0,1.08.08-.37.7-1.18.93-1.08-.08Z" fill="#623d1a"/>
        <path d="M155.4,397.37c.33.02.69-.21,1.01-.16.19,1.13-.84,1.41-1.01.16Z" fill="#623d1a"/>
        <path d="M138.61,397.35c.32-.03.7.03,1.01-.05.17,1.2-1.18,1.35-1.01.05Z" fill="#623d1a"/>
        <path d="M152.54,396.48c.34.01.68.15,1.01.23-.04,1.09-1.33.73-1.01-.23Z" fill="#623d1a"/>
        <path d="M119.07,395.56c.33.11.69.11,1.01.24-.09.85-.76.25-1.01-.24Z" fill="#623d1a"/>
        <path d="M111.71,394.53l.99.12c-.36.7-1.11.84-.99-.12Z" fill="#623d1a"/>
        <path d="M136.9,200.46c.03-.37.82-.62,1.02-.93-.29.36-.62.68-1.02.93Z" fill="#623d1a"/>
        <path d="M143.41,387.2c-.42-.24-.55-.65-.11-.95l.11.95Z" fill="#623d1a"/>
        <path d="M357.16,327.81c-.45-.23-.75-.65-.95-1.11l.99.08c-.07.33-.05.69-.04,1.03Z" fill="#3a74a9"/>
        <path d="M86.61,338.99c-.32.02-.67-.06-.98-.06-.09-1.25,1.13-1.13.98.06Z" fill="#623d1a"/>
        <path d="M390.65,382.7c-.24-.83.36-.69.89-.76-.07.43-.46.73-.89.76Z" fill="#623d1a"/>
        <path d="M407.35,380.79c-.3-.12-.7-.08-1.02-.12-.09-1.25,1.24-.98,1.02.12Z" fill="#623d1a"/>
        <path d="M391.38,376.99c.35-.06.77.02,1.11-.1.21,1.16-1.19,1.34-1.11.1Z" fill="#623d1a"/>
        <path d="M141.58,377.91c-1.06.21-1.43-1.06-.14-.95.04.31.04.66.14.95Z" fill="#623d1a"/>
        <path d="M408.29,361.19l-.03-1.07c.84-.15.47.78.03,1.07Z" fill="#623d1a"/>
        <path d="M408.17,376c.02-.32.14-.64.14-.96,1.24-.09.95,1.29-.14.96Z" fill="#623d1a"/>
        <path d="M342.27,151.78c-2.39.38-4.24-.27-6.86-1.26-2.2-.84-16.92-.46-18.52,6.81-1.63.27-2.77-.19-4.51.52l5.74,5.52c2.4,4.28,1.38,7.79-1.1,11.43-3.34,4.89-6.68,5.45-11.85,6.03-.04-1.51.51-3.31-.74-4.79-11.27,3.6-12.08,1.47-21.61,1.05-2.26-1.9-5.51-2.93-8.46-4.44-2.36-5.31.04-10.06,4.83-13.08,9.48-5.99,20.89-6.3,32.02-1.89.96-12.55,23.76-11.34,31.08-5.89Z" fill="#f5c957"/>
        <path d="M261.31,206.94c-1.51-.4-4.24-.14-5.66.44-5.12-.78-10.38-2.59-14.44-6.62-3.53-3.5-4.52-9.81-2.1-14.21,5.43-9.85,14.94-9.75,23.37-13.4,6.9-.16,13.72,1.8,18.53,6.66,4.72,4.78,5.23,11.71.96,17.07-5.02,6.3-12.93,9.81-20.67,10.06ZM252.39,195.94c1.66,8.36,18.82,5.43,25.79-2.98,3-3.62-.39-14.48-4.8-12.28-10.36-5.85-24.11-2.77-28.93,8.33-.75,1.73-.16,4.08.82,4.73s2.36.57,3.95-.21c-1.43-3.47-.06-7.18,3.38-9.38,8.22-5.25,22.54-2.7,22.92,4.62.42,7.87-16.72,10.79-23.14,7.17Z" fill="#f5c957"/>
        <path d="M207.96,188.43c-4.82-1.24-9.53-1.28-13.6-3.26-3.78-1.85-3.24-9.04.04-11.97,16.64-14.87,42.86-7.38,44.56.79,1.7,8.21-17.24,17.99-31,14.45Z" fill="#f5c957"/>
        <path d="M342.27,151.78c2.87-.45,5.92,1.49,7.35,3.83-.03,1.69,1.26,2.67,2.4,4.44,2.43,3.74.73,10.27-3.3,12.34-7.07,3.63-13.8.47-22.02.5,7.56,4.73,17.09,4.3,25.12,1.1,5.47-2.18,8.54-7.19,8.14-12.6,1.68-.17,3.99-1.81,5.85-.04-2.29,5.64-2.89,14.58-4.78,16.6-8.65,3.34-17.91,4.79-27.12,5.86-.78-1.42-2.52-1.41-3.83-2.52,2.11-1.21,3.64-.37,5.7-.84-22.32-5.78-8.09-15.84-17.67-17.06l-5.74-5.52c1.74-.72,2.88-.25,4.51-.52,1.6-7.27,16.31-7.64,18.52-6.81,2.63,1,4.48,1.64,6.86,1.26ZM339.56,168.02c-.07-5.85-1.39-9.22-2.8-13.18-5.75-1.26-11.32-.71-15.94,3.03,3.16,7.23,10.94,12.03,18.74,10.15Z" fill="#f0b13b"/>
        <path d="M414.58,225.77c-1.42-.19-2.2-1.06-3.53-2.32-11.99-11.35-33.25-18.98-45.16-2.77-.82-1.54-.17-3.98,1.67-5.29l13.57-9.63c1.77-1.26,2.5-4.33,2.92-6.13l1.12-.04,2.5.03c-.08.92.02,2.07.78,2.43,1.04.5,2.06.37,2.97.41-.16,1.42-1.33,2.05-2.94,3.7,1.22,1.3,3.09,1.01,4.64.43l11.6-4.35c2.23-.84,3.62-2.46,3.7-4.48.28.05.69-.03.94.1,2.37,1.31,5.34,1.47,8.02,2.6,6.25,2.64,8.75,8.18,6.34,14.43-1.83,4.74-5.3,8-9.14,10.87ZM387.82,205.49c0-.26-.21-.46-.46-.46s-.46.21-.46.46.21.46.46.46.46-.21.46-.46ZM384.1,209.2c0-.26-.21-.46-.46-.46s-.46.21-.46.46.21.46.46.46.46-.21.46-.46Z" fill="#f5c957"/>
        <path d="M386.69,179c4.41,1.45,8.82,3.89,13.94,4.81,4.46.81,8.09,2.79,11.28,5.42.3,3.16-.02,6.52-2.54,8.65-.25-.14-.65-.06-.94-.1-.33-.06-.7-.28-1.03-.25.46-2.06,1.65-4.78.56-7.27-1-2.3-4.32-2.14-6.14-2.74-6.18-2.04-12.16-5.17-18.66-5.67-2.5-.19-1.88,2.87-2.88,4.56.68,1.76-4.97-11.16-7.17-6.96,4.43,6.45,7.44,13.47,10.95,20.2-.43,1.81-1.15,4.88-2.92,6.13l-13.57,9.63c-1.84,1.31-2.49,3.75-1.67,5.29,11.91-16.22,33.17-8.59,45.16,2.77,1.33,1.26,2.11,2.13,3.53,2.32-.04.7.75.97,1.03,1.44.39.67.47,1.55,1.11,2.1.08,1.97.93,3.87,2.77,4.72l.12.89c-2.35.53-6.63,4.34-11.28,5.1.08-.76.37-1.63.19-2.4l.64-.1c.91-.14,2.44-.71,2.67-1.76,1.07-4.95-2.07-7.57-4.49-10.21-8.27-9.01-26.41-17.21-36.18-5.72-1.25,1.47-3.5,3.3-3.82,4.75-.28,1.23-.75,3.53-1.22,4.72-.62,1.57-1.37,2.52-1.53,4.47-1,12.06,14.96,14.06,22.34,13.13-3.02,5.01-14.59,1.75-15.8,1.61-2.65-1.37-5.3-3.88-8.29-4.62-.68-3.05-.76-6.3-2.12-9.15-.18-.38-.04-1.25.04-1.67,1.02-5.62,3.48-6.55,1.93-10.42-.51-1.28.57-6.05-1.94-4.61-.26.15-.71-.13-1.01-.03,1.85-3.17-.65-7.13-4.19-8.93-4.55-2.31-10.13-2.95-15.04-2.32-.77-.88-1.98-1.28-2.99-1.84.92-.01,2.54-.31,2.66-1.63-2.59-1.61-2.79-5.08-1.44-7.57.88-1.62.83-3.14.03-5.3,1.84-.52,3.46-.13,4.7.91,1.66,1.4,1.43,6.77,3.07,8.01,1.01.77,2.87-1.07,4.01-.98,1.29,1.76,3.33,2.86,5.36,4.32,5.87,4.24,6.28,8.89,7.7,9.48,3.27,1.36,8.18-2.95,14.25-5.98,3.14-1.57,2.93-4.87,1.77-7.65-2.1-5.04-6.11-9.41-12.22-9.69.32-2.48.39-4.45-.85-6.24.81-.16,1.9.03,2.78-1.03-3.5-.87-6.73-.51-10.3.26l-20.56,4.47c-1.75.38-2.83.15-3.59,1.88-2.43,5.53,4.25,12.94.94,14.23-.74-.44-1.89-1.22-1.94-2.21-.3-5.89-3.15-11.33-1.6-14.92.49-.39,1.61-.62,1.66-1.52,9.2-1.07,18.47-2.52,27.12-5.86,1.31-.39,3.1.23,4.47.1-.05.43-.11,1.02.13,1.38.64.95,7.39,1.02,6.84-.59-1.43-1.09-2.77-.96-3.97-1.08-4.11-4.01,22.25,2.61,18.18,1.26Z" fill="#756f4e"/>
        <path d="M460.23,202.37c-13.68,6.98-16.61,7.8-32.65,6.57.11-1.02-.23-2.11.07-3.13,7.35,1.2,15.22,1.68,22.04-2.19,2.09-1.19,4-2.96,4.2-4.8,1.09-10.01-17.38-10.56-25.1-9-.81.16-1.21,1.15-1.57,1.21-.52.08-.57,2.14.38,2.05,5.99-.57,11.01-1.5,16.73.41,1.95.65,6.67,3.17,5.5,5.66-2.43,5.14-19.31,4.11-23.71,4.22l-6.25-4.56c-2.16-1.58-6.44-4.36-5.56-7.49,11.61-9.99,51.4-6.43,45.92,11.06Z" fill="#f5c957"/>
        <path d="M332.27,185.31c-1.56,3.59,1.29,9.03,1.6,14.92-9.77,4.83-20.16,8.49-31.61,7.18-.91-.1-1.9.72-1.77,1.2-4.66-2.15-10.49-3.86-11.97-10.69-2.97-13.64,34.06-20.5,43.76-12.62ZM298.58,196.65c1.69,1.01,18.88-5.4,17.72-8.28,2.99.47,8.2,1.36,8.36,5.6-5.34,4.52-13.56,2.98-20.21,3.79-.36,2.3,2.15,2.81,4.21,2.91.66,2.83-2.46,2.24-4.58,4.09,7.3,1.08,14.89-.35,21.58-4.39,2.98-1.8,5.94-7.63,2.55-10.33-9.4-7.48-23.73-5.81-32.58,1.66-2.17,1.83-2.22,4.91-.64,6.68,1.53-.28,2.47-1.23,3.58-1.75Z" fill="#f5c957"/>
        <path d="M144.15,213.43l3.78-1.06c-1.51-1.76-3.4-1.96-3.86-3.65,9.26.36,18.77.03,27.76-4.29-1.79-4.96-5.8-7.1-9.81-7.71-4.05-.62-7.48,1.45-10.66,4.27-2.71,2.4-6.73,3.59-7.49,6.99-.74.08-1.55.18-2.02-.15-2.55-1.81,2.12-8.72,6.61-11.52,1.6-1,2.2-2.63,2.26-4.11-8.6-.28,28.56-5.66,26.47,2.34-.99,3.81-2.25,7.23-2.61,11.19-.51,5.63-5.65,8.31-10.83,8.74-3.67.31-19.68,2.84-19.61-1.03Z" fill="#f0b13b"/>
        <path d="M340.49,206.78c4.92-.62,10.49.02,15.04,2.32,3.54,1.79,6.04,5.76,4.19,8.93-3.75,2.07-5.64,6.27-9.43,8.98-10.23,7.31-26.07,9.3-36.92,3.95-1.71-1.66-2.02-4.52-.6-7.01,5.85-10.31,16.37-15.74,27.72-17.18ZM351.8,219.87c1.64-1.76.17-4.98-.71-6.38-5.55-8.74-37.21,2.85-32.07,13.12,4.11,8.21,22.26,4.55,32.78-6.74Z" fill="#f5c957"/>
        <path d="M294.59,214.81c-.34-.27-.66-.32-.79.39,2.47,1.6,5.2,4.79,4.53,8.06-.74,3.57-4.56,4.98-7.19,6.55l12.06-1.63c-2.41,4.74-9.67,5.37-14.09,6.71-1.58.48-3.21,1.08-5.32.47l-.92-6.97c2.37-1.69,13.15-2.63,12.52-5.71-1.78-8.73-20.1-8.43-27.8-2.3-2.76-.12-4.94-1.47-7.3-1.9,8.32-9.75,23.91-9.86,34.31-3.68Z" fill="#f0b13b"/>
        <path d="M460.22,209.62l.02,1.87c-1.53,2.17-.9,4.98-1.11,7.51-5.34,1.66-9.88,5.6-15.59,5.72,1.14-2.18,4.03-1.64,5.83-4.08-7.9.75-14.4,1.48-21.87-.5,2.26,5.72-7.88,8.5-10.79,9.16-.64-.54-.72-1.43-1.11-2.1,4.94-2.11,7.97-6.64,10.61-11.9,6.68-.77,13.27.56,19.82-.56,5.26-.9,9.47-3.97,14.19-5.14ZM457.8,215.13c.69-1.15.13-1.62-.84-.97-2.61,1.5-5.51,1.72-8.28,4.3,2.97,2.82,7.36-.13,9.11-3.34Z" fill="#f0b13b"/>
        <path d="M266.6,165.28c-4.66,2.49-18.15-.33-27.35,3.15-2.71-1.66-5.22-3.03-7.89-5.15,8.78-10.14,26.84-5.9,35.24,2Z" fill="#f0b13b"/>
        <path d="M255.65,207.38c1.42-.58,4.15-.84,5.66-.44,9.09,2.39,17.7-2.88,24.33-10.72.48,7.56-6.57,12.08-12.64,13.01l-9.46,1.45c-3.81.58-6.61,2.27-11.56.75,2.25,2.2,4.7,1.58,7.52,2.55-.18,1.26-1.16,2.2-1.72,3.15-.69,0-1.4,0-2.09.06.47-4.54-18.23-5.36-21.54-16.92.01-1.21.5-2.15,1.22-3.6-2.34.38-3.89,1.05-5.74,1.04-.24,0-.49-.17-.73-.16.69-2.52,3.28-4.05,6.24-4.28,1.69,9.3,11.98,17.56,20.5,14.1Z" fill="#f0b13b"/>
        <path d="M282.86,228.4l-20.59-7.49c-1.46-.53-2.74-.78-2.9-2.3.29.02.63-.16.92-.11,2.36.42,4.54,1.78,7.3,1.9,7.7-6.13,26.02-6.43,27.8,2.3.63,3.08-10.15,4.02-12.52,5.71Z" fill="#f5c957"/>
        <path d="M360.75,233.09c-19.5,12.38-25.74,12.13-48.09,6.43-.06-1.39-.85-2.59-.34-4.73,9.97,8.41,32.27,5.13,43.23-3.47,3.21-2.51,4.08-6.57,7.12-8.66,1.55,3.87-.91,4.79-1.93,10.42Z" fill="#f0b13b"/>
        <path d="M427.65,205.81c-.96-.16-1.03-1.91-1.54-2.45,4.41-.11,21.29.92,23.71-4.22,1.18-2.49-3.55-5.01-5.5-5.66-5.72-1.91-10.73-.98-16.73-.41-.94.09-.9-1.97-.38-2.05.36-.05.76-1.04,1.57-1.21,7.72-1.56,26.19-1.01,25.1,9-.2,1.84-2.11,3.61-4.2,4.8-6.82,3.87-14.69,3.4-22.04,2.19Z" fill="#f0b13b"/>
        <path d="M360.73,218.06c-3.74,17.07-26.17,22.12-41.5,18.52-3.11-.73-5.53-3.05-5.85-5.61,10.85,5.35,26.69,3.36,36.92-3.95,3.79-2.71,5.68-6.91,9.43-8.98.29-.09.74.18,1.01.03Z" fill="#f0b13b"/>
        <path d="M359.97,161.37c.4,5.42-2.68,10.43-8.14,12.6-8.04,3.2-17.56,3.63-25.12-1.1,8.22-.03,14.95,3.13,22.02-.5,4.03-2.07,5.73-8.6,3.3-12.34-1.15-1.76-2.44-2.75-2.4-4.44l10.35,5.77Z" fill="#f5c957"/>
        <path d="M460.23,202.37c-.85,2.73-.89,5.26-4.24,7.01-11.08,5.79-29.07,5.69-28.41-.44,16.04,1.22,18.97.4,32.65-6.57Z" fill="#f0b13b"/>
        <path d="M333.86,200.24c.05.99,1.21,1.77,1.94,2.21.05.78.03,1.56-.03,2.34-8.06.85-19.23,11.23-35.29,3.83-.13-.48.86-1.3,1.77-1.2,11.45,1.3,21.84-2.35,31.61-7.18Z" fill="#f0b13b"/>
        <path d="M305.16,180.83c-2.69.3-14.83,7.4-17.03,4.01-1.71-2.63-3.04-5.83-5.32-7.75,9.53.42,10.34,2.55,21.61-1.05,1.26,1.48.7,3.29.74,4.79Z" fill="#f0b13b"/>
        <path d="M257.12,173.58l-14.66,4.52c-1.08-2.24-1.81-4.71-2.58-7.86,3.48-.6,17.86-1.78,19.46,1.05.57,1-.65,1.81-2.22,2.3Z" fill="#f0b13b"/>
        <path d="M303.19,228.19l-12.06,1.63c2.63-1.57,6.46-2.98,7.19-6.55.67-3.27-2.05-6.46-4.53-8.06.13-.7.45-.65.79-.39,3.25,1.21,7.51,1.56,10.14,4.61,2.27,2.64.4,6.69-1.54,8.76Z" fill="#f4da7d"/>
        <path d="M221.08,194.89c-2.44-.37-4.41.63-4.63-2.25,7-1.81,13.27-4.17,19.72-8.22-.45,7.73-7.86,11.56-15.09,10.46Z" fill="#f0b13b"/>
        <path d="M338.71,195.74c-1.35,2.49-1.15,5.97,1.44,7.57-.12,1.32-1.73,1.62-2.66,1.63-.38-.21-1.29-.19-1.72-.15.07-.78.08-1.56.03-2.34,3.31-1.29-3.37-8.69-.94-14.23,2.76,3.73,1.14,6.72,3.85,7.52Z" fill="#759ebd"/>
        <path d="M297.69,237.62c-.94-.14-2.49-.27-3.49-.21-.93-2.21,7.01-3.28,11.18-7.38,1.31,5.16-5.39,5.83-7.7,7.59Z" fill="#f0b13b"/>
        <path d="M189.36,185.87c.16.68-16.48,9.12-12.58,3.14-.07.11,11.33-4.73,12.58-3.14Z" fill="#f0b13b"/>
        <path d="M286.84,209.18c-1.93.37-3.69.23-5.71-.84,1.86-2.16,3.64-3.97,5.9-5.8.37,2.4-.18,4.3-.18,6.64Z" fill="#f0b13b"/>
        <path d="M310.65,239.46c-.28-.05-.58,0-.87-.01l-1.07-.07c-1.53.26-3.01-.8-4.48-.82,1.35-2.12,2.3-4.47,4.22-6.41,1.36,2.68,1.66,5.03,2.21,7.32Z" fill="#f0b13b"/>
        <path d="M368.5,177.73c1.19.12,2.54,0,3.97,1.08.55,1.61-6.2,1.54-6.84.59-.24-.36-.18-.95-.13-1.38.96-.09,2.05-.4,3-.3Z" fill="#a0c0d8"/>
        <path d="M408.52,237.62c.18.77-.11,1.64-.19,2.4l-2.67.43c-.42.07-.9-.09-1.42.07-.57.18-1.39.79-.79,1.54-2.35.47-4.97,1.19-7.33,1.27-2.53-5.13-15.31-2.12-22.23-6.87-3.08-2.12-5.76-4.35-9.3-2.67.16-1.96.91-2.91,1.53-4.47,8.91-.86,3.2-7.68,18.94-8.69,11.48-.73,20.94,6.13,23.47,17ZM403.52,235.28c-2.74-10.29-11.25-12.72-19.48-11.75-2.66-.01-5.15.54-6.34,2.51-6.45,10.74,19.74,10.11,25.81,9.24Z" fill="#759ebd"/>
        <path d="M396.11,243.33c-2.55,2.25-5.85,3.17-9.19,3.59-7.38.93-23.34-1.07-22.34-13.13,3.54-1.67,6.22.55,9.3,2.67,6.92,4.75,19.7,1.75,22.23,6.87Z" fill="#f5c957"/>
        <path d="M443.54,224.73c-.16.3-.64.65-.94.8.87-1.79-11.51-1.25-12.49-.43l-10.63,8.94c-1.84-.85-2.69-2.75-2.77-4.72,2.91-.67,13.05-3.44,10.79-9.16,7.47,1.98,13.97,1.25,21.87.5-1.8,2.44-4.69,1.9-5.83,4.08Z" fill="#be7c2f"/>
        <path d="M362.82,243.91c-2.68.99-6.18.58-8.47,2.25-3.7-.82-7.93.49-11.99-2.02,6.96-1.92,13.5-4.31,18.35-9.38,1.35,2.84,1.44,6.1,2.12,9.15Z" fill="#be7c2f"/>
        <path d="M442.6,225.52c-7.45,3.65-14.89,7.57-23,9.4l-.12-.89,10.63-8.94c.97-.82,13.36-1.36,12.49.43Z" fill="#f5c957"/>
        <path d="M459.13,219.01c.21-2.54-.42-5.34,1.11-7.51l12.3,2.29c-4.36,2.32-8.89,3.82-13.42,5.22Z" fill="#be7c2f"/>
        <path d="M362.82,243.91c2.99.74,5.64,3.25,8.29,4.62-5.63-.62-11.23-1.15-16.77-2.37,2.3-1.67,5.79-1.27,8.47-2.25Z" fill="#f5c957"/>
        <path d="M405.65,240.45c.57.75-.2,1.37-.78,1.57-.52.18-1.03-.04-1.43.04-.6-.75.22-1.35.79-1.54.52-.17,1,0,1.42-.07Z" fill="#756f4e"/>
        <path d="M308.71,239.39l1.07.07c.19,1.01-.85.64-1.07-.07Z" fill="#be7c2f"/>
        <path d="M260.4,246.76c-.08,5.03.51,14.79-.03,20.41-2.46,25.89-11.57,37.62-35.01,47.91-14.63-9.38-24.62-19.48-30.66-34.77-3.97-13.73-4.94-30.04-4.82-45.04,12.1-1.24,22.76-4.28,33.41-8.86,2.47.6,4.02,2.25,6.13,3.25,8.88,6.69,18.8,10.82,29.65,12.8.86.98,1.34,3.27,1.32,4.3ZM256.71,245.39c-6.94-1.77-12.9-3.72-18.94-6.8l-15.57-8.77c-9.18,4.79-18.16,7.05-29.16,8,1.05,12.06.59,24.16,3.4,35.94,3.9,16.3,15.5,28.54,29.04,37.4,32.73-14.4,31.61-34.03,31.23-65.77Z" fill="#623d1a"/>
        <path d="M194.71,280.31c6.04,15.29,16.03,25.39,30.66,34.77,23.44-10.29,32.54-22.02,35.01-47.91.54-5.63-.06-15.38.03-20.41,5.32,2.25,2.34,25.25,1.34,31.1-1.44,8.44-4.24,17.84-10.84,23.32-3.22,2.67-5.59,5.75-8.81,8.05-5.23,3.73-10.96,6.11-16.6,9.4-2.41-3.27-4.76-4.93-7.79-6.63-10.02-5.63-17.26-14.75-21.01-25.46-.81-2.31-2.89-3.96-1.98-6.23Z" fill="#f5c957"/>
        <path d="M259.53,230.02c-.51,1.46.04,2.5,1.61,2.87,1.16.27,2.37.18,3.12-1.03h1.77c-.23.57-.55,1.69.21,2.32.55.46,1.73.31,2.62.27l.15,2.32c-5.38-3.28-6.84,2.13-14.88-5.96l1.52.02c.78.01,1.41-.28,2.02-.7.53-.13,1.3-.11,1.86-.1Z" fill="#f4da7d"/>
        <path d="M255.83,228.9l-.18,1.91-1.52-.02c-.35,0-.72.06-1.07.01-.61-.93-1.75-1.29-2.78-1.57l.09-2.71c1.99.44,4.04.88,5.48,2.37Z" fill="#623d1a"/>
        <path d="M247.44,227.45c.9.64,1.72,1.47,2.83,1.78,1.03.29,2.17.64,2.78,1.57-2.99-.4-7.3-.38-8.43-3.52l2.81.16Z" fill="#f4da7d"/>
        <path d="M129.55,375.12c-2.13-3.96-5.58-8.14-8.52-12.13-7.17-9.72-18.99-14.52-30.98-16.35.08,9.8,0,18.18.11,26.82-.26.52-1.25.14-1.61-.43-.1-11.04-.39-21.74.91-32.3,19.01.69,35.49,16.33,40.1,34.39Z" fill="#f5c957"/>
        <path d="M90.38,384.6c-1.47-1.64-1.47-4.17-.16-5.91,1.66,1.29,1.58,4.47.16,5.91Z" fill="#f5c957"/>
        <path d="M105.34,267.36l5.79,75.09c-5.11-3.01-9.71-4.58-14.36-6.45l-.86-2.42c4.18.48,7.61,2.86,12.24,4.73-1.23-23.11-6.2-47.75-5.27-69.99.04-1.04,1.93-.8,2.46-.95Z" fill="#f5c957"/>
        <path d="M189.75,207.43c7.71,6.37,16.59,3.06,17.53,4.59,1.7,2.75-10.98,5.03-20.99-2.55-3.98-3.01-3.79-8.41.06-11.85,8.4-7.49,27.42-5.87,27.59,5.21-7.73-6.37-16.84-8.56-24.76-3.12-1.26.86-1.69,2.76-1.82,3.9-.16,1.34.9,2.58,2.4,3.82Z" fill="#f0b13b"/>
        <path d="M234.16,200.28l-2.99-.06c-1.24-.03-1.82-1.12-1.54-2.49,1.85,0,3.4-.66,5.74-1.04-.71,1.45-1.21,2.39-1.22,3.6Z" fill="#be7c2f"/>
        <path d="M270.91,282.24c-1.55,4.61-1.97,9.85-5.16,11.12.37-4.46,3.01-8.2,4.3-13.09,1,.47.5,1.33.86,1.97Z" fill="#4e311b"/>
        <path d="M264.52,297.04c-1.47.23-1.35-.73-.53-1.59.31-.32.57-.83,1.11-1.2,1.24-.15.92,1.08.55,1.81-.18.36-.9.64-1.14.98Z" fill="#4e311b"/>
        <path d="M264.26,231.85c-.76,1.21-1.96,1.3-3.12,1.03-1.57-.36-2.11-1.4-1.61-2.87,1.75.01,3.79.2,4.73,1.83Z" fill="#4e311b"/>
        <path d="M268.93,232.17c.05.76-.12,1.51-.07,2.26-.89.04-2.06.19-2.62-.27-.76-.63-.44-1.74-.21-2.31.98,0,1.95.06,2.9.31Z" fill="#4e311b"/>
        <path d="M250.36,226.53l-.09,2.71c-1.11-.31-1.93-1.14-2.83-1.78l.13-1.27c.93.08,1.87.14,2.78.34Z" fill="#4e311b"/>
        <path d="M257.67,230.12c-.61.42-1.23.71-2.02.7l.18-1.91c.45.47,1.63.35,1.84,1.21Z" fill="#4e311b"/>
        <path d="M144.08,208.71l-.2-.74c.76-3.4,4.79-4.59,7.49-6.99,3.18-2.82,6.61-4.9,10.66-4.27,4.01.62,8.02,2.76,9.81,7.71-8.99,4.32-18.5,4.65-27.76,4.29Z" fill="#f5c957"/>
        <path d="M252.39,195.94c6.42,3.62,23.56.7,23.14-7.17-.39-7.32-14.7-9.88-22.92-4.62-3.44,2.2-4.81,5.91-3.38,9.38-1.58.78-2.95.87-3.95.21s-1.57-3-.82-4.73c4.81-11.1,18.57-14.18,28.93-8.33,4.41-2.2,7.8,8.65,4.8,12.28-6.97,8.41-24.13,11.34-25.79,2.98Z" fill="#f0b13b"/>
        <path d="M339.56,168.02c-7.8,1.88-15.58-2.92-18.74-10.15,4.62-3.74,10.19-4.29,15.94-3.03,1.41,3.96,2.73,7.33,2.8,13.18Z" fill="#f5c957"/>
        <path d="M407.39,197.51c.33-.03.71.2,1.03.25-.08,2.02-1.47,3.64-3.7,4.48l-11.6,4.35c-1.55.58-3.42.86-4.64-.43,1.61-1.65,2.78-2.28,2.94-3.7,1.35-.48,2.1-1.78,1.79-3.19.32-.02.65-.02.96.01,4.49.45,8.76-1.43,13.21-1.78Z" fill="#f4da7d"/>
        <path d="M383.16,181.83c2.46,6.43-1.04,7.7,2.96,14.76-.65.87-.9,1.93-.94,3l-1.12.04c.51-2.18-.13-5.05-1.58-6.97-1.62-2.14-1.46-4.36-2.19-6.27,1-1.7.38-4.76,2.88-4.56Z" fill="#759ebd"/>
        <path d="M394.34,193.91c.91,1.69-.07,3.56-.16,5.37-.32-.03-.65-.03-.96-.01l-5.54.35-2.5-.03c.04-1.07.28-2.14.94-3l8.22-2.68Z" fill="#756f4e"/>
        <path d="M393.22,199.27c.31,1.4-.44,2.71-1.79,3.19-.91-.04-1.92.09-2.97-.41-.75-.36-.86-1.51-.78-2.43l5.54-.35Z" fill="#759ebd"/>
        <circle cx="383.63" cy="209.2" r=".46" fill="#756f4e"/>
        <circle cx="387.35" cy="205.49" r=".46" fill="#756f4e"/>
        <path d="M366.53,182.64c1.24,1.78,1.17,3.76.85,6.24,6.12.28,10.12,4.65,12.22,9.69,1.16,2.78,1.37,6.08-1.77,7.65-6.07,3.03-10.98,7.34-14.25,5.98-1.43-.6-1.84-5.24-7.7-9.48-2.03-1.46-4.07-2.56-5.36-4.32-.18-6.64,6.51-8.02,2.06-11.03,4.53-1.84,9.09-3.78,13.94-4.71Z" fill="#759ebd"/>
        <path d="M407.34,225.56c-.36,3.19,5.42,8.69,1.82,11.97l-.64.1c-2.52-10.86-11.99-17.73-23.47-17-15.74,1.01-10.03,7.82-18.94,8.69.47-1.19.94-3.49,1.22-4.72,1.11-.22,2.36-.55,3.03-1.31.91-1.03.9-2.3.79-3.44,9.77-11.49,27.92-3.29,36.18,5.72Z" fill="#a0c0d8"/>
        <path d="M338.45,186.34c.34,2.96,11.96.92,14.13,1.01,4.45,3.01-2.24,4.39-2.06,11.03-1.15-.09-3,1.75-4.01.98-1.64-1.24-1.41-6.61-3.07-8.01-1.23-1.04-2.85-1.43-4.7-.91.8,2.16.84,3.68-.03,5.3-2.7-.8-1.08-3.79-3.85-7.52.76-1.72,1.83-1.5,3.59-1.88Z" fill="#516e89"/>
        <path d="M409.16,237.52c3.6-3.28-2.18-8.77-1.82-11.97,2.42,2.64,5.55,5.26,4.49,10.21-.23,1.05-1.76,1.62-2.67,1.76Z" fill="#759ebd"/>
        <path d="M367.33,224.59c.33-1.45,2.57-3.28,3.82-4.75.11,1.15.11,2.41-.79,3.44-.67.76-1.92,1.09-3.03,1.31Z" fill="#759ebd"/>
        <path d="M316.3,188.37c-7.07-1.11-15.39,1.17-17.72,8.28-1.1.52-2.05,1.46-3.58,1.75-1.58-1.77-1.53-4.85.64-6.68,8.86-7.47,23.18-9.15,32.58-1.66,3.39,2.7.43,8.53-2.55,10.33-6.69,4.04-14.29,5.47-21.58,4.39,2.12-1.85,5.24-1.27,4.58-4.09-2.06-.1-4.58-.62-4.21-2.91,6.65-.82,14.88.73,20.21-3.79-.16-4.24-5.37-5.13-8.36-5.6Z" fill="#f0b13b"/>
        <path d="M316.3,188.37c1.16,2.88-16.03,9.28-17.72,8.28,2.33-7.11,10.65-9.39,17.72-8.28Z" fill="#f4da7d"/>
        <path d="M401.82,187.5c-.11,3-5.68,4.04-7.48,6.41l-8.22,2.68c-4.01-7.06-.5-8.33-2.96-14.76,6.5.5,12.48,3.63,18.66,5.67Z" fill="#a0c0d8"/>
        <path d="M407.39,197.51c-4.45.35-8.73,2.23-13.21,1.78.09-1.82,1.07-3.68.16-5.37,1.8-2.37,7.36-3.41,7.48-6.41,1.83.6,5.14.44,6.14,2.74,1.08,2.49-.11,5.2-.56,7.27Z" fill="#759ebd"/>
        <path d="M366.53,182.64c-4.85.93-9.41,2.87-13.94,4.71-2.17-.09-13.79,1.95-14.13-1.01l20.56-4.47c3.57-.78,6.8-1.14,10.3-.26-.88,1.06-1.97.87-2.78,1.03Z" fill="#a0c0d8"/>
        <path d="M380.28,186.39c.74,1.91.58,4.13,2.19,6.27,1.46,1.92,2.1,4.8,1.58,6.97-3.51-6.73-6.52-13.75-10.95-20.2,2.2-4.2,7.85,8.73,7.17,6.96Z" fill="#a0c0d8"/>
        <path d="M351.8,219.87c-10.52,11.29-28.67,14.94-32.78,6.74-5.14-10.27,26.52-21.86,32.07-13.12.89,1.4,2.36,4.62.71,6.38ZM323.18,227.24c9.48,4.49,21.03-1.48,26.88-9.21-6.48-7.52-17.41-3.37-22.78,2.28-1.56,1.64-7.65,4.87-4.09,6.93Z" fill="#f0b13b"/>
        <path d="M457.8,215.13c-1.76,3.21-6.14,6.16-9.11,3.34,2.77-2.58,5.66-2.8,8.28-4.3.97-.66,1.52-.19.84.97Z" fill="#be7c2f"/>
        <path d="M403.52,235.28c-6.07.87-32.26,1.5-25.81-9.24,1.18-1.97,3.67-2.53,6.34-2.51,8.22-.96,16.73,1.46,19.48,11.75Z" fill="#a0c0d8"/>
        <path d="M256.71,245.39c.38,31.74,1.5,51.37-31.23,65.77-13.53-8.86-25.14-21.1-29.04-37.4-2.82-11.78-2.35-23.88-3.4-35.94,11-.95,19.98-3.2,29.16-8l15.57,8.77c6.03,3.08,11.99,5.02,18.94,6.8ZM223.08,300.45c.04-6.54-.33-12.81-.43-19.46l-.67-45.99c-7.9,4.09-14.81,6.05-22.81,6.39-.16,19.84-1.7,27.54,8.16,44.51,3.8,6.54,8.17,11.87,15.76,14.54Z" fill="#f0b13b"/>
        <path d="M323.18,227.24c-3.56-2.06,2.54-5.29,4.09-6.93,5.37-5.65,16.31-9.8,22.78-2.28-5.85,7.73-17.4,13.7-26.88,9.21Z" fill="#f5c957"/>
        <path d="M223.08,300.45c-7.58-2.67-11.96-8-15.76-14.54-9.85-16.98-8.32-24.67-8.16-44.51,8-.34,14.92-2.3,22.81-6.39l.67,45.99c.1,6.64.47,12.92.43,19.46Z" fill="#f4da7d"/>
      </g>
    </g>
  </g>
</svg>