<?xml version="1.0" encoding="UTF-8"?>
<svg id="Layer_2" data-name="Layer 2" xmlns="http://www.w3.org/2000/svg" viewBox="0 0 227.09 64.61">
  <g id="Layer_1-2" data-name="Layer 1">
    <g opacity=".5">
      <rect x=".5" y=".52" width="226.09" height="63.57" rx="8.28" ry="8.28" fill="#1a2a3d"/>
      <path d="M218.46,64.61H8.63c-4.76,0-8.63-4.01-8.63-8.95V8.95C0,4.01,3.87,0,8.63,0h209.83c4.76,0,8.63,4.01,8.63,8.95v46.72c0,4.93-3.87,8.95-8.63,8.95ZM8.63,1.04C4.42,1.04,1,4.58,1,8.95v46.72c0,4.36,3.42,7.91,7.63,7.91h209.83c4.21,0,7.63-3.55,7.63-7.91V8.95c0-4.36-3.42-7.91-7.63-7.91H8.63Z" fill="#7dabe2"/>
    </g>
    <g>
      <path d="M63.94,34.11c-.13,1.9-.81,3.4-2.03,4.5-1.22,1.09-2.83,1.64-4.83,1.64-2.19,0-3.91-.76-5.16-2.29-1.25-1.53-1.88-3.62-1.88-6.29v-1.08c0-1.7.29-3.2.87-4.5s1.4-2.29,2.48-2.98,2.32-1.04,3.74-1.04c1.97,0,3.55.55,4.76,1.64s1.9,2.63,2.09,4.6h-3.52c-.09-1.14-.39-1.97-.92-2.48s-1.33-.77-2.41-.77c-1.17,0-2.05.44-2.63,1.31-.58.87-.88,2.22-.9,4.05v1.34c0,1.91.28,3.31.84,4.19s1.44,1.32,2.64,1.32c1.09,0,1.9-.26,2.43-.77s.84-1.31.92-2.39h3.52Z" fill="#fff"/>
      <path d="M64.3,33.31c0-1.3.24-2.47.73-3.49s1.18-1.81,2.09-2.37c.91-.56,1.97-.84,3.17-.84,1.71,0,3.11.54,4.19,1.63,1.08,1.09,1.69,2.56,1.81,4.42l.02.9c0,2.02-.54,3.63-1.63,4.85-1.09,1.22-2.54,1.83-4.37,1.83s-3.29-.61-4.38-1.82-1.63-2.87-1.63-4.96v-.16ZM67.69,33.56c0,1.25.23,2.21.68,2.87s1.1.99,1.95.99,1.46-.33,1.92-.98.69-1.7.69-3.13c0-1.23-.23-2.17-.69-2.85-.46-.67-1.11-1.01-1.95-1.01s-1.47.33-1.92,1-.68,1.71-.68,3.11Z" fill="#fff"/>
      <path d="M80.32,26.86l.11,1.52c.91-1.17,2.12-1.76,3.64-1.76,1.34,0,2.34.41,3,1.23s.99,2.04,1.01,3.67v8.49h-3.39v-8.41c0-.75-.16-1.29-.47-1.62s-.83-.5-1.56-.5c-.95,0-1.67.42-2.14,1.26v9.27h-3.39v-13.15h3.19Z" fill="#fff"/>
      <path d="M90.37,40v-10.57h-1.89v-2.58h1.89v-1.12c0-1.47.41-2.62,1.22-3.43.82-.81,1.96-1.22,3.43-1.22.47,0,1.04.08,1.72.24l-.04,2.72c-.28-.07-.62-.11-1.03-.11-1.27,0-1.91.62-1.91,1.86v1.06h2.52v2.58h-2.52v10.57h-3.4Z" fill="#fff"/>
      <path d="M96.82,23.46c0-.53.17-.96.51-1.3.34-.34.8-.51,1.39-.51s1.04.17,1.38.51c.34.34.52.77.52,1.3s-.17.97-.52,1.31c-.35.34-.81.51-1.38.51s-1.03-.17-1.38-.51c-.35-.34-.52-.78-.52-1.31ZM100.42,40h-3.4v-13.15h3.4v13.15Z" fill="#fff"/>
      <path d="M101.51,33.33c0-2.02.46-3.64,1.39-4.87.93-1.23,2.17-1.85,3.74-1.85,1.39,0,2.47.49,3.25,1.48l.14-1.24h3.07v12.71c0,1.15-.25,2.15-.76,3s-1.21,1.5-2.13,1.94c-.91.45-1.98.67-3.21.67-.93,0-1.84-.19-2.72-.58s-1.55-.88-2-1.49l1.5-2.14c.84.98,1.87,1.47,3.07,1.47.9,0,1.6-.25,2.1-.75.5-.5.75-1.2.75-2.12v-.71c-.78.92-1.81,1.37-3.08,1.37-1.52,0-2.76-.62-3.7-1.85-.94-1.24-1.41-2.87-1.41-4.92v-.15ZM104.9,33.6c0,1.19.23,2.13.69,2.8.46.68,1.09,1.02,1.9,1.02,1.03,0,1.77-.4,2.21-1.2v-5.54c-.45-.8-1.18-1.2-2.19-1.2-.81,0-1.45.34-1.92,1.03s-.7,1.72-.7,3.09Z" fill="#fff"/>
      <path d="M122.1,38.67c-.84,1.05-1.99,1.58-3.47,1.58-1.36,0-2.4-.41-3.11-1.21-.71-.81-1.08-2-1.1-3.56v-8.61h3.39v8.5c0,1.37.6,2.06,1.8,2.06s1.94-.41,2.37-1.24v-9.32h3.4v13.15h-3.19l-.09-1.34Z" fill="#fff"/>
      <path d="M133.86,30.15c-.46-.06-.87-.1-1.22-.1-1.28,0-2.12.45-2.52,1.35v8.6h-3.39v-13.15h3.2l.09,1.57c.68-1.21,1.62-1.81,2.82-1.81.38,0,.73.05,1.05.16l-.05,3.38Z" fill="#fff"/>
      <path d="M141.28,40c-.16-.32-.27-.71-.34-1.18-.82.95-1.89,1.42-3.2,1.42-1.24,0-2.27-.37-3.09-1.12s-1.22-1.68-1.22-2.82c0-1.39.5-2.46,1.49-3.21s2.44-1.12,4.32-1.13h1.56v-.75c0-.61-.15-1.09-.45-1.46-.3-.36-.78-.55-1.42-.55-.57,0-1.02.14-1.34.42s-.49.67-.49,1.17h-3.39c0-.76.23-1.47.68-2.11.45-.65,1.09-1.16,1.92-1.53.83-.37,1.76-.55,2.79-.55,1.56,0,2.8.41,3.72,1.22.92.81,1.38,1.96,1.38,3.43v5.7c0,1.25.18,2.19.5,2.83v.21h-3.42ZM138.48,37.56c.5,0,.96-.12,1.38-.35.42-.23.73-.54.94-.93v-2.26h-1.27c-1.7,0-2.6.61-2.71,1.82v.21c-.01.44.14.8.43,1.08s.7.42,1.22.42Z" fill="#fff"/>
      <path d="M150.88,37.42c.62,0,1.13-.18,1.52-.53s.59-.83.61-1.42h3.18c0,.89-.24,1.71-.7,2.45s-1.09,1.32-1.89,1.73c-.8.41-1.69.61-2.65.61-1.81,0-3.24-.6-4.29-1.79s-1.57-2.84-1.57-4.95v-.23c0-2.03.52-3.64,1.56-4.85s2.46-1.81,4.28-1.81c1.59,0,2.86.47,3.81,1.4s1.44,2.18,1.46,3.74h-3.18c-.02-.68-.22-1.24-.61-1.67-.39-.43-.91-.64-1.55-.64-.79,0-1.38.3-1.79.89-.4.6-.6,1.56-.6,2.9v.37c0,1.35.2,2.33.6,2.92.4.59,1,.89,1.82.89ZM152.11,39.93l-.13.71c1.17.22,1.76.92,1.76,2.1,0,.89-.36,1.6-1.07,2.11s-1.72.78-3.02.78l-.08-2.03c.88,0,1.31-.33,1.31-.98,0-.34-.13-.57-.39-.7-.26-.12-.69-.21-1.27-.25l.36-1.74h2.53Z" fill="#fff"/>
      <path d="M156.39,33.31c0-1.3.24-2.47.73-3.49s1.18-1.81,2.09-2.37c.91-.56,1.97-.84,3.17-.84,1.71,0,3.11.54,4.19,1.63,1.08,1.09,1.69,2.56,1.81,4.42l.02.9c0,2.02-.54,3.63-1.63,4.85-1.09,1.22-2.54,1.83-4.37,1.83s-3.29-.61-4.38-1.82-1.63-2.87-1.63-4.96v-.16ZM166.77,21.5c0,.92-.26,1.68-.77,2.3-.52.62-1.14.93-1.89.93-.3,0-.56-.03-.79-.1-.23-.07-.55-.22-.96-.44s-.7-.37-.88-.42-.38-.08-.59-.08c-.27,0-.51.1-.7.3s-.29.49-.29.86l-1.97-.12c0-.9.26-1.67.77-2.3.51-.63,1.14-.95,1.88-.95.23,0,.46.03.66.09.21.06.54.21,1.01.44.47.23.79.38.97.42s.37.07.56.07c.27,0,.51-.1.71-.3s.3-.48.3-.86l1.96.13ZM159.78,33.56c0,1.25.23,2.21.68,2.87s1.1.99,1.95.99,1.46-.33,1.92-.98.69-1.7.69-3.13c0-1.23-.23-2.17-.69-2.85-.46-.67-1.11-1.01-1.95-1.01s-1.47.33-1.92,1-.68,1.71-.68,3.11Z" fill="#fff"/>
      <path d="M175.12,40.25c-1.86,0-3.37-.59-4.54-1.77-1.17-1.18-1.75-2.76-1.75-4.73v-.34c0-1.32.25-2.5.74-3.54s1.19-1.84,2.09-2.41c.9-.56,1.93-.84,3.09-.84,1.73,0,3.1.57,4.1,1.7s1.49,2.74,1.49,4.82v1.43h-8.07c.11.86.44,1.55.99,2.07s1.25.78,2.09.78c1.3,0,2.32-.49,3.06-1.47l1.66,1.93c-.51.75-1.2,1.33-2.06,1.74s-1.83.63-2.88.63ZM174.74,29.45c-.67,0-1.22.24-1.63.71s-.69,1.15-.8,2.03h4.71v-.28c-.02-.78-.22-1.39-.61-1.81s-.95-.64-1.66-.64Z" fill="#fff"/>
      <path d="M187.93,36.37c0-.43-.21-.77-.62-1.01s-1.07-.47-1.97-.66c-3.02-.66-4.52-1.98-4.52-3.98,0-1.17.47-2.14,1.4-2.92.93-.78,2.15-1.17,3.66-1.17,1.61,0,2.9.39,3.86,1.18.96.79,1.45,1.81,1.45,3.06h-3.39c0-.5-.16-.92-.47-1.25s-.8-.49-1.46-.49c-.57,0-1.01.13-1.32.4-.31.27-.47.61-.47,1.02,0,.39.18.7.53.94.36.24.96.45,1.8.62.84.17,1.55.37,2.13.59,1.79.68,2.68,1.86,2.68,3.54,0,1.2-.5,2.17-1.49,2.91-.99.74-2.27,1.11-3.84,1.11-1.06,0-2.01-.2-2.83-.59-.82-.39-1.47-.93-1.94-1.62s-.7-1.42-.7-2.22h3.21c.03.62.25,1.1.67,1.43.41.33.97.5,1.66.5.65,0,1.14-.13,1.47-.38.33-.26.5-.59.5-1Z" fill="#fff"/>
    </g>
  </g>
</svg>