<?xml version="1.0" encoding="UTF-8"?>
<svg id="Layer_2" data-name="Layer 2" xmlns="http://www.w3.org/2000/svg" viewBox="0 0 59.09 59.08">
  <g id="Layer_1-2" data-name="Layer 1">
    <g>
      <path d="M59.09,29.54c0,16.31-13.23,29.54-29.55,29.54S0,45.85,0,29.54,13.23,0,29.55,0s29.55,13.23,29.55,29.54ZM56.45,29.52c0-14.86-12.05-26.9-26.9-26.9S2.64,14.67,2.64,29.52s12.05,26.9,26.9,26.9,26.9-12.04,26.9-26.9Z" fill="#ecb529"/>
      <path d="M56.45,29.52c0,14.86-12.05,26.9-26.9,26.9S2.64,44.38,2.64,29.52,14.68,2.62,29.54,2.62s26.9,12.04,26.9,26.9ZM31.38,46.09c.75,0,1.16-.55,1.28-1.16l.54-2.82c.96-.28,1.89-.91,2.82-1.07,1.51.57,2.85,2.65,4.24,1.4.83-.75,1.64-1.52,2.39-2.35.47-.52.5-1.23.12-1.81l-1.64-2.48,1.07-2.66,2.61-.51c.81-.16,1.37-.67,1.43-1.52.07-1.08.08-2.16,0-3.24-.06-.8-.56-1.33-1.32-1.48l-2.68-.52c-.24-.93-.91-1.85-1.04-2.78.51-1.38,2.68-2.77,1.4-4.19-.74-.82-1.55-1.59-2.37-2.36-.47-.45-1.14-.56-1.69-.19l-2.47,1.67-2.85-1.25c-.57-1.31-.17-3.8-1.93-3.89-1.09-.05-2.18-.03-3.28-.01-.8.01-1.39.52-1.55,1.27l-.56,2.62-2.83,1.24-2.45-1.64c-.49-.33-1.12-.27-1.58.12-.88.73-1.67,1.51-2.44,2.35-.52.56-.61,1.3-.19,1.93l1.64,2.47c-.53.83-.65,1.96-1.24,2.65-1.18.53-3.7.12-3.84,1.87-.1,1.16-.11,2.32,0,3.48.06.71.49,1.23,1.19,1.36l2.78.53,1.1,2.74-1.57,2.28c-.44.64-.48,1.36.06,1.97.79.88,1.67,1.68,2.58,2.47,1.26,1.1,2.65-.95,4.1-1.56.92.49,1.83.75,2.77,1.13l.48,2.7c.13.74.61,1.29,1.41,1.29l3.51-.02Z" fill="#276da5"/>
      <path d="M31.38,46.09l-3.51.02c-.81,0-1.28-.55-1.41-1.29l-.48-2.7c-.94-.38-1.86-.64-2.77-1.13-1.46.61-2.84,2.66-4.1,1.56-.9-.78-1.78-1.58-2.58-2.47-.55-.61-.5-1.33-.06-1.97l1.57-2.28-1.1-2.74-2.78-.53c-.7-.13-1.12-.65-1.19-1.36-.1-1.16-.09-2.32,0-3.48.15-1.75,2.67-1.34,3.84-1.87.59-.69.71-1.82,1.24-2.65l-1.64-2.47c-.42-.63-.32-1.37.19-1.93.78-.83,1.57-1.61,2.44-2.35.46-.39,1.09-.44,1.58-.12l2.45,1.64,2.83-1.24.56-2.62c.16-.75.75-1.26,1.55-1.27,1.1-.02,2.19-.04,3.28.01,1.76.09,1.36,2.58,1.93,3.89l2.85,1.25,2.47-1.67c.55-.37,1.21-.25,1.69.19.82.77,1.63,1.54,2.37,2.36,1.28,1.41-.89,2.81-1.4,4.19.12.93.79,1.85,1.04,2.78l2.68.52c.76.15,1.26.68,1.32,1.48.08,1.08.07,2.16,0,3.24-.06.85-.62,1.36-1.43,1.52l-2.61.51-1.07,2.66,1.64,2.48c.38.58.35,1.29-.12,1.81-.75.84-1.56,1.61-2.39,2.35-1.39,1.25-2.73-.82-4.24-1.4-.93.16-1.86.79-2.82,1.07l-.54,2.82c-.12.61-.53,1.16-1.28,1.16ZM36.81,29.47c0-4.02-3.26-7.27-7.27-7.27s-7.27,3.26-7.27,7.27,3.26,7.27,7.27,7.27,7.27-3.26,7.27-7.27Z" fill="#fcfdfd"/>
      <circle cx="29.54" cy="29.47" r="7.27" fill="#276da5"/>
    </g>
  </g>
</svg>