<?xml version="1.0" encoding="UTF-8"?>
<svg id="Layer_2" data-name="Layer 2" xmlns="http://www.w3.org/2000/svg" viewBox="0 0 260.06 228.52">
  <g id="Layer_1-2" data-name="Layer 1">
    <rect x=".5" y=".5" width="259.06" height="227.52" rx="16.76" ry="16.76" fill="#1a2a3d" stroke="#7dabe2" stroke-miterlimit="10"/>
    <g>
      <path d="M28.38,50.08v-14.93h4.21c1.3,0,2.45.29,3.45.86s1.77,1.39,2.31,2.45c.54,1.06.82,2.28.83,3.65v.95c0,1.41-.27,2.64-.82,3.7-.54,1.06-1.32,1.87-2.33,2.44-1.01.57-2.18.86-3.52.87h-4.13ZM30.34,36.76v11.71h2.07c1.52,0,2.7-.47,3.54-1.42.84-.94,1.27-2.29,1.27-4.03v-.87c0-1.7-.4-3.02-1.19-3.96-.8-.94-1.93-1.42-3.39-1.43h-2.3Z" fill="#fff"/>
      <path d="M46.45,50.28c-1.5,0-2.73-.49-3.67-1.48-.94-.99-1.42-2.31-1.42-3.96v-.35c0-1.1.21-2.08.63-2.95.42-.87,1.01-1.54,1.76-2.03.76-.49,1.57-.73,2.46-.73,1.44,0,2.56.48,3.36,1.42.8.95,1.2,2.31,1.2,4.08v.79h-7.52c.03,1.09.35,1.98.96,2.65.61.67,1.39,1.01,2.33,1.01.67,0,1.24-.14,1.7-.41.46-.27.87-.63,1.22-1.09l1.16.9c-.93,1.43-2.32,2.14-4.18,2.14ZM46.22,40.33c-.77,0-1.41.28-1.93.84-.52.56-.84,1.34-.96,2.34h5.56v-.14c-.05-.96-.31-1.71-.78-2.24-.46-.53-1.09-.79-1.89-.79Z" fill="#fff"/>
      <path d="M59.43,47.13c0-.51-.19-.91-.58-1.19-.39-.28-1.06-.53-2.02-.73s-1.72-.45-2.29-.74c-.56-.29-.98-.63-1.25-1.03-.27-.4-.41-.87-.41-1.41,0-.91.38-1.68,1.15-2.31.77-.63,1.75-.94,2.95-.94,1.26,0,2.28.33,3.06.97.78.65,1.17,1.48,1.17,2.49h-1.91c0-.52-.22-.97-.66-1.34-.44-.38-1-.56-1.67-.56s-1.23.15-1.62.45-.58.69-.58,1.18c0,.46.18.8.54,1.04s1.02.46,1.96.67c.95.21,1.71.46,2.3.76.59.29,1.02.65,1.31,1.06.28.41.43.92.43,1.51,0,.99-.4,1.79-1.19,2.38-.79.6-1.82.9-3.09.9-.89,0-1.67-.16-2.36-.47s-1.22-.75-1.6-1.32c-.39-.56-.58-1.17-.58-1.83h1.9c.03.63.29,1.14.76,1.51.48.37,1.1.56,1.88.56.72,0,1.29-.14,1.73-.44.43-.29.65-.68.65-1.16Z" fill="#fff"/>
      <path d="M68.25,48.73c.68,0,1.27-.21,1.77-.62s.79-.92.84-1.54h1.79c-.03.63-.25,1.24-.66,1.81s-.94,1.03-1.62,1.37-1.39.51-2.14.51c-1.51,0-2.71-.5-3.6-1.51-.89-1.01-1.34-2.39-1.34-4.14v-.32c0-1.08.2-2.04.59-2.88.4-.84.97-1.49,1.71-1.96s1.62-.7,2.63-.7c1.24,0,2.28.37,3.1,1.12.82.75,1.26,1.71,1.32,2.9h-1.79c-.05-.72-.33-1.31-.81-1.77-.49-.46-1.09-.69-1.81-.69-.96,0-1.71.35-2.24,1.04-.53.69-.79,1.7-.79,3.01v.36c0,1.28.26,2.26.79,2.95s1.28,1.04,2.26,1.04Z" fill="#fff"/>
      <path d="M81.64,48.98c-.74.87-1.82,1.3-3.25,1.3-1.18,0-2.08-.34-2.7-1.03-.62-.69-.93-1.7-.94-3.05v-7.22h1.9v7.17c0,1.68.68,2.52,2.05,2.52,1.45,0,2.41-.54,2.89-1.62v-8.07h1.9v11.09h-1.8l-.04-1.1Z" fill="#fff"/>
      <path d="M95.76,44.65c0,1.7-.39,3.06-1.17,4.09-.78,1.03-1.83,1.54-3.14,1.54-1.4,0-2.48-.5-3.25-1.49l-.09,1.28h-1.74v-15.75h1.9v5.88c.77-.95,1.82-1.42,3.17-1.42s2.4.51,3.17,1.53c.77,1.02,1.15,2.41,1.15,4.18v.16ZM93.87,44.44c0-1.29-.25-2.29-.75-2.99s-1.22-1.06-2.15-1.06c-1.25,0-2.15.58-2.7,1.74v4.8c.58,1.16,1.49,1.74,2.72,1.74.91,0,1.62-.35,2.12-1.06s.76-1.76.76-3.18Z" fill="#fff"/>
      <path d="M103.52,40.68c-.29-.05-.6-.07-.93-.07-1.24,0-2.09.53-2.53,1.59v7.88h-1.9v-11.09h1.85l.03,1.28c.62-.99,1.5-1.49,2.65-1.49.37,0,.65.05.84.14v1.76Z" fill="#fff"/>
      <path d="M111.7,50.08c-.11-.22-.2-.61-.27-1.17-.88.92-1.93,1.37-3.16,1.37-1.09,0-1.99-.31-2.69-.93-.7-.62-1.05-1.4-1.05-2.35,0-1.16.44-2.05,1.32-2.69.88-.64,2.11-.96,3.71-.96h1.85v-.87c0-.66-.2-1.19-.59-1.58-.4-.39-.98-.59-1.75-.59-.68,0-1.24.17-1.7.51-.46.34-.69.76-.69,1.24h-1.91c0-.55.2-1.09.59-1.6.39-.52.93-.92,1.6-1.23s1.41-.45,2.22-.45c1.28,0,2.28.32,3,.96.72.64,1.1,1.52,1.13,2.64v5.11c0,1.02.13,1.83.39,2.43v.16h-1.99ZM108.55,48.63c.59,0,1.16-.15,1.69-.46s.92-.71,1.16-1.2v-2.28h-1.49c-2.32,0-3.49.68-3.49,2.04,0,.59.2,1.06.59,1.39s.91.5,1.53.5Z" fill="#fff"/>
      <path d="M121.01,44.44c0-1.74.4-3.12,1.2-4.14.8-1.01,1.87-1.52,3.22-1.52s2.35.44,3.11,1.32l.08-1.12h1.74v15.36h-1.9v-5.29c-.77.82-1.78,1.23-3.06,1.23-1.34,0-2.41-.52-3.2-1.56-.8-1.04-1.19-2.42-1.19-4.15v-.13ZM122.91,44.65c0,1.27.27,2.27.8,2.99s1.26,1.09,2.17,1.09c1.13,0,1.99-.5,2.58-1.5v-5.44c-.6-.98-1.46-1.47-2.56-1.47-.92,0-1.64.36-2.18,1.09-.54.73-.81,1.8-.81,3.23Z" fill="#fff"/>
      <path d="M140.26,48.98c-.74.87-1.82,1.3-3.25,1.3-1.18,0-2.08-.34-2.7-1.03-.62-.69-.93-1.7-.94-3.05v-7.22h1.9v7.17c0,1.68.68,2.52,2.05,2.52,1.45,0,2.41-.54,2.89-1.62v-8.07h1.9v11.09h-1.8l-.04-1.1Z" fill="#fff"/>
      <path d="M151.83,50.08c-.11-.22-.2-.61-.27-1.17-.88.92-1.93,1.37-3.16,1.37-1.09,0-1.99-.31-2.69-.93-.7-.62-1.05-1.4-1.05-2.35,0-1.16.44-2.05,1.32-2.69.88-.64,2.11-.96,3.71-.96h1.85v-.87c0-.66-.2-1.19-.59-1.58-.4-.39-.98-.59-1.75-.59-.68,0-1.24.17-1.7.51-.46.34-.69.76-.69,1.24h-1.91c0-.55.2-1.09.59-1.6.39-.52.93-.92,1.6-1.23s1.41-.45,2.22-.45c1.28,0,2.28.32,3,.96.72.64,1.1,1.52,1.13,2.64v5.11c0,1.02.13,1.83.39,2.43v.16h-1.99ZM148.68,48.63c.59,0,1.16-.15,1.69-.46s.92-.71,1.16-1.2v-2.28h-1.49c-2.32,0-3.49.68-3.49,2.04,0,.59.2,1.06.59,1.39s.91.5,1.53.5Z" fill="#fff"/>
      <path d="M156.42,36.04c0-.31.09-.57.28-.78s.47-.32.84-.32.65.11.84.32.29.47.29.78-.1.56-.29.77-.47.31-.84.31-.65-.1-.84-.31-.28-.46-.28-.77ZM158.47,50.08h-1.9v-11.09h1.9v11.09Z" fill="#fff"/>
      <path d="M167.96,47.13c0-.51-.19-.91-.58-1.19-.39-.28-1.06-.53-2.02-.73s-1.72-.45-2.29-.74c-.56-.29-.98-.63-1.25-1.03-.27-.4-.41-.87-.41-1.41,0-.91.38-1.68,1.15-2.31.77-.63,1.75-.94,2.95-.94,1.26,0,2.28.33,3.06.97.78.65,1.17,1.48,1.17,2.49h-1.91c0-.52-.22-.97-.66-1.34-.44-.38-1-.56-1.67-.56s-1.23.15-1.62.45-.58.69-.58,1.18c0,.46.18.8.54,1.04s1.02.46,1.96.67c.95.21,1.71.46,2.3.76.59.29,1.02.65,1.31,1.06.28.41.43.92.43,1.51,0,.99-.4,1.79-1.19,2.38-.79.6-1.82.9-3.09.9-.89,0-1.67-.16-2.36-.47s-1.22-.75-1.6-1.32c-.39-.56-.58-1.17-.58-1.83h1.9c.03.63.29,1.14.76,1.51.48.37,1.1.56,1.88.56.72,0,1.29-.14,1.73-.44.43-.29.65-.68.65-1.16Z" fill="#fff"/>
      <path d="M34.93,75.28c-.11-.22-.2-.61-.27-1.17-.88.92-1.93,1.37-3.16,1.37-1.09,0-1.99-.31-2.69-.93-.7-.62-1.05-1.4-1.05-2.35,0-1.16.44-2.05,1.32-2.69.88-.64,2.11-.96,3.71-.96h1.85v-.87c0-.66-.2-1.19-.59-1.58-.4-.39-.98-.59-1.75-.59-.68,0-1.24.17-1.7.51-.46.34-.69.76-.69,1.24h-1.91c0-.55.2-1.09.59-1.6.39-.52.93-.92,1.6-1.23s1.41-.45,2.22-.45c1.28,0,2.28.32,3,.96.72.64,1.1,1.52,1.13,2.64v5.11c0,1.02.13,1.83.39,2.43v.16h-1.99ZM31.78,73.83c.59,0,1.16-.15,1.69-.46s.92-.71,1.16-1.2v-2.28h-1.49c-2.32,0-3.49.68-3.49,2.04,0,.59.2,1.06.59,1.39s.91.5,1.53.5Z" fill="#fff"/>
      <path d="M42.08,61.49v2.69h2.07v1.47h-2.07v6.89c0,.44.09.78.28,1s.5.33.94.33c.22,0,.52-.04.9-.12v1.53c-.5.14-.98.2-1.46.2-.85,0-1.49-.26-1.92-.77-.43-.51-.65-1.24-.65-2.18v-6.88h-2.02v-1.47h2.02v-2.69h1.9Z" fill="#fff"/>
      <path d="M46.37,61.24c0-.31.09-.57.28-.78s.47-.32.84-.32.65.11.84.32.29.47.29.78-.1.56-.29.77-.47.31-.84.31-.65-.1-.84-.31-.28-.46-.28-.77ZM48.42,75.28h-1.9v-11.09h1.9v11.09Z" fill="#fff"/>
      <path d="M54.03,61.49v2.69h2.07v1.47h-2.07v6.89c0,.44.09.78.28,1s.5.33.94.33c.22,0,.52-.04.9-.12v1.53c-.5.14-.98.2-1.46.2-.85,0-1.49-.26-1.92-.77-.43-.51-.65-1.24-.65-2.18v-6.88h-2.02v-1.47h2.02v-2.69h1.9Z" fill="#fff"/>
      <path d="M65.17,74.18c-.74.87-1.82,1.3-3.25,1.3-1.18,0-2.08-.34-2.7-1.03-.62-.69-.93-1.7-.94-3.05v-7.22h1.9v7.17c0,1.68.68,2.52,2.05,2.52,1.45,0,2.41-.54,2.89-1.62v-8.07h1.9v11.09h-1.8l-.04-1.1Z" fill="#fff"/>
      <path d="M69.43,69.64c0-1.7.4-3.07,1.21-4.11.81-1.04,1.86-1.55,3.17-1.55s2.33.44,3.09,1.33v-5.78h1.9v15.75h-1.74l-.09-1.19c-.76.93-1.81,1.39-3.17,1.39s-2.33-.53-3.14-1.58c-.81-1.05-1.22-2.43-1.22-4.12v-.14ZM71.33,69.85c0,1.26.26,2.24.78,2.95s1.24,1.07,2.15,1.07c1.2,0,2.08-.54,2.64-1.62v-5.1c-.57-1.05-1.44-1.57-2.61-1.57-.93,0-1.65.36-2.17,1.08s-.78,1.78-.78,3.19Z" fill="#fff"/>
      <path d="M86.34,75.48c-1.5,0-2.73-.49-3.67-1.48-.94-.99-1.42-2.31-1.42-3.96v-.35c0-1.1.21-2.08.63-2.95.42-.87,1.01-1.54,1.76-2.03.76-.49,1.57-.73,2.46-.73,1.44,0,2.56.48,3.36,1.42.8.95,1.2,2.31,1.2,4.08v.79h-7.52c.03,1.09.35,1.98.96,2.65.61.67,1.39,1.01,2.33,1.01.67,0,1.24-.14,1.7-.41.46-.27.87-.63,1.22-1.09l1.16.9c-.93,1.43-2.32,2.14-4.18,2.14ZM86.11,65.54c-.77,0-1.41.28-1.93.84-.52.56-.84,1.34-.96,2.34h5.56v-.14c-.05-.96-.31-1.71-.78-2.24-.46-.53-1.09-.79-1.89-.79Z" fill="#fff"/>
      <path d="M99.32,72.33c0-.51-.19-.91-.58-1.19-.39-.28-1.06-.53-2.02-.73s-1.72-.45-2.29-.74c-.56-.29-.98-.63-1.25-1.03-.27-.4-.41-.87-.41-1.41,0-.91.38-1.68,1.15-2.31.77-.63,1.75-.94,2.95-.94,1.26,0,2.28.33,3.06.97.78.65,1.17,1.48,1.17,2.49h-1.91c0-.52-.22-.97-.66-1.34-.44-.38-1-.56-1.67-.56s-1.23.15-1.62.45-.58.69-.58,1.18c0,.46.18.8.54,1.04s1.02.46,1.96.67c.95.21,1.71.46,2.3.76.59.29,1.02.65,1.31,1.06.28.41.43.92.43,1.51,0,.99-.4,1.79-1.19,2.38-.79.6-1.82.9-3.09.9-.89,0-1.67-.16-2.36-.47s-1.22-.75-1.6-1.32c-.39-.56-.58-1.17-.58-1.83h1.9c.03.63.29,1.14.76,1.51.48.37,1.1.56,1.88.56.72,0,1.29-.14,1.73-.44.43-.29.65-.68.65-1.16Z" fill="#fff"/>
      <path d="M108.43,69.64c0-1.74.4-3.12,1.2-4.14.8-1.01,1.87-1.52,3.22-1.52s2.35.44,3.11,1.32l.08-1.12h1.74v15.36h-1.9v-5.29c-.77.82-1.78,1.23-3.06,1.23-1.34,0-2.41-.52-3.2-1.56-.8-1.04-1.19-2.42-1.19-4.15v-.13ZM110.33,69.85c0,1.27.27,2.27.8,2.99s1.26,1.09,2.17,1.09c1.13,0,1.99-.5,2.58-1.5v-5.44c-.6-.98-1.46-1.47-2.56-1.47-.92,0-1.64.36-2.18,1.09-.54.73-.81,1.8-.81,3.23Z" fill="#fff"/>
      <path d="M127.67,74.18c-.74.87-1.82,1.3-3.25,1.3-1.18,0-2.08-.34-2.7-1.03-.62-.69-.93-1.7-.94-3.05v-7.22h1.9v7.17c0,1.68.68,2.52,2.05,2.52,1.45,0,2.41-.54,2.89-1.62v-8.07h1.9v11.09h-1.8l-.04-1.1Z" fill="#fff"/>
      <path d="M137.01,75.48c-1.5,0-2.73-.49-3.67-1.48-.94-.99-1.42-2.31-1.42-3.96v-.35c0-1.1.21-2.08.63-2.95.42-.87,1.01-1.54,1.76-2.03.76-.49,1.57-.73,2.46-.73,1.44,0,2.56.48,3.36,1.42.8.95,1.2,2.31,1.2,4.08v.79h-7.52c.03,1.09.35,1.98.96,2.65.61.67,1.39,1.01,2.33,1.01.67,0,1.24-.14,1.7-.41.46-.27.87-.63,1.22-1.09l1.16.9c-.93,1.43-2.32,2.14-4.18,2.14ZM136.77,65.54c-.77,0-1.41.28-1.93.84-.52.56-.84,1.34-.96,2.34h5.56v-.14c-.05-.96-.31-1.71-.78-2.24-.46-.53-1.09-.79-1.89-.79Z" fill="#fff"/>
      <path d="M37.45,95.05c0,1.69-.39,3.05-1.16,4.08-.77,1.03-1.82,1.55-3.14,1.55s-2.41-.43-3.18-1.28v5.34h-1.9v-15.36h1.73l.09,1.23c.77-.96,1.85-1.44,3.22-1.44s2.39.5,3.16,1.51c.78,1.01,1.16,2.4,1.16,4.19v.17ZM35.55,94.84c0-1.25-.27-2.24-.8-2.96-.53-.72-1.26-1.09-2.19-1.09-1.15,0-2.01.51-2.58,1.53v5.3c.57,1.01,1.44,1.52,2.6,1.52.91,0,1.63-.36,2.17-1.08.54-.72.81-1.79.81-3.21Z" fill="#fff"/>
      <path d="M39.36,94.83c0-1.09.21-2.06.64-2.93.43-.87,1.02-1.54,1.78-2.01.76-.47,1.63-.71,2.61-.71,1.51,0,2.73.52,3.67,1.57.93,1.04,1.4,2.44,1.4,4.17v.13c0,1.08-.21,2.05-.62,2.91-.41.86-1,1.53-1.77,2-.77.48-1.65.72-2.65.72-1.5,0-2.72-.52-3.66-1.57-.93-1.05-1.4-2.43-1.4-4.15v-.13ZM41.26,95.05c0,1.23.29,2.22.86,2.96s1.33,1.12,2.29,1.12,1.73-.38,2.3-1.13c.57-.75.85-1.81.85-3.17,0-1.22-.29-2.2-.87-2.96-.58-.75-1.34-1.13-2.3-1.13s-1.69.37-2.27,1.12-.86,1.81-.86,3.2Z" fill="#fff"/>
      <path d="M51.38,94.84c0-1.7.4-3.07,1.21-4.11.81-1.04,1.86-1.55,3.17-1.55s2.33.44,3.09,1.33v-5.78h1.9v15.75h-1.74l-.09-1.19c-.76.93-1.81,1.39-3.17,1.39s-2.33-.53-3.14-1.58c-.81-1.05-1.22-2.43-1.22-4.12v-.14ZM53.27,95.05c0,1.26.26,2.24.78,2.95s1.24,1.07,2.15,1.07c1.2,0,2.08-.54,2.64-1.62v-5.1c-.57-1.05-1.44-1.57-2.61-1.57-.93,0-1.65.36-2.17,1.08s-.78,1.78-.78,3.19Z" fill="#fff"/>
      <path d="M68.28,100.68c-1.5,0-2.73-.49-3.67-1.48-.94-.99-1.42-2.31-1.42-3.96v-.35c0-1.1.21-2.08.63-2.95.42-.87,1.01-1.54,1.76-2.03.76-.49,1.57-.73,2.46-.73,1.44,0,2.56.48,3.36,1.42.8.95,1.2,2.31,1.2,4.08v.79h-7.52c.03,1.09.35,1.98.96,2.65.61.67,1.39,1.01,2.33,1.01.67,0,1.24-.14,1.7-.41.46-.27.87-.63,1.22-1.09l1.16.9c-.93,1.43-2.32,2.14-4.18,2.14ZM68.05,90.74c-.77,0-1.41.28-1.93.84-.52.56-.84,1.34-.96,2.34h5.56v-.14c-.05-.96-.31-1.71-.78-2.24-.46-.53-1.09-.79-1.89-.79Z" fill="#fff"/>
      <path d="M76.59,89.38l.05,1.23c.81-.96,1.91-1.44,3.29-1.44,1.55,0,2.61.59,3.17,1.78.37-.53.85-.96,1.44-1.29.59-.33,1.29-.49,2.1-.49,2.43,0,3.67,1.29,3.71,3.87v7.43h-1.9v-7.32c0-.79-.18-1.39-.54-1.78-.36-.39-.97-.59-1.83-.59-.7,0-1.29.21-1.75.63-.46.42-.73.99-.81,1.7v7.36h-1.91v-7.27c0-1.61-.79-2.42-2.37-2.42-1.24,0-2.1.53-2.55,1.59v8.1h-1.9v-11.09h1.79Z" fill="#fff"/>
      <path d="M92.71,94.83c0-1.09.21-2.06.64-2.93.43-.87,1.02-1.54,1.78-2.01.76-.47,1.63-.71,2.61-.71,1.51,0,2.73.52,3.67,1.57.93,1.04,1.4,2.44,1.4,4.17v.13c0,1.08-.21,2.05-.62,2.91-.41.86-1,1.53-1.77,2-.77.48-1.65.72-2.65.72-1.5,0-2.72-.52-3.66-1.57-.93-1.05-1.4-2.43-1.4-4.15v-.13ZM94.62,95.05c0,1.23.29,2.22.86,2.96s1.33,1.12,2.29,1.12,1.73-.38,2.3-1.13c.57-.75.85-1.81.85-3.17,0-1.22-.29-2.2-.87-2.96-.58-.75-1.34-1.13-2.3-1.13s-1.69.37-2.27,1.12-.86,1.81-.86,3.2Z" fill="#fff"/>
      <path d="M111.65,97.53c0-.51-.19-.91-.58-1.19-.39-.28-1.06-.53-2.02-.73s-1.72-.45-2.29-.74c-.56-.29-.98-.63-1.25-1.03-.27-.4-.41-.87-.41-1.41,0-.91.38-1.68,1.15-2.31.77-.63,1.75-.94,2.95-.94,1.26,0,2.28.33,3.06.97.78.65,1.17,1.48,1.17,2.49h-1.91c0-.52-.22-.97-.66-1.34-.44-.38-1-.56-1.67-.56s-1.23.15-1.62.45-.58.69-.58,1.18c0,.46.18.8.54,1.04s1.02.46,1.96.67c.95.21,1.71.46,2.3.76.59.29,1.02.65,1.31,1.06.28.41.43.92.43,1.51,0,.99-.4,1.79-1.19,2.38-.79.6-1.82.9-3.09.9-.89,0-1.67-.16-2.36-.47s-1.22-.75-1.6-1.32c-.39-.56-.58-1.17-.58-1.83h1.9c.03.63.29,1.14.76,1.51.48.37,1.1.56,1.88.56.72,0,1.29-.14,1.73-.44.43-.29.65-.68.65-1.16Z" fill="#fff"/>
      <path d="M123.79,86.7v2.69h2.07v1.47h-2.07v6.89c0,.44.09.78.28,1s.5.33.94.33c.22,0,.52-.04.9-.12v1.53c-.5.14-.98.2-1.46.2-.85,0-1.49-.26-1.92-.77-.43-.51-.65-1.24-.65-2.18v-6.88h-2.02v-1.47h2.02v-2.69h1.9Z" fill="#fff"/>
      <path d="M132.68,100.68c-1.5,0-2.73-.49-3.67-1.48-.94-.99-1.42-2.31-1.42-3.96v-.35c0-1.1.21-2.08.63-2.95.42-.87,1.01-1.54,1.76-2.03.76-.49,1.57-.73,2.46-.73,1.44,0,2.56.48,3.36,1.42.8.95,1.2,2.31,1.2,4.08v.79h-7.52c.03,1.09.35,1.98.96,2.65.61.67,1.39,1.01,2.33,1.01.67,0,1.24-.14,1.7-.41.46-.27.87-.63,1.22-1.09l1.16.9c-.93,1.43-2.32,2.14-4.18,2.14ZM132.44,90.74c-.77,0-1.41.28-1.93.84-.52.56-.84,1.34-.96,2.34h5.56v-.14c-.05-.96-.31-1.71-.78-2.24-.46-.53-1.09-.79-1.89-.79Z" fill="#fff"/>
      <path d="M144.56,91.08c-.29-.05-.6-.07-.93-.07-1.24,0-2.09.53-2.53,1.59v7.88h-1.9v-11.09h1.85l.03,1.28c.62-.99,1.5-1.49,2.65-1.49.37,0,.65.05.84.14v1.76Z" fill="#fff"/>
      <path d="M153.3,89.38l.06,1.39c.85-1.07,1.96-1.6,3.32-1.6,2.34,0,3.53,1.32,3.55,3.97v7.33h-1.9v-7.34c0-.8-.19-1.39-.55-1.77-.36-.38-.92-.57-1.68-.57-.62,0-1.16.16-1.62.49s-.83.76-1.09,1.29v7.91h-1.9v-11.09h1.79Z" fill="#fff"/>
      <path d="M162.59,94.83c0-1.09.21-2.06.64-2.93.43-.87,1.02-1.54,1.78-2.01.76-.47,1.63-.71,2.61-.71,1.51,0,2.73.52,3.67,1.57.93,1.04,1.4,2.44,1.4,4.17v.13c0,1.08-.21,2.05-.62,2.91-.41.86-1,1.53-1.77,2-.77.48-1.65.72-2.65.72-1.5,0-2.72-.52-3.66-1.57-.93-1.05-1.4-2.43-1.4-4.15v-.13ZM164.5,95.05c0,1.23.29,2.22.86,2.96s1.33,1.12,2.29,1.12,1.73-.38,2.3-1.13c.57-.75.85-1.81.85-3.17,0-1.22-.29-2.2-.87-2.96-.58-.75-1.34-1.13-2.3-1.13s-1.69.37-2.27,1.12-.86,1.81-.86,3.2Z" fill="#fff"/>
      <path d="M30.65,111.89v2.69h2.07v1.47h-2.07v6.89c0,.44.09.78.28,1s.5.33.94.33c.22,0,.52-.04.9-.12v1.53c-.5.14-.98.2-1.46.2-.85,0-1.49-.26-1.92-.77-.43-.51-.65-1.24-.65-2.18v-6.88h-2.02v-1.47h2.02v-2.69h1.9Z" fill="#fff"/>
      <path d="M40.3,116.28c-.29-.05-.6-.07-.93-.07-1.24,0-2.09.53-2.53,1.59v7.88h-1.9v-11.09h1.85l.03,1.28c.62-.99,1.5-1.49,2.65-1.49.37,0,.65.05.84.14v1.76Z" fill="#fff"/>
      <path d="M48.48,125.68c-.11-.22-.2-.61-.27-1.17-.88.92-1.93,1.37-3.16,1.37-1.09,0-1.99-.31-2.69-.93-.7-.62-1.05-1.4-1.05-2.35,0-1.16.44-2.05,1.32-2.69.88-.64,2.11-.96,3.71-.96h1.85v-.87c0-.66-.2-1.19-.59-1.58-.4-.39-.98-.59-1.75-.59-.68,0-1.24.17-1.7.51-.46.34-.69.76-.69,1.24h-1.91c0-.55.2-1.09.59-1.6.39-.52.93-.92,1.6-1.23s1.41-.45,2.22-.45c1.28,0,2.28.32,3,.96.72.64,1.1,1.52,1.13,2.64v5.11c0,1.02.13,1.83.39,2.43v.16h-1.99ZM49.26,112.73v.1h-1.57s-1.54-1.74-1.54-1.74l-1.53,1.74h-1.57v-.13l2.52-2.78h1.15l2.53,2.8ZM45.34,124.23c.59,0,1.16-.15,1.69-.46s.92-.71,1.16-1.2v-2.28h-1.49c-2.32,0-3.49.68-3.49,2.04,0,.59.2,1.06.59,1.39s.91.5,1.53.5Z" fill="#fff"/>
      <path d="M54.85,114.58l.06,1.39c.85-1.07,1.96-1.6,3.32-1.6,2.34,0,3.53,1.32,3.55,3.97v7.33h-1.9v-7.34c0-.8-.19-1.39-.55-1.77-.36-.38-.92-.57-1.68-.57-.62,0-1.16.16-1.62.49s-.83.76-1.09,1.29v7.91h-1.9v-11.09h1.79Z" fill="#fff"/>
      <path d="M71.1,122.73c0-.51-.19-.91-.58-1.19-.39-.28-1.06-.53-2.02-.73s-1.72-.45-2.29-.74c-.56-.29-.98-.63-1.25-1.03-.27-.4-.41-.87-.41-1.41,0-.91.38-1.68,1.15-2.31.77-.63,1.75-.94,2.95-.94,1.26,0,2.28.33,3.06.97.78.65,1.17,1.48,1.17,2.49h-1.91c0-.52-.22-.97-.66-1.34-.44-.38-1-.56-1.67-.56s-1.23.15-1.62.45-.58.69-.58,1.18c0,.46.18.8.54,1.04s1.02.46,1.96.67c.95.21,1.71.46,2.3.76.59.29,1.02.65,1.31,1.06.28.41.43.92.43,1.51,0,.99-.4,1.79-1.19,2.38-.79.6-1.82.9-3.09.9-.89,0-1.67-.16-2.36-.47s-1.22-.75-1.6-1.32c-.39-.56-.58-1.17-.58-1.83h1.9c.03.63.29,1.14.76,1.51.48.37,1.1.56,1.88.56.72,0,1.29-.14,1.73-.44.43-.29.65-.68.65-1.16Z" fill="#fff"/>
      <path d="M75.48,111.64c0-.31.09-.57.28-.78s.47-.32.84-.32.65.11.84.32.29.47.29.78-.1.56-.29.77-.47.31-.84.31-.65-.1-.84-.31-.28-.46-.28-.77ZM77.53,125.68h-1.9v-11.09h1.9v11.09Z" fill="#fff"/>
      <path d="M83.14,111.89v2.69h2.07v1.47h-2.07v6.89c0,.44.09.78.28,1s.5.33.94.33c.22,0,.52-.04.9-.12v1.53c-.5.14-.98.2-1.46.2-.85,0-1.49-.26-1.92-.77-.43-.51-.65-1.24-.65-2.18v-6.88h-2.02v-1.47h2.02v-2.69h1.9Z" fill="#fff"/>
      <path d="M86.72,120.03c0-1.09.21-2.06.64-2.93.43-.87,1.02-1.54,1.78-2.01.76-.47,1.63-.71,2.61-.71,1.51,0,2.73.52,3.67,1.57.93,1.04,1.4,2.44,1.4,4.17v.13c0,1.08-.21,2.05-.62,2.91-.41.86-1,1.53-1.77,2-.77.48-1.65.72-2.65.72-1.5,0-2.72-.52-3.66-1.57-.93-1.05-1.4-2.43-1.4-4.15v-.13ZM88.63,120.25c0,1.23.29,2.22.86,2.96s1.33,1.12,2.29,1.12,1.73-.38,2.3-1.13c.57-.75.85-1.81.85-3.17,0-1.22-.29-2.2-.87-2.96-.58-.75-1.34-1.13-2.3-1.13s-1.69.37-2.27,1.12-.86,1.81-.86,3.2Z" fill="#fff"/>
      <path d="M103.94,120.04c0-1.74.4-3.12,1.2-4.14.8-1.01,1.87-1.52,3.22-1.52s2.35.44,3.11,1.32l.08-1.12h1.74v15.36h-1.9v-5.29c-.77.82-1.78,1.23-3.06,1.23-1.34,0-2.41-.52-3.2-1.56-.8-1.04-1.19-2.42-1.19-4.15v-.13ZM105.83,120.25c0,1.27.27,2.27.8,2.99s1.26,1.09,2.17,1.09c1.13,0,1.99-.5,2.58-1.5v-5.44c-.6-.98-1.46-1.47-2.56-1.47-.92,0-1.64.36-2.18,1.09-.54.73-.81,1.8-.81,3.23Z" fill="#fff"/>
      <path d="M123.18,124.58c-.74.87-1.82,1.3-3.25,1.3-1.18,0-2.08-.34-2.7-1.03-.62-.69-.93-1.7-.94-3.05v-7.22h1.9v7.17c0,1.68.68,2.52,2.05,2.52,1.45,0,2.41-.54,2.89-1.62v-8.07h1.9v11.09h-1.8l-.04-1.1Z" fill="#fff"/>
      <path d="M132.51,125.88c-1.5,0-2.73-.49-3.67-1.48-.94-.99-1.42-2.31-1.42-3.96v-.35c0-1.1.21-2.08.63-2.95.42-.87,1.01-1.54,1.76-2.03.76-.49,1.57-.73,2.46-.73,1.44,0,2.56.48,3.36,1.42.8.95,1.2,2.31,1.2,4.08v.79h-7.52c.03,1.09.35,1.98.96,2.65.61.67,1.39,1.01,2.33,1.01.67,0,1.24-.14,1.7-.41.46-.27.87-.63,1.22-1.09l1.16.9c-.93,1.43-2.32,2.14-4.18,2.14ZM132.28,115.93c-.77,0-1.41.28-1.93.84-.52.56-.84,1.34-.96,2.34h5.56v-.14c-.05-.96-.31-1.71-.78-2.24-.46-.53-1.09-.79-1.89-.79Z" fill="#fff"/>
      <path d="M37.45,145.45c0,1.69-.39,3.05-1.16,4.08-.77,1.03-1.82,1.55-3.14,1.55s-2.41-.43-3.18-1.28v5.34h-1.9v-15.36h1.73l.09,1.23c.77-.96,1.85-1.44,3.22-1.44s2.39.5,3.16,1.51c.78,1.01,1.16,2.4,1.16,4.19v.17ZM35.55,145.24c0-1.25-.27-2.24-.8-2.96-.53-.72-1.26-1.09-2.19-1.09-1.15,0-2.01.51-2.58,1.53v5.3c.57,1.01,1.44,1.52,2.6,1.52.91,0,1.63-.36,2.17-1.08.54-.72.81-1.79.81-3.21Z" fill="#fff"/>
      <path d="M45.22,141.48c-.29-.05-.6-.07-.93-.07-1.24,0-2.09.53-2.53,1.59v7.88h-1.9v-11.09h1.85l.03,1.28c.62-.99,1.5-1.49,2.65-1.49.37,0,.65.05.84.14v1.76Z" fill="#fff"/>
      <path d="M51.38,151.08c-1.5,0-2.73-.49-3.67-1.48-.94-.99-1.42-2.31-1.42-3.96v-.35c0-1.1.21-2.08.63-2.95.42-.87,1.01-1.54,1.76-2.03.76-.49,1.57-.73,2.46-.73,1.44,0,2.56.48,3.36,1.42.8.95,1.2,2.31,1.2,4.08v.79h-7.52c.03,1.09.35,1.98.96,2.65.61.67,1.39,1.01,2.33,1.01.67,0,1.24-.14,1.7-.41.46-.27.87-.63,1.22-1.09l1.16.9c-.93,1.43-2.32,2.14-4.18,2.14ZM51.14,141.13c-.77,0-1.41.28-1.93.84-.52.56-.84,1.34-.96,2.34h5.56v-.14c-.05-.96-.31-1.71-.78-2.24-.46-.53-1.09-.79-1.89-.79Z" fill="#fff"/>
      <path d="M64.36,147.93c0-.51-.19-.91-.58-1.19-.39-.28-1.06-.53-2.02-.73s-1.72-.45-2.29-.74c-.56-.29-.98-.63-1.25-1.03-.27-.4-.41-.87-.41-1.41,0-.91.38-1.68,1.15-2.31.77-.63,1.75-.94,2.95-.94,1.26,0,2.28.33,3.06.97.78.65,1.17,1.48,1.17,2.49h-1.91c0-.52-.22-.97-.66-1.34-.44-.38-1-.56-1.67-.56s-1.23.15-1.62.45-.58.69-.58,1.18c0,.46.18.8.54,1.04s1.02.46,1.96.67c.95.21,1.71.46,2.3.76.59.29,1.02.65,1.31,1.06.28.41.43.92.43,1.51,0,.99-.4,1.79-1.19,2.38-.79.6-1.82.9-3.09.9-.89,0-1.67-.16-2.36-.47s-1.22-.75-1.6-1.32c-.39-.56-.58-1.17-.58-1.83h1.9c.03.63.29,1.14.76,1.51.48.37,1.1.56,1.88.56.72,0,1.29-.14,1.73-.44.43-.29.65-.68.65-1.16Z" fill="#fff"/>
      <path d="M73.33,151.08c-1.5,0-2.73-.49-3.67-1.48-.94-.99-1.42-2.31-1.42-3.96v-.35c0-1.1.21-2.08.63-2.95.42-.87,1.01-1.54,1.76-2.03.76-.49,1.57-.73,2.46-.73,1.44,0,2.56.48,3.36,1.42.8.95,1.2,2.31,1.2,4.08v.79h-7.52c.03,1.09.35,1.98.96,2.65.61.67,1.39,1.01,2.33,1.01.67,0,1.24-.14,1.7-.41.46-.27.87-.63,1.22-1.09l1.16.9c-.93,1.43-2.32,2.14-4.18,2.14ZM73.09,141.13c-.77,0-1.41.28-1.93.84-.52.56-.84,1.34-.96,2.34h5.56v-.14c-.05-.96-.31-1.71-.78-2.24-.46-.53-1.09-.79-1.89-.79Z" fill="#fff"/>
      <path d="M85.21,141.48c-.29-.05-.6-.07-.93-.07-1.24,0-2.09.53-2.53,1.59v7.88h-1.9v-11.09h1.85l.03,1.28c.62-.99,1.5-1.49,2.65-1.49.37,0,.65.05.84.14v1.76Z" fill="#fff"/>
      <path d="M90.8,148.3l2.75-8.52h1.94l-3.98,11.09h-1.45l-4.02-11.09h1.94l2.82,8.52Z" fill="#fff"/>
      <path d="M104.01,150.88c-.11-.22-.2-.61-.27-1.17-.88.92-1.93,1.37-3.16,1.37-1.09,0-1.99-.31-2.69-.93-.7-.62-1.05-1.4-1.05-2.35,0-1.16.44-2.05,1.32-2.69.88-.64,2.11-.96,3.71-.96h1.85v-.87c0-.66-.2-1.19-.59-1.58-.4-.39-.98-.59-1.75-.59-.68,0-1.24.17-1.7.51-.46.34-.69.76-.69,1.24h-1.91c0-.55.2-1.09.59-1.6.39-.52.93-.92,1.6-1.23s1.41-.45,2.22-.45c1.28,0,2.28.32,3,.96.72.64,1.1,1.52,1.13,2.64v5.11c0,1.02.13,1.83.39,2.43v.16h-1.99ZM100.86,149.43c.59,0,1.16-.15,1.69-.46s.92-.71,1.16-1.2v-2.28h-1.49c-2.32,0-3.49.68-3.49,2.04,0,.59.2,1.06.59,1.39s.91.5,1.53.5Z" fill="#fff"/>
      <path d="M110.37,139.78l.05,1.23c.81-.96,1.91-1.44,3.29-1.44,1.55,0,2.61.59,3.17,1.78.37-.53.85-.96,1.44-1.29.59-.33,1.29-.49,2.1-.49,2.43,0,3.67,1.29,3.71,3.87v7.43h-1.9v-7.32c0-.79-.18-1.39-.54-1.78-.36-.39-.97-.59-1.83-.59-.7,0-1.29.21-1.75.63-.46.42-.73.99-.81,1.7v7.36h-1.91v-7.27c0-1.61-.79-2.42-2.37-2.42-1.24,0-2.1.53-2.55,1.59v8.1h-1.9v-11.09h1.79Z" fill="#fff"/>
      <path d="M131.68,145.23c0-1.09.21-2.06.64-2.93.43-.87,1.02-1.54,1.78-2.01.76-.47,1.63-.71,2.61-.71,1.51,0,2.73.52,3.67,1.57.93,1.04,1.4,2.44,1.4,4.17v.13c0,1.08-.21,2.05-.62,2.91-.41.86-1,1.53-1.77,2-.77.48-1.65.72-2.65.72-1.5,0-2.72-.52-3.66-1.57-.93-1.05-1.4-2.43-1.4-4.15v-.13ZM133.59,145.45c0,1.23.29,2.22.86,2.96s1.33,1.12,2.29,1.12,1.73-.38,2.3-1.13c.57-.75.85-1.81.85-3.17,0-1.22-.29-2.2-.87-2.96-.58-.75-1.34-1.13-2.3-1.13s-1.69.37-2.27,1.12-.86,1.81-.86,3.2Z" fill="#fff"/>
      <path d="M151.15,139.78l.05,1.23c.81-.96,1.91-1.44,3.29-1.44,1.55,0,2.61.59,3.17,1.78.37-.53.85-.96,1.44-1.29.59-.33,1.29-.49,2.1-.49,2.43,0,3.67,1.29,3.71,3.87v7.43h-1.9v-7.32c0-.79-.18-1.39-.54-1.78-.36-.39-.97-.59-1.83-.59-.7,0-1.29.21-1.75.63-.46.42-.73.99-.81,1.7v7.36h-1.91v-7.27c0-1.61-.79-2.42-2.37-2.42-1.24,0-2.1.53-2.55,1.59v8.1h-1.9v-11.09h1.79Z" fill="#fff"/>
      <path d="M172.37,151.08c-1.5,0-2.73-.49-3.67-1.48-.94-.99-1.42-2.31-1.42-3.96v-.35c0-1.1.21-2.08.63-2.95.42-.87,1.01-1.54,1.76-2.03.76-.49,1.57-.73,2.46-.73,1.44,0,2.56.48,3.36,1.42.8.95,1.2,2.31,1.2,4.08v.79h-7.52c.03,1.09.35,1.98.96,2.65.61.67,1.39,1.01,2.33,1.01.67,0,1.24-.14,1.7-.41.46-.27.87-.63,1.22-1.09l1.16.9c-.93,1.43-2.32,2.14-4.18,2.14ZM172.14,141.13c-.77,0-1.41.28-1.93.84-.52.56-.84,1.34-.96,2.34h5.56v-.14c-.05-.96-.31-1.71-.78-2.24-.46-.53-1.09-.79-1.89-.79Z" fill="#fff"/>
      <path d="M178.9,136.84c0-.31.09-.57.28-.78s.47-.32.84-.32.65.11.84.32.29.47.29.78-.1.56-.29.77-.47.31-.84.31-.65-.1-.84-.31-.28-.46-.28-.77ZM180.95,150.88h-1.9v-11.09h1.9v11.09Z" fill="#fff"/>
      <path d="M183.49,145.23c0-1.09.21-2.06.64-2.93.43-.87,1.02-1.54,1.78-2.01.76-.47,1.63-.71,2.61-.71,1.51,0,2.73.52,3.67,1.57.93,1.04,1.4,2.44,1.4,4.17v.13c0,1.08-.21,2.05-.62,2.91-.41.86-1,1.53-1.77,2-.77.48-1.65.72-2.65.72-1.5,0-2.72-.52-3.66-1.57-.93-1.05-1.4-2.43-1.4-4.15v-.13ZM185.39,145.45c0,1.23.29,2.22.86,2.96s1.33,1.12,2.29,1.12,1.73-.38,2.3-1.13c.57-.75.85-1.81.85-3.17,0-1.22-.29-2.2-.87-2.96-.58-.75-1.34-1.13-2.3-1.13s-1.69.37-2.27,1.12-.86,1.81-.86,3.2Z" fill="#fff"/>
      <path d="M34.93,176.08c-.11-.22-.2-.61-.27-1.17-.88.92-1.93,1.37-3.16,1.37-1.09,0-1.99-.31-2.69-.93-.7-.62-1.05-1.4-1.05-2.35,0-1.16.44-2.05,1.32-2.69.88-.64,2.11-.96,3.71-.96h1.85v-.87c0-.66-.2-1.19-.59-1.58-.4-.39-.98-.59-1.75-.59-.68,0-1.24.17-1.7.51-.46.34-.69.76-.69,1.24h-1.91c0-.55.2-1.09.59-1.6.39-.52.93-.92,1.6-1.23s1.41-.45,2.22-.45c1.28,0,2.28.32,3,.96.72.64,1.1,1.52,1.13,2.64v5.11c0,1.02.13,1.83.39,2.43v.16h-1.99ZM31.78,174.63c.59,0,1.16-.15,1.69-.46s.92-.71,1.16-1.2v-2.28h-1.49c-2.32,0-3.49.68-3.49,2.04,0,.59.2,1.06.59,1.39s.91.5,1.53.5Z" fill="#fff"/>
      <path d="M41.29,164.98l.05,1.23c.81-.96,1.91-1.44,3.29-1.44,1.55,0,2.61.59,3.17,1.78.37-.53.85-.96,1.44-1.29.59-.33,1.29-.49,2.1-.49,2.43,0,3.67,1.29,3.71,3.87v7.43h-1.9v-7.32c0-.79-.18-1.39-.54-1.78-.36-.39-.97-.59-1.83-.59-.7,0-1.29.21-1.75.63-.46.42-.73.99-.81,1.7v7.36h-1.91v-7.27c0-1.61-.79-2.42-2.37-2.42-1.24,0-2.1.53-2.55,1.59v8.1h-1.9v-11.09h1.79Z" fill="#fff"/>
      <path d="M67.3,170.65c0,1.7-.39,3.06-1.17,4.09-.78,1.03-1.83,1.54-3.14,1.54-1.4,0-2.48-.5-3.25-1.49l-.09,1.28h-1.74v-15.75h1.9v5.88c.77-.95,1.82-1.42,3.17-1.42s2.4.51,3.17,1.53c.77,1.02,1.15,2.41,1.15,4.18v.16ZM65.4,170.44c0-1.29-.25-2.29-.75-2.99s-1.22-1.06-2.15-1.06c-1.25,0-2.15.58-2.7,1.74v4.8c.58,1.16,1.49,1.74,2.72,1.74.91,0,1.62-.35,2.12-1.06s.76-1.76.76-3.18Z" fill="#fff"/>
      <path d="M69.7,162.04c0-.31.09-.57.28-.78s.47-.32.84-.32.65.11.84.32.29.47.29.78-.1.56-.29.77-.47.31-.84.31-.65-.1-.84-.31-.28-.46-.28-.77ZM71.75,176.08h-1.9v-11.09h1.9v11.09Z" fill="#fff"/>
      <path d="M79.39,176.28c-1.5,0-2.73-.49-3.67-1.48-.94-.99-1.42-2.31-1.42-3.96v-.35c0-1.1.21-2.08.63-2.95.42-.87,1.01-1.54,1.76-2.03.76-.49,1.57-.73,2.46-.73,1.44,0,2.56.48,3.36,1.42.8.95,1.2,2.31,1.2,4.08v.79h-7.52c.03,1.09.35,1.98.96,2.65.61.67,1.39,1.01,2.33,1.01.67,0,1.24-.14,1.7-.41.46-.27.87-.63,1.22-1.09l1.16.9c-.93,1.43-2.32,2.14-4.18,2.14ZM79.15,166.33c-.77,0-1.41.28-1.93.84-.52.56-.84,1.34-.96,2.34h5.56v-.14c-.05-.96-.31-1.71-.78-2.24-.46-.53-1.09-.79-1.89-.79Z" fill="#fff"/>
      <path d="M87.7,164.98l.06,1.39c.85-1.07,1.96-1.6,3.32-1.6,2.34,0,3.53,1.32,3.55,3.97v7.33h-1.9v-7.34c0-.8-.19-1.39-.55-1.77-.36-.38-.92-.57-1.68-.57-.62,0-1.16.16-1.62.49s-.83.76-1.09,1.29v7.91h-1.9v-11.09h1.79Z" fill="#fff"/>
      <path d="M100.07,162.29v2.69h2.07v1.47h-2.07v6.89c0,.44.09.78.28,1s.5.33.94.33c.22,0,.52-.04.9-.12v1.53c-.5.14-.98.2-1.46.2-.85,0-1.49-.26-1.92-.77-.43-.51-.65-1.24-.65-2.18v-6.88h-2.02v-1.47h2.02v-2.69h1.9Z" fill="#fff"/>
      <path d="M108.96,176.28c-1.5,0-2.73-.49-3.67-1.48-.94-.99-1.42-2.31-1.42-3.96v-.35c0-1.1.21-2.08.63-2.95.42-.87,1.01-1.54,1.76-2.03.76-.49,1.57-.73,2.46-.73,1.44,0,2.56.48,3.36,1.42.8.95,1.2,2.31,1.2,4.08v.79h-7.52c.03,1.09.35,1.98.96,2.65.61.67,1.39,1.01,2.33,1.01.67,0,1.24-.14,1.7-.41.46-.27.87-.63,1.22-1.09l1.16.9c-.93,1.43-2.32,2.14-4.18,2.14ZM108.73,166.33c-.77,0-1.41.28-1.93.84-.52.56-.84,1.34-.96,2.34h5.56v-.14c-.05-.96-.31-1.71-.78-2.24-.46-.53-1.09-.79-1.89-.79Z" fill="#fff"/>
      <path d="M115.52,175.08c0-.33.1-.6.29-.82.2-.22.49-.33.88-.33s.69.11.89.33.3.49.3.82-.1.58-.3.79-.5.32-.89.32-.68-.11-.88-.32c-.19-.21-.29-.47-.29-.79Z" fill="#fff"/>
    </g>
  </g>
</svg>