<?xml version="1.0" encoding="UTF-8"?>
<svg id="Layer_2" data-name="Layer 2" xmlns="http://www.w3.org/2000/svg" viewBox="0 0 260.06 209.85">
  <g id="Layer_1-2" data-name="Layer 1">
    <g>
      <rect x=".5" y=".5" width="259.06" height="208.85" rx="16.06" ry="16.06" fill="#1a2a3d"/>
      <path d="M243.5,209.85H16.56c-9.13,0-16.56-7.43-16.56-16.56V16.56C0,7.43,7.43,0,16.56,0h226.94c9.13,0,16.56,7.43,16.56,16.56v176.73c0,9.13-7.43,16.56-16.56,16.56ZM16.56,1C7.98,1,1,7.98,1,16.56v176.73c0,8.58,6.98,15.56,15.56,15.56h226.94c8.58,0,15.56-6.98,15.56-15.56V16.56c0-8.58-6.98-15.56-15.56-15.56H16.56Z" fill="#7dabe2"/>
    </g>
    <g>
      <path d="M36.62,41.86h-6.25l-1.4,3.91h-2.03l5.7-14.93h1.72l5.71,14.93h-2.02l-1.43-3.91ZM30.96,40.25h5.08l-2.54-6.98-2.53,6.98Z" fill="#fff"/>
      <path d="M48.24,42.83c0-.51-.19-.91-.58-1.19-.39-.28-1.06-.53-2.02-.73s-1.72-.45-2.29-.74c-.56-.29-.98-.63-1.25-1.03-.27-.4-.41-.87-.41-1.41,0-.91.38-1.68,1.15-2.31.77-.63,1.75-.94,2.95-.94,1.26,0,2.28.33,3.06.97.78.65,1.17,1.48,1.17,2.49h-1.91c0-.52-.22-.97-.66-1.34-.44-.38-1-.56-1.67-.56s-1.23.15-1.62.45-.58.69-.58,1.18c0,.46.18.8.54,1.04s1.02.46,1.96.67c.95.21,1.71.46,2.3.76.59.29,1.02.65,1.31,1.06.28.41.43.92.43,1.51,0,.99-.4,1.79-1.19,2.38-.79.6-1.82.9-3.09.9-.89,0-1.67-.16-2.36-.47s-1.22-.75-1.6-1.32c-.39-.56-.58-1.17-.58-1.83h1.9c.03.63.29,1.14.76,1.51.48.37,1.1.56,1.88.56.72,0,1.29-.14,1.73-.44.43-.29.65-.68.65-1.16Z" fill="#fff"/>
      <path d="M59.07,42.83c0-.51-.19-.91-.58-1.19-.39-.28-1.06-.53-2.02-.73s-1.72-.45-2.29-.74c-.56-.29-.98-.63-1.25-1.03-.27-.4-.41-.87-.41-1.41,0-.91.38-1.68,1.15-2.31.77-.63,1.75-.94,2.95-.94,1.26,0,2.28.33,3.06.97.78.65,1.17,1.48,1.17,2.49h-1.91c0-.52-.22-.97-.66-1.34-.44-.38-1-.56-1.67-.56s-1.23.15-1.62.45-.58.69-.58,1.18c0,.46.18.8.54,1.04s1.02.46,1.96.67c.95.21,1.71.46,2.3.76.59.29,1.02.65,1.31,1.06.28.41.43.92.43,1.51,0,.99-.4,1.79-1.19,2.38-.79.6-1.82.9-3.09.9-.89,0-1.67-.16-2.36-.47s-1.22-.75-1.6-1.32c-.39-.56-.58-1.17-.58-1.83h1.9c.03.63.29,1.14.76,1.51.48.37,1.1.56,1.88.56.72,0,1.29-.14,1.73-.44.43-.29.65-.68.65-1.16Z" fill="#fff"/>
      <path d="M63.44,31.73c0-.31.09-.57.28-.78s.47-.32.84-.32.65.11.84.32.29.47.29.78-.1.56-.29.77-.47.31-.84.31-.65-.1-.84-.31-.28-.46-.28-.77ZM65.5,45.77h-1.9v-11.09h1.9v11.09Z" fill="#fff"/>
      <path d="M74.99,42.83c0-.51-.19-.91-.58-1.19-.39-.28-1.06-.53-2.02-.73s-1.72-.45-2.29-.74c-.56-.29-.98-.63-1.25-1.03-.27-.4-.41-.87-.41-1.41,0-.91.38-1.68,1.15-2.31.77-.63,1.75-.94,2.95-.94,1.26,0,2.28.33,3.06.97.78.65,1.17,1.48,1.17,2.49h-1.91c0-.52-.22-.97-.66-1.34-.44-.38-1-.56-1.67-.56s-1.23.15-1.62.45-.58.69-.58,1.18c0,.46.18.8.54,1.04s1.02.46,1.96.67c.95.21,1.71.46,2.3.76.59.29,1.02.65,1.31,1.06.28.41.43.92.43,1.51,0,.99-.4,1.79-1.19,2.38-.79.6-1.82.9-3.09.9-.89,0-1.67-.16-2.36-.47s-1.22-.75-1.6-1.32c-.39-.56-.58-1.17-.58-1.83h1.9c.03.63.29,1.14.76,1.51.48.37,1.1.56,1.88.56.72,0,1.29-.14,1.73-.44.43-.29.65-.68.65-1.16Z" fill="#fff"/>
      <path d="M81.93,31.99v2.69h2.07v1.47h-2.07v6.89c0,.44.09.78.28,1s.5.33.94.33c.22,0,.52-.04.9-.12v1.53c-.5.14-.98.2-1.46.2-.85,0-1.49-.26-1.92-.77-.43-.51-.65-1.24-.65-2.18v-6.88h-2.02v-1.47h2.02v-2.69h1.9Z" fill="#fff"/>
      <path d="M93.07,45.77c-.11-.22-.2-.61-.27-1.17-.88.92-1.93,1.37-3.16,1.37-1.09,0-1.99-.31-2.69-.93-.7-.62-1.05-1.4-1.05-2.35,0-1.16.44-2.05,1.32-2.69.88-.64,2.11-.96,3.71-.96h1.85v-.87c0-.66-.2-1.19-.59-1.58-.4-.39-.98-.59-1.75-.59-.68,0-1.24.17-1.7.51-.46.34-.69.76-.69,1.24h-1.91c0-.55.2-1.09.59-1.6.39-.52.93-.92,1.6-1.23s1.41-.45,2.22-.45c1.28,0,2.28.32,3,.96.72.64,1.1,1.52,1.13,2.64v5.11c0,1.02.13,1.83.39,2.43v.16h-1.99ZM89.92,44.32c.59,0,1.16-.15,1.69-.46s.92-.71,1.16-1.2v-2.28h-1.49c-2.32,0-3.49.68-3.49,2.04,0,.59.2,1.06.59,1.39s.91.5,1.53.5Z" fill="#fff"/>
      <path d="M102.34,40.12c0-1.09.21-2.06.64-2.93.43-.87,1.02-1.54,1.78-2.01.76-.47,1.63-.71,2.61-.71,1.51,0,2.73.52,3.67,1.57.93,1.04,1.4,2.44,1.4,4.17v.13c0,1.08-.21,2.05-.62,2.91-.41.86-1,1.53-1.77,2-.77.48-1.65.72-2.65.72-1.5,0-2.72-.52-3.66-1.57-.93-1.05-1.4-2.43-1.4-4.15v-.13ZM104.24,40.34c0,1.23.29,2.22.86,2.96s1.33,1.12,2.29,1.12,1.73-.38,2.3-1.13c.57-.75.85-1.81.85-3.17,0-1.22-.29-2.2-.87-2.96-.58-.75-1.34-1.13-2.3-1.13s-1.69.37-2.27,1.12-.86,1.81-.86,3.2Z" fill="#fff"/>
      <path d="M123.68,43.19l2.75-8.52h1.94l-3.98,11.09h-1.45l-4.02-11.09h1.94l2.82,8.52Z" fill="#fff"/>
      <path d="M132.27,30.03h2.3l-2.75,3.02h-1.53s1.98-3.02,1.98-3.02ZM132.25,45.77h-1.91v-11.09h1.91v11.09Z" fill="#fff"/>
      <path d="M134.91,40.13c0-1.7.4-3.07,1.21-4.11.81-1.04,1.86-1.55,3.17-1.55s2.33.44,3.09,1.33v-5.78h1.9v15.75h-1.74l-.09-1.19c-.76.93-1.81,1.39-3.17,1.39s-2.33-.53-3.14-1.58c-.81-1.05-1.22-2.43-1.22-4.12v-.14ZM136.81,40.34c0,1.26.26,2.24.78,2.95s1.24,1.07,2.15,1.07c1.2,0,2.08-.54,2.64-1.62v-5.1c-.57-1.05-1.44-1.57-2.61-1.57-.93,0-1.65.36-2.17,1.08s-.78,1.78-.78,3.19Z" fill="#fff"/>
      <path d="M151.82,45.97c-1.5,0-2.73-.49-3.67-1.48-.94-.99-1.42-2.31-1.42-3.96v-.35c0-1.1.21-2.08.63-2.95.42-.87,1.01-1.54,1.76-2.03.76-.49,1.57-.73,2.46-.73,1.44,0,2.56.48,3.36,1.42.8.95,1.2,2.31,1.2,4.08v.79h-7.52c.03,1.09.35,1.98.96,2.65.61.67,1.39,1.01,2.33,1.01.67,0,1.24-.14,1.7-.41.46-.27.87-.63,1.22-1.09l1.16.9c-.93,1.43-2.32,2.14-4.18,2.14ZM151.59,36.03c-.77,0-1.41.28-1.93.84-.52.56-.84,1.34-.96,2.34h5.56v-.14c-.05-.96-.31-1.71-.78-2.24-.46-.53-1.09-.79-1.89-.79Z" fill="#fff"/>
      <path d="M157.84,40.12c0-1.09.21-2.06.64-2.93.43-.87,1.02-1.54,1.78-2.01.76-.47,1.63-.71,2.61-.71,1.51,0,2.73.52,3.67,1.57.93,1.04,1.4,2.44,1.4,4.17v.13c0,1.08-.21,2.05-.62,2.91-.41.86-1,1.53-1.77,2-.77.48-1.65.72-2.65.72-1.5,0-2.72-.52-3.66-1.57-.93-1.05-1.4-2.43-1.4-4.15v-.13ZM159.75,40.34c0,1.23.29,2.22.86,2.96s1.33,1.12,2.29,1.12,1.73-.38,2.3-1.13c.57-.75.85-1.81.85-3.17,0-1.22-.29-2.2-.87-2.96-.58-.75-1.34-1.13-2.3-1.13s-1.69.37-2.27,1.12-.86,1.81-.86,3.2Z" fill="#fff"/>
      <path d="M182.37,45.77c-.11-.22-.2-.61-.27-1.17-.88.92-1.93,1.37-3.16,1.37-1.09,0-1.99-.31-2.69-.93-.7-.62-1.05-1.4-1.05-2.35,0-1.16.44-2.05,1.32-2.69.88-.64,2.11-.96,3.71-.96h1.85v-.87c0-.66-.2-1.19-.59-1.58-.4-.39-.98-.59-1.75-.59-.68,0-1.24.17-1.7.51-.46.34-.69.76-.69,1.24h-1.91c0-.55.2-1.09.59-1.6.39-.52.93-.92,1.6-1.23s1.41-.45,2.22-.45c1.28,0,2.28.32,3,.96.72.64,1.1,1.52,1.13,2.64v5.11c0,1.02.13,1.83.39,2.43v.16h-1.99ZM179.22,44.32c.59,0,1.16-.15,1.69-.46s.92-.71,1.16-1.2v-2.28h-1.49c-2.32,0-3.49.68-3.49,2.04,0,.59.2,1.06.59,1.39s.91.5,1.53.5Z" fill="#fff"/>
      <path d="M189.52,31.99v2.69h2.07v1.47h-2.07v6.89c0,.44.09.78.28,1s.5.33.94.33c.22,0,.52-.04.9-.12v1.53c-.5.14-.98.2-1.46.2-.85,0-1.49-.26-1.92-.77-.43-.51-.65-1.24-.65-2.18v-6.88h-2.02v-1.47h2.02v-2.69h1.9Z" fill="#fff"/>
      <path d="M198.41,45.97c-1.5,0-2.73-.49-3.67-1.48-.94-.99-1.42-2.31-1.42-3.96v-.35c0-1.1.21-2.08.63-2.95.42-.87,1.01-1.54,1.76-2.03.76-.49,1.57-.73,2.46-.73,1.44,0,2.56.48,3.36,1.42.8.95,1.2,2.31,1.2,4.08v.79h-7.52c.03,1.09.35,1.98.96,2.65.61.67,1.39,1.01,2.33,1.01.67,0,1.24-.14,1.7-.41.46-.27.87-.63,1.22-1.09l1.16.9c-.93,1.43-2.32,2.14-4.18,2.14ZM198.17,36.03c-.77,0-1.41.28-1.93.84-.52.56-.84,1.34-.96,2.34h5.56v-.14c-.05-.96-.31-1.71-.78-2.24-.46-.53-1.09-.79-1.89-.79ZM199.09,30.02h2.3l-2.75,3.01h-1.53s1.98-3.01,1.98-3.01Z" fill="#fff"/>
      <path d="M209.62,40.12c0-1.09.21-2.06.64-2.93.43-.87,1.02-1.54,1.78-2.01.76-.47,1.63-.71,2.61-.71,1.51,0,2.73.52,3.67,1.57.93,1.04,1.4,2.44,1.4,4.17v.13c0,1.08-.21,2.05-.62,2.91-.41.86-1,1.53-1.77,2-.77.48-1.65.72-2.65.72-1.5,0-2.72-.52-3.66-1.57-.93-1.05-1.4-2.43-1.4-4.15v-.13ZM211.53,40.34c0,1.23.29,2.22.86,2.96s1.33,1.12,2.29,1.12,1.73-.38,2.3-1.13c.57-.75.85-1.81.85-3.17,0-1.22-.29-2.2-.87-2.96-.58-.75-1.34-1.13-2.3-1.13s-1.69.37-2.27,1.12-.86,1.81-.86,3.2Z" fill="#fff"/>
      <path d="M29.01,70.97v-9.63h-1.75v-1.47h1.75v-1.14c0-1.19.32-2.11.95-2.76s1.53-.97,2.7-.97c.44,0,.87.06,1.3.17l-.1,1.53c-.32-.06-.66-.09-1.03-.09-.62,0-1.09.18-1.43.54s-.5.88-.5,1.55v1.17h2.37v1.47h-2.37v9.63h-1.9Z" fill="#fff"/>
      <path d="M35.38,56.93c0-.31.09-.57.28-.78s.47-.32.84-.32.65.11.84.32.29.47.29.78-.1.56-.29.77-.47.31-.84.31-.65-.1-.84-.31-.28-.46-.28-.77ZM37.43,70.97h-1.9v-11.09h1.9v11.09Z" fill="#fff"/>
      <path d="M42.25,59.87l.05,1.23c.81-.96,1.91-1.44,3.29-1.44,1.55,0,2.61.59,3.17,1.78.37-.53.85-.96,1.44-1.29.59-.33,1.29-.49,2.1-.49,2.43,0,3.67,1.29,3.71,3.87v7.43h-1.9v-7.32c0-.79-.18-1.39-.54-1.78-.36-.39-.97-.59-1.83-.59-.7,0-1.29.21-1.75.63-.46.42-.73.99-.81,1.7v7.36h-1.91v-7.27c0-1.61-.79-2.42-2.37-2.42-1.24,0-2.1.53-2.55,1.59v8.1h-1.9v-11.09h1.79Z" fill="#fff"/>
      <path d="M68.52,69.62c.68,0,1.27-.21,1.77-.62s.79-.92.84-1.54h1.79c-.03.63-.25,1.24-.66,1.81s-.94,1.03-1.62,1.37-1.39.51-2.14.51c-1.51,0-2.71-.5-3.6-1.51-.89-1.01-1.34-2.39-1.34-4.14v-.32c0-1.08.2-2.04.59-2.88.4-.84.97-1.49,1.71-1.96s1.62-.7,2.63-.7c1.24,0,2.28.37,3.1,1.12.82.75,1.26,1.71,1.32,2.9h-1.79c-.05-.72-.33-1.31-.81-1.77-.49-.46-1.09-.69-1.81-.69-.96,0-1.71.35-2.24,1.04-.53.69-.79,1.7-.79,3.01v.36c0,1.28.26,2.26.79,2.95s1.28,1.04,2.26,1.04Z" fill="#fff"/>
      <path d="M74.56,65.32c0-1.09.21-2.06.64-2.93.43-.87,1.02-1.54,1.78-2.01.76-.47,1.63-.71,2.61-.71,1.51,0,2.73.52,3.67,1.57.93,1.04,1.4,2.44,1.4,4.17v.13c0,1.08-.21,2.05-.62,2.91-.41.86-1,1.53-1.77,2-.77.48-1.65.72-2.65.72-1.5,0-2.72-.52-3.66-1.57-.93-1.05-1.4-2.43-1.4-4.15v-.13ZM76.47,65.54c0,1.23.29,2.22.86,2.96s1.33,1.12,2.29,1.12,1.73-.38,2.3-1.13c.57-.75.85-1.81.85-3.17,0-1.22-.29-2.2-.87-2.96-.58-.75-1.34-1.13-2.3-1.13s-1.69.37-2.27,1.12-.86,1.81-.86,3.2Z" fill="#fff"/>
      <path d="M88.82,59.87l.05,1.23c.81-.96,1.91-1.44,3.29-1.44,1.55,0,2.61.59,3.17,1.78.37-.53.85-.96,1.44-1.29.59-.33,1.29-.49,2.1-.49,2.43,0,3.67,1.29,3.71,3.87v7.43h-1.9v-7.32c0-.79-.18-1.39-.54-1.78-.36-.39-.97-.59-1.83-.59-.7,0-1.29.21-1.75.63-.46.42-.73.99-.81,1.7v7.36h-1.91v-7.27c0-1.61-.79-2.42-2.37-2.42-1.24,0-2.1.53-2.55,1.59v8.1h-1.9v-11.09h1.79Z" fill="#fff"/>
      <path d="M117.49,70.97c-.11-.22-.2-.61-.27-1.17-.88.92-1.93,1.37-3.16,1.37-1.09,0-1.99-.31-2.69-.93-.7-.62-1.05-1.4-1.05-2.35,0-1.16.44-2.05,1.32-2.69.88-.64,2.11-.96,3.71-.96h1.85v-.87c0-.66-.2-1.19-.59-1.58-.4-.39-.98-.59-1.75-.59-.68,0-1.24.17-1.7.51-.46.34-.69.76-.69,1.24h-1.91c0-.55.2-1.09.59-1.6.39-.52.93-.92,1.6-1.23s1.41-.45,2.22-.45c1.28,0,2.28.32,3,.96.72.64,1.1,1.52,1.13,2.64v5.11c0,1.02.13,1.83.39,2.43v.16h-1.99ZM114.34,69.52c.59,0,1.16-.15,1.69-.46s.92-.71,1.16-1.2v-2.28h-1.49c-2.32,0-3.49.68-3.49,2.04,0,.59.2,1.06.59,1.39s.91.5,1.53.5Z" fill="#fff"/>
      <path d="M124.64,57.19v2.69h2.07v1.47h-2.07v6.89c0,.44.09.78.28,1s.5.33.94.33c.22,0,.52-.04.9-.12v1.53c-.5.14-.98.2-1.46.2-.85,0-1.49-.26-1.92-.77-.43-.51-.65-1.24-.65-2.18v-6.88h-2.02v-1.47h2.02v-2.69h1.9Z" fill="#fff"/>
      <path d="M133.53,71.17c-1.5,0-2.73-.49-3.67-1.48-.94-.99-1.42-2.31-1.42-3.96v-.35c0-1.1.21-2.08.63-2.95.42-.87,1.01-1.54,1.76-2.03.76-.49,1.57-.73,2.46-.73,1.44,0,2.56.48,3.36,1.42.8.95,1.2,2.31,1.2,4.08v.79h-7.52c.03,1.09.35,1.98.96,2.65.61.67,1.39,1.01,2.33,1.01.67,0,1.24-.14,1.7-.41.46-.27.87-.63,1.22-1.09l1.16.9c-.93,1.43-2.32,2.14-4.18,2.14ZM133.29,61.23c-.77,0-1.41.28-1.93.84-.52.56-.84,1.34-.96,2.34h5.56v-.14c-.05-.96-.31-1.71-.78-2.24-.46-.53-1.09-.79-1.89-.79Z" fill="#fff"/>
      <path d="M141.85,59.87l.06,1.39c.85-1.07,1.96-1.6,3.32-1.6,2.34,0,3.53,1.32,3.55,3.97v7.33h-1.9v-7.34c0-.8-.19-1.39-.55-1.77-.36-.38-.92-.57-1.68-.57-.62,0-1.16.16-1.62.49s-.83.76-1.09,1.29v7.91h-1.9v-11.09h1.79Z" fill="#fff"/>
      <path d="M156.09,69.62c.68,0,1.27-.21,1.77-.62s.79-.92.84-1.54h1.79c-.03.63-.25,1.24-.66,1.81s-.94,1.03-1.62,1.37-1.39.51-2.14.51c-1.51,0-2.71-.5-3.6-1.51-.89-1.01-1.34-2.39-1.34-4.14v-.32c0-1.08.2-2.04.59-2.88.4-.84.97-1.49,1.71-1.96s1.62-.7,2.63-.7c1.24,0,2.28.37,3.1,1.12.82.75,1.26,1.71,1.32,2.9h-1.79c-.05-.72-.33-1.31-.81-1.77-.49-.46-1.09-.69-1.81-.69-.96,0-1.71.35-2.24,1.04-.53.69-.79,1.7-.79,3.01v.36c0,1.28.26,2.26.79,2.95s1.28,1.04,2.26,1.04ZM156.4,71.06l-.12.53c1.05.19,1.57.78,1.57,1.77,0,.66-.27,1.19-.82,1.57-.55.39-1.31.58-2.29.58l-.07-1.1c.54,0,.96-.09,1.26-.27.3-.18.45-.43.45-.75,0-.3-.11-.52-.33-.67-.22-.14-.66-.25-1.33-.31l.33-1.38h1.36Z" fill="#fff"/>
      <path d="M169.48,70.97c-.11-.22-.2-.61-.27-1.17-.88.92-1.93,1.37-3.16,1.37-1.09,0-1.99-.31-2.69-.93-.7-.62-1.05-1.4-1.05-2.35,0-1.16.44-2.05,1.32-2.69.88-.64,2.11-.96,3.71-.96h1.85v-.87c0-.66-.2-1.19-.59-1.58-.4-.39-.98-.59-1.75-.59-.68,0-1.24.17-1.7.51-.46.34-.69.76-.69,1.24h-1.91c0-.55.2-1.09.59-1.6.39-.52.93-.92,1.6-1.23s1.41-.45,2.22-.45c1.28,0,2.28.32,3,.96.72.64,1.1,1.52,1.13,2.64v5.11c0,1.02.13,1.83.39,2.43v.16h-1.99ZM170.79,55.55c0,.74-.21,1.34-.63,1.79-.42.46-.94.69-1.57.69-.28,0-.52-.03-.73-.1s-.47-.21-.8-.42c-.33-.21-.57-.34-.72-.38-.15-.04-.32-.07-.51-.07-.28,0-.52.11-.72.32-.2.22-.3.49-.3.83l-1.27-.07c0-.73.21-1.34.62-1.81.41-.48.94-.72,1.57-.72.24,0,.45.04.65.1s.45.2.78.4.58.33.75.39c.17.06.37.09.58.09.29,0,.54-.12.73-.35.19-.23.29-.5.29-.81l1.27.12ZM166.33,69.52c.59,0,1.16-.15,1.69-.46s.92-.71,1.16-1.2v-2.28h-1.49c-2.32,0-3.49.68-3.49,2.04,0,.59.2,1.06.59,1.39s.91.5,1.53.5Z" fill="#fff"/>
      <path d="M173.55,65.32c0-1.09.21-2.06.64-2.93.43-.87,1.02-1.54,1.78-2.01.76-.47,1.63-.71,2.61-.71,1.51,0,2.73.52,3.67,1.57.93,1.04,1.4,2.44,1.4,4.17v.13c0,1.08-.21,2.05-.62,2.91-.41.86-1,1.53-1.77,2-.77.48-1.65.72-2.65.72-1.5,0-2.72-.52-3.66-1.57-.93-1.05-1.4-2.43-1.4-4.15v-.13ZM175.46,65.54c0,1.23.29,2.22.86,2.96s1.33,1.12,2.29,1.12,1.73-.38,2.3-1.13c.57-.75.85-1.81.85-3.17,0-1.22-.29-2.2-.87-2.96-.58-.75-1.34-1.13-2.3-1.13s-1.69.37-2.27,1.12-.86,1.81-.86,3.2Z" fill="#fff"/>
      <path d="M186.07,69.97c0-.33.1-.6.29-.82.2-.22.49-.33.88-.33s.69.11.89.33.3.49.3.82-.1.58-.3.79-.5.32-.89.32-.68-.11-.88-.32c-.19-.21-.29-.47-.29-.79Z" fill="#fff"/>
      <path d="M39.86,89.19c0,1.46-.25,2.74-.74,3.83-.49,1.09-1.19,1.92-2.09,2.5s-1.96.86-3.16.86-2.22-.29-3.13-.87c-.91-.58-1.62-1.4-2.12-2.47-.5-1.07-.76-2.31-.77-3.72v-1.08c0-1.44.25-2.7.75-3.8s1.2-1.94,2.12-2.53c.91-.58,1.96-.88,3.13-.88s2.25.29,3.16.87c.91.58,1.61,1.42,2.11,2.51.49,1.1.74,2.37.74,3.83v.94ZM37.9,88.22c0-1.77-.36-3.13-1.07-4.08-.71-.95-1.71-1.42-2.98-1.42s-2.22.47-2.94,1.42c-.71.95-1.08,2.26-1.1,3.94v1.1c0,1.72.36,3.06,1.08,4.04.72.98,1.71,1.47,2.98,1.47s2.26-.46,2.95-1.39c.7-.93,1.06-2.25,1.08-3.98v-1.11Z" fill="#fff"/>
      <path d="M47.25,90.53c0-1.74.4-3.12,1.2-4.14.8-1.01,1.87-1.52,3.22-1.52s2.35.44,3.11,1.32l.08-1.12h1.74v15.36h-1.9v-5.29c-.77.82-1.78,1.23-3.06,1.23-1.34,0-2.41-.52-3.2-1.56-.8-1.04-1.19-2.42-1.19-4.15v-.13ZM49.15,90.75c0,1.27.27,2.27.8,2.99s1.26,1.09,2.17,1.09c1.13,0,1.99-.5,2.58-1.5v-5.44c-.6-.98-1.46-1.47-2.56-1.47-.92,0-1.64.36-2.18,1.09-.54.73-.81,1.8-.81,3.23Z" fill="#fff"/>
      <path d="M66.5,95.07c-.74.87-1.82,1.3-3.25,1.3-1.18,0-2.08-.34-2.7-1.03-.62-.69-.93-1.7-.94-3.05v-7.22h1.9v7.17c0,1.68.68,2.52,2.05,2.52,1.45,0,2.41-.54,2.89-1.62v-8.07h1.9v11.09h-1.8l-.04-1.1Z" fill="#fff"/>
      <path d="M75.83,96.37c-1.5,0-2.73-.49-3.67-1.48-.94-.99-1.42-2.31-1.42-3.96v-.35c0-1.1.21-2.08.63-2.95.42-.87,1.01-1.54,1.76-2.03.76-.49,1.57-.73,2.46-.73,1.44,0,2.56.48,3.36,1.42.8.95,1.2,2.31,1.2,4.08v.79h-7.52c.03,1.09.35,1.98.96,2.65.61.67,1.39,1.01,2.33,1.01.67,0,1.24-.14,1.7-.41.46-.27.87-.63,1.22-1.09l1.16.9c-.93,1.43-2.32,2.14-4.18,2.14ZM75.6,86.43c-.77,0-1.41.28-1.93.84-.52.56-.84,1.34-.96,2.34h5.56v-.14c-.05-.96-.31-1.71-.78-2.24-.46-.53-1.09-.79-1.89-.79Z" fill="#fff"/>
      <path d="M91.21,93.59l2.75-8.52h1.94l-3.98,11.09h-1.45l-4.02-11.09h1.94l2.82,8.52Z" fill="#fff"/>
      <path d="M97.07,90.52c0-1.09.21-2.06.64-2.93.43-.87,1.02-1.54,1.78-2.01.76-.47,1.63-.71,2.61-.71,1.51,0,2.73.52,3.67,1.57.93,1.04,1.4,2.44,1.4,4.17v.13c0,1.08-.21,2.05-.62,2.91-.41.86-1,1.53-1.77,2-.77.48-1.65.72-2.65.72-1.5,0-2.72-.52-3.66-1.57-.93-1.05-1.4-2.43-1.4-4.15v-.13ZM98.97,90.75c0,1.23.29,2.22.86,2.96s1.33,1.12,2.29,1.12,1.73-.38,2.3-1.13c.57-.75.85-1.81.85-3.17,0-1.22-.29-2.2-.87-2.96-.58-.75-1.34-1.13-2.3-1.13s-1.69.37-2.27,1.12-.86,1.81-.86,3.2Z" fill="#fff"/>
      <path d="M114,94.83c.68,0,1.27-.21,1.77-.62s.79-.92.84-1.54h1.79c-.03.63-.25,1.24-.66,1.81s-.94,1.03-1.62,1.37-1.39.51-2.14.51c-1.51,0-2.71-.5-3.6-1.51-.89-1.01-1.34-2.39-1.34-4.14v-.32c0-1.08.2-2.04.59-2.88.4-.84.97-1.49,1.71-1.96s1.62-.7,2.63-.7c1.24,0,2.28.37,3.1,1.12.82.75,1.26,1.71,1.32,2.9h-1.79c-.05-.72-.33-1.31-.81-1.77-.49-.46-1.09-.69-1.81-.69-.96,0-1.71.35-2.24,1.04-.53.69-.79,1.7-.79,3.01v.36c0,1.28.26,2.26.79,2.95s1.28,1.04,2.26,1.04Z" fill="#fff"/>
      <path d="M125.14,96.37c-1.5,0-2.73-.49-3.67-1.48-.94-.99-1.42-2.31-1.42-3.96v-.35c0-1.1.21-2.08.63-2.95.42-.87,1.01-1.54,1.76-2.03.76-.49,1.57-.73,2.46-.73,1.44,0,2.56.48,3.36,1.42.8.95,1.2,2.31,1.2,4.08v.79h-7.52c.03,1.09.35,1.98.96,2.65.61.67,1.39,1.01,2.33,1.01.67,0,1.24-.14,1.7-.41.46-.27.87-.63,1.22-1.09l1.16.9c-.93,1.43-2.32,2.14-4.18,2.14ZM128,83.22v.1h-1.57s-1.54-1.74-1.54-1.74l-1.53,1.74h-1.57v-.13l2.52-2.78h1.15l2.53,2.8ZM124.91,86.43c-.77,0-1.41.28-1.93.84-.52.56-.84,1.34-.96,2.34h5.56v-.14c-.05-.96-.31-1.71-.78-2.24-.46-.53-1.09-.79-1.89-.79Z" fill="#fff"/>
      <path d="M143.71,96.17c-.11-.22-.2-.61-.27-1.17-.88.92-1.93,1.37-3.16,1.37-1.09,0-1.99-.31-2.69-.93-.7-.62-1.05-1.4-1.05-2.35,0-1.16.44-2.05,1.32-2.69.88-.64,2.11-.96,3.71-.96h1.85v-.87c0-.66-.2-1.19-.59-1.58-.4-.39-.98-.59-1.75-.59-.68,0-1.24.17-1.7.51-.46.34-.69.76-.69,1.24h-1.91c0-.55.2-1.09.59-1.6.39-.52.93-.92,1.6-1.23s1.41-.45,2.22-.45c1.28,0,2.28.32,3,.96.72.64,1.1,1.52,1.13,2.64v5.11c0,1.02.13,1.83.39,2.43v.16h-1.99ZM140.56,94.72c.59,0,1.16-.15,1.69-.46s.92-.71,1.16-1.2v-2.28h-1.49c-2.32,0-3.49.68-3.49,2.04,0,.59.2,1.06.59,1.39s.91.5,1.53.5Z" fill="#fff"/>
      <path d="M157.66,90.75c0,1.69-.39,3.05-1.16,4.08-.77,1.03-1.82,1.55-3.14,1.55s-2.41-.43-3.18-1.28v5.34h-1.9v-15.36h1.73l.09,1.23c.77-.96,1.85-1.44,3.22-1.44s2.39.5,3.16,1.51c.78,1.01,1.16,2.4,1.16,4.19v.17ZM155.76,90.53c0-1.25-.27-2.24-.8-2.96-.53-.72-1.26-1.09-2.19-1.09-1.15,0-2.01.51-2.58,1.53v5.3c.57,1.01,1.44,1.52,2.6,1.52.91,0,1.63-.36,2.17-1.08.54-.72.81-1.79.81-3.21Z" fill="#fff"/>
      <path d="M165.43,86.78c-.29-.05-.6-.07-.93-.07-1.24,0-2.09.53-2.53,1.59v7.88h-1.9v-11.09h1.85l.03,1.28c.62-.99,1.5-1.49,2.65-1.49.37,0,.65.05.84.14v1.76Z" fill="#fff"/>
      <path d="M171.58,96.37c-1.5,0-2.73-.49-3.67-1.48-.94-.99-1.42-2.31-1.42-3.96v-.35c0-1.1.21-2.08.63-2.95.42-.87,1.01-1.54,1.76-2.03.76-.49,1.57-.73,2.46-.73,1.44,0,2.56.48,3.36,1.42.8.95,1.2,2.31,1.2,4.08v.79h-7.52c.03,1.09.35,1.98.96,2.65.61.67,1.39,1.01,2.33,1.01.67,0,1.24-.14,1.7-.41.46-.27.87-.63,1.22-1.09l1.16.9c-.93,1.43-2.32,2.14-4.18,2.14ZM171.35,86.43c-.77,0-1.41.28-1.93.84-.52.56-.84,1.34-.96,2.34h5.56v-.14c-.05-.96-.31-1.71-.78-2.24-.46-.53-1.09-.79-1.89-.79Z" fill="#fff"/>
      <path d="M179.9,85.07l.06,1.39c.85-1.07,1.96-1.6,3.32-1.6,2.34,0,3.53,1.32,3.55,3.97v7.33h-1.9v-7.34c0-.8-.19-1.39-.55-1.77-.36-.38-.92-.57-1.68-.57-.62,0-1.16.16-1.62.49s-.83.76-1.09,1.29v7.91h-1.9v-11.09h1.79Z" fill="#fff"/>
      <path d="M189.23,90.53c0-1.7.4-3.07,1.21-4.11.81-1.04,1.86-1.55,3.17-1.55s2.33.44,3.09,1.33v-5.78h1.9v15.75h-1.74l-.09-1.19c-.76.93-1.81,1.39-3.17,1.39s-2.33-.53-3.14-1.58c-.81-1.05-1.22-2.43-1.22-4.12v-.14ZM191.13,90.75c0,1.26.26,2.24.78,2.95s1.24,1.07,2.15,1.07c1.2,0,2.08-.54,2.64-1.62v-5.1c-.57-1.05-1.44-1.57-2.61-1.57-.93,0-1.65.36-2.17,1.08s-.78,1.78-.78,3.19Z" fill="#fff"/>
      <path d="M206.14,96.37c-1.5,0-2.73-.49-3.67-1.48-.94-.99-1.42-2.31-1.42-3.96v-.35c0-1.1.21-2.08.63-2.95.42-.87,1.01-1.54,1.76-2.03.76-.49,1.57-.73,2.46-.73,1.44,0,2.56.48,3.36,1.42.8.95,1.2,2.31,1.2,4.08v.79h-7.52c.03,1.09.35,1.98.96,2.65.61.67,1.39,1.01,2.33,1.01.67,0,1.24-.14,1.7-.41.46-.27.87-.63,1.22-1.09l1.16.9c-.93,1.43-2.32,2.14-4.18,2.14ZM205.9,86.43c-.77,0-1.41.28-1.93.84-.52.56-.84,1.34-.96,2.34h5.56v-.14c-.05-.96-.31-1.71-.78-2.24-.46-.53-1.09-.79-1.89-.79Z" fill="#fff"/>
      <path d="M218.02,86.78c-.29-.05-.6-.07-.93-.07-1.24,0-2.09.53-2.53,1.59v7.88h-1.9v-11.09h1.85l.03,1.28c.62-.99,1.5-1.49,2.65-1.49.37,0,.65.05.84.14v1.76Z" fill="#fff"/>
      <path d="M34.93,121.37c-.11-.22-.2-.61-.27-1.17-.88.92-1.93,1.37-3.16,1.37-1.09,0-1.99-.31-2.69-.93-.7-.62-1.05-1.4-1.05-2.35,0-1.16.44-2.05,1.32-2.69.88-.64,2.11-.96,3.71-.96h1.85v-.87c0-.66-.2-1.19-.59-1.58-.4-.39-.98-.59-1.75-.59-.68,0-1.24.17-1.7.51-.46.34-.69.76-.69,1.24h-1.91c0-.55.2-1.09.59-1.6.39-.52.93-.92,1.6-1.23s1.41-.45,2.22-.45c1.28,0,2.28.32,3,.96.72.64,1.1,1.52,1.13,2.64v5.11c0,1.02.13,1.83.39,2.43v.16h-1.99ZM31.78,119.92c.59,0,1.16-.15,1.69-.46s.92-.71,1.16-1.2v-2.28h-1.49c-2.32,0-3.49.68-3.49,2.04,0,.59.2,1.06.59,1.39s.91.5,1.53.5Z" fill="#fff"/>
      <path d="M39.04,115.73c0-1.74.4-3.12,1.2-4.14.8-1.01,1.87-1.52,3.22-1.52s2.35.44,3.11,1.32l.08-1.12h1.74v15.36h-1.9v-5.29c-.77.82-1.78,1.23-3.06,1.23-1.34,0-2.41-.52-3.2-1.56-.8-1.04-1.19-2.42-1.19-4.15v-.13ZM40.94,115.94c0,1.27.27,2.27.8,2.99s1.26,1.09,2.17,1.09c1.13,0,1.99-.5,2.58-1.5v-5.44c-.6-.98-1.46-1.47-2.56-1.47-.92,0-1.64.36-2.18,1.09-.54.73-.81,1.8-.81,3.23Z" fill="#fff"/>
      <path d="M58.29,120.27c-.74.87-1.82,1.3-3.25,1.3-1.18,0-2.08-.34-2.7-1.03-.62-.69-.93-1.7-.94-3.05v-7.22h1.9v7.17c0,1.68.68,2.52,2.05,2.52,1.45,0,2.41-.54,2.89-1.62v-8.07h1.9v11.09h-1.8l-.04-1.1Z" fill="#fff"/>
      <path d="M63.02,107.33c0-.31.09-.57.28-.78s.47-.32.84-.32.65.11.84.32.29.47.29.78-.1.56-.29.77-.47.31-.84.31-.65-.1-.84-.31-.28-.46-.28-.77ZM65.07,121.37h-1.9v-11.09h1.9v11.09Z" fill="#fff"/>
      <path d="M76.97,118.79l2.75-8.52h1.94l-3.98,11.09h-1.45l-4.02-11.09h1.94l2.82,8.52Z" fill="#fff"/>
      <path d="M90.18,121.37c-.11-.22-.2-.61-.27-1.17-.88.92-1.93,1.37-3.16,1.37-1.09,0-1.99-.31-2.69-.93-.7-.62-1.05-1.4-1.05-2.35,0-1.16.44-2.05,1.32-2.69.88-.64,2.11-.96,3.71-.96h1.85v-.87c0-.66-.2-1.19-.59-1.58-.4-.39-.98-.59-1.75-.59-.68,0-1.24.17-1.7.51-.46.34-.69.76-.69,1.24h-1.91c0-.55.2-1.09.59-1.6.39-.52.93-.92,1.6-1.23s1.41-.45,2.22-.45c1.28,0,2.28.32,3,.96.72.64,1.1,1.52,1.13,2.64v5.11c0,1.02.13,1.83.39,2.43v.16h-1.99ZM87.03,119.92c.59,0,1.16-.15,1.69-.46s.92-.71,1.16-1.2v-2.28h-1.49c-2.32,0-3.49.68-3.49,2.04,0,.59.2,1.06.59,1.39s.91.5,1.53.5Z" fill="#fff"/>
      <path d="M94.76,107.33c0-.31.09-.57.28-.78s.47-.32.84-.32.65.11.84.32.29.47.29.78-.1.56-.29.77-.47.31-.84.31-.65-.1-.84-.31-.28-.46-.28-.77ZM96.81,121.37h-1.9v-11.09h1.9v11.09Z" fill="#fff"/>
      <path d="M111.5,118.42c0-.51-.19-.91-.58-1.19-.39-.28-1.06-.53-2.02-.73s-1.72-.45-2.29-.74c-.56-.29-.98-.63-1.25-1.03-.27-.4-.41-.87-.41-1.41,0-.91.38-1.68,1.15-2.31.77-.63,1.75-.94,2.95-.94,1.26,0,2.28.33,3.06.97.78.65,1.17,1.48,1.17,2.49h-1.91c0-.52-.22-.97-.66-1.34-.44-.38-1-.56-1.67-.56s-1.23.15-1.62.45-.58.69-.58,1.18c0,.46.18.8.54,1.04s1.02.46,1.96.67c.95.21,1.71.46,2.3.76.59.29,1.02.65,1.31,1.06.28.41.43.92.43,1.51,0,.99-.4,1.79-1.19,2.38-.79.6-1.82.9-3.09.9-.89,0-1.67-.16-2.36-.47s-1.22-.75-1.6-1.32c-.39-.56-.58-1.17-.58-1.83h1.9c.03.63.29,1.14.76,1.51.48.37,1.1.56,1.88.56.72,0,1.29-.14,1.73-.44.43-.29.65-.68.65-1.16Z" fill="#fff"/>
      <path d="M120.48,121.57c-1.5,0-2.73-.49-3.67-1.48-.94-.99-1.42-2.31-1.42-3.96v-.35c0-1.1.21-2.08.63-2.95.42-.87,1.01-1.54,1.76-2.03.76-.49,1.57-.73,2.46-.73,1.44,0,2.56.48,3.36,1.42.8.95,1.2,2.31,1.2,4.08v.79h-7.52c.03,1.09.35,1.98.96,2.65.61.67,1.39,1.01,2.33,1.01.67,0,1.24-.14,1.7-.41.46-.27.87-.63,1.22-1.09l1.16.9c-.93,1.43-2.32,2.14-4.18,2.14ZM120.24,111.63c-.77,0-1.41.28-1.93.84-.52.56-.84,1.34-.96,2.34h5.56v-.14c-.05-.96-.31-1.71-.78-2.24-.46-.53-1.09-.79-1.89-.79Z" fill="#fff"/>
      <path d="M132.36,111.98c-.29-.05-.6-.07-.93-.07-1.24,0-2.09.53-2.53,1.59v7.88h-1.9v-11.09h1.85l.03,1.28c.62-.99,1.5-1.49,2.65-1.49.37,0,.65.05.84.14v1.76Z" fill="#fff"/>
      <path d="M137.95,118.79l2.75-8.52h1.94l-3.98,11.09h-1.45l-4.02-11.09h1.94l2.82,8.52Z" fill="#fff"/>
      <path d="M144.47,107.33c0-.31.09-.57.28-.78s.47-.32.84-.32.65.11.84.32.29.47.29.78-.1.56-.29.77-.47.31-.84.31-.65-.1-.84-.31-.28-.46-.28-.77ZM146.52,121.37h-1.9v-11.09h1.9v11.09Z" fill="#fff"/>
      <path d="M154.92,111.98c-.29-.05-.6-.07-.93-.07-1.24,0-2.09.53-2.53,1.59v7.88h-1.9v-11.09h1.85l.03,1.28c.62-.99,1.5-1.49,2.65-1.49.37,0,.65.05.84.14v1.76Z" fill="#fff"/>
      <path d="M171.23,115.94c0,1.69-.39,3.05-1.16,4.08-.77,1.03-1.82,1.55-3.14,1.55s-2.41-.43-3.18-1.28v5.34h-1.9v-15.36h1.73l.09,1.23c.77-.96,1.85-1.44,3.22-1.44s2.39.5,3.16,1.51c.78,1.01,1.16,2.4,1.16,4.19v.17ZM169.34,115.73c0-1.25-.27-2.24-.8-2.96-.53-.72-1.26-1.09-2.19-1.09-1.15,0-2.01.51-2.58,1.53v5.3c.57,1.01,1.44,1.52,2.6,1.52.91,0,1.63-.36,2.17-1.08.54-.72.81-1.79.81-3.21Z" fill="#fff"/>
      <path d="M180.49,121.37c-.11-.22-.2-.61-.27-1.17-.88.92-1.93,1.37-3.16,1.37-1.09,0-1.99-.31-2.69-.93-.7-.62-1.05-1.4-1.05-2.35,0-1.16.44-2.05,1.32-2.69.88-.64,2.11-.96,3.71-.96h1.85v-.87c0-.66-.2-1.19-.59-1.58-.4-.39-.98-.59-1.75-.59-.68,0-1.24.17-1.7.51-.46.34-.69.76-.69,1.24h-1.91c0-.55.2-1.09.59-1.6.39-.52.93-.92,1.6-1.23s1.41-.45,2.22-.45c1.28,0,2.28.32,3,.96.72.64,1.1,1.52,1.13,2.64v5.11c0,1.02.13,1.83.39,2.43v.16h-1.99ZM177.34,119.92c.59,0,1.16-.15,1.69-.46s.92-.71,1.16-1.2v-2.28h-1.49c-2.32,0-3.49.68-3.49,2.04,0,.59.2,1.06.59,1.39s.91.5,1.53.5Z" fill="#fff"/>
      <path d="M190.43,111.98c-.29-.05-.6-.07-.93-.07-1.24,0-2.09.53-2.53,1.59v7.88h-1.9v-11.09h1.85l.03,1.28c.62-.99,1.5-1.49,2.65-1.49.37,0,.65.05.84.14v1.76Z" fill="#fff"/>
      <path d="M198.61,121.37c-.11-.22-.2-.61-.27-1.17-.88.92-1.93,1.37-3.16,1.37-1.09,0-1.99-.31-2.69-.93-.7-.62-1.05-1.4-1.05-2.35,0-1.16.44-2.05,1.32-2.69.88-.64,2.11-.96,3.71-.96h1.85v-.87c0-.66-.2-1.19-.59-1.58-.4-.39-.98-.59-1.75-.59-.68,0-1.24.17-1.7.51-.46.34-.69.76-.69,1.24h-1.91c0-.55.2-1.09.59-1.6.39-.52.93-.92,1.6-1.23s1.41-.45,2.22-.45c1.28,0,2.28.32,3,.96.72.64,1.1,1.52,1.13,2.64v5.11c0,1.02.13,1.83.39,2.43v.16h-1.99ZM195.46,119.92c.59,0,1.16-.15,1.69-.46s.92-.71,1.16-1.2v-2.28h-1.49c-2.32,0-3.49.68-3.49,2.04,0,.59.2,1.06.59,1.39s.91.5,1.53.5Z" fill="#fff"/>
      <path d="M215.23,121.37c-.11-.22-.2-.61-.27-1.17-.88.92-1.93,1.37-3.16,1.37-1.09,0-1.99-.31-2.69-.93-.7-.62-1.05-1.4-1.05-2.35,0-1.16.44-2.05,1.32-2.69.88-.64,2.11-.96,3.71-.96h1.85v-.87c0-.66-.2-1.19-.59-1.58-.4-.39-.98-.59-1.75-.59-.68,0-1.24.17-1.7.51-.46.34-.69.76-.69,1.24h-1.91c0-.55.2-1.09.59-1.6.39-.52.93-.92,1.6-1.23s1.41-.45,2.22-.45c1.28,0,2.28.32,3,.96.72.64,1.1,1.52,1.13,2.64v5.11c0,1.02.13,1.83.39,2.43v.16h-1.99ZM212.08,119.92c.59,0,1.16-.15,1.69-.46s.92-.71,1.16-1.2v-2.28h-1.49c-2.32,0-3.49.68-3.49,2.04,0,.59.2,1.06.59,1.39s.91.5,1.53.5Z" fill="#fff"/>
      <path d="M37.45,141.14c0,1.69-.39,3.05-1.16,4.08-.77,1.03-1.82,1.55-3.14,1.55s-2.41-.43-3.18-1.28v5.34h-1.9v-15.36h1.73l.09,1.23c.77-.96,1.85-1.44,3.22-1.44s2.39.5,3.16,1.51c.78,1.01,1.16,2.4,1.16,4.19v.17ZM35.55,140.93c0-1.25-.27-2.24-.8-2.96-.53-.72-1.26-1.09-2.19-1.09-1.15,0-2.01.51-2.58,1.53v5.3c.57,1.01,1.44,1.52,2.6,1.52.91,0,1.63-.36,2.17-1.08.54-.72.81-1.79.81-3.21Z" fill="#fff"/>
      <path d="M45.22,137.18c-.29-.05-.6-.07-.93-.07-1.24,0-2.09.53-2.53,1.59v7.88h-1.9v-11.09h1.85l.03,1.28c.62-.99,1.5-1.49,2.65-1.49.37,0,.65.05.84.14v1.76Z" fill="#fff"/>
      <path d="M46.26,140.92c0-1.09.21-2.06.64-2.93.43-.87,1.02-1.54,1.78-2.01.76-.47,1.63-.71,2.61-.71,1.51,0,2.73.52,3.67,1.57.93,1.04,1.4,2.44,1.4,4.17v.13c0,1.08-.21,2.05-.62,2.91-.41.86-1,1.53-1.77,2-.77.48-1.65.72-2.65.72-1.5,0-2.72-.52-3.66-1.57-.93-1.05-1.4-2.43-1.4-4.15v-.13ZM48.17,141.14c0,1.23.29,2.22.86,2.96s1.33,1.12,2.29,1.12,1.73-.38,2.3-1.13c.57-.75.85-1.81.85-3.17,0-1.22-.29-2.2-.87-2.96-.58-.75-1.34-1.13-2.3-1.13s-1.69.37-2.27,1.12-.86,1.81-.86,3.2ZM52.15,130.82h2.3l-2.75,3.01h-1.53s1.98-3.01,1.98-3.01Z" fill="#fff"/>
      <path d="M62.24,139.52l2.46-4.05h2.21l-3.63,5.49,3.74,5.61h-2.19l-2.56-4.15-2.56,4.15h-2.2l3.74-5.61-3.63-5.49h2.19l2.43,4.05Z" fill="#fff"/>
      <path d="M68.94,132.53c0-.31.09-.57.28-.78s.47-.32.84-.32.65.11.84.32.29.47.29.78-.1.56-.29.77-.47.31-.84.31-.65-.1-.84-.31-.28-.46-.28-.77ZM70.99,146.57h-1.9v-11.09h1.9v11.09Z" fill="#fff"/>
      <path d="M75.81,135.47l.05,1.23c.81-.96,1.91-1.44,3.29-1.44,1.55,0,2.61.59,3.17,1.78.37-.53.85-.96,1.44-1.29.59-.33,1.29-.49,2.1-.49,2.43,0,3.67,1.29,3.71,3.87v7.43h-1.9v-7.32c0-.79-.18-1.39-.54-1.78-.36-.39-.97-.59-1.83-.59-.7,0-1.29.21-1.75.63-.46.42-.73.99-.81,1.7v7.36h-1.91v-7.27c0-1.61-.79-2.42-2.37-2.42-1.24,0-2.1.53-2.55,1.59v8.1h-1.9v-11.09h1.79Z" fill="#fff"/>
      <path d="M99.28,146.57c-.11-.22-.2-.61-.27-1.17-.88.92-1.93,1.37-3.16,1.37-1.09,0-1.99-.31-2.69-.93-.7-.62-1.05-1.4-1.05-2.35,0-1.16.44-2.05,1.32-2.69.88-.64,2.11-.96,3.71-.96h1.85v-.87c0-.66-.2-1.19-.59-1.58-.4-.39-.98-.59-1.75-.59-.68,0-1.24.17-1.7.51-.46.34-.69.76-.69,1.24h-1.91c0-.55.2-1.09.59-1.6.39-.52.93-.92,1.6-1.23s1.41-.45,2.22-.45c1.28,0,2.28.32,3,.96.72.64,1.1,1.52,1.13,2.64v5.11c0,1.02.13,1.83.39,2.43v.16h-1.99ZM96.13,145.12c.59,0,1.16-.15,1.69-.46s.92-.71,1.16-1.2v-2.28h-1.49c-2.32,0-3.49.68-3.49,2.04,0,.59.2,1.06.59,1.39s.91.5,1.53.5Z" fill="#fff"/>
      <path d="M109.99,146.57v-9.63h-1.75v-1.47h1.75v-1.14c0-1.19.32-2.11.95-2.76s1.53-.97,2.7-.97c.44,0,.87.06,1.3.17l-.1,1.53c-.32-.06-.66-.09-1.03-.09-.62,0-1.09.18-1.43.54s-.5.88-.5,1.55v1.17h2.37v1.47h-2.37v9.63h-1.9Z" fill="#fff"/>
      <path d="M123.19,146.57c-.11-.22-.2-.61-.27-1.17-.88.92-1.93,1.37-3.16,1.37-1.09,0-1.99-.31-2.69-.93-.7-.62-1.05-1.4-1.05-2.35,0-1.16.44-2.05,1.32-2.69.88-.64,2.11-.96,3.71-.96h1.85v-.87c0-.66-.2-1.19-.59-1.58-.4-.39-.98-.59-1.75-.59-.68,0-1.24.17-1.7.51-.46.34-.69.76-.69,1.24h-1.91c0-.55.2-1.09.59-1.6.39-.52.93-.92,1.6-1.23s1.41-.45,2.22-.45c1.28,0,2.28.32,3,.96.72.64,1.1,1.52,1.13,2.64v5.11c0,1.02.13,1.83.39,2.43v.16h-1.99ZM120.05,145.12c.59,0,1.16-.15,1.69-.46s.92-.71,1.16-1.2v-2.28h-1.49c-2.32,0-3.49.68-3.49,2.04,0,.59.2,1.06.59,1.39s.91.5,1.53.5Z" fill="#fff"/>
      <path d="M134.23,143.62c0-.51-.19-.91-.58-1.19-.39-.28-1.06-.53-2.02-.73s-1.72-.45-2.29-.74c-.56-.29-.98-.63-1.25-1.03-.27-.4-.41-.87-.41-1.41,0-.91.38-1.68,1.15-2.31.77-.63,1.75-.94,2.95-.94,1.26,0,2.28.33,3.06.97.78.65,1.17,1.48,1.17,2.49h-1.91c0-.52-.22-.97-.66-1.34-.44-.38-1-.56-1.67-.56s-1.23.15-1.62.45-.58.69-.58,1.18c0,.46.18.8.54,1.04s1.02.46,1.96.67c.95.21,1.71.46,2.3.76.59.29,1.02.65,1.31,1.06.28.41.43.92.43,1.51,0,.99-.4,1.79-1.19,2.38-.79.6-1.82.9-3.09.9-.89,0-1.67-.16-2.36-.47s-1.22-.75-1.6-1.32c-.39-.56-.58-1.17-.58-1.83h1.9c.03.63.29,1.14.76,1.51.48.37,1.1.56,1.88.56.72,0,1.29-.14,1.73-.44.43-.29.65-.68.65-1.16Z" fill="#fff"/>
      <path d="M143.2,146.77c-1.5,0-2.73-.49-3.67-1.48-.94-.99-1.42-2.31-1.42-3.96v-.35c0-1.1.21-2.08.63-2.95.42-.87,1.01-1.54,1.76-2.03.76-.49,1.57-.73,2.46-.73,1.44,0,2.56.48,3.36,1.42.8.95,1.2,2.31,1.2,4.08v.79h-7.52c.03,1.09.35,1.98.96,2.65.61.67,1.39,1.01,2.33,1.01.67,0,1.24-.14,1.7-.41.46-.27.87-.63,1.22-1.09l1.16.9c-.93,1.43-2.32,2.14-4.18,2.14ZM142.96,136.83c-.77,0-1.41.28-1.93.84-.52.56-.84,1.34-.96,2.34h5.56v-.14c-.05-.96-.31-1.71-.78-2.24-.46-.53-1.09-.79-1.89-.79Z" fill="#fff"/>
      <path d="M149.93,145.6c0-.31.09-.57.28-.78.19-.21.47-.32.84-.32s.65.1.84.32c.19.21.29.47.29.78s-.1.57-.29.77c-.19.2-.47.31-.84.31s-.65-.1-.84-.31c-.19-.2-.28-.46-.28-.77ZM151.84,142.34h-1.71l-.13-10.7h1.99l-.14,10.7Z" fill="#fff"/>
    </g>
  </g>
</svg>