<?xml version="1.0" encoding="UTF-8"?>
<svg id="Layer_2" data-name="Layer 2" xmlns="http://www.w3.org/2000/svg" viewBox="0 0 227.09 62.32">
  <g id="Layer_1-2" data-name="Layer 1">
    <rect x=".5" y=".5" width="226.09" height="61.32" rx="8.13" ry="8.13" fill="#1a2a3d" opacity=".5" stroke="#7dabe2" stroke-miterlimit="10"/>
    <g>
      <path d="M65.75,35.07h-6.16l-1.17,3.52h-3.74l6.35-17.06h3.26l6.39,17.06h-3.74l-1.18-3.52ZM60.53,32.22h4.27l-2.14-6.39-2.12,6.39Z" fill="#fff"/>
      <path d="M70.35,32.15c0-1.95.46-3.51,1.39-4.7s2.17-1.78,3.74-1.78c1.39,0,2.47.48,3.25,1.43l.14-1.2h3.07v12.26c0,1.11-.25,2.07-.76,2.89s-1.21,1.45-2.13,1.88-1.98.64-3.21.64c-.93,0-1.84-.19-2.72-.56s-1.55-.85-2-1.44l1.5-2.06c.84.95,1.87,1.42,3.07,1.42.9,0,1.6-.24,2.1-.72s.75-1.16.75-2.04v-.68c-.78.88-1.81,1.32-3.08,1.32-1.52,0-2.76-.6-3.7-1.79s-1.41-2.77-1.41-4.74v-.14ZM73.74,32.4c0,1.15.23,2.05.69,2.71s1.09.98,1.9.98c1.03,0,1.77-.39,2.21-1.16v-5.34c-.45-.77-1.18-1.16-2.19-1.16-.81,0-1.45.33-1.92,1s-.7,1.66-.7,2.98Z" fill="#fff"/>
      <path d="M89.18,38.82c-1.86,0-3.37-.57-4.54-1.71s-1.75-2.66-1.75-4.56v-.33c0-1.27.25-2.41.74-3.42s1.19-1.78,2.09-2.32,1.93-.81,3.09-.81c1.73,0,3.1.55,4.1,1.64s1.49,2.64,1.49,4.65v1.38h-8.07c.11.83.44,1.49.99,1.99s1.25.75,2.09.75c1.3,0,2.32-.47,3.06-1.42l1.66,1.86c-.51.72-1.2,1.28-2.06,1.68s-1.83.6-2.88.6ZM88.79,28.4c-.67,0-1.22.23-1.63.68s-.69,1.11-.8,1.95h4.71v-.27c-.02-.75-.22-1.34-.61-1.75-.39-.41-.95-.62-1.66-.62Z" fill="#fff"/>
      <path d="M98.23,25.91l.11,1.46c.91-1.13,2.12-1.7,3.64-1.7,1.34,0,2.34.39,3,1.18s.99,1.97,1.01,3.54v8.19h-3.39v-8.11c0-.72-.16-1.24-.47-1.56s-.83-.49-1.56-.49c-.95,0-1.67.41-2.14,1.22v8.94h-3.39v-12.68h3.19Z" fill="#fff"/>
      <path d="M111.41,22.79v3.12h2.17v2.48h-2.17v6.33c0,.47.09.8.27,1.01s.52.3,1.03.3c.38,0,.71-.03,1-.08v2.57c-.66.2-1.35.3-2.05.3-2.38,0-3.59-1.2-3.63-3.6v-6.83h-1.85v-2.48h1.85v-3.12h3.39Z" fill="#fff"/>
      <path d="M120.1,38.82c-1.86,0-3.37-.57-4.54-1.71s-1.75-2.66-1.75-4.56v-.33c0-1.27.25-2.41.74-3.42s1.19-1.78,2.09-2.32,1.93-.81,3.09-.81c1.73,0,3.1.55,4.1,1.64s1.49,2.64,1.49,4.65v1.38h-8.07c.11.83.44,1.49.99,1.99s1.25.75,2.09.75c1.3,0,2.32-.47,3.06-1.42l1.66,1.86c-.51.72-1.2,1.28-2.06,1.68s-1.83.6-2.88.6ZM119.71,28.4c-.67,0-1.22.23-1.63.68s-.69,1.11-.8,1.95h4.71v-.27c-.02-.75-.22-1.34-.61-1.75-.39-.41-.95-.62-1.66-.62Z" fill="#fff"/>
      <path d="M135.63,21.52l4.38,12.38,4.36-12.38h4.62v17.06h-3.53v-4.66l.35-8.05-4.61,12.71h-2.41l-4.59-12.7.35,8.04v4.66h-3.52v-17.06h4.59Z" fill="#fff"/>
      <path d="M150.61,22.62c0-.51.17-.93.51-1.25s.8-.49,1.39-.49,1.04.16,1.38.49.52.75.52,1.25-.17.94-.52,1.27-.81.49-1.38.49-1.03-.16-1.38-.49-.52-.75-.52-1.27ZM154.21,38.59h-3.4v-12.68h3.4v12.68Z" fill="#fff"/>
      <path d="M162.93,29.08c-.46-.06-.87-.09-1.22-.09-1.28,0-2.12.43-2.52,1.3v8.3h-3.39v-12.68h3.2l.09,1.51c.68-1.16,1.62-1.75,2.82-1.75.38,0,.73.05,1.05.15l-.05,3.26Z" fill="#fff"/>
      <path d="M163.33,22.62c0-.51.17-.93.51-1.25s.8-.49,1.39-.49,1.04.16,1.38.49.52.75.52,1.25-.17.94-.52,1.27-.81.49-1.38.49-1.03-.16-1.38-.49-.52-.75-.52-1.27ZM166.93,38.59h-3.4v-12.68h3.4v12.68Z" fill="#fff"/>
      <path d="M171.69,25.91l.11,1.42c.9-1.1,2.11-1.65,3.64-1.65,1.63,0,2.75.64,3.36,1.93.89-1.29,2.16-1.93,3.81-1.93,1.38,0,2.4.4,3.07,1.2s1.01,2.01,1.01,3.62v8.1h-3.4v-8.09c0-.72-.14-1.24-.42-1.58s-.78-.5-1.49-.5c-1.02,0-1.72.48-2.11,1.45v8.71s-3.38,0-3.38,0v-8.07c0-.73-.14-1.27-.43-1.59s-.78-.49-1.48-.49c-.96,0-1.66.4-2.09,1.2v8.96h-3.39v-12.68h3.18Z" fill="#fff"/>
    </g>
    <g id="SeeC7E">
      <g>
        <path d="M23.64,49.63s0,.07-.05.09l-1.94.98-2.59,1.34-1.48.75c-.22.11-.57-.02-.6-.28-.06-.56-.04-1.09-.04-1.66v-3.89s.01-11.17.01-11.17c0-.17,0-.27-.04-.4.08-.08.12.49.12.44v11.03c-.08.45-.03.84-.03,1.28v3.62c0,.2.07.37,0,.58-.05.14.07.28.15.34.11.08.27.13.4.06l2.71-1.39,1.5-.79.87-.43c.34-.17.65-.39,1-.5Z" fill="#0f2d44"/>
        <path d="M12.27,30.45c-.08.03-.07-.06-.1-.11-.25-.48-.27-1.31-.16-1.81.07-.34.05-.99.13-1.14.07.18.04.37,0,.59-.11.57-.12,1.17-.07,1.75.02.27.1.5.19.73Z" fill="#0f2d44"/>
        <path d="M26.85,8.85c-.16-.11-.36-.17-.54-.27-.41-.22-.83-.31-1.29-.29-.79.03-.64.19-1.23.35,0-.02,0-.07.05-.09.5-.22,1.05-.41,1.62-.33.52.08,1.02.31,1.39.63Z" fill="#0f2d44"/>
        <path d="M16.89,35.33c-.36-.41-.51-.98-.74-1.5l-.39-.86c.11-.07.32.57.35.65.17.42.35.81.54,1.22.08.17.18.33.24.49Z" fill="#0f2d44"/>
        <path d="M15.32,32.54l-1.03-.51c-.38-.19-.8-.33-1.1-.61l.3.17c.26.14.53.24.79.39.27.16.72.25,1.03.56Z" fill="#0f2d44"/>
        <path d="M12.14,18.92c-.08-.03-.04-.14-.05-.23-.03-.31-.03-.61-.1-.91-.05-.22-.03-.43-.02-.63.03-.03.07,0,.07.05.02.42,0,.85.1,1.25.04.18.05.3,0,.46Z" fill="#0f2d44"/>
        <path d="M15.16,13.84c.01.06-.04.1-.11.12-.38.16-.75.3-1.11.5-.1.06-.18.12-.28.12,0-.02,0-.07.05-.09l1.11-.49c.12-.05.21-.15.34-.16Z" fill="#0f2d44"/>
        <path d="M10.86,21.59c-.21.35-.5,1.05-.52,1.43-.05-.45.22-1.11.52-1.43Z" fill="#0f2d44"/>
        <path d="M10.83,24.64c-.08.02-.08-.07-.12-.13-.24-.39-.42-.83-.36-1.27.02-.01.04.02.04.05-.06.41.27,1.03.45,1.36Z" fill="#0f2d44"/>
        <path d="M12.39,15.64c-.49.93-.29,1.01-.34,1.23,0,.02-.03.07-.07.04-.04-.25.19-1.12.42-1.27Z" fill="#0f2d44"/>
        <path d="M12.14,27s-.05-.02-.04-.05c.03-.54-.24-.65-.27-.88.11-.1.45.93.31.93Z" fill="#0f2d44"/>
        <path d="M16.72,11.35c-.06.26-.24.46-.32.73-.03.09-.06.2-.15.2,0-.06.38-1,.47-.93Z" fill="#0f2d44"/>
        <path d="M31.45,52.12s-.99-.41-.89-.48c.05.01.99.41.89.48Z" fill="#0f2d44"/>
        <path d="M32.85,52.81s-.1.01-.16-.02l-.64-.32s-.05-.06-.05-.09c.27.06.48.25.76.34.05.02.12.04.09.09Z" fill="#0f2d44"/>
        <path d="M22.1,9.78c.02.07-.05.09-.11.12l-.45.16c-.14.05-.22.04-.32,0,0-.05.08-.05.13-.05.28-.02.51-.15.75-.22Z" fill="#0f2d44"/>
        <path d="M16.24,12.4c0,.06-.34.93-.43.85.05-.22.21-.41.28-.64.03-.09.06-.2.15-.2Z" fill="#0f2d44"/>
        <path d="M32.51,10.22c-.22-.05-.42-.17-.67-.22-.04,0-.1,0-.14,0-.02,0-.07-.03-.04-.07.2-.03.87.17.85.3Z" fill="#0f2d44"/>
        <path d="M20.75,10.05c.13.1-.89-.02-.75-.06.11-.09.26,0,.4,0,.15,0,.25,0,.36.06Z" fill="#0f2d44"/>
        <path d="M27.66,50.15s-.83-.32-.71-.39c.02.01.81.32.71.39Z" fill="#0f2d44"/>
        <path d="M26.74,49.67s-.82-.32-.71-.39c0,0,.82.32.71.39Z" fill="#0f2d44"/>
        <path d="M28.66,50.68c-.06-.01-.8-.32-.71-.39,0,0,.83.32.71.39Z" fill="#0f2d44"/>
        <path d="M30.01,51.37c-.06-.02-.8-.31-.72-.39.07.02.8.32.72.39Z" fill="#0f2d44"/>
        <path d="M30.41,9.97c.23.07-.81.17-.67.08.02-.06.59-.1.67-.08Z" fill="#0f2d44"/>
        <path d="M18.7,9.92c.33,0-.84.23-.67.2-.07-.09.52-.23.67-.2Z" fill="#0f2d44"/>
        <path d="M12.96,14.99c-.11.14-.23.28-.38.38.09-.15.23-.28.38-.38Z" fill="#0f2d44"/>
        <path d="M31.5,9.92c-.16.06-.38.06-.54,0,.16-.08.38-.08.54,0Z" fill="#0f2d44"/>
        <path d="M19.31,9.92c-.12.06-.29.06-.41,0,.11-.08.29-.08.41,0Z" fill="#0f2d44"/>
        <path d="M19.88,9.99c-.05,0-.45.05-.37-.07.05,0,.45-.05.37.07Z" fill="#0f2d44"/>
        <path d="M25.73,49.15c-.12-.06-.32-.08-.36-.22.13.04.32.08.36.22Z" fill="#0f2d44"/>
        <path d="M11.16,21.15c-.06.09-.1.2-.2.25.05-.09.09-.22.2-.25Z" fill="#0f2d44"/>
        <path d="M30.8,9.92c-.02.14-.23.09-.32.04.07-.1.21-.04.32-.04Z" fill="#0f2d44"/>
        <path d="M11.78,20.32c-.04.1-.11.19-.2.25.06-.09.09-.22.2-.25Z" fill="#0f2d44"/>
        <path d="M23.27,8.96c-.05.1-.16.14-.25.19.04-.1.15-.15.25-.19Z" fill="#0f2d44"/>
        <path d="M12.74,31.1c-.09-.05-.16-.12-.2-.21.09.04.15.12.2.21Z" fill="#0f2d44"/>
        <path d="M36.52,31.76c-.02.12-.17.15-.28.16.02-.12.18-.12.28-.16Z" fill="#0f2d44"/>
        <path d="M13.58,14.59c-.01.12-.17.15-.27.17.01-.12.17-.15.27-.17Z" fill="#0f2d44"/>
        <path d="M31.8,52.29c-.1-.04-.26-.04-.28-.17.11.02.26.04.28.17Z" fill="#0f2d44"/>
        <path d="M22.57,9.48c-.04.08-.12.13-.2.16.04-.08.12-.13.2-.16Z" fill="#0f2d44"/>
        <path d="M11.82,26.03c-.08-.04-.13-.12-.16-.21.09.03.11.13.16.21Z" fill="#0f2d44"/>
        <path d="M33.2,52.68c-.01.12-.13.14-.23.12,0-.11.15-.1.23-.12Z" fill="#0f2d44"/>
        <path d="M11.25,25.25c-.08-.02-.12-.09-.15-.16.08.02.12.09.15.16Z" fill="#0f2d44"/>
        <path d="M22.8,9.31c-.03.07-.09.13-.17.15.02-.08.09-.13.17-.15Z" fill="#0f2d44"/>
        <path d="M23.76,8.65c0,.1-.1.13-.19.13,0-.1.11-.12.19-.13Z" fill="#0f2d44"/>
        <path d="M12.4,30.68c-.1,0-.12-.11-.14-.19.1,0,.12.11.14.19Z" fill="#0f2d44"/>
        <path d="M29.23,50.98c-.08,0-.2-.02-.19-.12.08,0,.19.03.19.12Z" fill="#0f2d44"/>
        <path d="M29.01,50.85c-.08-.01-.19-.03-.19-.13.08,0,.2.02.19.13Z" fill="#0f2d44"/>
        <path d="M11.64,25.77c-.06,0-.09-.07-.11-.12.05.02.09.07.11.12Z" fill="#0f2d44"/>
        <path d="M12.52,15.47s-.06.1-.11.12c.02-.06.04-.12.11-.12Z" fill="#0f2d44"/>
        <path d="M13,31.31s-.1-.06-.11-.11c.05.03.09.06.11.11Z" fill="#0f2d44"/>
        <path d="M11.29,20.98c-.02.05-.06.1-.11.12.02-.05.04-.12.11-.12Z" fill="#0f2d44"/>
        <path d="M11.42,20.8c-.02.05-.06.1-.11.12.02-.05.05-.11.11-.12Z" fill="#0f2d44"/>
        <path d="M11.51,25.59c-.06,0-.09-.06-.11-.11.05.03.09.07.11.11Z" fill="#0f2d44"/>
        <path d="M11.56,20.63c-.02.05-.06.09-.11.12.03-.05.05-.1.11-.12Z" fill="#0f2d44"/>
        <path d="M15.75,32.93c-.06-.02-.08-.07-.11-.12.05.03.09.07.11.12Z" fill="#0f2d44"/>
        <path d="M15.5,32.67s-.1-.05-.12-.11c.05.02.09.06.12.11Z" fill="#0f2d44"/>
        <path d="M22.97,9.18s-.07.09-.12.11c0-.06.06-.09.12-.11Z" fill="#0f2d44"/>
        <path d="M12.52,30.83c-.06,0-.09-.06-.11-.11.05.02.08.06.11.11Z" fill="#0f2d44"/>
        <path d="M13.15,14.85s0,.04,0,.06c-.03.03-.06.02-.09.03-.01-.03,0-.07.03-.08.02,0,.05-.01.07,0Z" fill="#0f2d44"/>
        <path d="M37.05,31.5s-.01.07-.03.08-.05,0-.07,0c-.02-.02,0-.04.01-.05.02-.04.07-.02.09-.03Z" fill="#0f2d44"/>
        <path d="M13.15,31.41s-.07,0-.1-.03c-.02-.02-.03-.03-.01-.06.02,0,.04,0,.07.01.03.01.06.05.04.08Z" fill="#0f2d44"/>
        <path d="M15.29,13.76s0,.04,0,.06c-.03.03-.06.03-.09.03-.02-.03,0-.07.03-.08.02,0,.05,0,.07,0Z" fill="#0f2d44"/>
        <path d="M30.5,51.63s-.07.01-.09-.02c-.01-.02-.02-.04,0-.06.02,0,.04,0,.06.01.03.01.06.04.04.07Z" fill="#0f2d44"/>
        <path d="M15.81,13.27s0,.04,0,.07c-.01.03-.05.04-.08.03.01-.02,0-.07.03-.09.02-.01.04-.02.06,0Z" fill="#0f2d44"/>
        <path d="M23.55,8.78s0,.04,0,.06c-.02.03-.06.03-.09.03-.02-.03,0-.07.03-.08.02,0,.05,0,.07,0Z" fill="#0f2d44"/>
        <path d="M10.96,21.44s0,.04,0,.07c-.01.03-.05.07-.08.04,0-.03,0-.07.03-.1.01-.01.04-.02.06,0Z" fill="#0f2d44"/>
        <path d="M30.28,51.51s-.06,0-.09-.03c-.02-.01-.03-.03,0-.05.02,0,.04,0,.07,0,.03.01.06.04.04.08Z" fill="#0f2d44"/>
        <path d="M16.85,11.13s0,.04,0,.07c-.01.03-.05.06-.08.03.01-.03,0-.07.03-.09.02-.01.04-.02.06,0Z" fill="#0f2d44"/>
        <path d="M23.42,8.86s0,.04,0,.06c-.03.03-.06.03-.09.03-.02-.03,0-.07.03-.08.02,0,.05-.01.07,0Z" fill="#0f2d44"/>
        <path d="M16.94,11s0,.04-.01.06c-.02.02-.05.06-.08.03,0-.03,0-.07.03-.09.02-.01.04-.03.06,0Z" fill="#0f2d44"/>
        <path d="M11.35,25.39s-.07,0-.08-.03c0-.02,0-.05-.01-.07.02-.02.04,0,.06,0,.03.03.02.06.03.09Z" fill="#0f2d44"/>
        <path d="M17.08,10.83s0,.04,0,.07c-.01.03-.05.04-.08.03,0-.05.03-.1.09-.09Z" fill="#0f2d44"/>
        <path d="M17.52,10.39s0,.04,0,.06c-.02.03-.06.03-.09.03,0-.02,0-.06.03-.08.02-.01.04,0,.06-.01Z" fill="#0f2d44"/>
        <path d="M11.09,25.04s-.07,0-.08-.04c-.01-.02-.01-.05,0-.07.02-.02.04,0,.06,0,.03.03.03.06.03.09Z" fill="#0f2d44"/>
        <path d="M17.69,10.26s0,.04,0,.06c-.03.03-.06.03-.09.03-.01-.03,0-.06.03-.08.02-.01.05,0,.07-.01Z" fill="#0f2d44"/>
        <path d="M22.32,9.65s0,.04,0,.06c-.03.03-.07.02-.09.03-.03-.03,0-.06.03-.08.02-.01.05,0,.07,0Z" fill="#0f2d44"/>
        <path d="M11,24.91s-.07,0-.08-.03c0-.02-.01-.05,0-.07.02-.02.04,0,.06,0,.03.02.03.06.03.09Z" fill="#0f2d44"/>
        <path d="M10.91,24.77s-.07,0-.08-.03c0-.02,0-.05,0-.07.02-.02.04,0,.06,0,.03.02.03.06.03.09Z" fill="#0f2d44"/>
        <path d="M13.28,14.76s0,.04,0,.06c-.02.03-.06.03-.09.03-.02-.03,0-.07.03-.08.02,0,.05,0,.07,0Z" fill="#0f2d44"/>
        <g>
          <path d="M33.5,35.2s0,.07-.03.09c-.01.01-.03.02-.06,0,0-.02,0-.04,0-.07.01-.03.05-.05.08-.03Z" fill="#0f2d44"/>
          <g>
            <path d="M29.66,10.05s0,.04,0,.06c-.03.04-.08.01-.13.02-.46.04-.88-.02-1.29-.24-.05-.03-.09-.05-.08-.1.26.08.5.26.79.26h.71Z" fill="#0f2d44"/>
            <path d="M39.4,24.73c.21-.39.46-.75.52-1.23,0-.07-.01-.16.05-.18.21.1-.44,1.39-.57,1.41Z" fill="#0f2d44"/>
            <path d="M36.61,14.54l-.99-.36c-.05-.02-.08-.07-.08-.1l.99.37c.05.02.09.05.08.1Z" fill="#0f2d44"/>
            <path d="M34.02,34.11c-.04.34-.25.66-.42.98-.03,0-.05,0-.06,0,.02-.11.28-.61.39-.93.01-.04.06-.05.08-.05Z" fill="#0f2d44"/>
            <path d="M34.51,33.06c-.07.25-.24.46-.33.73-.03.09-.06.2-.15.2,0-.07.38-1.01.48-.93Z" fill="#0f2d44"/>
            <path d="M11.8,20.26c.04-.11.12-.22.18-.34.08-.18.08-.38.17-.53.16.1-.23.83-.35.87Z" fill="#0f2d44"/>
            <path d="M34.11,12.46c-.06.01-.09-.05-.11-.11-.08-.28-.25-.51-.31-.78.09-.09.41.84.43.89Z" fill="#0f2d44"/>
            <path d="M38.3,16.7s-.04,0-.06,0c-.02-.02-.02-.05-.02-.09,0-.28-.12-.51-.17-.75.15-.02.27.66.25.85Z" fill="#0f2d44"/>
            <path d="M38,30.58c.1-.28.18-.56.27-.84.15-.08-.18.98-.27.84Z" fill="#0f2d44"/>
            <path d="M39.97,22.98c-.08-.03-.03-.14-.05-.22l-.17-.58c.09-.11.35.79.22.8Z" fill="#0f2d44"/>
            <path d="M38.17,26.94c0,.24.01.48,0,.72-.03.03-.08-.01-.08-.05v-.61s.05-.08.08-.05Z" fill="#0f2d44"/>
            <path d="M38.17,18.7c-.09.18.03-.9.06-.71.09-.03-.02.75-.06.71Z" fill="#0f2d44"/>
            <path d="M38.23,28.44c-.03.13-.15-.74-.06-.62.04-.02.14.63.06.62Z" fill="#0f2d44"/>
            <path d="M35.65,32.16c.06.07-.39.25-.45.26-.04-.1.37-.24.45-.26Z" fill="#0f2d44"/>
            <path d="M34.89,32.6c-.08.11-.17.22-.29.29.07-.12.17-.22.29-.29Z" fill="#0f2d44"/>
            <path d="M38.3,26.42c-.04.15-.05.32-.13.45-.11-.01.09-.56.13-.45Z" fill="#0f2d44"/>
            <path d="M38.3,19.84c-.14-.05-.2-.28-.13-.41.08.12.1.27.13.41Z" fill="#0f2d44"/>
            <path d="M38.23,17.92c0-.14-.05-.29.04-.41.04-.11.09.53-.04.41Z" fill="#0f2d44"/>
            <path d="M38.17,18.91c.01.14.01.27,0,.41-.12.12-.12-.53,0-.41Z" fill="#0f2d44"/>
            <path d="M38.3,17.22c-.07-.1-.06-.25,0-.36.1.09.07.26,0,.36Z" fill="#0f2d44"/>
            <path d="M38.27,28.84c0-.1-.1-.2-.04-.32.13-.1.08.4.04.32Z" fill="#0f2d44"/>
            <path d="M39.66,21.93c-.12-.01-.15-.17-.17-.27.13,0,.13.17.17.27Z" fill="#0f2d44"/>
            <path d="M28.12,9.77c-.07-.04-.17-.07-.2-.15.08.03.16.07.2.15Z" fill="#0f2d44"/>
            <path d="M38.3,29.54c-.06-.05-.06-.18,0-.23.02.03.05.07.06.11,0,.06-.04.08-.06.11Z" fill="#0f2d44"/>
            <path d="M36.04,31.98c0,.1-.11.1-.19.12,0-.11.11-.11.19-.12Z" fill="#0f2d44"/>
            <path d="M34.24,12.76c-.1,0-.12-.11-.12-.19.1,0,.11.11.12.19Z" fill="#0f2d44"/>
            <path d="M38.48,20.19c-.11.01-.11-.11-.13-.19.1,0,.12.11.13.19Z" fill="#0f2d44"/>
            <path d="M36.92,14.68c-.08-.01-.19-.03-.19-.12.08,0,.2.02.19.12Z" fill="#0f2d44"/>
            <path d="M33.63,11.4c-.1,0-.1-.11-.13-.19.11,0,.11.11.13.19Z" fill="#0f2d44"/>
            <path d="M35.21,13.93c-.08,0-.19-.03-.19-.13.08.01.19.03.19.13Z" fill="#0f2d44"/>
            <path d="M38.78,20.61c-.05-.02-.09-.06-.11-.11.06,0,.09.06.11.11Z" fill="#0f2d44"/>
            <path d="M27.51,9.34s-.1-.06-.12-.11c.06.02.11.05.12.11Z" fill="#0f2d44"/>
            <path d="M27.34,9.2c-.05-.02-.1-.06-.12-.11.06.02.11.05.12.11Z" fill="#0f2d44"/>
            <path d="M38.61,25.82c0-.06.03-.12.1-.13,0,.03,0,.07-.01.1-.01.02-.05.07-.08.04Z" fill="#0f2d44"/>
            <path d="M38.75,25.64c0-.06.03-.12.09-.13,0,.03,0,.06-.02.1-.01.02-.05.03-.08.03Z" fill="#0f2d44"/>
            <path d="M38.88,25.47c-.01-.06.03-.12.09-.13,0,.03,0,.06-.02.1-.01.02-.05.03-.08.03Z" fill="#0f2d44"/>
            <path d="M39.01,25.3c-.01-.06.03-.12.09-.13,0,.07-.02.13-.09.13Z" fill="#0f2d44"/>
            <path d="M39.31,24.9c-.03.09-.08.2-.17.22.01-.1.07-.21.17-.22Z" fill="#0f2d44"/>
            <path d="M37.13,14.8s-.04,0-.07,0c-.03-.01-.06-.05-.03-.08.03,0,.06,0,.09.03.01.01.02.03,0,.06Z" fill="#0f2d44"/>
            <path d="M37.26,14.89s-.05,0-.07,0c-.03-.01-.06-.05-.03-.08.03,0,.07,0,.09.03.01.02.02.04,0,.06Z" fill="#0f2d44"/>
            <path d="M35.08,32.46s0,.06-.03.07c-.02.01-.05,0-.06.01,0-.02,0-.04,0-.06.02-.03.06-.02.09-.03Z" fill="#0f2d44"/>
            <path d="M35.43,14.06s-.04.01-.07,0c-.03-.01-.06-.05-.03-.08.03,0,.06,0,.09.03.02.02.03.03,0,.05Z" fill="#0f2d44"/>
            <path d="M37.39,14.98s-.04,0-.07,0c-.03-.01-.05-.05-.03-.08.03,0,.07,0,.08.03.01.02,0,.04.01.06Z" fill="#0f2d44"/>
            <path d="M34.95,13.76s-.04,0-.07-.01c-.03-.01-.04-.05-.03-.08.02.02.07,0,.09.03,0,.02.01.04,0,.06Z" fill="#0f2d44"/>
            <path d="M37.87,15.47s-.04,0-.06,0c-.04-.02-.02-.07-.03-.09.03-.02.07,0,.08.03,0,.02.01.05,0,.07Z" fill="#0f2d44"/>
            <path d="M15.42,13.67s0,.05,0,.06c-.02.03-.06.03-.09.03-.03-.03.01-.07.04-.08h.06Z" fill="#0f2d44"/>
            <path d="M34.64,13.46s-.04,0-.06,0c-.03-.02-.02-.06-.03-.09.03-.01.06,0,.08.03.01.02,0,.05.01.06Z" fill="#0f2d44"/>
            <path d="M34.51,13.28s-.04,0-.06,0c-.04-.03-.02-.07-.03-.1.03-.03.06.01.07.04.01.02,0,.05.01.06Z" fill="#0f2d44"/>
            <path d="M37.92,30.75s0,.07-.03.08c-.02.01-.04.01-.06.01,0-.02,0-.04,0-.07.01-.03.05-.05.08-.03Z" fill="#0f2d44"/>
            <path d="M38,30.62s0,.07-.03.09c-.01.01-.04.02-.06,0,0-.02,0-.05,0-.07.01-.03.05-.06.08-.03Z" fill="#0f2d44"/>
            <path d="M39.49,21.63s-.04,0-.06,0c-.03-.02-.03-.06-.03-.09.03-.02.07,0,.08.03,0,.02,0,.05,0,.07Z" fill="#0f2d44"/>
            <path d="M37.96,15.6s-.04,0-.06,0c-.03-.02-.03-.06-.02-.09.04-.02.06,0,.07.03,0,.02,0,.05.01.07Z" fill="#0f2d44"/>
            <path d="M38.57,20.32s-.04,0-.06,0c-.03-.02-.03-.06-.03-.09.03-.02.07,0,.08.03,0,.02,0,.05,0,.07Z" fill="#0f2d44"/>
            <path d="M38.66,20.45s-.04,0-.06,0c-.03-.02-.03-.06-.03-.09.04-.02.07,0,.08.03,0,.03,0,.05.01.07Z" fill="#0f2d44"/>
            <path d="M38.88,20.75s-.05,0-.06,0c-.03-.03-.03-.06-.03-.09.03-.02.06,0,.08.04.01.02,0,.05.01.06Z" fill="#0f2d44"/>
            <path d="M39.01,20.93s-.04,0-.06,0c-.03-.02-.02-.06-.03-.09.03-.01.06,0,.08.03.01.02,0,.05.01.06Z" fill="#0f2d44"/>
            <path d="M38.52,25.99s0,.07-.03.09c-.02.01-.04.03-.06,0,0-.02,0-.04,0-.07.01-.03.04-.05.07-.03Z" fill="#0f2d44"/>
            <path d="M33.46,11.1s-.04,0-.06,0c-.03-.03-.02-.06-.03-.09.03-.02.06,0,.08.03.01.02,0,.05,0,.07Z" fill="#0f2d44"/>
            <path d="M33.33,10.92s-.04,0-.06,0c-.03-.02-.03-.06-.03-.09.06,0,.09.04.09.09Z" fill="#0f2d44"/>
            <path d="M27,8.95s-.04,0-.06-.01c-.03-.01-.06-.04-.04-.08.03,0,.07,0,.09.03.01.02.03.04,0,.06Z" fill="#0f2d44"/>
            <path d="M38.61,25.86s0,.07-.03.09c-.02.02-.04.03-.06,0,0-.02,0-.04,0-.07.01-.03.04-.05.08-.03Z" fill="#0f2d44"/>
            <path d="M39.23,21.24s-.04,0-.06,0c-.04-.02-.02-.06-.03-.09.03-.02.07,0,.08.03,0,.02.01.05,0,.07Z" fill="#0f2d44"/>
            <path d="M27.17,9.08s-.04,0-.07,0c-.03-.01-.04-.05-.03-.08.03.01.07,0,.09.03.01.02.01.04,0,.06Z" fill="#0f2d44"/>
            <path d="M32.85,10.44s-.04,0-.06,0c-.03-.01-.06-.05-.03-.08.03,0,.07,0,.08.03.01.02.01.04.01.06Z" fill="#0f2d44"/>
            <path d="M32.72,10.35s-.04,0-.07,0c-.03-.01-.05-.05-.03-.08.03.01.07,0,.09.03.01.02.02.04,0,.06Z" fill="#0f2d44"/>
            <path d="M27.87,9.61s-.04,0-.07,0c-.03-.01-.04-.05-.03-.08.03.01.07,0,.09.03.01.02.01.04,0,.06Z" fill="#0f2d44"/>
            <path d="M27.7,9.48s-.04,0-.07-.01c-.03-.01-.04-.04-.03-.08.03.01.07,0,.09.03.01.02.01.04,0,.06Z" fill="#0f2d44"/>
            <path d="M39.31,21.37s-.04,0-.06,0c-.03-.02-.03-.06-.03-.09.03-.02.07,0,.08.03,0,.02,0,.05,0,.07Z" fill="#0f2d44"/>
            <path d="M39.4,21.5s-.04,0-.06,0c-.03-.02-.03-.06-.03-.09.03-.02.07,0,.08.03,0,.02.01.05,0,.07Z" fill="#0f2d44"/>
            <path d="M34.6,32.93s0,.07-.03.09c-.01.01-.04.02-.06,0,0-.02,0-.04,0-.06.01-.03.05-.06.08-.04Z" fill="#0f2d44"/>
            <path d="M25.86,37.05c-.06,0-.13.02-.14.08-.02,0-.05,0-.07,0-.11.02-.24.01-.32.09h-.29c-.08-.07-.21-.07-.32-.09-.01,0-.03,0-.04,0-.04-.07-.11-.08-.18-.09-.02,0-.05,0-.07,0-.02-.04-.06-.08-.11-.09-.02,0-.05,0-.07,0,.03-.03-.01-.07-.04-.08s-.05-.01-.07,0c-.01,0-.03,0-.04,0-.01-.04-.05-.08-.09-.08-.02,0-.05,0-.07,0,.03-.03,0-.06-.04-.07-.02,0-.04-.01-.06-.01-.01,0-.02,0-.03,0,0-.02,0-.04,0-.06,0-.01-.03-.02-.05-.02-.01,0-.03,0-.04,0-.01-.04-.05-.08-.09-.09-.01,0-.03,0-.04,0-.02-.04-.05-.05-.09-.05,0-.01-.03-.02-.04-.03-.02-.09-.11-.13-.19-.17,0,0-.03,0-.04,0-.01-.04-.05-.05-.09-.05v-.03s-.05-.06-.05,0c-.14-.07-.26-.17-.39-.26-.02-.04-.05-.07-.1-.09-.01,0-.03,0-.04,0-.06-.11-.2-.15-.31-.17-.01,0-.03,0-.04,0,0-.04-.03-.06-.07-.08-.02,0-.08-.02-.06.03-.04-.01-.09-.02-.12-.04-.02-.06-.08-.09-.14-.08-.02,0-.05-.01-.07,0-.14-.11-.33-.08-.5-.08h-.47c-.28,0-.57-.01-.84.08h-.16c-.23.02-.46.03-.7.04-.19,0-.36-.08-.53-.03-.04,0-.08-.01-.12,0-.01-.08-.11-.08-.18-.08h-.04c-.01-.07-.08-.09-.14-.09-.02,0-.05,0-.08,0,.01-.03-.02-.04-.05-.04l-.04-.04s0-.07-.03-.08c-.02-.01-.04-.01-.06,0-.71-.81-.8-2.1-1.53-2.89,0-.12-.48-.48-.61-.52-.01,0-.02,0-.04,0-.06-.09-.17-.15-.27-.18-.01,0-.03,0-.04,0-.01-.06-.08-.09-.14-.09-.01,0-.03,0-.04,0-.01-.06-.08-.09-.14-.09-.01,0-.03,0-.04,0-.09-.12-.26-.15-.4-.17-.01,0-.03,0-.04,0-.06-.11-.2-.15-.31-.17-.01,0-.03,0-.04,0-.02-.08-.1-.09-.18-.09-.01,0-.02,0-.03,0,.02-.03,0-.07-.04-.08-.02,0-.05,0-.07,0h-.04s-.05-.05-.08-.05c0-.01,0-.02,0-.03-.02-.06-.08-.06-.13-.06,0-.02-.03-.02-.04-.04-.02-.03-.05-.05-.09-.05,0-.01,0-.02,0-.03,0-.03-.03-.05-.06-.04-.41-.35-.61-.84-.56-1.41l.14-1.65c.07-.75-.1-1.44-.55-2.05l-.53-.73c-.18-.25-.36-.48-.51-.76-.59-1.06.2-1.98.86-2.79,1.29-1.57.4-2.92.56-4.42.1-.94,1.05-1.35,1.82-1.69.97-.42,1.74-.8,2.16-1.83l.36-.87c.39-.95.88-1.57,1.98-1.53.28,0,.55,0,.83.05.21.04.4.03.61.05.79.1,1.59-.04,2.22-.53.47-.37.93-.7,1.44-1.01.75-.45,1.35-.33,2.04.15,1.42.97,1.67,1.64,3.61,1.4l.7-.09c.24-.03.49-.02.73-.03.86-.04,1.35.64,1.65,1.34l.48,1.14c.64,1.51,2.24,1.61,3.32,2.34s.36,2.28.51,3.87c.12,1.24,1.27,2,1.68,3.12s-.77,2.09-1.39,3.18c-.55.95-.34,1.66-.26,2.62l.06.73c.05.64-.14,1.2-.7,1.52-.39.23-.78.41-1.21.58-2.06.83-1.92,1.8-2.74,3.4-.25.49-.66.79-1.2.87-.38.05-.74-.01-1.12-.06l-.63-.07c-.81-.1-1.59-.02-2.27.48l-1.16.85c-.17.12-.35.21-.53.3ZM36.52,23.16c0-6.28-5.09-11.37-11.37-11.37s-11.37,5.09-11.37,11.37,5.09,11.37,11.37,11.37,11.37-5.09,11.37-11.37Z" fill="#296694"/>
            <path d="M19.79,35.48s0,.08-.05.08h-1.14s-.08-.06-.05-.08c.17-.04.35.03.53.03.24,0,.48-.02.7-.03Z" fill="#0f2d44"/>
            <path d="M20.79,35.39c-.01.05-.08.08-.14.08l-.51.02c-.08,0-.15.05-.19-.01.27-.09.56-.08.84-.08Z" fill="#0f2d44"/>
            <path d="M21.76,35.47s-.62.02-.5-.08c.17,0,.35-.02.5.08Z" fill="#0f2d44"/>
            <path d="M16.28,32.23c-.11-.03-.16-.13-.26-.21l-.25-.19s-.11-.05-.1-.12c.13.04.6.4.61.52Z" fill="#0f2d44"/>
            <path d="M14.54,31.19c-.12,0-.29-.04-.31-.17.12.03.25.07.31.17Z" fill="#0f2d44"/>
            <path d="M25.65,37.13c.09.08-.33.15-.32.09.09-.07.22-.07.32-.09Z" fill="#0f2d44"/>
            <path d="M14.98,31.36c-.06.02-.51-.14-.4-.17.14.02.31.06.4.17Z" fill="#0f2d44"/>
            <path d="M18.43,35.47s-.09,0-.15,0c-.03,0-.07-.04-.04-.08.07,0,.17,0,.18.08Z" fill="#0f2d44"/>
            <path d="M14.19,31.01s-.09.01-.14,0c-.03,0-.06-.05-.03-.09.07,0,.16,0,.18.09Z" fill="#0f2d44"/>
            <path d="M22.58,35.82c-.11-.03-.28-.06-.31-.17.12.03.25.07.31.17Z" fill="#0f2d44"/>
            <path d="M25.86,37.05s-.01.07-.04.08c-.04.02-.07,0-.1,0,0-.07.08-.08.14-.08Z" fill="#0f2d44"/>
            <path d="M22.23,35.64c-.06.01-.1-.01-.13-.05-.01-.05.04-.03.06-.03.04.01.06.04.07.08Z" fill="#0f2d44"/>
            <path d="M21.97,35.55s-.07.02-.11,0c-.02-.01-.06-.04-.04-.08.06,0,.12.02.14.08Z" fill="#0f2d44"/>
            <path d="M18.21,35.39s-.07,0-.1,0c-.02-.01-.07-.04-.04-.08.06,0,.13.02.14.09Z" fill="#0f2d44"/>
            <path d="M15.15,31.45s-.07.01-.1,0c-.03-.01-.06-.05-.04-.08.06,0,.12.02.14.09Z" fill="#0f2d44"/>
            <path d="M15.33,31.54s-.07.01-.1,0c-.03-.01-.06-.05-.04-.08.06,0,.12.02.14.09Z" fill="#0f2d44"/>
            <path d="M15.64,31.71c-.11,0-.24-.07-.27-.18.11.02.21.08.27.18Z" fill="#0f2d44"/>
            <path d="M17.91,35.21s-.06,0-.08-.03c-.01-.02,0-.04-.01-.06.02,0,.04,0,.06,0,.03.02.04.05.03.08Z" fill="#0f2d44"/>
            <path d="M13.98,30.92s-.07,0-.09-.02c-.01-.02-.03-.04,0-.06.02,0,.04,0,.07,0,.03,0,.06.04.04.08Z" fill="#0f2d44"/>
            <path d="M23.46,36.43c-.09-.01-.17-.08-.19-.17.08.04.17.08.19.17Z" fill="#0f2d44"/>
            <path d="M23.94,36.78s-.07.01-.09-.02c-.01-.02-.02-.04,0-.06.02,0,.04,0,.06.01.03.01.06.04.04.07Z" fill="#0f2d44"/>
            <path d="M24.25,36.95s-.07,0-.1-.02c-.02-.02-.03-.04,0-.06.02,0,.04,0,.07,0,.03,0,.06.04.04.08Z" fill="#0f2d44"/>
            <path d="M22.71,35.91s-.07,0-.09-.03c0-.02-.02-.03,0-.06.04.01.08.04.1.09Z" fill="#0f2d44"/>
            <path d="M13.76,30.76c-.05.01-.11,0-.13-.06.05,0,.12,0,.13.06Z" fill="#0f2d44"/>
            <path d="M23.72,36.61s-.06,0-.09-.03c-.02-.02-.03-.04,0-.06.05.01.08.05.09.09Z" fill="#0f2d44"/>
            <path d="M24.11,36.87s-.06,0-.09-.03c-.02-.02-.03-.04,0-.06.04,0,.08.04.09.08Z" fill="#0f2d44"/>
            <path d="M24.42,37.04s-.07,0-.1-.03c-.01-.02-.03-.03-.01-.06.05,0,.09.04.11.09Z" fill="#0f2d44"/>
            <path d="M13.49,30.58s-.05,0-.07-.01c0,0,0-.01,0-.03.03,0,.05.02.06.04Z" fill="#0f2d44"/>
            <path d="M23.81,36.69s-.04-.01-.05-.02c-.02-.02-.02-.04,0-.06.02,0,.04.01.05.02.01.02.01.04,0,.06Z" fill="#0f2d44"/>
            <path d="M23.59,36.52s-.07-.02-.09-.05c.04,0,.07.02.09.05Z" fill="#0f2d44"/>
            <path d="M23.24,36.26s-.08,0-.09-.05c.04,0,.07.02.09.05Z" fill="#0f2d44"/>
            <path d="M13.58,30.67s-.08-.01-.09-.05c.04,0,.07.02.09.05Z" fill="#0f2d44"/>
            <path d="M13.84,30.84s-.04,0-.06,0c-.01,0-.02-.03-.02-.05.04,0,.07.01.08.05Z" fill="#0f2d44"/>
            <path d="M18,35.29s-.03-.03-.05-.04c.02,0,.06,0,.05.04Z" fill="#0f2d44"/>
            <path d="M23.15,36.17s-.03,0-.04,0c0-.06.05-.04.04,0Z" fill="#0f2d44"/>
            <g>
              <path d="M36.52,23.16c0,6.28-5.09,11.37-11.37,11.37s-11.37-5.09-11.37-11.37,5.09-11.37,11.37-11.37,11.37,5.09,11.37,11.37ZM35.99,23.16c0-5.99-4.86-10.85-10.85-10.85s-10.85,4.86-10.85,10.85,4.86,10.85,10.85,10.85,10.85-4.86,10.85-10.85Z" fill="#0f2d44"/>
              <path d="M35.99,23.16c0,5.99-4.86,10.85-10.85,10.85s-10.85-4.86-10.85-10.85,4.86-10.85,10.85-10.85,10.85,4.86,10.85,10.85ZM26.09,16.79c.11-.27-.09-.82-.09-1.09l.66-.66s0-.11-.02-.13-.08-.07-.13-.06c-.18.03-.32-.05-.48-.08-.14-.03-.3.03-.37-.11l-.44-.83c-.13-.25-.35.58-.62.86-.15.16-.43.11-.62.17l-.32.11c.15.36.44.4.66.8-.05.35-.15.65-.13,1.03.62-.2.96-.74,1.45-.24.11.11.3.13.45.25ZM21.61,17.61c.13-.13-.08-.5-.03-.75.03-.17.44-.42.31-.6-.16-.22-.71.15-.89-.49-.02-.07-.07-.14-.11-.17-.26-.24-.37.4-.53.53-.14.12-.4.14-.5.32,0,.18.31.25.32.4l.05.78c.14.13.35-.06.48-.11.36-.16.8.2.89.11ZM30.05,17.75c.3-.2-.05-.68.12-.86l.39-.43c.08-.08-.11-.2-.2-.19-.7.05-.61-.6-.86-.63-.17-.02-.32.34-.43.5,0,0-.62.15-.69.14.01.2.12.32.25.43.35.3,0,.5.08.93.59.1.44-.53,1.34.12ZM22.67,31.75c.08-.28.04-.53,0-.78-.05-.29-.24-.42-.5-.53-1.01-.41-1.89-1.01-2.64-1.8-1.2-1.27-2.01-2.85-2.32-4.58s.03-3.91.94-5.47c-.15-.01-.19.11-.26.21-1.12,1.59-1.7,3.61-1.49,5.55.19,1.74.94,3.54,2.07,4.86.51.6,1.09,1.1,1.73,1.54.53.37,1.79,1.07,2.46.99ZM27.54,31.76c1.03.1,2.99-1.15,3.58-1.85.15-.18.32-.31.49-.48.66-.68,1.15-1.49,1.55-2.35,1.27-2.74,1.01-5.95-.86-8.36,0,.29.18.46.28.69,1.13,2.59.86,5.5-.68,7.85-.45.69-.96,1.26-1.56,1.81-.69.63-1.49,1.08-2.36,1.44-.14.06-.26.14-.32.29-.11.3-.18.61-.12.95ZM25.94,28.01s.05.04.07.04c.03-.01.06-.05.03-.08.28-.05.52-.19.77-.37,1.79-1.27,2.51-3.9,2.43-5.98,0-.18-.05-1.03-.12-1.09-.25-.22-.77.18-1.72-.22l-.86-.36c-.85-.35-1.76-.39-2.62-.06l-1.07.41c-.85.32-1.47.07-1.63.2-.13.11-.11.31-.12.49-.16,1.8.18,3.59,1.09,5.15.8,1.37,2.16,2.27,3.75,1.88ZM25.16,32.27c.26.02.45.26.72.31.05-.26-.07-.54-.08-.83l.52-.57-.8-.21c-.11-.24-.22-.48-.37-.67l-.4.67c-.21.12-.55.02-.79.17l.54.58c-.06.29-.19.59-.12.86.27-.08.51-.34.77-.32Z" fill="#749cc5"/>
              <path d="M22.67,31.75c-.67.08-1.93-.62-2.46-.99-.64-.45-1.22-.94-1.73-1.54-1.13-1.32-1.88-3.12-2.07-4.86-.22-1.94.37-3.96,1.49-5.55.07-.1.11-.22.26-.21-.91,1.56-1.25,3.74-.94,5.47s1.11,3.31,2.32,4.58c.75.8,1.63,1.39,2.64,1.8.25.1.44.24.5.53.04.24.08.49,0,.78Z" fill="#296694"/>
              <path d="M27.54,31.76c-.06-.34.01-.65.12-.95.05-.14.18-.23.32-.29.86-.36,1.66-.81,2.36-1.44.61-.55,1.12-1.12,1.56-1.81,1.54-2.36,1.81-5.27.68-7.85-.1-.23-.29-.4-.28-.69,1.87,2.41,2.13,5.62.86,8.36-.4.86-.88,1.66-1.55,2.35-.16.17-.33.3-.49.48-.59.7-2.56,1.95-3.58,1.85Z" fill="#296694"/>
              <path d="M26.09,16.79c-.15-.12-.34-.13-.45-.25-.49-.5-.83.05-1.45.24-.02-.37.09-.68.13-1.03-.22-.41-.51-.44-.66-.8l.32-.11c.19-.06.46,0,.62-.17.27-.28.49-1.11.62-.86l.44.83c.08.15.24.08.37.11.16.03.3.11.48.08.05,0,.1.04.13.06s.06.09.02.13l-.66.66c0,.27.2.82.09,1.09Z" fill="#f5b00e"/>
              <path d="M25.16,32.27c-.26-.02-.49.24-.77.32-.07-.28.06-.57.12-.86l-.54-.58c.24-.15.57-.05.79-.17l.4-.67c.15.19.26.43.37.67l.8.21-.52.57c0,.29.12.57.08.83-.27-.05-.47-.29-.72-.31Z" fill="#fdfdfd"/>
              <path d="M30.05,17.75c-.91-.64-.75-.01-1.34-.12-.08-.42.27-.62-.08-.93-.12-.11-.24-.23-.25-.43.07.01.69-.14.69-.14.11-.17.26-.52.43-.5.24.03.16.68.86.63.09,0,.28.11.2.19l-.39.43c-.16.18.18.66-.12.86Z" fill="#f5b00e"/>
              <path d="M21.61,17.61c-.09.09-.53-.27-.89-.11-.12.06-.33.25-.48.11l-.05-.78c0-.14-.31-.21-.32-.4.1-.18.35-.2.5-.32.16-.13.27-.77.53-.53.04.03.09.11.11.17.18.64.73.27.89.49.13.18-.28.44-.31.6-.05.25.15.63.03.75Z" fill="#f5b00e"/>
              <g>
                <path d="M26.04,27.96s-.09,0-.1.04c-1.59.39-2.95-.51-3.75-1.88-.91-1.56-1.25-3.35-1.09-5.15.02-.17,0-.38.12-.49.16-.14.78.12,1.63-.2l1.07-.41c.86-.33,1.77-.29,2.62.06l.86.36c.96.4,1.47,0,1.72.22.07.06.12.91.12,1.09.08,2.09-.65,4.71-2.43,5.98-.25.18-.49.31-.77.37ZM27.25,26.51c1.24-1.53,1.62-3.55,1.45-5.5-.48.03-.91-.02-1.34-.19l-1.19-.46c-2.09-.68-2.61.74-4.57.65-.11,1.47.1,2.92.71,4.25.49,1.07,1.3,2.08,2.5,2.32.92.19,1.88-.36,2.45-1.07Z" fill="#0f2d44"/>
                <path d="M26.04,27.96s0,.06-.03.08c-.02,0-.05-.02-.07-.04,0-.05.07-.04.1-.04Z" fill="#296694"/>
                <path d="M27.25,26.51c-.57.71-1.53,1.26-2.45,1.07-1.2-.24-2.01-1.26-2.5-2.32-.61-1.33-.82-2.79-.71-4.25,1.96.09,2.48-1.32,4.57-.65l1.19.46c.43.17.87.22,1.34.19.17,1.95-.21,3.97-1.45,5.5Z" fill="#f5b00e"/>
              </g>
            </g>
          </g>
          <g>
            <path d="M26.85,8.85s.03,0,.05.01c-.02.03,0,.06.04.08.02.01.05,0,.06.01l.08.04s0,.07.03.08c.02,0,.05,0,.07,0,.01,0,.03,0,.04.01.02.05.07.09.12.11.02,0,.04.02.05.02.02.05.07.09.12.11.03.01.06.04.09.05,0,.03,0,.07.03.08.02,0,.05,0,.07.01l.08.04s0,.07.03.08c.02,0,.05,0,.07,0,.01,0,.03,0,.04.01.03.09.13.11.2.15.01,0,.03,0,.05.01-.01.05.03.08.08.1.4.22.83.28,1.29.24.04,0,.1.02.13-.02.01-.01.03-.03,0-.06.02,0,.05,0,.07,0-.14.09.9-.02.67-.08.02,0,.05,0,.07,0,.09.05.3.1.32-.04.05,0,.11.01.16,0,.16.06.38.06.54,0,.04,0,.11,0,.16,0-.03.05.02.06.04.07.04.01.09,0,.14,0,.25.04.45.16.67.22.04,0,.08.03.12.04-.02.03,0,.07.03.08.02,0,.05,0,.07,0h.03s0,.07.03.08c.02.01.04.01.06,0,.15.11.28.24.39.39,0,.03,0,.07.03.09.02.01.04,0,.06,0,0,.03.04.05.04.08s0,.06.03.09c.02.01.03.03.06,0l.04.12c.03.08.03.2.13.19.02.05.04.11.05.16.06.27.23.5.31.78.02.07.05.12.11.11,0,.04.01.08.01.11,0,.08.02.19.12.19.03.15.13.27.18.42,0,.03,0,.07.03.1.02.01.04.02.06,0l.04.08s0,.07.03.09c.02.01.04.01.06,0,.06.08.13.16.21.21,0,.03,0,.06.03.08.02.01.05,0,.07.01l.08.04c0,.1.1.12.19.13.04,0,.08.03.12.04-.03.03,0,.07.03.08.02.01.05,0,.07,0,.04,0,.08,0,.11.01,0,.03.02.09.08.1l.99.36s.08.01.11.01c0,.1.11.11.19.12.04,0,.08.03.12.04-.02.03,0,.07.03.08.02,0,.05,0,.07,0h.03s0,.07.03.08c.02.01.05,0,.07,0h.03s0,.07.03.08c.02.01.04.01.07,0,.14.11.3.23.39.39.01.02,0,.07.03.09.02.01.03.03.06,0,0,.01,0,.02,0,.03,0,.03,0,.07.02.09.02.01.04.02.06,0,.05.08.08.16.09.25.05.24.18.47.17.75,0,.04,0,.07.02.09.01.02.03.03.06,0,0,.05,0,.11,0,.16-.06.11-.07.26,0,.36-.03.08.03.22-.03.3-.09.12-.04.26-.04.41v.07c-.03-.19-.15.89-.06.71,0,.07,0,.14,0,.2-.12-.12-.12.53,0,.41,0,.04,0,.08,0,.12-.07.13,0,.36.13.41.01.06.03.11.05.16.02.08.02.2.13.19,0,0,0,.02,0,.03,0,.03,0,.07.03.09.02.02.04.03.06,0,0,.01,0,.02,0,.03,0,.03,0,.07.03.09.02.02.04.03.06,0,0,.01,0,.03,0,.04.02.05.05.1.11.11,0,.01,0,.03,0,.04,0,.03,0,.07.03.09.01.01.04.01.06,0l.04.08s0,.07.03.09c.02.01.04.01.06,0,.04.07.1.13.13.21.01.03,0,.07.03.09.02.01.03.03.06,0,0,.01,0,.02,0,.03,0,.03,0,.07.03.09.02.02.04.03.06,0,0,.01,0,.02,0,.03,0,.03,0,.07.03.09.02.02.04.03.06,0,0,.01,0,.02,0,.03,0,.03,0,.07.03.09.02.02.04.03.06,0,0,.01,0,.02,0,.03.02.11.05.26.17.27.04.08.07.16.09.25l.17.58c.02.08-.02.19.05.22v.34c-.07.02-.05.11-.05.18-.05.48-.31.84-.52,1.23-.03.06-.07.1-.09.17-.1.01-.16.13-.17.22l-.04.05c-.06.01-.1.07-.09.13l-.04.04c-.06.01-.1.07-.09.13l-.04.04c-.06.01-.1.07-.09.13l-.04.04c-.07.01-.1.07-.1.13,0,.01,0,.02,0,.03-.03-.02-.07,0-.08.03,0,.02,0,.05,0,.07,0,.01,0,.02,0,.03-.03-.02-.06,0-.07.03,0,.02,0,.05,0,.07-.04.11-.1.22-.14.34-.05-.11-.24.44-.13.45v.07s-.08.01-.08.05v.61s.05.08.08.05c0,.05,0,.11,0,.16-.09-.12.02.75.06.62,0,.02.01.05,0,.07-.06.12.03.22.04.32l.03.47c-.06.05-.06.18,0,.23-.03.06-.01.14-.03.21-.08.28-.17.56-.27.84,0,0,0,.02,0,.03-.03-.03-.07,0-.08.03-.01.02,0,.05,0,.07v.03s-.07,0-.08.03c-.01.02-.01.05,0,.07-.2.28-.49.47-.78.65-.02.01-.07,0-.09.03-.01.02-.04.03-.01.05l-.42.18c-.1.04-.26.04-.28.16-.07,0-.13.04-.2.05-.08.02-.2.02-.19.12l-.2.05c-.08.02-.5.15-.45.26-.04,0-.08.03-.12.04-.03,0-.07,0-.09.03-.01.02-.01.04,0,.06-.03.02-.06.03-.09.05-.12.07-.22.17-.29.29,0,.01,0,.03,0,.04-.03-.03-.07,0-.08.04-.01.02,0,.04,0,.06,0,0,0,.02,0,.03-.1-.08-.47.87-.48.93v.11s-.08,0-.1.05c-.11.32-.37.83-.39.93,0,.04-.03.08-.04.12-.03-.02-.07,0-.08.03,0,.02,0,.05,0,.07,0,.01,0,.02,0,.03-.04-.03-.08,0-.09.06v16.84c0,.16,0,.25-.04.37-.02.03-.05.06-.08.08-.08.03-.23.01-.23.12-.04,0-.08,0-.11,0,.03-.05-.04-.07-.09-.09-.28-.09-.49-.28-.76-.34-.07-.02-.13-.06-.21-.09-.01-.12-.17-.15-.28-.17-.02,0-.05,0-.07,0,.1-.07-.84-.47-.89-.48-.02,0-.05,0-.07,0,.03-.04-.01-.06-.04-.07-.02-.01-.05,0-.06-.01-.04-.02-.08-.04-.12-.04.03-.03-.01-.06-.04-.08-.02-.01-.05,0-.07,0l-.16-.05c.08-.07-.65-.38-.72-.39-.02,0-.05,0-.07,0,0-.1-.11-.12-.19-.12-.01,0-.02,0-.03,0,0-.11-.11-.12-.19-.13-.05,0-.11-.04-.16-.05.11-.07-.72-.4-.71-.39l-.29-.13c.1-.08-.69-.38-.71-.39l-.21-.09c.11-.07-.71-.39-.71-.39l-.29-.13c-.04-.14-.23-.18-.36-.22-.08-.03-.16-.09-.25-.08-.11.01-.26.05-.28.17,0,0-.02,0-.03,0-.06,0-.61.23-.54.3-.02,0-.05,0-.07,0-.03,0-.07-.01-.09.02-.01.02-.03.04,0,.06-.04.01-.08.04-.12.04-.08.01-.19.03-.19.13-.05,0-.11.03-.16.05-.35.11-.66.33-1,.5l-.87.43-1.5.79-2.71,1.39c-.14.07-.29.02-.4-.06-.08-.06-.2-.21-.15-.34.07-.21,0-.38,0-.58v-3.62c0-.44-.05-.83.03-1.28v-11.03s-.04-.52-.12-.44l-.02-.06c-.06-.16-.15-.31-.24-.49-.19-.41-.37-.8-.54-1.22-.03-.08-.25-.72-.35-.65,0-.01,0-.03-.01-.04-.02-.05-.06-.09-.11-.12-.04-.06-.09-.11-.14-.15-.03-.04-.07-.09-.12-.11l-.06-.02c-.31-.3-.76-.4-1.03-.56s-.53-.25-.79-.39l-.3-.17s-.03,0-.05,0c.03-.03-.01-.07-.04-.08-.02-.01-.05,0-.07-.01-.01,0-.03,0-.04,0-.02-.05-.07-.08-.11-.11-.05-.03-.1-.07-.15-.1-.05-.08-.11-.17-.2-.21,0-.02-.01-.04-.02-.06-.02-.05-.05-.1-.11-.11,0-.01,0-.03,0-.04-.01-.08-.03-.2-.14-.19,0-.01,0-.03,0-.04-.1-.23-.17-.46-.19-.73-.05-.58-.04-1.18.07-1.75.04-.21.07-.4,0-.59-.04-.1.03-.27,0-.38.14,0-.2-1.04-.31-.93,0-.01,0-.03-.01-.04-.04-.08-.07-.18-.16-.21l-.02-.06c-.02-.05-.06-.1-.11-.12,0-.02-.01-.04-.02-.06-.02-.05-.06-.09-.11-.11-.01-.03-.04-.06-.05-.09,0-.03,0-.07-.03-.09-.02-.01-.04-.02-.06,0,0-.01,0-.03,0-.04-.03-.07-.07-.14-.15-.16,0-.01,0-.03,0-.04,0-.03,0-.07-.03-.09-.02-.02-.04-.03-.06,0,0-.01,0-.02,0-.03,0-.03,0-.07-.03-.09-.02-.02-.04-.03-.06,0,0-.01,0-.02,0-.03,0-.03,0-.07-.03-.09-.02-.01-.04-.02-.06,0v-.04c-.18-.33-.51-.94-.45-1.36,0-.03-.01-.06-.04-.05,0-.06.01-.15,0-.21.02-.38.31-1.08.52-1.43,0-.01,0-.03.01-.05.03.03.07-.01.08-.04.01-.02,0-.04,0-.07,0-.01,0-.03.01-.04.1-.05.14-.16.2-.25.01-.01.01-.04.02-.05.05-.02.09-.07.11-.12,0-.02.01-.04.02-.06.05-.02.09-.07.11-.12,0-.02.01-.04.02-.06.05-.03.09-.07.11-.12,0-.02.01-.04.02-.06.09-.06.16-.15.2-.25l.02-.06c.11-.05.51-.78.35-.87.04-.14-.05-.34,0-.47.05-.15.04-.27,0-.46-.1-.4-.08-.83-.1-1.25,0-.05-.04-.08-.07-.05,0-.08.01-.17,0-.24.04.03.07-.02.07-.04.06-.22-.14-.3.34-1.23,0-.02.02-.04.02-.05.05-.02.08-.07.11-.12.02-.04.04-.07.06-.1.15-.1.27-.24.38-.38.03-.02.06-.04.09-.05.03-.01.07,0,.09-.03.01-.02.03-.03,0-.06.01,0,.02,0,.03,0,.03,0,.07,0,.09-.03.02-.02.03-.04,0-.06.01,0,.02,0,.03,0,.11-.02.26-.05.27-.17.02,0,.05,0,.07,0,.1,0,.18-.06.28-.12.36-.2.73-.33,1.11-.5.06-.03.12-.06.11-.12.01,0,.02,0,.03,0,.03,0,.07,0,.09-.03.02-.02.03-.04,0-.06h.03s.07,0,.09-.03c.01-.02.01-.04,0-.06.13-.03.22-.18.3-.3.03.01.07,0,.08-.03,0-.02,0-.05,0-.07,0,0,0-.02,0-.03.1.08.43-.78.43-.85v-.11c.1,0,.13-.11.16-.2.09-.27.26-.48.32-.73,0-.04.03-.08.04-.12.03.03.07,0,.08-.03,0-.02,0-.05,0-.07v-.03s.06-.01.08-.03c.01-.02,0-.04.01-.06.01-.03.03-.05.04-.08.03,0,.07,0,.08-.03,0-.02,0-.05,0-.07.09-.13.22-.25.34-.34.03,0,.07,0,.09-.03.01-.02.01-.04,0-.06.03,0,.05-.04.08-.04s.06,0,.09-.03c.01-.02.03-.03,0-.06.11-.05.21-.12.34-.14-.16.02,1-.2.67-.2.07.01.14,0,.2,0,.12.06.29.06.41,0h.2c-.08.13.31.08.37.07.04,0,.08,0,.12,0-.14.04.88.15.75.06.13.06.33-.05.47,0,.11.04.18.05.32,0l.45-.16c.06-.02.13-.05.11-.12.04-.01.08-.03.12-.04.03-.01.07,0,.09-.03.01-.01.02-.04,0-.06.01,0,.03,0,.04-.01.08-.03.16-.08.2-.16l.05-.02c.07-.03.14-.08.17-.15.02,0,.04-.01.05-.02.05-.03.09-.07.12-.11.02,0,.04-.01.06-.02.09-.06.2-.1.25-.19.01,0,.03-.01.04-.01.03,0,.07,0,.09-.03.02-.02.03-.04,0-.06.01,0,.02,0,.03,0,.03,0,.07,0,.09-.03.02-.02.03-.04,0-.06.01,0,.02,0,.03,0,.08,0,.19-.03.19-.13.01,0,.02,0,.03,0,.59-.17.44-.32,1.23-.35.46-.02.88.08,1.29.29.18.1.38.16.54.27ZM13.43,30.54s-.02.02,0,.03c.02.01.06.02.07.01,0,0,0,.02,0,.03,0,.04.05.06.09.05,0,.01.03.02.04.04.02.05.08.07.13.06,0,0,0,.02,0,.03,0,.02.01.04.02.05.02,0,.04,0,.06,0h.04s0,.04,0,.06c.02.03.06.03.09.02.01,0,.02,0,.03,0-.02.04,0,.08.03.09.05.01.1,0,.14,0,.01,0,.03,0,.04,0,.02.13.19.17.31.17.01,0,.03,0,.04,0-.11.04.34.19.4.17.01,0,.03,0,.04,0-.02.03,0,.07.04.08.03.02.07,0,.1,0,.01,0,.03,0,.04,0-.02.03,0,.07.04.08.03.02.07,0,.1,0,.01,0,.03,0,.04,0,.03.11.16.17.27.18.01,0,.03,0,.04,0-.01.07.05.08.1.12l.25.19c.1.07.15.18.26.21.73.79.82,2.08,1.53,2.89,0,.02,0,.04.01.06.02.03.05.03.08.03l.04.04s.03.04.05.04c.02,0,.05,0,.08,0-.03.03.01.07.04.08.04.02.07,0,.1,0h.04s.01.08.04.08c.05.01.1,0,.15,0,.04,0,.08.02.12,0-.02.03,0,.08.05.08h1.14s.07-.06.05-.08h.16c.04.06.11.01.19,0l.51-.02c.06,0,.13-.03.14-.08h.47c-.13.1.45.12.5.09.02-.01.05,0,.07,0-.03.04.01.06.04.08.04.02.08-.01.11,0,.04.02.09.03.12.04.03.04.08.06.13.05.01,0,.03,0,.04,0,.03.11.2.15.31.17.01,0,.03,0,.04,0-.01.02,0,.04,0,.06.02.03.07.01.09.03.13.09.25.19.39.26.01,0,.03,0,.04,0v.03s.05.06.09.05c0,0,.03,0,.04,0,.01.09.1.16.19.17,0,.01.03.02.04.03.01.04.05.06.09.05.01,0,.03,0,.04,0-.03.02-.01.04,0,.06.02.03.06.03.09.03.01,0,.03,0,.04,0-.01.02-.01.04,0,.06.01.01.03.02.05.02.01,0,.02,0,.03,0-.02.02,0,.04,0,.06.02.03.06.02.09.02.02,0,.05,0,.07,0-.02.02,0,.04,0,.06.02.03.05.03.09.03.01,0,.02,0,.04,0-.02.02,0,.04,0,.06.03.03.06.03.1.02.02,0,.05,0,.07,0-.02.02,0,.04.01.06.03.03.06.03.1.03.02,0,.05,0,.07,0-.03.04.02.07.04.08.05.01.1,0,.14,0,.01,0,.03,0,.04,0-.1.09.33.14.32.09h.29c0,.06.42,0,.32-.09.02,0,.05,0,.07,0,.03,0,.06.01.1,0,.02-.01.03-.05.04-.08.17-.09.36-.17.53-.3l1.16-.85c.68-.5,1.46-.58,2.27-.48l.63.07c.38.04.74.11,1.12.06.54-.07.95-.38,1.2-.87.81-1.6.68-2.57,2.74-3.4.42-.17.82-.36,1.21-.58.56-.32.75-.88.7-1.52l-.06-.73c-.08-.97-.28-1.67.26-2.62.62-1.09,1.82-2.02,1.39-3.18s-1.56-1.89-1.68-3.12c-.15-1.59.61-3.12-.51-3.87s-2.68-.83-3.32-2.34l-.48-1.14c-.3-.7-.79-1.38-1.65-1.34-.24.01-.49,0-.73.03l-.7.09c-1.95.24-2.19-.42-3.61-1.4-.7-.48-1.3-.6-2.04-.15-.51.31-.97.65-1.44,1.01-.63.49-1.43.63-2.22.53-.21-.03-.41-.01-.61-.05-.28-.05-.55-.05-.83-.05-1.1-.03-1.58.58-1.98,1.53l-.36.87c-.43,1.03-1.2,1.41-2.16,1.83-.78.34-1.72.75-1.82,1.69-.16,1.49.73,2.85-.56,4.42-.66.81-1.45,1.73-.86,2.79.15.27.33.51.51.76l.53.73c.45.61.61,1.29.55,2.05l-.14,1.65c-.05.56.15,1.06.56,1.41ZM18.16,51.46s.04,0,.06-.01c.03-.01.06-.04.04-.07.03,0,.05,0,.08,0,.02,0,.04,0,.06,0,.02-.02.06-.04.04-.08.03,0,.05-.02.08-.04.03,0,.07-.01.08-.04.01,0,.03,0,.04,0,.12-.03.25-.07.31-.18.02,0,.05,0,.07,0,.04,0,.08-.03.09-.08.01,0,.03,0,.04,0,.02,0,.04,0,.06,0,.03-.01.06-.04.04-.07.02,0,.05,0,.08,0,.06,0,.12-.03.14-.09.01,0,.03,0,.04,0,.02,0,.04,0,.06,0,.03-.01.06-.04.03-.08h.07s.09-.04.1-.09c.01,0,.03,0,.04,0,.06,0,.12-.03.14-.09.02,0,.05,0,.07,0,.02,0,.04-.01.05-.02.02-.01.03-.03,0-.05.04,0,.08,0,.11-.01.02,0,.04-.04.06-.05.32-.18.64-.38,1-.51.11-.04.21-.08.26-.18.03,0,.06,0,.08,0,.02,0,.07-.02.05-.05.02,0,.05,0,.08,0,.02,0,.04,0,.07,0,.03-.01.06-.05.03-.08h.07s.04,0,.07,0c.03-.01.05-.05.03-.08h.07s.04,0,.07,0c.03-.01.05-.05.03-.08h.07s.05,0,.07,0c.03-.01.06-.05.03-.08.01,0,.03,0,.04,0,.04-.01.08-.04.09-.08h.08s.09-.04.1-.09c.02,0,.05,0,.07,0,.11-.02.26-.05.28-.17.02,0,.05,0,.07,0,.02,0,.04,0,.07,0,.03-.01.06-.05.03-.08h.07s.04,0,.07,0c.03-.01.05-.05.03-.08.03,0,.05,0,.08,0,.02,0,.03-.02.04-.04.02-.02.05-.04.08-.04s.07.01.11,0c.03-.01.06-.05.03-.08.01,0,.02,0,.03,0,.11-.02.26-.05.27-.17.02,0,.05,0,.07,0,.02,0,.05,0,.07,0,.03-.01.06-.05.04-.08.01,0,.02,0,.04,0,.03,0,.07.01.1,0,.03-.01.06-.05.04-.08.01,0,.03,0,.04,0,.03,0,.07.01.1,0,.03-.01.06-.05.04-.08.01,0,.03,0,.04,0,.03,0,.07.01.1,0,.03-.01.06-.05.04-.08.01,0,.03,0,.04,0,.02,0,.04,0,.06,0,.03-.01.06-.04.03-.08.02,0,.05,0,.07,0,.09.02.19-.05.29-.02.11.03.2.11.3.1.02,0,.05.01.07.01-.01.02,0,.04,0,.06.03.03.06.02.1.02.02,0,.05,0,.07,0-.02.02,0,.04,0,.06.03.03.06.02.1.02.02,0,.05,0,.07,0-.1.07.74.42.8.44.02,0,.05,0,.07,0-.02.02-.01.04,0,.05.02.01.03.02.05.02h.07c-.06.09.37.26.45.26h.07s0,.05.01.06c.03.03.06.03.09.03.01,0,.02,0,.03,0-.03.03,0,.07.03.08.03.01.07,0,.1,0,.01,0,.03,0,.04,0,0,.03,0,.07.05.09l.42.21s.08.01.07-.02c.14.09.32.15.47.17.11.16.31.23.51.33l3.19,1.67v-4.85s-.01-10.61-.01-10.61c-1.27.63-2.54-.1-3.67.14-.2.04-.38.09-.58.21-1.28.75-2.28,2.15-4.09,1.34-.93-.42-1.56-1.21-2.5-1.51-.07-.02-.14-.09-.24-.07-1.28-.12-2.24.37-3.53-.1v15.4c.13,0,.21-.08.31-.11Z" fill="#0a080e"/>
            <path d="M33.42,35.34v17.07c0,.11-.06.19-.13.2.04-.11.04-.21.04-.37v-16.84c.01-.07.05-.09.09-.06Z" fill="#0f2d44"/>
            <path d="M24.81,49.02c.08.07-.48.3-.54.3-.07-.07.47-.3.54-.3Z" fill="#0f2d44"/>
            <path d="M25.12,48.85c-.02.12-.17.14-.28.17.01-.12.17-.16.28-.17Z" fill="#0f2d44"/>
            <path d="M23.98,49.45c.01.11-.11.11-.19.13,0-.1.11-.11.19-.13Z" fill="#0f2d44"/>
            <path d="M24.2,49.33s-.01.06-.04.07c-.02,0-.04,0-.06.01-.02-.02,0-.04,0-.06.03-.03.06-.02.09-.02Z" fill="#0f2d44"/>
            <path d="M28.79,36.31l-.02,13.33c-.16-.02-.33-.08-.47-.17-.16-.1-.33-.24-.53-.27-.01,0-.03,0-.04,0-.01-.06-.08-.09-.14-.09-.01,0-.02,0-.03,0,.02-.03,0-.07-.03-.08s-.05,0-.07,0h-.07c.06-.08-.39-.26-.45-.26h-.07s.01-.04,0-.06c-.02-.01-.03-.02-.05-.02-.02,0-.05,0-.07,0,0-.11-.71-.41-.8-.44-.02,0-.05,0-.07,0,.03-.03-.01-.06-.04-.07-.02,0-.04,0-.06,0-.02,0-.05,0-.07,0,.03-.03-.01-.06-.04-.07-.02,0-.04-.01-.06,0-.02,0-.05-.01-.07-.01,0-.11-.48-.31-.59-.08-.02,0-.05,0-.07,0-.04,0-.08.04-.09.08-.01,0-.03,0-.04,0-.06,0-.12.02-.14.09-.01,0-.03,0-.04,0-.06,0-.12.02-.14.09-.01,0-.03,0-.04,0-.06,0-.12.02-.14.09-.01,0-.02,0-.04,0-.03,0-.06,0-.09.03-.02.01-.03.03,0,.06-.02,0-.05,0-.07,0-.1.03-.26.05-.27.17-.01,0-.02,0-.03,0-.06,0-.13.03-.14.09-.03,0-.06.02-.08.04-.02,0-.06,0-.04.04-.03,0-.05,0-.08,0-.03,0-.06,0-.09.03-.02.02-.03.03,0,.06h-.07s-.06,0-.09.03c-.02.01-.03.03,0,.06-.02,0-.05,0-.07,0-.1.03-.26.05-.28.17-.02,0-.05,0-.07,0-.04.01-.09.04-.1.08h-.08s-.08.04-.09.09c-.01,0-.03,0-.04,0-.03,0-.06,0-.09.03-.01.01-.04.03-.01.05h-.07s-.06.01-.09.04c-.02.01-.03.03,0,.05h-.07s-.06,0-.09.03c-.02.01-.03.03,0,.06h-.07s-.06,0-.09.03c-.02.01-.03.03,0,.06-.02,0-.05,0-.08,0-.02,0-.07.02-.05.05-.03,0-.05,0-.08,0v-13.27c.02-.06.06-.05.09-.06.94.29,1.57,1.09,2.5,1.51,1.81.81,2.81-.59,4.09-1.34.2-.12.38-.16.58-.21Z" fill="#749cc5"/>
            <path d="M21.62,36.35s-.07,0-.1.06v13.27c-.05.1-.14.14-.26.18-.36.13-.68.33-1,.51-.02-.07-.09,0-.06.05-.04,0-.08,0-.11.01-.02,0-.04,0-.05.02-.02.02-.03.03,0,.05-.02,0-.05,0-.07,0-.06,0-.13.02-.14.09-.01,0-.03,0-.04,0-.03,0-.06,0-.09.03-.02.02-.03.03-.01.06h-.07s-.08.04-.09.08c-.01,0-.03,0-.04,0-.06,0-.13.03-.14.09-.02,0-.05,0-.08,0-.05,0-.08.04-.1.08-.01,0-.03,0-.04,0-.03,0-.06,0-.08.02-.02.02-.03.03,0,.06-.02,0-.05,0-.07,0-.11.04-.25.07-.31.18-.01,0-.03,0-.04,0-.04,0-.08,0-.08.04-.02.02-.05.03-.08.04-.04.02-.1.04-.1.09-.03,0-.05,0-.08,0-.05,0-.09.04-.1.08-.1.03-.18.11-.31.11v-15.4c1.29.47,2.24-.02,3.53.1.1-.01.17.05.24.07Z" fill="#296694"/>
            <path d="M28.77,49.63l.02-13.33c1.13-.24,2.4.49,3.67-.14v10.61s.01,4.85.01,4.85l-3.19-1.67c-.19-.1-.4-.17-.51-.33Z" fill="#f5b00e"/>
            <path d="M26.74,48.67c-.05-.01-.89-.36-.8-.44.09.02.79.33.8.44Z" fill="#0f2d44"/>
            <path d="M25.52,48.04c-.1.01-.19-.07-.3-.1-.1-.03-.2.04-.29.02.11-.24.58-.03.59.08Z" fill="#0f2d44"/>
            <path d="M28.3,49.46s-.04.04-.07.02l-.42-.21s-.05-.06-.05-.09c.2.04.37.17.53.27Z" fill="#0f2d44"/>
            <path d="M27.39,49.01c-.08,0-.51-.18-.45-.26.06,0,.51.19.45.26Z" fill="#0f2d44"/>
            <path d="M25.04,37.22c.01.05-.42,0-.32-.09.11.01.23.01.32.09Z" fill="#0f2d44"/>
            <path d="M23.02,48.93c-.01.12-.17.15-.28.17.02-.12.17-.14.28-.17Z" fill="#0f2d44"/>
            <path d="M24.03,48.4c-.01.12-.17.15-.27.17.02-.12.17-.14.27-.17Z" fill="#0f2d44"/>
            <path d="M24.68,37.13s-.09,0-.14,0c-.02,0-.07-.04-.04-.08.07,0,.15.02.18.09Z" fill="#0f2d44"/>
            <path d="M18.96,51.03c-.06.11-.2.15-.31.18.06-.1.2-.14.31-.18Z" fill="#0f2d44"/>
            <path d="M24.73,48.05s0,.07-.04.08c-.03.02-.07,0-.1,0,.01-.06.08-.09.14-.09Z" fill="#0f2d44"/>
            <path d="M24.55,48.14s0,.07-.04.08c-.03.02-.07,0-.1,0,.01-.06.08-.09.14-.09Z" fill="#0f2d44"/>
            <path d="M24.38,48.23s0,.07-.04.08c-.03.02-.07,0-.1,0,.01-.06.08-.09.14-.09Z" fill="#0f2d44"/>
            <path d="M23.72,48.58s0,.07-.03.08c-.04.02-.07,0-.11,0,.01-.06.08-.09.14-.09Z" fill="#0f2d44"/>
            <path d="M27.73,49.19s-.07.01-.1,0c-.03-.01-.06-.05-.03-.08.06,0,.12.02.14.09Z" fill="#0f2d44"/>
            <path d="M22.19,49.36s0,.07-.03.08c-.02,0-.05,0-.07,0-.02-.02,0-.04,0-.05.03-.02.06-.02.09-.03Z" fill="#0f2d44"/>
            <path d="M19.48,50.76c-.02.06-.08.09-.14.09.01-.06.08-.09.14-.09Z" fill="#0f2d44"/>
            <path d="M19.97,50.5c-.02.06-.08.09-.14.09.02-.07.08-.09.14-.09Z" fill="#0f2d44"/>
            <path d="M25.69,48.13s-.07.01-.1-.02c-.01-.02-.02-.04,0-.06.02,0,.04,0,.06,0,.03.01.07.04.04.07Z" fill="#0f2d44"/>
            <path d="M25.86,48.22s-.07.01-.1-.02c-.01-.02-.02-.04,0-.06.02,0,.04,0,.06,0,.03,0,.07.04.04.07Z" fill="#0f2d44"/>
            <path d="M24.2,48.31s0,.07-.04.08c-.02.01-.05,0-.07,0-.02-.02,0-.04,0-.06.03-.03.06-.03.09-.03Z" fill="#0f2d44"/>
            <path d="M23.37,48.75s0,.07-.03.08c-.02,0-.05,0-.07,0-.02-.02,0-.04,0-.06.03-.02.06-.02.09-.03Z" fill="#0f2d44"/>
            <path d="M23.2,48.84s0,.07-.03.08c-.02.01-.05,0-.07,0-.02-.02,0-.04,0-.06.03-.02.06-.02.09-.03Z" fill="#0f2d44"/>
            <path d="M27.57,49.1s-.07,0-.09-.03c-.01-.02-.03-.03-.01-.06.02,0,.04,0,.07,0s.06.04.03.08Z" fill="#0f2d44"/>
            <path d="M21.84,49.54s0,.07-.03.08c-.02,0-.05,0-.07,0-.02-.02,0-.04,0-.06.03-.02.06-.02.09-.03Z" fill="#0f2d44"/>
            <path d="M22.02,49.45s0,.07-.03.08c-.02,0-.05,0-.07,0-.02-.02,0-.04,0-.06.03-.02.06-.02.09-.03Z" fill="#0f2d44"/>
            <path d="M22.37,49.28s0,.07-.03.08c-.03,0-.05,0-.07,0-.02-.02,0-.04.01-.05.03-.02.06-.03.09-.03Z" fill="#0f2d44"/>
            <path d="M19.52,50.76s.05-.08.09-.08c.02.03,0,.06-.03.08-.02,0-.04,0-.06,0Z" fill="#0f2d44"/>
            <path d="M18.16,51.46s.05-.08.1-.08c.03.03-.01.06-.04.07-.02.01-.04,0-.06.01Z" fill="#0f2d44"/>
            <path d="M18.34,51.37c0-.05.06-.07.1-.09.02.03-.02.06-.04.08-.02.01-.04,0-.06,0Z" fill="#0f2d44"/>
            <path d="M19.12,50.94s-.05.07-.09.08c-.02-.02,0-.04,0-.06.02-.02.05-.03.08-.02Z" fill="#0f2d44"/>
            <path d="M24.76,48.05s.05-.08.09-.08c.02.03,0,.06-.03.08-.02,0-.04,0-.06,0Z" fill="#0f2d44"/>
            <path d="M19.17,50.94s.05-.08.1-.08c.03.03,0,.06-.04.07-.02,0-.04.01-.06,0Z" fill="#0f2d44"/>
            <path d="M19.78,50.59s-.05.08-.1.08c-.02-.02,0-.04.01-.06.02-.03.05-.03.09-.03Z" fill="#0f2d44"/>
            <path d="M20.04,50.5s-.01-.04,0-.05c.02-.01.03-.02.05-.02.02.02.01.04,0,.05-.02.01-.03.02-.05.02Z" fill="#0f2d44"/>
            <path d="M20.27,50.36s-.03.04-.06.05c-.03-.04.03-.12.06-.05Z" fill="#0f2d44"/>
            <path d="M26.87,48.75s-.04,0-.05-.02c-.02-.02-.03-.03,0-.05.02,0,.04.01.05.02.02.01.03.03,0,.05Z" fill="#0f2d44"/>
            <path d="M18.6,51.2s-.05.04-.08.04c0-.04.05-.05.08-.04Z" fill="#0f2d44"/>
            <path d="M23.45,48.74s.02-.03.04-.04c-.01.01-.03.03-.04.04Z" fill="#0f2d44"/>
            <path d="M21.61,49.67s.03-.04.05-.05c.02.03-.03.04-.05.05Z" fill="#0f2d44"/>
            <path d="M22.58,49.19s.05-.07.1-.08c-.01.04-.05.08-.1.08Z" fill="#0f2d44"/>
            <path d="M22.41,49.27s.05-.08.09-.08c-.02.04-.05.07-.09.08Z" fill="#0f2d44"/>
          </g>
        </g>
      </g>
    </g>
  </g>
</svg>