<?xml version="1.0" encoding="UTF-8"?>
<svg id="Layer_2" data-name="Layer 2" xmlns="http://www.w3.org/2000/svg" viewBox="0 0 281.97 334.55">
  <g id="Layer_1-2" data-name="Layer 1">
    <path d="M161.08,319.76c-45.87.95-90.25-2.38-100.61-10.73,6.23-23.87,73.83-23.26,75.95-18.12l67.57-1.43c46.36-.95,45.92,13.7,23.67,19.55-33.04,13.11-66.58,10.73-66.58,10.73Z" fill="#0e1a26" opacity=".2"/>
    <path d="M260.34,334.55H21.63c-11.93,0-21.63-9.71-21.63-21.63V21.63C0,9.71,9.71,0,21.63,0h238.7c11.93,0,21.63,9.71,21.63,21.63v291.28c0,11.93-9.71,21.63-21.63,21.63ZM21.63,1C10.26,1,1,10.26,1,21.63v291.28c0,11.38,9.26,20.63,20.63,20.63h238.7c11.38,0,20.63-9.26,20.63-20.63V21.63c0-11.38-9.26-20.63-20.63-20.63H21.63Z" fill="#fafffe"/>
    <g opacity=".5">
      <rect x="27.94" y="18.5" width="226.09" height="77.61" rx="9.15" ry="9.15" fill="#1a2a3d"/>
      <path d="M244.89,96.6H37.09c-5.32,0-9.64-4.33-9.64-9.64V27.64c0-5.32,4.33-9.64,9.64-9.64h207.8c5.32,0,9.64,4.33,9.64,9.64v59.32c0,5.32-4.33,9.64-9.64,9.64ZM37.09,19c-4.77,0-8.64,3.88-8.64,8.64v59.32c0,4.77,3.88,8.64,8.64,8.64h207.8c4.77,0,8.64-3.88,8.64-8.64V27.64c0-4.77-3.88-8.64-8.64-8.64H37.09Z" fill="#7dabe2"/>
    </g>
    <g>
      <path d="M89.44,32.7l4.38,12.38,4.36-12.38h4.62v17.06h-3.53v-4.66l.35-8.05-4.61,12.71h-2.41l-4.59-12.7.35,8.04v4.66h-3.52v-17.06h4.59Z" fill="#fff"/>
      <path d="M110.28,49.99c-1.86,0-3.37-.57-4.54-1.71s-1.75-2.66-1.75-4.56v-.33c0-1.27.25-2.41.74-3.42s1.19-1.78,2.09-2.32,1.93-.81,3.09-.81c1.73,0,3.1.55,4.1,1.64s1.49,2.64,1.49,4.65v1.38h-8.07c.11.83.44,1.49.99,1.99s1.25.75,2.09.75c1.3,0,2.32-.47,3.06-1.42l1.66,1.86c-.51.72-1.2,1.28-2.06,1.68s-1.83.6-2.88.6ZM109.9,39.58c-.67,0-1.22.23-1.63.68s-.69,1.11-.8,1.95h4.71v-.27c-.02-.75-.22-1.34-.61-1.75-.39-.41-.95-.62-1.66-.62Z" fill="#fff"/>
      <path d="M119.34,37.08l.11,1.46c.91-1.13,2.12-1.7,3.64-1.7,1.34,0,2.34.39,3,1.18s.99,1.97,1.01,3.54v8.19h-3.39v-8.11c0-.72-.16-1.24-.47-1.56s-.83-.49-1.56-.49c-.95,0-1.67.41-2.14,1.22v8.94h-3.39v-12.68h3.19Z" fill="#fff"/>
      <path d="M135.33,46.26c0-.41-.21-.74-.62-.98s-1.07-.45-1.97-.64c-3.02-.63-4.52-1.91-4.52-3.84,0-1.12.47-2.06,1.4-2.82s2.15-1.13,3.66-1.13c1.61,0,2.9.38,3.86,1.14s1.45,1.74,1.45,2.95h-3.39c0-.48-.16-.88-.47-1.2s-.8-.47-1.46-.47c-.57,0-1.01.13-1.32.39s-.47.59-.47.98c0,.38.18.68.53.91s.96.43,1.8.6,1.55.36,2.13.57c1.79.66,2.68,1.79,2.68,3.41,0,1.16-.5,2.09-1.49,2.81s-2.27,1.07-3.84,1.07c-1.06,0-2.01-.19-2.83-.57s-1.47-.9-1.94-1.56-.7-1.37-.7-2.14h3.21c.03.6.25,1.06.67,1.38s.97.48,1.66.48c.65,0,1.14-.12,1.47-.37s.5-.57.5-.97Z" fill="#fff"/>
      <path d="M146.95,49.76c-.16-.3-.27-.68-.34-1.14-.82.91-1.89,1.37-3.2,1.37-1.24,0-2.27-.36-3.09-1.08s-1.22-1.62-1.22-2.72c0-1.34.5-2.38,1.49-3.09s2.44-1.08,4.32-1.09h1.56v-.73c0-.59-.15-1.05-.45-1.41s-.78-.53-1.42-.53c-.57,0-1.02.14-1.34.41s-.49.65-.49,1.12h-3.39c0-.73.23-1.41.68-2.04s1.09-1.12,1.92-1.47,1.76-.53,2.79-.53c1.56,0,2.8.39,3.72,1.18s1.38,1.89,1.38,3.31v5.5c0,1.2.18,2.11.5,2.73v.2h-3.42ZM144.15,47.4c.5,0,.96-.11,1.38-.33s.73-.52.94-.9v-2.18h-1.27c-1.7,0-2.6.59-2.71,1.76v.2c-.01.42.14.77.43,1.04s.7.41,1.22.41Z" fill="#fff"/>
      <path d="M150.77,43.33c0-1.95.46-3.51,1.39-4.7s2.17-1.78,3.74-1.78c1.39,0,2.47.48,3.25,1.43l.14-1.2h3.07v12.26c0,1.11-.25,2.07-.76,2.89s-1.21,1.45-2.13,1.88-1.98.64-3.21.64c-.93,0-1.84-.19-2.72-.56s-1.55-.85-2-1.44l1.5-2.06c.84.95,1.87,1.42,3.07,1.42.9,0,1.6-.24,2.1-.72s.75-1.16.75-2.04v-.68c-.78.88-1.81,1.32-3.08,1.32-1.52,0-2.76-.6-3.7-1.79s-1.41-2.77-1.41-4.74v-.14ZM154.16,43.58c0,1.15.23,2.05.69,2.71s1.09.98,1.9.98c1.03,0,1.77-.39,2.21-1.16v-5.34c-.45-.77-1.18-1.16-2.19-1.16-.81,0-1.45.33-1.92,1s-.7,1.66-.7,2.98Z" fill="#fff"/>
      <path d="M169.6,49.99c-1.86,0-3.37-.57-4.54-1.71s-1.75-2.66-1.75-4.56v-.33c0-1.27.25-2.41.74-3.42s1.19-1.78,2.09-2.32,1.93-.81,3.09-.81c1.73,0,3.1.55,4.1,1.64s1.49,2.64,1.49,4.65v1.38h-8.07c.11.83.44,1.49.99,1.99s1.25.75,2.09.75c1.3,0,2.32-.47,3.06-1.42l1.66,1.86c-.51.72-1.2,1.28-2.06,1.68s-1.83.6-2.88.6ZM169.22,39.58c-.67,0-1.22.23-1.63.68s-.69,1.11-.8,1.95h4.71v-.27c-.02-.75-.22-1.34-.61-1.75-.39-.41-.95-.62-1.66-.62Z" fill="#fff"/>
      <path d="M178.71,37.08l.11,1.42c.9-1.1,2.11-1.65,3.64-1.65,1.63,0,2.75.64,3.36,1.93.89-1.29,2.16-1.93,3.81-1.93,1.38,0,2.4.4,3.07,1.2s1.01,2.01,1.01,3.62v8.1h-3.4v-8.09c0-.72-.14-1.24-.42-1.58s-.78-.5-1.49-.5c-1.02,0-1.72.48-2.11,1.45v8.71s-3.38,0-3.38,0v-8.07c0-.73-.14-1.27-.43-1.59s-.78-.49-1.48-.49c-.96,0-1.66.4-2.09,1.2v8.96h-3.39v-12.68h3.18Z" fill="#fff"/>
      <path d="M77.17,72.13c0-1.98.44-3.55,1.33-4.72s2.1-1.76,3.64-1.76c1.23,0,2.25.46,3.06,1.38v-6.47h3.4v18h-3.06l-.16-1.35c-.84,1.05-1.93,1.58-3.26,1.58-1.49,0-2.69-.59-3.59-1.76s-1.35-2.81-1.35-4.9ZM80.55,72.38c0,1.19.21,2.1.62,2.73s1.02.95,1.8.95c1.05,0,1.79-.44,2.21-1.33v-5.01c-.42-.88-1.15-1.33-2.19-1.33-1.63,0-2.45,1.33-2.45,3.98Z" fill="#fff"/>
      <path d="M89.49,72.1c0-1.26.24-2.38.73-3.36s1.18-1.75,2.09-2.29,1.97-.81,3.17-.81c1.71,0,3.11.52,4.19,1.57s1.69,2.47,1.81,4.27l.02.87c0,1.95-.54,3.51-1.63,4.68s-2.54,1.76-4.37,1.76-3.29-.59-4.38-1.76-1.63-2.77-1.63-4.78v-.15ZM92.88,72.34c0,1.21.23,2.13.68,2.76s1.1.96,1.95.96,1.46-.32,1.92-.95.69-1.64.69-3.02c0-1.18-.23-2.1-.69-2.75s-1.11-.97-1.95-.97-1.47.32-1.92.97-.68,1.65-.68,3Z" fill="#fff"/>
      <path d="M110.9,72.55v6.01h-3.52v-17.06h6.66c1.28,0,2.41.23,3.38.7s1.72,1.13,2.24,2,.79,1.85.79,2.95c0,1.67-.57,2.99-1.72,3.96s-2.73,1.45-4.75,1.45h-3.08ZM110.9,69.7h3.14c.93,0,1.64-.22,2.13-.66s.73-1.06.73-1.88-.25-1.51-.74-2.03-1.17-.78-2.04-.8h-3.22v5.36Z" fill="#fff"/>
      <path d="M128.57,69.06c-.46-.06-.87-.09-1.22-.09-1.28,0-2.12.43-2.52,1.3v8.3h-3.39v-12.68h3.2l.09,1.51c.68-1.16,1.62-1.75,2.82-1.75.38,0,.73.05,1.05.15l-.05,3.26Z" fill="#fff"/>
      <path d="M128.05,72.1c0-1.26.24-2.38.73-3.36s1.18-1.75,2.09-2.29,1.97-.81,3.17-.81c1.71,0,3.11.52,4.19,1.57s1.69,2.47,1.81,4.27l.02.87c0,1.95-.54,3.51-1.63,4.68s-2.54,1.76-4.37,1.76-3.29-.59-4.38-1.76-1.63-2.77-1.63-4.78v-.15ZM131.44,72.34c0,1.21.23,2.13.68,2.76s1.1.96,1.95.96,1.46-.32,1.92-.95.69-1.64.69-3.02c0-1.18-.23-2.1-.69-2.75s-1.11-.97-1.95-.97-1.47.32-1.92.97-.68,1.65-.68,3Z" fill="#fff"/>
      <path d="M141.87,78.56v-10.2h-1.89v-2.48h1.89v-1.08c0-1.42.41-2.53,1.22-3.31s1.96-1.18,3.43-1.18c.47,0,1.04.08,1.72.23l-.04,2.62c-.28-.07-.62-.11-1.03-.11-1.27,0-1.91.6-1.91,1.79v1.02h2.52v2.48h-2.52v10.2h-3.4Z" fill="#fff"/>
      <path d="M153.9,78.79c-1.86,0-3.37-.57-4.54-1.71s-1.75-2.66-1.75-4.56v-.33c0-1.27.25-2.41.74-3.42s1.19-1.78,2.09-2.32,1.93-.81,3.09-.81c1.73,0,3.1.55,4.1,1.64s1.49,2.64,1.49,4.65v1.38h-8.07c.11.83.44,1.49.99,1.99s1.25.75,2.09.75c1.3,0,2.32-.47,3.06-1.42l1.66,1.86c-.51.72-1.2,1.28-2.06,1.68s-1.83.6-2.88.6ZM153.52,68.38c-.67,0-1.22.23-1.63.68-.42.46-.69,1.11-.8,1.96h4.71v-.27c-.02-.75-.22-1.34-.61-1.75s-.95-.62-1.66-.62Z" fill="#fff"/>
      <path d="M166.71,75.06c0-.41-.21-.74-.62-.98s-1.07-.45-1.97-.64c-3.02-.63-4.52-1.91-4.52-3.84,0-1.12.47-2.06,1.4-2.82s2.15-1.13,3.66-1.13c1.61,0,2.9.38,3.86,1.14s1.45,1.74,1.45,2.95h-3.39c0-.48-.16-.88-.47-1.2s-.8-.47-1.46-.47c-.57,0-1.01.13-1.32.39s-.47.59-.47.98c0,.38.18.68.53.91s.96.43,1.8.6,1.55.36,2.13.57c1.79.66,2.68,1.79,2.68,3.41,0,1.16-.5,2.09-1.49,2.81s-2.27,1.07-3.84,1.07c-1.06,0-2.01-.19-2.83-.57s-1.47-.9-1.94-1.56-.7-1.37-.7-2.14h3.21c.03.6.25,1.06.67,1.38s.97.48,1.66.48c.65,0,1.14-.12,1.47-.37s.5-.57.5-.97Z" fill="#fff"/>
      <path d="M177.85,75.06c0-.41-.21-.74-.62-.98s-1.07-.45-1.97-.64c-3.02-.63-4.52-1.91-4.52-3.84,0-1.12.47-2.06,1.4-2.82s2.15-1.13,3.66-1.13c1.61,0,2.9.38,3.86,1.14s1.45,1.74,1.45,2.95h-3.39c0-.48-.16-.88-.47-1.2s-.8-.47-1.46-.47c-.57,0-1.01.13-1.32.39s-.47.59-.47.98c0,.38.18.68.53.91s.96.43,1.8.6,1.55.36,2.13.57c1.79.66,2.68,1.79,2.68,3.41,0,1.16-.5,2.09-1.49,2.81s-2.27,1.07-3.84,1.07c-1.06,0-2.01-.19-2.83-.57s-1.47-.9-1.94-1.56-.7-1.37-.7-2.14h3.21c.03.6.25,1.06.67,1.38s.97.48,1.66.48c.65,0,1.14-.12,1.47-.37s.5-.57.5-.97Z" fill="#fff"/>
      <path d="M181.59,72.1c0-1.26.24-2.38.73-3.36s1.18-1.75,2.09-2.29,1.97-.81,3.17-.81c1.71,0,3.11.52,4.19,1.57s1.69,2.47,1.81,4.27l.02.87c0,1.95-.54,3.51-1.63,4.68s-2.54,1.76-4.37,1.76-3.29-.59-4.38-1.76-1.63-2.77-1.63-4.78v-.15ZM184.98,72.34c0,1.21.23,2.13.68,2.76s1.1.96,1.95.96,1.46-.32,1.92-.95.69-1.64.69-3.02c0-1.18-.23-2.1-.69-2.75s-1.11-.97-1.95-.97-1.47.32-1.92.97-.68,1.65-.68,3Z" fill="#fff"/>
      <path d="M201.62,69.06c-.46-.06-.87-.09-1.22-.09-1.28,0-2.12.43-2.52,1.3v8.3h-3.39v-12.68h3.2l.09,1.51c.68-1.16,1.62-1.75,2.82-1.75.38,0,.73.05,1.05.15l-.05,3.26Z" fill="#fff"/>
    </g>
    <g id="_5dnqOq" data-name="5dnqOq">
      <g>
        <path d="M158.6,314.56c-8.22.76-16.61.09-24.94.32-.04-.12.11-.32.36-.32h24.59Z" fill="#4d81ac"/>
        <path d="M65.23,180.2v-4.5c0-.33.07-.65.32-.62v4.5c0,.33-.07.65-.32.62Z" fill="#86b0d2"/>
        <g>
          <path d="M128.54,310.4c-.74-20.48-.11-41.15-.32-61.74.08.05.32.08.32.39v61.36Z" fill="#4d81ac"/>
          <path d="M120.55,138.61h-13.75c-.04-.12.11-.32.34-.32h13.07c.23,0,.38.2.34.32Z" fill="#4d81ac"/>
          <path d="M139.73,138.61h-4.8c-.02-.25.29-.33.62-.33h3.55c.33,0,.65.08.62.33Z" fill="#86b0d2"/>
        </g>
        <g>
          <path d="M191.53,110.45v18.56c-.51,6.31-7.17,5.47-11.18,6.13-2.17.36-8.85.51-11.76.9-.18.97-.17,1.71-.03,2.51l20.97.19c14.1.13,29.41,11.69,33.3,25.13,1.02,3.54,2.14,6.92,2.15,10.7l.12,42.09v13.12c0,6.29.22,10.41-5.07,15.18-1.83,1.38-4.26,3.21-6.97,3.22l-50.94.15-.14,62.18c0,2.12-1.81,3.73-3.4,4.06h-24.59c-.25,0-.39.2-.36.32-2.79.08-5.02-1.71-5.12-4.48v-61.36c0-.31-.24-.34-.32-.39-.43-.27-1.21-.37-1.96-.37l-49.48.05c-6.4-1.54-10.71-5.91-11.53-12.63l-.02-55.51c.25.02.33-.29.33-.62v-4.5c0-1.3-.08-2.63.14-4.03,2.63-17.06,17.03-30.87,34.15-32.33,2.38-.2,4.69-.11,6.95-.11h32.94l10.5-.06.15-26.31c.02-3.75,2.5-6.85,6.35-6.85l28.92.03c3.18,0,5.61,2.14,5.88,5.04ZM155.38,148.52l-.06,31.1c2.69-.96,5.17-1.03,8.03-.05l.13-48.18,21.79-1.65c1.05-.08,1.57-1.08,1.57-2.02l-.1-15.96c0-.49-.15-1.57-1-1.57h-28.4c-.71,0-1.23.25-1.57.56-.44.4-.39,1.16-.39,1.96v35.8ZM101.04,143.7c-17.65,1.29-30.73,15.92-30.73,33.94v32.63c0,1.29-.29,2.6,0,4.16.12.67-.11,1.41-.1,2.25l.11,17.64c.02,3.75,1.98,7.77,6.12,8.63.58.12,1.14.61,1.98.58l7.57-.24c2.33-.08,4.78.65,7.4,0,.71-.17,1.73.31,2.66.31l36.61-.25c3.37-.02,5.78-3.78,6.4-6.82.43-2.14.1-4.32.1-6.47v-47.27c0-1.84.29-3.71-.07-5.85-.03-.19-.01-.41-.04-.82-.21-3.81-1.14-7.62-2.8-11.28-.17-.37-.25-.96-.6-1.21-1.58-4.83-5.16-8.78-9.04-12.21-6.73-5.94-16.67-8.83-25.58-7.7ZM137.43,159.77c-.08.52.15,1.01.4,1.57,2.65,5.8,4.09,11.74,4.1,18.26l.06,51.83c0,1.81-.1,3.72-.21,5.65-.15,2.57-1.79,4.07-3.51,6.46l74.04-.09c4.14,0,7.8-4.3,7.81-8.33l.16-56.78c0-2.39-.45-4.26-.64-6.52-.34-4.09-1.86-7.77-3.87-11.55-4.03-7.57-11.46-13.29-19.95-15.43-2.61-.66-5.02-1.29-7.82-1.28h-21.78s.08,16.21.08,16.21v19.84c0,1.43-.49,2.4.62,3.78,1.58,1.95,1.47,4.59.76,6.83-1.27,4.01-4.65,6.38-8.85,6.14-3.46-.2-6.38-2.22-7.55-5.62-1-2.91-.36-6.02,1.08-8.69.56-1.04.21-2.22.2-3.47l-.05-18.82.06-8.69.03-7.55-33.27.11c9.08,4.65,12.43,7.98,18.08,16.16ZM165.47,187.7c0-3.37-2.73-6.1-6.1-6.1s-6.1,2.73-6.1,6.1,2.73,6.1,6.1,6.1,6.1-2.73,6.1-6.1ZM133.19,310.07h23.92s.04-64.15.04-64.15h-23.92s-.04,64.15-.04,64.15Z" fill="#0d3144"/>
          <path d="M225.11,229.78v-13.12c.12-.04.32.12.32.34v12.43c0,.23-.2.38-.32.34Z" fill="#86b0d2"/>
          <path d="M152.53,159.75l.05,18.82c-.21.05-.61-.06-.89.16-3.52,2.71-5.08,6.95-4.61,11.36.73,6.98,6.83,11.58,13.79,10.21,4.14-.81,7.4-3.98,8.79-7.48,1.69-4.29,1.14-8.76-1.35-12.34-.51-.73-1.3-1.05-2-.88v-19.84s47.19-.06,47.19-.06l2.28.57c2.01,3.78,3.53,7.46,3.87,11.55-.18-.28-.65.14-.62.34.62,1.28.2,2.36.13,3.6-.28,4.9-1.05,9.54-1.63,14.41-.14,1.2-.61,2.41-.67,3.4-.21-.87-1.66.36-2.73-.03-.5-.18,0-1.79-.58-2.22-.28-.2-.62-.25-.93-.29l-.24-3.14c-.06-.81-.35-1.47-.72-1.99-.35-.49-.67-.96.01-1.56-.4-.44-.75-.6-1.3-1.04-.69,1.22-1.68.66-2.6.69-4.25.12-1.23-2.11-5.16-.75-1.66.57-2.69-1.09-3.82-1.41-2.14-.62-4.55-.78-6.69-.7-.91.04-1.86,1.67-3.1.43-1.4,1.77-2.81,1.9-2.95,2.83-1.16.48-2.34,1.28-3.77,1.26l-5.59-.08c-2.2,9.98.52,25.24,9.47,31.35,1.62,1.11,3.71,1.38,4.78,2.77-.04.17-.3.17-.32.52.87-.39,1.5-.06,2.55-.02-.06-.57-.68-.32-.67-.72.38.09,1.13.04,1.54.02-3.12-2.03,5.25,4.13,2.07,1.98,1.85,1.25,4.12-.7,4.94-.09,0,0-.74,2.33-1.96,2.14.88.84,1.02,1.78,1.19,2.8-1.98,1.01-3.7,2.55-6.24,3.19-4.86,1.22-9.53,1.96-14.68,1.96l-37.36-.04-.06-51.83c0-6.51-1.44-12.46-4.1-18.26-.26-.56-.49-1.04-.4-1.57l15.1-.03ZM188.69,219.23c0-.2-.16-.36-.36-.36s-.36.16-.36.36.16.36.36.36.36-.16.36-.36ZM190.29,219.86c0-.2-.16-.35-.35-.35s-.35.16-.35.35.16.35.35.35.35-.16.35-.35Z" fill="#4e83b1"/>
          <path d="M219.64,171.81c.19,2.26.64,4.14.64,6.52l-.16,56.78c-.01,4.03-3.67,8.33-7.81,8.33l-74.04.09c1.72-2.39,3.37-3.89,3.51-6.46.11-1.92.21-3.84.21-5.65l37.36.04c5.15,0,9.82-.74,14.68-1.96,2.54-.64,4.26-2.18,6.24-3.19,3.5-1.78,6.43-4.35,8.88-7.79s4.31-7.04,5.41-11.17c1.22-4.61,1.99-9.22,2.29-13.81.07-.99.53-2.2.67-3.4.58-4.86,1.35-9.51,1.63-14.41.07-1.24.5-2.33-.13-3.6-.03-.2.44-.62.62-.34Z" fill="#1f618d"/>
          <polygon points="145.47 310.08 145.35 262.21 133.22 262.04 133.23 245.9 157.15 245.92 157.12 310.08 145.47 310.08" fill="#1f618d"/>
          <path d="M215.77,160.26l-2.28-.57-47.19.06-.08-16.2h21.78c2.79-.01,5.21.61,7.82,1.27,8.48,2.14,15.91,7.87,19.95,15.43Z" fill="#86b0d2"/>
          <polygon points="145.47 310.08 133.19 310.07 133.22 262.04 145.35 262.21 145.47 310.08" fill="#4e83b1"/>
          <path d="M152.53,159.75l-15.1.03c-5.66-8.18-9.01-11.51-18.08-16.16l33.27-.11-.03,7.55-.06,8.69Z" fill="#86b0d2"/>
          <path d="M74.56,175.15c-.05.21-.04.43-.05.65-.39.35-.56.9-.61,1.5.28.34.56.41.85.39v3.08c-.15-.13-.26-.04-.4.06-.19.14-.2.19,0,.33.15.11.26.19.4.06-.04.6-.03,1.2.03,1.8-.13-.12-.26-.07-.42.05-.17.12-.22.18,0,.33.14.1.25.2.4.07v12.97c-.21-.17-.46.08-.55.25-.1.19,0,.35.15.47.12.1.23.22.39.07l-.04,18.73v17.55c0,2.47,1.87,5.36,4.58,5.38l24.61.16c-.87,1.47-2.59,2.64-4.43,1.9l-6.01,1.45c-.23.05-.04.78-.06.9-2.61.64-5.07-.08-7.4,0,.17-.53.21-1.07-.36-1.46-.33-.23-.77.04-1.31,0-3.73-.34-4.92-.65-7.88,1.13-4.14-.86-6.1-4.87-6.12-8.63,1.67.73,1.1-3.95,1.09-4.62l-.05-3.08c-.02-1.47-.11-11.92-.55-12.18-.12-.07-.36-.01-.5-.01-.28-1.56,0-2.87,0-4.16.6.05.85-.76.79-1.38-.25-2.78.5-5.52.06-10.51,0,.02.05-7.49.06-8.36l.06-8.53c.01-2.04-.23-8.14,2.42-7.92.81.07.77.9.85,1.6ZM91.42,242.61c-.17-.66-1.29-.44-1.27-.04.03.58,1.38.45,1.27.04Z" fill="#4e83b1"/>
          <path d="M135.66,163.61c.35.25.43.84.6,1.21-.87-.24,1.35,4.87,1.18,6.33-.93-.71-1.61-.34-2.6.2.75,1.67.74,3.52.89,5.7,1.69-1.16,1.33-2.87,1.59-4.84,1.4-.14-.06,4.46,1.74,3.89.02.41,0,.62.04.82-.24-.05-.93-.08-.93.37l-.02,3.58c0,.86.38,1.58,1.02,1.9v47.27c-.32-.06-.71-.05-1.01-.18-.47-.2-.17-.93-.41-1.43s-1.77-.39-2.03.09c-.3.55.15,1.36-.79,1.31v-9.02c0-.32-.38-.51-.59-.35v-39.59c0-4.81-.81-9.14-2.34-13.45,1.11-.81-.52-1.45-.82-3.73,1.34-.14,2.13-.73,2.7-1.9.96.75.68,1.87,1.54,2.04.1.02.23-.05.25-.22Z" fill="#4d81ac"/>
          <path d="M135.66,163.61c-.02.17-.15.24-.25.22-.86-.16-.57-1.28-1.54-2.04-.57,1.17-1.36,1.76-2.7,1.9.31,2.28,1.93,2.93.82,3.73-1.83-5.03-5.31-8.82-9.04-12.74.68-.41-4.14-3.23-3.87-3.23-.24,0-.63-.07-.75.26-.53-.3-1.47-.79-2.03-.99-.03-1.65-7.91-3.41-8.22-2.18-.39-.06-.83,0-1.23-.03.19-.32-.1-.52-.28-.61-.25-.12-.74.05-1.06,0-2.78-.33-5.47-.71-8.17.23.6-.21-6.18,2.29-4.87,1.58l-2.61,1.41c-.38.2-.65.76-1.13.72-.5-.04-1.17-.46-.78-1.05,1.1-1.62,3.22-1.86,3.08-2.64-.04-.23.14-.44.29-.54.15-.1.57-.07.72-.12-.12.38.33.31.54.3.31,0,.5-.38.82-.54,1.76-.85,4.99-1.3,4.79-2.34.79-.2,1.41-.94,2.58-.61.28.08.34-.52.26-.64,8.91-1.12,18.85,1.76,25.58,7.7,3.88,3.43,7.46,7.38,9.04,12.21Z" fill="#4e83b1"/>
          <path d="M133.68,236.16c1.09-.66,2.27,3.31,3.86,1.66.52-.54.69-1.39,1.51-1.31-.61,3.04-3.02,6.8-6.4,6.82l-36.61.25c-.93,0-1.96-.48-2.66-.31.02-.12-.16-.84.06-.9l6.01-1.45c1.84.75,3.56-.43,4.43-1.9l25.87-.12c1.83,0,2.76-1.8,3.92-2.77ZM97.44,242.92c-.72-.11-1.09.04-.63.36.4-.03.84-.07.63-.36Z" fill="#4d81ac"/>
          <path d="M152.57,178.57c0,1.25.36,2.43-.2,3.47-1.45,2.67-2.09,5.77-1.08,8.69,1.17,3.39,4.08,5.41,7.55,5.62,4.2.24,7.58-2.13,8.85-6.14.71-2.24.82-4.88-.76-6.83-1.12-1.38-.63-2.35-.63-3.78.69-.17,1.49.15,2,.88,2.5,3.58,3.04,8.05,1.35,12.34-1.38,3.51-4.64,6.67-8.79,7.48-6.96,1.37-13.05-3.23-13.79-10.21-.46-4.4,1.09-8.65,4.61-11.36.28-.22.68-.11.89-.16Z" fill="#1f618d"/>
          <path d="M106.84,148.52c-5.14-.34-10.17.35-14.96,2.72-9.64,4.78-15.12,13.79-17.33,23.9-.08-.69-.04-1.53-.85-1.6-2.65-.22-2.41,5.89-2.42,7.92l-.06,8.53c0,.87-.05,8.38-.06,8.36.44,4.99-.31,7.74-.06,10.51.06.63-.2,1.43-.79,1.38v-32.63c.15-.07.36-.2.43-.52,1.46-6.8,4.18-13.22,8.4-18.78,2.6-3.42,7.95-9.05,11.89-10.16.14.77-1.98,1.02-3.08,2.64-.4.58.27,1,.78,1.05s.75-.51,1.13-.72l2.61-1.41c-1.31.71,5.47-1.79,4.87-1.58,2.7-.94,5.39-.56,8.17-.23.32.04.81-.13,1.06,0,.18.09.47.3.28.61Z" fill="#4d81ac"/>
          <path d="M101.04,143.7c.08.12.02.72-.26.64-1.16-.33-1.79.41-2.58.61-2.12.53-4.49,1.14-6.16,2.57-.16.06-.57.02-.72.12-.14.09-.33.31-.29.54-3.94,1.11-9.29,6.75-11.89,10.16-4.22,5.55-6.94,11.98-8.4,18.78-.07.32-.28.45-.44.52,0-18.02,13.08-32.65,30.73-33.94Z" fill="#86b0d2"/>
          <path d="M139.15,230.04c0,2.16.33,4.34-.1,6.47-.82-.08-.99.77-1.51,1.31-1.59,1.65-2.77-2.32-3.86-1.66.32-.59.55-1.73.57-2.52l.16-7.62c.02-.88.26-1.5,0-2.41-.3-1.03-.08-2.18-.08-3.14.2-.16.6.04.6.35v9.02c.94.05.48-.76.78-1.31.26-.48,1.79-.6,2.03-.09s-.06,1.23.41,1.43c.3.13.68.12,1.01.18Z" fill="#4e83b1"/>
          <path d="M70.32,234.32l-.11-17.64c0-.84.22-1.58.1-2.25.14,0,.39-.06.5.01.44.26.52,10.71.55,12.18l.05,3.08c.01.66.59,5.35-1.09,4.62Z" fill="#4d81ac"/>
          <path d="M139.05,176.1c-1.79.58-.34-4.03-1.74-3.89-.26,1.97.1,3.68-1.59,4.84-.15-2.18-.14-4.04-.89-5.7.99-.54,1.67-.91,2.6-.2.17-1.47-2.05-6.58-1.18-6.33,1.66,3.66,2.59,7.47,2.8,11.28Z" fill="#4e83b1"/>
          <path d="M85.99,243.28l-7.57.24c-.84.03-1.39-.46-1.98-.58,2.96-1.78,4.15-1.47,7.88-1.13.53.05.98-.22,1.31,0,.58.39.54.93.36,1.46Z" fill="#4d81ac"/>
          <path d="M139.09,176.92c.36,2.14.07,4.01.07,5.85-.63-.32-1.02-1.04-1.02-1.9l.02-3.58c0-.45.7-.42.93-.37Z" fill="#4e83b1"/>
          <path d="M216.85,193.55c-.3,4.59-1.07,9.2-2.29,13.81-1.09,4.12-3,7.78-5.41,11.17s-5.38,6-8.88,7.79c-.17-1.02-.32-1.96-1.19-2.8,1.22.19,1.97-2.14,1.96-2.14-.81-.61-3.09,1.34-4.94.09,3.18,2.15-5.19-4.01-2.07-1.98,6-.29,11.15-3.94,13.93-9.41,2.64-5.19,4.71-10.63,4.66-16.44l-.02-2.6c.31.04.66.09.93.29.59.43.09,2.04.58,2.22,1.07.38,2.52-.84,2.73.03Z" fill="#4d81ac"/>
          <path d="M211.64,185.89l-4.75.09c-3.42.06-9.31-5.6-17.25-2.86-1.25.43-2.48.8-3.6,1.26.14-.93,1.55-1.06,2.95-2.83,1.24,1.24,2.19-.39,3.1-.43,2.14-.08,4.55.08,6.69.7,1.12.33,2.16,1.98,3.82,1.41,3.93-1.35.91.88,5.16.75.92-.03,1.92.54,2.6-.69.55.43.91.59,1.3,1.04-.68.59-.36,1.07-.01,1.56Z" fill="#4d81ac"/>
          <path d="M192.48,219.46c-.02.4.61.15.67.72-1.06-.04-1.68-.37-2.55.02.02-.35.28-.35.32-.52.57-.34,1.02-.35,1.56-.22Z" fill="#4d81ac"/>
          <circle cx="188.34" cy="219.23" r=".36" fill="#4d81ac"/>
          <circle cx="189.93" cy="219.86" r=".35" fill="#4d81ac"/>
          <path d="M106.84,148.52c.4.03.84-.03,1.23.03,2.83.41,5.54,1.22,8.22,2.18.56.2,1.5.68,2.03.99,1.58.9,2.91,2.33,4.62,2.96,3.73,3.92,7.21,7.71,9.04,12.74,1.52,4.31,2.33,8.64,2.33,13.45v39.59c0,.97-.22,2.12.09,3.14.27.92.03,1.54,0,2.41l-.16,7.62c-.02.79-.25,1.93-.57,2.52-1.17.97-2.09,2.76-3.92,2.77l-25.87.12-24.61-.16c-2.71-.02-4.58-2.91-4.58-5.38v-17.55s.03-18.73.03-18.73v-.79s0-12.97,0-12.97c0-.15.05-.3.03-.45-.06-.6-.07-1.2-.03-1.8.01-.15,0-.31,0-.46v-3.08c.01-.65.33-1.4-.23-1.89,0-.22,0-.44.05-.65,2.21-10.12,7.69-19.12,17.33-23.9,4.78-2.37,9.82-3.06,14.96-2.72ZM80.13,236.44l47.75.04c1.36,0,3.6-.91,3.6-2.59v-54.93c0-5.93-1.86-11.39-5.05-16.11-5.4-7.98-14.18-12.15-23.84-11.56s-17.33,6.08-21.58,14.35c-1.53,2.97-2.92,5.82-3.18,9.28-.54,7.14-.39,14.12-.38,21.33l.03,26.95c0,3.63-.32,7.01.06,10.67.1.97,1.25,2.57,2.59,2.57Z" fill="#0d3144"/>
          <path d="M74.74,177.69c-.29.02-.57-.05-.85-.39.05-.6.22-1.16.61-1.5.56.49.24,1.24.23,1.89Z" fill="#4d81ac"/>
          <path d="M91.42,242.61c.1.41-1.24.54-1.27-.04-.02-.41,1.11-.62,1.27.04Z" fill="#4d81ac"/>
          <path d="M74.73,196.44v.79c-.17.15-.28.02-.4-.07-.15-.12-.25-.28-.15-.47.09-.17.34-.42.55-.25Z" fill="#4d81ac"/>
          <path d="M74.77,183.02c.01.15-.03.3-.03.45-.15.13-.25.04-.4-.07-.21-.15-.17-.21,0-.33s.29-.17.42-.05Z" fill="#4d81ac"/>
          <path d="M74.73,180.77c0,.15.01.31,0,.46-.14.13-.25.04-.4-.06-.19-.14-.19-.19,0-.33.15-.11.26-.19.4-.06Z" fill="#4d81ac"/>
          <path d="M116.3,150.73c-2.69-.96-5.39-1.77-8.22-2.18.31-1.23,8.19.53,8.22,2.18Z" fill="#4d81ac"/>
          <path d="M98.2,144.95c.2,1.03-3.03,1.48-4.79,2.34-.32.15-.52.53-.82.54-.21,0-.66.08-.54-.3,1.67-1.43,4.04-2.04,6.16-2.57Z" fill="#4d81ac"/>
          <path d="M122.95,154.69c-1.71-.64-3.04-2.07-4.62-2.96.13-.33.51-.26.75-.26-.28,0,4.55,2.82,3.87,3.23Z" fill="#4d81ac"/>
          <path d="M97.44,242.92c.21.29-.23.33-.63.36-.46-.32-.09-.47.63-.36Z" fill="#4e83b1"/>
          <g>
            <path d="M211.64,185.89c.37.52.66,1.18.72,1.99l.24,3.14.02,2.6c.05,5.82-2.03,11.26-4.66,16.44-2.78,5.47-7.93,9.12-13.93,9.41-.41.02-1.16.07-1.54-.02-.55-.13-.99-.12-1.56.22-1.07-1.39-3.15-1.66-4.78-2.77-8.95-6.11-11.67-21.37-9.47-31.35l5.59.08c1.43.02,2.61-.78,3.77-1.26s2.36-.83,3.6-1.26c7.95-2.75,13.83,2.92,17.25,2.86l4.75-.09ZM205.86,207.9c2.23-4.46,3.46-9.23,3.66-14.26.06-1.6-.22-3.05.13-4.67-3.11.23-5.77-.52-8.43-1.86-4.54-2.3-9.3-2.32-13.89-.22-2.63,1.2-5.29,1.87-8.31,1.71-.69,6.3.22,12.61,2.67,18.39,1.65,3.89,4.34,6.88,8.07,8.88,6.34,3.41,13.21-2.17,16.1-7.96Z" fill="#0d3144"/>
            <path d="M205.86,207.9c-2.89,5.79-9.76,11.37-16.1,7.96-3.73-2-6.42-4.99-8.07-8.88-2.45-5.78-3.36-12.09-2.67-18.39,3.02.16,5.68-.5,8.31-1.71,4.59-2.1,9.35-2.08,13.89.22,2.66,1.35,5.32,2.09,8.43,1.86-.35,1.62-.07,3.07-.13,4.67-.2,5.03-1.43,9.8-3.66,14.26Z" fill="#f8b50d"/>
          </g>
          <path d="M80.13,236.44c-1.34,0-2.49-1.6-2.59-2.57-.38-3.66-.05-7.03-.06-10.67l-.03-26.95c0-7.21-.16-14.18.38-21.33.26-3.46,1.65-6.31,3.18-9.28,4.25-8.27,12.28-13.78,21.58-14.35s18.44,3.57,23.84,11.56c3.19,4.72,5.05,10.18,5.05,16.11v54.93c0,1.68-2.24,2.59-3.6,2.59l-47.75-.04Z" fill="#1f618d"/>
        </g>
        <g>
          <path d="M191.53,129.01v-18.56c.56,6.1.5,12.45,0,18.56Z" fill="#86b0d2"/>
          <path d="M186.73,111.77l.1,15.96c0,.94-.53,1.94-1.57,2.02l-21.79,1.65-.13,48.18c-2.86-.98-5.34-.91-8.03.05l.06-31.1c0,.25.68-8.34.46-9.94-.33-2.51-.09-4.98.05-7.5.35-6.02.07-11.97.11-18.08,0-1.07.4-1.93,1.62-1.92l27.13.09c.77,0,1.33.68,1.97.6Z" fill="#f8b50d"/>
          <circle cx="159.38" cy="187.7" r="6.1" fill="#f8b50d"/>
          <path d="M186.73,111.77c-.65.08-1.2-.6-1.97-.6l-27.13-.09c-1.22,0-1.61.86-1.62,1.92-.05,6.11.23,12.06-.11,18.08-.15,2.52-.38,4.99-.05,7.5.21,1.6-.46,10.19-.46,9.94v-35.8c0-.81-.05-1.56.39-1.96.34-.31.86-.55,1.57-.55h28.4c.84,0,.99,1.07,1,1.56Z" fill="#86b0d2"/>
        </g>
      </g>
    </g>
  </g>
</svg>