<?xml version="1.0" encoding="UTF-8"?>
<svg id="Layer_2" data-name="Layer 2" xmlns="http://www.w3.org/2000/svg" viewBox="0 0 737.58 101.32">
  <g id="Layer_1-2" data-name="Layer 1">
    <g opacity=".5">
      <rect x=".5" y=".5" width="736.58" height="100.32" rx="18.77" ry="18.77" fill="#1a2a3d"/>
      <path d="M718.31,101.32H19.27c-10.62,0-19.27-8.64-19.27-19.27V19.27C0,8.64,8.64,0,19.27,0h699.05c10.62,0,19.27,8.64,19.27,19.27v62.79c0,10.62-8.64,19.27-19.27,19.27ZM19.27,1C9.19,1,1,9.19,1,19.27v62.79c0,10.07,8.19,18.27,18.27,18.27h699.05c10.07,0,18.27-8.19,18.27-18.27V19.27c0-10.07-8.2-18.27-18.27-18.27H19.27Z" fill="#7dabe2"/>
    </g>
    <g>
      <path d="M66.16,47.47c0,11.48-5.17,19.62-14.18,19.62s-14.18-8.13-14.18-19.62,5.17-19.62,14.18-19.62,14.18,8.19,14.18,19.62ZM57.7,47.47c0-7.64-2.2-15.33-5.71-15.33s-5.71,7.69-5.71,15.33,2.25,15.38,5.71,15.38,5.71-7.69,5.71-15.38Z" fill="#f9eacd"/>
      <path d="M126.16,64.62c0,1.26-.93,2.09-2.36,2.09-3.63,0-7.91-1.32-7.91-7.31v-11.37c0-2.42-1.32-3.85-2.31-3.85-1.98,0-4.07,4.29-4.18,7.97v7.25c0,4.4,2.2,4.01,2.2,5.22s-.88,2.09-2.36,2.09h-7.75c-1.43,0-2.36-.82-2.36-2.09s2.2-.82,2.2-5.22v-11.37c0-2.42-1.26-3.85-2.31-3.85-1.81,0-3.68,3.57-4.12,7.03v8.19c0,4.4,2.25,4.01,2.25,5.22s-.93,2.09-2.36,2.09h-7.8c-1.43,0-2.36-.82-2.36-2.09s2.2-.82,2.2-5.22v-13.3c0-4.4-2.2-4.01-2.2-5.22s.93-2.09,2.36-2.09c3.13,0,6.81.99,7.75,5.27,1.7-2.36,4.62-5.27,8.3-5.27,3.41,0,5.11,3.02,5.88,5.77,1.65-2.42,4.67-5.77,8.68-5.77,5.06,0,6.37,6.59,6.37,9.23v11.37h-.05.05c0,4.4,2.2,4.01,2.2,5.22Z" fill="#f9eacd"/>
      <path d="M150.17,57.09c0,5.33-3.74,10-10.27,10-7.25,0-12.31-5.99-12.31-14.4s4.12-14.4,11.37-14.4c4.34,0,7.09,1.59,9.23,5.38,1.1,1.87,1.48,5.83-.49,5.83h-12.53c-.11,1.04-.16,2.09-.16,3.19,0,5.28,3.3,7.2,5.27,7.2,2.8,0,5.66-1.81,5.66-7.75,0-1.43,4.23.17,4.23,4.95ZM135.39,47.91h6.15c.06-1.81.55-5.82-2.58-5.82-1.7,0-2.91,2.53-3.57,5.82Z" fill="#f9eacd"/>
      <path d="M164.29,64.62c0,1.26-.93,2.09-2.36,2.09h-7.8c-1.43,0-2.36-.82-2.36-2.09s2.2-.82,2.2-5.22v-13.24h.06-.06c0-4.4-2.2-4.01-2.2-5.27s.93-2.03,2.36-2.03c3.63,0,7.91,1.26,7.91,7.31v13.24h.06c0,4.4,2.2,4.01,2.2,5.22ZM153.36,31.54c0-2.53,2.09-4.62,4.67-4.62s4.67,2.09,4.67,4.62-2.09,4.67-4.67,4.67-4.67-2.09-4.67-4.67Z" fill="#f9eacd"/>
      <path d="M188.36,52.69c0,8.41-4.12,14.4-11.32,14.4s-11.37-5.99-11.37-14.4,4.12-14.4,11.37-14.4,11.32,5.99,11.32,14.4ZM181,52.69c0-5.27-1.54-10.6-3.96-10.6s-3.96,5.33-3.96,10.6,1.54,10.55,3.96,10.55,3.96-5.28,3.96-10.55Z" fill="#f9eacd"/>
      <path d="M231.93,64.62c0,1.26-.93,2.09-2.36,2.09-3.46,0-7.53-1.21-7.91-6.59-1.54,3.13-5.82,6.81-8.68,6.81-3.57,0-5.99-2.47-5.99-7.25,0-6.1,6.98-12.42,14.62-8.85-.17-4.62-1.1-8.74-3.24-8.74-3.24,0-1.65,5.05-2.86,6.43-1.92,2.09-8.46-1.15-7.2-4.18,2.14-5.05,5.66-6.04,10.06-6.04,7.25,0,11.37,5.99,11.37,14.4v6.65h-.11l.11.05c0,4.4,2.2,4.01,2.2,5.22ZM221.66,53.13c-8.74-2.86-8.02,8.68-5.66,8.68,3.24,0,5.66-5.5,5.66-8.68Z" fill="#f9eacd"/>
      <path d="M274.96,64.62c0,1.26-.93,2.09-2.36,2.09-3.63,0-7.91-1.32-7.91-7.31v-11.37c0-2.42-1.32-3.85-2.31-3.85-1.98,0-4.07,4.29-4.18,7.97v7.25c0,4.4,2.2,4.01,2.2,5.22s-.88,2.09-2.36,2.09h-7.75c-1.43,0-2.36-.82-2.36-2.09s2.2-.82,2.2-5.22v-11.37c0-2.42-1.26-3.85-2.31-3.85-1.81,0-3.68,3.57-4.12,7.03v8.19c0,4.4,2.25,4.01,2.25,5.22s-.93,2.09-2.36,2.09h-7.8c-1.43,0-2.36-.82-2.36-2.09s2.2-.82,2.2-5.22v-13.3c0-4.4-2.2-4.01-2.2-5.22s.93-2.09,2.36-2.09c3.13,0,6.81.99,7.75,5.27,1.7-2.36,4.62-5.27,8.3-5.27,3.41,0,5.11,3.02,5.88,5.77,1.65-2.42,4.67-5.77,8.68-5.77,5.06,0,6.37,6.59,6.37,9.23v11.37h-.05.05c0,4.4,2.2,4.01,2.2,5.22Z" fill="#f9eacd"/>
      <path d="M301.83,51.71c0,2.64-.93,15.22-8.35,15.22-3.46,0-5.83-2.47-7.2-4.67-1.15,3.52-4.56,4.4-7.47,4.4-1.43,0-2.36-.82-2.36-2.09s2.2-.82,2.2-5.22v-23.74c0-4.4-2.2-3.96-2.2-5.22s.93-2.09,2.36-2.09c3.63,0,7.91,1.32,7.91,7.31v8.13c1.76-2.31,4.56-5,8.13-5,7.31,0,6.98,10.38,6.98,12.97ZM293.58,50.39c0-3.41-1.81-5.88-2.8-5.88-1.81,0-3.63,3.24-4.07,6.59v4.95c.22,2.86.88,5.27,2.58,5.27s4.29-3.74,4.29-10.93Z" fill="#f9eacd"/>
      <path d="M315.89,64.62c0,1.26-.93,2.09-2.36,2.09h-7.8c-1.43,0-2.36-.82-2.36-2.09s2.2-.82,2.2-5.22v-13.24h.05-.05c0-4.4-2.2-4.01-2.2-5.27s.93-2.03,2.36-2.03c3.63,0,7.91,1.26,7.91,7.31v13.24h.05c0,4.4,2.2,4.01,2.2,5.22ZM304.96,31.54c0-2.53,2.09-4.62,4.67-4.62s4.67,2.09,4.67,4.62-2.09,4.67-4.67,4.67-4.67-2.09-4.67-4.67Z" fill="#f9eacd"/>
      <path d="M339.79,57.09c0,5.33-3.74,10-10.27,10-7.25,0-12.31-5.99-12.31-14.4s4.12-14.4,11.37-14.4c4.34,0,7.09,1.59,9.23,5.38,1.1,1.87,1.48,5.83-.5,5.83h-12.53c-.11,1.04-.17,2.09-.17,3.19,0,5.28,3.3,7.2,5.27,7.2,2.8,0,5.66-1.81,5.66-7.75,0-1.43,4.23.17,4.23,4.95ZM325.01,47.91h6.15c.05-1.81.55-5.82-2.58-5.82-1.7,0-2.91,2.53-3.57,5.82Z" fill="#f9eacd"/>
      <path d="M368.37,64.62c0,1.26-.88,2.09-2.36,2.09-3.57,0-7.91-1.32-7.91-7.31v-11.37c0-2.42-1.26-3.85-2.31-3.85-1.81,0-3.68,3.57-4.12,7.03v8.19c0,4.4,2.25,4.01,2.25,5.22s-.93,2.09-2.36,2.09h-7.8c-1.43,0-2.36-.82-2.36-2.09s2.2-.82,2.2-5.22v-13.3c0-4.4-2.2-4.01-2.2-5.22s.93-2.09,2.36-2.09c3.13,0,6.81.99,7.75,5.27,1.7-2.36,4.62-5.27,8.3-5.27,5.06,0,6.37,6.59,6.37,9.23v11.37h-.05.05c0,4.4,2.2,4.01,2.2,5.22Z" fill="#f9eacd"/>
      <path d="M385.13,61.05c0,4.95-5.22,5.6-6.7,5.6-3.57,0-7.86-1.32-7.91-7.31v-20.77h-2.8c-.22,0-.44-.11-.55-.27-.17-.22-.22-.44-.17-.66l.22-1.21c.11-.33.38-.6.77-.6h2.53v-.22c0-4.4-2.2-3.96-2.2-5.22s.93-2.09,2.36-2.09c3.57,0,7.91,1.32,7.91,7.31v.22h3.57c.22,0,.44.11.6.27.11.17.22.44.16.66l-.27,1.21c-.05.33-.38.6-.71.6h-3.35v20.77c0,3.19,3.63,3.24,5.38.6.38-.6,1.15-.05,1.15,1.1Z" fill="#f9eacd"/>
      <path d="M408.97,57.09c0,5.33-3.74,10-10.27,10-7.25,0-12.31-5.99-12.31-14.4s4.12-14.4,11.37-14.4c4.34,0,7.09,1.59,9.23,5.38,1.1,1.87,1.48,5.83-.5,5.83h-12.53c-.11,1.04-.17,2.09-.17,3.19,0,5.28,3.3,7.2,5.27,7.2,2.8,0,5.66-1.81,5.66-7.75,0-1.43,4.23.17,4.23,4.95ZM394.19,47.91h6.15c.05-1.81.55-5.82-2.58-5.82-1.7,0-2.91,2.53-3.57,5.82Z" fill="#f9eacd"/>
      <path d="M450.18,57.09c0,5.33-3.74,10-10.27,10-7.25,0-12.31-5.99-12.31-14.4s4.12-14.4,11.37-14.4c4.34,0,7.09,1.59,9.23,5.38,1.1,1.87,1.48,5.83-.5,5.83h-12.53c-.11,1.04-.17,2.09-.17,3.19,0,5.28,3.3,7.2,5.27,7.2,2.8,0,5.66-1.81,5.66-7.75,0-1.43,4.23.17,4.23,4.95ZM435.4,47.91h6.15c.05-1.81.55-5.82-2.58-5.82-1.7,0-2.91,2.53-3.57,5.82Z" fill="#f9eacd"/>
      <path d="M491.56,52.69c0,8.41-4.12,14.4-11.32,14.4s-11.37-5.99-11.37-14.4,4.12-14.4,11.37-14.4,11.32,5.99,11.32,14.4ZM484.19,52.69c0-5.27-1.54-10.6-3.96-10.6s-3.96,5.33-3.96,10.6,1.54,10.55,3.96,10.55,3.96-5.28,3.96-10.55Z" fill="#f9eacd"/>
      <path d="M527.22,61.05c0,4.95-5.22,5.6-6.7,5.6-3.57,0-7.86-1.32-7.91-7.31v-20.77h-2.8c-.22,0-.44-.11-.55-.27-.17-.22-.22-.44-.17-.66l.22-1.21c.11-.33.38-.6.77-.6h2.53v-.22c0-4.4-2.2-3.96-2.2-5.22s.93-2.09,2.36-2.09c3.57,0,7.91,1.32,7.91,7.31v.22h3.57c.22,0,.44.11.6.27.11.17.22.44.17.66l-.28,1.21c-.05.33-.38.6-.71.6h-3.35v20.77c0,3.19,3.63,3.24,5.38.6.38-.6,1.15-.05,1.15,1.1Z" fill="#f9eacd"/>
      <path d="M545.4,50.28c-1.26-1.37.38-8.19-2.86-8.19-2.09,0-3.52,3.85-3.9,8.24v9.07c0,4.4,2.25,4.01,2.25,5.22s-.93,2.09-2.36,2.09h-7.8c-1.43,0-2.36-.82-2.36-2.09s2.2-.82,2.2-5.22v-13.24h.05-.05c0-4.4-2.2-4.01-2.2-5.27s.93-2.03,2.36-2.03c2.47,0,5.27.6,6.81,2.91,1.15-2.2,3.13-3.46,5.6-3.46,5.6,0,7.31,2.75,9.4,7.8,1.26,3.02-5.27,6.21-7.14,4.18Z" fill="#f9eacd"/>
      <path d="M578.92,64.73c0,1.26-.93,2.09-2.36,2.09-3.46,0-7.53-1.21-7.91-6.59-1.54,3.08-5.82,6.81-8.68,6.81-3.57,0-5.99-2.47-5.99-7.25,0-6.1,6.98-12.42,14.62-8.85-.22-4.62-1.1-8.74-3.24-8.74-3.24,0-1.65,5.05-2.86,6.43-1.92,2.09-8.46-1.15-7.2-4.18,2.14-5.06,5.66-6.04,10.06-6.04,7.25,0,11.37,5.99,11.37,14.4v6.65h-.11l.11.05c0,4.4,2.2,4.01,2.2,5.22ZM560.02,36.21c-.11-.22-.11-.44,0-.66l3.79-7.09c.11-.22.33-.33.55-.33h2.31c.22,0,.44.11.55.33l3.79,7.09c.11.22.11.44,0,.66-.11.17-.33.27-.55.27h-1.48c-.27,0-.49-.11-.6-.33l-2.31-4.34c-.11-.22-.33-.33-.55-.33s-.44.11-.55.33l-2.36,4.34c-.11.22-.33.33-.55.33h-1.48c-.22,0-.44-.11-.55-.27ZM568.65,53.24c-8.74-2.86-8.02,8.68-5.66,8.68,3.24,0,5.66-5.5,5.66-8.68Z" fill="#f9eacd"/>
      <path d="M607.38,64.62c0,1.26-.88,2.09-2.36,2.09-3.57,0-7.91-1.32-7.91-7.31v-11.37c0-2.42-1.26-3.85-2.31-3.85-1.81,0-3.68,3.57-4.12,7.03v8.19c0,4.4,2.25,4.01,2.25,5.22s-.93,2.09-2.36,2.09h-7.8c-1.43,0-2.36-.82-2.36-2.09s2.2-.82,2.2-5.22v-13.3c0-4.4-2.2-4.01-2.2-5.22s.93-2.09,2.36-2.09c3.13,0,6.81.99,7.75,5.27,1.7-2.36,4.62-5.27,8.3-5.27,5.06,0,6.37,6.59,6.37,9.23v11.37h-.05.05c0,4.4,2.2,4.01,2.2,5.22Z" fill="#f9eacd"/>
      <path d="M632.99,58.24c0,7.42-8.13,8.85-11.98,8.85-1.15,0-7.09,0-10.05-2.86-2.03-1.98,1.98-8.63,5.22-7.36,3.46,1.43,2.36,5.82,5.99,6.59,1.92.38,3.85-1.1,3.85-2.91,0-3.68-4.56-4.23-7.42-5.49-2.75-1.26-6.7-2.03-6.7-8.63,0-5.99,6.37-8.13,9.34-8.13,1.32,0,8.13-.22,11.32,2.86,2.03,1.98-2.47,6.48-4.73,5.38-1.54-.66-2.8-4.83-5.6-4.83-1.7,0-3.35,1.26-3.35,3.13,0,3.63,4.83,4.01,6.76,4.62,3.02.93,7.36,2.2,7.36,8.79Z" fill="#f9eacd"/>
      <path d="M646.29,64.62c0,1.26-.93,2.09-2.36,2.09h-7.8c-1.43,0-2.36-.82-2.36-2.09s2.2-.82,2.2-5.22v-13.24h.05-.05c0-4.4-2.2-4.01-2.2-5.27s.93-2.03,2.36-2.03c3.63,0,7.91,1.26,7.91,7.31v13.24h.05c0,4.4,2.2,4.01,2.2,5.22ZM635.35,31.54c0-2.53,2.09-4.62,4.67-4.62s4.67,2.09,4.67,4.62-2.09,4.67-4.67,4.67-4.67-2.09-4.67-4.67Z" fill="#f9eacd"/>
      <path d="M664.14,61.05c0,4.95-5.22,5.6-6.7,5.6-3.57,0-7.86-1.32-7.91-7.31v-20.77h-2.8c-.22,0-.44-.11-.55-.27-.17-.22-.22-.44-.17-.66l.22-1.21c.11-.33.38-.6.77-.6h2.53v-.22c0-4.4-2.2-3.96-2.2-5.22s.93-2.09,2.36-2.09c3.57,0,7.91,1.32,7.91,7.31v.22h3.57c.22,0,.44.11.6.27.11.17.22.44.16.66l-.27,1.21c-.05.33-.38.6-.71.6h-3.35v20.77c0,3.19,3.63,3.24,5.38.6.38-.6,1.15-.05,1.15,1.1Z" fill="#f9eacd"/>
      <path d="M688.16,52.69c0,8.41-4.12,14.4-11.32,14.4s-11.37-5.99-11.37-14.4,4.12-14.4,11.37-14.4,11.32,5.99,11.32,14.4ZM680.79,52.69c0-5.27-1.54-10.6-3.96-10.6s-3.96,5.33-3.96,10.6,1.54,10.55,3.96,10.55,3.96-5.28,3.96-10.55Z" fill="#f9eacd"/>
    </g>
  </g>
</svg>