<?xml version="1.0" encoding="UTF-8"?>
<svg id="Layer_2" data-name="Layer 2" xmlns="http://www.w3.org/2000/svg" viewBox="0 0 106.35 150.85">
  <g id="Layer_1-2" data-name="Layer 1">
    <g id="x44gLr">
      <g>
        <path d="M3.89,9.85c-.2-.31-.2-.8,0-1.11v1.11Z" fill="#649cb4"/>
        <path d="M3.89,12.49c-.14-.04-.13-.25-.12-.37,0-.08,0-.26.12-.26v.63Z" fill="#649cb4"/>
        <path d="M3.89,11.53c-.02-.06-.14-.11-.12-.2.02-.07,0-.23.11-.19v.39Z" fill="#649cb4"/>
        <path d="M3.89,96.35c-.07.05-.09-.05-.12-.15v-11.25c.03-.1.05-.2.12-.15v11.54Z" fill="#649cb4"/>
        <path d="M3.89,61.56c-.07.05-.09-.05-.12-.14v-9.93c.03-.09.06-.19.13-.14v10.22Z" fill="#649cb4"/>
        <path d="M3.89,81.84c-.07.05-.09-.05-.12-.14v-9.33c.03-.09.06-.19.12-.14v9.62Z" fill="#649cb4"/>
        <path d="M3.9,70.68c-.07.05-.09-.05-.12-.14v-8.38c.03-.09.06-.19.12-.14v8.66Z" fill="#649cb4"/>
        <path d="M3.9,116.99c-.07.05-.09-.05-.12-.14v-5.86c.03-.09.06-.19.12-.14v6.14Z" fill="#649cb4"/>
        <path d="M3.9,38.16c-.07.05-.1-.05-.12-.13v-3.95c.03-.08.06-.18.12-.13v4.22Z" fill="#649cb4"/>
        <path d="M3.9,48.12c-.07.05-.1-.05-.12-.14v-3.71c.03-.08.06-.18.12-.14v3.98Z" fill="#649cb4"/>
        <path d="M3.9,101.39c-.18.36-.18-2.19,0-1.82v1.82Z" fill="#649cb4"/>
        <path d="M3.9,119.99c-.18.34-.18-2.04,0-1.7v1.7Z" fill="#649cb4"/>
        <path d="M3.9,40.08c-.21-.46-.21-1.12,0-1.58v1.58Z" fill="#649cb4"/>
        <path d="M3.9,29.64c-.21-.38-.21-.96,0-1.34v1.34Z" fill="#649cb4"/>
        <path d="M.35,135.08s-.24.34-.33.21c-.04-.06-.02-.22,0-.3.04-.15.08-.21.2-.19.11.02.32.13.12.28Z" fill="#3d88c2"/>
        <path d="M3.89,107.87c-.2-.22-.2-.65,0-.86v.86Z" fill="#649cb4"/>
        <path d="M3.89,109.31c-.2-.22-.2-.65,0-.86v.86Z" fill="#649cb4"/>
        <path d="M3.89,15.25c-.2-.22-.2-.65,0-.87v.87Z" fill="#649cb4"/>
        <path d="M3.9,32.52c-.17.16-.17-.77,0-.62,0,.21,0,.41,0,.62Z" fill="#649cb4"/>
        <path d="M3.89,105.83c-.2-.12-.2-.5,0-.62v.62Z" fill="#649cb4"/>
        <path d="M3.9,49.44c-.17.16-.17-.77,0-.62,0,.21,0,.41,0,.62Z" fill="#649cb4"/>
        <path d="M3.9,43.2c-.17.15-.17-.77,0-.62,0,.21,0,.41,0,.62Z" fill="#649cb4"/>
        <path d="M3.9,42c-.17.15-.17-.77,0-.62,0,.21,0,.41,0,.62Z" fill="#649cb4"/>
        <path d="M3.9,128.63c-.11.03-.12-.13-.13-.2,0-.1,0-.3.13-.3v.5Z" fill="#649cb4"/>
        <path d="M3.9,25.68c-.11.03-.13-.13-.13-.2,0-.1-.01-.31.13-.3v.5Z" fill="#649cb4"/>
        <path d="M3.89,84.36c-.12.03-.12-.13-.13-.2,0-.1-.01-.31.13-.3v.5Z" fill="#649cb4"/>
        <path d="M3.89,18.01c-.12.03-.12-.13-.13-.2,0-.09-.01-.31.13-.3v.5Z" fill="#649cb4"/>
        <path d="M3.9,50.88c-.11.03-.13-.13-.13-.19-.01-.11,0-.31.13-.3v.5Z" fill="#649cb4"/>
        <path d="M3.9,97.67c-.12.03-.12-.13-.13-.2,0-.11-.01-.31.13-.31v.5Z" fill="#649cb4"/>
        <path d="M3.89,102.95c-.11.04-.13-.12-.13-.19s.02-.23.13-.19v.38Z" fill="#649cb4"/>
        <path d="M3.9,122.27c-.11.04-.13-.11-.13-.19s.02-.23.13-.19v.38Z" fill="#649cb4"/>
        <path d="M3.9,121.43c-.11.04-.13-.12-.13-.19s.02-.23.13-.19v.38Z" fill="#649cb4"/>
        <path d="M3.9,31.56c-.11.04-.13-.11-.13-.19s.02-.23.13-.19v.38Z" fill="#649cb4"/>
        <path d="M3.9,33c-.07.04-.11-.02-.13-.07-.03-.1.02-.24.13-.19v.26Z" fill="#649cb4"/>
        <path d="M3.9,130.19c-.07.04-.11-.02-.13-.07-.03-.1.02-.24.13-.19,0,.09,0,.17,0,.26Z" fill="#649cb4"/>
        <path d="M3.89,104.27c-.07.05-.11-.02-.12-.07-.03-.1.02-.24.12-.19v.26Z" fill="#649cb4"/>
        <path d="M3.9,117.71c-.07.05-.11-.02-.12-.07-.03-.1.02-.24.12-.19v.26Z" fill="#649cb4"/>
        <path d="M3.9,124.67c-.16.02-.16-.16,0-.14v.14Z" fill="#649cb4"/>
        <g>
          <path d="M3.89,132.71v-2.52c0-.09,0-.17,0-.26v-1.3s0-.5,0-.5v-3.46s0-.14,0-.14v-2.26s0-.38,0-.38v-.46s0-.38,0-.38v-1.06s0-1.7,0-1.7v-.58s0-.26,0-.26v-6.6s0-1.54,0-1.54v-.86s0-.58,0-.58v-.86s0-1.18,0-1.18v-.62s0-.94,0-.94v-.26s0-1.06,0-1.06v-.38s0-1.18,0-1.18v-1.82s0-1.9,0-1.9v-.5s0-.82,0-.82v-11.54s0-.45,0-.45v-2.52s0-9.62,0-9.62v-1.54s0-8.66,0-8.66v-.46s0-10.22,0-10.22v-.46s0-.5,0-.5v-.94c0-.21,0-.41,0-.62v-4.68s0-.94,0-.94c0-.21,0-.41,0-.62,0-.19,0-.39,0-.58,0-.21,0-.41,0-.62v-1.3s0-1.58,0-1.58v-5.76s0-.22,0-.22c0-.21,0-.41,0-.62v-.72s0-1.54,0-1.54v-1.34s0-2.62,0-2.62v-.5s0-7.18,0-7.18v-.5s0-2.25,0-2.25v-2.76s0-.63,0-.63c0-.11,0-.22,0-.33v-.39s0-1.29,0-1.29v-1.11c0-4.48,3.38-8.27,7.94-8.74l86.59.02c1.85,0,3.53.97,4.87,2.1,1.84,1.54,2.83,3.8,3.06,6.2l.02,133.59c0,1.48-.24,2.67-.86,3.96-1.37,2.85-4.01,4.66-7.23,4.97l-85.58.02c-2.57,0-4.92-1.04-6.55-2.97-1.22-1.45-2.19-3.15-2.2-5.09l-.04-10.07ZM5.6,106.99l.02,35.65c0,2.33,1.69,4.48,3.53,5.6,1.24.75,2.57.99,4.02.99l84.61-.03c2.37,0,4.53-1.33,5.69-3.19.05-.08.11-.14.14-.24.02-.07.14-.12.13-.21.19-.02.22-.21.23-.38v-.1c.27.03.23-.32.24-.51,0-.04.01-.08.01-.12.09-.04.11-.15.11-.24,0-.04.01-.08.01-.12.3-.11.17-.47.22-.72.05-.31.1-.55.1-.99v-58.48s-.06-2.7-.06-2.7l-.06-35.26.06-8.98.06-27.95c0-3.73-2.75-7.24-6.6-7.25l-14.49-.04h-6.98s-6.58.02-6.58.02l-41.4-.02-16.59.04c-3.37,0-6.44,3.21-6.44,6.67l.02,98.58Z" fill="#4f391e"/>
          <path d="M104.61,81.2l.04,2.7v58.48c.01.44-.03.68-.09.99-.21.16-.24.47-.22.72,0,.04,0,.08-.01.12-.06,0-.11.03-.11.07,0,.07,0,.12,0,.17,0,.04,0,.08-.01.12-.2.08-.22.31-.23.51v.1c-.09,0-.18.05-.21.11-.05.1-.04.19-.03.27,0,.09-.11.14-.13.21-.11.03-.14.14-.14.24-1.16,1.86-3.32,3.19-5.69,3.19l-84.61.03c-1.45,0-2.78-.24-4.02-.99-1.84-1.12-3.53-3.27-3.53-5.6l-.02-35.65,2.17-2.09c.61-.58,1.27-1.08,1.75-1.73v37.42c.3,1.75,1.29,3.22,2.83,4.03.85.45,1.73.54,2.74.54l80.45-.02c2.71,0,5.09-2.11,5.09-4.92l.04-55.52c.27-.05.41-.31.62-.51l1.68-1.68c-.08.08,1.78-1.66,1.64-1.31Z" fill="#efaa21"/>
          <path d="M70.02,1.73c0,.16-.08.33-.21.48l-3.27,3.66H14.34c-2.5.28-4.79,2.31-4.79,4.95l-.02,51.92c-.05.05-.1.11-.1.19s.06.14.1.19v5.74c-.2.12-.1.64,0,.5,0,.27,0,.56,0,.82-.02.03-.06.06-.07.1-.02.06.03.12.07.16v5.5c-.19.43-.19,1.03,0,1.46v3.22c-.17-.48-.17,2.66,0,2.18v1.3c-.07-.05-.11.05-.11.13v2.39c0,.09.04.18.1.13v1.06c-.19.26-.19.72,0,.98-.01.19,0,.39,0,.58-.07-.05-.11.05-.11.13v2.39c0,.09.04.18.11.13v.7c-.07-.05-.11.05-.11.13v2.75c0,.09.04.18.11.13v.22c-.18.12-.18.5,0,.62,0,.11,0,.23,0,.34-.07-.05-.11.05-.11.13v2.75c0,.09.04.18.11.13v3.22c-.48.65-1.14,1.15-1.75,1.73l-2.17,2.09-.02-98.58c0-3.45,3.07-6.66,6.44-6.67l16.59-.04,41.4.02Z" fill="#f8c826"/>
          <path d="M104.61,36.95c-1.29,1.04-2.38,2.35-3.49,3.64-.14.17-.29.28-.45.33l-.04-19.56-.02-10.32c.29-.14.05-.45-.02-.62-.29-2.17-2.09-4.49-4.55-4.5l-15.85-.06c-.05-.35.93-1.24,1.43-1.95.6-.83,1.79-1.67,1.96-2.21l14.49.04c3.85.01,6.6,3.52,6.6,7.25l-.06,27.95Z" fill="#f8c826"/>
          <path d="M104.55,45.93l.06,35.26c.14-.35-1.72,1.39-1.64,1.31l-1.68,1.68c-.21.21-.35.47-.62.51v-34.41c.11-.03.23-.1.34-.22,1.15-1.32,2.22-2.65,3.28-4.04.07-.09.21-.08.27-.1Z" fill="#f8c826"/>
          <path d="M83.58,1.71c-.16.54-1.36,1.38-1.96,2.21-.5.7-1.49,1.6-1.43,1.95h-13.66s3.27-3.65,3.27-3.65c.14-.15.21-.32.21-.48l6.58-.02h6.98Z" fill="#fae687"/>
          <path d="M104.61,36.95l-.06,8.98c-.05.03-.2,0-.27.1-1.06,1.39-2.13,2.72-3.28,4.04-.11.12-.23.19-.34.22v-9.38c.17-.05.32-.16.46-.33,1.11-1.3,2.19-2.6,3.49-3.64Z" fill="#fae687"/>
          <path d="M104.35,144.1c-.02-.25,0-.56.22-.72-.04.25.09.62-.22.72Z" fill="#e18f21"/>
          <path d="M103.98,145.08c.02-.2.03-.43.23-.51,0,.19.03.53-.23.51Z" fill="#e18f21"/>
          <path d="M103.74,145.56c-.01-.08-.02-.17.03-.27.03-.06.12-.1.2-.11-.01.17-.04.36-.23.38Z" fill="#e18f21"/>
          <path d="M103.47,146.02c0-.1.04-.21.14-.24-.03.1-.09.16-.14.24Z" fill="#e18f21"/>
          <path d="M104.23,144.46s-.01-.1,0-.17c0-.05.05-.08.11-.07,0,.09-.02.2-.11.24Z" fill="#e18f21"/>
          <path d="M66.53,5.87h13.66s15.85.06,15.85.06c2.46,0,4.26,2.33,4.55,4.5l.02.62.02,10.32.04,19.56v9.38s0,34.41,0,34.41l-.04,55.52c0,2.81-2.37,4.91-5.09,4.92l-80.45.02c-1.01,0-1.89-.09-2.74-.54-1.54-.81-2.53-2.28-2.82-4.03v-37.42s0-3.22,0-3.22v-3.02c0-.11,0-.23,0-.34,0-.21,0-.41,0-.62v-3.24s0-.7,0-.7v-2.66c0-.19-.01-.39,0-.58.02-.33,0-.65,0-.98v-1.06s0-2.66,0-2.66v-1.3s0-2.18,0-2.18v-3.22s0-1.46,0-1.46v-5.5s0-.26,0-.26c0-.26,0-.55,0-.82,0-.17,0-.33,0-.5v-5.74s0-.38,0-.38l.02-51.92c0-2.64,2.29-4.67,4.79-4.93h52.19ZM11.31,10.78c-.22.49-.08,1.07-.08,1.6v2.48s0,1.12,0,1.12v8.23s0,.76,0,.76v6.08s0,.4,0,.4l.02,9.6v21.33s0,23.88,0,23.88v16.55s-.02,7.54-.02,7.54v.4s0,.68,0,.68l.03,28.91c0,1.68,1.57,3.13,3.21,3.13h81.28c1.58,0,3.14-1.42,3.14-3.02l.02-31.28v-8.74s0-16.21,0-16.21v-9.96s0-9.85,0-9.85v-17.88s0-35.6,0-35.6c0-1.8-1.57-3.34-3.4-3.34H14.51c-1.77,0-3.07,1.59-3.2,3.19Z" fill="#4f391e"/>
          <path d="M9.52,99.95c-.07.05-.11-.05-.11-.13v-2.75c0-.09.04-.18.11-.13v3.02Z" fill="#efaa21"/>
          <path d="M9.52,95.75c-.07.05-.11-.05-.11-.13v-2.75c0-.09.04-.18.11-.13v3.02Z" fill="#efaa21"/>
          <path d="M9.52,92.03c-.07.05-.11-.05-.11-.13v-2.39c0-.09.04-.18.11-.13v2.66Z" fill="#efaa21"/>
          <path d="M9.52,86.75c-.07.05-.11-.05-.11-.13v-2.39c0-.09.04-.18.11-.13v2.66Z" fill="#efaa21"/>
          <path d="M9.52,82.79c-.17.48-.17-2.66,0-2.18v2.18Z" fill="#efaa21"/>
          <path d="M9.52,77.4c-.19-.43-.19-1.03,0-1.46v1.46Z" fill="#efaa21"/>
          <path d="M9.52,88.79c-.19-.26-.19-.72,0-.98,0,.33.02.65,0,.98Z" fill="#efaa21"/>
          <path d="M9.52,96.59c-.18-.12-.18-.5,0-.62,0,.21,0,.41,0,.62Z" fill="#efaa21"/>
          <path d="M9.52,69.36c-.09.14-.2-.38,0-.5,0,.17,0,.33,0,.5Z" fill="#efaa21"/>
          <path d="M9.52,63.12c-.04-.05-.1-.11-.1-.19s.05-.14.1-.19v.38Z" fill="#efaa21"/>
          <path d="M9.52,70.44s-.09-.1-.07-.16c.01-.04.06-.07.07-.1v.26Z" fill="#efaa21"/>
          <path d="M100.61,11.04l-.02-.62c.06.17.3.47.02.62Z" fill="#efaa21"/>
          <g>
            <path d="M98.91,46.53c-.74.15-1.3-.44-1.72-1.05-.13-.19-.6-.21-.44-.61s-.27-.58-.34-.85c-.14-.56-.25-1.03-.51-1.52-.24-.46-.47-.53-.94-.69s-.9-.48-1.44-.55c-.32-.04-.57-.36-.64-.62.65-1.16,2.69-2.12,2.23-3.89-.13-.52-.61-1.09-1.22-1.24.03-.09-.1-.11-.16-.11h-.21c.07-.09,0-.21-.09-.25-.1-.04-.24.03-.31.12l-.2-.03c-.31-.51-.71-1-1.42-.93-.31-.52-.82-.53-1.28-.66-1.51-.42-.68-1.9-.86-2.21-.08-.13-.32-.12-.47-.23-.53-.38-.87-.96-1.23-1.51-.61-.17-.74-.76-1.06-1.22-.28-.41-.92-.45-1.32-.68-.71-.42-2.78-1.47-2.48-2.23.67-.92,1.17-1.83.34-2.9-.42-.55-1.14-.75-1.86-.74.07-.08,0-.16-.09-.21-.07-.04-.13.1-.2.11l-.43-.02c.07-.08,0-.16-.09-.22-.07-.05-.14.12-.2.11l-.43-.02c.07-.07,0-.17-.09-.22-.07-.03-.14.1-.2.12-.36-.02-.78-.17-1.15-.15.06-.07,0-.17-.09-.22-.07-.04-.14.1-.19.13-.35.07-.63-.19-.78-.55-.55-1.31-1.26-2.48-1.9-3.73-.33-.64-1.01-1.01-1.68-1.01s-1.29.4-1.64,1.05l-1.31,2.43c-2.06-.05-2.8-.88-5-.85-.06-.9-.79-1.63-1.71-1.78l-4.3-.71-1.99-3.92c-.35-.69-.88-1.13-1.58-1.16-.74-.03-1.5.23-1.86.96-.62,1.22-1.3,2.38-1.86,3.64-.18.39-.44.67-.86.6-.06-.03-.13-.16-.2-.12-.09.05-.16.14-.09.22l-1.4.15c-.02-.16-.04-.35-.11-.48-.06-.11-2.1-.41-2.73-.16-.32.13-.6,0-.9.08l-2,.52c-.85.22-.54,1.63-1.72,1.94-.22.63-.73,1.09-1.33,1.09-.87-.87-1.27-3.55-3.05-3.47-.65.03-1.27.35-1.59.99l-2.12,4.16-4.31.7c-1.23.2-2.05,1.39-1.66,2.65-.6.5-.61,2.16-.26,2.33.29.14.63,0,.97.11-.06.16-.03.46-.2.6-.2.16-.65.25-.89.16-.32-.12-.19-.59-.39-.83-1.48.37-1.69,1.73-2.78,2.63-.15.15.18.51.2.65l-1.34,2.61c-.3.59-.47,1.23-.91,1.8l-4.26.73c-.66.11-1.16.47-1.44.91-.38.59-.36,1.18-.21,1.87-.79.16-.77-.34-1.12-.24-.79.24-.8,1.84-2.12,1.42-.46,1.63-.65.86-.98,1.19-.43.42-.94.62-1.5.52l-.02-9.6c.15.07.23-.07.23-.2s-.08-.28-.23-.2v-6.08c.26.06.23-.25.23-.44,0-.14-.01-.39-.23-.32v-8.23c.18.07.22-.12.22-.22v-.4c0-.13,0-.29-.02-.39-.02-.07-.09-.19-.21-.11v-2.48c.35.43.26-1.91.08-1.6.13-1.6,1.43-3.2,3.2-3.2h80.99c1.83,0,3.4,1.55,3.4,3.35v35.6Z" fill="#3172ac"/>
            <path d="M98.9,109.17l-.02,31.28c0,1.6-1.56,3.02-3.14,3.02H14.47c-1.64,0-3.21-1.44-3.21-3.12l-.03-28.91c.09-.07.21.02.22.14l.02.98c.34.04.68-.14,1.01.05.37.21.42.9.11,1.16-.28.24-.82.09-1.06.27-.13.28-.15.79-.03,1.14.13.39,1,.53,1.12.1.07-.24-.48-.72-.08-.93.25-.13.5.27.68.38.29.18.66,0,.94.14.32.16.3.57.51.82.1.13.39.07.51.14.17.1-.02,1.18,1.6,1.16.91.96.74,1.27,1.77,1.69-.28.83-.44,1.69-.22,2.6.41,1.7,2.07,1.19,3.22,1.34l.06,2.11c.05,1.8,2.92,1.61,3.65,1.13,1.04-.69.37-2.21.71-3.22,1.06-.16,2.83.32,3.26-1.18.24-.82.23-1.75-.02-2.55.41-.03.8.19,1.22.1l.11,7.33c.02,1.2,1.45,1.46,2.28,1.45.01.25-.25.28-.41.37-.41.23-1-.49-1.87-.35.3.71.85,1.18,1.38,1.73.28.29.41.69.98.72l-.09.66c.58.07.94.34,1.27.76.24.12.59.06.96.01.25.9,1.15.95,1.82,1.31.5.27.95.47,1.49.67,2.32.88,2.56,1.02,5.14,1.21,1.71.13,1.16-.28,3.41.52.64.23,1.12.18,1.8.1.56-.07,1.3.35,1.87.06,1.14-.59.95.05,1.34-.17.13-.07.06-.25.02-.53.49.09.99.12,1.51,0,.33-.07.41.34.62.43l1.28.55c.18.07.36.08.53.05.24-.04.19-.71.54-.81.19-.05.38.04.56.08.44.1.87-.35,1.26-.31.75.07,1.21-.15,1.85-.42.43-.18,1.06-.03,1.54-.34,1.4.42,1.25,1.53,2.25,1.04,1.09-.53.65,0,1.82-.89.22-.17.17-.54.46-.61.32-.08.48.09.75.24.22.09.18-.32.26-.4.4-.42,1.16-.37,1.57,0,.15.14.11.56.39.6.39.05,1.08-.02,1.21-.33l.28-.68.96-.25c.63-1.98.48-.69,1.45-1.56.26-.24.82.03,1.13-.18.41-.28.86-.47,1.34-.44.18-.46-.48-.37-.46-.63,0-.07.05-.23.16-.28.63-.25,1.57-.71,1.81-.33.1.16-.16.29-.16.4.05.7,2-.56,2.26-.64.38-.12.97.29,1.21-.36-.11-.2-.58-.27-.65-.5l-.19-.65c1.59.16,3.18.25,4.73-.22,1.33.51,2.74.46,4.08.17,1.48-.32.85-2.38,1.12-3.58,1.88-.27,3.6-1.27,4.46-3.03s.9-3.73.14-5.5c-.6-1.4-1.94-2.31-3.38-2.68,1.03-1.02,1.46-.46,1.8-.54l1.12-.28c.46-.11.77-.3.95-.72.16-.37.57-.83.98-.61.75.41.63.19,1.56-.3.23-.5.56-.7,1.04-.9.27-.11.5-.38.8-.28ZM13.74,115.3c0-.07-.06-.13-.13-.13s-.13.06-.13.13.06.13.13.13.13-.06.13-.13Z" fill="#2e6ea9"/>
            <path d="M98.9,64.42v9.85c-1.43.03-.37,1.75-1.03,2.3-.35.29-.93-.03-1.3.15-.54.27-.66.92-.89,1.4-.66,1.39-.17,1.92-.58,2.65-.47.84-.67,1.41-1.02,2.34l-.7,1.85c-.95,2.53-1.22,1.7-1.86,3.67-.72,2.2-2.45,3.23-2.69,4.47-.06.33-.38.52-.54.77-.12.2-.15.81.02.97.4.41.96.62,1.29,1.12-.78,1.91-1.56,1.82-2.64,3.56-.15.24-.43.59-.64.79l-1.8,1.69c-.55.51-.82.43-1.34,1.05l-.69.82c-1.47.53-2.07,1.51-3.27,1.95-.5.18-1.23-1.72-2.07-2.46-.48-.42-1.85,1-1.8.98l-1,.43s-.79.7-2.57,1.17c-.51.13-1.03.51-1.56.55-.61.05-.98.35-1.52.55s-1.22.03-1.68.5c-1.04,1.06-2.71-.27-2.43,1.16l.61,3.12c.06.31-.11.62.02.88-2.12-.63-4.28.03-5.92,1.43-1.49-.86-.64-.96-2.62-.75-.27.03-.57-.03-.6.27-1.18-.73-2.67-1.33-4.08-1.21,0-.12,0-.26-.07-.36-.08-.12-.25-.09-.41-.12-2.22-.46-2.1.42-4.27-.28l.44-3.22c-.52-.03-.87-.27-1.27-.44-.68-.28-1.4-.38-2.02-.83-.4-.3-.92-.19-1.36-.32-.81-.23-1.53-.68-2.41-.51-.49-.69-1.26-.53-1.9-.74-.89-.29-2.55-1.56-2.85-1.46-.6.2-1.33,2.23-1.93,2.69-.43.31-1.69-1.05-2.53-1.56-.31-.19-.64-.27-.94-.51-.92-.72-1.78-1.48-2.76-2.12l-.87-.57c-.46-.3-.63-.69-.96-1.12s-.74-.85-1.12-1.25l-.72-.75c-.34-.35-.88-.78-.52-1.4.44-.75,1.67-1.12,1.47-1.75.01.05-2.53-1.93-2.58-2.37-.18-1.36-2.09-3.69-1.94-3.39l-1.15-2.32c-1.85-3.72-.35-2.5-1.51-4.59-.36-.66-.72-1.11-1.6-.88l-1.78.47c-.2.05-.38-.08-.48-.14-.17-.1-.07-.36-.15-.49-.33-.51,0-3.02-.25-4.09l-.22-.9c-.1-.43-.01-1.03-.2-1.42-.28-.58-.55-1.04-.25-1.71.05-.16-.24-.39-.24-.57v-2.4c-.01-.52.44-1.05.34-1.54-.14-.64-.1-1.1.09-1.71.67-2.12-.6-3.04-.09-3.54.14-.13.38-.21.63-.18l2.73.36c.19.02.32-.2.41-.27.26-.2-.33-1.49-.31-1.4-.07-.44.27-.87.34-1.29.28-1.61.22-1.47.82-2.92.19.5.56,1.04.83,1.56.54,1.02,1.33,1.8,2,2.73-.52.66-.65,1.42-.62,2.18-.54.05-1.35-.32-1.76-.05-.35.24-.23,1.53-.25,1.63-.62,2.9-.39,2.17-.29,4.88.03.75.1,1.57.28,2.31.67,2.74.05,3.51.86,5.92.16.48.55.75.53,1.36,0,.2.59.22.79.16l3.2-.97c.19-.06.45-.02.62-.09-.09.38.29.77.27,1.18-.03.67-.02,1.19.22,1.79.52,1.33,1.91,3.48,2.89,4.45.55.54.73,1.21,1.04,1.88.12.26,1.74,1.84,1.59,2.38-.04.14-.14.32-.31.47l-1,.93c-.57.53-1.17.94-1.72,1.54.35.65.79,1.23,1.33,1.68l.66.55c.42.35,1.86,1.75,2.07,2.13.32.56.92.86,1.41,1.25.97.77,1.94,1.42,3.06,1.97.31.15.77.58,1.14.38.89-1.36,1.34-3.14,2.46-4.13l.12-.11c1.76.43,1.06.47,2.51,1.13l1.46.66c.48.21.81.45,1.36.58.47.11.89.43,1.42.48.39.04,3.07.49,3.05.89-.08,1.41-.51,2.75-.68,4.17-.02.21.11.5.37.48.59-.05,1.23.4,1.78.32.74-.1,1.26.04,1.96.1,1.52.12,3.06.11,4.57-.01,1.19-.1,2.33.06,3.51-.1,1.35-.19,2.94.18,3.72-.35-.09-1.64-.79-3.38-.93-5.13,1.23.31,5.68-.87,6.35-1.57.36-.37.86-.42,1.3-.62l2.15-.98c.25-.11.44-.36.72-.31.17.03.42.15.55.35l1.89,2.95c2.19-.54,1.13-.53,2.58-1.47,1.16-.75,3.6-2.84,4.42-3.83.41-.5.82-.83,1.31-1.23s.77-1.04,1.36-1.39c.12-.07.19-.26.19-.36,0-.11-.08-.25-.2-.35l-2.49-1.94c-.19-.15-.33-.27-.35-.47-.04-.54,1.36-1.47,1.69-2.1s.55-1.29,1.11-1.76c.6-.52.69-1.26.93-1.97.1-.28.31-.6.45-.87.53-1.04,1.02-2.96,1.48-4.05.22-.52.37-.82.42-1.43.07-.83.67-1.72,1.1-2.42.58-.36,2.58.29,3.26.11.4.55.58-3.77.6-3.54l-.12-2.17c-.1-1.8-.11-1.33,0-3.12.07-1.11-.56-3.46-.41-4.42.1-.63.15-1.29-.32-1.73.94-1.87,1.88-3.76,2.19-5.85.17-.05.25.1.24.19l-.07.41.28,1.63c.06.33,1.32,1.38,1.31,2.26,0,.74.41,1.24.56,1.9l.34,1.48c.13.58.27,1.18.93,1.36Z" fill="#649cb4"/>
            <path d="M16.48,52.33c0,.18-.03.39,0,.57-.14,0-.13.19-.13.31,0,.08.08.14.14.2l.22,1.78c-.16-.02-.13.16.01.13.12,1.1.48,2.18.87,3.23-.6,1.45-.54,1.32-.82,2.92-.07.42-.41.85-.34,1.29-.01-.09.57,1.2.31,1.4-.09.07-.22.29-.41.27l-2.73-.36c-.24-.03-.49.04-.63.18-.51.49.76,1.42.09,3.54-.19.6-.23,1.06-.09,1.71.11.49-.35,1.03-.35,1.54v2.4c.01.19.31.42.25.57-.3.67-.04,1.12.25,1.71.19.39.1,1,.2,1.42l.22.9c.26,1.07-.09,3.58.25,4.09.08.13-.02.39.15.49.1.06.29.19.48.14l1.78-.47c.87-.23,1.23.22,1.6.88,1.16,2.09-.34.88,1.51,4.59l1.15,2.32c-.15-.3,1.75,2.03,1.94,3.39.06.43,2.6,2.41,2.58,2.37.19.62-1.03.99-1.47,1.75-.36.62.18,1.04.52,1.4l.72.75c.39.4.79.81,1.12,1.25s.5.82.96,1.12l.87.57c.98.64,1.84,1.4,2.76,2.12.3.24.63.32.94.51.85.5,2.1,1.87,2.53,1.56.6-.46,1.34-2.49,1.93-2.69.3-.1,1.96,1.17,2.85,1.46.64.21,1.41.05,1.9.74.88-.18,1.61.28,2.41.51.44.13.96.02,1.36.32.61.46,1.34.55,2.02.83.4.17.75.4,1.27.44l-.44,3.22c2.17.7,2.05-.18,4.27.28.16.03.33,0,.41.12.07.1.07.24.07.36-1.51.13-3,1.01-4.02,2.06-.49.5-.56,1.07-1.06,1.64-.47-.82-.85-1.56-1.51-2.14-2.82-2.49-7.05-1.81-9.02,1.39-.31-1.6.06-1.82-1.34-2.7l-.24-.75c-.1-.3.35-.88.02-1.18l-1.07-.96c-.41-.37-1.01-.15-1.47-.18l-1.25-.1c-.35-.87-1.08-1.18-1.79-1.59l-1.55-.88c-.07-.04-2.14-2.03-2.88-2.61-.21-.16-.13-.75-.67-.69-.46.06-.62-.37-.85-.65-1.44-1.75-.37-1.28-2.73-2.81-.22-.23-.03-.7-.31-.89-.13-.09-.42.08-.5-.05-.36-.61.01-1.02-.31-1.06-.34-.05-.64-.07-.79-.41-.43-.96-1.07-.64-1.27-2.05-.09-.65-.95-2.11-1.35-2.53-1.24-1.29-1.17-2.47-2.32-2.63-.31-.04-.27-.53-.45-.7s-.57-.08-.54-.41c.05-.66.64-.45.62-.83-.03-.49-.37,0-.86-.87-.22-.4-.48-.74-.6-1.19-.08-.32-.39-.46-.66-.4v-23.88c.12-.04.41.08.52-.05l.93-1.1c.1-.12.3-.13.32-.25.08-.36-.77-1.26.14-1.68.33-.15.28-.44.41-.71.21-.41.41-.78.15-1.26-.17-.32,0-.6.04-.9.08-.46.11-.88.65-1.08.44-.99.76-3.35,2.06-3.04Z" fill="#3d88c2"/>
            <path d="M98.9,84.23v16.21c-.25,0-.53.12-.65.37-.24.47-.63.19-1.02.25-.27.04-.46.66-.86.63-.12.29.03.64-.12.85l-.59.8c-.32.44-.79.63-.94,1.16l-1.1.76c-.33.23-.63.29-.56.82.03.23-.14.47-.36.55-.36.13-.33.59-.57.78l-1.28,1.02c-.14.11-.59.04-.62.3-.16,1.35-.92.37-1.61,1.87l-.51-.1c-.2-.04-.32.79-.5.95s-.41.14-.76.1l-.03,1.07c-.64-.06-1.49,0-2.1.22-.49.17-.59.15-1.05,0-1.1-.36-2.37-.32-3.51-.11-.94.17-1.58.77-2.02,1.68-.4-.84-.9-1.51-1.8-1.67-1.29-.23-2.62-.24-3.87.08-.77.19-1.28.87-.94,1.62l1.71,3.79c.26.58.75,1.13.85,1.76-.07.72-.56,1.4-.84,2.03-.28.02-.66-.2-.95-.25-.63.33-1.19.32-1.85.02-.19-.09-.47-.02-.43-.42.01-.12,0-.32-.11-.4-.09-.06-.25-.03-.36-.03.06-1.77-.25-4.6-1.23-6.03.13-.13.42-.14.53-.34.22-.38.08-.78-.03-1.25,1.4-1.12,2.74-.83,4.51-1.81.41-.23,1.68-.83,1.83-.95.74-.57,2.03-1.25,3-1.35.27-.03.79-.32.97-.53.37-.43.79-.57,1.35-.54.68.04,1.19-.55,1.69-.87.34-.22.46-.4.61-.76.13-.31.7-.39.85-.67.24-.44.53-.53.96-.74.3-.19.32-.71.56-1,.53-.05.87-.36,1.28-.61.46-.29.96-.47,1.11-1.07.1-.39.42-.52.7-.75.33-.27.54-.69.97-.83,1.3-.45.2-1.61,1.44-2.64.3-.25.77-.63.69-1.05-.04-.22-.47-.37-.31-.69.66-1.28,1.08-1.36,1.28-2.22.09-.38.52-.63.87-.54.63.17.7-.23.97-.51.43-.44.27-.82.34-1.32.04-.33.6-.73.32-1.21.37-.11.6-.45.79-.68.39-.46.57-.86.37-1.42-.19-.51.36-.61.51-.83.25-.37.43-.63.77-.93.29-.26.42-.74.77-1.01.88-.66-.47-1.46.92-1.58Z" fill="#3a7fb3"/>
            <path d="M35.06,112.68c-1.68-.06-3.39-.07-5.12.02-.95.05-1.63.87-1.68,1.75-.04.83-.04,1.59,0,2.41.03.95.83,1.64,1.76,1.57.19-.01.33.08.4.18.09.13,0,.27,0,.4-.42.09-.8-.13-1.22-.1-.25-.47-1.04-.74-1.52-.74h-1.7c-.15-.34,0-.66-.03-.96.24-.08.77-.34.72-.71-.09-.7-.48-1.43-.94-1.93-.29-.32-.71-.03-.98.05-.35.09-.73-.07-1.08-.04l.2-.93-.56-1c-.95-1.69-.85-.24-1.41-1.1-.12-.18-.26-.36-.21-.76-.91.03-1.43-.56-2.05-1.09-.32.05-.62.08-.86-.11-.31-.25-.16-.54-.32-.84-.32-.61-.77-1.25-1.25-1.74l-1-.27c-.19-.05-.46.16-.65.03-.4-.28-.76-.8-1.27-.64.16.29.59.6.35.84s-.56-.02-.64-.29c-.14-.44.5-.84-.03-1.08-.11-.05-.32,0-.48-.04s-.16-.27-.08-.37c.08-.09.35-.02.46-.1.15-.16,0-.71-.18-.84-.7-.48-.91.19-1.21.12-.23-.06-.52-.52-.5-.63.02-.09.16-.11.34-.25-.29-.32-.64-.66-1.08-.67v-16.55c.27-.07.58.07.66.4.12.45.37.8.6,1.19.49.86.83.38.86.87.02.38-.57.17-.62.83-.02.33.36.23.54.41s.14.66.45.7c1.15.16,1.08,1.33,2.32,2.63.41.43,1.26,1.88,1.35,2.53.2,1.42.84,1.09,1.27,2.05.15.34.45.36.79.41.32.05-.05.46.31,1.06.08.13.37-.04.5.05.28.19.09.65.31.89,2.36,1.53,1.29,1.06,2.73,2.81.23.28.39.71.85.65.54-.07.46.52.67.69.73.58,2.81,2.57,2.88,2.61l1.55.88c.72.41,1.45.72,1.79,1.59l1.25.1c.47.04,1.07-.18,1.47.18l1.07.96c.33.3-.12.88-.02,1.18l.24.75Z" fill="#3a7fb3"/>
            <path d="M98.9,74.27v9.96c-1.39.12-.04.91-.93,1.58-.35.26-.48.75-.77,1.01-.34.3-.52.56-.77.93-.15.22-.7.32-.51.83.2.55.02.96-.37,1.42-.2.23-.42.57-.79.68.28.48-.27.88-.32,1.21-.06.5.09.88-.34,1.32-.27.28-.34.68-.97.51-.35-.09-.78.16-.87.54-.2.86-.62.95-1.28,2.22-.16.32.27.47.31.69.08.42-.39.8-.69,1.05-1.24,1.03-.14,2.19-1.44,2.64-.43.15-.64.57-.97.83-.28.23-.6.36-.7.75-.15.59-.65.78-1.11,1.07-.41.25-.75.56-1.28.61-.24.29-.27.82-.56,1-.42.21-.72.3-.96.74-.15.28-.72.37-.85.67-.15.36-.26.54-.61.76-.5.32-1.01.91-1.69.87-.56-.03-.97.11-1.35.54-.18.2-.7.5-.97.53-.96.11-2.25.79-3,1.35-.15.12-1.43.72-1.83.95-1.77.99-3.11.69-4.51,1.81.11.46.25.87.03,1.25-.11.2-.4.21-.53.34-.68-.98-1.93-1.9-3.07-2.24-.13-.26.04-.57-.02-.88l-.61-3.12c-.28-1.43,1.4-.1,2.43-1.16.46-.47,1.15-.29,1.68-.5s.91-.5,1.52-.55c.53-.04,1.04-.41,1.56-.55,1.78-.47,2.61-1.19,2.57-1.17l1-.43s1.32-1.41,1.8-.98c.84.74,1.57,2.64,2.07,2.46,1.2-.43,1.8-1.42,3.27-1.95l.69-.82c.52-.62.79-.54,1.34-1.05l1.8-1.69c.21-.19.49-.55.64-.79,1.08-1.74,1.86-1.64,2.64-3.56-.33-.5-.89-.71-1.29-1.12-.16-.17-.14-.78-.02-.97.16-.25.48-.44.54-.77.23-1.24,1.97-2.27,2.69-4.47.64-1.97.91-1.14,1.86-3.67l.7-1.85c.35-.93.55-1.5,1.02-2.34.4-.73-.08-1.25.58-2.65.23-.48.35-1.13.89-1.4.37-.19.95.13,1.3-.15.67-.55-.4-2.27,1.03-2.3Z" fill="#3d88c2"/>
            <path d="M16.96,38.15c.12.09.18.29.31.42l1.57,1.67,1.61,1.62-.63,4.31c-.11.77.1,1.49.73,1.92.43.29,1.37.59,2.05.22.25.21.3.54.1.84l-.33.51c-1.46-.31-3-2.24-4.66-1.27-.55.32-1.03.88-1.1,1.63-.08.81-.16,1.56-.13,2.31-1.3-.31-1.61,2.05-2.06,3.04-.54.2-.57.62-.65,1.08-.05.3-.22.58-.04.9.25.48.06.84-.15,1.26-.14.27-.08.55-.41.71-.91.41-.06,1.32-.14,1.68-.03.11-.22.12-.32.25l-.93,1.1c-.12.14-.4.02-.52.05v-21.33c.56.09,1.07-.1,1.5-.52.32-.32.51.44.98-1.19,1.32.42,1.32-1.18,2.12-1.42.35-.11.33.39,1.12.24Z" fill="#3a7fb3"/>
            <path d="M23.68,114.58c-.36.03-.77.02-1.15.18-1.42.59-.82,2.25-.99,3.41l-1.93.03c-.44,0-.74.31-1.06.49-1.03-.41-.86-.72-1.77-1.69-1.62.02-1.43-1.06-1.6-1.16-.12-.07-.41-.01-.51-.14-.2-.25-.18-.65-.51-.82-.29-.15-.65.03-.94-.14-.18-.11-.43-.51-.68-.38-.4.21.15.69.08.93-.12.43-.99.29-1.12-.1-.12-.35-.1-.86.03-1.14.24-.18.78-.03,1.06-.27.31-.26.26-.95-.11-1.16-.33-.19-.67,0-1.01-.05l-.02-.98c0-.12-.13-.21-.22-.14v-.68c.15.07.23-.07.23-.2s-.08-.27-.23-.2l.02-7.54c.44.01.79.35,1.08.67-.18.13-.32.16-.34.25-.02.1.27.57.5.63.3.07.51-.59,1.21-.12.19.13.33.69.18.84-.11.08-.38.01-.46.1-.08.09-.08.32.08.37s.37,0,.48.04c.53.23-.11.64.03,1.08.08.26.4.53.64.29s-.18-.55-.35-.84c.51-.15.87.36,1.27.64.19.14.46-.08.65-.03l1,.27c.48.49.92,1.13,1.25,1.74.16.3.01.59.32.84.24.19.54.16.86.11.62.53,1.15,1.12,2.05,1.09-.05.4.09.57.21.76.55.86.46-.59,1.41,1.1l.56,1-.2.93ZM19.02,110.15c0-.22-.3,0-.4.04-.14.05-.1.36.05.4.14.04.36-.14.35-.44Z" fill="#3172ac"/>
            <path d="M92.88,40.64c.06.26.31.58.64.62.54.07.97.39,1.44.55s.7.23.94.69c.25.49.36.97.51,1.52.07.27.49.46.34.85-.16.4.31.43.44.61.41.6.98,1.2,1.72,1.05v17.88c-.67-.18-.8-.78-.93-1.36l-.34-1.48c-.15-.66-.57-1.16-.56-1.9.01-.89-1.25-1.94-1.31-2.26l-.28-1.63.07-.41c.02-.09-.06-.24-.24-.19.24-1.62.31-3.31.18-4.97-.07-1-.65-1.75-1.5-2.08-.01-.13-.13-.17-.12-.02-.27-.04-.56-.01-.83,0,.02-.16-.16-.13-.13.01-.11.03-.23.04-.34.03-.31-.02-.59-.18-.63-.5.41-.5.22-1.34.24-1.92.05-.08.2-.19.14-.31-.04-.08-.15-.14-.23-.08l-.03-.44.11-.12s.02-.11-.04-.15c-.06-.04-.11-.06-.16-.02l-.03-.44c0-.06.17-.12.13-.2-.05-.09-.15-.15-.22-.09.02-.37-.13-.79-.15-1.16.03-.05.16-.13.13-.2-.05-.09-.15-.15-.22-.09-.02-.07.02-.15,0-.21.17-.09.1-.33.12-.5.25-.47.81-.77,1.16-1.1Z" fill="#3a7fb3"/>
            <path d="M98.9,100.43v8.74c-.3-.1-.52.17-.8.28-.48.19-.82.4-1.04.9-.93.49-.81.7-1.56.3-.41-.22-.83.24-.98.61-.18.42-.49.61-.95.72l-1.12.28c-.33.08-.77-.48-1.8.54-1.24-.31-2.6-.06-3.86-.17l.03-1.07c.35.04.57.06.76-.1s.3-.99.5-.95l.51.1c.69-1.49,1.45-.52,1.61-1.87.03-.26.48-.19.62-.3l1.28-1.02c.24-.19.21-.65.57-.78.22-.08.39-.32.36-.55-.07-.52.23-.59.56-.82l1.1-.76c.15-.53.62-.72.94-1.16l.59-.8c.15-.21,0-.57.12-.85.4.03.6-.59.86-.63.39-.06.78.22,1.02-.25.13-.25.4-.38.66-.37Z" fill="#3172ac"/>
            <path d="M11.23,12.38c0-.53-.14-1.11.08-1.6.17-.31.27,2.03-.08,1.6Z" fill="#2e6ea9"/>
            <path d="M11.23,15.98v-1.12c.12-.07.19.04.21.11.02.09.02.26.02.39v.4c0,.1-.05.29-.23.22Z" fill="#2e6ea9"/>
            <path d="M11.23,24.98v-.76c.22-.07.23.19.23.32,0,.19.03.5-.23.44Z" fill="#2e6ea9"/>
            <path d="M11.23,31.45v-.4c.15-.07.23.07.23.2s-.08.28-.23.2Z" fill="#2e6ea9"/>
            <path d="M11.23,110.76v-.4c.15-.07.23.07.23.2s-.08.27-.23.2Z" fill="#2e6ea9"/>
            <path d="M92.93,35.24c-1.25-.2-2.51-.34-3.81-.57-.79-1.52-1.42-3.02-2.32-4.45-.34-.53-1.12-.74-1.69-.67s-1.11.49-1.41,1.08l-2.06,3.98c-.8.15-1.55.39-2.45.39.97-.35,1.53-1.11,1.4-2.13l-.56-4.49,2.79-2.8c-.3.77,1.76,1.82,2.48,2.23.4.24,1.04.27,1.32.68.32.47.46,1.05,1.06,1.22.36.55.7,1.13,1.23,1.51.15.11.39.09.47.23.18.31-.65,1.79.86,2.21.46.13.97.14,1.28.66.71-.07,1.11.42,1.42.93Z" fill="#3a7fb3"/>
            <path d="M25.13,30.22c-.02-.14-.35-.5-.2-.65,1.08-.9,1.3-2.26,2.78-2.63.2.24.07.71.39.83.25.09.7,0,.89-.16.17-.14.14-.43.2-.6-.34-.1-.68.02-.97-.11-.35-.17-.35-1.83.26-2.33.16.5.76.92,1.12,1.31l2.41,2.55-.63,4.43c-.1.73.18,1.31.72,1.88-.5.1-1.32.1-1.74-.21-.68-1.4-1.27-2.75-2.09-4.06-.3-.48-.89-.87-1.43-.91-.45-.03-1.42.11-1.7.66Z" fill="#3a7fb3"/>
            <path d="M49.98,16.56c-.14.01-.31.18-.47.11-.07-.03-.12-.15-.2-.11-.1.05-.16.14-.09.22-1.22.08-2.63.31-2.95,1.69-.41,1.79,1.8,2.64,2.5,4.07-.05.4-.47.52-.83.51-.28-.62-1.04-1-1.68-1.1l-4.3-.68c-.37-.39-.63-1.14-.77-1.72.6,0,1.11-.46,1.33-1.09,1.17-.3.87-1.72,1.72-1.94l2-.52c.3-.08.58.05.9-.08.63-.25,2.67.05,2.73.16.08.14.09.32.11.48Z" fill="#3a7fb3"/>
            <path d="M70.83,19.55c-.27.51-.37,1.2-.83,1.68l-4.49.81c-.64.12-1.15.71-1.31,1.17-.67,1.85,1.5,2.76,2.57,4.38-.63-.06-.21.56-1.33.63-.61.04-2.1.4-1.96-.62l.42-2.97-1.57-.53c-.07-.64-.09-.91.53-1.38.75-.57,1.32-1.46,2.06-2.1.57-.5.95-1.18.91-1.89,2.21-.04,2.94.8,5,.85Z" fill="#3a7fb3"/>
            <path d="M93.54,35.39c-.13,0-.36.05-.4-.12.07-.09.21-.16.31-.12.09.04.16.16.09.24Z" fill="#3a7fb3"/>
            <path d="M80.58,21.81c-.09,0-.28.02-.29-.1.06,0,.12-.16.2-.11.09.06.16.14.09.22Z" fill="#2b669b"/>
            <path d="M81.3,21.93c-.09,0-.27.01-.29-.1.06-.01.12-.15.2-.11.09.05.16.14.09.21Z" fill="#2b669b"/>
            <path d="M79.86,21.69c-.1,0-.25.02-.29-.09.06-.03.13-.16.2-.12.09.05.16.14.09.22Z" fill="#2b669b"/>
            <path d="M78.42,21.45c-.09,0-.26.02-.28-.09.06-.02.13-.17.19-.13.09.05.15.15.09.22Z" fill="#2b669b"/>
            <path d="M93.9,35.51c-.06-.01-.2-.01-.16-.11.06,0,.19.02.16.11Z" fill="#3a7fb3"/>
            <path d="M73.22,122.03l-1.66,3.69c-.11.03-.25.07-.27.22-.01.1-.03.27.14.27-.02.05,0,.16,0,.22-.32.07-.28.5-.18.72.17.34.5.18.78.25.56.14,1.11.38,1.7.38.21.86.79.41,1.45.92.54-.1,1.04,0,1.53.25.23-.13.59-.31.56-.59l-.11-.96c.5-.27.6-1.03.95-1.47.22.82.74,1.33,1.37,1.69l.19.65c.07.23.54.3.65.5-.24.65-.83.25-1.21.36-.26.08-2.22,1.33-2.26.64,0-.11.26-.24.16-.4-.24-.38-1.18.08-1.81.33-.12.05-.16.21-.16.28-.02.26.64.17.46.63-.48-.02-.93.17-1.34.44-.31.21-.87-.06-1.13.18-.96.88-.82-.41-1.45,1.56l-.96.25-.28.68c-.13.31-.83.38-1.21.33-.28-.04-.24-.46-.39-.6-.41-.38-1.16-.42-1.57,0-.09.09-.04.5-.26.4-.28-.14-.43-.32-.75-.24-.29.07-.24.44-.46.61-1.16.9-.73.36-1.82.89-1,.49-.85-.62-2.25-1.04-.48.31-1.11.16-1.54.34-.64.27-1.09.49-1.85.42-.39-.03-.82.41-1.26.31-.18-.04-.38-.13-.56-.08-.34.1-.29.76-.54.81-.17.03-.36.02-.53-.05l-1.28-.55c-.21-.09-.29-.5-.62-.43-.52.11-1.02.09-1.51,0,.05.28.11.46-.02.53-.4.22-.2-.42-1.34.17-.57.29-1.3-.13-1.87-.06-.67.09-1.15.13-1.8-.1-2.24-.79-1.69-.39-3.41-.52-2.58-.2-2.82-.34-5.14-1.21-.54-.2-.99-.4-1.49-.67-.67-.36-1.58-.42-1.82-1.31-.37.05-.72.1-.96-.01-.33-.42-.69-.69-1.27-.76l.09-.66c-.56-.02-.7-.43-.98-.72-.53-.55-1.08-1.03-1.38-1.73.87-.14,1.46.59,1.87.35.16-.09.42-.12.41-.37h1.54c-.06.06-.01.17.07.23.06.04.14.02.17-.07.01-.04.01-.11.02-.18.55-.08,1.01-.35,1.43-.71.36.01.67-.24,1.09-.27.21-.01.54.11.6-.11.39.22.82.48,1.23.79,3.41,1.11,6.43.16,8-3.29.76,1.49,1.76,2.77,3.3,3.35,1.25.47,2.67.49,3.95.13,1.75-.49,2.93-1.81,3.72-3.45.54.78.81,1.58,1.5,2.1.32.24.58.55.93.76,1.7,1.03,3.92,1.12,5.73.25,2.42-1.17,3.33-3.92,3.42-6.38.11,0,.27-.03.36.03.11.08.13.28.11.4-.04.39.23.33.43.42.66.3,1.22.31,1.85-.02.29.05.67.27.95.25Z" fill="#3172ac"/>
            <circle cx="13.61" cy="115.3" r=".13" fill="#3172ac"/>
            <path d="M93.12,61.02c.46.44.41,1.1.32,1.73-.15.96.48,3.32.41,4.42-.12,1.79-.11,1.33,0,3.12l.12,2.17c-.01-.22-.2,4.09-.6,3.54-.67.18-2.67-.47-3.26-.11-.43.71-1.03,1.59-1.1,2.42-.05.61-.2.91-.42,1.43-.47,1.08-.95,3-1.48,4.05-.14.27-.35.59-.45.87-.24.7-.32,1.45-.93,1.97-.56.48-.78,1.14-1.11,1.76s-1.73,1.56-1.69,2.1c.01.2.16.32.35.47l2.49,1.94c.12.1.21.24.2.35,0,.09-.07.29-.19.36-.59.35-.87.98-1.36,1.39s-.9.74-1.31,1.23c-.82.99-3.27,3.08-4.42,3.83-1.45.94-.39.93-2.58,1.47l-1.89-2.95c-.13-.21-.38-.32-.55-.35-.28-.05-.47.2-.72.31l-2.15.98c-.44.2-.94.25-1.3.62-.67.7-5.12,1.87-6.35,1.57.14,1.75.84,3.49.93,5.13-.78.53-2.37.16-3.72.35-1.17.17-2.32,0-3.51.1-1.51.12-3.06.14-4.57.01-.7-.06-1.22-.2-1.96-.1-.55.07-1.19-.37-1.78-.32-.26.02-.4-.27-.37-.48.17-1.42.6-2.76.68-4.17.02-.4-2.66-.85-3.05-.89-.54-.05-.95-.38-1.42-.48-.55-.12-.89-.36-1.36-.58l-1.46-.66c-1.46-.66-.75-.7-2.51-1.13l1.66-2.93c.23-.41.54-.73.62-1.16.1-.2.36-.43.5-.6.59.01,1.06.38,1.6.67,1.65.88,4.67,1.41,6.44,2.27-.11,1.37-.39,2.59-.63,3.89-.1.54-.24,1.1.01,1.6l2.73.49c.53.09.91.04,1.42,0,.95-.07,1.95-.07,2.91.01.61.05,1.11,0,1.73-.03l1.72-.07c1.11-.05,2.23-.14,3.28-.54-.15-2.05-.87-3.78-1.12-5.91.39-.09.78-.19,1.15-.19.74,0,1.29-.32,1.95-.55,1.4-.48,3.19-.7,4.35-1.47.36-.24,1.09-.58,1.53-.34l2.47,3.65c.21.32.58.34.89.07.7-.61,1.57-.98,2.24-1.61l1.67-1.57c-.15.14,3.13-2.67,3.04-2.6.39-.31.66-.78,1.12-1.09-.99-1.15-2.15-1.91-3.31-2.78-.43-.32-.75-.71-1.2-.93-.18-.09-.33-.38-.48-.51,4.37-1.45,8.14-4.48,9.2-9.24.13-.59.1-1.13.04-1.66.5-.45,2.95.61,3.31-.11.06-.11-.09-.31-.06-.48.15-.72,1.01-3.39.59-3.61.97-1.68,2.85-6.65,1.17-8.41l1.54-1.71Z" fill="#93b4ad"/>
            <path d="M32.33,85.28c.04.91.92,2.16,1.57,2.9-.28.7-.95,1.18-1.47,1.64l-2.12,1.86c-.12.11-.22.28-.23.41,0,.11.15.24.27.33.62.44,1.09.97,1.64,1.48.35.33.78.56,1.07.97.5.7,2.64,1.99,3.42,2.48.36.23,1.5,1.29,2.42,1.26-1.12.98-1.57,2.77-2.46,4.13-.37.2-.83-.23-1.14-.38-1.12-.55-2.08-1.2-3.06-1.97-.49-.39-1.09-.68-1.41-1.25-.21-.38-1.66-1.78-2.07-2.13l-.66-.55c-.55-.45-.98-1.03-1.33-1.68.55-.6,1.15-1.02,1.72-1.54l1-.93c.17-.16.27-.33.31-.47.15-.54-1.47-2.11-1.59-2.38-.31-.67-.5-1.33-1.04-1.88-.97-.97-2.37-3.12-2.89-4.45-.23-.6-.25-1.12-.22-1.79.02-.41-.36-.8-.27-1.18.78-.35,1.64-.42,2.44-.72.49.88,1.03,1.77,1.73,2.55,1.25,1.4,2.73,2.48,4.37,3.3Z" fill="#93b4ad"/>
            <path d="M35.95,86.51c-.37.96-1.95,1.5-2.47,2.85.39.25.68.5.98.78.33.32.93.32,1.24.66.35.38.7.64,1.08.98l.76.68c.27.24.54.39.84.59l1.29.86c.53.35,1.01.64,1.63.52-.08.43-.39.75-.62,1.16l-1.66,2.93-.12.11c-.92.03-2.06-1.02-2.42-1.26-.77-.49-2.92-1.78-3.42-2.48-.29-.41-.72-.64-1.07-.97-.55-.51-1.02-1.04-1.64-1.48-.12-.09-.28-.22-.27-.33.01-.13.11-.3.23-.41l2.12-1.86c.53-.46,1.2-.95,1.47-1.64-.65-.74-1.53-1.99-1.57-2.9,1.12.56,2.44.78,3.62,1.22Z" fill="#c4cba2"/>
            <path d="M19.82,65.01c.05,1.49.53,2.89.91,4.32-.05.02-.11.05-.14.1-.05.07,0,.15.05.15.08,0,.15,0,.2,0,.01.04,0,.08.02.12-.03.14-.11.32.03.46.06.07.21.09.31.13,0,.03.02.07.01.1-.08.37.17.72.19,1.13l.05,1.89c.01.5.21.97-.07,1.48.15,1.44.5,2.84,1.16,4.14.02.54.27.92.65,1.21l-3.2.97c-.19.06-.79.04-.79-.16.02-.61-.37-.89-.53-1.36-.8-2.41-.19-3.18-.86-5.92-.18-.74-.25-1.56-.28-2.31-.11-2.7-.34-1.98.29-4.88.02-.1-.1-1.39.25-1.63.41-.28,1.21.1,1.76.05Z" fill="#93b4ad"/>
            <path d="M26.23,79.43c-.79.31-1.66.38-2.44.72-.17.08-.43.04-.62.09-.37-.29-.63-.68-.65-1.21-.67-1.3-1.01-2.7-1.16-4.14.28-.5.09-.97.07-1.48l-.05-1.89c-.01-.41-.27-.76-.19-1.13,1.17,1.8,2.45,3.49,4.4,4.59-.62.89.43,4.07.64,4.44Z" fill="#c4cba2"/>
            <path d="M59.31,114.12c-.56.48-.88,1.37-1.36,1.99-.55-.75-1-1.94-1.86-2.47.02-.29.33-.24.6-.27,1.98-.21,1.13-.11,2.62.75Z" fill="#3a7fb3"/>
            <path d="M16.74,55.31c-.14.03-.18-.15-.01-.13v.13Z" fill="#2b669b"/>
            <path d="M25.95,117.21l-.06-.89c-.06-.83-.48-1.32-1.13-1.7.27-.07.68-.37.98-.05.46.5.84,1.23.94,1.93.05.37-.48.63-.72.71Z" fill="#3172ac"/>
            <path d="M26.09,46.64l.6.53c.09.4-.1.81-.05,1.25.14,1.17-.98,1.99-.92,2.79-1.14-.44-2.33-.88-3.35-1.55l.33-.51c.2-.3.15-.64-.1-.84,1.08-.61,2.2-1.24,3.48-1.67Z" fill="#649cb4"/>
            <path d="M19.02,110.15c.01.3-.21.48-.35.44-.15-.04-.19-.35-.05-.4.1-.04.39-.26.4-.04Z" fill="#3a7fb3"/>
            <path d="M91.94,47.65c.03.32.32.49.63.5-2.05,1.25-4.26,2.25-6.47,3.19-1.22-.79-.97-.36-1.88-1.71s-.42-1.24-.3-2.59c.51-.21.96-.58,1.57-.78l3.91,1.93c.94.46,1.89.26,2.55-.54Z" fill="#649cb4"/>
            <path d="M92.18,45.73c-.15-.06-.09-.27-.09-.4.08-.06.19,0,.23.08.06.13-.09.24-.14.31Z" fill="#649cb4"/>
            <path d="M91.71,42.73c-.12-.02-.07-.19-.09-.28.07-.06.17,0,.22.09.03.06-.1.14-.13.2Z" fill="#649cb4"/>
            <path d="M91.95,44.17c-.11-.02-.1-.2-.09-.28.07-.06.17,0,.22.09.04.07-.13.13-.13.2Z" fill="#649cb4"/>
            <path d="M92.06,44.89c-.11-.01-.08-.19-.09-.28.05-.05.1-.02.16.02.05.03.08.11.04.15l-.11.12Z" fill="#649cb4"/>
            <path d="M93.04,48.11s-.09,0-.13.01c-.03-.14.15-.18.13-.01Z" fill="#649cb4"/>
            <path d="M94,48.13l-.12-.02c-.01-.15.11-.12.12.02Z" fill="#649cb4"/>
            <path d="M61.57,39.71c-1.42-.76-2.8-1.57-4.23-2.44-.76-.46-1.7-.55-2.49-.08l-6.35,3.81-16.54,10.09c-.69-.74-4.83-3.54-5.26-3.92l-.6-.53c.35-.12.41-.48.94-.2,1.28.67,2.62,1.32,3.95,1.9.62.27,1.36.19,1.87-.22.45-.35.72-1.01.67-1.7-.1-1.54-.43-2.99-.62-4.56.77-.79,1.46-1.57,2.32-2.28.17.2.46.39.6.62.3.48,2.52,3.96,3.08,3.98,1.1-.66,2.29-1,3.53-1.19.54-.08,2.32-.93,2.73-1.26.75-.6,2-1.41,2.92-1.77.41-.16-.55-3.8-.75-4.08v-.51c.69-.21.7-.44,1.75-.74l1.38-.41c.48-.14,1,.02,1.45-.29,1.38.16,3.3-.21,4.33-.05s4.59.59,5.48.56c.17,0,.34.07.41.14.1.1.12.28.09.45l-.51,3.25c-.08.51-.2.98-.14,1.44Z" fill="#c4cba2"/>
            <path d="M49.5,29.29c.02.43-.9.29-1.86.56l-1.42.39c.26,1.79,1.12,3.46,1.12,5.14v.51c-.66.14-1.33.54-2.05.56-.58.02-.98.1-1.51.33-1.2.53-2.52,1.13-3.61,1.91s-1.77,1.05-3.14,1.44c-.43.12-.8.25-1.21.09-.14-.22-.43-.41-.6-.62.58-.84,1.46-1.36,1.24-2.63-.08-.47-.45-.95-.95-1.27-.58-.37-1.27-.37-2.03-.57.04-.21.35-.2.55-.3l4.17-2.03,4.08,2.01c.62.3,1.33.36,1.92-.04.52-.35.9-.99.81-1.73l-.57-4.65c1.15-1.18,2.23-2.19,3.25-3.43.35-.43.52-1.31.25-1.89.36,0,.78-.11.83-.51.3.2.96.56.99,1.01l-.51,4.18c-.06.47-.08,1.22.25,1.58Z" fill="#649cb4"/>
            <path d="M66.77,27.59c.16.25.78.4.73.85l-.51,4.42c-.08.71.16,1.4.7,1.76s1.23.52,1.87.2l4.2-2.08,3.86,1.89c.44.22.85.36,1.39.45-.82.2-1.65.27-2.45.61-.53.22-.66.74-.93,1.15-.36.54-.88,1.09-1.18,1.66-.77-.19-1.43-.63-2.1-1.16-1.27-.17-3.09-1.04-4.21-1.29-1.4-.32-2.54-.91-3.78-1.68-.43-.27-1.4.12-1.74-.36-.3-.42,0-1.14.07-1.61l.44-3.22c.02-.14-.4-.18-.45-.17.03-.24.15-.64.11-.94l-.47-3.98,1.57.53-.42,2.97c-.14,1.02,1.35.66,1.96.62,1.11-.07.7-.69,1.33-.63Z" fill="#649cb4"/>
            <path d="M75.64,36.84c-.08.72.09,1.36.61,1.92l2.88,3.05-.58,4.74c-.11.89.56,1.45,1.17,1.91l-1.32,1.58c-.29.07-.5-.15-.73-.32l-.83-.63c.48-.33-.97-2.95-1.49-3.21-.62-.31-1.08-.81-1.61-1.26-.47-.4-1.1-.71-1.6-1.01-.19-.02-.62.03-.77.14-.38.44-.72.97-.9,1.48l-7.17-4.42c.05-.08.19-.15.33-.1l2.59.88c1.16.39,2.38.5,3.45,1.13.25.15,1.72.72,1.98.46.96-1.57,1.97-3.07,2.8-4.65.3-.57.82-1.12,1.18-1.66Z" fill="#c4cba2"/>
            <path d="M86.1,51.34c-1.14.48-2.24.97-3.52,1.41l-4.18-2.71,1.32-1.58c.7.08,1.36-.01,2.01-.38.72-.41,1.46-.73,2.18-1.03-.12,1.36-.64,1.21.3,2.59s.67.92,1.88,1.71Z" fill="#93b4ad"/>
            <path d="M62.69,29.02c.05,0,.47.03.45.17l-.44,3.22c-.06.47-.37,1.19-.07,1.61.34.48,1.31.09,1.74.36,1.24.76,2.38,1.36,3.78,1.68,1.12.25,2.93,1.12,4.21,1.29.67.52,1.33.97,2.1,1.16-.83,1.59-1.84,3.09-2.8,4.65-.26.26-1.73-.32-1.98-.46-1.07-.63-2.29-.73-3.45-1.13l-2.59-.88c-.14-.05-.28.02-.33.1-.54-.33-1.19-.79-1.73-1.08-.06-.46.06-.93.14-1.44l.51-3.25c.03-.17.01-.36-.09-.45-.07-.07-.24-.14-.41-.14-.9.03-4.45-.4-5.48-.56s-2.95.21-4.33.05c-.45.3-.97.14-1.45.29l-1.38.41c-1.04.31-1.05.54-1.75.74,0-1.68-.86-3.34-1.12-5.14l1.42-.39c.96-.26,1.88-.13,1.86-.56.59.67,1.54.96,2.38.56l4.14-2.01,4.01,1.95c1.04.51,2.08.18,2.67-.76Z" fill="#93b4ad"/>
            <path d="M77.17,127.42l.11.96c.03.28-.33.46-.56.59-.49-.25-1-.35-1.53-.25-.66-.52-1.24-.06-1.45-.92l1.36.02c.69,0,1.48-.07,2.08-.39Z" fill="#2e6ea9"/>
            <path d="M71.43,126.44c.11.38.34.68.6.97-.27-.07-.61.09-.78-.25-.11-.22-.14-.65.18-.72Z" fill="#2e6ea9"/>
            <path d="M71.56,125.73c-.01.17-.08.33-.14.5-.17,0-.15-.17-.14-.27.02-.16.16-.19.27-.22Z" fill="#2e6ea9"/>
            <path d="M34.61,127.77c0,.06,0,.13-.02.18-.03.08-.11.1-.17.07-.09-.06-.13-.16-.07-.24h.26Z" fill="#2e6ea9"/>
            <path d="M41.81,93.82c.36-1.05,1.57-2.51,1.84-3.45,4.22,2.87,7.43,4.84,12.47,6.32,3.27-.77,10.42-4.6,12.58-6.56.17.5.59.88.89,1.36s.99,1.55,1.56,1.5c.18-.02.24-.33.44-.46l1.14-.78c-.13.09,1.93-1.7,1.98-1.75l1.5-1.38c.46-.42.73-1,1.35-1.29.22-.1.29-.39.26-.57.45.22.77.61,1.2.93,1.16.87,2.32,1.63,3.31,2.78-.46.32-.72.78-1.12,1.09.09-.07-3.19,2.74-3.04,2.6l-1.67,1.57c-.67.63-1.53,1-2.24,1.61-.3.26-.67.24-.89-.07l-2.47-3.65c-.44-.24-1.18.1-1.53.34-1.16.77-2.95.99-4.35,1.47-.66.23-1.21.56-1.95.55-.37,0-.76.1-1.15.19.25,2.13.97,3.86,1.12,5.91-1.06.4-2.18.49-3.28.54l-1.72.07c-.62.03-1.11.09-1.73.03-.96-.08-1.96-.08-2.91-.01-.52.04-.9.09-1.42,0l-2.73-.49c-.25-.5-.11-1.06-.01-1.6.24-1.3.52-2.52.63-3.89-1.77-.86-4.78-1.4-6.44-2.27-.54-.29-1.01-.66-1.6-.67Z" fill="#c4cba2"/>
            <path d="M43.64,90.37c-.26.94-1.48,2.4-1.84,3.45-.14.16-.4.4-.5.6-.62.12-1.1-.17-1.63-.52l-1.29-.86c-.3-.2-.57-.34-.84-.59l-.76-.68c-.38-.34-.73-.59-1.08-.98-.31-.34-.91-.33-1.24-.66-.3-.29-.59-.54-.98-.78.51-1.35,2.09-1.89,2.47-2.85,1.19.45,2.72.16,3.89.68,1.44.81,2.47,2.28,3.81,3.19Z" fill="#fae687"/>
            <path d="M77.33,86.25c.15.13.3.42.48.51.04.18-.04.47-.26.57-.62.29-.89.86-1.35,1.29l-1.5,1.38c-.06.05-2.11,1.84-1.98,1.75l-1.14.78c-.2.13-.25.44-.44.46-.57.06-1.26-1-1.56-1.5s-.72-.86-.89-1.36l3.22-2.92c1.77-.37,3.69-.39,5.42-.96Z" fill="#fae687"/>
            <path d="M31.96,51.1c-.81.5-1.56,1.22-2.5,1.62l-2.27-.82c-.53-.19-.99-.51-1.46-.69-.06-.79,1.06-1.62.92-2.79-.05-.44.14-.85.05-1.25.44.39,4.57,3.18,5.26,3.92Z" fill="#93b4ad"/>
            <path d="M86.56,75.34c-.02-.14-.23-.2,0-.37,1.42-1.05,2.93-2.26,3.83-3.82.42.22-.45,2.89-.59,3.61-.03.17.12.37.06.48-.35.72-2.81-.34-3.31.11Z" fill="#c4cba2"/>
            <path d="M20.83,69.59c-.05,0-.12,0-.2,0-.05,0-.1-.08-.05-.15.03-.04.1-.08.14-.1.12,0,.08.17.1.25Z" fill="#c4cba2"/>
            <path d="M47.33,35.88c.19.28,1.15,3.92.75,4.08-.92.37-2.17,1.17-2.92,1.77-.41.33-2.19,1.18-2.73,1.26-1.24.19-2.43.52-3.53,1.19-.56-.02-2.78-3.5-3.08-3.98.41.16.78.03,1.21-.09,1.37-.39,2-.63,3.14-1.44s2.41-1.38,3.61-1.91c.53-.23.93-.31,1.51-.33.72-.02,1.39-.42,2.05-.56Z" fill="#93b4ad"/>
            <g>
              <path d="M86.79,112.63c1.26.11,2.62-.14,3.86.17,1.44.37,2.78,1.28,3.38,2.68.76,1.77.7,3.79-.14,5.5s-2.58,2.76-4.46,3.03c-.27,1.2.36,3.26-1.12,3.58-1.34.29-2.75.34-4.08-.17-1.55.47-3.14.39-4.73.22-.63-.36-1.15-.87-1.37-1.69-.35.44-.45,1.2-.95,1.47-.6.32-1.39.4-2.08.39l-1.36-.02c-.59,0-1.14-.24-1.7-.38-.26-.29-.49-.59-.6-.97-.01-.05-.03-.17,0-.22.06-.16.12-.32.14-.5l1.66-3.69c.28-.63.76-1.31.84-2.03-.1-.63-.58-1.18-.85-1.76l-1.71-3.79c-.34-.75.17-1.43.94-1.62,1.26-.32,2.59-.31,3.87-.08.91.16,1.4.83,1.8,1.67.44-.91,1.08-1.51,2.02-1.68,1.14-.21,2.41-.25,3.51.11.46.15.56.18,1.05,0,.61-.22,1.45-.28,2.1-.22ZM83.67,126.1l-3.01-5.99,2.88-6.05c-1.06-.35-2.11-.29-3.13-.14-.59.08-.91.47-1.13.98-.37.85-.69,1.69-1.19,2.51-.54-.99-.84-1.9-1.25-2.83-.16-.35-.41-.61-.83-.65-1.11-.11-2.25-.21-3.39.11l2.81,5.95-2.78,6.28c1.3.37,2.64.35,3.88.05l1.49-3.81,1.37,3.28c.15.37.35.64.8.65.23.04,3.72.17,3.46-.34ZM88.16,122.74c1.41-.01,2.72-.27,3.72-1.16,1.12-1,1.49-2.52,1.41-3.99-.03-1.99-1.4-3.48-3.38-3.64-1.67-.13-3.31-.16-5.04.04v12.1c0,.64,2.77.38,3.24.25l.06-3.6ZM83.64,123.22l-.02-6.29-1.66,3.25c.66,1.04.92,2.13,1.68,3.04Z" fill="#133651"/>
              <path d="M83.67,126.1c.26.51-3.23.38-3.46.34-.46,0-.65-.28-.8-.65l-1.37-3.28-1.49,3.81c-1.24.3-2.59.31-3.88-.05l2.78-6.28-2.81-5.95c1.15-.32,2.29-.22,3.39-.11.42.04.67.3.83.65.41.93.71,1.85,1.25,2.83.5-.83.82-1.66,1.19-2.51.22-.51.54-.9,1.13-.98,1.02-.14,2.07-.21,3.13.14l-2.88,6.05,3.01,5.99Z" fill="#fafbfb"/>
              <path d="M83.64,123.22c-.76-.91-1.02-2-1.68-3.04l1.66-3.25.02,6.29Z" fill="#2e6ea9"/>
              <g>
                <path d="M88.16,122.74l-.06,3.6c-.47.12-3.24.39-3.24-.25v-12.1c1.74-.2,3.38-.18,5.05-.04,1.99.16,3.35,1.65,3.38,3.64.09,1.47-.29,3-1.41,3.99-1,.89-2.31,1.15-3.72,1.16ZM89.61,117.06c-.44-.29-.98-.33-1.47-.19l.03,2.9c.54.11,1.04-.03,1.38-.34.76-.71.58-2.02.07-2.36Z" fill="#fafbfb"/>
                <path d="M89.61,117.06c.51.34.69,1.65-.07,2.36-.34.32-.83.45-1.38.34l-.03-2.9c.5-.14,1.04-.1,1.47.19Z" fill="#133651"/>
              </g>
              <g>
                <path d="M52.01,112.43c1.41-.12,2.9.48,4.08,1.21.86.53,1.3,1.71,1.86,2.47.49-.62.8-1.51,1.36-1.99,1.64-1.4,3.8-2.06,5.92-1.43,1.15.34,2.39,1.26,3.07,2.24.98,1.43,1.29,4.26,1.23,6.03-.09,2.46-1,5.2-3.42,6.38-1.81.88-4.03.78-5.73-.25-.35-.21-.61-.52-.93-.76-.69-.51-.96-1.32-1.5-2.1-.78,1.64-1.97,2.96-3.72,3.45-1.28.36-2.71.33-3.95-.13-1.54-.57-2.54-1.85-3.3-3.35-1.58,3.45-4.6,4.4-8,3.29-.42-.31-.84-.57-1.23-.79-.43-.51-.86-1.04-1.25-1.65s-.02,1.39-.45,2.02c-.42.36-.88.63-1.43.71h-.26s-1.54.02-1.54.02c-.83,0-2.27-.25-2.28-1.45l-.11-7.33c0-.13.09-.27,0-.4-.07-.1-.21-.2-.4-.18-.93.07-1.73-.61-1.76-1.57-.03-.82-.04-1.58,0-2.41.05-.88.73-1.7,1.68-1.75,1.73-.09,3.43-.08,5.12-.02,1.4.88,1.03,1.09,1.34,2.7,1.97-3.2,6.21-3.89,9.02-1.39.65.58,1.04,1.32,1.51,2.14.5-.58.58-1.14,1.06-1.64,1.02-1.05,2.5-1.92,4.02-2.06ZM39.92,126.44c2.59.83,5.07-.46,5.96-2.88.78-2.12.76-5.51-.33-7.53-.81-1.51-2.29-2.34-3.98-2.34-3.22,0-4.86,2.71-4.96,5.69-.05,1.29-.04,2.54.37,3.75.49,1.44,1.42,2.82,2.95,3.31ZM56.93,123.39c.41-1.13.49-2.24.48-3.41-.04-3.01-1.25-6.16-4.68-6.28-2.02-.07-3.71,1.01-4.54,2.85-.53,1.16-.64,2.37-.64,3.67,0,1.72.31,3.4,1.37,4.77s2.84,1.94,4.63,1.57c1.54-.32,2.78-1.5,3.39-3.17ZM66.38,125.67c2.01-1.67,2.16-4.97,1.85-7.28-.18-1.37-.7-2.72-1.77-3.64-1.68-1.46-4.3-1.41-5.98.03-1.22,1.05-1.79,2.55-1.92,4.12-.22,2.59.12,5.62,2.53,7.11,1.6,1,3.78.91,5.29-.34ZM34.58,126.44c.36-.02.51-.24.51-.59v-11.39c0-.39-.37-.61-.72-.61h-4.17c-1,.02-.74,1.62-.73,2.76,0,.92,1.41.39,2.21.57v8.8c.01.73,2.13.51,2.9.46Z" fill="#133651"/>
                <path d="M37.74,126.69c-.06.21-.39.09-.6.11-.42.02-.73.28-1.09.27.42-.63.06-2.63.45-2.02s.82,1.14,1.25,1.65Z" fill="#2e6ea9"/>
                <path d="M34.58,126.44c-.78.05-2.89.28-2.89-.46v-8.8c-.81-.18-2.21.35-2.22-.57-.01-1.15-.28-2.75.73-2.75h4.17c.36-.01.71.2.71.59v11.39c0,.35-.15.56-.5.59Z" fill="#fafbfb"/>
                <g>
                  <path d="M23.68,114.58c.35-.03.73.13,1.08.04.65.38,1.07.86,1.13,1.7l.06.89c.02.3-.13.61.03.96h1.7c.48,0,1.27.27,1.52.74.26.8.26,1.73.02,2.55-.43,1.5-2.2,1.02-3.26,1.18-.33,1.01.33,2.52-.71,3.22-.72.48-3.59.67-3.65-1.13l-.06-2.11c-1.15-.14-2.81.36-3.22-1.34-.22-.91-.06-1.77.22-2.6.32-.18.62-.48,1.06-.49l1.93-.03c.17-1.16-.43-2.81.99-3.41.38-.16.78-.14,1.15-.18ZM24.64,124.68l.13-3.36c1.03-.13,2.23.13,3.18-.12.42-.24.47-1.55.03-1.74-1.07-.33-2.19.03-3.24-.16v-2.92c-.01-.96-1.88-.65-1.89-.33l-.12,3.26-3.05.11c-.37.31-.39,1.5.02,1.74.96.34,2.01,0,3.04.15l.08,3.41c.45.19,1.51.35,1.82-.05Z" fill="#133651"/>
                  <path d="M24.64,124.68c-.31.4-1.37.24-1.82.05l-.08-3.41c-1.04-.16-2.09.19-3.04-.15-.41-.24-.4-1.43-.02-1.74l3.05-.11.12-3.26c.01-.32,1.88-.63,1.88.33v2.92c1.06.19,2.18-.17,3.25.16.44.18.38,1.5-.03,1.74-.95.25-2.15-.01-3.18.12l-.13,3.36Z" fill="#fafbfb"/>
                </g>
                <g>
                  <path d="M66.38,125.67c-1.5,1.25-3.68,1.34-5.29.34-2.41-1.49-2.74-4.53-2.53-7.11.13-1.57.7-3.08,1.92-4.12,1.68-1.44,4.3-1.49,5.98-.03,1.07.93,1.58,2.27,1.77,3.64.31,2.31.16,5.61-1.85,7.28ZM63.46,116.93c-1.81-.01-2.22,4.2-.95,5.86.26.34.66.56,1.06.52,2.11-.2,2.11-6.37-.1-6.38Z" fill="#fafbfb"/>
                  <path d="M63.46,116.93c2.21.02,2.21,6.19.1,6.38-.39.04-.8-.19-1.06-.52-1.27-1.66-.86-5.87.95-5.86ZM63.46,118.3c-.62,0-.7,3.65,0,3.65.64,0,.6-3.65,0-3.65Z" fill="#133651"/>
                  <path d="M63.46,118.3c.6,0,.64,3.66,0,3.65-.7,0-.62-3.65,0-3.65Z" fill="#3a7fb3"/>
                </g>
                <g>
                  <path d="M56.93,123.39c-.61,1.67-1.85,2.85-3.39,3.17-1.79.37-3.52-.14-4.63-1.57s-1.38-3.05-1.37-4.77c0-1.3.12-2.52.64-3.67.84-1.83,2.53-2.91,4.54-2.85,3.44.11,4.65,3.26,4.68,6.28.01,1.17-.07,2.28-.48,3.41ZM52.23,123.29c1.76.5,2.47-3.16,1.37-5.62-.2-.44-.63-.69-.99-.75-1.76-.27-2.33,3.7-1.37,5.4.21.37.48.81.99.96Z" fill="#fafbfb"/>
                  <path d="M52.23,123.29c-.51-.15-.78-.59-.99-.96-.96-1.71-.39-5.67,1.37-5.4.37.06.79.31.99.75,1.1,2.45.38,6.12-1.37,5.62ZM52.56,122.11c.57-1.26.51-2.68-.02-3.89-.72.28-.77,3.69.02,3.89Z" fill="#133651"/>
                  <path d="M52.56,122.11c-.8-.2-.75-3.62-.02-3.89.54,1.22.59,2.63.02,3.89Z" fill="#3a7fb3"/>
                </g>
                <g>
                  <path d="M39.92,126.44c-1.53-.49-2.46-1.87-2.95-3.31-.41-1.22-.42-2.46-.37-3.75.1-2.98,1.74-5.7,4.96-5.69,1.7,0,3.17.83,3.98,2.34,1.09,2.03,1.11,5.42.33,7.53-.89,2.42-3.37,3.71-5.96,2.88ZM42.32,122.94c1.46-1.58.96-6.27-1.01-6.02-1.71.22-2.07,4.73-.55,6.12.45.4,1.11.39,1.56-.1Z" fill="#fafbfb"/>
                  <path d="M42.32,122.94c-.45.48-1.11.5-1.56.1-1.53-1.38-1.16-5.89.55-6.12,1.97-.26,2.47,4.44,1.01,6.02ZM41.87,118.94c-.04-.27-.15-.55-.47-.67-.51,1.12-.53,2.41-.12,3.55.04.12.29.15.33.08.47-.76.39-2.01.26-2.96Z" fill="#133651"/>
                  <path d="M41.87,118.94c.13.95.21,2.21-.26,2.96-.04.06-.29.04-.33-.08-.42-1.15-.4-2.43.12-3.55.33.13.44.4.47.67Z" fill="#3a7fb3"/>
                </g>
              </g>
            </g>
            <g>
              <path d="M91.61,42.24c-.08-.21.03-.34.12-.5-.02.16.05.41-.12.5Z" fill="#649cb4"/>
              <path d="M76.84,49.08c-1.95-1.48-4.26-2.56-6.38-3.86.18-.51.52-1.04.9-1.48.14-.1.58-.16.77-.14.51.3,1.13.61,1.6,1.01.52.45.99.95,1.61,1.26.52.26,1.97,2.88,1.49,3.21Z" fill="#fae687"/>
              <g>
                <g>
                  <path d="M28.51,34.08c.31.66.68,1.21,1.03,1.85l5.1.86c.31.05.42.33.43.57,0,.25-.24.3-.37.46-.36-.08-.72-.27-1.12-.12l-3.25,3.26.66,4.68c-1.44-.6-2.63-1.23-3.89-1.86-.32-.16-.68-.13-.98.08-1.73.7-3.17,1.67-4.86,2.24.1-1.87.56-3.09.64-4.85l-3.29-3.4c-.24-.25-.43-.59-.17-.86.29-.31.72-.18,1.05-.26.18.11.25.31.28.55.09.81,2.77,2.84,3.13,3.66l-.48,3.91c2.09-4.02,5.07-7.14,9.78-7.61l-3.29-.55c-.31-.58-1.46-2.06-1.04-2.52.15-.16.47-.04.64-.08ZM22.37,45.05s-.03-.06-.06-.06-.06.03-.06.06.03.06.06.06.06-.03.06-.06Z" fill="#f8c826"/>
                  <path d="M28.51,34.08c-.17.04-.49-.09-.64.08-.42.46.73,1.95,1.04,2.52l3.29.55c-4.72.47-7.7,3.6-9.78,7.61l.48-3.91c-.37-.82-3.05-2.85-3.13-3.66-.03-.24-.1-.44-.28-.55.97-.25,1.86-.38,2.76-.48-.01.16.16.13.13-.02.66-.19,1.24.02,1.54-.59.76-1.53,1.47-3.03,2.32-4.51.09-.16.27-.22.41-.23.11,0,.28.06.37.2.58.99,1.03,1.99,1.49,2.99ZM24.81,38.08c.49-.05.61-.3.77-.71.31-.77.76-1.42.99-2.27.09-.34-.57-.89-.82-.58-.7.86-.96,2.23-1.71,2.42l-3.54.9c.58,1.11,2.87.4,4.31.24Z" fill="#fae687"/>
                  <path d="M34.7,37.81c-.99,1.19-2.07,2.2-3.13,3.3-.2.21-.15.61-.1.88l.7,4.31c.04.22-.1.44-.19.55-.12.16-.35.23-.56.13l-4.74-2.25-4.62,2.21c-.32.16-.62.13-.83-.15-.17-.23.03-.47.04-.71,1.69-.56,3.13-1.54,4.86-2.24.29-.21.66-.24.98-.08,1.27.63,2.45,1.26,3.89,1.86l-.66-4.68,3.25-3.26c.4-.15.77.03,1.12.12Z" fill="#e18f21"/>
                  <path d="M22.24,36.24l.13-.02c.03.14-.15.18-.13.02Z" fill="#efaa21"/>
                  <circle cx="22.31" cy="45.05" r=".06" fill="#fae687"/>
                  <path d="M24.81,38.08c-1.44.16-3.73.88-4.31-.24l3.54-.9c.75-.19,1.01-1.56,1.71-2.42.25-.31.92.24.82.58-.23.85-.68,1.5-.99,2.27-.16.41-.29.65-.77.71Z" fill="#fafbfb"/>
                </g>
                <g>
                  <path d="M41.19,19.54c.14.59.4,1.34.77,1.72l4.3.68c.64.1,1.39.48,1.68,1.1.27.59.1,1.46-.25,1.89-1.03,1.24-2.1,2.26-3.25,3.43l.57,4.65c.09.74-.29,1.38-.81,1.73-.59.4-1.31.35-1.92.04l-4.08-2.01-4.17,2.03c-.2.1-.51.09-.55.3.76.21,1.45.2,2.03.57.5.32.87.8.95,1.27.22,1.26-.66,1.78-1.24,2.63-.86.71-1.55,1.49-2.32,2.28.19,1.57.52,3.02.62,4.56.05.69-.22,1.34-.67,1.7-.51.4-1.24.49-1.87.22-1.33-.58-2.67-1.22-3.95-1.9-.53-.28-.59.08-.94.2-1.29.43-2.4,1.06-3.48,1.67-.67.38-1.62.08-2.05-.22-.63-.43-.84-1.15-.73-1.92l.63-4.31-1.61-1.62-1.57-1.67c-.13-.14-.19-.33-.31-.42-.15-.69-.16-1.28.21-1.87.29-.45.79-.8,1.44-.91l4.26-.73c.45-.57.61-1.21.91-1.8l1.34-2.61c.28-.55,1.24-.69,1.7-.66.54.03,1.12.42,1.43.91.83,1.31,1.41,2.66,2.09,4.06.41.32,1.24.31,1.74.21-.53-.58-.82-1.16-.72-1.88l.63-4.43-2.41-2.55c-.36-.39-.96-.81-1.12-1.31-.39-1.26.43-2.45,1.66-2.65l4.31-.7,2.12-4.16c.33-.64.94-.96,1.59-.99,1.78-.08,2.17,2.6,3.05,3.47ZM36.9,19.4l-1.34,2.65c-.15.29-.35.5-.69.54-1.58.19-3.1.42-4.65.72-.22.04-.35.21-.38.38-.02.15,0,.35.18.4.02.1.11.16.15.25.08.16.19.31.36.37.08.31.42.43.58.65.56.74,1.28,1.37,1.97,2.07.25.25.43.48.36.88l-.71,4.56c-.03.21-.07.44.15.58.16.1.4.1.63,0l4.68-2.23,4.64,2.29c.18.09.37.1.52.02.13-.07.31-.3.28-.54l-.69-4.67c-.05-.34.08-.61.31-.84l2.64-2.63c.27-.27.52-.53.69-.83.05-.1.07-.29.02-.41s-.2-.26-.41-.29l-4.4-.67c-.4-.06-.71-.11-.91-.5l-2.25-4.35c-.08-.15-.19-.25-.29-.29-.65-.22-1.1,1.18-1.46,1.89ZM22.37,36.22l-.13.02c-.9.1-1.79.23-2.76.48-.33.09-.76-.05-1.05.26-.26.27-.06.62.17.86l3.29,3.4c-.08,1.76-.54,2.98-.64,4.85-.01.24-.21.48-.04.71.21.28.51.3.83.15l4.62-2.21,4.74,2.25c.21.1.44.03.56-.13.08-.11.22-.33.19-.55l-.7-4.31c-.04-.27-.1-.67.1-.88,1.06-1.1,2.15-2.11,3.13-3.3.13-.16.37-.2.37-.46,0-.24-.12-.51-.43-.57l-5.1-.86c-.36-.64-.72-1.19-1.03-1.85-.47-.99-.91-2-1.49-2.99-.09-.15-.26-.21-.37-.2-.13,0-.32.07-.41.23-.85,1.48-1.56,2.98-2.32,4.51-.3.61-.88.4-1.54.59Z" fill="#4f391e"/>
                  <path d="M46.58,24.02c-.33.02-.81-.2-1.17-.03l-3.22,3.15c-.25.22-.34.48-.29.81l.64,4.14c-1.41-.46-2.56-1.17-3.81-1.75-.34-.16-.62-.21-.97-.06-1.34.59-2.54,1.36-3.87,1.84v-.59c.15-.09.28-.26.36-.45.81-1.99,2.13-3.54,3.77-4.89s3.47-2.17,5.7-2.4c-1.01-.55-3.14-.13-3.55-.93l-1.94-3.72c-.4.53-.87.44-1.34.24.36-.7.8-2.11,1.46-1.89.1.03.21.13.29.29l2.25,4.35c.2.39.51.44.91.5l4.4.67c.2.03.36.17.41.29s.03.31-.02.41Z" fill="#f8c826"/>
                  <path d="M33.91,31.54l.58-3.98c-.21-.45-.76-1.02-1.19-1.28-.4-.81-1.4-1.26-2.08-2.34-.33-.05-1.21-.19-1.2.17-.18-.06-.2-.25-.18-.4.03-.17.16-.34.38-.38,1.55-.3,3.07-.53,4.65-.72.34-.04.55-.26.69-.54l1.34-2.65c.46.2.93.28,1.34-.24l1.94,3.72c.42.8,2.55.38,3.55.93-2.23.23-4.05,1.04-5.7,2.4s-2.96,2.9-3.77,4.89c-.08.19-.21.36-.34.45ZM32.2,24.43c.15.32.48.57.84.53l3.82-.4c.67-1.22,1.21-2.45,1.76-3.73.16-.38-.07-.78-.43-.94-.56.1-.7.6-.9,1.05-.38.87-.91,1.63-1.34,2.48l-3.2.51c-.25.04-.48.16-.56.5Z" fill="#fae687"/>
                  <path d="M46.58,24.02c-.17.3-.41.56-.69.83l-2.64,2.63c-.23.23-.36.49-.31.84l.69,4.67c.04.24-.15.47-.28.54-.16.08-.34.07-.52-.02l-4.64-2.29-4.68,2.23c-.23.11-.47.11-.63,0-.22-.14-.19-.37-.15-.58.4-.23.71-.59,1.16-.75,1.32-.49,2.53-1.26,3.87-1.84.35-.15.63-.1.97.06,1.26.58,2.41,1.29,3.81,1.75l-.64-4.14c-.05-.34.04-.59.29-.81l3.22-3.15c.37-.17.84.05,1.17.03Z" fill="#e18f21"/>
                  <path d="M33.29,26.27c.43.27.99.84,1.19,1.28l-.58,3.98v.59c-.46.16-.77.52-1.17.75l.71-4.56c.06-.41-.11-.63-.36-.88-.69-.69-1.41-1.32-1.97-2.07.14-.18.38-.17.58,0,.51.4,1.11.6,1.61.91Z" fill="#efaa21"/>
                  <path d="M33.29,26.27c-.5-.31-1.1-.51-1.61-.91-.2-.16-.44-.17-.58,0-.16-.22-.51-.34-.58-.65-.04-.17-.22-.29-.36-.37-.04-.08-.14-.15-.15-.25,0-.37.88-.23,1.2-.17.67,1.08,1.67,1.53,2.08,2.34Z" fill="#f8c826"/>
                  <path d="M30.53,24.72c-.17-.07-.28-.21-.36-.37.14.08.32.2.36.37Z" fill="#fae687"/>
                  <path d="M32.2,24.43c.08-.33.31-.46.56-.5l3.2-.51c.43-.85.96-1.61,1.34-2.48.2-.45.34-.95.9-1.05.35.16.59.56.43.94-.55,1.28-1.09,2.51-1.76,3.73l-3.82.4c-.36.04-.69-.22-.84-.53Z" fill="#fafbfb"/>
                </g>
              </g>
              <g>
                <path d="M76.96,22.68s.08-.04.12-.04.08,0,.12.01c-.02.16.18.16.29.14.07,0,.23,0,.2-.12l4.05.63c.27.04.39.2.46.39.09.24-.15.27-.2.41l-1.09-.02-3.37,3.38.63,4.61c-1.38-.48-2.56-1.13-3.81-1.75-.35-.17-.69-.22-1.04,0l-3.56,1.67c-.07-.1-.08-.24-.13-.34-.1-.26.15-.46.25-.71.71-1.82,1.9-3.19,3.33-4.49,1.81-1.65,3.91-2.54,6.48-2.65-.57-.59-3.29-.21-3.2-.93.03-.19.34-.19.46-.22Z" fill="#f8c826"/>
                <path d="M76.96,22.54v.14c-.12.03-.44.03-.46.22-.1.72,2.62.34,3.2.93-2.57.11-4.67,1-6.48,2.65-1.43,1.3-2.62,2.67-3.33,4.49-.09.24-.35.44-.25.71-.04-.04-.17-.01-.18-.1,0-.07.02-.13.03-.22l.61-3.76c.06-.35-.39-.55-.57-.73-.41-.78-1.4-1.44-1.9-2.18.8.21,1.53.29,2.39.17l2.39-.33c.71-1.29,1.36-2.62,1.92-4.02.13-.31-.1-.66-.31-.73-.33-.1-.61,0-.78.35l-1.55,3.01c-.39.76-4.44.46-4.07,1.54-.05-.08-.24-.07-.23-.19.04-.66.33-.46.09-.93s-.79-.19-.61-.41c.21-.04.41-.1.62-.12,0,.15.16.11.13-.02l3.3-.56,2.4-4.67c.11-.21.29-.35.49-.35.16,0,.39.13.5.33l2.2,4.36c.11.23.25.37.47.39Z" fill="#fae687"/>
                <path d="M81.99,24.11c-.08.23-.19.37-.39.58l-3.06,3.22.7,4.96c.03.24-.01.47-.18.6-.12.1-.35.12-.56.02l-4.67-2.28-3.75,1.85-1.09.47c-.27.12-.49-.02-.62-.16-.2-.23.04-.43.04-.61.22-.05.36-.44.62-.43.37.01.51-.21.71-.31l3.56-1.67c.35-.23.69-.18,1.04,0,1.25.62,2.43,1.27,3.81,1.75l-.63-4.61,3.37-3.38,1.09.02Z" fill="#e18f21"/>
                <path d="M66.87,23.17c-.17.21.39-.04.61.41.24.47-.05.27-.09.93,0,.12.17.11.23.19.5.74,1.49,1.4,1.9,2.18-.14.01-.32.01-.42.12-.09.1-.27.37-.21.5-.16-.04-.28-.16-.42-.3l-2.77-2.86c-.23-.24-.43-.64-.08-.87.38-.24.85-.22,1.24-.29Z" fill="#f8c826"/>
                <path d="M69.52,26.88c.18.17.63.37.57.73l-.61,3.76c-.01.09-.04.15-.03.22,0,.08.13.06.18.1.04.1.06.24.13.34-.2.09-.34.32-.71.31-.25,0-.4.38-.62.43,0-1.77.85-4.42.46-5.25-.06-.13.12-.4.21-.5.1-.11.28-.11.42-.12Z" fill="#efaa21"/>
                <path d="M77.69,22.68c.03.12-.13.11-.2.12-.11.02-.31.02-.29-.14l.49.03Z" fill="#fae687"/>
                <path d="M67.48,23.05s.09-.01.13-.02c.03.13-.13.17-.13.02Z" fill="#efaa21"/>
                <path d="M77.08,22.64s-.09.03-.12.04v-.14s.08.07.12.1Z" fill="#efaa21"/>
                <path d="M67.62,24.7c-.36-1.08,3.69-.79,4.07-1.54l1.55-3.01c.17-.34.45-.45.78-.35.21.06.44.41.31.73-.56,1.39-1.22,2.73-1.92,4.02l-2.39.33c-.86.12-1.59.04-2.39-.17Z" fill="#fafbfb"/>
              </g>
              <g>
                <path d="M78.14,21.37c.02.11.2.09.28.09.37-.02.79.12,1.15.15.04.11.19.09.29.09l.43.02c.01.12.2.1.29.1l.43.02c.01.12.2.1.29.1.72,0,1.44.2,1.86.74.83,1.07.33,1.98-.34,2.9l-2.79,2.8.56,4.49c.13,1.03-.43,1.78-1.4,2.13.9,0,1.65-.24,2.45-.39l2.06-3.98c.3-.59.83-1,1.41-1.08s1.35.14,1.69.67c.91,1.43,1.54,2.93,2.32,4.45,1.3.24,2.57.37,3.81.57l.2.03c.04.17.27.11.4.12h.21c-.05.1.1.11.16.12.61.15,1.09.73,1.22,1.24.45,1.77-1.58,2.72-2.23,3.89-.35.33-.91.63-1.16,1.1-.08.16-.2.28-.12.5.02.06,0,.14,0,.21.02.09-.03.26.09.28.02.37.17.78.15,1.16,0,.09-.02.26.09.28l.03.44c0,.09-.02.26.09.28l.03.44c0,.13-.05.34.09.4-.02.58.17,1.42-.24,1.92-.66.8-1.61,1-2.55.54l-3.91-1.93c-.61.2-1.06.57-1.57.78-.72.3-1.46.62-2.18,1.03-.65.37-1.31.46-2.01.38-.62-.46-1.28-1.02-1.17-1.91l.58-4.74-2.88-3.05c-.53-.56-.69-1.2-.61-1.92.27-.41.4-.92.93-1.15.8-.34,1.63-.41,2.45-.61-.54-.09-.95-.23-1.39-.45l-3.86-1.89-4.2,2.08c-.64.32-1.34.15-1.87-.2s-.79-1.05-.7-1.76l.51-4.42c.05-.45-.57-.61-.73-.85-1.07-1.62-3.24-2.53-2.57-4.38.17-.46.67-1.05,1.31-1.17l4.49-.81c.46-.49.55-1.18.83-1.68l1.31-2.43c.35-.65.96-1.05,1.64-1.05s1.35.36,1.68,1.01c.64,1.26,1.35,2.43,1.9,3.73.15.36.43.62.78.55ZM67.61,23.03s-.09.02-.13.02c-.21.02-.41.09-.62.12-.39.07-.86.05-1.24.29-.35.23-.15.63.08.87l2.77,2.86c.14.14.26.26.42.3.39.83-.45,3.48-.46,5.25,0,.18-.24.39-.04.61.13.15.35.28.62.16l1.09-.47,3.75-1.85,4.67,2.28c.21.1.43.08.56-.02.16-.13.21-.36.18-.6l-.7-4.96,3.06-3.22c.2-.21.31-.35.39-.58.05-.14.29-.17.2-.41-.07-.19-.19-.35-.46-.39l-4.05-.63-.49-.03s-.08-.01-.12-.01c-.04-.03-.07-.1-.12-.1-.22-.02-.35-.17-.47-.39l-2.2-4.36c-.1-.2-.34-.33-.5-.33-.2,0-.38.14-.49.35l-2.4,4.67-3.3.56ZM77.17,37.54c1,1.35,2.33,2.43,3.47,3.78l-.32,2.61c-.06.48-.65,2.67-.19,2.98.12.08.33.15.52.06,1.61-.78,3.14-1.59,4.79-2.28l4.56,2.25c.19.09.44.09.58-.03.1-.09.29-.27.26-.49l-.74-5.1,2.8-2.94c.3-.32.61-.6.77-.96.06-.15.03-.34-.06-.5-.07-.12-.25-.2-.45-.23l-4.53-.72c-.74-.12-.76-1.06-1.21-1.53-.16-.46-1.59-3.5-1.91-3.57-.16-.04-.39.03-.49.21l-2.26,4.3c-.13.24-.27.52-.56.57l-4.87.86c-.17.03-.27.23-.33.33-.11.2.07.27.16.39Z" fill="#4f391e"/>
                <path d="M87.41,34.45c.45.48.47,1.42,1.21,1.53l4.53.72c.21.03.39.11.45.23.08.16.12.35.06.5-.54.44-1.04-.28-1.68.51-.74.91-1.56,1.69-2.45,2.46-.19.17-.45.48-.41.74l.61,4.46-4.36-2c-1.43.56-2.71,1.25-4.06,1.94-.17.09-.36.18-.51.09.05-.3.22-.51.03-.76-.18.16-.13.42-.43.32.33-.77.46-1.51.5-2.36-.28.15-.02,1.09-.58,1.11l.32-2.61c-1.15-1.35-2.48-2.43-3.47-3.78.13-.43,1.03-.26,1.57.28l2.8,2.82c.39.39-.48,2.71-.23,3.6.56-.6.88-1.25,1.3-1.87,1.53-2.23,3.93-4.22,6.57-4.93.39-.11.83,0,1.14-.4l-2.78-.34-1.2-2.33c-.08-.16,0-.29.11-.36.31-.17.77.23.96.43Z" fill="#f8c826"/>
                <path d="M87.41,34.45c-.19-.2-.64-.6-.96-.43-.12.06-.19.2-.11.36l1.2,2.33,2.78.34c-.31.39-.75.29-1.14.4-2.64.71-5.04,2.7-6.57,4.93-.43.62-.74,1.27-1.3,1.87-.25-.89.62-3.21.23-3.6l-2.8-2.82c-.53-.54-1.43-.71-1.57-.28-.09-.12-.28-.19-.16-.39.05-.1.16-.3.33-.33l4.87-.86c.28-.05.43-.33.56-.57l2.26-4.3c.1-.19.34-.25.49-.21.31.07,1.75,3.11,1.91,3.57ZM84.06,37.9c.64-1.35,1.37-2.61,1.78-4.07.11-.39-.26-.94-.5-1.08l-2.2,4.13c-.54.11-4.2.43-4.02.98.02.07.11.18.25.21,1.42.36,3.18.15,4.7-.17Z" fill="#fae687"/>
                <path d="M80.32,43.93c.56-.03.3-.96.58-1.11-.04.85-.17,1.59-.5,2.36.29.11.25-.15.43-.32.2.25.02.46-.03.76.16.09.34,0,.51-.09,1.35-.69,2.63-1.38,4.06-1.94l4.36,2-.61-4.46c-.03-.26.22-.57.41-.74.89-.76,1.71-1.55,2.45-2.46.64-.78,1.14-.06,1.68-.51-.16.36-.47.64-.77.96l-2.8,2.94.74,5.1c.03.22-.15.4-.26.49-.14.12-.39.12-.58.03l-4.56-2.25c-1.65.68-3.18,1.49-4.79,2.28-.18.09-.4.02-.52-.06-.47-.32.13-2.5.19-2.98Z" fill="#e18f21"/>
                <path d="M84.06,37.9c-1.52.32-3.28.54-4.7.17-.13-.03-.23-.14-.25-.21-.18-.55,3.49-.87,4.02-.98l2.2-4.13c.24.14.61.69.5,1.08-.41,1.46-1.14,2.71-1.78,4.07Z" fill="#fafbfb"/>
              </g>
              <g>
                <path d="M65.83,18.71c.05.71-.34,1.4-.91,1.89-.73.65-1.31,1.54-2.06,2.1-.62.47-.61.74-.53,1.38l.47,3.98c.04.3-.08.7-.11.94-.59.95-1.63,1.27-2.67.76l-4.01-1.95-4.14,2.01c-.83.41-1.78.11-2.38-.56-.32-.36-.3-1.1-.25-1.58l.51-4.18c-.03-.44-.69-.81-.99-1.01-.7-1.43-2.91-2.28-2.5-4.07.31-1.38,1.72-1.61,2.95-1.69.09,0,.27.02.29-.1.16.06.33-.1.47-.11l1.4-.15c.09,0,.26.02.29-.09.42.07.68-.21.86-.6.56-1.26,1.24-2.42,1.86-3.64.37-.72,1.13-.99,1.86-.96.69.03,1.23.47,1.58,1.16l1.99,3.92,4.3.71c.92.15,1.66.89,1.71,1.78ZM47.78,19.17c.96,1.18,2.08,2.22,3.16,3.36.26.27.37.63.26,1.01-.17.53-.07,1.08-.19,1.67-.16.79-.36,1.58-.35,2.39,0,.16-.17.45-.1.62.05.14.23.51.48.39l4.91-2.31,4.96,2.3c.34.16.54-.44.5-.7l-.67-4.65c-.04-.28.04-.55.23-.74l3.21-3.26c.19-.19.2-.43.05-.65-.11-.16-.28-.23-.53-.27l-4.77-.94-1.79-3.14c-.03-.32-.66-1.73-1.03-1.78-.18-.03-.39.05-.51.25-.77,1.38-1.46,2.79-2.16,4.22-.2.41-.45.57-.9.65l-4.53.73c-.19.03-.36.22-.42.37-.05.13-.04.34.15.47Z" fill="#4f391e"/>
                <path d="M51.67,16.32c-.03.11-.2.08-.29.09-.07-.07,0-.17.09-.22.07-.03.14.1.2.12Z" fill="#2b669b"/>
                <path d="M57.17,14.27c-.19,0-.39.05-.5.18-.15.18-.16.45-.03.69l1.64,3.08c.95.28,1.87.07,2.87.55-1.38.34-2.58.58-3.72,1.27-2.21,1.35-3.96,3.21-5.14,5.52-.1.2-.26.28-.44.24l.02-.63c.03-.83.33-1.69.48-2.59-.28-.49-.65-.86-1.05-1.25-1.02-.99-1.36-1.69-2.55-2.44-.19-.01-1.18.04-.96.27-.19-.13-.21-.33-.15-.47.05-.14.22-.33.42-.37l4.53-.73c.45-.07.7-.24.9-.65.7-1.43,1.38-2.83,2.16-4.22.11-.2.32-.27.51-.25.37.05,1,1.46,1.03,1.78Z" fill="#fae687"/>
                <path d="M57.17,14.27l1.79,3.14,4.77.94c.24.05.41.11.53.27-.53-.07-.97.14-1.36.55l-3.21,3.29.58,3.72c.05.33.15.66-.06.94l-3.86-1.8c-.2-.09-.43-.11-.64-.02-1.43.63-2.76,1.39-4.17,1.91.01-.49.09-.97.31-1.41.17.04.34-.04.44-.24,1.19-2.31,2.93-4.17,5.14-5.52,1.14-.7,2.34-.94,3.72-1.27-1-.48-1.92-.27-2.87-.55l-1.64-3.08c-.13-.24-.12-.51.03-.69.11-.13.31-.19.5-.18ZM61.44,18.77s-.03-.08-.08-.08-.08.03-.08.08.03.08.08.08.08-.03.08-.08Z" fill="#f8c826"/>
                <path d="M64.25,18.62c.15.22.14.46-.05.65l-3.21,3.26c-.19.19-.27.46-.23.74l.67,4.65c.04.26-.16.86-.5.7l-4.96-2.3-4.91,2.31c-.25.12-.43-.25-.48-.39-.06-.17.1-.46.1-.62.36.08.58-.29.86-.39,1.42-.52,2.74-1.29,4.17-1.91.21-.09.44-.07.64.02l3.86,1.8c.2-.27.11-.61.06-.94l-.58-3.72,3.21-3.29c.39-.4.83-.62,1.36-.55Z" fill="#e18f21"/>
                <path d="M51.86,25.18c-.25-.19-.56-.04-.84.03.12-.58.02-1.13.19-1.67.12-.38,0-.74-.26-1.01-1.09-1.14-2.21-2.18-3.16-3.36-.22-.23.78-.29.96-.27,1.19.76,1.53,1.46,2.55,2.44.4.38.77.75,1.05,1.25-.15.9-.45,1.76-.48,2.59Z" fill="#f8c826"/>
                <path d="M51.86,25.18l-.02.63c-.22.43-.3.92-.31,1.41-.27.1-.5.47-.86.39,0-.81.19-1.61.35-2.39.28-.07.59-.22.84-.03Z" fill="#efaa21"/>
                <path d="M49.51,16.67c-.01.12-.2.1-.29.1-.07-.08,0-.16.09-.22.07-.04.13.09.2.11Z" fill="#2b669b"/>
                <circle cx="61.36" cy="18.77" r=".08" fill="#fae687"/>
              </g>
              <g>
                <path d="M61.57,39.71c.55.29,1.19.74,1.73,1.08l7.17,4.42c2.11,1.3,4.42,2.38,6.38,3.86l.83.63c.23.17.43.4.73.32l4.18,2.71c1.28-.44,2.38-.93,3.52-1.41,2.21-.94,4.42-1.94,6.47-3.19.12,0,.23,0,.34-.03.04,0,.08-.01.13-.01.28-.01.56-.04.83,0l.12.02c.85.33,1.42,1.09,1.5,2.08.12,1.66.06,3.35-.18,4.97-.31,2.09-1.24,3.98-2.19,5.85l-1.54,1.71c1.67,1.76-.2,6.73-1.17,8.41-.9,1.56-2.42,2.77-3.83,3.82-.24.18-.03.24,0,.37.06.53.09,1.07-.04,1.66-1.06,4.76-4.83,7.8-9.2,9.24-1.72.57-3.65.58-5.42.96l-3.22,2.92c-2.16,1.96-9.32,5.79-12.58,6.56-5.04-1.48-8.25-3.45-12.47-6.32-1.34-.91-2.37-2.38-3.81-3.19-1.17-.52-2.7-.23-3.89-.68s-2.5-.66-3.62-1.22c-1.64-.82-3.12-1.89-4.37-3.3-.7-.79-1.24-1.68-1.73-2.55-.21-.37-1.25-3.55-.64-4.44-1.95-1.11-3.23-2.8-4.4-4.59,0-.03,0-.07-.01-.1l-.34-.59s0-.08-.02-.12c-.03-.08.02-.26-.1-.25-.37-1.43-.86-2.83-.91-4.32-.03-.77.1-1.53.62-2.18-.68-.93-1.46-1.71-2-2.73-.27-.52-.64-1.06-.83-1.56-.39-1.05-.74-2.12-.87-3.23v-.13s-.23-1.78-.23-1.78c.22-.11.02-.35-.02-.51-.04-.18,0-.39,0-.57-.04-.75.05-1.5.13-2.31.07-.75.56-1.31,1.1-1.63,1.66-.97,3.2.96,4.66,1.27,1.02.67,2.21,1.11,3.35,1.55.47.18.93.5,1.46.69l2.27.82c.94-.4,1.69-1.12,2.5-1.62l16.54-10.09,6.35-3.81c.79-.48,1.73-.39,2.49.08,1.43.87,2.81,1.68,4.23,2.44ZM30.76,61.19c.05,1.52.34,3.05.6,4.55,1.33,7.5,4.51,14.16,9.68,19.87,3.65,4.03,9.87,7.58,15.02,9.32,4.7-1.66,9.5-4.32,13.16-7.64,6.27-5.7,10.04-13.47,11.56-21.68.02-.1,0-.22.01-.32.12-.01.1-.2.1-.29-.01-.43.11-.86.13-1.29l.02-.25.1-.59.02-.26c.18-2.69.42-5.39.15-8.13-.05-.52-.29-.71-.68-.95l-7.49-4.57-4.6-2.77-11.61-7.17c-.34-.21-.62-.3-.95-.26-.21.02-.42.04-.66.18l-7.38,4.5-16.36,10.04c-.43.26-.75.47-.81,1.01-.25,2.26-.2,4.49-.01,6.7ZM18.32,50.99c-.19,2.56.14,5.13,1.23,7.53,1.8,4.01,5.81,5.71,9.87,6.71-.04-.92-.23-1.62-.34-2.47-.3-2.36-.23-4.73-.23-7.22,0-.35.26-.73.1-1.2-3.55-1.22-6.94-2.77-10.26-4.62-.44.34-.38.78-.36,1.26ZM83.2,55.57c.02,2.29.07,4.57-.23,6.93l-.35,2.71c2.16-.54,4.2-1.21,6.06-2.38,2.26-1.42,3.83-3.6,4.5-6.17.48-1.83.71-3.64.57-5.58-.01-.19.1-1.11-.24-1.23-.11-.04-.29-.09-.45,0-3.17,1.83-6.49,3.25-9.94,4.51-.09.42.02.77.08,1.21ZM21.64,65.63c.28,2.36,1.28,4.71,3.03,6.47,1.9,1.91,4.95,2.89,7.67,3.4l-.96-2.41-1.46-5.05c-.07-.24.08-.78-.2-.98-2.07-.54-4.04-1.22-6.02-2.04l-2.06-.85c-.24.5-.17,1.02,0,1.46ZM82.14,68.02c-.42,1.7-.92,3.37-1.47,5.14-.23.75-.8,1.42-.96,2.36,3.06-.57,6.41-1.71,8.34-4.2,1.28-1.65,2.11-3.6,2.38-5.72.05-.4.26-.83.07-1.31-.06-.16-.45-.1-.63-.02-2.42,1.19-4.91,2.1-7.52,2.73-.13.35-.14.64-.19,1.02ZM27.28,76.79c.95,5.06,6.06,7.76,10.97,8.33l-2.09-2.7-2.49-4.21c-.16-.26-.13-.65-.43-.91-2.11-.29-4.09-.97-6.1-1.51-.09.41,0,.68.14,1ZM78.41,78.21c-.29.5-2,3.56-2.42,4.08l-2.3,2.86c1.63-.14,3.19-.63,4.7-1.28,2.36-1,4.35-2.61,5.6-4.85.38-.67.67-1.34.78-2.14.05-.33.28-.65.05-1.1-1.98.62-3.91,1.2-5.95,1.59-.28.1-.35.58-.47.83Z" fill="#4f391e"/>
                <path d="M16.51,53.4c-.06-.05-.14-.12-.14-.2,0-.12-.02-.31.13-.31.03.16.24.4.02.51Z" fill="#2b669b"/>
                <path d="M41.68,51.47c-.82.74-1.79.91-2.31,1.53-.05-.02-.15.03-.2.03-1.09.68-2.17,1.4-3.33,2.04-.61.33-1.2.75-1.25,1.44,0,.08-.1.15-.1.23.01.18-.13.37-.13.61,0,.85-.04,1.66.02,2.5.03.39.16.74.11,1.09,0,.07.02.14.01.21-.04.49.17.97.09,1.46-.03.16-.03.41.13.48,1.01,6.7,3.38,12.01,8.17,16.81-.11.43-2.1,2.16-2.53,2.38-4.53-4.36-7.17-10.1-8.77-16.19-.05-.18-.06-.36-.24-.37-.27-1.5-.55-3.03-.6-4.55-.02-.58.14-1.36.18-2.03.1-1.54.43-3.03.9-4.46.15-.47.84-.7,1.21-.93l4.95-3.09,3.01-1.93c.23-.15.55-.21.78-.11.75.35.51,2.13-.11,2.83Z" fill="#f8c826"/>
                <path d="M80.78,65.61c-1.52,8.21-5.29,15.98-11.56,21.68-3.65,3.32-8.46,5.98-13.16,7.64-5.14-1.74-11.37-5.29-15.02-9.32-5.17-5.71-8.35-12.37-9.68-19.87.18,0,.19.19.24.37,1.61,6.1,4.24,11.83,8.77,16.19.95.91,1.69,2.18,2.95,2.9.04.05.1.1.16.09,3.54,3.19,8.02,5.57,12.57,6.98.24.07.52-.1.8-.21,16.91-6.47,18.15-15.56,21.9-21.02l.21-.3,1.66-5.08c.03-.09.12-.11.16-.06Z" fill="#e18f21"/>
                <path d="M81.17,62.62c-.1-.05-.16.08-.13.18.01.05.03.12.11.07l-.1.59s-.09.06-.1.1c-.03.07-.02.2.09.15-.03.43-.15.85-.13,1.29-.08-.07-.16,0-.21.1-.03.06.08.14.11.19,0,.1,0,.22-.01.32-.04-.05-.13-.03-.16.06l-1.66,5.08-.21.3c-.41.14-.49-.38-.75-.57-.38-.28-.96-.16-1.32-.49-.15-.13-.26-.35-.41-.38-.21-.03-.38.08-.56.1.8-2.59,1.5-5.24,1.72-7.94,0-.06-.02-.15,0-.21.24-.5.05-1.1.12-1.7.11-.96.37-3.65-.55-4.25l-4.83-3.08c-.52-.33-1.14-.47-1.46-.96.02-.19.19-.32.35-.47l1.84-1.76c.13-.12.22-.23.24-.37l7.49,4.57c.4.24.63.43.68.95.27,2.73.03,5.44-.15,8.13Z" fill="#f8c826"/>
                <path d="M55.98,38.76v4.29c-.45.03-.9.25-1.34.52l-10.66,6.57c-.18.08-.39.15-.49.33-.04,0-.08.01-.12.01-.47.34-1.25.59-1.68.98.62-.71.86-2.48.11-2.83-.22-.1-.55-.04-.78.11l-3.01,1.93-4.95,3.09c-.37.23-1.06.46-1.21.93-.47,1.43-.8,2.92-.9,4.46-.04.68-.2,1.46-.18,2.03-.19-2.2-.24-4.44.01-6.7.06-.54.38-.75.81-1.01l16.36-10.04,7.38-4.5c.23-.14.44-.16.66-.18Z" fill="#fae687"/>
                <path d="M93.5,51.22c-.63,3.7-2.59,7.26-5.79,9.42-1.28.87-2.67,1.37-4.1,1.92-.25.09-.48.09-.65-.06.3-2.36.25-4.64.23-6.93,3.56-1.18,6.9-2.82,10.3-4.35Z" fill="#f8c826"/>
                <path d="M28.85,55.54c0,2.5-.07,4.86.23,7.22-1.42-.41-2.83-.91-4.15-1.72-3.46-2.12-5.72-5.75-6.24-9.72l4.44,2.03c1.89.87,3.78,1.6,5.72,2.19Z" fill="#f8c826"/>
                <path d="M68.54,46.19c-.4.49-.89.89-1.4,1.34-.43.38-.74.88-1.23,1.1-.55-.36-1.29-.63-1.92-1.02l-6.71-4.08c-.41-.25-.86-.51-1.3-.48v-4.29c.32-.04.61.05.95.26l11.61,7.17Z" fill="#f8c826"/>
                <path d="M18.69,51.32c.51,3.97,2.78,7.6,6.24,9.72,1.33.81,2.73,1.31,4.15,1.72.11.84.3,1.54.34,2.47-4.06-1-8.07-2.7-9.87-6.71-1.08-2.41-1.42-4.97-1.23-7.53.19.01.31.18.37.34Z" fill="#e18f21"/>
                <path d="M93.75,51.09c.14,1.93-.09,3.75-.57,5.58-.68,2.57-2.24,4.75-4.5,6.17-1.86,1.17-3.9,1.84-6.06,2.38l.35-2.71c.17.15.4.15.65.06,1.43-.55,2.81-1.05,4.1-1.92,3.2-2.16,5.16-5.72,5.79-9.42.08-.04.14-.13.25-.13Z" fill="#e18f21"/>
                <path d="M29.93,68.04l1.46,5.05c-3.87-.62-7.98-3.33-9.15-7.23.47,0,.88.26,1.36.44,2.08.77,4.19,1.35,6.32,1.74Z" fill="#f8c826"/>
                <path d="M89.78,65.75c-.94,2.75-3.13,4.99-5.8,6.26-1.1.53-2.2.85-3.31,1.16.55-1.78,1.06-3.44,1.47-5.14,2.62-.45,5.11-1.45,7.64-2.27Z" fill="#f8c826"/>
                <path d="M90.42,65.61c-.26,2.13-1.1,4.08-2.38,5.72-1.93,2.49-5.28,3.62-8.34,4.2.17-.95.73-1.61.96-2.36,1.11-.31,2.21-.63,3.31-1.16,2.66-1.27,4.86-3.51,5.8-6.26.21-.07.4-.2.64-.14Z" fill="#e18f21"/>
                <path d="M22.24,65.86c1.17,3.89,5.28,6.61,9.15,7.23l.96,2.41c-2.72-.51-5.77-1.49-7.67-3.4-1.76-1.76-2.75-4.12-3.03-6.47.23-.02.44.08.6.23Z" fill="#e18f21"/>
                <path d="M28.25,77.14c1.38,2.63,4.97,4.92,7.91,5.28l2.09,2.7c-4.91-.58-10.02-3.28-10.97-8.33.36-.04.65.3.97.35Z" fill="#e18f21"/>
                <path d="M84.77,76.89c-.11.8-.41,1.46-.78,2.14-1.25,2.24-3.24,3.85-5.6,4.85-1.51.64-3.07,1.14-4.7,1.28l2.3-2.86c-.15.56,3.23-.97,3.48-1.1,1.6-.84,3.72-2.46,4.44-4.04.29-.06.55-.31.87-.26Z" fill="#e18f21"/>
                <path d="M73.15,48.97c-.01.14-.11.25-.24.37l-1.84,1.76c-.16.15-.33.28-.35.47-.08-.01-.16-.01-.24,0l-4.56-2.94c.49-.22.79-.72,1.23-1.1.51-.44,1-.85,1.4-1.34l4.6,2.77Z" fill="#fae687"/>
                <path d="M33.67,78.21l2.49,4.21c-2.94-.36-6.53-2.65-7.91-5.28,1.81.32,3.58.91,5.42,1.07Z" fill="#f8c826"/>
                <path d="M83.91,77.15c-.72,1.58-2.84,3.2-4.44,4.04-.25.13-3.63,1.66-3.48,1.1.42-.52,2.13-3.59,2.42-4.08,1.86-.17,3.67-.66,5.5-1.05Z" fill="#f8c826"/>
                <path d="M28.85,55.54c-1.94-.59-3.83-1.32-5.72-2.19l-4.44-2.03c-.06-.15-.18-.32-.37-.34-.01-.49-.07-.93.36-1.26,3.32,1.84,6.71,3.4,10.26,4.62.16.47-.1.85-.1,1.2Z" fill="#fae687"/>
                <path d="M93.75,51.09c-.1,0-.17.09-.25.13-3.4,1.54-6.74,3.17-10.3,4.35-.06-.44-.17-.79-.08-1.21,3.45-1.25,6.78-2.67,9.94-4.51.15-.09.34-.04.45,0,.34.12.22,1.04.24,1.23Z" fill="#fae687"/>
                <path d="M29.93,68.04c-2.14-.39-4.24-.97-6.32-1.74-.48-.18-.89-.44-1.36-.44-.16-.16-.37-.26-.6-.23-.16-.44-.23-.96,0-1.46l2.06.85c1.98.82,3.95,1.5,6.02,2.04.28.19.13.73.2.98Z" fill="#fae687"/>
                <path d="M90.42,65.61c-.24-.06-.43.07-.64.14-2.53.82-5.01,1.82-7.64,2.27.06-.38.07-.67.19-1.02,2.62-.63,5.1-1.53,7.52-2.73.17-.09.57-.14.63.02.19.47-.02.91-.07,1.31Z" fill="#fae687"/>
                <path d="M33.67,78.21c-1.84-.16-3.61-.75-5.42-1.07-.32-.06-.61-.4-.97-.35-.13-.32-.23-.6-.14-1,2.01.54,3.99,1.22,6.1,1.51.3.26.27.65.43.91Z" fill="#fae687"/>
                <path d="M84.77,76.89c-.32-.05-.58.2-.87.26-1.83.39-3.64.88-5.5,1.05.12-.26.19-.74.47-.83,2.03-.38,3.96-.97,5.95-1.59.22.45,0,.78-.05,1.1Z" fill="#fae687"/>
                <path d="M21.19,70.3c-.11-.04-.25-.06-.31-.13-.13-.14-.06-.32-.03-.46l.34.59Z" fill="#c4cba2"/>
                <path d="M80.9,65c0,.09.01.28-.1.29-.03-.06-.14-.13-.11-.19.05-.1.13-.17.21-.1Z" fill="#e18f21"/>
                <path d="M81.15,62.88c-.08.05-.1-.03-.11-.07-.03-.11.03-.23.13-.18l-.02.26Z" fill="#e18f21"/>
                <path d="M81.03,63.72c-.1.05-.11-.09-.09-.15.01-.04.09-.06.1-.1l-.02.25Z" fill="#e18f21"/>
                <path d="M55.98,43.05c.44-.03.89.23,1.3.48l6.71,4.08c.63.38,1.37.66,1.92,1.02l4.56,2.94c.9.58,1.79,1.22,2.77,1.81l1.8,1.08c.76.46,1.57.87,2.12,1.61.39.52.29,3.39.23,4.14-.03.48-.25.99.04,1.36-.03.05,0,.15,0,.21-.06-.06-.13-.01-.17.02.03-.03-.31,1.92-.34,2.12-.33,2.1-1.15,5.27-2.01,7.24-.06.14-.3.24-.31.38-.06,1.06-2.69,4.93-3.52,5.88-1.78,2.02-3.24,3.5-5.45,5l-1.21.83-1.15.75c-.91.59-1.8,1.06-2.77,1.56l-1.5.77c-.94.48-1.9.95-2.92,1.26-.39.12-.78-.35-1.08-.48l-2.08-.9c-2.67-1.16-8.28-4.78-10.18-6.98-.65-.76-1.4-1.38-2.02-2.19-2.65-3.46-4.29-7.46-5.21-11.67l-.81-3.68c-.02-.09.05-.31,0-.38-.03-.06-.07-.18-.2-.12,0-.07-.02-.14-.01-.21.06.02.11-.04.11-.13v-3.94c0-.08-.06-.15-.11-.13,0-.08.09-.16.1-.23.33-.62.76-1.03,1.39-1.39l3.1-1.82c.1-.06.08-.23.09-.28.05,0,.15-.05.2-.03.17.06,2.03-1.18,2.41-1.43.55-.37,1.21-.57,1.58-1.08.04,0,.08-.02.12-.01.25.03.33-.24.49-.33l10.66-6.57c.44-.27.89-.5,1.35-.52ZM65.44,81.18c5.28-3.87,8.75-9.38,10.02-15.75.55-2.75.82-5.47.75-8.27-.01-.42-.27-.69-.6-.9l-10.56-6.44-8.55-5.12c-.36-.21-.65-.2-1.03.03l-19.2,11.71c-.24.14-.42.41-.44.69-.27,7.22,1.93,15.33,7,20.65,1.27,1.33,2.51,2.48,4.01,3.56,2.86,2.05,5.93,3.67,9.24,5,3.35-1.37,6.43-3.02,9.36-5.16Z" fill="#133651"/>
                <path d="M77.44,61.77c-.21,2.7-.92,5.35-1.72,7.94,0,.03,0,.08,0,.11-.12,0-.08.17-.11.25-1.82,4.54-4.61,8.56-8.53,11.6-3.02,2.34-6.25,4.2-9.77,5.67-.48.2-.88.49-1.35.48-3.29-1.27-7.65-3.59-10.44-5.67-.85-.64-1.86-1.47-2.62-2.22-4.79-4.8-7.16-10.11-8.17-16.81-.02-.16.06-.4-.13-.48.08-.5-.13-.97-.09-1.46.13-.06.17.06.2.12.04.08-.03.29,0,.38l.81,3.68c.92,4.21,2.56,8.22,5.21,11.67.62.8,1.36,1.43,2.02,2.19,1.9,2.21,7.51,5.83,10.18,6.98l2.08.9c.3.13.69.6,1.08.48,1.03-.31,1.98-.78,2.92-1.26l1.5-.77c.97-.5,1.86-.97,2.77-1.56l1.15-.75,1.21-.83c2.21-1.5,3.66-2.99,5.45-5,.83-.94,3.46-4.82,3.52-5.88,0-.14.25-.24.31-.38.86-1.96,1.68-5.14,2.01-7.24.03-.21.38-2.15.34-2.12.04-.03.1-.08.17-.02Z" fill="#4f391e"/>
                <path d="M45.52,82.14c-.39.12-.63.49-.9.83-.88,1.09-1.43.96-1.13,2.31-.06,0-.12-.04-.16-.09-1.26-.71-2-1.98-2.95-2.9.43-.22,2.42-1.95,2.53-2.38.76.76,1.76,1.59,2.62,2.22Z" fill="#fae687"/>
                <path d="M34.5,60.95c.05-.35-.09-.7-.11-1.09-.06-.84-.01-1.66-.02-2.5,0-.23.14-.42.13-.61.05-.02.11.05.11.13v3.94c0,.09-.05.15-.1.13Z" fill="#4f391e"/>
                <path d="M34.6,56.51c.05-.7.64-1.11,1.25-1.44,1.17-.64,2.25-1.36,3.33-2.04-.01.05,0,.22-.09.28l-3.1,1.82c-.62.37-1.06.77-1.39,1.39Z" fill="#4f391e"/>
                <path d="M39.38,53c.52-.62,1.48-.79,2.31-1.53.43-.39,1.21-.64,1.68-.98-.37.51-1.03.71-1.58,1.08-.38.25-2.24,1.5-2.41,1.43Z" fill="#4f391e"/>
                <path d="M34.73,63.11c-.16-.08-.15-.33-.13-.48.19.08.1.32.13.48Z" fill="#e18f21"/>
                <path d="M78.76,71.04c-3.76,5.47-5,14.56-21.9,21.02-.28.11-.56.28-.8.21l.03-3.97c0-.2-.04-.36-.12-.48.48.01.87-.28,1.35-.48,3.52-1.47,6.75-3.33,9.77-5.67,3.92-3.04,6.7-7.06,8.53-11.6.08.02.11-.02.12-.08,0-.07,0-.12,0-.17,0-.03-.01-.08,0-.11.18-.02.35-.14.56-.1.15.02.26.24.41.38.36.33.95.21,1.32.49.26.19.34.71.75.57Z" fill="#efaa21"/>
                <path d="M45.52,82.14c2.79,2.09,7.16,4.4,10.44,5.67.08.12.12.28.12.48l-.03,3.97c-4.55-1.41-9.03-3.8-12.57-6.98-.3-1.35.26-1.23,1.13-2.31.28-.34.51-.71.9-.83Z" fill="#f8c826"/>
                <path d="M70.72,51.57c.32.49.94.63,1.46.96l4.83,3.08c.93.59.66,3.29.55,4.25-.07.6.13,1.2-.12,1.7-.29-.37-.07-.89-.04-1.36.05-.75.16-3.62-.23-4.14-.55-.73-1.36-1.15-2.12-1.61l-1.8-1.08c-.98-.59-1.87-1.23-2.77-1.81.08-.02.16-.02.24,0Z" fill="#4f391e"/>
                <path d="M43.48,50.48c.1-.18.31-.25.49-.33-.16.1-.24.37-.49.33Z" fill="#4f391e"/>
                <path d="M65.44,81.18c-2.93,2.14-6.01,3.79-9.36,5.16-3.31-1.33-6.38-2.94-9.24-5-1.5-1.08-2.74-2.23-4.01-3.56-5.07-5.32-7.27-13.44-7-20.65.01-.28.2-.55.44-.69l19.2-11.71c.38-.23.68-.25,1.03-.03l8.55,5.12,10.56,6.44c.34.2.59.48.6.9.07,2.8-.2,5.52-.75,8.27-1.27,6.37-4.73,11.88-10.02,15.75ZM68.99,69.15c2.29-.25,4.19-1.13,5.23-3.14.92-1.77,1.11-3.81.69-5.78-.47-2.21-2.21-3.75-4.4-4.12-.5-.08-.96-.18-1.47-.18l-3.84-.02-1.93.37c-.57.11-1.19-.43-1.92-.41l-2.48.08c-.79.02-1.7.29-2.05,1.02l-.77,1.58c-.62-1.11-.75-2.42-2.56-2.57-1.26-.11-2.52-.15-3.78.02-.89.12-1.76,1.02-1.34,1.9l3.19,6.63-2.44,5.25c-.47,1.02-1.04,2.14-.49,2.96.19.28.57.55,1.04.61,1.4.17,2.82.23,4.2,0,1.53-.26,1.49-1.63,2.05-2.7.58,1.16.33,2.13,1.79,2.57,1.53.46,4,.32,5.56-.05,1.51.33,3.02.48,4.54.1,1.69-.42,1.05-2.64,1.18-4.13ZM43.91,71.6c.92-.07,1.51-.8,1.54-1.65l.08-2.4,2.22-.06c1.84-.05,1.91-2.49,1.65-3.71-.17-.8-.78-1.38-1.6-1.39l-2.28-.02c-.18-1.49.56-3.5-1.37-4.01-.91-.24-3.24-.16-3.27,1.26l-.06,2.75-2.36.03c-1.74.02-1.72,2.58-1.41,3.77.24.92,1.07,1.32,1.95,1.33l1.83.03.03,2.53c.01.85.71,1.47,1.56,1.54.47.04.95.04,1.5,0Z" fill="#2b669b"/>
                <path d="M75.62,70.07c.03-.08-.01-.26.11-.25,0,.05.01.1,0,.17,0,.06-.04.1-.12.08Z" fill="#f8c826"/>
                <path d="M68.99,69.15c-.13,1.5.51,3.71-1.18,4.13-1.52.38-3.03.23-4.54-.1-1.56.37-4.03.51-5.56.05s-1.21-1.41-1.79-2.57c-.56,1.08-.52,2.44-2.05,2.7-1.38.24-2.8.17-4.2,0-.47-.06-.85-.33-1.04-.61-.55-.82.02-1.95.49-2.96l2.44-5.25-3.19-6.63c-.42-.88.45-1.78,1.34-1.9,1.26-.16,2.52-.12,3.78-.02,1.81.15,1.94,1.46,2.56,2.57l.77-1.58c.35-.73,1.26-.99,2.05-1.02l2.48-.08c.72-.02,1.35.52,1.92.41l1.93-.37,3.84.02c.51,0,.98.1,1.47.18,2.19.36,3.92,1.91,4.4,4.12.42,1.96.23,4-.69,5.78-1.04,2.01-2.94,2.88-5.23,3.14ZM62.85,71.95c.32-.45-1.05-2.71-1.37-3.33l-2.09-4.06,1.38-3,1.75-3.64c.13-.27.23-.5.07-.79-.09-.17-.36-.32-.66-.33-1.01-.05-2.02-.06-3.02,0-.66.04-1.15.28-1.42.88l-1.29,2.8c-.28.03-.46-.31-.55-.53l-.85-2.05c-.16-.38-.45-.86-.91-.95-1.28-.25-2.57-.21-3.87-.15-.24.01-.85.37-.73.66.54,1.39,1.26,2.63,1.88,3.97l1.37,2.95c-.55.85-.83,1.7-1.24,2.56-.25.52-2.5,4.93-1.79,5.06.59.52,3.33.36,4.15.29.57-.05.96-.35,1.13-.88.28-.92.54-1.81.87-2.72.05-.14.18-.17.25-.18.14-.02.18.09.23.23l.97,2.63c.19.52.6.87,1.21.92.81.07,4.1.3,4.54-.33ZM68.26,68.06c1.09-.12,2.07-.22,2.95-.63,2.11-1,3.17-3.11,3.02-5.4-.07-1.12-.02-2.25-.7-3.17-.94-1.28-2.35-2.03-3.94-2.04l-4.87-.04c-.4,0-1.05.37-1.05.83v14.02c-.01.42.5.62.85.66.63.06,3.61.29,3.63-.67l.11-3.55ZM62.73,69.43l.03-9.8-2.48,5.07,2.45,4.73Z" fill="#133651"/>
                <path d="M43.91,71.6c-.54.04-1.03.04-1.5,0-.85-.06-1.55-.68-1.56-1.54l-.03-2.53-1.83-.03c-.88-.01-1.7-.42-1.95-1.33-.32-1.19-.34-3.74,1.41-3.77l2.36-.03.06-2.75c.03-1.42,2.36-1.5,3.27-1.26,1.93.51,1.19,2.51,1.37,4.01l2.28.02c.83,0,1.43.58,1.6,1.39.26,1.22.2,3.66-1.65,3.71l-2.22.06-.08,2.4c-.03.85-.61,1.58-1.54,1.65ZM44.71,66.37c.03-.27.45-.05.6-.07,1.96-.22,3.21.31,3.3-.92.08-1.08.19-2.03-.67-2.16-.97-.14-1.93-.12-2.89.02-.81.12-.04-2.08-.61-3.63-.22-.6-2.62-.7-2.69.17-.1,1.14,0,2.27-.22,3.43-.71.12-1.4,0-2.11-.05-.32-.02-.63.15-.98.1-.94-.14-.71,1.67-.64,2.19.07.48.41.78.89.78l2.88.02.02,3.1c0,.55.38.94.94.94h1.21c1.46.01.75-1.9.97-3.92Z" fill="#133651"/>
                <path d="M62.85,71.95c-.44.63-3.73.4-4.54.33-.62-.05-1.02-.4-1.21-.92l-.97-2.63c-.05-.14-.09-.25-.23-.23-.07,0-.2.05-.25.18-.33.9-.59,1.8-.87,2.72-.16.53-.56.83-1.13.88-.82.07-3.56.23-4.15-.29-.71-.13,1.54-4.53,1.79-5.06.41-.85.7-1.71,1.24-2.56l-1.37-2.95c-.62-1.34-1.34-2.58-1.88-3.97-.11-.28.49-.65.73-.66,1.3-.06,2.59-.1,3.87.15.46.09.75.57.91.95l.85,2.05c.09.22.27.55.55.53l1.29-2.8c.28-.6.76-.84,1.42-.88,1-.05,2.01-.04,3.02,0,.31.01.57.16.66.33.16.28.06.52-.07.79l-1.75,3.64-1.38,3,2.09,4.06c.32.63,1.69,2.89,1.37,3.33ZM62.52,71.68c0-.1-.03-.24-.1-.38l-3.42-6.7c.99-2.36,2.15-4.61,3.31-6.91.07-.14.13-.27.07-.36-.26-.44-2.99-.24-3.65-.22-.35.1-.8.15-.96.52l-1.77,3.94-1.6-3.84c-.15-.37-.51-.5-.89-.59-.6-.04-3.77-.27-3.92.17-.05.16,0,.29.09.45l3.23,6.68-1.61,3.41-1.58,3.56c-.06.13,0,.31.04.37.32.36,3.15.25,3.81.15.36-.04.62-.2.74-.54l1.53-4.31c.6,1.3,1.07,2.61,1.54,3.95.2.56.59.87,1.21.92.55.05,3.91.26,3.94-.26Z" fill="#4f391e"/>
                <path d="M68.26,68.06l-.11,3.55c-.03.95-3,.73-3.63.67-.35-.03-.86-.23-.86-.66v-14.02c.01-.46.66-.83,1.06-.83l4.87.04c1.59.01,2.99.77,3.94,2.04.68.93.63,2.05.7,3.17.15,2.29-.91,4.4-3.02,5.4-.88.42-1.86.52-2.95.63ZM73.53,64.46c.54-1.48.58-3.08.08-4.58-.67-2.04-2.82-2.76-4.81-2.81-1.42-.04-2.77-.03-4.19.06-.24.02-.62.18-.62.48v14.15c1.08.35,2.14.23,3.23.14.38-.03.62-.26.62-.64l.04-3.6c2.49-.04,4.78-.81,5.64-3.2Z" fill="#4f391e"/>
                <polygon points="62.73 69.43 60.28 64.69 62.76 59.62 62.73 69.43" fill="#2b669b"/>
                <path d="M62.52,71.68c-.03.52-3.39.31-3.94.26-.61-.05-1.01-.35-1.21-.92-.47-1.34-.94-2.65-1.54-3.95l-1.53,4.31c-.12.33-.39.49-.74.54-.66.1-3.49.2-3.81-.15-.05-.06-.1-.25-.04-.37l1.58-3.56,1.61-3.41-3.23-6.68c-.08-.16-.14-.29-.09-.45.14-.44,3.32-.21,3.92-.17.38.09.74.22.89.59l1.6,3.84,1.77-3.94c.16-.36.61-.42.96-.52.67-.03,3.4-.22,3.65.22.06.1,0,.23-.07.36-1.17,2.31-2.32,4.56-3.31,6.91l3.42,6.7c.07.14.1.28.1.38Z" fill="#f8c826"/>
                <path d="M73.53,64.46c-.87,2.38-3.15,3.16-5.64,3.2l-.04,3.6c0,.38-.24.61-.62.64-1.09.08-2.16.21-3.23-.14v-14.15c0-.3.39-.47.62-.48,1.41-.09,2.76-.09,4.19-.06,1.99.05,4.13.78,4.81,2.81.5,1.51.46,3.1-.08,4.58ZM70.03,62.09c0-.71-.31-1.23-.94-1.41-.39-.12-.8-.14-1.22-.06v3.47c.55.16,1.22-.04,1.62-.37.47-.39.55-.95.55-1.63Z" fill="#f8c826"/>
                <g>
                  <path d="M44.71,66.37c-.22,2.03.49,3.94-.97,3.93h-1.21c-.56,0-.93-.4-.94-.95l-.02-3.1-2.88-.02c-.48,0-.82-.3-.89-.78-.07-.53-.3-2.33.64-2.19.35.05.66-.12.98-.1.71.05,1.4.17,2.11.05.21-1.16.12-2.29.22-3.43.08-.87,2.47-.77,2.69-.17.58,1.56-.2,3.75.61,3.63.97-.14,1.92-.17,2.89-.02.86.13.75,1.07.67,2.16-.09,1.24-1.35.71-3.3.92-.15.02-.58-.19-.6.07ZM44.33,69.46l.02-3.58h3.34c.77,0,.64-.93.6-1.81-.01-.34-.26-.53-.6-.53h-3.34s-.05-3.67-.05-3.67c0-.74-1.96-.57-2.19-.28-.41.52.08,3.01-.21,3.94l-3.33.02c-.65,0-.5,1.05-.48,1.72.01.35.25.6.6.61l3.28.03.02,3.33c0,.38.12.71.55.74.64.05,1.79.19,1.79-.51Z" fill="#4f391e"/>
                  <path d="M44.33,69.46c0,.7-1.16.56-1.79.51-.43-.03-.55-.35-.55-.74l-.02-3.33-3.28-.03c-.35,0-.59-.25-.6-.61-.02-.66-.16-1.71.48-1.72l3.33-.02c.29-.94-.21-3.43.21-3.94.23-.29,2.18-.46,2.19.28l.05,3.67h3.34c.34,0,.59.19.6.53.04.87.17,1.81-.6,1.81h-3.34s-.02,3.58-.02,3.58Z" fill="#f8c826"/>
                </g>
                <path d="M70.03,62.09c0,.68-.08,1.24-.55,1.63-.39.33-1.06.53-1.62.37v-3.47c.43-.08.83-.06,1.23.06.63.19.94.7.94,1.41ZM69.54,63.06c.19-.48.23-1.19-.01-1.61-.26-.46-.94-.55-1.34-.44l.03,2.7c.48,0,1.11-.1,1.32-.64Z" fill="#4f391e"/>
                <path d="M69.54,63.06c-.21.54-.84.65-1.32.64l-.03-2.7c.4-.11,1.08-.01,1.34.44.24.42.2,1.13.01,1.61Z" fill="#133651"/>
              </g>
            </g>
          </g>
        </g>
      </g>
    </g>
  </g>
</svg>